G04 #@! TF.GenerationSoftware,KiCad,Pcbnew,(6.0.2)*
G04 #@! TF.CreationDate,2023-03-14T23:15:21-04:00*
G04 #@! TF.ProjectId,ARTIQAmp,41525449-5141-46d7-902e-6b696361645f,rev?*
G04 #@! TF.SameCoordinates,Original*
G04 #@! TF.FileFunction,Soldermask,Top*
G04 #@! TF.FilePolarity,Negative*
%FSLAX46Y46*%
G04 Gerber Fmt 4.6, Leading zero omitted, Abs format (unit mm)*
G04 Created by KiCad (PCBNEW (6.0.2)) date 2023-03-14 23:15:21*
%MOMM*%
%LPD*%
G01*
G04 APERTURE LIST*
G04 Aperture macros list*
%AMRoundRect*
0 Rectangle with rounded corners*
0 $1 Rounding radius*
0 $2 $3 $4 $5 $6 $7 $8 $9 X,Y pos of 4 corners*
0 Add a 4 corners polygon primitive as box body*
4,1,4,$2,$3,$4,$5,$6,$7,$8,$9,$2,$3,0*
0 Add four circle primitives for the rounded corners*
1,1,$1+$1,$2,$3*
1,1,$1+$1,$4,$5*
1,1,$1+$1,$6,$7*
1,1,$1+$1,$8,$9*
0 Add four rect primitives between the rounded corners*
20,1,$1+$1,$2,$3,$4,$5,0*
20,1,$1+$1,$4,$5,$6,$7,0*
20,1,$1+$1,$6,$7,$8,$9,0*
20,1,$1+$1,$8,$9,$2,$3,0*%
G04 Aperture macros list end*
%ADD10C,0.010000*%
%ADD11RoundRect,0.250000X-0.625000X0.312500X-0.625000X-0.312500X0.625000X-0.312500X0.625000X0.312500X0*%
%ADD12RoundRect,0.225000X0.250000X-0.225000X0.250000X0.225000X-0.250000X0.225000X-0.250000X-0.225000X0*%
%ADD13RoundRect,0.225000X-0.250000X0.225000X-0.250000X-0.225000X0.250000X-0.225000X0.250000X0.225000X0*%
%ADD14RoundRect,0.225000X0.225000X0.250000X-0.225000X0.250000X-0.225000X-0.250000X0.225000X-0.250000X0*%
%ADD15R,2.600000X2.600000*%
%ADD16C,2.600000*%
%ADD17C,1.360000*%
%ADD18C,4.100000*%
%ADD19RoundRect,0.200000X0.200000X0.275000X-0.200000X0.275000X-0.200000X-0.275000X0.200000X-0.275000X0*%
%ADD20RoundRect,0.200000X-0.200000X-0.275000X0.200000X-0.275000X0.200000X0.275000X-0.200000X0.275000X0*%
%ADD21RoundRect,0.200000X-0.275000X0.200000X-0.275000X-0.200000X0.275000X-0.200000X0.275000X0.200000X0*%
%ADD22R,1.600000X2.000000*%
%ADD23R,2.600000X2.000000*%
%ADD24R,1.526000X0.650000*%
%ADD25R,2.260000X5.000000*%
%ADD26C,0.600000*%
%ADD27R,1.600000X3.200000*%
%ADD28RoundRect,0.200000X0.275000X-0.200000X0.275000X0.200000X-0.275000X0.200000X-0.275000X-0.200000X0*%
%ADD29RoundRect,0.250000X0.325000X0.650000X-0.325000X0.650000X-0.325000X-0.650000X0.325000X-0.650000X0*%
%ADD30RoundRect,0.250000X-0.325000X-0.650000X0.325000X-0.650000X0.325000X0.650000X-0.325000X0.650000X0*%
%ADD31R,0.850000X1.000000*%
%ADD32R,1.050000X1.000000*%
%ADD33R,2.200000X1.050000*%
%ADD34R,1.000000X0.850000*%
%ADD35RoundRect,0.250000X0.625000X-0.312500X0.625000X0.312500X-0.625000X0.312500X-0.625000X-0.312500X0*%
%ADD36RoundRect,0.250000X0.650000X-0.325000X0.650000X0.325000X-0.650000X0.325000X-0.650000X-0.325000X0*%
%ADD37R,2.280000X2.120000*%
%ADD38R,3.680000X1.270000*%
%ADD39RoundRect,0.250000X-0.375000X-1.075000X0.375000X-1.075000X0.375000X1.075000X-0.375000X1.075000X0*%
%ADD40R,1.270000X3.680000*%
G04 APERTURE END LIST*
D10*
X168780000Y-51100000D02*
X168780000Y-50100000D01*
X168780000Y-50100000D02*
X169430000Y-50100000D01*
X169430000Y-50100000D02*
X169430000Y-48700000D01*
X169430000Y-48700000D02*
X168780000Y-48700000D01*
X168780000Y-48700000D02*
X168780000Y-47700000D01*
X168780000Y-47700000D02*
X166580000Y-47700000D01*
X166580000Y-47700000D02*
X166580000Y-48700000D01*
X166580000Y-48700000D02*
X165630000Y-48700000D01*
X165630000Y-48700000D02*
X165630000Y-50100000D01*
X165630000Y-50100000D02*
X166580000Y-50100000D01*
X166580000Y-50100000D02*
X166580000Y-51100000D01*
X166580000Y-51100000D02*
X168780000Y-51100000D01*
G36*
X168780000Y-48700000D02*
G01*
X169430000Y-48700000D01*
X169430000Y-50100000D01*
X168780000Y-50100000D01*
X168780000Y-51100000D01*
X166580000Y-51100000D01*
X166580000Y-50100000D01*
X165630000Y-50100000D01*
X165630000Y-48700000D01*
X166580000Y-48700000D01*
X166580000Y-47700000D01*
X168780000Y-47700000D01*
X168780000Y-48700000D01*
G37*
X168780000Y-48700000D02*
X169430000Y-48700000D01*
X169430000Y-50100000D01*
X168780000Y-50100000D01*
X168780000Y-51100000D01*
X166580000Y-51100000D01*
X166580000Y-50100000D01*
X165630000Y-50100000D01*
X165630000Y-48700000D01*
X166580000Y-48700000D01*
X166580000Y-47700000D01*
X168780000Y-47700000D01*
X168780000Y-48700000D01*
X161480000Y-51100000D02*
X161480000Y-50100000D01*
X161480000Y-50100000D02*
X160830000Y-50100000D01*
X160830000Y-50100000D02*
X160830000Y-48700000D01*
X160830000Y-48700000D02*
X161480000Y-48700000D01*
X161480000Y-48700000D02*
X161480000Y-47700000D01*
X161480000Y-47700000D02*
X163680000Y-47700000D01*
X163680000Y-47700000D02*
X163680000Y-48700000D01*
X163680000Y-48700000D02*
X164630000Y-48700000D01*
X164630000Y-48700000D02*
X164630000Y-50100000D01*
X164630000Y-50100000D02*
X163680000Y-50100000D01*
X163680000Y-50100000D02*
X163680000Y-51100000D01*
X163680000Y-51100000D02*
X161480000Y-51100000D01*
G36*
X163680000Y-48700000D02*
G01*
X164630000Y-48700000D01*
X164630000Y-50100000D01*
X163680000Y-50100000D01*
X163680000Y-51100000D01*
X161480000Y-51100000D01*
X161480000Y-50100000D01*
X160830000Y-50100000D01*
X160830000Y-48700000D01*
X161480000Y-48700000D01*
X161480000Y-47700000D01*
X163680000Y-47700000D01*
X163680000Y-48700000D01*
G37*
X163680000Y-48700000D02*
X164630000Y-48700000D01*
X164630000Y-50100000D01*
X163680000Y-50100000D01*
X163680000Y-51100000D01*
X161480000Y-51100000D01*
X161480000Y-50100000D01*
X160830000Y-50100000D01*
X160830000Y-48700000D01*
X161480000Y-48700000D01*
X161480000Y-47700000D01*
X163680000Y-47700000D01*
X163680000Y-48700000D01*
X76175000Y-130480000D02*
X76175000Y-129480000D01*
X76175000Y-129480000D02*
X75525000Y-129480000D01*
X75525000Y-129480000D02*
X75525000Y-128080000D01*
X75525000Y-128080000D02*
X76175000Y-128080000D01*
X76175000Y-128080000D02*
X76175000Y-127080000D01*
X76175000Y-127080000D02*
X78375000Y-127080000D01*
X78375000Y-127080000D02*
X78375000Y-128080000D01*
X78375000Y-128080000D02*
X79325000Y-128080000D01*
X79325000Y-128080000D02*
X79325000Y-129480000D01*
X79325000Y-129480000D02*
X78375000Y-129480000D01*
X78375000Y-129480000D02*
X78375000Y-130480000D01*
X78375000Y-130480000D02*
X76175000Y-130480000D01*
G36*
X78375000Y-128080000D02*
G01*
X79325000Y-128080000D01*
X79325000Y-129480000D01*
X78375000Y-129480000D01*
X78375000Y-130480000D01*
X76175000Y-130480000D01*
X76175000Y-129480000D01*
X75525000Y-129480000D01*
X75525000Y-128080000D01*
X76175000Y-128080000D01*
X76175000Y-127080000D01*
X78375000Y-127080000D01*
X78375000Y-128080000D01*
G37*
X78375000Y-128080000D02*
X79325000Y-128080000D01*
X79325000Y-129480000D01*
X78375000Y-129480000D01*
X78375000Y-130480000D01*
X76175000Y-130480000D01*
X76175000Y-129480000D01*
X75525000Y-129480000D01*
X75525000Y-128080000D01*
X76175000Y-128080000D01*
X76175000Y-127080000D01*
X78375000Y-127080000D01*
X78375000Y-128080000D01*
X83475000Y-130480000D02*
X83475000Y-129480000D01*
X83475000Y-129480000D02*
X84125000Y-129480000D01*
X84125000Y-129480000D02*
X84125000Y-128080000D01*
X84125000Y-128080000D02*
X83475000Y-128080000D01*
X83475000Y-128080000D02*
X83475000Y-127080000D01*
X83475000Y-127080000D02*
X81275000Y-127080000D01*
X81275000Y-127080000D02*
X81275000Y-128080000D01*
X81275000Y-128080000D02*
X80325000Y-128080000D01*
X80325000Y-128080000D02*
X80325000Y-129480000D01*
X80325000Y-129480000D02*
X81275000Y-129480000D01*
X81275000Y-129480000D02*
X81275000Y-130480000D01*
X81275000Y-130480000D02*
X83475000Y-130480000D01*
G36*
X83475000Y-128080000D02*
G01*
X84125000Y-128080000D01*
X84125000Y-129480000D01*
X83475000Y-129480000D01*
X83475000Y-130480000D01*
X81275000Y-130480000D01*
X81275000Y-129480000D01*
X80325000Y-129480000D01*
X80325000Y-128080000D01*
X81275000Y-128080000D01*
X81275000Y-127080000D01*
X83475000Y-127080000D01*
X83475000Y-128080000D01*
G37*
X83475000Y-128080000D02*
X84125000Y-128080000D01*
X84125000Y-129480000D01*
X83475000Y-129480000D01*
X83475000Y-130480000D01*
X81275000Y-130480000D01*
X81275000Y-129480000D01*
X80325000Y-129480000D01*
X80325000Y-128080000D01*
X81275000Y-128080000D01*
X81275000Y-127080000D01*
X83475000Y-127080000D01*
X83475000Y-128080000D01*
X185510000Y-129910000D02*
X185510000Y-128910000D01*
X185510000Y-128910000D02*
X186160000Y-128910000D01*
X186160000Y-128910000D02*
X186160000Y-127510000D01*
X186160000Y-127510000D02*
X185510000Y-127510000D01*
X185510000Y-127510000D02*
X185510000Y-126510000D01*
X185510000Y-126510000D02*
X183310000Y-126510000D01*
X183310000Y-126510000D02*
X183310000Y-127510000D01*
X183310000Y-127510000D02*
X182360000Y-127510000D01*
X182360000Y-127510000D02*
X182360000Y-128910000D01*
X182360000Y-128910000D02*
X183310000Y-128910000D01*
X183310000Y-128910000D02*
X183310000Y-129910000D01*
X183310000Y-129910000D02*
X185510000Y-129910000D01*
G36*
X185510000Y-127510000D02*
G01*
X186160000Y-127510000D01*
X186160000Y-128910000D01*
X185510000Y-128910000D01*
X185510000Y-129910000D01*
X183310000Y-129910000D01*
X183310000Y-128910000D01*
X182360000Y-128910000D01*
X182360000Y-127510000D01*
X183310000Y-127510000D01*
X183310000Y-126510000D01*
X185510000Y-126510000D01*
X185510000Y-127510000D01*
G37*
X185510000Y-127510000D02*
X186160000Y-127510000D01*
X186160000Y-128910000D01*
X185510000Y-128910000D01*
X185510000Y-129910000D01*
X183310000Y-129910000D01*
X183310000Y-128910000D01*
X182360000Y-128910000D01*
X182360000Y-127510000D01*
X183310000Y-127510000D01*
X183310000Y-126510000D01*
X185510000Y-126510000D01*
X185510000Y-127510000D01*
X178210000Y-129910000D02*
X178210000Y-128910000D01*
X178210000Y-128910000D02*
X177560000Y-128910000D01*
X177560000Y-128910000D02*
X177560000Y-127510000D01*
X177560000Y-127510000D02*
X178210000Y-127510000D01*
X178210000Y-127510000D02*
X178210000Y-126510000D01*
X178210000Y-126510000D02*
X180410000Y-126510000D01*
X180410000Y-126510000D02*
X180410000Y-127510000D01*
X180410000Y-127510000D02*
X181360000Y-127510000D01*
X181360000Y-127510000D02*
X181360000Y-128910000D01*
X181360000Y-128910000D02*
X180410000Y-128910000D01*
X180410000Y-128910000D02*
X180410000Y-129910000D01*
X180410000Y-129910000D02*
X178210000Y-129910000D01*
G36*
X180410000Y-127510000D02*
G01*
X181360000Y-127510000D01*
X181360000Y-128910000D01*
X180410000Y-128910000D01*
X180410000Y-129910000D01*
X178210000Y-129910000D01*
X178210000Y-128910000D01*
X177560000Y-128910000D01*
X177560000Y-127510000D01*
X178210000Y-127510000D01*
X178210000Y-126510000D01*
X180410000Y-126510000D01*
X180410000Y-127510000D01*
G37*
X180410000Y-127510000D02*
X181360000Y-127510000D01*
X181360000Y-128910000D01*
X180410000Y-128910000D01*
X180410000Y-129910000D01*
X178210000Y-129910000D01*
X178210000Y-128910000D01*
X177560000Y-128910000D01*
X177560000Y-127510000D01*
X178210000Y-127510000D01*
X178210000Y-126510000D01*
X180410000Y-126510000D01*
X180410000Y-127510000D01*
X110840000Y-47340000D02*
X110840000Y-48340000D01*
X110840000Y-48340000D02*
X110190000Y-48340000D01*
X110190000Y-48340000D02*
X110190000Y-49740000D01*
X110190000Y-49740000D02*
X110840000Y-49740000D01*
X110840000Y-49740000D02*
X110840000Y-50740000D01*
X110840000Y-50740000D02*
X113040000Y-50740000D01*
X113040000Y-50740000D02*
X113040000Y-49740000D01*
X113040000Y-49740000D02*
X113990000Y-49740000D01*
X113990000Y-49740000D02*
X113990000Y-48340000D01*
X113990000Y-48340000D02*
X113040000Y-48340000D01*
X113040000Y-48340000D02*
X113040000Y-47340000D01*
X113040000Y-47340000D02*
X110840000Y-47340000D01*
G36*
X113040000Y-48340000D02*
G01*
X113990000Y-48340000D01*
X113990000Y-49740000D01*
X113040000Y-49740000D01*
X113040000Y-50740000D01*
X110840000Y-50740000D01*
X110840000Y-49740000D01*
X110190000Y-49740000D01*
X110190000Y-48340000D01*
X110840000Y-48340000D01*
X110840000Y-47340000D01*
X113040000Y-47340000D01*
X113040000Y-48340000D01*
G37*
X113040000Y-48340000D02*
X113990000Y-48340000D01*
X113990000Y-49740000D01*
X113040000Y-49740000D01*
X113040000Y-50740000D01*
X110840000Y-50740000D01*
X110840000Y-49740000D01*
X110190000Y-49740000D01*
X110190000Y-48340000D01*
X110840000Y-48340000D01*
X110840000Y-47340000D01*
X113040000Y-47340000D01*
X113040000Y-48340000D01*
X118140000Y-47340000D02*
X118140000Y-48340000D01*
X118140000Y-48340000D02*
X118790000Y-48340000D01*
X118790000Y-48340000D02*
X118790000Y-49740000D01*
X118790000Y-49740000D02*
X118140000Y-49740000D01*
X118140000Y-49740000D02*
X118140000Y-50740000D01*
X118140000Y-50740000D02*
X115940000Y-50740000D01*
X115940000Y-50740000D02*
X115940000Y-49740000D01*
X115940000Y-49740000D02*
X114990000Y-49740000D01*
X114990000Y-49740000D02*
X114990000Y-48340000D01*
X114990000Y-48340000D02*
X115940000Y-48340000D01*
X115940000Y-48340000D02*
X115940000Y-47340000D01*
X115940000Y-47340000D02*
X118140000Y-47340000D01*
G36*
X118140000Y-48340000D02*
G01*
X118790000Y-48340000D01*
X118790000Y-49740000D01*
X118140000Y-49740000D01*
X118140000Y-50740000D01*
X115940000Y-50740000D01*
X115940000Y-49740000D01*
X114990000Y-49740000D01*
X114990000Y-48340000D01*
X115940000Y-48340000D01*
X115940000Y-47340000D01*
X118140000Y-47340000D01*
X118140000Y-48340000D01*
G37*
X118140000Y-48340000D02*
X118790000Y-48340000D01*
X118790000Y-49740000D01*
X118140000Y-49740000D01*
X118140000Y-50740000D01*
X115940000Y-50740000D01*
X115940000Y-49740000D01*
X114990000Y-49740000D01*
X114990000Y-48340000D01*
X115940000Y-48340000D01*
X115940000Y-47340000D01*
X118140000Y-47340000D01*
X118140000Y-48340000D01*
X66350000Y-130450000D02*
X66350000Y-129450000D01*
X66350000Y-129450000D02*
X67000000Y-129450000D01*
X67000000Y-129450000D02*
X67000000Y-128050000D01*
X67000000Y-128050000D02*
X66350000Y-128050000D01*
X66350000Y-128050000D02*
X66350000Y-127050000D01*
X66350000Y-127050000D02*
X64150000Y-127050000D01*
X64150000Y-127050000D02*
X64150000Y-128050000D01*
X64150000Y-128050000D02*
X63200000Y-128050000D01*
X63200000Y-128050000D02*
X63200000Y-129450000D01*
X63200000Y-129450000D02*
X64150000Y-129450000D01*
X64150000Y-129450000D02*
X64150000Y-130450000D01*
X64150000Y-130450000D02*
X66350000Y-130450000D01*
G36*
X66350000Y-128050000D02*
G01*
X67000000Y-128050000D01*
X67000000Y-129450000D01*
X66350000Y-129450000D01*
X66350000Y-130450000D01*
X64150000Y-130450000D01*
X64150000Y-129450000D01*
X63200000Y-129450000D01*
X63200000Y-128050000D01*
X64150000Y-128050000D01*
X64150000Y-127050000D01*
X66350000Y-127050000D01*
X66350000Y-128050000D01*
G37*
X66350000Y-128050000D02*
X67000000Y-128050000D01*
X67000000Y-129450000D01*
X66350000Y-129450000D01*
X66350000Y-130450000D01*
X64150000Y-130450000D01*
X64150000Y-129450000D01*
X63200000Y-129450000D01*
X63200000Y-128050000D01*
X64150000Y-128050000D01*
X64150000Y-127050000D01*
X66350000Y-127050000D01*
X66350000Y-128050000D01*
X59050000Y-130450000D02*
X59050000Y-129450000D01*
X59050000Y-129450000D02*
X58400000Y-129450000D01*
X58400000Y-129450000D02*
X58400000Y-128050000D01*
X58400000Y-128050000D02*
X59050000Y-128050000D01*
X59050000Y-128050000D02*
X59050000Y-127050000D01*
X59050000Y-127050000D02*
X61250000Y-127050000D01*
X61250000Y-127050000D02*
X61250000Y-128050000D01*
X61250000Y-128050000D02*
X62200000Y-128050000D01*
X62200000Y-128050000D02*
X62200000Y-129450000D01*
X62200000Y-129450000D02*
X61250000Y-129450000D01*
X61250000Y-129450000D02*
X61250000Y-130450000D01*
X61250000Y-130450000D02*
X59050000Y-130450000D01*
G36*
X61250000Y-128050000D02*
G01*
X62200000Y-128050000D01*
X62200000Y-129450000D01*
X61250000Y-129450000D01*
X61250000Y-130450000D01*
X59050000Y-130450000D01*
X59050000Y-129450000D01*
X58400000Y-129450000D01*
X58400000Y-128050000D01*
X59050000Y-128050000D01*
X59050000Y-127050000D01*
X61250000Y-127050000D01*
X61250000Y-128050000D01*
G37*
X61250000Y-128050000D02*
X62200000Y-128050000D01*
X62200000Y-129450000D01*
X61250000Y-129450000D01*
X61250000Y-130450000D01*
X59050000Y-130450000D01*
X59050000Y-129450000D01*
X58400000Y-129450000D01*
X58400000Y-128050000D01*
X59050000Y-128050000D01*
X59050000Y-127050000D01*
X61250000Y-127050000D01*
X61250000Y-128050000D01*
X160745000Y-130070000D02*
X160745000Y-129070000D01*
X160745000Y-129070000D02*
X160095000Y-129070000D01*
X160095000Y-129070000D02*
X160095000Y-127670000D01*
X160095000Y-127670000D02*
X160745000Y-127670000D01*
X160745000Y-127670000D02*
X160745000Y-126670000D01*
X160745000Y-126670000D02*
X162945000Y-126670000D01*
X162945000Y-126670000D02*
X162945000Y-127670000D01*
X162945000Y-127670000D02*
X163895000Y-127670000D01*
X163895000Y-127670000D02*
X163895000Y-129070000D01*
X163895000Y-129070000D02*
X162945000Y-129070000D01*
X162945000Y-129070000D02*
X162945000Y-130070000D01*
X162945000Y-130070000D02*
X160745000Y-130070000D01*
G36*
X162945000Y-127670000D02*
G01*
X163895000Y-127670000D01*
X163895000Y-129070000D01*
X162945000Y-129070000D01*
X162945000Y-130070000D01*
X160745000Y-130070000D01*
X160745000Y-129070000D01*
X160095000Y-129070000D01*
X160095000Y-127670000D01*
X160745000Y-127670000D01*
X160745000Y-126670000D01*
X162945000Y-126670000D01*
X162945000Y-127670000D01*
G37*
X162945000Y-127670000D02*
X163895000Y-127670000D01*
X163895000Y-129070000D01*
X162945000Y-129070000D01*
X162945000Y-130070000D01*
X160745000Y-130070000D01*
X160745000Y-129070000D01*
X160095000Y-129070000D01*
X160095000Y-127670000D01*
X160745000Y-127670000D01*
X160745000Y-126670000D01*
X162945000Y-126670000D01*
X162945000Y-127670000D01*
X168045000Y-130070000D02*
X168045000Y-129070000D01*
X168045000Y-129070000D02*
X168695000Y-129070000D01*
X168695000Y-129070000D02*
X168695000Y-127670000D01*
X168695000Y-127670000D02*
X168045000Y-127670000D01*
X168045000Y-127670000D02*
X168045000Y-126670000D01*
X168045000Y-126670000D02*
X165845000Y-126670000D01*
X165845000Y-126670000D02*
X165845000Y-127670000D01*
X165845000Y-127670000D02*
X164895000Y-127670000D01*
X164895000Y-127670000D02*
X164895000Y-129070000D01*
X164895000Y-129070000D02*
X165845000Y-129070000D01*
X165845000Y-129070000D02*
X165845000Y-130070000D01*
X165845000Y-130070000D02*
X168045000Y-130070000D01*
G36*
X168045000Y-127670000D02*
G01*
X168695000Y-127670000D01*
X168695000Y-129070000D01*
X168045000Y-129070000D01*
X168045000Y-130070000D01*
X165845000Y-130070000D01*
X165845000Y-129070000D01*
X164895000Y-129070000D01*
X164895000Y-127670000D01*
X165845000Y-127670000D01*
X165845000Y-126670000D01*
X168045000Y-126670000D01*
X168045000Y-127670000D01*
G37*
X168045000Y-127670000D02*
X168695000Y-127670000D01*
X168695000Y-129070000D01*
X168045000Y-129070000D01*
X168045000Y-130070000D01*
X165845000Y-130070000D01*
X165845000Y-129070000D01*
X164895000Y-129070000D01*
X164895000Y-127670000D01*
X165845000Y-127670000D01*
X165845000Y-126670000D01*
X168045000Y-126670000D01*
X168045000Y-127670000D01*
X93815007Y-50619994D02*
X93815007Y-49619994D01*
X93815007Y-49619994D02*
X93165007Y-49619994D01*
X93165007Y-49619994D02*
X93165007Y-48219994D01*
X93165007Y-48219994D02*
X93815007Y-48219994D01*
X93815007Y-48219994D02*
X93815007Y-47219994D01*
X93815007Y-47219994D02*
X96015007Y-47219994D01*
X96015007Y-47219994D02*
X96015007Y-48219994D01*
X96015007Y-48219994D02*
X96965007Y-48219994D01*
X96965007Y-48219994D02*
X96965007Y-49619994D01*
X96965007Y-49619994D02*
X96015007Y-49619994D01*
X96015007Y-49619994D02*
X96015007Y-50619994D01*
X96015007Y-50619994D02*
X93815007Y-50619994D01*
G36*
X96015007Y-48219994D02*
G01*
X96965007Y-48219994D01*
X96965007Y-49619994D01*
X96015007Y-49619994D01*
X96015007Y-50619994D01*
X93815007Y-50619994D01*
X93815007Y-49619994D01*
X93165007Y-49619994D01*
X93165007Y-48219994D01*
X93815007Y-48219994D01*
X93815007Y-47219994D01*
X96015007Y-47219994D01*
X96015007Y-48219994D01*
G37*
X96015007Y-48219994D02*
X96965007Y-48219994D01*
X96965007Y-49619994D01*
X96015007Y-49619994D01*
X96015007Y-50619994D01*
X93815007Y-50619994D01*
X93815007Y-49619994D01*
X93165007Y-49619994D01*
X93165007Y-48219994D01*
X93815007Y-48219994D01*
X93815007Y-47219994D01*
X96015007Y-47219994D01*
X96015007Y-48219994D01*
X101115007Y-50619994D02*
X101115007Y-49619994D01*
X101115007Y-49619994D02*
X101765007Y-49619994D01*
X101765007Y-49619994D02*
X101765007Y-48219994D01*
X101765007Y-48219994D02*
X101115007Y-48219994D01*
X101115007Y-48219994D02*
X101115007Y-47219994D01*
X101115007Y-47219994D02*
X98915007Y-47219994D01*
X98915007Y-47219994D02*
X98915007Y-48219994D01*
X98915007Y-48219994D02*
X97965007Y-48219994D01*
X97965007Y-48219994D02*
X97965007Y-49619994D01*
X97965007Y-49619994D02*
X98915007Y-49619994D01*
X98915007Y-49619994D02*
X98915007Y-50619994D01*
X98915007Y-50619994D02*
X101115007Y-50619994D01*
G36*
X101115007Y-48219994D02*
G01*
X101765007Y-48219994D01*
X101765007Y-49619994D01*
X101115007Y-49619994D01*
X101115007Y-50619994D01*
X98915007Y-50619994D01*
X98915007Y-49619994D01*
X97965007Y-49619994D01*
X97965007Y-48219994D01*
X98915007Y-48219994D01*
X98915007Y-47219994D01*
X101115007Y-47219994D01*
X101115007Y-48219994D01*
G37*
X101115007Y-48219994D02*
X101765007Y-48219994D01*
X101765007Y-49619994D01*
X101115007Y-49619994D01*
X101115007Y-50619994D01*
X98915007Y-50619994D01*
X98915007Y-49619994D01*
X97965007Y-49619994D01*
X97965007Y-48219994D01*
X98915007Y-48219994D01*
X98915007Y-47219994D01*
X101115007Y-47219994D01*
X101115007Y-48219994D01*
X151970000Y-47240000D02*
X151970000Y-48240000D01*
X151970000Y-48240000D02*
X152620000Y-48240000D01*
X152620000Y-48240000D02*
X152620000Y-49640000D01*
X152620000Y-49640000D02*
X151970000Y-49640000D01*
X151970000Y-49640000D02*
X151970000Y-50640000D01*
X151970000Y-50640000D02*
X149770000Y-50640000D01*
X149770000Y-50640000D02*
X149770000Y-49640000D01*
X149770000Y-49640000D02*
X148820000Y-49640000D01*
X148820000Y-49640000D02*
X148820000Y-48240000D01*
X148820000Y-48240000D02*
X149770000Y-48240000D01*
X149770000Y-48240000D02*
X149770000Y-47240000D01*
X149770000Y-47240000D02*
X151970000Y-47240000D01*
G36*
X151970000Y-48240000D02*
G01*
X152620000Y-48240000D01*
X152620000Y-49640000D01*
X151970000Y-49640000D01*
X151970000Y-50640000D01*
X149770000Y-50640000D01*
X149770000Y-49640000D01*
X148820000Y-49640000D01*
X148820000Y-48240000D01*
X149770000Y-48240000D01*
X149770000Y-47240000D01*
X151970000Y-47240000D01*
X151970000Y-48240000D01*
G37*
X151970000Y-48240000D02*
X152620000Y-48240000D01*
X152620000Y-49640000D01*
X151970000Y-49640000D01*
X151970000Y-50640000D01*
X149770000Y-50640000D01*
X149770000Y-49640000D01*
X148820000Y-49640000D01*
X148820000Y-48240000D01*
X149770000Y-48240000D01*
X149770000Y-47240000D01*
X151970000Y-47240000D01*
X151970000Y-48240000D01*
X144670000Y-47240000D02*
X144670000Y-48240000D01*
X144670000Y-48240000D02*
X144020000Y-48240000D01*
X144020000Y-48240000D02*
X144020000Y-49640000D01*
X144020000Y-49640000D02*
X144670000Y-49640000D01*
X144670000Y-49640000D02*
X144670000Y-50640000D01*
X144670000Y-50640000D02*
X146870000Y-50640000D01*
X146870000Y-50640000D02*
X146870000Y-49640000D01*
X146870000Y-49640000D02*
X147820000Y-49640000D01*
X147820000Y-49640000D02*
X147820000Y-48240000D01*
X147820000Y-48240000D02*
X146870000Y-48240000D01*
X146870000Y-48240000D02*
X146870000Y-47240000D01*
X146870000Y-47240000D02*
X144670000Y-47240000D01*
G36*
X146870000Y-48240000D02*
G01*
X147820000Y-48240000D01*
X147820000Y-49640000D01*
X146870000Y-49640000D01*
X146870000Y-50640000D01*
X144670000Y-50640000D01*
X144670000Y-49640000D01*
X144020000Y-49640000D01*
X144020000Y-48240000D01*
X144670000Y-48240000D01*
X144670000Y-47240000D01*
X146870000Y-47240000D01*
X146870000Y-48240000D01*
G37*
X146870000Y-48240000D02*
X147820000Y-48240000D01*
X147820000Y-49640000D01*
X146870000Y-49640000D01*
X146870000Y-50640000D01*
X144670000Y-50640000D01*
X144670000Y-49640000D01*
X144020000Y-49640000D01*
X144020000Y-48240000D01*
X144670000Y-48240000D01*
X144670000Y-47240000D01*
X146870000Y-47240000D01*
X146870000Y-48240000D01*
X99054000Y-37646000D02*
X96854000Y-37646000D01*
X96854000Y-37646000D02*
X96854000Y-39546000D01*
X96854000Y-39546000D02*
X94154000Y-39546000D01*
X94154000Y-39546000D02*
X94154000Y-37646000D01*
X94154000Y-37646000D02*
X91954000Y-37646000D01*
X91954000Y-37646000D02*
X91954000Y-34646000D01*
X91954000Y-34646000D02*
X94154000Y-34646000D01*
X94154000Y-34646000D02*
X94154000Y-33346000D01*
X94154000Y-33346000D02*
X96854000Y-33346000D01*
X96854000Y-33346000D02*
X96854000Y-34646000D01*
X96854000Y-34646000D02*
X99054000Y-34646000D01*
X99054000Y-34646000D02*
X99054000Y-37646000D01*
G36*
X96854000Y-34646000D02*
G01*
X99054000Y-34646000D01*
X99054000Y-37646000D01*
X96854000Y-37646000D01*
X96854000Y-39546000D01*
X94154000Y-39546000D01*
X94154000Y-37646000D01*
X91954000Y-37646000D01*
X91954000Y-34646000D01*
X94154000Y-34646000D01*
X94154000Y-33346000D01*
X96854000Y-33346000D01*
X96854000Y-34646000D01*
G37*
X96854000Y-34646000D02*
X99054000Y-34646000D01*
X99054000Y-37646000D01*
X96854000Y-37646000D01*
X96854000Y-39546000D01*
X94154000Y-39546000D01*
X94154000Y-37646000D01*
X91954000Y-37646000D01*
X91954000Y-34646000D01*
X94154000Y-34646000D01*
X94154000Y-33346000D01*
X96854000Y-33346000D01*
X96854000Y-34646000D01*
X99054000Y-25346000D02*
X96854000Y-25346000D01*
X96854000Y-25346000D02*
X96854000Y-23446000D01*
X96854000Y-23446000D02*
X94154000Y-23446000D01*
X94154000Y-23446000D02*
X94154000Y-25346000D01*
X94154000Y-25346000D02*
X91954000Y-25346000D01*
X91954000Y-25346000D02*
X91954000Y-28346000D01*
X91954000Y-28346000D02*
X94154000Y-28346000D01*
X94154000Y-28346000D02*
X94154000Y-29646000D01*
X94154000Y-29646000D02*
X96854000Y-29646000D01*
X96854000Y-29646000D02*
X96854000Y-28346000D01*
X96854000Y-28346000D02*
X99054000Y-28346000D01*
X99054000Y-28346000D02*
X99054000Y-25346000D01*
G36*
X96854000Y-25346000D02*
G01*
X99054000Y-25346000D01*
X99054000Y-28346000D01*
X96854000Y-28346000D01*
X96854000Y-29646000D01*
X94154000Y-29646000D01*
X94154000Y-28346000D01*
X91954000Y-28346000D01*
X91954000Y-25346000D01*
X94154000Y-25346000D01*
X94154000Y-23446000D01*
X96854000Y-23446000D01*
X96854000Y-25346000D01*
G37*
X96854000Y-25346000D02*
X99054000Y-25346000D01*
X99054000Y-28346000D01*
X96854000Y-28346000D01*
X96854000Y-29646000D01*
X94154000Y-29646000D01*
X94154000Y-28346000D01*
X91954000Y-28346000D01*
X91954000Y-25346000D01*
X94154000Y-25346000D01*
X94154000Y-23446000D01*
X96854000Y-23446000D01*
X96854000Y-25346000D01*
X173912000Y-27526000D02*
X172912000Y-27526000D01*
X172912000Y-27526000D02*
X172912000Y-28176000D01*
X172912000Y-28176000D02*
X171512000Y-28176000D01*
X171512000Y-28176000D02*
X171512000Y-27526000D01*
X171512000Y-27526000D02*
X170512000Y-27526000D01*
X170512000Y-27526000D02*
X170512000Y-25326000D01*
X170512000Y-25326000D02*
X171512000Y-25326000D01*
X171512000Y-25326000D02*
X171512000Y-24376000D01*
X171512000Y-24376000D02*
X172912000Y-24376000D01*
X172912000Y-24376000D02*
X172912000Y-25326000D01*
X172912000Y-25326000D02*
X173912000Y-25326000D01*
X173912000Y-25326000D02*
X173912000Y-27526000D01*
G36*
X172912000Y-25326000D02*
G01*
X173912000Y-25326000D01*
X173912000Y-27526000D01*
X172912000Y-27526000D01*
X172912000Y-28176000D01*
X171512000Y-28176000D01*
X171512000Y-27526000D01*
X170512000Y-27526000D01*
X170512000Y-25326000D01*
X171512000Y-25326000D01*
X171512000Y-24376000D01*
X172912000Y-24376000D01*
X172912000Y-25326000D01*
G37*
X172912000Y-25326000D02*
X173912000Y-25326000D01*
X173912000Y-27526000D01*
X172912000Y-27526000D01*
X172912000Y-28176000D01*
X171512000Y-28176000D01*
X171512000Y-27526000D01*
X170512000Y-27526000D01*
X170512000Y-25326000D01*
X171512000Y-25326000D01*
X171512000Y-24376000D01*
X172912000Y-24376000D01*
X172912000Y-25326000D01*
X173912000Y-20226000D02*
X172912000Y-20226000D01*
X172912000Y-20226000D02*
X172912000Y-19576000D01*
X172912000Y-19576000D02*
X171512000Y-19576000D01*
X171512000Y-19576000D02*
X171512000Y-20226000D01*
X171512000Y-20226000D02*
X170512000Y-20226000D01*
X170512000Y-20226000D02*
X170512000Y-22426000D01*
X170512000Y-22426000D02*
X171512000Y-22426000D01*
X171512000Y-22426000D02*
X171512000Y-23376000D01*
X171512000Y-23376000D02*
X172912000Y-23376000D01*
X172912000Y-23376000D02*
X172912000Y-22426000D01*
X172912000Y-22426000D02*
X173912000Y-22426000D01*
X173912000Y-22426000D02*
X173912000Y-20226000D01*
G36*
X172912000Y-20226000D02*
G01*
X173912000Y-20226000D01*
X173912000Y-22426000D01*
X172912000Y-22426000D01*
X172912000Y-23376000D01*
X171512000Y-23376000D01*
X171512000Y-22426000D01*
X170512000Y-22426000D01*
X170512000Y-20226000D01*
X171512000Y-20226000D01*
X171512000Y-19576000D01*
X172912000Y-19576000D01*
X172912000Y-20226000D01*
G37*
X172912000Y-20226000D02*
X173912000Y-20226000D01*
X173912000Y-22426000D01*
X172912000Y-22426000D01*
X172912000Y-23376000D01*
X171512000Y-23376000D01*
X171512000Y-22426000D01*
X170512000Y-22426000D01*
X170512000Y-20226000D01*
X171512000Y-20226000D01*
X171512000Y-19576000D01*
X172912000Y-19576000D01*
X172912000Y-20226000D01*
X156640000Y-27526000D02*
X155640000Y-27526000D01*
X155640000Y-27526000D02*
X155640000Y-28176000D01*
X155640000Y-28176000D02*
X154240000Y-28176000D01*
X154240000Y-28176000D02*
X154240000Y-27526000D01*
X154240000Y-27526000D02*
X153240000Y-27526000D01*
X153240000Y-27526000D02*
X153240000Y-25326000D01*
X153240000Y-25326000D02*
X154240000Y-25326000D01*
X154240000Y-25326000D02*
X154240000Y-24376000D01*
X154240000Y-24376000D02*
X155640000Y-24376000D01*
X155640000Y-24376000D02*
X155640000Y-25326000D01*
X155640000Y-25326000D02*
X156640000Y-25326000D01*
X156640000Y-25326000D02*
X156640000Y-27526000D01*
G36*
X155640000Y-25326000D02*
G01*
X156640000Y-25326000D01*
X156640000Y-27526000D01*
X155640000Y-27526000D01*
X155640000Y-28176000D01*
X154240000Y-28176000D01*
X154240000Y-27526000D01*
X153240000Y-27526000D01*
X153240000Y-25326000D01*
X154240000Y-25326000D01*
X154240000Y-24376000D01*
X155640000Y-24376000D01*
X155640000Y-25326000D01*
G37*
X155640000Y-25326000D02*
X156640000Y-25326000D01*
X156640000Y-27526000D01*
X155640000Y-27526000D01*
X155640000Y-28176000D01*
X154240000Y-28176000D01*
X154240000Y-27526000D01*
X153240000Y-27526000D01*
X153240000Y-25326000D01*
X154240000Y-25326000D01*
X154240000Y-24376000D01*
X155640000Y-24376000D01*
X155640000Y-25326000D01*
X156640000Y-20226000D02*
X155640000Y-20226000D01*
X155640000Y-20226000D02*
X155640000Y-19576000D01*
X155640000Y-19576000D02*
X154240000Y-19576000D01*
X154240000Y-19576000D02*
X154240000Y-20226000D01*
X154240000Y-20226000D02*
X153240000Y-20226000D01*
X153240000Y-20226000D02*
X153240000Y-22426000D01*
X153240000Y-22426000D02*
X154240000Y-22426000D01*
X154240000Y-22426000D02*
X154240000Y-23376000D01*
X154240000Y-23376000D02*
X155640000Y-23376000D01*
X155640000Y-23376000D02*
X155640000Y-22426000D01*
X155640000Y-22426000D02*
X156640000Y-22426000D01*
X156640000Y-22426000D02*
X156640000Y-20226000D01*
G36*
X155640000Y-20226000D02*
G01*
X156640000Y-20226000D01*
X156640000Y-22426000D01*
X155640000Y-22426000D01*
X155640000Y-23376000D01*
X154240000Y-23376000D01*
X154240000Y-22426000D01*
X153240000Y-22426000D01*
X153240000Y-20226000D01*
X154240000Y-20226000D01*
X154240000Y-19576000D01*
X155640000Y-19576000D01*
X155640000Y-20226000D01*
G37*
X155640000Y-20226000D02*
X156640000Y-20226000D01*
X156640000Y-22426000D01*
X155640000Y-22426000D01*
X155640000Y-23376000D01*
X154240000Y-23376000D01*
X154240000Y-22426000D01*
X153240000Y-22426000D01*
X153240000Y-20226000D01*
X154240000Y-20226000D01*
X154240000Y-19576000D01*
X155640000Y-19576000D01*
X155640000Y-20226000D01*
X76206000Y-24916000D02*
X78406000Y-24916000D01*
X78406000Y-24916000D02*
X78406000Y-23016000D01*
X78406000Y-23016000D02*
X81106000Y-23016000D01*
X81106000Y-23016000D02*
X81106000Y-24916000D01*
X81106000Y-24916000D02*
X83306000Y-24916000D01*
X83306000Y-24916000D02*
X83306000Y-27916000D01*
X83306000Y-27916000D02*
X81106000Y-27916000D01*
X81106000Y-27916000D02*
X81106000Y-29216000D01*
X81106000Y-29216000D02*
X78406000Y-29216000D01*
X78406000Y-29216000D02*
X78406000Y-27916000D01*
X78406000Y-27916000D02*
X76206000Y-27916000D01*
X76206000Y-27916000D02*
X76206000Y-24916000D01*
G36*
X81106000Y-24916000D02*
G01*
X83306000Y-24916000D01*
X83306000Y-27916000D01*
X81106000Y-27916000D01*
X81106000Y-29216000D01*
X78406000Y-29216000D01*
X78406000Y-27916000D01*
X76206000Y-27916000D01*
X76206000Y-24916000D01*
X78406000Y-24916000D01*
X78406000Y-23016000D01*
X81106000Y-23016000D01*
X81106000Y-24916000D01*
G37*
X81106000Y-24916000D02*
X83306000Y-24916000D01*
X83306000Y-27916000D01*
X81106000Y-27916000D01*
X81106000Y-29216000D01*
X78406000Y-29216000D01*
X78406000Y-27916000D01*
X76206000Y-27916000D01*
X76206000Y-24916000D01*
X78406000Y-24916000D01*
X78406000Y-23016000D01*
X81106000Y-23016000D01*
X81106000Y-24916000D01*
X76206000Y-37216000D02*
X78406000Y-37216000D01*
X78406000Y-37216000D02*
X78406000Y-39116000D01*
X78406000Y-39116000D02*
X81106000Y-39116000D01*
X81106000Y-39116000D02*
X81106000Y-37216000D01*
X81106000Y-37216000D02*
X83306000Y-37216000D01*
X83306000Y-37216000D02*
X83306000Y-34216000D01*
X83306000Y-34216000D02*
X81106000Y-34216000D01*
X81106000Y-34216000D02*
X81106000Y-32916000D01*
X81106000Y-32916000D02*
X78406000Y-32916000D01*
X78406000Y-32916000D02*
X78406000Y-34216000D01*
X78406000Y-34216000D02*
X76206000Y-34216000D01*
X76206000Y-34216000D02*
X76206000Y-37216000D01*
G36*
X81106000Y-34216000D02*
G01*
X83306000Y-34216000D01*
X83306000Y-37216000D01*
X81106000Y-37216000D01*
X81106000Y-39116000D01*
X78406000Y-39116000D01*
X78406000Y-37216000D01*
X76206000Y-37216000D01*
X76206000Y-34216000D01*
X78406000Y-34216000D01*
X78406000Y-32916000D01*
X81106000Y-32916000D01*
X81106000Y-34216000D01*
G37*
X81106000Y-34216000D02*
X83306000Y-34216000D01*
X83306000Y-37216000D01*
X81106000Y-37216000D01*
X81106000Y-39116000D01*
X78406000Y-39116000D01*
X78406000Y-37216000D01*
X76206000Y-37216000D01*
X76206000Y-34216000D01*
X78406000Y-34216000D01*
X78406000Y-32916000D01*
X81106000Y-32916000D01*
X81106000Y-34216000D01*
D11*
X37592000Y-56957500D03*
X37592000Y-59882500D03*
D12*
X72200000Y-112875000D03*
X72200000Y-111325000D03*
D13*
X63000000Y-113825000D03*
X63000000Y-115375000D03*
D14*
X70575000Y-115000000D03*
X69025000Y-115000000D03*
D12*
X89200000Y-112875000D03*
X89200000Y-111325000D03*
D13*
X80000000Y-113825000D03*
X80000000Y-115375000D03*
D14*
X87575000Y-115000000D03*
X86025000Y-115000000D03*
D12*
X106200000Y-112875000D03*
X106200000Y-111325000D03*
D13*
X97000000Y-113825000D03*
X97000000Y-115375000D03*
D14*
X104575000Y-115000000D03*
X103025000Y-115000000D03*
D13*
X131000000Y-113825000D03*
X131000000Y-115375000D03*
D14*
X138575000Y-115000000D03*
X137025000Y-115000000D03*
D12*
X157200000Y-112875000D03*
X157200000Y-111325000D03*
D13*
X148000000Y-113825000D03*
X148000000Y-115375000D03*
D14*
X155575000Y-115000000D03*
X154025000Y-115000000D03*
D15*
X39670000Y-28758000D03*
D16*
X44670000Y-28758000D03*
X49670000Y-28758000D03*
D17*
X186955000Y-162500000D03*
X185685000Y-160600000D03*
X184415000Y-162500000D03*
X183145000Y-160600000D03*
X181875000Y-162500000D03*
X180605000Y-160600000D03*
X179335000Y-162500000D03*
X178065000Y-160600000D03*
X176795000Y-162500000D03*
X175525000Y-160600000D03*
X174255000Y-162500000D03*
X172985000Y-160600000D03*
X171715000Y-162500000D03*
X170445000Y-160600000D03*
X169175000Y-162500000D03*
X167905000Y-160600000D03*
X166635000Y-162500000D03*
X165365000Y-160600000D03*
X164095000Y-162500000D03*
X162825000Y-160600000D03*
X161555000Y-162500000D03*
X160285000Y-160600000D03*
X159015000Y-162500000D03*
X157745000Y-160600000D03*
X156475000Y-162500000D03*
X155205000Y-160600000D03*
X153935000Y-162500000D03*
X152665000Y-160600000D03*
X151395000Y-162500000D03*
X150125000Y-160600000D03*
X148855000Y-162500000D03*
X147585000Y-160600000D03*
X146315000Y-162500000D03*
X145045000Y-160600000D03*
X186955000Y-166300000D03*
X185685000Y-164400000D03*
X184415000Y-166300000D03*
X183145000Y-164400000D03*
X181875000Y-166300000D03*
X180605000Y-164400000D03*
X179335000Y-166300000D03*
X178065000Y-164400000D03*
X176795000Y-166300000D03*
X175525000Y-164400000D03*
X174255000Y-166300000D03*
X172985000Y-164400000D03*
X171715000Y-166300000D03*
X170445000Y-164400000D03*
X169175000Y-166300000D03*
X167905000Y-164400000D03*
X166635000Y-166300000D03*
X165365000Y-164400000D03*
X164095000Y-166300000D03*
X162825000Y-164400000D03*
X161555000Y-166300000D03*
X160285000Y-164400000D03*
X159015000Y-166300000D03*
X157745000Y-164400000D03*
X156475000Y-166300000D03*
X155205000Y-164400000D03*
X153935000Y-166300000D03*
X152665000Y-164400000D03*
X151395000Y-166300000D03*
X150125000Y-164400000D03*
X148855000Y-166300000D03*
X147585000Y-164400000D03*
X146315000Y-166300000D03*
X145045000Y-164400000D03*
D18*
X137045000Y-164400000D03*
X194955000Y-164400000D03*
D19*
X61425000Y-112400000D03*
X59775000Y-112400000D03*
D20*
X66775000Y-107800000D03*
X68425000Y-107800000D03*
D19*
X78425000Y-112400000D03*
X76775000Y-112400000D03*
D20*
X83775000Y-107800000D03*
X85425000Y-107800000D03*
D19*
X95425000Y-112400000D03*
X93775000Y-112400000D03*
D20*
X100775000Y-107800000D03*
X102425000Y-107800000D03*
D21*
X95400000Y-109175000D03*
X95400000Y-110825000D03*
D19*
X129425000Y-112400000D03*
X127775000Y-112400000D03*
D21*
X129400000Y-109175000D03*
X129400000Y-110825000D03*
D19*
X146425000Y-112400000D03*
X144775000Y-112400000D03*
D20*
X151775000Y-107800000D03*
X153425000Y-107800000D03*
D21*
X146400000Y-109175000D03*
X146400000Y-110825000D03*
D22*
X62000000Y-99550000D03*
X62000000Y-106450000D03*
D23*
X62000000Y-103000000D03*
D22*
X79000000Y-99550000D03*
X79000000Y-106450000D03*
D23*
X79000000Y-103000000D03*
D22*
X96000000Y-99550000D03*
X96000000Y-106450000D03*
D23*
X96000000Y-103000000D03*
D22*
X130000000Y-99550000D03*
X130000000Y-106450000D03*
D23*
X130000000Y-103000000D03*
D22*
X147000000Y-99550000D03*
X147000000Y-106450000D03*
D23*
X147000000Y-103000000D03*
D20*
X168775000Y-107800000D03*
X170425000Y-107800000D03*
D19*
X163425000Y-112400000D03*
X161775000Y-112400000D03*
D21*
X163400000Y-109175000D03*
X163400000Y-110825000D03*
D22*
X164000000Y-99550000D03*
X164000000Y-106450000D03*
D23*
X164000000Y-103000000D03*
D12*
X174200000Y-112875000D03*
X174200000Y-111325000D03*
D14*
X172575000Y-115000000D03*
X171025000Y-115000000D03*
D13*
X165000000Y-113825000D03*
X165000000Y-115375000D03*
D24*
X81888000Y-109495000D03*
X81888000Y-110765000D03*
X81888000Y-112035000D03*
X81888000Y-113305000D03*
X87312000Y-113305000D03*
X87312000Y-112035000D03*
X87312000Y-110765000D03*
X87312000Y-109495000D03*
D25*
X84600000Y-111400000D03*
D26*
X85200000Y-110800000D03*
X84600000Y-112600000D03*
X84600000Y-110200000D03*
X84000000Y-110800000D03*
X84000000Y-112000000D03*
X84600000Y-111400000D03*
X85200000Y-112000000D03*
D24*
X98888000Y-109495000D03*
X98888000Y-110765000D03*
X98888000Y-112035000D03*
X98888000Y-113305000D03*
X104312000Y-113305000D03*
X104312000Y-112035000D03*
X104312000Y-110765000D03*
X104312000Y-109495000D03*
D26*
X101600000Y-110200000D03*
X101000000Y-112000000D03*
D25*
X101600000Y-111400000D03*
D26*
X101600000Y-111400000D03*
X101000000Y-110800000D03*
X101600000Y-112600000D03*
X102200000Y-112000000D03*
X102200000Y-110800000D03*
D24*
X132888000Y-109495000D03*
X132888000Y-110765000D03*
X132888000Y-112035000D03*
X132888000Y-113305000D03*
X138312000Y-113305000D03*
X138312000Y-112035000D03*
X138312000Y-110765000D03*
X138312000Y-109495000D03*
D26*
X135000000Y-112000000D03*
X136200000Y-112000000D03*
X136200000Y-110800000D03*
X135600000Y-112600000D03*
X135000000Y-110800000D03*
X135600000Y-110200000D03*
D25*
X135600000Y-111400000D03*
D26*
X135600000Y-111400000D03*
D24*
X149888000Y-109495000D03*
X149888000Y-110765000D03*
X149888000Y-112035000D03*
X149888000Y-113305000D03*
X155312000Y-113305000D03*
X155312000Y-112035000D03*
X155312000Y-110765000D03*
X155312000Y-109495000D03*
D26*
X153200000Y-112000000D03*
X153200000Y-110800000D03*
X152600000Y-110200000D03*
X152000000Y-112000000D03*
D25*
X152600000Y-111400000D03*
D26*
X152600000Y-112600000D03*
X152600000Y-111400000D03*
X152000000Y-110800000D03*
D24*
X166887991Y-109495006D03*
X166887991Y-110765006D03*
X166887991Y-112035006D03*
X166887991Y-113305006D03*
X172311991Y-113305006D03*
X172311991Y-112035006D03*
X172311991Y-110765006D03*
X172311991Y-109495006D03*
D26*
X170199991Y-112000006D03*
X169599991Y-111400006D03*
X169599991Y-110200006D03*
X170199991Y-110800006D03*
D25*
X169599991Y-111400006D03*
D26*
X168999991Y-110800006D03*
X168999991Y-112000006D03*
X169599991Y-112600006D03*
D27*
X72270010Y-117650010D03*
X69730010Y-117650010D03*
X69730010Y-126150010D03*
X72270010Y-126150010D03*
X89270000Y-117650000D03*
X86730000Y-117650000D03*
X86730000Y-126150000D03*
X89270000Y-126150000D03*
X106270000Y-117650000D03*
X103730000Y-117650000D03*
X103730000Y-126150000D03*
X106270000Y-126150000D03*
X140270000Y-117650000D03*
X137730000Y-117650000D03*
X137730000Y-126150000D03*
X140270000Y-126150000D03*
X174270000Y-117650000D03*
X171730000Y-117650000D03*
X171730000Y-126150000D03*
X174270000Y-126150000D03*
D28*
X73800000Y-113625000D03*
X73800000Y-111975000D03*
X90800000Y-113625000D03*
X90800000Y-111975000D03*
X97000000Y-112325000D03*
X97000000Y-110675000D03*
X107800000Y-113625000D03*
X107800000Y-111975000D03*
X131000000Y-112325000D03*
X131000000Y-110675000D03*
X141800000Y-113625000D03*
X141800000Y-111975000D03*
X148000000Y-112325000D03*
X148000000Y-110675000D03*
X158800000Y-113625000D03*
X158800000Y-111975000D03*
X165000000Y-112325000D03*
X165000000Y-110675000D03*
X175800000Y-113625000D03*
X175800000Y-111975000D03*
D12*
X140200000Y-112875000D03*
X140200000Y-111325000D03*
D20*
X134775000Y-107800000D03*
X136425000Y-107800000D03*
D12*
X55200000Y-112875000D03*
X55200000Y-111325000D03*
D14*
X53575000Y-115000000D03*
X52025000Y-115000000D03*
D24*
X47888000Y-109495000D03*
X47888000Y-110765000D03*
X47888000Y-112035000D03*
X47888000Y-113305000D03*
X53312000Y-113305000D03*
X53312000Y-112035000D03*
X53312000Y-110765000D03*
X53312000Y-109495000D03*
D26*
X51200000Y-112000000D03*
X50000000Y-110800000D03*
D25*
X50600000Y-111400000D03*
D26*
X50600000Y-111400000D03*
X50000000Y-112000000D03*
X50600000Y-110200000D03*
X51200000Y-110800000D03*
X50600000Y-112600000D03*
D20*
X49775000Y-107800000D03*
X51425000Y-107800000D03*
D19*
X44425000Y-112400000D03*
X42775000Y-112400000D03*
D28*
X46000000Y-112325000D03*
X46000000Y-110675000D03*
D13*
X46000000Y-113825000D03*
X46000000Y-115375000D03*
D28*
X63000000Y-112325000D03*
X63000000Y-110675000D03*
D22*
X45000000Y-99550000D03*
X45000000Y-106450000D03*
D23*
X45000000Y-103000000D03*
D28*
X56800000Y-113625000D03*
X56800000Y-111975000D03*
X124800000Y-113625000D03*
X124800000Y-111975000D03*
X114000000Y-112325000D03*
X114000000Y-110675000D03*
D27*
X123270000Y-117650000D03*
X120730000Y-117650000D03*
X120730000Y-126150000D03*
X123270000Y-126150000D03*
D22*
X113000000Y-99550000D03*
X113000000Y-106450000D03*
D23*
X113000000Y-103000000D03*
D14*
X121575000Y-115000000D03*
X120025000Y-115000000D03*
D12*
X123200000Y-112875000D03*
X123200000Y-111325000D03*
D13*
X114000000Y-113825000D03*
X114000000Y-115375000D03*
D19*
X112425000Y-112400000D03*
X110775000Y-112400000D03*
D20*
X117775000Y-107800000D03*
X119425000Y-107800000D03*
D21*
X112400000Y-109175000D03*
X112400000Y-110825000D03*
D24*
X115888000Y-109495000D03*
X115888000Y-110765000D03*
X115888000Y-112035000D03*
X115888000Y-113305000D03*
X121312000Y-113305000D03*
X121312000Y-112035000D03*
X121312000Y-110765000D03*
X121312000Y-109495000D03*
D26*
X118000000Y-110800000D03*
D25*
X118600000Y-111400000D03*
D26*
X118600000Y-112600000D03*
X118000000Y-112000000D03*
X119200000Y-110800000D03*
X118600000Y-111400000D03*
X118600000Y-110200000D03*
X119200000Y-112000000D03*
D27*
X157270000Y-117650000D03*
X154730000Y-117650000D03*
X154730000Y-126150000D03*
X157270000Y-126150000D03*
D21*
X175800000Y-64575000D03*
X175800000Y-66225000D03*
D28*
X165000000Y-66325000D03*
X165000000Y-64675000D03*
X114000000Y-66325000D03*
X114000000Y-64675000D03*
X131000000Y-66325000D03*
X131000000Y-64675000D03*
X63000000Y-66225000D03*
X63000000Y-64575000D03*
X148000000Y-66325000D03*
X148000000Y-64675000D03*
D21*
X141800000Y-64575000D03*
X141800000Y-66225000D03*
X124800000Y-64575000D03*
X124800000Y-66225000D03*
X107800000Y-64575000D03*
X107800000Y-66225000D03*
X73800000Y-64475000D03*
X73800000Y-66125000D03*
D28*
X97000000Y-66325000D03*
X97000000Y-64675000D03*
D21*
X90800000Y-64475000D03*
X90800000Y-66125000D03*
X158800000Y-64575000D03*
X158800000Y-66225000D03*
D28*
X80000000Y-66225000D03*
X80000000Y-64575000D03*
D21*
X56800000Y-64475000D03*
X56800000Y-66125000D03*
D28*
X46000000Y-66225000D03*
X46000000Y-64575000D03*
D27*
X121130000Y-60150000D03*
X123670000Y-60150000D03*
X123670000Y-51650000D03*
X121130000Y-51650000D03*
X172130009Y-60149990D03*
X174670009Y-60149990D03*
X174670009Y-51649990D03*
X172130009Y-51649990D03*
X87130000Y-60050000D03*
X89670000Y-60050000D03*
X89670000Y-51550000D03*
X87130000Y-51550000D03*
X53130000Y-60050000D03*
X55670000Y-60050000D03*
X55670000Y-51550000D03*
X53130000Y-51550000D03*
X104130000Y-60150000D03*
X106670000Y-60150000D03*
X106670000Y-51650000D03*
X104130000Y-51650000D03*
X70130000Y-60050000D03*
X72670000Y-60050000D03*
X72670000Y-51550000D03*
X70130000Y-51550000D03*
X138130000Y-60150000D03*
X140670000Y-60150000D03*
X140670000Y-51650000D03*
X138130000Y-51650000D03*
X155130000Y-60150000D03*
X157670000Y-60150000D03*
X157670000Y-51650000D03*
X155130000Y-51650000D03*
D22*
X163800000Y-79050000D03*
X163800000Y-72150000D03*
D23*
X163800000Y-75600000D03*
D22*
X78800000Y-79050000D03*
X78800000Y-72150000D03*
D23*
X78800000Y-75600000D03*
D22*
X146800000Y-79050000D03*
X146800000Y-72150000D03*
D23*
X146800000Y-75600000D03*
D22*
X112800000Y-79150000D03*
X112800000Y-72250000D03*
D23*
X112800000Y-75700000D03*
D22*
X61800000Y-79050000D03*
X61800000Y-72150000D03*
D23*
X61800000Y-75600000D03*
D22*
X44800000Y-79050000D03*
X44800000Y-72150000D03*
D23*
X44800000Y-75600000D03*
D22*
X129800000Y-79050000D03*
X129800000Y-72150000D03*
D23*
X129800000Y-75600000D03*
D22*
X95800000Y-79050000D03*
X95800000Y-72150000D03*
D23*
X95800000Y-75600000D03*
D14*
X104575000Y-69100000D03*
X103025000Y-69100000D03*
D13*
X114000000Y-67825000D03*
X114000000Y-69375000D03*
X131000000Y-67825000D03*
X131000000Y-69375000D03*
D14*
X53575000Y-69000000D03*
X52025000Y-69000000D03*
D12*
X55200000Y-66875000D03*
X55200000Y-65325000D03*
D13*
X63000000Y-67725000D03*
X63000000Y-69275000D03*
D12*
X89200000Y-66875000D03*
X89200000Y-65325000D03*
D14*
X87575000Y-69000000D03*
X86025000Y-69000000D03*
D12*
X106200000Y-66975000D03*
X106200000Y-65425000D03*
X140200000Y-66975000D03*
X140200000Y-65425000D03*
D14*
X138575000Y-69100000D03*
X137025000Y-69100000D03*
X155575000Y-69100000D03*
X154025000Y-69100000D03*
X121575000Y-69100000D03*
X120025000Y-69100000D03*
D12*
X72200000Y-66875000D03*
X72200000Y-65325000D03*
X157200000Y-66975000D03*
X157200000Y-65425000D03*
D14*
X172575000Y-69100000D03*
X171025000Y-69100000D03*
D13*
X46000000Y-67725000D03*
X46000000Y-69275000D03*
D12*
X174200000Y-66975000D03*
X174200000Y-65425000D03*
D14*
X70575000Y-69000000D03*
X69025000Y-69000000D03*
D13*
X80000000Y-67725000D03*
X80000000Y-69275000D03*
X165000000Y-67825000D03*
X165000000Y-69375000D03*
D12*
X123200000Y-66975000D03*
X123200000Y-65425000D03*
D13*
X148000000Y-67825000D03*
X148000000Y-69375000D03*
X97000000Y-67825000D03*
X97000000Y-69375000D03*
D20*
X66775000Y-61800000D03*
X68425000Y-61800000D03*
X59775000Y-64800000D03*
X61425000Y-64800000D03*
X83775000Y-61800000D03*
X85425000Y-61800000D03*
D19*
X78425000Y-66400000D03*
X76775000Y-66400000D03*
D20*
X76775000Y-64800000D03*
X78425000Y-64800000D03*
X100775000Y-61900000D03*
X102425000Y-61900000D03*
D19*
X95425000Y-66500000D03*
X93775000Y-66500000D03*
X61425000Y-66400000D03*
X59775000Y-66400000D03*
D24*
X166888000Y-63595000D03*
X166888000Y-64865000D03*
X166888000Y-66135000D03*
X166888000Y-67405000D03*
X172312000Y-67405000D03*
X172312000Y-66135000D03*
X172312000Y-64865000D03*
X172312000Y-63595000D03*
D26*
X169600000Y-66700000D03*
X169600000Y-64300000D03*
X169600000Y-65500000D03*
D25*
X169600000Y-65500000D03*
D26*
X169000000Y-66100000D03*
X170200000Y-66100000D03*
X170200000Y-64900000D03*
X169000000Y-64900000D03*
D24*
X149888000Y-63595000D03*
X149888000Y-64865000D03*
X149888000Y-66135000D03*
X149888000Y-67405000D03*
X155312000Y-67405000D03*
X155312000Y-66135000D03*
X155312000Y-64865000D03*
X155312000Y-63595000D03*
D26*
X152600000Y-65500000D03*
X152000000Y-66100000D03*
X153200000Y-66100000D03*
X152600000Y-64300000D03*
X152600000Y-66700000D03*
D25*
X152600000Y-65500000D03*
D26*
X152000000Y-64900000D03*
X153200000Y-64900000D03*
D24*
X132888000Y-63595000D03*
X132888000Y-64865000D03*
X132888000Y-66135000D03*
X132888000Y-67405000D03*
X138312000Y-67405000D03*
X138312000Y-66135000D03*
X138312000Y-64865000D03*
X138312000Y-63595000D03*
D26*
X135000000Y-66100000D03*
X136200000Y-66100000D03*
X135000000Y-64900000D03*
X136200000Y-64900000D03*
D25*
X135600000Y-65500000D03*
D26*
X135600000Y-65500000D03*
X135600000Y-66700000D03*
X135600000Y-64300000D03*
D24*
X98888000Y-63595000D03*
X98888000Y-64865000D03*
X98888000Y-66135000D03*
X98888000Y-67405000D03*
X104312000Y-67405000D03*
X104312000Y-66135000D03*
X104312000Y-64865000D03*
X104312000Y-63595000D03*
D26*
X102200000Y-66100000D03*
X101000000Y-66100000D03*
X101600000Y-65500000D03*
X102200000Y-64900000D03*
X101600000Y-64300000D03*
X101600000Y-66700000D03*
D25*
X101600000Y-65500000D03*
D26*
X101000000Y-64900000D03*
D24*
X81888000Y-63495000D03*
X81888000Y-64765000D03*
X81888000Y-66035000D03*
X81888000Y-67305000D03*
X87312000Y-67305000D03*
X87312000Y-66035000D03*
X87312000Y-64765000D03*
X87312000Y-63495000D03*
D26*
X84000000Y-66000000D03*
X84000000Y-64800000D03*
D25*
X84600000Y-65400000D03*
D26*
X84600000Y-65400000D03*
X84600000Y-66600000D03*
X85200000Y-64800000D03*
X85200000Y-66000000D03*
X84600000Y-64200000D03*
D24*
X64888000Y-63495000D03*
X64888000Y-64765000D03*
X64888000Y-66035000D03*
X64888000Y-67305000D03*
X70312000Y-67305000D03*
X70312000Y-66035000D03*
X70312000Y-64765000D03*
X70312000Y-63495000D03*
D25*
X67600000Y-65400000D03*
D26*
X68200000Y-66000000D03*
X67600000Y-64200000D03*
X67600000Y-66600000D03*
X68200000Y-64800000D03*
X67600000Y-65400000D03*
X67000000Y-66000000D03*
X67000000Y-64800000D03*
D24*
X115888000Y-63595000D03*
X115888000Y-64865000D03*
X115888000Y-66135000D03*
X115888000Y-67405000D03*
X121312000Y-67405000D03*
X121312000Y-66135000D03*
X121312000Y-64865000D03*
X121312000Y-63595000D03*
D26*
X118600000Y-66700000D03*
X118000000Y-66100000D03*
X118600000Y-65500000D03*
X119200000Y-64900000D03*
X119200000Y-66100000D03*
D25*
X118600000Y-65500000D03*
D26*
X118000000Y-64900000D03*
X118600000Y-64300000D03*
D24*
X47888000Y-63494996D03*
X47888000Y-64764996D03*
X47888000Y-66034996D03*
X47888000Y-67304996D03*
X53312000Y-67304996D03*
X53312000Y-66034996D03*
X53312000Y-64764996D03*
X53312000Y-63494996D03*
D26*
X50000000Y-64799996D03*
X50600000Y-66599996D03*
X50600000Y-64199996D03*
X50000000Y-65999996D03*
X50600000Y-65399996D03*
X51200000Y-64799996D03*
X51200000Y-65999996D03*
D25*
X50600000Y-65399996D03*
D20*
X93775000Y-64900000D03*
X95425000Y-64900000D03*
X151775000Y-61900000D03*
X153425000Y-61900000D03*
X144775000Y-64900000D03*
X146425000Y-64900000D03*
X134775000Y-61900000D03*
X136425000Y-61900000D03*
D19*
X112425000Y-66500000D03*
X110775000Y-66500000D03*
D20*
X117775000Y-61900000D03*
X119425000Y-61900000D03*
X110775000Y-64900000D03*
X112425000Y-64900000D03*
X168775000Y-61900000D03*
X170425000Y-61900000D03*
D19*
X146425000Y-66500000D03*
X144775000Y-66500000D03*
X129425000Y-66500000D03*
X127775000Y-66500000D03*
X163425000Y-66500000D03*
X161775000Y-66500000D03*
X44425000Y-66400000D03*
X42775000Y-66400000D03*
D20*
X161775000Y-64900000D03*
X163425000Y-64900000D03*
X42775000Y-64800000D03*
X44425000Y-64800000D03*
X127775000Y-64900000D03*
X129425000Y-64900000D03*
X49775000Y-61800000D03*
X51425000Y-61800000D03*
D21*
X44400000Y-109175000D03*
X44400000Y-110825000D03*
X61400000Y-109175000D03*
X61400000Y-110825000D03*
X78400000Y-109175000D03*
X78400000Y-110825000D03*
D17*
X85955000Y-162500000D03*
X84685000Y-160600000D03*
X83415000Y-162500000D03*
X82145000Y-160600000D03*
X80875000Y-162500000D03*
X79605000Y-160600000D03*
X78335000Y-162500000D03*
X77065000Y-160600000D03*
X75795000Y-162500000D03*
X74525000Y-160600000D03*
X73255000Y-162500000D03*
X71985000Y-160600000D03*
X70715000Y-162500000D03*
X69445000Y-160600000D03*
X68175000Y-162500000D03*
X66905000Y-160600000D03*
X65635000Y-162500000D03*
X64365000Y-160600000D03*
X63095000Y-162500000D03*
X61825000Y-160600000D03*
X60555000Y-162500000D03*
X59285000Y-160600000D03*
X58015000Y-162500000D03*
X56745000Y-160600000D03*
X55475000Y-162500000D03*
X54205000Y-160600000D03*
X52935000Y-162500000D03*
X51665000Y-160600000D03*
X50395000Y-162500000D03*
X49125000Y-160600000D03*
X47855000Y-162500000D03*
X46585000Y-160600000D03*
X45315000Y-162500000D03*
X44045000Y-160600000D03*
X85955000Y-166300000D03*
X84685000Y-164400000D03*
X83415000Y-166300000D03*
X82145000Y-164400000D03*
X80875000Y-166300000D03*
X79605000Y-164400000D03*
X78335000Y-166300000D03*
X77065000Y-164400000D03*
X75795000Y-166300000D03*
X74525000Y-164400000D03*
X73255000Y-166300000D03*
X71985000Y-164400000D03*
X70715000Y-166300000D03*
X69445000Y-164400000D03*
X68175000Y-166300000D03*
X66905000Y-164400000D03*
X65635000Y-166300000D03*
X64365000Y-164400000D03*
X63095000Y-166300000D03*
X61825000Y-164400000D03*
X60555000Y-166300000D03*
X59285000Y-164400000D03*
X58015000Y-166300000D03*
X56745000Y-164400000D03*
X55475000Y-166300000D03*
X54205000Y-164400000D03*
X52935000Y-166300000D03*
X51665000Y-164400000D03*
X50395000Y-166300000D03*
X49125000Y-164400000D03*
X47855000Y-166300000D03*
X46585000Y-164400000D03*
X45315000Y-166300000D03*
X44045000Y-164400000D03*
D18*
X36045000Y-164400000D03*
X93955000Y-164400000D03*
D29*
X45775000Y-48900000D03*
X42825000Y-48900000D03*
D30*
X33625000Y-45300000D03*
X36575000Y-45300000D03*
X33625000Y-48900000D03*
X36575000Y-48900000D03*
D29*
X45775000Y-45300000D03*
X42825000Y-45300000D03*
D27*
X55270000Y-117650000D03*
X52730000Y-117650000D03*
X52730000Y-126150000D03*
X55270000Y-126150000D03*
D24*
X64888000Y-109495000D03*
X64888000Y-110765000D03*
X64888000Y-112035000D03*
X64888000Y-113305000D03*
X70312000Y-113305000D03*
X70312000Y-112035000D03*
X70312000Y-110765000D03*
X70312000Y-109495000D03*
D26*
X67000000Y-112000000D03*
X67600000Y-111400000D03*
X68200000Y-110800000D03*
X68200000Y-112000000D03*
X67000000Y-110800000D03*
D25*
X67600000Y-111400000D03*
D26*
X67600000Y-112600000D03*
X67600000Y-110200000D03*
D28*
X80000000Y-112325000D03*
X80000000Y-110675000D03*
D31*
X119980000Y-71950000D03*
X118020000Y-71950000D03*
X119000000Y-74050000D03*
D30*
X102940000Y-45220000D03*
X105890000Y-45220000D03*
D32*
X82975000Y-100500000D03*
D33*
X84500000Y-99025000D03*
X84500000Y-101975000D03*
D31*
X136980000Y-71950000D03*
X135020000Y-71950000D03*
X136000000Y-74050000D03*
D30*
X66505000Y-134290000D03*
X69455000Y-134290000D03*
D32*
X65975000Y-100500000D03*
D33*
X67500000Y-99025000D03*
X67500000Y-101975000D03*
D32*
X167475000Y-78500000D03*
D33*
X169000000Y-77025000D03*
X169000000Y-79975000D03*
D32*
X116475000Y-78500000D03*
D33*
X118000000Y-77025000D03*
X118000000Y-79975000D03*
D30*
X120040000Y-45860000D03*
X122990000Y-45860000D03*
D15*
X56976000Y-28456000D03*
D16*
X61976000Y-28456000D03*
X66976000Y-28456000D03*
D34*
X170050000Y-105980000D03*
X170050000Y-104020000D03*
X167950000Y-105000000D03*
X119050000Y-105980000D03*
X119050000Y-104020000D03*
X116950000Y-105000000D03*
D32*
X48975000Y-100500000D03*
D33*
X50500000Y-99025000D03*
X50500000Y-101975000D03*
D32*
X48475002Y-78499995D03*
D33*
X50000002Y-77024995D03*
X50000002Y-79974995D03*
D34*
X51050000Y-105980000D03*
X51050000Y-104020000D03*
X48950000Y-105000000D03*
D32*
X116975000Y-100500000D03*
D33*
X118500000Y-99025000D03*
X118500000Y-101975000D03*
D35*
X28448000Y-52770500D03*
X28448000Y-49845500D03*
D36*
X141224000Y-24843000D03*
X141224000Y-21893000D03*
D37*
X46465000Y-38600000D03*
X42135000Y-38600000D03*
D32*
X167975000Y-100500000D03*
D33*
X169500000Y-99025000D03*
X169500000Y-101975000D03*
D32*
X133475000Y-78500000D03*
D33*
X135000000Y-77025000D03*
X135000000Y-79975000D03*
D31*
X153980000Y-71950000D03*
X152020000Y-71950000D03*
X153000000Y-74050000D03*
D38*
X166051000Y-25146000D03*
X161101000Y-25146000D03*
X166051000Y-22606000D03*
X161101000Y-22606000D03*
D34*
X85050000Y-105980000D03*
X85050000Y-104020000D03*
X82950000Y-105000000D03*
D15*
X127080000Y-22868000D03*
D16*
X132080000Y-22868000D03*
X137080000Y-22868000D03*
D38*
X28259000Y-57150000D03*
X33209000Y-57150000D03*
X28259000Y-59690000D03*
X33209000Y-59690000D03*
D34*
X68050000Y-105980000D03*
X68050000Y-104020000D03*
X65950000Y-105000000D03*
D32*
X99475000Y-78500000D03*
D33*
X101000000Y-77025000D03*
X101000000Y-79975000D03*
D39*
X143888000Y-21844000D03*
X146688000Y-21844000D03*
D31*
X51980000Y-72000000D03*
X50020000Y-72000000D03*
X51000000Y-74100000D03*
D30*
X145540000Y-53920000D03*
X148490000Y-53920000D03*
D32*
X150475000Y-78500000D03*
D33*
X152000000Y-77025000D03*
X152000000Y-79975000D03*
D34*
X153050000Y-105980000D03*
X153050000Y-104020000D03*
X150950000Y-105000000D03*
X136050000Y-105980000D03*
X136050000Y-104020000D03*
X133950000Y-105000000D03*
D36*
X149352000Y-24843000D03*
X149352000Y-21893000D03*
D40*
X117240000Y-159640000D03*
X117240000Y-164590000D03*
X114700000Y-159640000D03*
X114700000Y-164590000D03*
D31*
X170980000Y-71950000D03*
X169020000Y-71950000D03*
X170000000Y-74050000D03*
D30*
X179390000Y-133430000D03*
X182340000Y-133430000D03*
D32*
X133975000Y-100500000D03*
D33*
X135500000Y-99025000D03*
X135500000Y-101975000D03*
D30*
X167050000Y-133400000D03*
X170000000Y-133400000D03*
D32*
X99975000Y-100500000D03*
D33*
X101500000Y-99025000D03*
X101500000Y-101975000D03*
D30*
X163100000Y-54275000D03*
X166050000Y-54275000D03*
D32*
X150975000Y-100500000D03*
D33*
X152500000Y-99025000D03*
X152500000Y-101975000D03*
D39*
X143888000Y-25400000D03*
X146688000Y-25400000D03*
D31*
X85980000Y-71950000D03*
X84020000Y-71950000D03*
X85000000Y-74050000D03*
D37*
X36430000Y-39610000D03*
X32100000Y-39610000D03*
D32*
X65475000Y-78500000D03*
D33*
X67000000Y-77025000D03*
X67000000Y-79975000D03*
D30*
X81865000Y-134220000D03*
X84815000Y-134220000D03*
D31*
X102980000Y-71950000D03*
X101020000Y-71950000D03*
X102000000Y-74050000D03*
X68980000Y-71950000D03*
X67020000Y-71950000D03*
X68000000Y-74050000D03*
D32*
X82475000Y-78500000D03*
D33*
X84000000Y-77025000D03*
X84000000Y-79975000D03*
D34*
X102050000Y-105980000D03*
X102050000Y-104020000D03*
X99950000Y-105000000D03*
D26*
X62300000Y-56200000D03*
X62900000Y-56800000D03*
X62900000Y-58000000D03*
X62300000Y-57400000D03*
X63500000Y-56200000D03*
X62900000Y-55600000D03*
X63500000Y-57400000D03*
X164900000Y-58000000D03*
X164300000Y-57400000D03*
X165500000Y-56200000D03*
X165500000Y-57400000D03*
X164300000Y-56200000D03*
X164900000Y-55600000D03*
X164900000Y-56800000D03*
X96900009Y-56799988D03*
X97500009Y-56199988D03*
X96900009Y-57999988D03*
X96900009Y-55599988D03*
X96300009Y-56199988D03*
X97500009Y-57399988D03*
X96300009Y-57399988D03*
X148500000Y-56200000D03*
X148500000Y-57400000D03*
X147900000Y-58000000D03*
X147300000Y-57400000D03*
X147900000Y-56800000D03*
X147300000Y-56200000D03*
X147900000Y-55600000D03*
X79900000Y-56800000D03*
X80500000Y-57400000D03*
X79300000Y-56200000D03*
X79900000Y-55600000D03*
X79300000Y-57400000D03*
X79900000Y-58000000D03*
X80500000Y-56200000D03*
X130900000Y-58000000D03*
X131500000Y-56200000D03*
X130300000Y-56200000D03*
X130900000Y-56800000D03*
X130300000Y-57400000D03*
X131500000Y-57400000D03*
X130900000Y-55600000D03*
X181300000Y-57400000D03*
X181900000Y-58000000D03*
X182500000Y-56200000D03*
X182500000Y-57400000D03*
X181900000Y-55600000D03*
X181300000Y-56200000D03*
X181900000Y-56800000D03*
X113300000Y-56200000D03*
X113900000Y-56800000D03*
X114500000Y-57400000D03*
X113900000Y-55600000D03*
X114500000Y-56200000D03*
X113900000Y-58000000D03*
X113300000Y-57400000D03*
X63500000Y-122500000D03*
X62300000Y-122500000D03*
X62900000Y-123100000D03*
X63500000Y-121300000D03*
X62900000Y-120700000D03*
X62300000Y-121300000D03*
X62900000Y-121900000D03*
X182500000Y-121300000D03*
X181900000Y-121900000D03*
X182500000Y-122500000D03*
X181900000Y-120700000D03*
X181300000Y-121300000D03*
X181900000Y-123100000D03*
X181300000Y-122500000D03*
X164900000Y-121900000D03*
X164300000Y-121300000D03*
X164300000Y-122500000D03*
X165500000Y-121300000D03*
X164900000Y-123100000D03*
X165500000Y-122500000D03*
X164900000Y-120700000D03*
X147900000Y-120700000D03*
X147900000Y-121900000D03*
X148500000Y-122500000D03*
X147300000Y-122500000D03*
X147300000Y-121300000D03*
X147900000Y-123100000D03*
X148500000Y-121300000D03*
X131500000Y-122500000D03*
X130900000Y-121900000D03*
X130300000Y-121300000D03*
X130900000Y-123100000D03*
X130900000Y-120700000D03*
X130300000Y-122500000D03*
X131500000Y-121300000D03*
X80500000Y-122500000D03*
X79900000Y-120700000D03*
X79900000Y-123100000D03*
X80500000Y-121300000D03*
X79900000Y-121900000D03*
X79300000Y-121300000D03*
X79300000Y-122500000D03*
X113300000Y-121300000D03*
X114500000Y-121300000D03*
X114500000Y-122500000D03*
X113300000Y-122500000D03*
X113900000Y-120700000D03*
X113900000Y-123100000D03*
X113900000Y-121900000D03*
X97500000Y-122500000D03*
X96900000Y-121900000D03*
X96900000Y-123100000D03*
X97500000Y-121300000D03*
X96900000Y-120700000D03*
X96300000Y-122500000D03*
X96300000Y-121300000D03*
M02*
