G04 #@! TF.GenerationSoftware,KiCad,Pcbnew,(6.0.2)*
G04 #@! TF.CreationDate,2023-03-14T23:15:20-04:00*
G04 #@! TF.ProjectId,ARTIQAmp,41525449-5141-46d7-902e-6b696361645f,rev?*
G04 #@! TF.SameCoordinates,Original*
G04 #@! TF.FileFunction,Paste,Bot*
G04 #@! TF.FilePolarity,Positive*
%FSLAX46Y46*%
G04 Gerber Fmt 4.6, Leading zero omitted, Abs format (unit mm)*
G04 Created by KiCad (PCBNEW (6.0.2)) date 2023-03-14 23:15:20*
%MOMM*%
%LPD*%
G01*
G04 APERTURE LIST*
G04 Aperture macros list*
%AMRoundRect*
0 Rectangle with rounded corners*
0 $1 Rounding radius*
0 $2 $3 $4 $5 $6 $7 $8 $9 X,Y pos of 4 corners*
0 Add a 4 corners polygon primitive as box body*
4,1,4,$2,$3,$4,$5,$6,$7,$8,$9,$2,$3,0*
0 Add four circle primitives for the rounded corners*
1,1,$1+$1,$2,$3*
1,1,$1+$1,$4,$5*
1,1,$1+$1,$6,$7*
1,1,$1+$1,$8,$9*
0 Add four rect primitives between the rounded corners*
20,1,$1+$1,$2,$3,$4,$5,0*
20,1,$1+$1,$4,$5,$6,$7,0*
20,1,$1+$1,$6,$7,$8,$9,0*
20,1,$1+$1,$8,$9,$2,$3,0*%
G04 Aperture macros list end*
%ADD10RoundRect,0.200000X-0.275000X0.200000X-0.275000X-0.200000X0.275000X-0.200000X0.275000X0.200000X0*%
%ADD11R,1.600000X3.200000*%
%ADD12RoundRect,0.200000X-0.200000X-0.275000X0.200000X-0.275000X0.200000X0.275000X-0.200000X0.275000X0*%
%ADD13RoundRect,0.200000X0.200000X0.275000X-0.200000X0.275000X-0.200000X-0.275000X0.200000X-0.275000X0*%
%ADD14RoundRect,0.200000X0.275000X-0.200000X0.275000X0.200000X-0.275000X0.200000X-0.275000X-0.200000X0*%
%ADD15RoundRect,0.225000X0.225000X0.250000X-0.225000X0.250000X-0.225000X-0.250000X0.225000X-0.250000X0*%
%ADD16RoundRect,0.225000X0.250000X-0.225000X0.250000X0.225000X-0.250000X0.225000X-0.250000X-0.225000X0*%
%ADD17RoundRect,0.225000X-0.250000X0.225000X-0.250000X-0.225000X0.250000X-0.225000X0.250000X0.225000X0*%
%ADD18R,1.600000X2.000000*%
%ADD19R,2.600000X2.000000*%
%ADD20R,1.526000X0.650000*%
%ADD21R,2.260000X5.000000*%
%ADD22R,0.850000X1.000000*%
%ADD23R,1.050000X1.000000*%
%ADD24R,2.200000X1.050000*%
G04 APERTURE END LIST*
D10*
X58300000Y-55875000D03*
X58300000Y-57525000D03*
X188100000Y-54575000D03*
X188100000Y-56225000D03*
X177300000Y-55875000D03*
X177300000Y-57525000D03*
X171100000Y-54575000D03*
X171100000Y-56225000D03*
X160300000Y-55875000D03*
X160300000Y-57525000D03*
X69100000Y-54575000D03*
X69100000Y-56225000D03*
X154100000Y-54575000D03*
X154100000Y-56225000D03*
X143300000Y-55875000D03*
X143300000Y-57525000D03*
X137100000Y-54575000D03*
X137100000Y-56225000D03*
X120100000Y-54575000D03*
X120100000Y-56225000D03*
X109300000Y-55875000D03*
X109300000Y-57525000D03*
X75300000Y-55875000D03*
X75300000Y-57525000D03*
X103100000Y-54575000D03*
X103100000Y-56225000D03*
X126300000Y-55875000D03*
X126300000Y-57525000D03*
X92300000Y-55875000D03*
X92300000Y-57525000D03*
X86100000Y-54575000D03*
X86100000Y-56225000D03*
D11*
X152570000Y-50550000D03*
X150030000Y-50550000D03*
X150030000Y-42050000D03*
X152570000Y-42050000D03*
X118570000Y-50550000D03*
X116030000Y-50550000D03*
X116030000Y-42050000D03*
X118570000Y-42050000D03*
X101570000Y-50550000D03*
X99030000Y-50550000D03*
X99030000Y-42050000D03*
X101570000Y-42050000D03*
X67570000Y-50550000D03*
X65030000Y-50550000D03*
X65030000Y-42050000D03*
X67570000Y-42050000D03*
X135570000Y-50550000D03*
X133030000Y-50550000D03*
X133030000Y-42050000D03*
X135570000Y-42050000D03*
X84570000Y-50550000D03*
X82030000Y-50550000D03*
X82030000Y-42050000D03*
X84570000Y-42050000D03*
X169570000Y-50550000D03*
X167030000Y-50550000D03*
X167030000Y-42050000D03*
X169570000Y-42050000D03*
X186570000Y-50550000D03*
X184030000Y-50550000D03*
X184030000Y-42050000D03*
X186570000Y-42050000D03*
D12*
X130075000Y-60400000D03*
X131725000Y-60400000D03*
D13*
X141725000Y-55800000D03*
X140075000Y-55800000D03*
D12*
X113075000Y-60400000D03*
X114725000Y-60400000D03*
D13*
X90725000Y-55800000D03*
X89075000Y-55800000D03*
X73725000Y-55800000D03*
X72075000Y-55800000D03*
D12*
X96075000Y-60400000D03*
X97725000Y-60400000D03*
X79075000Y-60400000D03*
X80725000Y-60400000D03*
D14*
X73700000Y-59025000D03*
X73700000Y-57375000D03*
D12*
X147075000Y-60400000D03*
X148725000Y-60400000D03*
D13*
X107725000Y-55800000D03*
X106075000Y-55800000D03*
D14*
X107700000Y-59025000D03*
X107700000Y-57375000D03*
X124700000Y-59025000D03*
X124700000Y-57375000D03*
D13*
X124725000Y-55800000D03*
X123075000Y-55800000D03*
D15*
X99875000Y-53200000D03*
X98325000Y-53200000D03*
D16*
X75300000Y-54375000D03*
X75300000Y-52825000D03*
D17*
X135500000Y-55325000D03*
X135500000Y-56875000D03*
D15*
X150875000Y-53200000D03*
X149325000Y-53200000D03*
D16*
X177300000Y-54375000D03*
X177300000Y-52825000D03*
X126300000Y-54375000D03*
X126300000Y-52825000D03*
D17*
X118500000Y-55325000D03*
X118500000Y-56875000D03*
X67500000Y-55325000D03*
X67500000Y-56875000D03*
D15*
X116875000Y-53200000D03*
X115325000Y-53200000D03*
D16*
X143300000Y-54375000D03*
X143300000Y-52825000D03*
D15*
X167875000Y-53200000D03*
X166325000Y-53200000D03*
X184875000Y-53200000D03*
X183325000Y-53200000D03*
X133875000Y-53200000D03*
X132325000Y-53200000D03*
D17*
X101500000Y-55325000D03*
X101500000Y-56875000D03*
X169500000Y-55325000D03*
X169500000Y-56875000D03*
X186500000Y-55325000D03*
X186500000Y-56875000D03*
D16*
X92300000Y-54375000D03*
X92300000Y-52825000D03*
D17*
X152500000Y-55325000D03*
X152500000Y-56875000D03*
D16*
X160300000Y-54375000D03*
X160300000Y-52825000D03*
D17*
X84500000Y-55325000D03*
X84500000Y-56875000D03*
D16*
X58300000Y-54375000D03*
X58300000Y-52825000D03*
D15*
X82875000Y-53200000D03*
X81325000Y-53200000D03*
D16*
X109300000Y-54375000D03*
X109300000Y-52825000D03*
D18*
X142100000Y-68650000D03*
X142100000Y-61750000D03*
D19*
X142100000Y-65200000D03*
D18*
X108100000Y-68650000D03*
X108100000Y-61750000D03*
D19*
X108100000Y-65200000D03*
D18*
X74100000Y-68650000D03*
X74100000Y-61750000D03*
D19*
X74100000Y-65200000D03*
D18*
X176100000Y-68650000D03*
X176100000Y-61750000D03*
D19*
X176100000Y-65200000D03*
D18*
X91100000Y-68650000D03*
X91100000Y-61750000D03*
D19*
X91100000Y-65200000D03*
D18*
X57100000Y-68650000D03*
X57100000Y-61750000D03*
D19*
X57100000Y-65200000D03*
D18*
X159100000Y-68650000D03*
X159100000Y-61750000D03*
D19*
X159100000Y-65200000D03*
D18*
X125100000Y-68650000D03*
X125100000Y-61750000D03*
D19*
X125100000Y-65200000D03*
D15*
X65875000Y-53200000D03*
X64325000Y-53200000D03*
D20*
X60188000Y-58705000D03*
X60188000Y-57435000D03*
X60188000Y-56165000D03*
X60188000Y-54895000D03*
X65612000Y-54895000D03*
X65612000Y-56165000D03*
X65612000Y-57435000D03*
X65612000Y-58705000D03*
D21*
X62900000Y-56800000D03*
D20*
X162188000Y-58705000D03*
X162188000Y-57435000D03*
X162188000Y-56165000D03*
X162188000Y-54895000D03*
X167612000Y-54895000D03*
X167612000Y-56165000D03*
X167612000Y-57435000D03*
X167612000Y-58705000D03*
D21*
X164900000Y-56800000D03*
D20*
X94188009Y-58704988D03*
X94188009Y-57434988D03*
X94188009Y-56164988D03*
X94188009Y-54894988D03*
X99612009Y-54894988D03*
X99612009Y-56164988D03*
X99612009Y-57434988D03*
X99612009Y-58704988D03*
D21*
X96900009Y-56799988D03*
D20*
X145188000Y-58705000D03*
X145188000Y-57435000D03*
X145188000Y-56165000D03*
X145188000Y-54895000D03*
X150612000Y-54895000D03*
X150612000Y-56165000D03*
X150612000Y-57435000D03*
X150612000Y-58705000D03*
D21*
X147900000Y-56800000D03*
D20*
X77188000Y-58705000D03*
X77188000Y-57435000D03*
X77188000Y-56165000D03*
X77188000Y-54895000D03*
X82612000Y-54895000D03*
X82612000Y-56165000D03*
X82612000Y-57435000D03*
X82612000Y-58705000D03*
D21*
X79900000Y-56800000D03*
D20*
X128188000Y-58705000D03*
X128188000Y-57435000D03*
X128188000Y-56165000D03*
X128188000Y-54895000D03*
X133612000Y-54895000D03*
X133612000Y-56165000D03*
X133612000Y-57435000D03*
X133612000Y-58705000D03*
D21*
X130900000Y-56800000D03*
D20*
X179188000Y-58705000D03*
X179188000Y-57435000D03*
X179188000Y-56165000D03*
X179188000Y-54895000D03*
X184612000Y-54895000D03*
X184612000Y-56165000D03*
X184612000Y-57435000D03*
X184612000Y-58705000D03*
D21*
X181900000Y-56800000D03*
D20*
X111188000Y-58705000D03*
X111188000Y-57435000D03*
X111188000Y-56165000D03*
X111188000Y-54895000D03*
X116612000Y-54895000D03*
X116612000Y-56165000D03*
X116612000Y-57435000D03*
X116612000Y-58705000D03*
D21*
X113900000Y-56800000D03*
D14*
X56700000Y-59025000D03*
X56700000Y-57375000D03*
D13*
X56725000Y-55800000D03*
X55075000Y-55800000D03*
D14*
X141700000Y-59025000D03*
X141700000Y-57375000D03*
D13*
X175712500Y-55800000D03*
X174062500Y-55800000D03*
D12*
X181075000Y-60400000D03*
X182725000Y-60400000D03*
D14*
X158700000Y-59025000D03*
X158700000Y-57375000D03*
D13*
X158725000Y-55800000D03*
X157075000Y-55800000D03*
D12*
X164075000Y-60400000D03*
X165725000Y-60400000D03*
D14*
X175700000Y-59025000D03*
X175700000Y-57375000D03*
D12*
X62075000Y-60400000D03*
X63725000Y-60400000D03*
D14*
X90700000Y-59025000D03*
X90700000Y-57375000D03*
X188100000Y-122825000D03*
X188100000Y-121175000D03*
D10*
X75300000Y-121075000D03*
X75300000Y-122725000D03*
X92300000Y-121075000D03*
X92300000Y-122725000D03*
X160300000Y-121075000D03*
X160300000Y-122725000D03*
D14*
X137100000Y-122825000D03*
X137100000Y-121175000D03*
X86100000Y-122825000D03*
X86100000Y-121175000D03*
D10*
X109300000Y-121075000D03*
X109300000Y-122725000D03*
X143300000Y-121075000D03*
X143300000Y-122725000D03*
D14*
X171100000Y-122825000D03*
X171100000Y-121175000D03*
X120100000Y-122825000D03*
X120100000Y-121175000D03*
D10*
X177300000Y-121075000D03*
X177300000Y-122725000D03*
D14*
X154100000Y-122825000D03*
X154100000Y-121175000D03*
D10*
X126300000Y-121075000D03*
X126300000Y-122725000D03*
D14*
X69100000Y-122825000D03*
X69100000Y-121175000D03*
D10*
X58300000Y-121075000D03*
X58300000Y-122725000D03*
D14*
X103100000Y-122825000D03*
X103100000Y-121175000D03*
D11*
X65430000Y-127250000D03*
X67970000Y-127250000D03*
X67970000Y-135750000D03*
X65430000Y-135750000D03*
X167430000Y-127250000D03*
X169970000Y-127250000D03*
X169970000Y-135750000D03*
X167430000Y-135750000D03*
X116430000Y-127250000D03*
X118970000Y-127250000D03*
X118970000Y-135750000D03*
X116430000Y-135750000D03*
X184430000Y-127250000D03*
X186970000Y-127250000D03*
X186970000Y-135750000D03*
X184430000Y-135750000D03*
X150430000Y-127250000D03*
X152970000Y-127250000D03*
X152970000Y-135750000D03*
X150430000Y-135750000D03*
X99430000Y-127250000D03*
X101970000Y-127250000D03*
X101970000Y-135750000D03*
X99430000Y-135750000D03*
X82430000Y-127250000D03*
X84970000Y-127250000D03*
X84970000Y-135750000D03*
X82430000Y-135750000D03*
X133430000Y-127250000D03*
X135970000Y-127250000D03*
X135970000Y-135750000D03*
X133430000Y-135750000D03*
D15*
X82875000Y-118300000D03*
X81325000Y-118300000D03*
D17*
X135500000Y-120425000D03*
X135500000Y-121975000D03*
D15*
X133875000Y-118300000D03*
X132325000Y-118300000D03*
D16*
X92300000Y-119575000D03*
X92300000Y-118025000D03*
D15*
X99875000Y-118300000D03*
X98325000Y-118300000D03*
D17*
X84500000Y-120425000D03*
X84500000Y-121975000D03*
X101500000Y-120425000D03*
X101500000Y-121975000D03*
D16*
X126300000Y-119575000D03*
X126300000Y-118025000D03*
X75300000Y-119575000D03*
X75300000Y-118025000D03*
X109300000Y-119575000D03*
X109300000Y-118025000D03*
D15*
X116875000Y-118300000D03*
X115325000Y-118300000D03*
D17*
X118500000Y-120425000D03*
X118500000Y-121975000D03*
D12*
X164075000Y-125500000D03*
X165725000Y-125500000D03*
D13*
X90725000Y-120900000D03*
X89075000Y-120900000D03*
D12*
X147075000Y-125500000D03*
X148725000Y-125500000D03*
X89075000Y-122500000D03*
X90725000Y-122500000D03*
X140075000Y-122500000D03*
X141725000Y-122500000D03*
X130075000Y-125500000D03*
X131725000Y-125500000D03*
D13*
X158725000Y-120900000D03*
X157075000Y-120900000D03*
D12*
X181075000Y-125500000D03*
X182725000Y-125500000D03*
X157075000Y-122500000D03*
X158725000Y-122500000D03*
D13*
X175725000Y-120900000D03*
X174075000Y-120900000D03*
X107725000Y-120900000D03*
X106075000Y-120900000D03*
X124725000Y-120900000D03*
X123075000Y-120900000D03*
D12*
X174062500Y-122500000D03*
X175712500Y-122500000D03*
X106075000Y-122500000D03*
X107725000Y-122500000D03*
X123075000Y-122500000D03*
X124725000Y-122500000D03*
X96075000Y-125500000D03*
X97725000Y-125500000D03*
X113075000Y-125500000D03*
X114725000Y-125500000D03*
D13*
X141725000Y-120900000D03*
X140075000Y-120900000D03*
D20*
X60188000Y-123805000D03*
X60188000Y-122535000D03*
X60188000Y-121265000D03*
X60188000Y-119995000D03*
X65612000Y-119995000D03*
X65612000Y-121265000D03*
X65612000Y-122535000D03*
X65612000Y-123805000D03*
D21*
X62900000Y-121900000D03*
D16*
X160300000Y-119575000D03*
X160300000Y-118025000D03*
X177300000Y-119575000D03*
X177300000Y-118025000D03*
D17*
X152500000Y-120425000D03*
X152500000Y-121975000D03*
X169500000Y-120425000D03*
X169500000Y-121975000D03*
D15*
X184875000Y-118300000D03*
X183325000Y-118300000D03*
D16*
X143300000Y-119575000D03*
X143300000Y-118025000D03*
D17*
X67500000Y-120425000D03*
X67500000Y-121975000D03*
X186500000Y-120425000D03*
X186500000Y-121975000D03*
D15*
X65875000Y-118300000D03*
X64325000Y-118300000D03*
D16*
X58300000Y-119575000D03*
X58300000Y-118025000D03*
D15*
X167875000Y-118300000D03*
X166325000Y-118300000D03*
X150875000Y-118300000D03*
X149325000Y-118300000D03*
D12*
X79075000Y-125500000D03*
X80725000Y-125500000D03*
X72075000Y-122500000D03*
X73725000Y-122500000D03*
D13*
X73725000Y-120900000D03*
X72075000Y-120900000D03*
D20*
X179188000Y-123805000D03*
X179188000Y-122535000D03*
X179188000Y-121265000D03*
X179188000Y-119995000D03*
X184612000Y-119995000D03*
X184612000Y-121265000D03*
X184612000Y-122535000D03*
X184612000Y-123805000D03*
D21*
X181900000Y-121900000D03*
D20*
X162188000Y-123805000D03*
X162188000Y-122535000D03*
X162188000Y-121265000D03*
X162188000Y-119995000D03*
X167612000Y-119995000D03*
X167612000Y-121265000D03*
X167612000Y-122535000D03*
X167612000Y-123805000D03*
D21*
X164900000Y-121900000D03*
D20*
X145188000Y-123805000D03*
X145188000Y-122535000D03*
X145188000Y-121265000D03*
X145188000Y-119995000D03*
X150612000Y-119995000D03*
X150612000Y-121265000D03*
X150612000Y-122535000D03*
X150612000Y-123805000D03*
D21*
X147900000Y-121900000D03*
D20*
X128188000Y-123805000D03*
X128188000Y-122535000D03*
X128188000Y-121265000D03*
X128188000Y-119995000D03*
X133612000Y-119995000D03*
X133612000Y-121265000D03*
X133612000Y-122535000D03*
X133612000Y-123805000D03*
D21*
X130900000Y-121900000D03*
D20*
X77188000Y-123805000D03*
X77188000Y-122535000D03*
X77188000Y-121265000D03*
X77188000Y-119995000D03*
X82612000Y-119995000D03*
X82612000Y-121265000D03*
X82612000Y-122535000D03*
X82612000Y-123805000D03*
D21*
X79900000Y-121900000D03*
D20*
X111188000Y-123805000D03*
X111188000Y-122535000D03*
X111188000Y-121265000D03*
X111188000Y-119995000D03*
X116612000Y-119995000D03*
X116612000Y-121265000D03*
X116612000Y-122535000D03*
X116612000Y-123805000D03*
D21*
X113900000Y-121900000D03*
D20*
X94188000Y-123805000D03*
X94188000Y-122535000D03*
X94188000Y-121265000D03*
X94188000Y-119995000D03*
X99612000Y-119995000D03*
X99612000Y-121265000D03*
X99612000Y-122535000D03*
X99612000Y-123805000D03*
D21*
X96900000Y-121900000D03*
D18*
X142100000Y-108250000D03*
X142100000Y-115150000D03*
D19*
X142100000Y-111700000D03*
D18*
X108100000Y-108250000D03*
X108100000Y-115150000D03*
D19*
X108100000Y-111700000D03*
D18*
X74100000Y-108250000D03*
X74100000Y-115150000D03*
D19*
X74100000Y-111700000D03*
D12*
X55075000Y-122500000D03*
X56725000Y-122500000D03*
D18*
X57100000Y-108250000D03*
X57100000Y-115150000D03*
D19*
X57100000Y-111700000D03*
D18*
X176100000Y-108250000D03*
X176100000Y-115150000D03*
D19*
X176100000Y-111700000D03*
D18*
X125100000Y-108250000D03*
X125100000Y-115150000D03*
D19*
X125100000Y-111700000D03*
D18*
X91100000Y-108250000D03*
X91100000Y-115150000D03*
D19*
X91100000Y-111700000D03*
D13*
X56725000Y-120900000D03*
X55075000Y-120900000D03*
D12*
X62075000Y-125500000D03*
X63725000Y-125500000D03*
D18*
X159100000Y-108250000D03*
X159100000Y-115150000D03*
D19*
X159100000Y-111700000D03*
D22*
X164980000Y-114800000D03*
X163020000Y-114800000D03*
X164000000Y-112700000D03*
D23*
X111975000Y-109042200D03*
D24*
X113500000Y-110517200D03*
X113500000Y-107567200D03*
D23*
X94975000Y-109000000D03*
D24*
X96500000Y-110475000D03*
X96500000Y-107525000D03*
D22*
X180020000Y-62373800D03*
X181980000Y-62373800D03*
X181000000Y-64473800D03*
D23*
X145975000Y-68000000D03*
D24*
X147500000Y-69475000D03*
X147500000Y-66525000D03*
D23*
X179975000Y-68000000D03*
D24*
X181500000Y-69475000D03*
X181500000Y-66525000D03*
D22*
X96980000Y-114800000D03*
X95020000Y-114800000D03*
X96000000Y-112700000D03*
D23*
X162975000Y-109000000D03*
D24*
X164500000Y-110475000D03*
X164500000Y-107525000D03*
D22*
X130980000Y-114800000D03*
X129020000Y-114800000D03*
X130000000Y-112700000D03*
X163020000Y-62450000D03*
X164980000Y-62450000D03*
X164000000Y-64550000D03*
X94970000Y-62470000D03*
X96930000Y-62470000D03*
X95950000Y-64570000D03*
X112070000Y-62450000D03*
X114030000Y-62450000D03*
X113050000Y-64550000D03*
X79980000Y-114689600D03*
X78020000Y-114689600D03*
X79000000Y-112589600D03*
D23*
X128975000Y-67919600D03*
D24*
X130500000Y-69394600D03*
X130500000Y-66444600D03*
D23*
X77975000Y-68000000D03*
D24*
X79500000Y-69475000D03*
X79500000Y-66525000D03*
D23*
X94975000Y-68000000D03*
D24*
X96500000Y-69475000D03*
X96500000Y-66525000D03*
D23*
X77977000Y-109000000D03*
D24*
X79502000Y-110475000D03*
X79502000Y-107525000D03*
D23*
X145975000Y-109000000D03*
D24*
X147500000Y-110475000D03*
X147500000Y-107525000D03*
D23*
X162975000Y-68000000D03*
D24*
X164500000Y-69475000D03*
X164500000Y-66525000D03*
D23*
X111975000Y-67975000D03*
D24*
X113500000Y-69450000D03*
X113500000Y-66500000D03*
D22*
X146020000Y-62450000D03*
X147980000Y-62450000D03*
X147000000Y-64550000D03*
X113980000Y-114800000D03*
X112020000Y-114800000D03*
X113000000Y-112700000D03*
X182082000Y-114800000D03*
X180122000Y-114800000D03*
X181102000Y-112700000D03*
X63000000Y-114750000D03*
X61040000Y-114750000D03*
X62020000Y-112650000D03*
D23*
X60975000Y-68000000D03*
D24*
X62500000Y-69475000D03*
X62500000Y-66525000D03*
D23*
X60975000Y-109042200D03*
D24*
X62500000Y-110517200D03*
X62500000Y-107567200D03*
D23*
X179975000Y-109000000D03*
D24*
X181500000Y-110475000D03*
X181500000Y-107525000D03*
D22*
X78020000Y-62450000D03*
X79980000Y-62450000D03*
X79000000Y-64550000D03*
X60970000Y-62430000D03*
X62930000Y-62430000D03*
X61950000Y-64530000D03*
D23*
X128975000Y-109000000D03*
D24*
X130500000Y-110475000D03*
X130500000Y-107525000D03*
D22*
X129020000Y-62450000D03*
X130980000Y-62450000D03*
X130000000Y-64550000D03*
X147980000Y-114800000D03*
X146020000Y-114800000D03*
X147000000Y-112700000D03*
M02*
