G04 #@! TF.GenerationSoftware,KiCad,Pcbnew,(6.0.2)*
G04 #@! TF.CreationDate,2023-03-14T23:15:20-04:00*
G04 #@! TF.ProjectId,ARTIQAmp,41525449-5141-46d7-902e-6b696361645f,rev?*
G04 #@! TF.SameCoordinates,Original*
G04 #@! TF.FileFunction,Paste,Top*
G04 #@! TF.FilePolarity,Positive*
%FSLAX46Y46*%
G04 Gerber Fmt 4.6, Leading zero omitted, Abs format (unit mm)*
G04 Created by KiCad (PCBNEW (6.0.2)) date 2023-03-14 23:15:20*
%MOMM*%
%LPD*%
G01*
G04 APERTURE LIST*
G04 Aperture macros list*
%AMRoundRect*
0 Rectangle with rounded corners*
0 $1 Rounding radius*
0 $2 $3 $4 $5 $6 $7 $8 $9 X,Y pos of 4 corners*
0 Add a 4 corners polygon primitive as box body*
4,1,4,$2,$3,$4,$5,$6,$7,$8,$9,$2,$3,0*
0 Add four circle primitives for the rounded corners*
1,1,$1+$1,$2,$3*
1,1,$1+$1,$4,$5*
1,1,$1+$1,$6,$7*
1,1,$1+$1,$8,$9*
0 Add four rect primitives between the rounded corners*
20,1,$1+$1,$2,$3,$4,$5,0*
20,1,$1+$1,$4,$5,$6,$7,0*
20,1,$1+$1,$6,$7,$8,$9,0*
20,1,$1+$1,$8,$9,$2,$3,0*%
G04 Aperture macros list end*
%ADD10C,0.010000*%
%ADD11RoundRect,0.250000X-0.625000X0.312500X-0.625000X-0.312500X0.625000X-0.312500X0.625000X0.312500X0*%
%ADD12RoundRect,0.225000X0.250000X-0.225000X0.250000X0.225000X-0.250000X0.225000X-0.250000X-0.225000X0*%
%ADD13RoundRect,0.225000X-0.250000X0.225000X-0.250000X-0.225000X0.250000X-0.225000X0.250000X0.225000X0*%
%ADD14RoundRect,0.225000X0.225000X0.250000X-0.225000X0.250000X-0.225000X-0.250000X0.225000X-0.250000X0*%
%ADD15RoundRect,0.200000X0.200000X0.275000X-0.200000X0.275000X-0.200000X-0.275000X0.200000X-0.275000X0*%
%ADD16RoundRect,0.200000X-0.200000X-0.275000X0.200000X-0.275000X0.200000X0.275000X-0.200000X0.275000X0*%
%ADD17RoundRect,0.200000X-0.275000X0.200000X-0.275000X-0.200000X0.275000X-0.200000X0.275000X0.200000X0*%
%ADD18R,1.600000X2.000000*%
%ADD19R,2.600000X2.000000*%
%ADD20R,1.526000X0.650000*%
%ADD21R,2.260000X5.000000*%
%ADD22R,1.600000X3.200000*%
%ADD23RoundRect,0.200000X0.275000X-0.200000X0.275000X0.200000X-0.275000X0.200000X-0.275000X-0.200000X0*%
%ADD24RoundRect,0.250000X0.325000X0.650000X-0.325000X0.650000X-0.325000X-0.650000X0.325000X-0.650000X0*%
%ADD25RoundRect,0.250000X-0.325000X-0.650000X0.325000X-0.650000X0.325000X0.650000X-0.325000X0.650000X0*%
%ADD26R,0.850000X1.000000*%
%ADD27R,1.050000X1.000000*%
%ADD28R,2.200000X1.050000*%
%ADD29R,1.000000X0.850000*%
%ADD30RoundRect,0.250000X0.625000X-0.312500X0.625000X0.312500X-0.625000X0.312500X-0.625000X-0.312500X0*%
%ADD31RoundRect,0.250000X0.650000X-0.325000X0.650000X0.325000X-0.650000X0.325000X-0.650000X-0.325000X0*%
%ADD32R,2.280000X2.120000*%
%ADD33R,3.680000X1.270000*%
%ADD34RoundRect,0.250000X-0.375000X-1.075000X0.375000X-1.075000X0.375000X1.075000X-0.375000X1.075000X0*%
%ADD35R,1.270000X3.680000*%
G04 APERTURE END LIST*
D10*
X168680000Y-51000000D02*
X168680000Y-50000000D01*
X168680000Y-50000000D02*
X169330000Y-50000000D01*
X169330000Y-50000000D02*
X169330000Y-48800000D01*
X169330000Y-48800000D02*
X168680000Y-48800000D01*
X168680000Y-48800000D02*
X168680000Y-47800000D01*
X168680000Y-47800000D02*
X166680000Y-47800000D01*
X166680000Y-47800000D02*
X166680000Y-48800000D01*
X166680000Y-48800000D02*
X165730000Y-48800000D01*
X165730000Y-48800000D02*
X165730000Y-50000000D01*
X165730000Y-50000000D02*
X166680000Y-50000000D01*
X166680000Y-50000000D02*
X166680000Y-51000000D01*
X166680000Y-51000000D02*
X168680000Y-51000000D01*
G36*
X168680000Y-48800000D02*
G01*
X169330000Y-48800000D01*
X169330000Y-50000000D01*
X168680000Y-50000000D01*
X168680000Y-51000000D01*
X166680000Y-51000000D01*
X166680000Y-50000000D01*
X165730000Y-50000000D01*
X165730000Y-48800000D01*
X166680000Y-48800000D01*
X166680000Y-47800000D01*
X168680000Y-47800000D01*
X168680000Y-48800000D01*
G37*
X168680000Y-48800000D02*
X169330000Y-48800000D01*
X169330000Y-50000000D01*
X168680000Y-50000000D01*
X168680000Y-51000000D01*
X166680000Y-51000000D01*
X166680000Y-50000000D01*
X165730000Y-50000000D01*
X165730000Y-48800000D01*
X166680000Y-48800000D01*
X166680000Y-47800000D01*
X168680000Y-47800000D01*
X168680000Y-48800000D01*
X161580000Y-51000000D02*
X161580000Y-50000000D01*
X161580000Y-50000000D02*
X160930000Y-50000000D01*
X160930000Y-50000000D02*
X160930000Y-48800000D01*
X160930000Y-48800000D02*
X161580000Y-48800000D01*
X161580000Y-48800000D02*
X161580000Y-47800000D01*
X161580000Y-47800000D02*
X163580000Y-47800000D01*
X163580000Y-47800000D02*
X163580000Y-48800000D01*
X163580000Y-48800000D02*
X164530000Y-48800000D01*
X164530000Y-48800000D02*
X164530000Y-50000000D01*
X164530000Y-50000000D02*
X163580000Y-50000000D01*
X163580000Y-50000000D02*
X163580000Y-51000000D01*
X163580000Y-51000000D02*
X161580000Y-51000000D01*
G36*
X163580000Y-48800000D02*
G01*
X164530000Y-48800000D01*
X164530000Y-50000000D01*
X163580000Y-50000000D01*
X163580000Y-51000000D01*
X161580000Y-51000000D01*
X161580000Y-50000000D01*
X160930000Y-50000000D01*
X160930000Y-48800000D01*
X161580000Y-48800000D01*
X161580000Y-47800000D01*
X163580000Y-47800000D01*
X163580000Y-48800000D01*
G37*
X163580000Y-48800000D02*
X164530000Y-48800000D01*
X164530000Y-50000000D01*
X163580000Y-50000000D01*
X163580000Y-51000000D01*
X161580000Y-51000000D01*
X161580000Y-50000000D01*
X160930000Y-50000000D01*
X160930000Y-48800000D01*
X161580000Y-48800000D01*
X161580000Y-47800000D01*
X163580000Y-47800000D01*
X163580000Y-48800000D01*
X76275000Y-130380000D02*
X76275000Y-129380000D01*
X76275000Y-129380000D02*
X75625000Y-129380000D01*
X75625000Y-129380000D02*
X75625000Y-128180000D01*
X75625000Y-128180000D02*
X76275000Y-128180000D01*
X76275000Y-128180000D02*
X76275000Y-127180000D01*
X76275000Y-127180000D02*
X78275000Y-127180000D01*
X78275000Y-127180000D02*
X78275000Y-128180000D01*
X78275000Y-128180000D02*
X79225000Y-128180000D01*
X79225000Y-128180000D02*
X79225000Y-129380000D01*
X79225000Y-129380000D02*
X78275000Y-129380000D01*
X78275000Y-129380000D02*
X78275000Y-130380000D01*
X78275000Y-130380000D02*
X76275000Y-130380000D01*
G36*
X78275000Y-128180000D02*
G01*
X79225000Y-128180000D01*
X79225000Y-129380000D01*
X78275000Y-129380000D01*
X78275000Y-130380000D01*
X76275000Y-130380000D01*
X76275000Y-129380000D01*
X75625000Y-129380000D01*
X75625000Y-128180000D01*
X76275000Y-128180000D01*
X76275000Y-127180000D01*
X78275000Y-127180000D01*
X78275000Y-128180000D01*
G37*
X78275000Y-128180000D02*
X79225000Y-128180000D01*
X79225000Y-129380000D01*
X78275000Y-129380000D01*
X78275000Y-130380000D01*
X76275000Y-130380000D01*
X76275000Y-129380000D01*
X75625000Y-129380000D01*
X75625000Y-128180000D01*
X76275000Y-128180000D01*
X76275000Y-127180000D01*
X78275000Y-127180000D01*
X78275000Y-128180000D01*
X83375000Y-130380000D02*
X83375000Y-129380000D01*
X83375000Y-129380000D02*
X84025000Y-129380000D01*
X84025000Y-129380000D02*
X84025000Y-128180000D01*
X84025000Y-128180000D02*
X83375000Y-128180000D01*
X83375000Y-128180000D02*
X83375000Y-127180000D01*
X83375000Y-127180000D02*
X81375000Y-127180000D01*
X81375000Y-127180000D02*
X81375000Y-128180000D01*
X81375000Y-128180000D02*
X80425000Y-128180000D01*
X80425000Y-128180000D02*
X80425000Y-129380000D01*
X80425000Y-129380000D02*
X81375000Y-129380000D01*
X81375000Y-129380000D02*
X81375000Y-130380000D01*
X81375000Y-130380000D02*
X83375000Y-130380000D01*
G36*
X83375000Y-128180000D02*
G01*
X84025000Y-128180000D01*
X84025000Y-129380000D01*
X83375000Y-129380000D01*
X83375000Y-130380000D01*
X81375000Y-130380000D01*
X81375000Y-129380000D01*
X80425000Y-129380000D01*
X80425000Y-128180000D01*
X81375000Y-128180000D01*
X81375000Y-127180000D01*
X83375000Y-127180000D01*
X83375000Y-128180000D01*
G37*
X83375000Y-128180000D02*
X84025000Y-128180000D01*
X84025000Y-129380000D01*
X83375000Y-129380000D01*
X83375000Y-130380000D01*
X81375000Y-130380000D01*
X81375000Y-129380000D01*
X80425000Y-129380000D01*
X80425000Y-128180000D01*
X81375000Y-128180000D01*
X81375000Y-127180000D01*
X83375000Y-127180000D01*
X83375000Y-128180000D01*
X185410000Y-129810000D02*
X185410000Y-128810000D01*
X185410000Y-128810000D02*
X186060000Y-128810000D01*
X186060000Y-128810000D02*
X186060000Y-127610000D01*
X186060000Y-127610000D02*
X185410000Y-127610000D01*
X185410000Y-127610000D02*
X185410000Y-126610000D01*
X185410000Y-126610000D02*
X183410000Y-126610000D01*
X183410000Y-126610000D02*
X183410000Y-127610000D01*
X183410000Y-127610000D02*
X182460000Y-127610000D01*
X182460000Y-127610000D02*
X182460000Y-128810000D01*
X182460000Y-128810000D02*
X183410000Y-128810000D01*
X183410000Y-128810000D02*
X183410000Y-129810000D01*
X183410000Y-129810000D02*
X185410000Y-129810000D01*
G36*
X185410000Y-127610000D02*
G01*
X186060000Y-127610000D01*
X186060000Y-128810000D01*
X185410000Y-128810000D01*
X185410000Y-129810000D01*
X183410000Y-129810000D01*
X183410000Y-128810000D01*
X182460000Y-128810000D01*
X182460000Y-127610000D01*
X183410000Y-127610000D01*
X183410000Y-126610000D01*
X185410000Y-126610000D01*
X185410000Y-127610000D01*
G37*
X185410000Y-127610000D02*
X186060000Y-127610000D01*
X186060000Y-128810000D01*
X185410000Y-128810000D01*
X185410000Y-129810000D01*
X183410000Y-129810000D01*
X183410000Y-128810000D01*
X182460000Y-128810000D01*
X182460000Y-127610000D01*
X183410000Y-127610000D01*
X183410000Y-126610000D01*
X185410000Y-126610000D01*
X185410000Y-127610000D01*
X178310000Y-129810000D02*
X178310000Y-128810000D01*
X178310000Y-128810000D02*
X177660000Y-128810000D01*
X177660000Y-128810000D02*
X177660000Y-127610000D01*
X177660000Y-127610000D02*
X178310000Y-127610000D01*
X178310000Y-127610000D02*
X178310000Y-126610000D01*
X178310000Y-126610000D02*
X180310000Y-126610000D01*
X180310000Y-126610000D02*
X180310000Y-127610000D01*
X180310000Y-127610000D02*
X181260000Y-127610000D01*
X181260000Y-127610000D02*
X181260000Y-128810000D01*
X181260000Y-128810000D02*
X180310000Y-128810000D01*
X180310000Y-128810000D02*
X180310000Y-129810000D01*
X180310000Y-129810000D02*
X178310000Y-129810000D01*
G36*
X180310000Y-127610000D02*
G01*
X181260000Y-127610000D01*
X181260000Y-128810000D01*
X180310000Y-128810000D01*
X180310000Y-129810000D01*
X178310000Y-129810000D01*
X178310000Y-128810000D01*
X177660000Y-128810000D01*
X177660000Y-127610000D01*
X178310000Y-127610000D01*
X178310000Y-126610000D01*
X180310000Y-126610000D01*
X180310000Y-127610000D01*
G37*
X180310000Y-127610000D02*
X181260000Y-127610000D01*
X181260000Y-128810000D01*
X180310000Y-128810000D01*
X180310000Y-129810000D01*
X178310000Y-129810000D01*
X178310000Y-128810000D01*
X177660000Y-128810000D01*
X177660000Y-127610000D01*
X178310000Y-127610000D01*
X178310000Y-126610000D01*
X180310000Y-126610000D01*
X180310000Y-127610000D01*
X118040000Y-47440000D02*
X118040000Y-48440000D01*
X118040000Y-48440000D02*
X118690000Y-48440000D01*
X118690000Y-48440000D02*
X118690000Y-49640000D01*
X118690000Y-49640000D02*
X118040000Y-49640000D01*
X118040000Y-49640000D02*
X118040000Y-50640000D01*
X118040000Y-50640000D02*
X116040000Y-50640000D01*
X116040000Y-50640000D02*
X116040000Y-49640000D01*
X116040000Y-49640000D02*
X115090000Y-49640000D01*
X115090000Y-49640000D02*
X115090000Y-48440000D01*
X115090000Y-48440000D02*
X116040000Y-48440000D01*
X116040000Y-48440000D02*
X116040000Y-47440000D01*
X116040000Y-47440000D02*
X118040000Y-47440000D01*
G36*
X118040000Y-48440000D02*
G01*
X118690000Y-48440000D01*
X118690000Y-49640000D01*
X118040000Y-49640000D01*
X118040000Y-50640000D01*
X116040000Y-50640000D01*
X116040000Y-49640000D01*
X115090000Y-49640000D01*
X115090000Y-48440000D01*
X116040000Y-48440000D01*
X116040000Y-47440000D01*
X118040000Y-47440000D01*
X118040000Y-48440000D01*
G37*
X118040000Y-48440000D02*
X118690000Y-48440000D01*
X118690000Y-49640000D01*
X118040000Y-49640000D01*
X118040000Y-50640000D01*
X116040000Y-50640000D01*
X116040000Y-49640000D01*
X115090000Y-49640000D01*
X115090000Y-48440000D01*
X116040000Y-48440000D01*
X116040000Y-47440000D01*
X118040000Y-47440000D01*
X118040000Y-48440000D01*
X110940000Y-47440000D02*
X110940000Y-48440000D01*
X110940000Y-48440000D02*
X110290000Y-48440000D01*
X110290000Y-48440000D02*
X110290000Y-49640000D01*
X110290000Y-49640000D02*
X110940000Y-49640000D01*
X110940000Y-49640000D02*
X110940000Y-50640000D01*
X110940000Y-50640000D02*
X112940000Y-50640000D01*
X112940000Y-50640000D02*
X112940000Y-49640000D01*
X112940000Y-49640000D02*
X113890000Y-49640000D01*
X113890000Y-49640000D02*
X113890000Y-48440000D01*
X113890000Y-48440000D02*
X112940000Y-48440000D01*
X112940000Y-48440000D02*
X112940000Y-47440000D01*
X112940000Y-47440000D02*
X110940000Y-47440000D01*
G36*
X112940000Y-48440000D02*
G01*
X113890000Y-48440000D01*
X113890000Y-49640000D01*
X112940000Y-49640000D01*
X112940000Y-50640000D01*
X110940000Y-50640000D01*
X110940000Y-49640000D01*
X110290000Y-49640000D01*
X110290000Y-48440000D01*
X110940000Y-48440000D01*
X110940000Y-47440000D01*
X112940000Y-47440000D01*
X112940000Y-48440000D01*
G37*
X112940000Y-48440000D02*
X113890000Y-48440000D01*
X113890000Y-49640000D01*
X112940000Y-49640000D01*
X112940000Y-50640000D01*
X110940000Y-50640000D01*
X110940000Y-49640000D01*
X110290000Y-49640000D01*
X110290000Y-48440000D01*
X110940000Y-48440000D01*
X110940000Y-47440000D01*
X112940000Y-47440000D01*
X112940000Y-48440000D01*
X59150000Y-130350000D02*
X59150000Y-129350000D01*
X59150000Y-129350000D02*
X58500000Y-129350000D01*
X58500000Y-129350000D02*
X58500000Y-128150000D01*
X58500000Y-128150000D02*
X59150000Y-128150000D01*
X59150000Y-128150000D02*
X59150000Y-127150000D01*
X59150000Y-127150000D02*
X61150000Y-127150000D01*
X61150000Y-127150000D02*
X61150000Y-128150000D01*
X61150000Y-128150000D02*
X62100000Y-128150000D01*
X62100000Y-128150000D02*
X62100000Y-129350000D01*
X62100000Y-129350000D02*
X61150000Y-129350000D01*
X61150000Y-129350000D02*
X61150000Y-130350000D01*
X61150000Y-130350000D02*
X59150000Y-130350000D01*
G36*
X61150000Y-128150000D02*
G01*
X62100000Y-128150000D01*
X62100000Y-129350000D01*
X61150000Y-129350000D01*
X61150000Y-130350000D01*
X59150000Y-130350000D01*
X59150000Y-129350000D01*
X58500000Y-129350000D01*
X58500000Y-128150000D01*
X59150000Y-128150000D01*
X59150000Y-127150000D01*
X61150000Y-127150000D01*
X61150000Y-128150000D01*
G37*
X61150000Y-128150000D02*
X62100000Y-128150000D01*
X62100000Y-129350000D01*
X61150000Y-129350000D01*
X61150000Y-130350000D01*
X59150000Y-130350000D01*
X59150000Y-129350000D01*
X58500000Y-129350000D01*
X58500000Y-128150000D01*
X59150000Y-128150000D01*
X59150000Y-127150000D01*
X61150000Y-127150000D01*
X61150000Y-128150000D01*
X66250000Y-130350000D02*
X66250000Y-129350000D01*
X66250000Y-129350000D02*
X66900000Y-129350000D01*
X66900000Y-129350000D02*
X66900000Y-128150000D01*
X66900000Y-128150000D02*
X66250000Y-128150000D01*
X66250000Y-128150000D02*
X66250000Y-127150000D01*
X66250000Y-127150000D02*
X64250000Y-127150000D01*
X64250000Y-127150000D02*
X64250000Y-128150000D01*
X64250000Y-128150000D02*
X63300000Y-128150000D01*
X63300000Y-128150000D02*
X63300000Y-129350000D01*
X63300000Y-129350000D02*
X64250000Y-129350000D01*
X64250000Y-129350000D02*
X64250000Y-130350000D01*
X64250000Y-130350000D02*
X66250000Y-130350000D01*
G36*
X66250000Y-128150000D02*
G01*
X66900000Y-128150000D01*
X66900000Y-129350000D01*
X66250000Y-129350000D01*
X66250000Y-130350000D01*
X64250000Y-130350000D01*
X64250000Y-129350000D01*
X63300000Y-129350000D01*
X63300000Y-128150000D01*
X64250000Y-128150000D01*
X64250000Y-127150000D01*
X66250000Y-127150000D01*
X66250000Y-128150000D01*
G37*
X66250000Y-128150000D02*
X66900000Y-128150000D01*
X66900000Y-129350000D01*
X66250000Y-129350000D01*
X66250000Y-130350000D01*
X64250000Y-130350000D01*
X64250000Y-129350000D01*
X63300000Y-129350000D01*
X63300000Y-128150000D01*
X64250000Y-128150000D01*
X64250000Y-127150000D01*
X66250000Y-127150000D01*
X66250000Y-128150000D01*
X167945000Y-129970000D02*
X167945000Y-128970000D01*
X167945000Y-128970000D02*
X168595000Y-128970000D01*
X168595000Y-128970000D02*
X168595000Y-127770000D01*
X168595000Y-127770000D02*
X167945000Y-127770000D01*
X167945000Y-127770000D02*
X167945000Y-126770000D01*
X167945000Y-126770000D02*
X165945000Y-126770000D01*
X165945000Y-126770000D02*
X165945000Y-127770000D01*
X165945000Y-127770000D02*
X164995000Y-127770000D01*
X164995000Y-127770000D02*
X164995000Y-128970000D01*
X164995000Y-128970000D02*
X165945000Y-128970000D01*
X165945000Y-128970000D02*
X165945000Y-129970000D01*
X165945000Y-129970000D02*
X167945000Y-129970000D01*
G36*
X167945000Y-127770000D02*
G01*
X168595000Y-127770000D01*
X168595000Y-128970000D01*
X167945000Y-128970000D01*
X167945000Y-129970000D01*
X165945000Y-129970000D01*
X165945000Y-128970000D01*
X164995000Y-128970000D01*
X164995000Y-127770000D01*
X165945000Y-127770000D01*
X165945000Y-126770000D01*
X167945000Y-126770000D01*
X167945000Y-127770000D01*
G37*
X167945000Y-127770000D02*
X168595000Y-127770000D01*
X168595000Y-128970000D01*
X167945000Y-128970000D01*
X167945000Y-129970000D01*
X165945000Y-129970000D01*
X165945000Y-128970000D01*
X164995000Y-128970000D01*
X164995000Y-127770000D01*
X165945000Y-127770000D01*
X165945000Y-126770000D01*
X167945000Y-126770000D01*
X167945000Y-127770000D01*
X160845000Y-129970000D02*
X160845000Y-128970000D01*
X160845000Y-128970000D02*
X160195000Y-128970000D01*
X160195000Y-128970000D02*
X160195000Y-127770000D01*
X160195000Y-127770000D02*
X160845000Y-127770000D01*
X160845000Y-127770000D02*
X160845000Y-126770000D01*
X160845000Y-126770000D02*
X162845000Y-126770000D01*
X162845000Y-126770000D02*
X162845000Y-127770000D01*
X162845000Y-127770000D02*
X163795000Y-127770000D01*
X163795000Y-127770000D02*
X163795000Y-128970000D01*
X163795000Y-128970000D02*
X162845000Y-128970000D01*
X162845000Y-128970000D02*
X162845000Y-129970000D01*
X162845000Y-129970000D02*
X160845000Y-129970000D01*
G36*
X162845000Y-127770000D02*
G01*
X163795000Y-127770000D01*
X163795000Y-128970000D01*
X162845000Y-128970000D01*
X162845000Y-129970000D01*
X160845000Y-129970000D01*
X160845000Y-128970000D01*
X160195000Y-128970000D01*
X160195000Y-127770000D01*
X160845000Y-127770000D01*
X160845000Y-126770000D01*
X162845000Y-126770000D01*
X162845000Y-127770000D01*
G37*
X162845000Y-127770000D02*
X163795000Y-127770000D01*
X163795000Y-128970000D01*
X162845000Y-128970000D01*
X162845000Y-129970000D01*
X160845000Y-129970000D01*
X160845000Y-128970000D01*
X160195000Y-128970000D01*
X160195000Y-127770000D01*
X160845000Y-127770000D01*
X160845000Y-126770000D01*
X162845000Y-126770000D01*
X162845000Y-127770000D01*
X93915007Y-50519994D02*
X93915007Y-49519994D01*
X93915007Y-49519994D02*
X93265007Y-49519994D01*
X93265007Y-49519994D02*
X93265007Y-48319994D01*
X93265007Y-48319994D02*
X93915007Y-48319994D01*
X93915007Y-48319994D02*
X93915007Y-47319994D01*
X93915007Y-47319994D02*
X95915007Y-47319994D01*
X95915007Y-47319994D02*
X95915007Y-48319994D01*
X95915007Y-48319994D02*
X96865007Y-48319994D01*
X96865007Y-48319994D02*
X96865007Y-49519994D01*
X96865007Y-49519994D02*
X95915007Y-49519994D01*
X95915007Y-49519994D02*
X95915007Y-50519994D01*
X95915007Y-50519994D02*
X93915007Y-50519994D01*
G36*
X95915007Y-48319994D02*
G01*
X96865007Y-48319994D01*
X96865007Y-49519994D01*
X95915007Y-49519994D01*
X95915007Y-50519994D01*
X93915007Y-50519994D01*
X93915007Y-49519994D01*
X93265007Y-49519994D01*
X93265007Y-48319994D01*
X93915007Y-48319994D01*
X93915007Y-47319994D01*
X95915007Y-47319994D01*
X95915007Y-48319994D01*
G37*
X95915007Y-48319994D02*
X96865007Y-48319994D01*
X96865007Y-49519994D01*
X95915007Y-49519994D01*
X95915007Y-50519994D01*
X93915007Y-50519994D01*
X93915007Y-49519994D01*
X93265007Y-49519994D01*
X93265007Y-48319994D01*
X93915007Y-48319994D01*
X93915007Y-47319994D01*
X95915007Y-47319994D01*
X95915007Y-48319994D01*
X101015007Y-50519994D02*
X101015007Y-49519994D01*
X101015007Y-49519994D02*
X101665007Y-49519994D01*
X101665007Y-49519994D02*
X101665007Y-48319994D01*
X101665007Y-48319994D02*
X101015007Y-48319994D01*
X101015007Y-48319994D02*
X101015007Y-47319994D01*
X101015007Y-47319994D02*
X99015007Y-47319994D01*
X99015007Y-47319994D02*
X99015007Y-48319994D01*
X99015007Y-48319994D02*
X98065007Y-48319994D01*
X98065007Y-48319994D02*
X98065007Y-49519994D01*
X98065007Y-49519994D02*
X99015007Y-49519994D01*
X99015007Y-49519994D02*
X99015007Y-50519994D01*
X99015007Y-50519994D02*
X101015007Y-50519994D01*
G36*
X101015007Y-48319994D02*
G01*
X101665007Y-48319994D01*
X101665007Y-49519994D01*
X101015007Y-49519994D01*
X101015007Y-50519994D01*
X99015007Y-50519994D01*
X99015007Y-49519994D01*
X98065007Y-49519994D01*
X98065007Y-48319994D01*
X99015007Y-48319994D01*
X99015007Y-47319994D01*
X101015007Y-47319994D01*
X101015007Y-48319994D01*
G37*
X101015007Y-48319994D02*
X101665007Y-48319994D01*
X101665007Y-49519994D01*
X101015007Y-49519994D01*
X101015007Y-50519994D01*
X99015007Y-50519994D01*
X99015007Y-49519994D01*
X98065007Y-49519994D01*
X98065007Y-48319994D01*
X99015007Y-48319994D01*
X99015007Y-47319994D01*
X101015007Y-47319994D01*
X101015007Y-48319994D01*
X151870000Y-47340000D02*
X151870000Y-48340000D01*
X151870000Y-48340000D02*
X152520000Y-48340000D01*
X152520000Y-48340000D02*
X152520000Y-49540000D01*
X152520000Y-49540000D02*
X151870000Y-49540000D01*
X151870000Y-49540000D02*
X151870000Y-50540000D01*
X151870000Y-50540000D02*
X149870000Y-50540000D01*
X149870000Y-50540000D02*
X149870000Y-49540000D01*
X149870000Y-49540000D02*
X148920000Y-49540000D01*
X148920000Y-49540000D02*
X148920000Y-48340000D01*
X148920000Y-48340000D02*
X149870000Y-48340000D01*
X149870000Y-48340000D02*
X149870000Y-47340000D01*
X149870000Y-47340000D02*
X151870000Y-47340000D01*
G36*
X151870000Y-48340000D02*
G01*
X152520000Y-48340000D01*
X152520000Y-49540000D01*
X151870000Y-49540000D01*
X151870000Y-50540000D01*
X149870000Y-50540000D01*
X149870000Y-49540000D01*
X148920000Y-49540000D01*
X148920000Y-48340000D01*
X149870000Y-48340000D01*
X149870000Y-47340000D01*
X151870000Y-47340000D01*
X151870000Y-48340000D01*
G37*
X151870000Y-48340000D02*
X152520000Y-48340000D01*
X152520000Y-49540000D01*
X151870000Y-49540000D01*
X151870000Y-50540000D01*
X149870000Y-50540000D01*
X149870000Y-49540000D01*
X148920000Y-49540000D01*
X148920000Y-48340000D01*
X149870000Y-48340000D01*
X149870000Y-47340000D01*
X151870000Y-47340000D01*
X151870000Y-48340000D01*
X144770000Y-47340000D02*
X144770000Y-48340000D01*
X144770000Y-48340000D02*
X144120000Y-48340000D01*
X144120000Y-48340000D02*
X144120000Y-49540000D01*
X144120000Y-49540000D02*
X144770000Y-49540000D01*
X144770000Y-49540000D02*
X144770000Y-50540000D01*
X144770000Y-50540000D02*
X146770000Y-50540000D01*
X146770000Y-50540000D02*
X146770000Y-49540000D01*
X146770000Y-49540000D02*
X147720000Y-49540000D01*
X147720000Y-49540000D02*
X147720000Y-48340000D01*
X147720000Y-48340000D02*
X146770000Y-48340000D01*
X146770000Y-48340000D02*
X146770000Y-47340000D01*
X146770000Y-47340000D02*
X144770000Y-47340000D01*
G36*
X146770000Y-48340000D02*
G01*
X147720000Y-48340000D01*
X147720000Y-49540000D01*
X146770000Y-49540000D01*
X146770000Y-50540000D01*
X144770000Y-50540000D01*
X144770000Y-49540000D01*
X144120000Y-49540000D01*
X144120000Y-48340000D01*
X144770000Y-48340000D01*
X144770000Y-47340000D01*
X146770000Y-47340000D01*
X146770000Y-48340000D01*
G37*
X146770000Y-48340000D02*
X147720000Y-48340000D01*
X147720000Y-49540000D01*
X146770000Y-49540000D01*
X146770000Y-50540000D01*
X144770000Y-50540000D01*
X144770000Y-49540000D01*
X144120000Y-49540000D01*
X144120000Y-48340000D01*
X144770000Y-48340000D01*
X144770000Y-47340000D01*
X146770000Y-47340000D01*
X146770000Y-48340000D01*
X98954000Y-25446000D02*
X96754000Y-25446000D01*
X96754000Y-25446000D02*
X96754000Y-23546000D01*
X96754000Y-23546000D02*
X94254000Y-23546000D01*
X94254000Y-23546000D02*
X94254000Y-25446000D01*
X94254000Y-25446000D02*
X92054000Y-25446000D01*
X92054000Y-25446000D02*
X92054000Y-28246000D01*
X92054000Y-28246000D02*
X94254000Y-28246000D01*
X94254000Y-28246000D02*
X94254000Y-29546000D01*
X94254000Y-29546000D02*
X96754000Y-29546000D01*
X96754000Y-29546000D02*
X96754000Y-28246000D01*
X96754000Y-28246000D02*
X98954000Y-28246000D01*
X98954000Y-28246000D02*
X98954000Y-25446000D01*
G36*
X96754000Y-25446000D02*
G01*
X98954000Y-25446000D01*
X98954000Y-28246000D01*
X96754000Y-28246000D01*
X96754000Y-29546000D01*
X94254000Y-29546000D01*
X94254000Y-28246000D01*
X92054000Y-28246000D01*
X92054000Y-25446000D01*
X94254000Y-25446000D01*
X94254000Y-23546000D01*
X96754000Y-23546000D01*
X96754000Y-25446000D01*
G37*
X96754000Y-25446000D02*
X98954000Y-25446000D01*
X98954000Y-28246000D01*
X96754000Y-28246000D01*
X96754000Y-29546000D01*
X94254000Y-29546000D01*
X94254000Y-28246000D01*
X92054000Y-28246000D01*
X92054000Y-25446000D01*
X94254000Y-25446000D01*
X94254000Y-23546000D01*
X96754000Y-23546000D01*
X96754000Y-25446000D01*
X98954000Y-37546000D02*
X96754000Y-37546000D01*
X96754000Y-37546000D02*
X96754000Y-39446000D01*
X96754000Y-39446000D02*
X94254000Y-39446000D01*
X94254000Y-39446000D02*
X94254000Y-37546000D01*
X94254000Y-37546000D02*
X92054000Y-37546000D01*
X92054000Y-37546000D02*
X92054000Y-34746000D01*
X92054000Y-34746000D02*
X94254000Y-34746000D01*
X94254000Y-34746000D02*
X94254000Y-33446000D01*
X94254000Y-33446000D02*
X96754000Y-33446000D01*
X96754000Y-33446000D02*
X96754000Y-34746000D01*
X96754000Y-34746000D02*
X98954000Y-34746000D01*
X98954000Y-34746000D02*
X98954000Y-37546000D01*
G36*
X96754000Y-34746000D02*
G01*
X98954000Y-34746000D01*
X98954000Y-37546000D01*
X96754000Y-37546000D01*
X96754000Y-39446000D01*
X94254000Y-39446000D01*
X94254000Y-37546000D01*
X92054000Y-37546000D01*
X92054000Y-34746000D01*
X94254000Y-34746000D01*
X94254000Y-33446000D01*
X96754000Y-33446000D01*
X96754000Y-34746000D01*
G37*
X96754000Y-34746000D02*
X98954000Y-34746000D01*
X98954000Y-37546000D01*
X96754000Y-37546000D01*
X96754000Y-39446000D01*
X94254000Y-39446000D01*
X94254000Y-37546000D01*
X92054000Y-37546000D01*
X92054000Y-34746000D01*
X94254000Y-34746000D01*
X94254000Y-33446000D01*
X96754000Y-33446000D01*
X96754000Y-34746000D01*
X173812000Y-27426000D02*
X172812000Y-27426000D01*
X172812000Y-27426000D02*
X172812000Y-28076000D01*
X172812000Y-28076000D02*
X171612000Y-28076000D01*
X171612000Y-28076000D02*
X171612000Y-27426000D01*
X171612000Y-27426000D02*
X170612000Y-27426000D01*
X170612000Y-27426000D02*
X170612000Y-25426000D01*
X170612000Y-25426000D02*
X171612000Y-25426000D01*
X171612000Y-25426000D02*
X171612000Y-24476000D01*
X171612000Y-24476000D02*
X172812000Y-24476000D01*
X172812000Y-24476000D02*
X172812000Y-25426000D01*
X172812000Y-25426000D02*
X173812000Y-25426000D01*
X173812000Y-25426000D02*
X173812000Y-27426000D01*
G36*
X172812000Y-25426000D02*
G01*
X173812000Y-25426000D01*
X173812000Y-27426000D01*
X172812000Y-27426000D01*
X172812000Y-28076000D01*
X171612000Y-28076000D01*
X171612000Y-27426000D01*
X170612000Y-27426000D01*
X170612000Y-25426000D01*
X171612000Y-25426000D01*
X171612000Y-24476000D01*
X172812000Y-24476000D01*
X172812000Y-25426000D01*
G37*
X172812000Y-25426000D02*
X173812000Y-25426000D01*
X173812000Y-27426000D01*
X172812000Y-27426000D01*
X172812000Y-28076000D01*
X171612000Y-28076000D01*
X171612000Y-27426000D01*
X170612000Y-27426000D01*
X170612000Y-25426000D01*
X171612000Y-25426000D01*
X171612000Y-24476000D01*
X172812000Y-24476000D01*
X172812000Y-25426000D01*
X173812000Y-20326000D02*
X172812000Y-20326000D01*
X172812000Y-20326000D02*
X172812000Y-19676000D01*
X172812000Y-19676000D02*
X171612000Y-19676000D01*
X171612000Y-19676000D02*
X171612000Y-20326000D01*
X171612000Y-20326000D02*
X170612000Y-20326000D01*
X170612000Y-20326000D02*
X170612000Y-22326000D01*
X170612000Y-22326000D02*
X171612000Y-22326000D01*
X171612000Y-22326000D02*
X171612000Y-23276000D01*
X171612000Y-23276000D02*
X172812000Y-23276000D01*
X172812000Y-23276000D02*
X172812000Y-22326000D01*
X172812000Y-22326000D02*
X173812000Y-22326000D01*
X173812000Y-22326000D02*
X173812000Y-20326000D01*
G36*
X172812000Y-20326000D02*
G01*
X173812000Y-20326000D01*
X173812000Y-22326000D01*
X172812000Y-22326000D01*
X172812000Y-23276000D01*
X171612000Y-23276000D01*
X171612000Y-22326000D01*
X170612000Y-22326000D01*
X170612000Y-20326000D01*
X171612000Y-20326000D01*
X171612000Y-19676000D01*
X172812000Y-19676000D01*
X172812000Y-20326000D01*
G37*
X172812000Y-20326000D02*
X173812000Y-20326000D01*
X173812000Y-22326000D01*
X172812000Y-22326000D01*
X172812000Y-23276000D01*
X171612000Y-23276000D01*
X171612000Y-22326000D01*
X170612000Y-22326000D01*
X170612000Y-20326000D01*
X171612000Y-20326000D01*
X171612000Y-19676000D01*
X172812000Y-19676000D01*
X172812000Y-20326000D01*
X156540000Y-27426000D02*
X155540000Y-27426000D01*
X155540000Y-27426000D02*
X155540000Y-28076000D01*
X155540000Y-28076000D02*
X154340000Y-28076000D01*
X154340000Y-28076000D02*
X154340000Y-27426000D01*
X154340000Y-27426000D02*
X153340000Y-27426000D01*
X153340000Y-27426000D02*
X153340000Y-25426000D01*
X153340000Y-25426000D02*
X154340000Y-25426000D01*
X154340000Y-25426000D02*
X154340000Y-24476000D01*
X154340000Y-24476000D02*
X155540000Y-24476000D01*
X155540000Y-24476000D02*
X155540000Y-25426000D01*
X155540000Y-25426000D02*
X156540000Y-25426000D01*
X156540000Y-25426000D02*
X156540000Y-27426000D01*
G36*
X155540000Y-25426000D02*
G01*
X156540000Y-25426000D01*
X156540000Y-27426000D01*
X155540000Y-27426000D01*
X155540000Y-28076000D01*
X154340000Y-28076000D01*
X154340000Y-27426000D01*
X153340000Y-27426000D01*
X153340000Y-25426000D01*
X154340000Y-25426000D01*
X154340000Y-24476000D01*
X155540000Y-24476000D01*
X155540000Y-25426000D01*
G37*
X155540000Y-25426000D02*
X156540000Y-25426000D01*
X156540000Y-27426000D01*
X155540000Y-27426000D01*
X155540000Y-28076000D01*
X154340000Y-28076000D01*
X154340000Y-27426000D01*
X153340000Y-27426000D01*
X153340000Y-25426000D01*
X154340000Y-25426000D01*
X154340000Y-24476000D01*
X155540000Y-24476000D01*
X155540000Y-25426000D01*
X156540000Y-20326000D02*
X155540000Y-20326000D01*
X155540000Y-20326000D02*
X155540000Y-19676000D01*
X155540000Y-19676000D02*
X154340000Y-19676000D01*
X154340000Y-19676000D02*
X154340000Y-20326000D01*
X154340000Y-20326000D02*
X153340000Y-20326000D01*
X153340000Y-20326000D02*
X153340000Y-22326000D01*
X153340000Y-22326000D02*
X154340000Y-22326000D01*
X154340000Y-22326000D02*
X154340000Y-23276000D01*
X154340000Y-23276000D02*
X155540000Y-23276000D01*
X155540000Y-23276000D02*
X155540000Y-22326000D01*
X155540000Y-22326000D02*
X156540000Y-22326000D01*
X156540000Y-22326000D02*
X156540000Y-20326000D01*
G36*
X155540000Y-20326000D02*
G01*
X156540000Y-20326000D01*
X156540000Y-22326000D01*
X155540000Y-22326000D01*
X155540000Y-23276000D01*
X154340000Y-23276000D01*
X154340000Y-22326000D01*
X153340000Y-22326000D01*
X153340000Y-20326000D01*
X154340000Y-20326000D01*
X154340000Y-19676000D01*
X155540000Y-19676000D01*
X155540000Y-20326000D01*
G37*
X155540000Y-20326000D02*
X156540000Y-20326000D01*
X156540000Y-22326000D01*
X155540000Y-22326000D01*
X155540000Y-23276000D01*
X154340000Y-23276000D01*
X154340000Y-22326000D01*
X153340000Y-22326000D01*
X153340000Y-20326000D01*
X154340000Y-20326000D01*
X154340000Y-19676000D01*
X155540000Y-19676000D01*
X155540000Y-20326000D01*
X76306000Y-37116000D02*
X78506000Y-37116000D01*
X78506000Y-37116000D02*
X78506000Y-39016000D01*
X78506000Y-39016000D02*
X81006000Y-39016000D01*
X81006000Y-39016000D02*
X81006000Y-37116000D01*
X81006000Y-37116000D02*
X83206000Y-37116000D01*
X83206000Y-37116000D02*
X83206000Y-34316000D01*
X83206000Y-34316000D02*
X81006000Y-34316000D01*
X81006000Y-34316000D02*
X81006000Y-33016000D01*
X81006000Y-33016000D02*
X78506000Y-33016000D01*
X78506000Y-33016000D02*
X78506000Y-34316000D01*
X78506000Y-34316000D02*
X76306000Y-34316000D01*
X76306000Y-34316000D02*
X76306000Y-37116000D01*
G36*
X81006000Y-34316000D02*
G01*
X83206000Y-34316000D01*
X83206000Y-37116000D01*
X81006000Y-37116000D01*
X81006000Y-39016000D01*
X78506000Y-39016000D01*
X78506000Y-37116000D01*
X76306000Y-37116000D01*
X76306000Y-34316000D01*
X78506000Y-34316000D01*
X78506000Y-33016000D01*
X81006000Y-33016000D01*
X81006000Y-34316000D01*
G37*
X81006000Y-34316000D02*
X83206000Y-34316000D01*
X83206000Y-37116000D01*
X81006000Y-37116000D01*
X81006000Y-39016000D01*
X78506000Y-39016000D01*
X78506000Y-37116000D01*
X76306000Y-37116000D01*
X76306000Y-34316000D01*
X78506000Y-34316000D01*
X78506000Y-33016000D01*
X81006000Y-33016000D01*
X81006000Y-34316000D01*
X76306000Y-25016000D02*
X78506000Y-25016000D01*
X78506000Y-25016000D02*
X78506000Y-23116000D01*
X78506000Y-23116000D02*
X81006000Y-23116000D01*
X81006000Y-23116000D02*
X81006000Y-25016000D01*
X81006000Y-25016000D02*
X83206000Y-25016000D01*
X83206000Y-25016000D02*
X83206000Y-27816000D01*
X83206000Y-27816000D02*
X81006000Y-27816000D01*
X81006000Y-27816000D02*
X81006000Y-29116000D01*
X81006000Y-29116000D02*
X78506000Y-29116000D01*
X78506000Y-29116000D02*
X78506000Y-27816000D01*
X78506000Y-27816000D02*
X76306000Y-27816000D01*
X76306000Y-27816000D02*
X76306000Y-25016000D01*
G36*
X81006000Y-25016000D02*
G01*
X83206000Y-25016000D01*
X83206000Y-27816000D01*
X81006000Y-27816000D01*
X81006000Y-29116000D01*
X78506000Y-29116000D01*
X78506000Y-27816000D01*
X76306000Y-27816000D01*
X76306000Y-25016000D01*
X78506000Y-25016000D01*
X78506000Y-23116000D01*
X81006000Y-23116000D01*
X81006000Y-25016000D01*
G37*
X81006000Y-25016000D02*
X83206000Y-25016000D01*
X83206000Y-27816000D01*
X81006000Y-27816000D01*
X81006000Y-29116000D01*
X78506000Y-29116000D01*
X78506000Y-27816000D01*
X76306000Y-27816000D01*
X76306000Y-25016000D01*
X78506000Y-25016000D01*
X78506000Y-23116000D01*
X81006000Y-23116000D01*
X81006000Y-25016000D01*
D11*
X37592000Y-56957500D03*
X37592000Y-59882500D03*
D12*
X72200000Y-112875000D03*
X72200000Y-111325000D03*
D13*
X63000000Y-113825000D03*
X63000000Y-115375000D03*
D14*
X70575000Y-115000000D03*
X69025000Y-115000000D03*
D12*
X89200000Y-112875000D03*
X89200000Y-111325000D03*
D13*
X80000000Y-113825000D03*
X80000000Y-115375000D03*
D14*
X87575000Y-115000000D03*
X86025000Y-115000000D03*
D12*
X106200000Y-112875000D03*
X106200000Y-111325000D03*
D13*
X97000000Y-113825000D03*
X97000000Y-115375000D03*
D14*
X104575000Y-115000000D03*
X103025000Y-115000000D03*
D13*
X131000000Y-113825000D03*
X131000000Y-115375000D03*
D14*
X138575000Y-115000000D03*
X137025000Y-115000000D03*
D12*
X157200000Y-112875000D03*
X157200000Y-111325000D03*
D13*
X148000000Y-113825000D03*
X148000000Y-115375000D03*
D14*
X155575000Y-115000000D03*
X154025000Y-115000000D03*
D15*
X61425000Y-112400000D03*
X59775000Y-112400000D03*
D16*
X66775000Y-107800000D03*
X68425000Y-107800000D03*
D15*
X78425000Y-112400000D03*
X76775000Y-112400000D03*
D16*
X83775000Y-107800000D03*
X85425000Y-107800000D03*
D15*
X95425000Y-112400000D03*
X93775000Y-112400000D03*
D16*
X100775000Y-107800000D03*
X102425000Y-107800000D03*
D17*
X95400000Y-109175000D03*
X95400000Y-110825000D03*
D15*
X129425000Y-112400000D03*
X127775000Y-112400000D03*
D17*
X129400000Y-109175000D03*
X129400000Y-110825000D03*
D15*
X146425000Y-112400000D03*
X144775000Y-112400000D03*
D16*
X151775000Y-107800000D03*
X153425000Y-107800000D03*
D17*
X146400000Y-109175000D03*
X146400000Y-110825000D03*
D18*
X62000000Y-99550000D03*
X62000000Y-106450000D03*
D19*
X62000000Y-103000000D03*
D18*
X79000000Y-99550000D03*
X79000000Y-106450000D03*
D19*
X79000000Y-103000000D03*
D18*
X96000000Y-99550000D03*
X96000000Y-106450000D03*
D19*
X96000000Y-103000000D03*
D18*
X130000000Y-99550000D03*
X130000000Y-106450000D03*
D19*
X130000000Y-103000000D03*
D18*
X147000000Y-99550000D03*
X147000000Y-106450000D03*
D19*
X147000000Y-103000000D03*
D16*
X168775000Y-107800000D03*
X170425000Y-107800000D03*
D15*
X163425000Y-112400000D03*
X161775000Y-112400000D03*
D17*
X163400000Y-109175000D03*
X163400000Y-110825000D03*
D18*
X164000000Y-99550000D03*
X164000000Y-106450000D03*
D19*
X164000000Y-103000000D03*
D12*
X174200000Y-112875000D03*
X174200000Y-111325000D03*
D14*
X172575000Y-115000000D03*
X171025000Y-115000000D03*
D13*
X165000000Y-113825000D03*
X165000000Y-115375000D03*
D20*
X81888000Y-109495000D03*
X81888000Y-110765000D03*
X81888000Y-112035000D03*
X81888000Y-113305000D03*
X87312000Y-113305000D03*
X87312000Y-112035000D03*
X87312000Y-110765000D03*
X87312000Y-109495000D03*
D21*
X84600000Y-111400000D03*
D20*
X98888000Y-109495000D03*
X98888000Y-110765000D03*
X98888000Y-112035000D03*
X98888000Y-113305000D03*
X104312000Y-113305000D03*
X104312000Y-112035000D03*
X104312000Y-110765000D03*
X104312000Y-109495000D03*
D21*
X101600000Y-111400000D03*
D20*
X132888000Y-109495000D03*
X132888000Y-110765000D03*
X132888000Y-112035000D03*
X132888000Y-113305000D03*
X138312000Y-113305000D03*
X138312000Y-112035000D03*
X138312000Y-110765000D03*
X138312000Y-109495000D03*
D21*
X135600000Y-111400000D03*
D20*
X149888000Y-109495000D03*
X149888000Y-110765000D03*
X149888000Y-112035000D03*
X149888000Y-113305000D03*
X155312000Y-113305000D03*
X155312000Y-112035000D03*
X155312000Y-110765000D03*
X155312000Y-109495000D03*
D21*
X152600000Y-111400000D03*
D20*
X166887991Y-109495006D03*
X166887991Y-110765006D03*
X166887991Y-112035006D03*
X166887991Y-113305006D03*
X172311991Y-113305006D03*
X172311991Y-112035006D03*
X172311991Y-110765006D03*
X172311991Y-109495006D03*
D21*
X169599991Y-111400006D03*
D22*
X72270010Y-117650010D03*
X69730010Y-117650010D03*
X69730010Y-126150010D03*
X72270010Y-126150010D03*
X89270000Y-117650000D03*
X86730000Y-117650000D03*
X86730000Y-126150000D03*
X89270000Y-126150000D03*
X106270000Y-117650000D03*
X103730000Y-117650000D03*
X103730000Y-126150000D03*
X106270000Y-126150000D03*
X140270000Y-117650000D03*
X137730000Y-117650000D03*
X137730000Y-126150000D03*
X140270000Y-126150000D03*
X174270000Y-117650000D03*
X171730000Y-117650000D03*
X171730000Y-126150000D03*
X174270000Y-126150000D03*
D23*
X73800000Y-113625000D03*
X73800000Y-111975000D03*
X90800000Y-113625000D03*
X90800000Y-111975000D03*
X97000000Y-112325000D03*
X97000000Y-110675000D03*
X107800000Y-113625000D03*
X107800000Y-111975000D03*
X131000000Y-112325000D03*
X131000000Y-110675000D03*
X141800000Y-113625000D03*
X141800000Y-111975000D03*
X148000000Y-112325000D03*
X148000000Y-110675000D03*
X158800000Y-113625000D03*
X158800000Y-111975000D03*
X165000000Y-112325000D03*
X165000000Y-110675000D03*
X175800000Y-113625000D03*
X175800000Y-111975000D03*
D12*
X140200000Y-112875000D03*
X140200000Y-111325000D03*
D16*
X134775000Y-107800000D03*
X136425000Y-107800000D03*
D12*
X55200000Y-112875000D03*
X55200000Y-111325000D03*
D14*
X53575000Y-115000000D03*
X52025000Y-115000000D03*
D20*
X47888000Y-109495000D03*
X47888000Y-110765000D03*
X47888000Y-112035000D03*
X47888000Y-113305000D03*
X53312000Y-113305000D03*
X53312000Y-112035000D03*
X53312000Y-110765000D03*
X53312000Y-109495000D03*
D21*
X50600000Y-111400000D03*
D16*
X49775000Y-107800000D03*
X51425000Y-107800000D03*
D15*
X44425000Y-112400000D03*
X42775000Y-112400000D03*
D23*
X46000000Y-112325000D03*
X46000000Y-110675000D03*
D13*
X46000000Y-113825000D03*
X46000000Y-115375000D03*
D23*
X63000000Y-112325000D03*
X63000000Y-110675000D03*
D18*
X45000000Y-99550000D03*
X45000000Y-106450000D03*
D19*
X45000000Y-103000000D03*
D23*
X56800000Y-113625000D03*
X56800000Y-111975000D03*
X124800000Y-113625000D03*
X124800000Y-111975000D03*
X114000000Y-112325000D03*
X114000000Y-110675000D03*
D22*
X123270000Y-117650000D03*
X120730000Y-117650000D03*
X120730000Y-126150000D03*
X123270000Y-126150000D03*
D18*
X113000000Y-99550000D03*
X113000000Y-106450000D03*
D19*
X113000000Y-103000000D03*
D14*
X121575000Y-115000000D03*
X120025000Y-115000000D03*
D12*
X123200000Y-112875000D03*
X123200000Y-111325000D03*
D13*
X114000000Y-113825000D03*
X114000000Y-115375000D03*
D15*
X112425000Y-112400000D03*
X110775000Y-112400000D03*
D16*
X117775000Y-107800000D03*
X119425000Y-107800000D03*
D17*
X112400000Y-109175000D03*
X112400000Y-110825000D03*
D20*
X115888000Y-109495000D03*
X115888000Y-110765000D03*
X115888000Y-112035000D03*
X115888000Y-113305000D03*
X121312000Y-113305000D03*
X121312000Y-112035000D03*
X121312000Y-110765000D03*
X121312000Y-109495000D03*
D21*
X118600000Y-111400000D03*
D22*
X157270000Y-117650000D03*
X154730000Y-117650000D03*
X154730000Y-126150000D03*
X157270000Y-126150000D03*
D17*
X175800000Y-64575000D03*
X175800000Y-66225000D03*
D23*
X165000000Y-66325000D03*
X165000000Y-64675000D03*
X114000000Y-66325000D03*
X114000000Y-64675000D03*
X131000000Y-66325000D03*
X131000000Y-64675000D03*
X63000000Y-66225000D03*
X63000000Y-64575000D03*
X148000000Y-66325000D03*
X148000000Y-64675000D03*
D17*
X141800000Y-64575000D03*
X141800000Y-66225000D03*
X124800000Y-64575000D03*
X124800000Y-66225000D03*
X107800000Y-64575000D03*
X107800000Y-66225000D03*
X73800000Y-64475000D03*
X73800000Y-66125000D03*
D23*
X97000000Y-66325000D03*
X97000000Y-64675000D03*
D17*
X90800000Y-64475000D03*
X90800000Y-66125000D03*
X158800000Y-64575000D03*
X158800000Y-66225000D03*
D23*
X80000000Y-66225000D03*
X80000000Y-64575000D03*
D17*
X56800000Y-64475000D03*
X56800000Y-66125000D03*
D23*
X46000000Y-66225000D03*
X46000000Y-64575000D03*
D22*
X121130000Y-60150000D03*
X123670000Y-60150000D03*
X123670000Y-51650000D03*
X121130000Y-51650000D03*
X172130009Y-60149990D03*
X174670009Y-60149990D03*
X174670009Y-51649990D03*
X172130009Y-51649990D03*
X87130000Y-60050000D03*
X89670000Y-60050000D03*
X89670000Y-51550000D03*
X87130000Y-51550000D03*
X53130000Y-60050000D03*
X55670000Y-60050000D03*
X55670000Y-51550000D03*
X53130000Y-51550000D03*
X104130000Y-60150000D03*
X106670000Y-60150000D03*
X106670000Y-51650000D03*
X104130000Y-51650000D03*
X70130000Y-60050000D03*
X72670000Y-60050000D03*
X72670000Y-51550000D03*
X70130000Y-51550000D03*
X138130000Y-60150000D03*
X140670000Y-60150000D03*
X140670000Y-51650000D03*
X138130000Y-51650000D03*
X155130000Y-60150000D03*
X157670000Y-60150000D03*
X157670000Y-51650000D03*
X155130000Y-51650000D03*
D18*
X163800000Y-79050000D03*
X163800000Y-72150000D03*
D19*
X163800000Y-75600000D03*
D18*
X78800000Y-79050000D03*
X78800000Y-72150000D03*
D19*
X78800000Y-75600000D03*
D18*
X146800000Y-79050000D03*
X146800000Y-72150000D03*
D19*
X146800000Y-75600000D03*
D18*
X112800000Y-79150000D03*
X112800000Y-72250000D03*
D19*
X112800000Y-75700000D03*
D18*
X61800000Y-79050000D03*
X61800000Y-72150000D03*
D19*
X61800000Y-75600000D03*
D18*
X44800000Y-79050000D03*
X44800000Y-72150000D03*
D19*
X44800000Y-75600000D03*
D18*
X129800000Y-79050000D03*
X129800000Y-72150000D03*
D19*
X129800000Y-75600000D03*
D18*
X95800000Y-79050000D03*
X95800000Y-72150000D03*
D19*
X95800000Y-75600000D03*
D14*
X104575000Y-69100000D03*
X103025000Y-69100000D03*
D13*
X114000000Y-67825000D03*
X114000000Y-69375000D03*
X131000000Y-67825000D03*
X131000000Y-69375000D03*
D14*
X53575000Y-69000000D03*
X52025000Y-69000000D03*
D12*
X55200000Y-66875000D03*
X55200000Y-65325000D03*
D13*
X63000000Y-67725000D03*
X63000000Y-69275000D03*
D12*
X89200000Y-66875000D03*
X89200000Y-65325000D03*
D14*
X87575000Y-69000000D03*
X86025000Y-69000000D03*
D12*
X106200000Y-66975000D03*
X106200000Y-65425000D03*
X140200000Y-66975000D03*
X140200000Y-65425000D03*
D14*
X138575000Y-69100000D03*
X137025000Y-69100000D03*
X155575000Y-69100000D03*
X154025000Y-69100000D03*
X121575000Y-69100000D03*
X120025000Y-69100000D03*
D12*
X72200000Y-66875000D03*
X72200000Y-65325000D03*
X157200000Y-66975000D03*
X157200000Y-65425000D03*
D14*
X172575000Y-69100000D03*
X171025000Y-69100000D03*
D13*
X46000000Y-67725000D03*
X46000000Y-69275000D03*
D12*
X174200000Y-66975000D03*
X174200000Y-65425000D03*
D14*
X70575000Y-69000000D03*
X69025000Y-69000000D03*
D13*
X80000000Y-67725000D03*
X80000000Y-69275000D03*
X165000000Y-67825000D03*
X165000000Y-69375000D03*
D12*
X123200000Y-66975000D03*
X123200000Y-65425000D03*
D13*
X148000000Y-67825000D03*
X148000000Y-69375000D03*
X97000000Y-67825000D03*
X97000000Y-69375000D03*
D16*
X66775000Y-61800000D03*
X68425000Y-61800000D03*
X59775000Y-64800000D03*
X61425000Y-64800000D03*
X83775000Y-61800000D03*
X85425000Y-61800000D03*
D15*
X78425000Y-66400000D03*
X76775000Y-66400000D03*
D16*
X76775000Y-64800000D03*
X78425000Y-64800000D03*
X100775000Y-61900000D03*
X102425000Y-61900000D03*
D15*
X95425000Y-66500000D03*
X93775000Y-66500000D03*
X61425000Y-66400000D03*
X59775000Y-66400000D03*
D20*
X166888000Y-63595000D03*
X166888000Y-64865000D03*
X166888000Y-66135000D03*
X166888000Y-67405000D03*
X172312000Y-67405000D03*
X172312000Y-66135000D03*
X172312000Y-64865000D03*
X172312000Y-63595000D03*
D21*
X169600000Y-65500000D03*
D20*
X149888000Y-63595000D03*
X149888000Y-64865000D03*
X149888000Y-66135000D03*
X149888000Y-67405000D03*
X155312000Y-67405000D03*
X155312000Y-66135000D03*
X155312000Y-64865000D03*
X155312000Y-63595000D03*
D21*
X152600000Y-65500000D03*
D20*
X132888000Y-63595000D03*
X132888000Y-64865000D03*
X132888000Y-66135000D03*
X132888000Y-67405000D03*
X138312000Y-67405000D03*
X138312000Y-66135000D03*
X138312000Y-64865000D03*
X138312000Y-63595000D03*
D21*
X135600000Y-65500000D03*
D20*
X98888000Y-63595000D03*
X98888000Y-64865000D03*
X98888000Y-66135000D03*
X98888000Y-67405000D03*
X104312000Y-67405000D03*
X104312000Y-66135000D03*
X104312000Y-64865000D03*
X104312000Y-63595000D03*
D21*
X101600000Y-65500000D03*
D20*
X81888000Y-63495000D03*
X81888000Y-64765000D03*
X81888000Y-66035000D03*
X81888000Y-67305000D03*
X87312000Y-67305000D03*
X87312000Y-66035000D03*
X87312000Y-64765000D03*
X87312000Y-63495000D03*
D21*
X84600000Y-65400000D03*
D20*
X64888000Y-63495000D03*
X64888000Y-64765000D03*
X64888000Y-66035000D03*
X64888000Y-67305000D03*
X70312000Y-67305000D03*
X70312000Y-66035000D03*
X70312000Y-64765000D03*
X70312000Y-63495000D03*
D21*
X67600000Y-65400000D03*
D20*
X115888000Y-63595000D03*
X115888000Y-64865000D03*
X115888000Y-66135000D03*
X115888000Y-67405000D03*
X121312000Y-67405000D03*
X121312000Y-66135000D03*
X121312000Y-64865000D03*
X121312000Y-63595000D03*
D21*
X118600000Y-65500000D03*
D20*
X47888000Y-63494996D03*
X47888000Y-64764996D03*
X47888000Y-66034996D03*
X47888000Y-67304996D03*
X53312000Y-67304996D03*
X53312000Y-66034996D03*
X53312000Y-64764996D03*
X53312000Y-63494996D03*
D21*
X50600000Y-65399996D03*
D16*
X93775000Y-64900000D03*
X95425000Y-64900000D03*
X151775000Y-61900000D03*
X153425000Y-61900000D03*
X144775000Y-64900000D03*
X146425000Y-64900000D03*
X134775000Y-61900000D03*
X136425000Y-61900000D03*
D15*
X112425000Y-66500000D03*
X110775000Y-66500000D03*
D16*
X117775000Y-61900000D03*
X119425000Y-61900000D03*
X110775000Y-64900000D03*
X112425000Y-64900000D03*
X168775000Y-61900000D03*
X170425000Y-61900000D03*
D15*
X146425000Y-66500000D03*
X144775000Y-66500000D03*
X129425000Y-66500000D03*
X127775000Y-66500000D03*
X163425000Y-66500000D03*
X161775000Y-66500000D03*
X44425000Y-66400000D03*
X42775000Y-66400000D03*
D16*
X161775000Y-64900000D03*
X163425000Y-64900000D03*
X42775000Y-64800000D03*
X44425000Y-64800000D03*
X127775000Y-64900000D03*
X129425000Y-64900000D03*
X49775000Y-61800000D03*
X51425000Y-61800000D03*
D17*
X44400000Y-109175000D03*
X44400000Y-110825000D03*
X61400000Y-109175000D03*
X61400000Y-110825000D03*
X78400000Y-109175000D03*
X78400000Y-110825000D03*
D24*
X45775000Y-48900000D03*
X42825000Y-48900000D03*
D25*
X33625000Y-45300000D03*
X36575000Y-45300000D03*
X33625000Y-48900000D03*
X36575000Y-48900000D03*
D24*
X45775000Y-45300000D03*
X42825000Y-45300000D03*
D22*
X55270000Y-117650000D03*
X52730000Y-117650000D03*
X52730000Y-126150000D03*
X55270000Y-126150000D03*
D20*
X64888000Y-109495000D03*
X64888000Y-110765000D03*
X64888000Y-112035000D03*
X64888000Y-113305000D03*
X70312000Y-113305000D03*
X70312000Y-112035000D03*
X70312000Y-110765000D03*
X70312000Y-109495000D03*
D21*
X67600000Y-111400000D03*
D23*
X80000000Y-112325000D03*
X80000000Y-110675000D03*
D26*
X119980000Y-71950000D03*
X118020000Y-71950000D03*
X119000000Y-74050000D03*
D25*
X102940000Y-45220000D03*
X105890000Y-45220000D03*
D27*
X82975000Y-100500000D03*
D28*
X84500000Y-99025000D03*
X84500000Y-101975000D03*
D26*
X136980000Y-71950000D03*
X135020000Y-71950000D03*
X136000000Y-74050000D03*
D25*
X66505000Y-134290000D03*
X69455000Y-134290000D03*
D27*
X65975000Y-100500000D03*
D28*
X67500000Y-99025000D03*
X67500000Y-101975000D03*
D27*
X167475000Y-78500000D03*
D28*
X169000000Y-77025000D03*
X169000000Y-79975000D03*
D27*
X116475000Y-78500000D03*
D28*
X118000000Y-77025000D03*
X118000000Y-79975000D03*
D25*
X120040000Y-45860000D03*
X122990000Y-45860000D03*
D29*
X170050000Y-105980000D03*
X170050000Y-104020000D03*
X167950000Y-105000000D03*
X119050000Y-105980000D03*
X119050000Y-104020000D03*
X116950000Y-105000000D03*
D27*
X48975000Y-100500000D03*
D28*
X50500000Y-99025000D03*
X50500000Y-101975000D03*
D27*
X48475002Y-78499995D03*
D28*
X50000002Y-77024995D03*
X50000002Y-79974995D03*
D29*
X51050000Y-105980000D03*
X51050000Y-104020000D03*
X48950000Y-105000000D03*
D27*
X116975000Y-100500000D03*
D28*
X118500000Y-99025000D03*
X118500000Y-101975000D03*
D30*
X28448000Y-52770500D03*
X28448000Y-49845500D03*
D31*
X141224000Y-24843000D03*
X141224000Y-21893000D03*
D32*
X46465000Y-38600000D03*
X42135000Y-38600000D03*
D27*
X167975000Y-100500000D03*
D28*
X169500000Y-99025000D03*
X169500000Y-101975000D03*
D27*
X133475000Y-78500000D03*
D28*
X135000000Y-77025000D03*
X135000000Y-79975000D03*
D26*
X153980000Y-71950000D03*
X152020000Y-71950000D03*
X153000000Y-74050000D03*
D33*
X166051000Y-25146000D03*
X161101000Y-25146000D03*
X166051000Y-22606000D03*
X161101000Y-22606000D03*
D29*
X85050000Y-105980000D03*
X85050000Y-104020000D03*
X82950000Y-105000000D03*
D33*
X28259000Y-57150000D03*
X33209000Y-57150000D03*
X28259000Y-59690000D03*
X33209000Y-59690000D03*
D29*
X68050000Y-105980000D03*
X68050000Y-104020000D03*
X65950000Y-105000000D03*
D27*
X99475000Y-78500000D03*
D28*
X101000000Y-77025000D03*
X101000000Y-79975000D03*
D34*
X143888000Y-21844000D03*
X146688000Y-21844000D03*
D26*
X51980000Y-72000000D03*
X50020000Y-72000000D03*
X51000000Y-74100000D03*
D25*
X145540000Y-53920000D03*
X148490000Y-53920000D03*
D27*
X150475000Y-78500000D03*
D28*
X152000000Y-77025000D03*
X152000000Y-79975000D03*
D29*
X153050000Y-105980000D03*
X153050000Y-104020000D03*
X150950000Y-105000000D03*
X136050000Y-105980000D03*
X136050000Y-104020000D03*
X133950000Y-105000000D03*
D31*
X149352000Y-24843000D03*
X149352000Y-21893000D03*
D35*
X117240000Y-159640000D03*
X117240000Y-164590000D03*
X114700000Y-159640000D03*
X114700000Y-164590000D03*
D26*
X170980000Y-71950000D03*
X169020000Y-71950000D03*
X170000000Y-74050000D03*
D25*
X179390000Y-133430000D03*
X182340000Y-133430000D03*
D27*
X133975000Y-100500000D03*
D28*
X135500000Y-99025000D03*
X135500000Y-101975000D03*
D25*
X167050000Y-133400000D03*
X170000000Y-133400000D03*
D27*
X99975000Y-100500000D03*
D28*
X101500000Y-99025000D03*
X101500000Y-101975000D03*
D25*
X163100000Y-54275000D03*
X166050000Y-54275000D03*
D27*
X150975000Y-100500000D03*
D28*
X152500000Y-99025000D03*
X152500000Y-101975000D03*
D34*
X143888000Y-25400000D03*
X146688000Y-25400000D03*
D26*
X85980000Y-71950000D03*
X84020000Y-71950000D03*
X85000000Y-74050000D03*
D32*
X36430000Y-39610000D03*
X32100000Y-39610000D03*
D27*
X65475000Y-78500000D03*
D28*
X67000000Y-77025000D03*
X67000000Y-79975000D03*
D25*
X81865000Y-134220000D03*
X84815000Y-134220000D03*
D26*
X102980000Y-71950000D03*
X101020000Y-71950000D03*
X102000000Y-74050000D03*
X68980000Y-71950000D03*
X67020000Y-71950000D03*
X68000000Y-74050000D03*
D27*
X82475000Y-78500000D03*
D28*
X84000000Y-77025000D03*
X84000000Y-79975000D03*
D29*
X102050000Y-105980000D03*
X102050000Y-104020000D03*
X99950000Y-105000000D03*
M02*
