M48
; DRILL file {KiCad (6.0.2)} date Fri Jun 24 14:50:34 2022
; FORMAT={-:-/ absolute / inch / decimal}
; #@! TF.CreationDate,2022-06-24T14:50:34-04:00
; #@! TF.GenerationSoftware,Kicad,Pcbnew,(6.0.2)
; #@! TF.FileFunction,Plated,1,6,PTH
FMAT,2
INCH
; #@! TA.AperFunction,Plated,PTH,ViaDrill
T1C0.0100
; #@! TA.AperFunction,Plated,PTH,ComponentDrill
T2C0.0118
; #@! TA.AperFunction,Plated,PTH,ViaDrill
T3C0.0157
; #@! TA.AperFunction,Plated,PTH,ComponentDrill
T4C0.0339
; #@! TA.AperFunction,Plated,PTH,ComponentDrill
T5C0.0512
; #@! TA.AperFunction,Plated,PTH,ComponentDrill
T6C0.1114
; #@! TA.AperFunction,Plated,PTH,ViaDrill
T7C0.1693
; #@! TA.AperFunction,Plated,PTH,ViaDrill
T8C0.1693
%
G90
G05
T1
X0.8701Y-1.3583
X0.8701Y-1.9488
X0.8701Y-2.5394
X0.8701Y-3.1299
X0.9291Y-5.8858
X0.9291Y-6.0827
X0.9291Y-6.2795
X0.9685Y-3.3268
X0.9685Y-3.5236
X0.9685Y-3.7205
X0.9685Y-3.9173
X0.9685Y-4.1142
X0.9685Y-4.311
X0.9685Y-4.5079
X0.9685Y-4.7047
X0.9685Y-4.9016
X0.9685Y-5.0984
X0.9685Y-5.2953
X0.9685Y-5.4921
X0.9685Y-5.689
X1.0062Y-5.7628
X1.0062Y-5.7878
X1.0062Y-5.8328
X1.0062Y-5.8578
X1.0062Y-5.9028
X1.0062Y-5.9278
X1.0062Y-5.9728
X1.0062Y-5.9978
X1.0062Y-6.0428
X1.0062Y-6.0678
X1.0062Y-6.1128
X1.0062Y-6.1378
X1.0062Y-6.1828
X1.0062Y-6.2078
X1.0062Y-6.2528
X1.0062Y-6.2778
X1.0669Y-3.1693
X1.0815Y-6.3008
X1.2638Y-3.1693
X1.2638Y-6.3189
X1.3622Y-5.689
X1.4606Y-0.7677
X1.4606Y-3.1693
X1.4606Y-6.3189
X1.4606Y-6.6339
X1.4996Y-1.8701
X1.5Y-1.752
X1.5Y-1.9882
X1.5787Y-6.4173
X1.5984Y-2.3425
X1.5984Y-2.5394
X1.5984Y-2.7362
X1.5984Y-2.9331
X1.5984Y-3.1299
X1.6181Y-1.752
X1.6181Y-1.8701
X1.6181Y-1.9882
X1.6969Y-2.2047
X1.7559Y-4.8031
X1.7559Y-5.0
X1.8937Y-2.126
X1.9528Y-4.8031
X1.9528Y-5.1969
X2.0157Y-3.2083
X2.0315Y-1.9488
X2.0512Y-6.6339
X2.0539Y-0.7598
X2.085Y-6.185
X2.0906Y-3.8189
X2.1496Y-5.1969
X2.189Y-1.7913
X2.2087Y-3.2087
X2.2677Y-3.8189
X2.4055Y-5.1969
X2.4252Y-3.8189
X2.4567Y-1.6496
X2.4606Y-3.2087
X2.5039Y-1.7323
X2.525Y-5.44
X2.5433Y-1.5157
X2.5462Y-5.5228
X2.5712Y-5.5228
X2.6024Y-1.8701
X2.6024Y-5.1969
X2.6162Y-5.5228
X2.6412Y-5.5228
X2.6417Y-6.6339
X2.6449Y-0.7661
X2.6614Y-3.248
X2.6811Y-1.378
X2.6862Y-5.5228
X2.7008Y-1.7323
X2.7112Y-5.5228
X2.7402Y-3.7992
X2.7562Y-5.5228
X2.7812Y-5.5228
X2.7992Y-5.1969
X2.8262Y-5.5228
X2.8386Y-1.2205
X2.8512Y-5.5228
X2.8583Y-3.248
X2.8962Y-5.5228
X2.8976Y-1.7323
X2.91Y-1.285
X2.9212Y-5.5228
X2.9662Y-5.5228
X2.9912Y-5.5228
X3.0354Y-1.2205
X3.0362Y-5.5228
X3.0551Y-3.7992
X3.0612Y-5.5228
X3.0866Y-1.689
X3.1004Y-3.248
X3.1142Y-5.6102
X3.1142Y-5.8661
X3.1571Y-5.3945
X3.1732Y-1.752
X3.1732Y-5.1575
X3.2323Y-0.7677
X3.2323Y-1.2205
X3.2323Y-5.7283
X3.2323Y-6.063
X3.2323Y-6.6339
X3.2717Y-1.8898
X3.3504Y-3.2087
X3.3701Y-1.752
X3.3701Y-5.1575
X3.3898Y-6.2205
X3.4291Y-1.2205
X3.4291Y-5.8858
X3.4685Y-3.7402
X3.4882Y-3.2874
X3.4882Y-6.3976
X3.54Y-1.33
X3.5669Y-1.752
X3.5669Y-5.3543
X3.626Y-1.2205
X3.626Y-5.8858
X3.645Y-5.76
X3.6654Y-3.7402
X3.7205Y-1.7244
X3.75Y-3.2874
X3.7638Y-3.8189
X3.7835Y-5.3504
X3.8031Y-5.1378
X3.8228Y-0.7677
X3.8228Y-1.2205
X3.8228Y-1.752
X3.8228Y-5.8858
X3.8228Y-6.6339
X3.9193Y-5.5319
X3.9213Y-5.7283
X3.9626Y-1.3496
X4.0Y-5.2362
X4.0197Y-1.2205
X4.0197Y-3.2087
X4.0197Y-5.8858
X4.098Y-1.8476
X4.0984Y-3.7008
X4.1181Y-3.3268
X4.1181Y-5.7283
X4.175Y-1.365
X4.1969Y-5.2362
X4.2165Y-1.2205
X4.2165Y-5.8858
X4.2406Y-1.7476
X4.28Y-5.72
X4.2953Y-3.7008
X4.3504Y-1.7677
X4.3898Y-3.3268
X4.413Y-5.8862
X4.4134Y-0.7677
X4.4134Y-1.2205
X4.4134Y-6.6339
X4.4213Y-5.315
X4.4331Y-1.7913
X4.4331Y-3.8189
X4.4921Y-5.1378
X4.5268Y-1.8783
X4.5512Y-3.3661
X4.5709Y-5.5315
X4.5709Y-5.689
X4.6079Y-5.8862
X4.6102Y-1.2205
X4.689Y-3.2087
X4.689Y-5.2362
X4.7283Y-3.6614
X4.748Y-3.3661
X4.7677Y-3.8189
X4.7677Y-5.689
X4.8Y-1.405
X4.8071Y-1.2205
X4.8087Y-5.8874
X4.8858Y-5.2362
X4.9Y-5.675
X4.9252Y-3.6614
X4.9295Y-1.7677
X4.9843Y-1.8031
X4.9902Y-3.3661
X5.0039Y-0.7677
X5.0039Y-1.2205
X5.0039Y-5.8858
X5.0039Y-6.6339
X5.0591Y-5.2835
X5.0827Y-1.811
X5.0827Y-3.8189
X5.1417Y-5.2165
X5.1476Y-3.2087
X5.2008Y-1.2205
X5.2008Y-5.8858
X5.2213Y-5.5303
X5.2795Y-1.4173
X5.3386Y-5.2165
X5.3583Y-3.2087
X5.3583Y-3.4055
X5.3583Y-3.622
X5.3976Y-1.2205
X5.3976Y-5.6496
X5.3976Y-5.8858
X5.43Y-1.445
X5.4764Y-1.8307
X5.535Y-5.635
X5.5354Y-5.2165
X5.5551Y-3.2087
X5.5551Y-3.622
X5.5551Y-3.8189
X5.5925Y-5.8874
X5.5945Y-0.7677
X5.5945Y-1.2205
X5.5945Y-6.6339
X5.6102Y-1.8465
X5.6102Y-3.4055
X5.6142Y-6.3976
X5.6732Y-6.2402
X5.6811Y-5.2362
X5.752Y-3.8189
X5.7913Y-1.2205
X5.7913Y-5.2165
X5.7913Y-5.8858
X5.8071Y-3.2087
X5.8307Y-6.122
X5.8898Y-3.4449
X5.8898Y-3.5827
X5.9094Y-5.9646
X5.9291Y-1.4567
X5.9812Y-5.5178
X5.9882Y-1.2205
X5.9882Y-5.2165
X6.0062Y-5.5178
X6.0079Y-3.2677
X6.0512Y-5.5178
X6.065Y-1.485
X6.0669Y-3.7402
X6.0762Y-5.5178
X6.0976Y-1.8657
X6.1212Y-5.5178
X6.1462Y-5.5178
X6.185Y-0.7677
X6.185Y-1.2205
X6.185Y-3.5827
X6.185Y-5.2165
X6.185Y-6.6339
X6.1912Y-5.5178
X6.2162Y-5.5178
X6.2402Y-1.8819
X6.2612Y-5.5928
X6.2862Y-5.5928
X6.2992Y-3.4449
X6.315Y-5.2008
X6.3312Y-5.5928
X6.3425Y-3.7402
X6.3562Y-5.5928
X6.3819Y-1.2205
X6.4012Y-5.5928
X6.4213Y-5.1772
X6.4262Y-5.5928
X6.4712Y-5.5928
X6.4862Y-3.2677
X6.4962Y-5.5928
X6.5394Y-5.6299
X6.5394Y-5.8071
X6.5787Y-1.2205
X6.5787Y-1.5157
X6.5787Y-3.4449
X6.5787Y-3.6024
X6.6378Y-5.1181
X6.6976Y-1.5201
X6.7362Y-3.2677
X6.7559Y-3.7205
X6.7756Y-0.7677
X6.7756Y-1.2205
X6.7756Y-6.6339
X6.7961Y-1.8913
X6.8102Y-5.5276
X6.9134Y-5.1378
X6.9138Y-5.3358
X6.9724Y-1.2205
X7.0Y-6.205
X7.0118Y-5.748
X7.0315Y-2.9331
X7.0315Y-3.1299
X7.0315Y-3.7205
X7.0315Y-3.9173
X7.1102Y-5.1378
X7.1102Y-5.3346
X7.1693Y-1.2205
X7.2299Y-1.5409
X7.3661Y-0.7677
X7.3661Y-1.2205
X7.3661Y-6.6339
X7.4055Y-3.1299
X7.4055Y-3.3268
X7.4055Y-3.5236
X7.4055Y-3.7205
X7.4055Y-3.9173
X7.4055Y-4.1142
X7.4075Y-2.9331
X7.4244Y-1.5811
X7.4382Y-2.8
X7.4843Y-6.3189
X7.6024Y-6.1614
X7.6614Y-1.2402
X7.7598Y-6.0827
X7.7992Y-1.3583
X7.7992Y-1.5551
X7.7992Y-1.752
X7.7992Y-1.9488
X7.7992Y-2.1457
X7.7992Y-2.3425
X7.7992Y-2.5394
X7.7992Y-2.7362
X7.7992Y-2.9331
X7.7992Y-3.1299
X7.7992Y-3.3268
X7.7992Y-3.5236
X7.7992Y-3.7205
X7.7992Y-3.9173
X7.7992Y-4.1142
X7.7992Y-4.311
X7.7992Y-4.5079
X7.7992Y-4.7047
X7.7992Y-4.9016
X7.7992Y-5.0984
X7.7992Y-5.2953
X7.9262Y-5.5178
X7.9262Y-5.5428
X7.9262Y-5.5878
X7.9262Y-5.6128
X7.9262Y-5.6578
X7.9262Y-5.6828
X7.9262Y-5.7278
X7.9262Y-5.7528
X7.9262Y-5.7978
X7.9262Y-5.8228
X7.9262Y-5.8678
X7.9262Y-5.8928
X7.9262Y-5.9378
X7.9262Y-5.9628
X7.9262Y-6.0078
X7.9262Y-6.0328
X7.9567Y-0.7677
X7.9567Y-6.6339
X7.9961Y-5.4921
X7.9961Y-5.689
X7.9961Y-5.8858
X7.9961Y-6.0827
X8.2323Y-1.0433
X8.2323Y-1.6339
X8.2323Y-2.2244
X8.2323Y-2.815
X8.2323Y-3.4055
X8.2323Y-3.9961
X8.2323Y-4.5866
X8.2323Y-5.1772
X8.2323Y-5.7677
X8.2323Y-6.3583
T2
X1.9685Y-2.5512
X1.9685Y-2.5984
X1.9685Y-4.3622
X1.9685Y-4.4094
X1.9921Y-2.5276
X1.9921Y-2.5748
X1.9921Y-2.622
X1.9921Y-4.3386
X1.9921Y-4.3858
X1.9921Y-4.4331
X2.0157Y-2.5512
X2.0157Y-2.5984
X2.0157Y-4.3622
X2.0157Y-4.4094
X2.4528Y-2.2126
X2.4528Y-2.2598
X2.4528Y-4.7756
X2.4528Y-4.8228
X2.4764Y-2.189
X2.4764Y-2.2362
X2.4764Y-2.2835
X2.4764Y-4.752
X2.4764Y-4.7992
X2.4764Y-4.8465
X2.5Y-2.2126
X2.5Y-2.2598
X2.5Y-4.7756
X2.5Y-4.8228
X2.6378Y-2.5512
X2.6378Y-2.5984
X2.6378Y-4.3622
X2.6378Y-4.4094
X2.6614Y-2.5276
X2.6614Y-2.5748
X2.6614Y-2.622
X2.6614Y-4.3386
X2.6614Y-4.3858
X2.6614Y-4.4331
X2.685Y-2.5512
X2.685Y-2.5984
X2.685Y-4.3622
X2.685Y-4.4094
X3.122Y-2.2126
X3.122Y-2.2598
X3.122Y-4.7756
X3.122Y-4.8228
X3.1457Y-2.189
X3.1457Y-2.2362
X3.1457Y-2.2835
X3.1457Y-4.752
X3.1457Y-4.7992
X3.1457Y-4.8465
X3.1693Y-2.2126
X3.1693Y-2.2598
X3.1693Y-4.7756
X3.1693Y-4.8228
X3.3071Y-2.5512
X3.3071Y-2.5984
X3.3071Y-4.3622
X3.3071Y-4.4094
X3.3307Y-2.5276
X3.3307Y-2.5748
X3.3307Y-2.622
X3.3307Y-4.3386
X3.3307Y-4.3858
X3.3307Y-4.4331
X3.3543Y-2.5512
X3.3543Y-2.5984
X3.3543Y-4.3622
X3.3543Y-4.4094
X3.7913Y-2.2126
X3.7913Y-2.2598
X3.7913Y-4.7756
X3.7913Y-4.8228
X3.815Y-2.189
X3.815Y-2.2362
X3.815Y-2.2835
X3.815Y-4.752
X3.815Y-4.7992
X3.815Y-4.8465
X3.8386Y-2.2126
X3.8386Y-2.2598
X3.8386Y-4.7756
X3.8386Y-4.8228
X3.9764Y-2.5551
X3.9764Y-2.6024
X3.9764Y-4.3622
X3.9764Y-4.4094
X4.0Y-2.5315
X4.0Y-2.5787
X4.0Y-2.626
X4.0Y-4.3386
X4.0Y-4.3858
X4.0Y-4.4331
X4.0236Y-2.5551
X4.0236Y-2.6024
X4.0236Y-4.3622
X4.0236Y-4.4094
X4.4606Y-2.2126
X4.4606Y-2.2598
X4.4606Y-4.7756
X4.4606Y-4.8228
X4.4843Y-2.189
X4.4843Y-2.2362
X4.4843Y-2.2835
X4.4843Y-4.752
X4.4843Y-4.7992
X4.4843Y-4.8465
X4.5079Y-2.2126
X4.5079Y-2.2598
X4.5079Y-4.7756
X4.5079Y-4.8228
X4.6457Y-2.5551
X4.6457Y-2.6024
X4.6457Y-4.3622
X4.6457Y-4.4094
X4.6693Y-2.5315
X4.6693Y-2.5787
X4.6693Y-2.626
X4.6693Y-4.3386
X4.6693Y-4.3858
X4.6693Y-4.4331
X4.6929Y-2.5551
X4.6929Y-2.6024
X4.6929Y-4.3622
X4.6929Y-4.4094
X5.1299Y-2.2126
X5.1299Y-2.2598
X5.1299Y-4.7756
X5.1299Y-4.8228
X5.1535Y-2.189
X5.1535Y-2.2362
X5.1535Y-2.2835
X5.1535Y-4.752
X5.1535Y-4.7992
X5.1535Y-4.8465
X5.1772Y-2.2126
X5.1772Y-2.2598
X5.1772Y-4.7756
X5.1772Y-4.8228
X5.315Y-2.5551
X5.315Y-2.6024
X5.315Y-4.3622
X5.315Y-4.4094
X5.3386Y-2.5315
X5.3386Y-2.5787
X5.3386Y-2.626
X5.3386Y-4.3386
X5.3386Y-4.3858
X5.3386Y-4.4331
X5.3622Y-2.5551
X5.3622Y-2.6024
X5.3622Y-4.3622
X5.3622Y-4.4094
X5.7992Y-2.2126
X5.7992Y-2.2598
X5.7992Y-4.7756
X5.7992Y-4.8228
X5.8228Y-2.189
X5.8228Y-2.2362
X5.8228Y-2.2835
X5.8228Y-4.752
X5.8228Y-4.7992
X5.8228Y-4.8465
X5.8465Y-2.2126
X5.8465Y-2.2598
X5.8465Y-4.7756
X5.8465Y-4.8228
X5.9843Y-2.5551
X5.9843Y-2.6024
X5.9843Y-4.3622
X5.9843Y-4.4094
X6.0079Y-2.5315
X6.0079Y-2.5787
X6.0079Y-2.626
X6.0079Y-4.3386
X6.0079Y-4.3858
X6.0079Y-4.4331
X6.0315Y-2.5551
X6.0315Y-2.6024
X6.0315Y-4.3622
X6.0315Y-4.4094
X6.4685Y-2.2126
X6.4685Y-2.2598
X6.4685Y-4.7756
X6.4685Y-4.8228
X6.4921Y-2.189
X6.4921Y-2.2362
X6.4921Y-2.2835
X6.4921Y-4.752
X6.4921Y-4.7992
X6.4921Y-4.8465
X6.5157Y-2.2126
X6.5157Y-2.2598
X6.5157Y-4.7756
X6.5157Y-4.8228
X6.6535Y-4.3622
X6.6535Y-4.4094
X6.6535Y-2.5551
X6.6535Y-2.6024
X6.6772Y-4.3386
X6.6772Y-4.3858
X6.6772Y-4.4331
X6.6772Y-2.5315
X6.6772Y-2.5787
X6.6772Y-2.626
X6.7008Y-4.3622
X6.7008Y-4.4094
X6.7008Y-2.5551
X6.7008Y-2.6024
X7.1378Y-2.2126
X7.1378Y-2.2598
X7.1378Y-4.7756
X7.1378Y-4.8228
X7.1614Y-2.189
X7.1614Y-2.2362
X7.1614Y-2.2835
X7.1614Y-4.752
X7.1614Y-4.7992
X7.1614Y-4.8465
X7.185Y-2.2126
X7.185Y-2.2598
X7.185Y-4.7756
X7.185Y-4.8228
T3
X1.8898Y-2.8346
X2.063Y-4.0945
X2.0669Y-4.1732
X2.1689Y-4.3433
X2.1732Y-2.5069
X2.347Y-2.3892
X2.4016Y-4.5866
X2.528Y-5.2504
X2.5583Y-2.8346
X2.5636Y-2.4384
X2.6575Y-2.2835
X2.6575Y-4.8465
X2.7303Y-4.0945
X2.7362Y-4.1732
X2.8232Y-1.0417
X2.84Y-4.3411
X2.8425Y-2.5069
X3.0163Y-2.3892
X3.0693Y-4.5825
X3.1398Y-5.1925
X3.2276Y-2.8346
X3.2329Y-2.4384
X3.3268Y-2.2835
X3.3268Y-4.8465
X3.4006Y-4.0955
X3.4055Y-4.1732
X3.511Y-4.3417
X3.5118Y-2.5069
X3.6856Y-2.3892
X3.7386Y-4.5923
X3.8969Y-2.8346
X3.9022Y-2.4384
X3.9374Y-1.8114
X3.9961Y-2.2835
X3.9961Y-4.8465
X4.0748Y-4.0945
X4.0748Y-4.1732
X4.1811Y-2.5108
X4.1811Y-4.3386
X4.2839Y-1.0417
X4.3648Y-2.3892
X4.4079Y-4.5923
X4.5661Y-2.8346
X4.5813Y-2.4384
X4.663Y-1.8047
X4.6654Y-2.2835
X4.6654Y-4.8465
X4.7441Y-4.0945
X4.7441Y-4.1732
X4.8496Y-4.3382
X4.8504Y-2.5108
X5.0242Y-2.3892
X5.0772Y-4.5923
X5.2354Y-2.8346
X5.2407Y-2.4384
X5.3346Y-2.2835
X5.3346Y-4.8465
X5.4134Y-4.0945
X5.4134Y-4.1732
X5.5193Y-4.3378
X5.5197Y-2.5108
X5.6935Y-2.3892
X5.7303Y-2.0425
X5.7465Y-4.5923
X5.9047Y-2.8346
X5.91Y-2.4384
X6.0039Y-2.2835
X6.0039Y-4.8465
X6.0827Y-4.0945
X6.0827Y-4.1732
X6.189Y-2.5108
X6.189Y-4.3386
X6.3681Y-2.3917
X6.4114Y-2.0654
X6.4157Y-4.5923
X6.5724Y-5.1713
X6.574Y-2.8346
X6.5846Y-2.4409
X6.6732Y-2.2835
X6.6732Y-4.8465
X6.752Y-4.0945
X6.752Y-4.1732
X6.8563Y-4.3409
X6.8583Y-2.5108
X7.0193Y-5.1602
X7.0321Y-2.3892
X7.085Y-4.5923
X7.2486Y-2.4384
X7.3425Y-2.2835
X7.3425Y-4.8465
T4
X1.7341Y-6.3228
X1.7341Y-6.4724
X1.7841Y-6.3976
X1.7841Y-6.5472
X1.8341Y-6.3228
X1.8341Y-6.4724
X1.8841Y-6.3976
X1.8841Y-6.5472
X1.9341Y-6.3228
X1.9341Y-6.4724
X1.9841Y-6.3976
X1.9841Y-6.5472
X2.0341Y-6.3228
X2.0341Y-6.4724
X2.0841Y-6.3976
X2.0841Y-6.5472
X2.1341Y-6.3228
X2.1341Y-6.4724
X2.1841Y-6.3976
X2.1841Y-6.5472
X2.2341Y-6.3228
X2.2341Y-6.4724
X2.2841Y-6.3976
X2.2841Y-6.5472
X2.3341Y-6.3228
X2.3341Y-6.4724
X2.3841Y-6.3976
X2.3841Y-6.5472
X2.4341Y-6.3228
X2.4341Y-6.4724
X2.4841Y-6.3976
X2.4841Y-6.5472
X2.5341Y-6.3228
X2.5341Y-6.4724
X2.5841Y-6.3976
X2.5841Y-6.5472
X2.6341Y-6.3228
X2.6341Y-6.4724
X2.6841Y-6.3976
X2.6841Y-6.5472
X2.7341Y-6.3228
X2.7341Y-6.4724
X2.7841Y-6.3976
X2.7841Y-6.5472
X2.8341Y-6.3228
X2.8341Y-6.4724
X2.8841Y-6.3976
X2.8841Y-6.5472
X2.9341Y-6.3228
X2.9341Y-6.4724
X2.9841Y-6.3976
X2.9841Y-6.5472
X3.0341Y-6.3228
X3.0341Y-6.4724
X3.0841Y-6.3976
X3.0841Y-6.5472
X3.1341Y-6.3228
X3.1341Y-6.4724
X3.1841Y-6.3976
X3.1841Y-6.5472
X3.2341Y-6.3228
X3.2341Y-6.4724
X3.2841Y-6.3976
X3.2841Y-6.5472
X3.3341Y-6.3228
X3.3341Y-6.4724
X3.3841Y-6.3976
X3.3841Y-6.5472
X5.7104Y-6.3228
X5.7104Y-6.4724
X5.7604Y-6.3976
X5.7604Y-6.5472
X5.8104Y-6.3228
X5.8104Y-6.4724
X5.8604Y-6.3976
X5.8604Y-6.5472
X5.9104Y-6.3228
X5.9104Y-6.4724
X5.9604Y-6.3976
X5.9604Y-6.5472
X6.0104Y-6.3228
X6.0104Y-6.4724
X6.0604Y-6.3976
X6.0604Y-6.5472
X6.1104Y-6.3228
X6.1104Y-6.4724
X6.1604Y-6.3976
X6.1604Y-6.5472
X6.2104Y-6.3228
X6.2104Y-6.4724
X6.2604Y-6.3976
X6.2604Y-6.5472
X6.3104Y-6.3228
X6.3104Y-6.4724
X6.3604Y-6.3976
X6.3604Y-6.5472
X6.4104Y-6.3228
X6.4104Y-6.4724
X6.4604Y-6.3976
X6.4604Y-6.5472
X6.5104Y-6.3228
X6.5104Y-6.4724
X6.5604Y-6.3976
X6.5604Y-6.5472
X6.6104Y-6.3228
X6.6104Y-6.4724
X6.6604Y-6.3976
X6.6604Y-6.5472
X6.7104Y-6.3228
X6.7104Y-6.4724
X6.7604Y-6.3976
X6.7604Y-6.5472
X6.8104Y-6.3228
X6.8104Y-6.4724
X6.8604Y-6.3976
X6.8604Y-6.5472
X6.9104Y-6.3228
X6.9104Y-6.4724
X6.9604Y-6.3976
X6.9604Y-6.5472
X7.0104Y-6.3228
X7.0104Y-6.4724
X7.0604Y-6.3976
X7.0604Y-6.5472
X7.1104Y-6.3228
X7.1104Y-6.4724
X7.1604Y-6.3976
X7.1604Y-6.5472
X7.2104Y-6.3228
X7.2104Y-6.4724
X7.2604Y-6.3976
X7.2604Y-6.5472
X7.3104Y-6.3228
X7.3104Y-6.4724
X7.3604Y-6.3976
X7.3604Y-6.5472
T5
X1.5587Y-1.1319
X1.7555Y-1.1319
X1.9524Y-1.1319
T6
X1.4191Y-6.4724
X3.699Y-6.4724
X5.3955Y-6.4724
X7.6754Y-6.4724
T7
X1.0374Y-0.9429
X8.0374Y-0.9429
T8
X1.0374Y-6.4429
X8.0374Y-6.4429
T0
M30
