G04 #@! TF.GenerationSoftware,KiCad,Pcbnew,(6.0.2)*
G04 #@! TF.CreationDate,2022-06-24T14:50:25-04:00*
G04 #@! TF.ProjectId,ARTIQAmp,41525449-5141-46d7-902e-6b696361645f,rev?*
G04 #@! TF.SameCoordinates,Original*
G04 #@! TF.FileFunction,Soldermask,Bot*
G04 #@! TF.FilePolarity,Negative*
%FSLAX46Y46*%
G04 Gerber Fmt 4.6, Leading zero omitted, Abs format (unit mm)*
G04 Created by KiCad (PCBNEW (6.0.2)) date 2022-06-24 14:50:25*
%MOMM*%
%LPD*%
G01*
G04 APERTURE LIST*
G04 Aperture macros list*
%AMRoundRect*
0 Rectangle with rounded corners*
0 $1 Rounding radius*
0 $2 $3 $4 $5 $6 $7 $8 $9 X,Y pos of 4 corners*
0 Add a 4 corners polygon primitive as box body*
4,1,4,$2,$3,$4,$5,$6,$7,$8,$9,$2,$3,0*
0 Add four circle primitives for the rounded corners*
1,1,$1+$1,$2,$3*
1,1,$1+$1,$4,$5*
1,1,$1+$1,$6,$7*
1,1,$1+$1,$8,$9*
0 Add four rect primitives between the rounded corners*
20,1,$1+$1,$2,$3,$4,$5,0*
20,1,$1+$1,$4,$5,$6,$7,0*
20,1,$1+$1,$6,$7,$8,$9,0*
20,1,$1+$1,$8,$9,$2,$3,0*%
G04 Aperture macros list end*
%ADD10C,0.600000*%
%ADD11R,1.526000X0.650000*%
%ADD12R,2.260000X5.000000*%
%ADD13R,1.050000X1.000000*%
%ADD14R,2.200000X1.050000*%
%ADD15R,2.600000X2.600000*%
%ADD16C,2.600000*%
%ADD17C,1.360000*%
%ADD18C,4.100000*%
%ADD19RoundRect,0.218750X-0.256250X0.218750X-0.256250X-0.218750X0.256250X-0.218750X0.256250X0.218750X0*%
%ADD20R,1.200000X2.000000*%
%ADD21RoundRect,0.218750X-0.218750X-0.256250X0.218750X-0.256250X0.218750X0.256250X-0.218750X0.256250X0*%
%ADD22RoundRect,0.218750X0.218750X0.256250X-0.218750X0.256250X-0.218750X-0.256250X0.218750X-0.256250X0*%
%ADD23RoundRect,0.218750X0.256250X-0.218750X0.256250X0.218750X-0.256250X0.218750X-0.256250X-0.218750X0*%
%ADD24R,1.600000X2.000000*%
%ADD25R,2.600000X2.000000*%
%ADD26R,0.850000X1.000000*%
G04 APERTURE END LIST*
D10*
X84600000Y-112600000D03*
X84600000Y-110200000D03*
X84000000Y-110800000D03*
X85200000Y-110800000D03*
X84600000Y-111400000D03*
X85200000Y-112000000D03*
X84000000Y-112000000D03*
X101600000Y-112600000D03*
X101600000Y-110200000D03*
X101000000Y-110800000D03*
X102200000Y-110800000D03*
X101600000Y-111400000D03*
X102200000Y-112000000D03*
X101000000Y-112000000D03*
X135600000Y-112600000D03*
X135600000Y-110200000D03*
X135000000Y-110800000D03*
X136200000Y-110800000D03*
X135600000Y-111400000D03*
X136200000Y-112000000D03*
X135000000Y-112000000D03*
X152600000Y-112600000D03*
X152600000Y-110200000D03*
X152000000Y-110800000D03*
X153200000Y-110800000D03*
X152600000Y-111400000D03*
X153200000Y-112000000D03*
X152000000Y-112000000D03*
X169599991Y-112600006D03*
X169599991Y-110200006D03*
X168999991Y-110800006D03*
X170199991Y-110800006D03*
X169599991Y-111400006D03*
X170199991Y-112000006D03*
X168999991Y-112000006D03*
X50600000Y-112600000D03*
X50600000Y-110200000D03*
X50000000Y-110800000D03*
X51200000Y-110800000D03*
X50600000Y-111400000D03*
X51200000Y-112000000D03*
X50000000Y-112000000D03*
X118600000Y-112600000D03*
X118600000Y-110200000D03*
X118000000Y-110800000D03*
X119200000Y-110800000D03*
X118600000Y-111400000D03*
X119200000Y-112000000D03*
X118000000Y-112000000D03*
X169600000Y-66700000D03*
X169600000Y-64300000D03*
X169000000Y-64900000D03*
X170200000Y-64900000D03*
X169600000Y-65500000D03*
X170200000Y-66100000D03*
X169000000Y-66100000D03*
X152600000Y-66700000D03*
X152600000Y-64300000D03*
X152000000Y-64900000D03*
X153200000Y-64900000D03*
X152600000Y-65500000D03*
X153200000Y-66100000D03*
X152000000Y-66100000D03*
X135600000Y-66700000D03*
X135600000Y-64300000D03*
X135000000Y-64900000D03*
X136200000Y-64900000D03*
X135600000Y-65500000D03*
X136200000Y-66100000D03*
X135000000Y-66100000D03*
X101600000Y-66700000D03*
X101600000Y-64300000D03*
X101000000Y-64900000D03*
X102200000Y-64900000D03*
X101600000Y-65500000D03*
X102200000Y-66100000D03*
X101000000Y-66100000D03*
X84600000Y-66600000D03*
X84600000Y-64200000D03*
X84000000Y-64800000D03*
X85200000Y-64800000D03*
X84600000Y-65400000D03*
X85200000Y-66000000D03*
X84000000Y-66000000D03*
X67600000Y-66600000D03*
X67600000Y-64200000D03*
X67000000Y-64800000D03*
X68200000Y-64800000D03*
X67600000Y-65400000D03*
X68200000Y-66000000D03*
X67000000Y-66000000D03*
X118600000Y-66700000D03*
X118600000Y-64300000D03*
X118000000Y-64900000D03*
X119200000Y-64900000D03*
X118600000Y-65500000D03*
X119200000Y-66100000D03*
X118000000Y-66100000D03*
X50600000Y-66599996D03*
X50600000Y-64199996D03*
X50000000Y-64799996D03*
X51200000Y-64799996D03*
X50600000Y-65399996D03*
X51200000Y-65999996D03*
X50000000Y-65999996D03*
X67600000Y-112600000D03*
X67600000Y-110200000D03*
X67000000Y-110800000D03*
X68200000Y-110800000D03*
X67600000Y-111400000D03*
X68200000Y-112000000D03*
X67000000Y-112000000D03*
D11*
X60188000Y-58705000D03*
X60188000Y-57435000D03*
X60188000Y-56165000D03*
X60188000Y-54895000D03*
X65612000Y-54895000D03*
X65612000Y-56165000D03*
X65612000Y-57435000D03*
X65612000Y-58705000D03*
D10*
X62900000Y-55600000D03*
X62900000Y-58000000D03*
X62300000Y-57400000D03*
D12*
X62900000Y-56800000D03*
D10*
X63500000Y-57400000D03*
X62900000Y-56800000D03*
X63500000Y-56200000D03*
X62300000Y-56200000D03*
D11*
X162188000Y-58705000D03*
X162188000Y-57435000D03*
X162188000Y-56165000D03*
X162188000Y-54895000D03*
X167612000Y-54895000D03*
X167612000Y-56165000D03*
X167612000Y-57435000D03*
X167612000Y-58705000D03*
D10*
X164900000Y-55600000D03*
X164900000Y-58000000D03*
X164300000Y-57400000D03*
D12*
X164900000Y-56800000D03*
D10*
X165500000Y-57400000D03*
X164900000Y-56800000D03*
X165500000Y-56200000D03*
X164300000Y-56200000D03*
D11*
X94188000Y-58705000D03*
X94188000Y-57435000D03*
X94188000Y-56165000D03*
X94188000Y-54895000D03*
X99612000Y-54895000D03*
X99612000Y-56165000D03*
X99612000Y-57435000D03*
X99612000Y-58705000D03*
D10*
X96900000Y-55600000D03*
X96900000Y-58000000D03*
X96300000Y-57400000D03*
D12*
X96900000Y-56800000D03*
D10*
X97500000Y-57400000D03*
X96900000Y-56800000D03*
X97500000Y-56200000D03*
X96300000Y-56200000D03*
D11*
X145188000Y-58705000D03*
X145188000Y-57435000D03*
X145188000Y-56165000D03*
X145188000Y-54895000D03*
X150612000Y-54895000D03*
X150612000Y-56165000D03*
X150612000Y-57435000D03*
X150612000Y-58705000D03*
D10*
X147900000Y-55600000D03*
X147900000Y-58000000D03*
X147300000Y-57400000D03*
D12*
X147900000Y-56800000D03*
D10*
X148500000Y-57400000D03*
X147900000Y-56800000D03*
X148500000Y-56200000D03*
X147300000Y-56200000D03*
D11*
X77188000Y-58705000D03*
X77188000Y-57435000D03*
X77188000Y-56165000D03*
X77188000Y-54895000D03*
X82612000Y-54895000D03*
X82612000Y-56165000D03*
X82612000Y-57435000D03*
X82612000Y-58705000D03*
D10*
X79900000Y-55600000D03*
X79900000Y-58000000D03*
X79300000Y-57400000D03*
D12*
X79900000Y-56800000D03*
D10*
X80500000Y-57400000D03*
X79900000Y-56800000D03*
X80500000Y-56200000D03*
X79300000Y-56200000D03*
D11*
X128188000Y-58705000D03*
X128188000Y-57435000D03*
X128188000Y-56165000D03*
X128188000Y-54895000D03*
X133612000Y-54895000D03*
X133612000Y-56165000D03*
X133612000Y-57435000D03*
X133612000Y-58705000D03*
D10*
X130900000Y-55600000D03*
X130900000Y-58000000D03*
X130300000Y-57400000D03*
D12*
X130900000Y-56800000D03*
D10*
X131500000Y-57400000D03*
X130900000Y-56800000D03*
X131500000Y-56200000D03*
X130300000Y-56200000D03*
D11*
X179188000Y-58705000D03*
X179188000Y-57435000D03*
X179188000Y-56165000D03*
X179188000Y-54895000D03*
X184612000Y-54895000D03*
X184612000Y-56165000D03*
X184612000Y-57435000D03*
X184612000Y-58705000D03*
D10*
X181900000Y-55600000D03*
X181900000Y-58000000D03*
X181300000Y-57400000D03*
D12*
X181900000Y-56800000D03*
D10*
X182500000Y-57400000D03*
X181900000Y-56800000D03*
X182500000Y-56200000D03*
X181300000Y-56200000D03*
D11*
X111188000Y-58705000D03*
X111188000Y-57435000D03*
X111188000Y-56165000D03*
X111188000Y-54895000D03*
X116612000Y-54895000D03*
X116612000Y-56165000D03*
X116612000Y-57435000D03*
X116612000Y-58705000D03*
D10*
X113900000Y-55600000D03*
X113900000Y-58000000D03*
X113300000Y-57400000D03*
D12*
X113900000Y-56800000D03*
D10*
X114500000Y-57400000D03*
X113900000Y-56800000D03*
X114500000Y-56200000D03*
X113300000Y-56200000D03*
D11*
X60188000Y-123805000D03*
X60188000Y-122535000D03*
X60188000Y-121265000D03*
X60188000Y-119995000D03*
X65612000Y-119995000D03*
X65612000Y-121265000D03*
X65612000Y-122535000D03*
X65612000Y-123805000D03*
D10*
X62900000Y-120700000D03*
X62900000Y-123100000D03*
X62300000Y-122500000D03*
D12*
X62900000Y-121900000D03*
D10*
X63500000Y-122500000D03*
X62900000Y-121900000D03*
X63500000Y-121300000D03*
X62300000Y-121300000D03*
D11*
X179188000Y-123805000D03*
X179188000Y-122535000D03*
X179188000Y-121265000D03*
X179188000Y-119995000D03*
X184612000Y-119995000D03*
X184612000Y-121265000D03*
X184612000Y-122535000D03*
X184612000Y-123805000D03*
D10*
X181900000Y-120700000D03*
X181900000Y-123100000D03*
X181300000Y-122500000D03*
D12*
X181900000Y-121900000D03*
D10*
X182500000Y-122500000D03*
X181900000Y-121900000D03*
X182500000Y-121300000D03*
X181300000Y-121300000D03*
D11*
X162188000Y-123805000D03*
X162188000Y-122535000D03*
X162188000Y-121265000D03*
X162188000Y-119995000D03*
X167612000Y-119995000D03*
X167612000Y-121265000D03*
X167612000Y-122535000D03*
X167612000Y-123805000D03*
D10*
X164900000Y-120700000D03*
X164900000Y-123100000D03*
X164300000Y-122500000D03*
D12*
X164900000Y-121900000D03*
D10*
X165500000Y-122500000D03*
X164900000Y-121900000D03*
X165500000Y-121300000D03*
X164300000Y-121300000D03*
D11*
X145188000Y-123805000D03*
X145188000Y-122535000D03*
X145188000Y-121265000D03*
X145188000Y-119995000D03*
X150612000Y-119995000D03*
X150612000Y-121265000D03*
X150612000Y-122535000D03*
X150612000Y-123805000D03*
D10*
X147900000Y-120700000D03*
X147900000Y-123100000D03*
X147300000Y-122500000D03*
D12*
X147900000Y-121900000D03*
D10*
X148500000Y-122500000D03*
X147900000Y-121900000D03*
X148500000Y-121300000D03*
X147300000Y-121300000D03*
D11*
X128188000Y-123805000D03*
X128188000Y-122535000D03*
X128188000Y-121265000D03*
X128188000Y-119995000D03*
X133612000Y-119995000D03*
X133612000Y-121265000D03*
X133612000Y-122535000D03*
X133612000Y-123805000D03*
D10*
X130900000Y-120700000D03*
X130900000Y-123100000D03*
X130300000Y-122500000D03*
D12*
X130900000Y-121900000D03*
D10*
X131500000Y-122500000D03*
X130900000Y-121900000D03*
X131500000Y-121300000D03*
X130300000Y-121300000D03*
D11*
X77188000Y-123805000D03*
X77188000Y-122535000D03*
X77188000Y-121265000D03*
X77188000Y-119995000D03*
X82612000Y-119995000D03*
X82612000Y-121265000D03*
X82612000Y-122535000D03*
X82612000Y-123805000D03*
D10*
X79900000Y-120700000D03*
X79900000Y-123100000D03*
X79300000Y-122500000D03*
D12*
X79900000Y-121900000D03*
D10*
X80500000Y-122500000D03*
X79900000Y-121900000D03*
X80500000Y-121300000D03*
X79300000Y-121300000D03*
D11*
X111188000Y-123805000D03*
X111188000Y-122535000D03*
X111188000Y-121265000D03*
X111188000Y-119995000D03*
X116612000Y-119995000D03*
X116612000Y-121265000D03*
X116612000Y-122535000D03*
X116612000Y-123805000D03*
D10*
X113900000Y-120700000D03*
X113900000Y-123100000D03*
X113300000Y-122500000D03*
D12*
X113900000Y-121900000D03*
D10*
X114500000Y-122500000D03*
X113900000Y-121900000D03*
X114500000Y-121300000D03*
X113300000Y-121300000D03*
D11*
X94188000Y-123805000D03*
X94188000Y-122535000D03*
X94188000Y-121265000D03*
X94188000Y-119995000D03*
X99612000Y-119995000D03*
X99612000Y-121265000D03*
X99612000Y-122535000D03*
X99612000Y-123805000D03*
D10*
X96900000Y-120700000D03*
X96900000Y-123100000D03*
X96300000Y-122500000D03*
D12*
X96900000Y-121900000D03*
D10*
X97500000Y-122500000D03*
X96900000Y-121900000D03*
X97500000Y-121300000D03*
X96300000Y-121300000D03*
D13*
X179975000Y-68000000D03*
D14*
X181500000Y-69475000D03*
X181500000Y-66525000D03*
D13*
X162975000Y-68000000D03*
D14*
X164500000Y-69475000D03*
X164500000Y-66525000D03*
D13*
X145975000Y-68000000D03*
D14*
X147500000Y-69475000D03*
X147500000Y-66525000D03*
D13*
X128975000Y-67919600D03*
D14*
X130500000Y-69394600D03*
X130500000Y-66444600D03*
D13*
X111975000Y-67975000D03*
D14*
X113500000Y-69450000D03*
X113500000Y-66500000D03*
D13*
X94975000Y-68000000D03*
D14*
X96500000Y-69475000D03*
X96500000Y-66525000D03*
D13*
X77975000Y-68000000D03*
D14*
X79500000Y-69475000D03*
X79500000Y-66525000D03*
D13*
X60975000Y-68000000D03*
D14*
X62500000Y-69475000D03*
X62500000Y-66525000D03*
X181500000Y-107525000D03*
X181500000Y-110475000D03*
D13*
X179975000Y-109000000D03*
X162975000Y-109000000D03*
D14*
X164500000Y-110475000D03*
X164500000Y-107525000D03*
D13*
X145975000Y-109000000D03*
D14*
X147500000Y-110475000D03*
X147500000Y-107525000D03*
D13*
X128975000Y-109000000D03*
D14*
X130500000Y-110475000D03*
X130500000Y-107525000D03*
D13*
X111975000Y-109042200D03*
D14*
X113500000Y-110517200D03*
X113500000Y-107567200D03*
D13*
X94975000Y-109000000D03*
D14*
X96500000Y-110475000D03*
X96500000Y-107525000D03*
X79502000Y-107525000D03*
X79502000Y-110475000D03*
D13*
X77977000Y-109000000D03*
X60975000Y-109042200D03*
D14*
X62500000Y-110517200D03*
X62500000Y-107567200D03*
D15*
X39590000Y-28750000D03*
D16*
X44590000Y-28750000D03*
X49590000Y-28750000D03*
D17*
X186955000Y-162500000D03*
X185685000Y-160600000D03*
X184415000Y-162500000D03*
X183145000Y-160600000D03*
X181875000Y-162500000D03*
X180605000Y-160600000D03*
X179335000Y-162500000D03*
X178065000Y-160600000D03*
X176795000Y-162500000D03*
X175525000Y-160600000D03*
X174255000Y-162500000D03*
X172985000Y-160600000D03*
X171715000Y-162500000D03*
X170445000Y-160600000D03*
X169175000Y-162500000D03*
X167905000Y-160600000D03*
X166635000Y-162500000D03*
X165365000Y-160600000D03*
X164095000Y-162500000D03*
X162825000Y-160600000D03*
X161555000Y-162500000D03*
X160285000Y-160600000D03*
X159015000Y-162500000D03*
X157745000Y-160600000D03*
X156475000Y-162500000D03*
X155205000Y-160600000D03*
X153935000Y-162500000D03*
X152665000Y-160600000D03*
X151395000Y-162500000D03*
X150125000Y-160600000D03*
X148855000Y-162500000D03*
X147585000Y-160600000D03*
X146315000Y-162500000D03*
X145045000Y-160600000D03*
X186955000Y-166300000D03*
X185685000Y-164400000D03*
X184415000Y-166300000D03*
X183145000Y-164400000D03*
X181875000Y-166300000D03*
X180605000Y-164400000D03*
X179335000Y-166300000D03*
X178065000Y-164400000D03*
X176795000Y-166300000D03*
X175525000Y-164400000D03*
X174255000Y-166300000D03*
X172985000Y-164400000D03*
X171715000Y-166300000D03*
X170445000Y-164400000D03*
X169175000Y-166300000D03*
X167905000Y-164400000D03*
X166635000Y-166300000D03*
X165365000Y-164400000D03*
X164095000Y-166300000D03*
X162825000Y-164400000D03*
X161555000Y-166300000D03*
X160285000Y-164400000D03*
X159015000Y-166300000D03*
X157745000Y-164400000D03*
X156475000Y-166300000D03*
X155205000Y-164400000D03*
X153935000Y-166300000D03*
X152665000Y-164400000D03*
X151395000Y-166300000D03*
X150125000Y-164400000D03*
X148855000Y-166300000D03*
X147585000Y-164400000D03*
X146315000Y-166300000D03*
X145045000Y-164400000D03*
D18*
X137045000Y-164400000D03*
X194955000Y-164400000D03*
D17*
X85955000Y-162500000D03*
X84685000Y-160600000D03*
X83415000Y-162500000D03*
X82145000Y-160600000D03*
X80875000Y-162500000D03*
X79605000Y-160600000D03*
X78335000Y-162500000D03*
X77065000Y-160600000D03*
X75795000Y-162500000D03*
X74525000Y-160600000D03*
X73255000Y-162500000D03*
X71985000Y-160600000D03*
X70715000Y-162500000D03*
X69445000Y-160600000D03*
X68175000Y-162500000D03*
X66905000Y-160600000D03*
X65635000Y-162500000D03*
X64365000Y-160600000D03*
X63095000Y-162500000D03*
X61825000Y-160600000D03*
X60555000Y-162500000D03*
X59285000Y-160600000D03*
X58015000Y-162500000D03*
X56745000Y-160600000D03*
X55475000Y-162500000D03*
X54205000Y-160600000D03*
X52935000Y-162500000D03*
X51665000Y-160600000D03*
X50395000Y-162500000D03*
X49125000Y-160600000D03*
X47855000Y-162500000D03*
X46585000Y-160600000D03*
X45315000Y-162500000D03*
X44045000Y-160600000D03*
X85955000Y-166300000D03*
X84685000Y-164400000D03*
X83415000Y-166300000D03*
X82145000Y-164400000D03*
X80875000Y-166300000D03*
X79605000Y-164400000D03*
X78335000Y-166300000D03*
X77065000Y-164400000D03*
X75795000Y-166300000D03*
X74525000Y-164400000D03*
X73255000Y-166300000D03*
X71985000Y-164400000D03*
X70715000Y-166300000D03*
X69445000Y-164400000D03*
X68175000Y-166300000D03*
X66905000Y-164400000D03*
X65635000Y-166300000D03*
X64365000Y-164400000D03*
X63095000Y-166300000D03*
X61825000Y-164400000D03*
X60555000Y-166300000D03*
X59285000Y-164400000D03*
X58015000Y-166300000D03*
X56745000Y-164400000D03*
X55475000Y-166300000D03*
X54205000Y-164400000D03*
X52935000Y-166300000D03*
X51665000Y-164400000D03*
X50395000Y-166300000D03*
X49125000Y-164400000D03*
X47855000Y-166300000D03*
X46585000Y-164400000D03*
X45315000Y-166300000D03*
X44045000Y-164400000D03*
D18*
X36045000Y-164400000D03*
X93955000Y-164400000D03*
D19*
X58300000Y-55912500D03*
X58300000Y-57487500D03*
X188100000Y-54612500D03*
X188100000Y-56187500D03*
X177300000Y-55912500D03*
X177300000Y-57487500D03*
X171100000Y-54612500D03*
X171100000Y-56187500D03*
X160300000Y-55912500D03*
X160300000Y-57487500D03*
X69100000Y-54612500D03*
X69100000Y-56187500D03*
X154100000Y-54612500D03*
X154100000Y-56187500D03*
X143300000Y-55912500D03*
X143300000Y-57487500D03*
X137100000Y-54612500D03*
X137100000Y-56187500D03*
X120100000Y-54612500D03*
X120100000Y-56187500D03*
X109300000Y-55912500D03*
X109300000Y-57487500D03*
X75300000Y-55912500D03*
X75300000Y-57487500D03*
X103100000Y-54612500D03*
X103100000Y-56187500D03*
X126300000Y-55912500D03*
X126300000Y-57487500D03*
X92300000Y-55912500D03*
X92300000Y-57487500D03*
X86100000Y-54612500D03*
X86100000Y-56187500D03*
D20*
X152570000Y-51050000D03*
X150030000Y-51050000D03*
X150030000Y-41550000D03*
X152570000Y-41550000D03*
X118570000Y-51050000D03*
X116030000Y-51050000D03*
X116030000Y-41550000D03*
X118570000Y-41550000D03*
X101570000Y-51050000D03*
X99030000Y-51050000D03*
X99030000Y-41550000D03*
X101570000Y-41550000D03*
X67570000Y-51050000D03*
X65030000Y-51050000D03*
X65030000Y-41550000D03*
X67570000Y-41550000D03*
X135570000Y-51050000D03*
X133030000Y-51050000D03*
X133030000Y-41550000D03*
X135570000Y-41550000D03*
X84570000Y-51050000D03*
X82030000Y-51050000D03*
X82030000Y-41550000D03*
X84570000Y-41550000D03*
X169570000Y-51050000D03*
X167030000Y-51050000D03*
X167030000Y-41550000D03*
X169570000Y-41550000D03*
X186570000Y-51050000D03*
X184030000Y-51050000D03*
X184030000Y-41550000D03*
X186570000Y-41550000D03*
D21*
X130112500Y-60400000D03*
X131687500Y-60400000D03*
D22*
X141687500Y-55800000D03*
X140112500Y-55800000D03*
D21*
X113112500Y-60400000D03*
X114687500Y-60400000D03*
D22*
X90687500Y-55800000D03*
X89112500Y-55800000D03*
X73687500Y-55800000D03*
X72112500Y-55800000D03*
D21*
X96112500Y-60400000D03*
X97687500Y-60400000D03*
X79112500Y-60400000D03*
X80687500Y-60400000D03*
D23*
X73700000Y-58987500D03*
X73700000Y-57412500D03*
D21*
X147112500Y-60400000D03*
X148687500Y-60400000D03*
D22*
X107687500Y-55800000D03*
X106112500Y-55800000D03*
D23*
X107700000Y-58987500D03*
X107700000Y-57412500D03*
X124700000Y-58987500D03*
X124700000Y-57412500D03*
D22*
X124687500Y-55800000D03*
X123112500Y-55800000D03*
X99887500Y-53200000D03*
X98312500Y-53200000D03*
D23*
X75300000Y-54387500D03*
X75300000Y-52812500D03*
D19*
X135500000Y-55312500D03*
X135500000Y-56887500D03*
D22*
X150887500Y-53200000D03*
X149312500Y-53200000D03*
D23*
X177300000Y-54387500D03*
X177300000Y-52812500D03*
X126300000Y-54387500D03*
X126300000Y-52812500D03*
D19*
X118500000Y-55312500D03*
X118500000Y-56887500D03*
X67500000Y-55312500D03*
X67500000Y-56887500D03*
D22*
X115312500Y-53200000D03*
X116887500Y-53200000D03*
D23*
X143300000Y-54387500D03*
X143300000Y-52812500D03*
D22*
X167887500Y-53200000D03*
X166312500Y-53200000D03*
X184887500Y-53200000D03*
X183312500Y-53200000D03*
X133887500Y-53200000D03*
X132312500Y-53200000D03*
D19*
X101500000Y-55312500D03*
X101500000Y-56887500D03*
X169500000Y-55312500D03*
X169500000Y-56887500D03*
X186500000Y-55312500D03*
X186500000Y-56887500D03*
D23*
X92300000Y-54387500D03*
X92300000Y-52812500D03*
D19*
X152500000Y-55312500D03*
X152500000Y-56887500D03*
D23*
X160300000Y-54387500D03*
X160300000Y-52812500D03*
D19*
X84500000Y-55312500D03*
X84500000Y-56887500D03*
D23*
X58300000Y-54387500D03*
X58300000Y-52812500D03*
D22*
X82887500Y-53200000D03*
X81312500Y-53200000D03*
D23*
X109300000Y-54387500D03*
X109300000Y-52812500D03*
D24*
X142100000Y-68650000D03*
X142100000Y-61750000D03*
D25*
X142100000Y-65200000D03*
D24*
X108100000Y-68650000D03*
X108100000Y-61750000D03*
D25*
X108100000Y-65200000D03*
D24*
X74100000Y-68650000D03*
X74100000Y-61750000D03*
D25*
X74100000Y-65200000D03*
D24*
X176100000Y-68650000D03*
X176100000Y-61750000D03*
D25*
X176100000Y-65200000D03*
D24*
X91100000Y-68650000D03*
X91100000Y-61750000D03*
D25*
X91100000Y-65200000D03*
D24*
X57100000Y-68650000D03*
X57100000Y-61750000D03*
D25*
X57100000Y-65200000D03*
D24*
X159100000Y-68650000D03*
X159100000Y-61750000D03*
D25*
X159100000Y-65200000D03*
D24*
X125100000Y-68650000D03*
X125100000Y-61750000D03*
D25*
X125100000Y-65200000D03*
D22*
X65887500Y-53200000D03*
X64312500Y-53200000D03*
D23*
X56700000Y-58987500D03*
X56700000Y-57412500D03*
D22*
X56687500Y-55800000D03*
X55112500Y-55800000D03*
D23*
X141700000Y-58987500D03*
X141700000Y-57412500D03*
D22*
X175675000Y-55800000D03*
X174100000Y-55800000D03*
D21*
X181112500Y-60400000D03*
X182687500Y-60400000D03*
D23*
X158700000Y-58987500D03*
X158700000Y-57412500D03*
D22*
X158687500Y-55800000D03*
X157112500Y-55800000D03*
D21*
X164112500Y-60400000D03*
X165687500Y-60400000D03*
D23*
X175700000Y-58987500D03*
X175700000Y-57412500D03*
D21*
X62112500Y-60400000D03*
X63687500Y-60400000D03*
D23*
X90700000Y-58987500D03*
X90700000Y-57412500D03*
X188100000Y-122787500D03*
X188100000Y-121212500D03*
D19*
X75300000Y-121112500D03*
X75300000Y-122687500D03*
X92300000Y-121112500D03*
X92300000Y-122687500D03*
X160300000Y-121112500D03*
X160300000Y-122687500D03*
D23*
X137100000Y-122787500D03*
X137100000Y-121212500D03*
X86100000Y-122787500D03*
X86100000Y-121212500D03*
D19*
X109300000Y-121112500D03*
X109300000Y-122687500D03*
X143300000Y-121112500D03*
X143300000Y-122687500D03*
D23*
X171100000Y-122787500D03*
X171100000Y-121212500D03*
X120100000Y-122787500D03*
X120100000Y-121212500D03*
D19*
X177300000Y-121112500D03*
X177300000Y-122687500D03*
D23*
X154100000Y-122787500D03*
X154100000Y-121212500D03*
D19*
X126300000Y-121112500D03*
X126300000Y-122687500D03*
D23*
X69100000Y-122787500D03*
X69100000Y-121212500D03*
D19*
X58300000Y-121112500D03*
X58300000Y-122687500D03*
D23*
X103100000Y-122787500D03*
X103100000Y-121212500D03*
D20*
X65430000Y-126750000D03*
X67970000Y-126750000D03*
X67970000Y-136250000D03*
X65430000Y-136250000D03*
X167430000Y-126750000D03*
X169970000Y-126750000D03*
X169970000Y-136250000D03*
X167430000Y-136250000D03*
X116430000Y-126750000D03*
X118970000Y-126750000D03*
X118970000Y-136250000D03*
X116430000Y-136250000D03*
X184430000Y-126750000D03*
X186970000Y-126750000D03*
X186970000Y-136250000D03*
X184430000Y-136250000D03*
X150430000Y-126750000D03*
X152970000Y-126750000D03*
X152970000Y-136250000D03*
X150430000Y-136250000D03*
X99430000Y-126750000D03*
X101970000Y-126750000D03*
X101970000Y-136250000D03*
X99430000Y-136250000D03*
X82430000Y-126750000D03*
X84970000Y-126750000D03*
X84970000Y-136250000D03*
X82430000Y-136250000D03*
X133430000Y-126750000D03*
X135970000Y-126750000D03*
X135970000Y-136250000D03*
X133430000Y-136250000D03*
D22*
X82887500Y-118300000D03*
X81312500Y-118300000D03*
D19*
X135500000Y-120412500D03*
X135500000Y-121987500D03*
D22*
X133887500Y-118300000D03*
X132312500Y-118300000D03*
D23*
X92300000Y-119587500D03*
X92300000Y-118012500D03*
D22*
X99887500Y-118300000D03*
X98312500Y-118300000D03*
D19*
X84500000Y-120412500D03*
X84500000Y-121987500D03*
X101500000Y-120412500D03*
X101500000Y-121987500D03*
D23*
X126300000Y-119587500D03*
X126300000Y-118012500D03*
X75300000Y-119587500D03*
X75300000Y-118012500D03*
X109300000Y-119587500D03*
X109300000Y-118012500D03*
D22*
X116887500Y-118300000D03*
X115312500Y-118300000D03*
D19*
X118500000Y-120412500D03*
X118500000Y-121987500D03*
D21*
X164112500Y-125500000D03*
X165687500Y-125500000D03*
D22*
X90687500Y-120900000D03*
X89112500Y-120900000D03*
D21*
X147112500Y-125500000D03*
X148687500Y-125500000D03*
X89112500Y-122500000D03*
X90687500Y-122500000D03*
X140112500Y-122500000D03*
X141687500Y-122500000D03*
X130112500Y-125500000D03*
X131687500Y-125500000D03*
D22*
X158687500Y-120900000D03*
X157112500Y-120900000D03*
D21*
X181112500Y-125500000D03*
X182687500Y-125500000D03*
X157112500Y-122500000D03*
X158687500Y-122500000D03*
D22*
X175687500Y-120900000D03*
X174112500Y-120900000D03*
X107687500Y-120900000D03*
X106112500Y-120900000D03*
X124687500Y-120900000D03*
X123112500Y-120900000D03*
D21*
X174100000Y-122500000D03*
X175675000Y-122500000D03*
X106112500Y-122500000D03*
X107687500Y-122500000D03*
X123112500Y-122500000D03*
X124687500Y-122500000D03*
X96112500Y-125500000D03*
X97687500Y-125500000D03*
X113112500Y-125500000D03*
X114687500Y-125500000D03*
D22*
X141687500Y-120900000D03*
X140112500Y-120900000D03*
D23*
X160300000Y-119587500D03*
X160300000Y-118012500D03*
X177300000Y-119587500D03*
X177300000Y-118012500D03*
D19*
X152500000Y-120412500D03*
X152500000Y-121987500D03*
X169500000Y-120412500D03*
X169500000Y-121987500D03*
D22*
X184887500Y-118300000D03*
X183312500Y-118300000D03*
D23*
X143300000Y-119587500D03*
X143300000Y-118012500D03*
D19*
X67500000Y-120412500D03*
X67500000Y-121987500D03*
X186500000Y-120412500D03*
X186500000Y-121987500D03*
D22*
X65887500Y-118300000D03*
X64312500Y-118300000D03*
D23*
X58300000Y-119587500D03*
X58300000Y-118012500D03*
D22*
X167887500Y-118300000D03*
X166312500Y-118300000D03*
X150887500Y-118300000D03*
X149312500Y-118300000D03*
D21*
X79112500Y-125500000D03*
X80687500Y-125500000D03*
X72112500Y-122500000D03*
X73687500Y-122500000D03*
D22*
X73687500Y-120900000D03*
X72112500Y-120900000D03*
D24*
X142100000Y-108250000D03*
X142100000Y-115150000D03*
D25*
X142100000Y-111700000D03*
D24*
X108100000Y-108250000D03*
X108100000Y-115150000D03*
D25*
X108100000Y-111700000D03*
D24*
X74100000Y-108250000D03*
X74100000Y-115150000D03*
D25*
X74100000Y-111700000D03*
D21*
X55112500Y-122500000D03*
X56687500Y-122500000D03*
D24*
X57100000Y-108250000D03*
X57100000Y-115150000D03*
D25*
X57100000Y-111700000D03*
D24*
X176100000Y-108250000D03*
X176100000Y-115150000D03*
D25*
X176100000Y-111700000D03*
D24*
X125100000Y-108250000D03*
X125100000Y-115150000D03*
D25*
X125100000Y-111700000D03*
D24*
X91100000Y-108250000D03*
X91100000Y-115150000D03*
D25*
X91100000Y-111700000D03*
D22*
X56687500Y-120900000D03*
X55112500Y-120900000D03*
D21*
X62112500Y-125500000D03*
X63687500Y-125500000D03*
D24*
X159100000Y-108250000D03*
X159100000Y-115150000D03*
D25*
X159100000Y-111700000D03*
D26*
X164980000Y-114800000D03*
X163020000Y-114800000D03*
X164000000Y-112700000D03*
X180020000Y-62373800D03*
X181980000Y-62373800D03*
X181000000Y-64473800D03*
X96980000Y-114800000D03*
X95020000Y-114800000D03*
X96000000Y-112700000D03*
X130980000Y-114800000D03*
X129020000Y-114800000D03*
X130000000Y-112700000D03*
X163020000Y-62450000D03*
X164980000Y-62450000D03*
X164000000Y-64550000D03*
X94970000Y-62470000D03*
X96930000Y-62470000D03*
X95950000Y-64570000D03*
X112070000Y-62450000D03*
X114030000Y-62450000D03*
X113050000Y-64550000D03*
X79980000Y-114689600D03*
X78020000Y-114689600D03*
X79000000Y-112589600D03*
X146020000Y-62450000D03*
X147980000Y-62450000D03*
X147000000Y-64550000D03*
X113980000Y-114800000D03*
X112020000Y-114800000D03*
X113000000Y-112700000D03*
X182082000Y-114800000D03*
X180122000Y-114800000D03*
X181102000Y-112700000D03*
X63000000Y-114750000D03*
X61040000Y-114750000D03*
X62020000Y-112650000D03*
X78020000Y-62450000D03*
X79980000Y-62450000D03*
X79000000Y-64550000D03*
X60970000Y-62430000D03*
X62930000Y-62430000D03*
X61950000Y-64530000D03*
X129020000Y-62450000D03*
X130980000Y-62450000D03*
X130000000Y-64550000D03*
X147980000Y-114800000D03*
X146020000Y-114800000D03*
X147000000Y-112700000D03*
M02*
