M48
; DRILL file {KiCad (5.1.5)-3} date 11/9/2020 3:19:19 PM
; FORMAT={-:-/ absolute / inch / decimal}
; #@! TF.CreationDate,2020-11-09T15:19:19-05:00
; #@! TF.GenerationSoftware,Kicad,Pcbnew,(5.1.5)-3
FMAT,2
INCH
T1C0.0100
T2C0.0150
T3C0.0339
T4C0.0421
T5C0.0429
T6C0.1114
T7C0.1201
T8C0.1700
%
G90
G05
T1
X3.937Y-3.4646
X4.3307Y-3.4646
X4.7244Y-3.4646
X5.1181Y-3.4646
X5.5118Y-3.4646
T2
X2.9803Y-1.8386
X3.1614Y-1.6575
X3.3819Y-1.4291
X3.3898Y-1.6811
X3.4291Y-1.2874
X3.5512Y-3.252
X3.5827Y-1.4606
X3.5866Y-1.6811
X3.7835Y-1.6811
X3.7874Y-1.4921
X3.9803Y-1.6811
X4.1772Y-1.6811
X4.374Y-1.4921
X4.374Y-1.6811
X4.5512Y-1.4213
X4.5709Y-1.6811
X4.7559Y-1.3858
X4.878Y-1.6811
X4.9016Y-1.4449
X5.0709Y-1.4921
X5.0748Y-1.6811
X5.2638Y-1.4921
X5.2717Y-1.6811
X5.4488Y-1.5039
X5.4685Y-1.6811
X5.6654Y-1.6811
X5.6732Y-1.4409
X5.8465Y-1.4331
X5.8504Y-3.1969
X5.8622Y-1.6811
X6.0315Y-1.2795
X6.0591Y-1.4843
X6.0591Y-1.6811
X6.2559Y-1.6811
X6.3071Y-1.4764
X6.5472Y-1.8543
X6.6772Y-1.7756
X6.752Y-2.0079
X6.752Y-2.4016
X6.752Y-2.7953
T3
X3.9033Y-1.1024
X3.9033Y-1.252
X3.9533Y-1.1772
X3.9533Y-1.3268
X4.0033Y-1.1024
X4.0033Y-1.252
X4.0533Y-1.1772
X4.0533Y-1.3268
X4.1033Y-1.1024
X4.1033Y-1.252
X4.1533Y-1.1772
X4.1533Y-1.3268
X4.2033Y-1.1024
X4.2033Y-1.252
X4.2533Y-1.1772
X4.2533Y-1.3268
X4.3033Y-1.1024
X4.3033Y-1.252
X4.3533Y-1.1772
X4.3533Y-1.3268
X4.4033Y-1.1024
X4.4033Y-1.252
X4.4533Y-1.1772
X4.4533Y-1.3268
X4.5033Y-1.1024
X4.5033Y-1.252
X4.5533Y-1.1772
X4.5533Y-1.3268
X4.6033Y-1.1024
X4.6033Y-1.252
X4.6533Y-1.1772
X4.6533Y-1.3268
X4.7033Y-1.1024
X4.7033Y-1.252
X4.7533Y-1.1772
X4.7533Y-1.3268
X4.8033Y-1.1024
X4.8033Y-1.252
X4.8533Y-1.1772
X4.8533Y-1.3268
X4.9033Y-1.1024
X4.9033Y-1.252
X4.9533Y-1.1772
X4.9533Y-1.3268
X5.0033Y-1.1024
X5.0033Y-1.252
X5.0533Y-1.1772
X5.0533Y-1.3268
X5.1033Y-1.1024
X5.1033Y-1.252
X5.1533Y-1.1772
X5.1533Y-1.3268
X5.2033Y-1.1024
X5.2033Y-1.252
X5.2533Y-1.1772
X5.2533Y-1.3268
X5.3033Y-1.1024
X5.3033Y-1.252
X5.3533Y-1.1772
X5.3533Y-1.3268
X5.4033Y-1.1024
X5.4033Y-1.252
X5.4533Y-1.1772
X5.4533Y-1.3268
X5.5033Y-1.1024
X5.5033Y-1.252
X5.5533Y-1.1772
X5.5533Y-1.3268
T4
X4.3709Y-2.0472
X4.3709Y-2.1457
X4.3709Y-2.2441
X4.3709Y-2.3425
X4.3709Y-2.5551
X4.3709Y-2.6535
X4.3709Y-2.752
X4.3709Y-2.8504
X4.5709Y-2.0472
X4.5709Y-2.1457
X4.5709Y-2.2441
X4.5709Y-2.3425
X4.5709Y-2.5551
X4.5709Y-2.6535
X4.5709Y-2.752
X4.5709Y-2.8504
X4.8827Y-2.0472
X4.8827Y-2.1457
X4.8827Y-2.2441
X4.8827Y-2.3425
X4.8827Y-2.5551
X4.8827Y-2.6535
X4.8827Y-2.752
X4.8827Y-2.8504
X5.0827Y-2.0472
X5.0827Y-2.1457
X5.0827Y-2.2441
X5.0827Y-2.3425
X5.0827Y-2.5551
X5.0827Y-2.6535
X5.0827Y-2.752
X5.0827Y-2.8504
X3.8591Y-2.0472
X3.8591Y-2.1457
X3.8591Y-2.2441
X3.8591Y-2.3425
X3.8591Y-2.5551
X3.8591Y-2.6535
X3.8591Y-2.752
X3.8591Y-2.8504
X4.0591Y-2.0472
X4.0591Y-2.1457
X4.0591Y-2.2441
X4.0591Y-2.3425
X4.0591Y-2.5551
X4.0591Y-2.6535
X4.0591Y-2.752
X4.0591Y-2.8504
X6.4181Y-2.0472
X6.4181Y-2.1457
X6.4181Y-2.2441
X6.4181Y-2.3425
X6.4181Y-2.5551
X6.4181Y-2.6535
X6.4181Y-2.752
X6.4181Y-2.8504
X6.6181Y-2.0472
X6.6181Y-2.1457
X6.6181Y-2.2441
X6.6181Y-2.3425
X6.6181Y-2.5551
X6.6181Y-2.6535
X6.6181Y-2.752
X6.6181Y-2.8504
X3.3472Y-2.0472
X3.3472Y-2.1457
X3.3472Y-2.2441
X3.3472Y-2.3425
X3.3472Y-2.5551
X3.3472Y-2.6535
X3.3472Y-2.752
X3.3472Y-2.8504
X3.5472Y-2.0472
X3.5472Y-2.1457
X3.5472Y-2.2441
X3.5472Y-2.3425
X3.5472Y-2.5551
X3.5472Y-2.6535
X3.5472Y-2.752
X3.5472Y-2.8504
X5.9063Y-2.0472
X5.9063Y-2.1457
X5.9063Y-2.2441
X5.9063Y-2.3425
X5.9063Y-2.5551
X5.9063Y-2.6535
X5.9063Y-2.752
X5.9063Y-2.8504
X6.1063Y-2.0472
X6.1063Y-2.1457
X6.1063Y-2.2441
X6.1063Y-2.3425
X6.1063Y-2.5551
X6.1063Y-2.6535
X6.1063Y-2.752
X6.1063Y-2.8504
X5.3945Y-2.0472
X5.3945Y-2.1457
X5.3945Y-2.2441
X5.3945Y-2.3425
X5.3945Y-2.5551
X5.3945Y-2.6535
X5.3945Y-2.752
X5.3945Y-2.8504
X5.5945Y-2.0472
X5.5945Y-2.1457
X5.5945Y-2.2441
X5.5945Y-2.3425
X5.5945Y-2.5551
X5.5945Y-2.6535
X5.5945Y-2.752
X5.5945Y-2.8504
X2.8354Y-2.0472
X2.8354Y-2.1457
X2.8354Y-2.2441
X2.8354Y-2.3425
X2.8354Y-2.5551
X2.8354Y-2.6535
X2.8354Y-2.752
X2.8354Y-2.8504
X3.0354Y-2.0472
X3.0354Y-2.1457
X3.0354Y-2.2441
X3.0354Y-2.3425
X3.0354Y-2.5551
X3.0354Y-2.6535
X3.0354Y-2.752
X3.0354Y-2.8504
T5
X4.0693Y-3.2559
X4.1238Y-3.3677
X4.1783Y-3.2559
X4.2329Y-3.3677
X4.2874Y-3.2559
X4.3419Y-3.3677
X4.3965Y-3.2559
X4.451Y-3.3677
X4.5055Y-3.2559
X4.56Y-3.3677
X4.6146Y-3.2559
X4.6691Y-3.3677
X4.7236Y-3.2559
X4.7781Y-3.3677
X4.8327Y-3.2559
X4.8872Y-3.3677
X4.9417Y-3.2559
X4.9963Y-3.3677
X5.0508Y-3.2559
X5.1053Y-3.3677
X5.1598Y-3.2559
X5.2144Y-3.3677
X5.2689Y-3.2559
X5.3234Y-3.3677
X5.378Y-3.2559
T6
X3.5884Y-1.1772
X5.8683Y-1.1772
T7
X3.7976Y-3.3118
X5.6496Y-3.3118
T8
X2.9724Y-3.4803
X6.5157Y-1.1575
X6.5157Y-3.4803
X2.9724Y-1.1575
T0
M30
