G04 #@! TF.GenerationSoftware,KiCad,Pcbnew,(5.1.5)-3*
G04 #@! TF.CreationDate,2020-11-09T15:19:13-05:00*
G04 #@! TF.ProjectId,FilterMotherboard,46696c74-6572-44d6-9f74-686572626f61,rev?*
G04 #@! TF.SameCoordinates,Original*
G04 #@! TF.FileFunction,Legend,Top*
G04 #@! TF.FilePolarity,Positive*
%FSLAX46Y46*%
G04 Gerber Fmt 4.6, Leading zero omitted, Abs format (unit mm)*
G04 Created by KiCad (PCBNEW (5.1.5)-3) date 2020-11-09 15:19:13*
%MOMM*%
%LPD*%
G04 APERTURE LIST*
%ADD10C,0.150000*%
%ADD11C,0.120000*%
%ADD12C,0.010000*%
%ADD13C,0.254000*%
%ADD14C,0.100000*%
%ADD15C,0.200000*%
G04 APERTURE END LIST*
D10*
X153668928Y-80578571D02*
X153335595Y-80578571D01*
X153335595Y-81102380D02*
X153335595Y-80102380D01*
X153811785Y-80102380D01*
X154192738Y-81102380D02*
X154192738Y-80435714D01*
X154192738Y-80102380D02*
X154145119Y-80150000D01*
X154192738Y-80197619D01*
X154240357Y-80150000D01*
X154192738Y-80102380D01*
X154192738Y-80197619D01*
X154811785Y-81102380D02*
X154716547Y-81054761D01*
X154668928Y-80959523D01*
X154668928Y-80102380D01*
X155049880Y-80435714D02*
X155430833Y-80435714D01*
X155192738Y-80102380D02*
X155192738Y-80959523D01*
X155240357Y-81054761D01*
X155335595Y-81102380D01*
X155430833Y-81102380D01*
X156145119Y-81054761D02*
X156049880Y-81102380D01*
X155859404Y-81102380D01*
X155764166Y-81054761D01*
X155716547Y-80959523D01*
X155716547Y-80578571D01*
X155764166Y-80483333D01*
X155859404Y-80435714D01*
X156049880Y-80435714D01*
X156145119Y-80483333D01*
X156192738Y-80578571D01*
X156192738Y-80673809D01*
X155716547Y-80769047D01*
X156621309Y-81102380D02*
X156621309Y-80435714D01*
X156621309Y-80626190D02*
X156668928Y-80530952D01*
X156716547Y-80483333D01*
X156811785Y-80435714D01*
X156907023Y-80435714D01*
X157240357Y-81102380D02*
X157240357Y-80102380D01*
X157573690Y-80816666D01*
X157907023Y-80102380D01*
X157907023Y-81102380D01*
X158526071Y-81102380D02*
X158430833Y-81054761D01*
X158383214Y-81007142D01*
X158335595Y-80911904D01*
X158335595Y-80626190D01*
X158383214Y-80530952D01*
X158430833Y-80483333D01*
X158526071Y-80435714D01*
X158668928Y-80435714D01*
X158764166Y-80483333D01*
X158811785Y-80530952D01*
X158859404Y-80626190D01*
X158859404Y-80911904D01*
X158811785Y-81007142D01*
X158764166Y-81054761D01*
X158668928Y-81102380D01*
X158526071Y-81102380D01*
X159145119Y-80435714D02*
X159526071Y-80435714D01*
X159287976Y-80102380D02*
X159287976Y-80959523D01*
X159335595Y-81054761D01*
X159430833Y-81102380D01*
X159526071Y-81102380D01*
X159859404Y-81102380D02*
X159859404Y-80102380D01*
X160287976Y-81102380D02*
X160287976Y-80578571D01*
X160240357Y-80483333D01*
X160145119Y-80435714D01*
X160002261Y-80435714D01*
X159907023Y-80483333D01*
X159859404Y-80530952D01*
X161145119Y-81054761D02*
X161049880Y-81102380D01*
X160859404Y-81102380D01*
X160764166Y-81054761D01*
X160716547Y-80959523D01*
X160716547Y-80578571D01*
X160764166Y-80483333D01*
X160859404Y-80435714D01*
X161049880Y-80435714D01*
X161145119Y-80483333D01*
X161192738Y-80578571D01*
X161192738Y-80673809D01*
X160716547Y-80769047D01*
X161621309Y-81102380D02*
X161621309Y-80435714D01*
X161621309Y-80626190D02*
X161668928Y-80530952D01*
X161716547Y-80483333D01*
X161811785Y-80435714D01*
X161907023Y-80435714D01*
X162240357Y-81102380D02*
X162240357Y-80102380D01*
X162240357Y-80483333D02*
X162335595Y-80435714D01*
X162526071Y-80435714D01*
X162621309Y-80483333D01*
X162668928Y-80530952D01*
X162716547Y-80626190D01*
X162716547Y-80911904D01*
X162668928Y-81007142D01*
X162621309Y-81054761D01*
X162526071Y-81102380D01*
X162335595Y-81102380D01*
X162240357Y-81054761D01*
X163287976Y-81102380D02*
X163192738Y-81054761D01*
X163145119Y-81007142D01*
X163097500Y-80911904D01*
X163097500Y-80626190D01*
X163145119Y-80530952D01*
X163192738Y-80483333D01*
X163287976Y-80435714D01*
X163430833Y-80435714D01*
X163526071Y-80483333D01*
X163573690Y-80530952D01*
X163621309Y-80626190D01*
X163621309Y-80911904D01*
X163573690Y-81007142D01*
X163526071Y-81054761D01*
X163430833Y-81102380D01*
X163287976Y-81102380D01*
X164478452Y-81102380D02*
X164478452Y-80578571D01*
X164430833Y-80483333D01*
X164335595Y-80435714D01*
X164145119Y-80435714D01*
X164049880Y-80483333D01*
X164478452Y-81054761D02*
X164383214Y-81102380D01*
X164145119Y-81102380D01*
X164049880Y-81054761D01*
X164002261Y-80959523D01*
X164002261Y-80864285D01*
X164049880Y-80769047D01*
X164145119Y-80721428D01*
X164383214Y-80721428D01*
X164478452Y-80673809D01*
X164954642Y-81102380D02*
X164954642Y-80435714D01*
X164954642Y-80626190D02*
X165002261Y-80530952D01*
X165049880Y-80483333D01*
X165145119Y-80435714D01*
X165240357Y-80435714D01*
X166002261Y-81102380D02*
X166002261Y-80102380D01*
X166002261Y-81054761D02*
X165907023Y-81102380D01*
X165716547Y-81102380D01*
X165621309Y-81054761D01*
X165573690Y-81007142D01*
X165526071Y-80911904D01*
X165526071Y-80626190D01*
X165573690Y-80530952D01*
X165621309Y-80483333D01*
X165716547Y-80435714D01*
X165907023Y-80435714D01*
X166002261Y-80483333D01*
X167097500Y-80102380D02*
X167430833Y-81102380D01*
X167764166Y-80102380D01*
X168049880Y-80197619D02*
X168097500Y-80150000D01*
X168192738Y-80102380D01*
X168430833Y-80102380D01*
X168526071Y-80150000D01*
X168573690Y-80197619D01*
X168621309Y-80292857D01*
X168621309Y-80388095D01*
X168573690Y-80530952D01*
X168002261Y-81102380D01*
X168621309Y-81102380D01*
X169049880Y-81007142D02*
X169097500Y-81054761D01*
X169049880Y-81102380D01*
X169002261Y-81054761D01*
X169049880Y-81007142D01*
X169049880Y-81102380D01*
X169716547Y-80102380D02*
X169811785Y-80102380D01*
X169907023Y-80150000D01*
X169954642Y-80197619D01*
X170002261Y-80292857D01*
X170049880Y-80483333D01*
X170049880Y-80721428D01*
X170002261Y-80911904D01*
X169954642Y-81007142D01*
X169907023Y-81054761D01*
X169811785Y-81102380D01*
X169716547Y-81102380D01*
X169621309Y-81054761D01*
X169573690Y-81007142D01*
X169526071Y-80911904D01*
X169478452Y-80721428D01*
X169478452Y-80483333D01*
X169526071Y-80292857D01*
X169573690Y-80197619D01*
X169621309Y-80150000D01*
X169716547Y-80102380D01*
X153621309Y-81752380D02*
X153621309Y-82466666D01*
X153573690Y-82609523D01*
X153478452Y-82704761D01*
X153335595Y-82752380D01*
X153240357Y-82752380D01*
X154097500Y-82657142D02*
X154145119Y-82704761D01*
X154097500Y-82752380D01*
X154049880Y-82704761D01*
X154097500Y-82657142D01*
X154097500Y-82752380D01*
X155287976Y-82704761D02*
X155430833Y-82752380D01*
X155668928Y-82752380D01*
X155764166Y-82704761D01*
X155811785Y-82657142D01*
X155859404Y-82561904D01*
X155859404Y-82466666D01*
X155811785Y-82371428D01*
X155764166Y-82323809D01*
X155668928Y-82276190D01*
X155478452Y-82228571D01*
X155383214Y-82180952D01*
X155335595Y-82133333D01*
X155287976Y-82038095D01*
X155287976Y-81942857D01*
X155335595Y-81847619D01*
X155383214Y-81800000D01*
X155478452Y-81752380D01*
X155716547Y-81752380D01*
X155859404Y-81800000D01*
X156145119Y-82085714D02*
X156526071Y-82085714D01*
X156287976Y-81752380D02*
X156287976Y-82609523D01*
X156335595Y-82704761D01*
X156430833Y-82752380D01*
X156526071Y-82752380D01*
X157287976Y-82085714D02*
X157287976Y-82752380D01*
X156859404Y-82085714D02*
X156859404Y-82609523D01*
X156907023Y-82704761D01*
X157002261Y-82752380D01*
X157145119Y-82752380D01*
X157240357Y-82704761D01*
X157287976Y-82657142D01*
X158192738Y-82752380D02*
X158192738Y-82228571D01*
X158145119Y-82133333D01*
X158049880Y-82085714D01*
X157859404Y-82085714D01*
X157764166Y-82133333D01*
X158192738Y-82704761D02*
X158097500Y-82752380D01*
X157859404Y-82752380D01*
X157764166Y-82704761D01*
X157716547Y-82609523D01*
X157716547Y-82514285D01*
X157764166Y-82419047D01*
X157859404Y-82371428D01*
X158097500Y-82371428D01*
X158192738Y-82323809D01*
X158668928Y-82752380D02*
X158668928Y-82085714D01*
X158668928Y-82276190D02*
X158716547Y-82180952D01*
X158764166Y-82133333D01*
X158859404Y-82085714D01*
X158954642Y-82085714D01*
X159145119Y-82085714D02*
X159526071Y-82085714D01*
X159287976Y-81752380D02*
X159287976Y-82609523D01*
X159335595Y-82704761D01*
X159430833Y-82752380D01*
X159526071Y-82752380D01*
X153859404Y-84402380D02*
X153287976Y-84402380D01*
X153573690Y-84402380D02*
X153573690Y-83402380D01*
X153478452Y-83545238D01*
X153383214Y-83640476D01*
X153287976Y-83688095D01*
X154811785Y-84402380D02*
X154240357Y-84402380D01*
X154526071Y-84402380D02*
X154526071Y-83402380D01*
X154430833Y-83545238D01*
X154335595Y-83640476D01*
X154240357Y-83688095D01*
X155954642Y-83354761D02*
X155097500Y-84640476D01*
X156478452Y-83402380D02*
X156573690Y-83402380D01*
X156668928Y-83450000D01*
X156716547Y-83497619D01*
X156764166Y-83592857D01*
X156811785Y-83783333D01*
X156811785Y-84021428D01*
X156764166Y-84211904D01*
X156716547Y-84307142D01*
X156668928Y-84354761D01*
X156573690Y-84402380D01*
X156478452Y-84402380D01*
X156383214Y-84354761D01*
X156335595Y-84307142D01*
X156287976Y-84211904D01*
X156240357Y-84021428D01*
X156240357Y-83783333D01*
X156287976Y-83592857D01*
X156335595Y-83497619D01*
X156383214Y-83450000D01*
X156478452Y-83402380D01*
X157287976Y-84402380D02*
X157478452Y-84402380D01*
X157573690Y-84354761D01*
X157621309Y-84307142D01*
X157716547Y-84164285D01*
X157764166Y-83973809D01*
X157764166Y-83592857D01*
X157716547Y-83497619D01*
X157668928Y-83450000D01*
X157573690Y-83402380D01*
X157383214Y-83402380D01*
X157287976Y-83450000D01*
X157240357Y-83497619D01*
X157192738Y-83592857D01*
X157192738Y-83830952D01*
X157240357Y-83926190D01*
X157287976Y-83973809D01*
X157383214Y-84021428D01*
X157573690Y-84021428D01*
X157668928Y-83973809D01*
X157716547Y-83926190D01*
X157764166Y-83830952D01*
X158907023Y-83354761D02*
X158049880Y-84640476D01*
X159192738Y-83497619D02*
X159240357Y-83450000D01*
X159335595Y-83402380D01*
X159573690Y-83402380D01*
X159668928Y-83450000D01*
X159716547Y-83497619D01*
X159764166Y-83592857D01*
X159764166Y-83688095D01*
X159716547Y-83830952D01*
X159145119Y-84402380D01*
X159764166Y-84402380D01*
X160383214Y-83402380D02*
X160478452Y-83402380D01*
X160573690Y-83450000D01*
X160621309Y-83497619D01*
X160668928Y-83592857D01*
X160716547Y-83783333D01*
X160716547Y-84021428D01*
X160668928Y-84211904D01*
X160621309Y-84307142D01*
X160573690Y-84354761D01*
X160478452Y-84402380D01*
X160383214Y-84402380D01*
X160287976Y-84354761D01*
X160240357Y-84307142D01*
X160192738Y-84211904D01*
X160145119Y-84021428D01*
X160145119Y-83783333D01*
X160192738Y-83592857D01*
X160240357Y-83497619D01*
X160287976Y-83450000D01*
X160383214Y-83402380D01*
D11*
X79310000Y-29400000D02*
G75*
G03X79310000Y-29400000I-3810000J0D01*
G01*
X79310000Y-88400000D02*
G75*
G03X79310000Y-88400000I-3810000J0D01*
G01*
X169310000Y-88400000D02*
G75*
G03X169310000Y-88400000I-3810000J0D01*
G01*
X169310000Y-29400000D02*
G75*
G03X169310000Y-29400000I-3810000J0D01*
G01*
D12*
G36*
X74662858Y-44282381D02*
G01*
X77142381Y-44282381D01*
X77142381Y-42238286D01*
X74662858Y-42238286D01*
X74662858Y-44282381D01*
G37*
X74662858Y-44282381D02*
X77142381Y-44282381D01*
X77142381Y-42238286D01*
X74662858Y-42238286D01*
X74662858Y-44282381D01*
G36*
X74012629Y-36109024D02*
G01*
X74012991Y-36404080D01*
X74013343Y-36675913D01*
X74013692Y-36925493D01*
X74014048Y-37153787D01*
X74014422Y-37361764D01*
X74014821Y-37550392D01*
X74015256Y-37720640D01*
X74015736Y-37873475D01*
X74016270Y-38009867D01*
X74016868Y-38130782D01*
X74017539Y-38237191D01*
X74018292Y-38330060D01*
X74019136Y-38410359D01*
X74020082Y-38479055D01*
X74021138Y-38537118D01*
X74022314Y-38585514D01*
X74023619Y-38625214D01*
X74025062Y-38657184D01*
X74026653Y-38682393D01*
X74028402Y-38701810D01*
X74030316Y-38716403D01*
X74032407Y-38727140D01*
X74034683Y-38734989D01*
X74037154Y-38740920D01*
X74038088Y-38742762D01*
X74050415Y-38758481D01*
X74078568Y-38789744D01*
X74121141Y-38835141D01*
X74176723Y-38893265D01*
X74243908Y-38962705D01*
X74321285Y-39042052D01*
X74407446Y-39129896D01*
X74500984Y-39224829D01*
X74600488Y-39325442D01*
X74704551Y-39430323D01*
X74811764Y-39538066D01*
X74920718Y-39647259D01*
X75030004Y-39756495D01*
X75138215Y-39864363D01*
X75243941Y-39969454D01*
X75345774Y-40070359D01*
X75442306Y-40165669D01*
X75532126Y-40253974D01*
X75613828Y-40333864D01*
X75686002Y-40403932D01*
X75747240Y-40462767D01*
X75796134Y-40508959D01*
X75831273Y-40541101D01*
X75851251Y-40557782D01*
X75853883Y-40559463D01*
X75898810Y-40575603D01*
X75955457Y-40586172D01*
X76013724Y-40590118D01*
X76063513Y-40586393D01*
X76078079Y-40582758D01*
X76159011Y-40543821D01*
X76227369Y-40485559D01*
X76279002Y-40411905D01*
X76295264Y-40362488D01*
X76302200Y-40300147D01*
X76299946Y-40234223D01*
X76288636Y-40174059D01*
X76275077Y-40139762D01*
X76262485Y-40123721D01*
X76233751Y-40091757D01*
X76189934Y-40044956D01*
X76132092Y-39984404D01*
X76061283Y-39911186D01*
X75978567Y-39826390D01*
X75885003Y-39731100D01*
X75781648Y-39626404D01*
X75669562Y-39513386D01*
X75549803Y-39393133D01*
X75443809Y-39287082D01*
X74638667Y-38482783D01*
X74638667Y-33517620D01*
X74009496Y-33517620D01*
X74012629Y-36109024D01*
G37*
X74012629Y-36109024D02*
X74012991Y-36404080D01*
X74013343Y-36675913D01*
X74013692Y-36925493D01*
X74014048Y-37153787D01*
X74014422Y-37361764D01*
X74014821Y-37550392D01*
X74015256Y-37720640D01*
X74015736Y-37873475D01*
X74016270Y-38009867D01*
X74016868Y-38130782D01*
X74017539Y-38237191D01*
X74018292Y-38330060D01*
X74019136Y-38410359D01*
X74020082Y-38479055D01*
X74021138Y-38537118D01*
X74022314Y-38585514D01*
X74023619Y-38625214D01*
X74025062Y-38657184D01*
X74026653Y-38682393D01*
X74028402Y-38701810D01*
X74030316Y-38716403D01*
X74032407Y-38727140D01*
X74034683Y-38734989D01*
X74037154Y-38740920D01*
X74038088Y-38742762D01*
X74050415Y-38758481D01*
X74078568Y-38789744D01*
X74121141Y-38835141D01*
X74176723Y-38893265D01*
X74243908Y-38962705D01*
X74321285Y-39042052D01*
X74407446Y-39129896D01*
X74500984Y-39224829D01*
X74600488Y-39325442D01*
X74704551Y-39430323D01*
X74811764Y-39538066D01*
X74920718Y-39647259D01*
X75030004Y-39756495D01*
X75138215Y-39864363D01*
X75243941Y-39969454D01*
X75345774Y-40070359D01*
X75442306Y-40165669D01*
X75532126Y-40253974D01*
X75613828Y-40333864D01*
X75686002Y-40403932D01*
X75747240Y-40462767D01*
X75796134Y-40508959D01*
X75831273Y-40541101D01*
X75851251Y-40557782D01*
X75853883Y-40559463D01*
X75898810Y-40575603D01*
X75955457Y-40586172D01*
X76013724Y-40590118D01*
X76063513Y-40586393D01*
X76078079Y-40582758D01*
X76159011Y-40543821D01*
X76227369Y-40485559D01*
X76279002Y-40411905D01*
X76295264Y-40362488D01*
X76302200Y-40300147D01*
X76299946Y-40234223D01*
X76288636Y-40174059D01*
X76275077Y-40139762D01*
X76262485Y-40123721D01*
X76233751Y-40091757D01*
X76189934Y-40044956D01*
X76132092Y-39984404D01*
X76061283Y-39911186D01*
X75978567Y-39826390D01*
X75885003Y-39731100D01*
X75781648Y-39626404D01*
X75669562Y-39513386D01*
X75549803Y-39393133D01*
X75443809Y-39287082D01*
X74638667Y-38482783D01*
X74638667Y-33517620D01*
X74009496Y-33517620D01*
X74012629Y-36109024D01*
G36*
X78702667Y-44282381D02*
G01*
X78956667Y-44282381D01*
X78956667Y-33517620D01*
X78702667Y-33517620D01*
X78702667Y-44282381D01*
G37*
X78702667Y-44282381D02*
X78956667Y-44282381D01*
X78956667Y-33517620D01*
X78702667Y-33517620D01*
X78702667Y-44282381D01*
G36*
X70734857Y-33883571D02*
G01*
X70639286Y-33979540D01*
X70559946Y-34060056D01*
X70495624Y-34126426D01*
X70445111Y-34179960D01*
X70407193Y-34221965D01*
X70380660Y-34253750D01*
X70364300Y-34276623D01*
X70356956Y-34291705D01*
X70355811Y-34307877D01*
X70354722Y-34348163D01*
X70353689Y-34412488D01*
X70352712Y-34500777D01*
X70351791Y-34612953D01*
X70350927Y-34748942D01*
X70350119Y-34908668D01*
X70349369Y-35092054D01*
X70348675Y-35299026D01*
X70348039Y-35529507D01*
X70347460Y-35783423D01*
X70346939Y-36060697D01*
X70346475Y-36361253D01*
X70346069Y-36685017D01*
X70345722Y-37031913D01*
X70345433Y-37401864D01*
X70345202Y-37794796D01*
X70345030Y-38210632D01*
X70344917Y-38649298D01*
X70344863Y-39110716D01*
X70344858Y-39308135D01*
X70344858Y-44282381D01*
X70598858Y-44282381D01*
X70598858Y-34370460D01*
X71451444Y-33517620D01*
X71100661Y-33517620D01*
X70734857Y-33883571D01*
G37*
X70734857Y-33883571D02*
X70639286Y-33979540D01*
X70559946Y-34060056D01*
X70495624Y-34126426D01*
X70445111Y-34179960D01*
X70407193Y-34221965D01*
X70380660Y-34253750D01*
X70364300Y-34276623D01*
X70356956Y-34291705D01*
X70355811Y-34307877D01*
X70354722Y-34348163D01*
X70353689Y-34412488D01*
X70352712Y-34500777D01*
X70351791Y-34612953D01*
X70350927Y-34748942D01*
X70350119Y-34908668D01*
X70349369Y-35092054D01*
X70348675Y-35299026D01*
X70348039Y-35529507D01*
X70347460Y-35783423D01*
X70346939Y-36060697D01*
X70346475Y-36361253D01*
X70346069Y-36685017D01*
X70345722Y-37031913D01*
X70345433Y-37401864D01*
X70345202Y-37794796D01*
X70345030Y-38210632D01*
X70344917Y-38649298D01*
X70344863Y-39110716D01*
X70344858Y-39308135D01*
X70344858Y-44282381D01*
X70598858Y-44282381D01*
X70598858Y-34370460D01*
X71451444Y-33517620D01*
X71100661Y-33517620D01*
X70734857Y-33883571D01*
G36*
X77326874Y-34191969D02*
G01*
X78001143Y-34866319D01*
X78001143Y-44282381D01*
X78255143Y-44282381D01*
X78255143Y-34770020D01*
X77003601Y-33517620D01*
X76652605Y-33517620D01*
X77326874Y-34191969D01*
G37*
X77326874Y-34191969D02*
X78001143Y-34866319D01*
X78001143Y-44282381D01*
X78255143Y-44282381D01*
X78255143Y-34770020D01*
X77003601Y-33517620D01*
X76652605Y-33517620D01*
X77326874Y-34191969D01*
G36*
X69631239Y-44282381D02*
G01*
X69885239Y-44282381D01*
X69885239Y-33517620D01*
X69631239Y-33517620D01*
X69631239Y-44282381D01*
G37*
X69631239Y-44282381D02*
X69885239Y-44282381D01*
X69885239Y-33517620D01*
X69631239Y-33517620D01*
X69631239Y-44282381D01*
G36*
X76306144Y-34168007D02*
G01*
X76210687Y-34177590D01*
X76132429Y-34193106D01*
X75976272Y-34247733D01*
X75831240Y-34322915D01*
X75699075Y-34416908D01*
X75581520Y-34527970D01*
X75480319Y-34654356D01*
X75397215Y-34794324D01*
X75333950Y-34946131D01*
X75314153Y-35011381D01*
X75298364Y-35091555D01*
X75288918Y-35187264D01*
X75285815Y-35290698D01*
X75289055Y-35394048D01*
X75298637Y-35489504D01*
X75314153Y-35567762D01*
X75368169Y-35722228D01*
X75442515Y-35866114D01*
X75535312Y-35997543D01*
X75644681Y-36114639D01*
X75768745Y-36215527D01*
X75905623Y-36298329D01*
X76053439Y-36361171D01*
X76132429Y-36384929D01*
X76212740Y-36400738D01*
X76306677Y-36411184D01*
X76405674Y-36415934D01*
X76501166Y-36414653D01*
X76584588Y-36407006D01*
X76606060Y-36403406D01*
X76766461Y-36360848D01*
X76916634Y-36297213D01*
X77054906Y-36214053D01*
X77179608Y-36112916D01*
X77289066Y-35995354D01*
X77381610Y-35862916D01*
X77455567Y-35717153D01*
X77507086Y-35567762D01*
X77522875Y-35487589D01*
X77532321Y-35391880D01*
X77534309Y-35325611D01*
X77112474Y-35325611D01*
X77105010Y-35410310D01*
X77090123Y-35483937D01*
X77084698Y-35501239D01*
X77029979Y-35624354D01*
X76956839Y-35732993D01*
X76867043Y-35825575D01*
X76762354Y-35900522D01*
X76644537Y-35956254D01*
X76543667Y-35985586D01*
X76481921Y-35993046D01*
X76406318Y-35993367D01*
X76325890Y-35987247D01*
X76249668Y-35975379D01*
X76186681Y-35958460D01*
X76185411Y-35957999D01*
X76092897Y-35918827D01*
X76015037Y-35872581D01*
X75942313Y-35813155D01*
X75908667Y-35780425D01*
X75827427Y-35682657D01*
X75764591Y-35571871D01*
X75731870Y-35489143D01*
X75717959Y-35428729D01*
X75710151Y-35353328D01*
X75708446Y-35271363D01*
X75712843Y-35191255D01*
X75723342Y-35121425D01*
X75731870Y-35090000D01*
X75786652Y-34963926D01*
X75860063Y-34852953D01*
X75951009Y-34758176D01*
X76058398Y-34680686D01*
X76181138Y-34621576D01*
X76211048Y-34610822D01*
X76271462Y-34596912D01*
X76346863Y-34589104D01*
X76428828Y-34587398D01*
X76508937Y-34591795D01*
X76578766Y-34602294D01*
X76610191Y-34610822D01*
X76736266Y-34665605D01*
X76847238Y-34739015D01*
X76942016Y-34829961D01*
X77019506Y-34937350D01*
X77078616Y-35060090D01*
X77089369Y-35090000D01*
X77104750Y-35156964D01*
X77112420Y-35238331D01*
X77112474Y-35325611D01*
X77534309Y-35325611D01*
X77535424Y-35288446D01*
X77532184Y-35185096D01*
X77522602Y-35089639D01*
X77507086Y-35011381D01*
X77452458Y-34855225D01*
X77377276Y-34710192D01*
X77283283Y-34578027D01*
X77172222Y-34460473D01*
X77045835Y-34359272D01*
X76905867Y-34276167D01*
X76754060Y-34212903D01*
X76688810Y-34193106D01*
X76608636Y-34177317D01*
X76512928Y-34167871D01*
X76409494Y-34164767D01*
X76306144Y-34168007D01*
G37*
X76306144Y-34168007D02*
X76210687Y-34177590D01*
X76132429Y-34193106D01*
X75976272Y-34247733D01*
X75831240Y-34322915D01*
X75699075Y-34416908D01*
X75581520Y-34527970D01*
X75480319Y-34654356D01*
X75397215Y-34794324D01*
X75333950Y-34946131D01*
X75314153Y-35011381D01*
X75298364Y-35091555D01*
X75288918Y-35187264D01*
X75285815Y-35290698D01*
X75289055Y-35394048D01*
X75298637Y-35489504D01*
X75314153Y-35567762D01*
X75368169Y-35722228D01*
X75442515Y-35866114D01*
X75535312Y-35997543D01*
X75644681Y-36114639D01*
X75768745Y-36215527D01*
X75905623Y-36298329D01*
X76053439Y-36361171D01*
X76132429Y-36384929D01*
X76212740Y-36400738D01*
X76306677Y-36411184D01*
X76405674Y-36415934D01*
X76501166Y-36414653D01*
X76584588Y-36407006D01*
X76606060Y-36403406D01*
X76766461Y-36360848D01*
X76916634Y-36297213D01*
X77054906Y-36214053D01*
X77179608Y-36112916D01*
X77289066Y-35995354D01*
X77381610Y-35862916D01*
X77455567Y-35717153D01*
X77507086Y-35567762D01*
X77522875Y-35487589D01*
X77532321Y-35391880D01*
X77534309Y-35325611D01*
X77112474Y-35325611D01*
X77105010Y-35410310D01*
X77090123Y-35483937D01*
X77084698Y-35501239D01*
X77029979Y-35624354D01*
X76956839Y-35732993D01*
X76867043Y-35825575D01*
X76762354Y-35900522D01*
X76644537Y-35956254D01*
X76543667Y-35985586D01*
X76481921Y-35993046D01*
X76406318Y-35993367D01*
X76325890Y-35987247D01*
X76249668Y-35975379D01*
X76186681Y-35958460D01*
X76185411Y-35957999D01*
X76092897Y-35918827D01*
X76015037Y-35872581D01*
X75942313Y-35813155D01*
X75908667Y-35780425D01*
X75827427Y-35682657D01*
X75764591Y-35571871D01*
X75731870Y-35489143D01*
X75717959Y-35428729D01*
X75710151Y-35353328D01*
X75708446Y-35271363D01*
X75712843Y-35191255D01*
X75723342Y-35121425D01*
X75731870Y-35090000D01*
X75786652Y-34963926D01*
X75860063Y-34852953D01*
X75951009Y-34758176D01*
X76058398Y-34680686D01*
X76181138Y-34621576D01*
X76211048Y-34610822D01*
X76271462Y-34596912D01*
X76346863Y-34589104D01*
X76428828Y-34587398D01*
X76508937Y-34591795D01*
X76578766Y-34602294D01*
X76610191Y-34610822D01*
X76736266Y-34665605D01*
X76847238Y-34739015D01*
X76942016Y-34829961D01*
X77019506Y-34937350D01*
X77078616Y-35060090D01*
X77089369Y-35090000D01*
X77104750Y-35156964D01*
X77112420Y-35238331D01*
X77112474Y-35325611D01*
X77534309Y-35325611D01*
X77535424Y-35288446D01*
X77532184Y-35185096D01*
X77522602Y-35089639D01*
X77507086Y-35011381D01*
X77452458Y-34855225D01*
X77377276Y-34710192D01*
X77283283Y-34578027D01*
X77172222Y-34460473D01*
X77045835Y-34359272D01*
X76905867Y-34276167D01*
X76754060Y-34212903D01*
X76688810Y-34193106D01*
X76608636Y-34177317D01*
X76512928Y-34167871D01*
X76409494Y-34164767D01*
X76306144Y-34168007D01*
G36*
X72121191Y-34168007D02*
G01*
X72025735Y-34177590D01*
X71947477Y-34193106D01*
X71791320Y-34247733D01*
X71646287Y-34322915D01*
X71514122Y-34416908D01*
X71396568Y-34527970D01*
X71295367Y-34654356D01*
X71212263Y-34794324D01*
X71148998Y-34946131D01*
X71129201Y-35011381D01*
X71113412Y-35091555D01*
X71103966Y-35187264D01*
X71100863Y-35290698D01*
X71104102Y-35394048D01*
X71113685Y-35489504D01*
X71129201Y-35567762D01*
X71183217Y-35722228D01*
X71257562Y-35866114D01*
X71350359Y-35997543D01*
X71459729Y-36114639D01*
X71583792Y-36215527D01*
X71720671Y-36298329D01*
X71868486Y-36361171D01*
X71947477Y-36384929D01*
X72027788Y-36400738D01*
X72121724Y-36411184D01*
X72220721Y-36415934D01*
X72316213Y-36414653D01*
X72399635Y-36407006D01*
X72421107Y-36403406D01*
X72581509Y-36360848D01*
X72731681Y-36297213D01*
X72869954Y-36214053D01*
X72994655Y-36112916D01*
X73104113Y-35995354D01*
X73196657Y-35862916D01*
X73270615Y-35717153D01*
X73322133Y-35567762D01*
X73337922Y-35487589D01*
X73347368Y-35391880D01*
X73349356Y-35325611D01*
X72927522Y-35325611D01*
X72920058Y-35410310D01*
X72905171Y-35483937D01*
X72899746Y-35501239D01*
X72845027Y-35624354D01*
X72771887Y-35732993D01*
X72682091Y-35825575D01*
X72577402Y-35900522D01*
X72459585Y-35956254D01*
X72358715Y-35985586D01*
X72296968Y-35993046D01*
X72221366Y-35993367D01*
X72140938Y-35987247D01*
X72064715Y-35975379D01*
X72001729Y-35958460D01*
X72000459Y-35957999D01*
X71907945Y-35918827D01*
X71830085Y-35872581D01*
X71757361Y-35813155D01*
X71723715Y-35780425D01*
X71642149Y-35684546D01*
X71583011Y-35583827D01*
X71544947Y-35474934D01*
X71526602Y-35354534D01*
X71524402Y-35289572D01*
X71526108Y-35213057D01*
X71531719Y-35153993D01*
X71541972Y-35105849D01*
X71546918Y-35090000D01*
X71601700Y-34963926D01*
X71675110Y-34852953D01*
X71766057Y-34758176D01*
X71873446Y-34680686D01*
X71996186Y-34621576D01*
X72026096Y-34610822D01*
X72086510Y-34596912D01*
X72161911Y-34589104D01*
X72243876Y-34587398D01*
X72323984Y-34591795D01*
X72393814Y-34602294D01*
X72425239Y-34610822D01*
X72551313Y-34665605D01*
X72662286Y-34739015D01*
X72757063Y-34829961D01*
X72834553Y-34937350D01*
X72893663Y-35060090D01*
X72904417Y-35090000D01*
X72919798Y-35156964D01*
X72927467Y-35238331D01*
X72927522Y-35325611D01*
X73349356Y-35325611D01*
X73350472Y-35288446D01*
X73347232Y-35185096D01*
X73337650Y-35089639D01*
X73322133Y-35011381D01*
X73267506Y-34855225D01*
X73192324Y-34710192D01*
X73098331Y-34578027D01*
X72987269Y-34460473D01*
X72860883Y-34359272D01*
X72720915Y-34276167D01*
X72569108Y-34212903D01*
X72503858Y-34193106D01*
X72423684Y-34177317D01*
X72327975Y-34167871D01*
X72224541Y-34164767D01*
X72121191Y-34168007D01*
G37*
X72121191Y-34168007D02*
X72025735Y-34177590D01*
X71947477Y-34193106D01*
X71791320Y-34247733D01*
X71646287Y-34322915D01*
X71514122Y-34416908D01*
X71396568Y-34527970D01*
X71295367Y-34654356D01*
X71212263Y-34794324D01*
X71148998Y-34946131D01*
X71129201Y-35011381D01*
X71113412Y-35091555D01*
X71103966Y-35187264D01*
X71100863Y-35290698D01*
X71104102Y-35394048D01*
X71113685Y-35489504D01*
X71129201Y-35567762D01*
X71183217Y-35722228D01*
X71257562Y-35866114D01*
X71350359Y-35997543D01*
X71459729Y-36114639D01*
X71583792Y-36215527D01*
X71720671Y-36298329D01*
X71868486Y-36361171D01*
X71947477Y-36384929D01*
X72027788Y-36400738D01*
X72121724Y-36411184D01*
X72220721Y-36415934D01*
X72316213Y-36414653D01*
X72399635Y-36407006D01*
X72421107Y-36403406D01*
X72581509Y-36360848D01*
X72731681Y-36297213D01*
X72869954Y-36214053D01*
X72994655Y-36112916D01*
X73104113Y-35995354D01*
X73196657Y-35862916D01*
X73270615Y-35717153D01*
X73322133Y-35567762D01*
X73337922Y-35487589D01*
X73347368Y-35391880D01*
X73349356Y-35325611D01*
X72927522Y-35325611D01*
X72920058Y-35410310D01*
X72905171Y-35483937D01*
X72899746Y-35501239D01*
X72845027Y-35624354D01*
X72771887Y-35732993D01*
X72682091Y-35825575D01*
X72577402Y-35900522D01*
X72459585Y-35956254D01*
X72358715Y-35985586D01*
X72296968Y-35993046D01*
X72221366Y-35993367D01*
X72140938Y-35987247D01*
X72064715Y-35975379D01*
X72001729Y-35958460D01*
X72000459Y-35957999D01*
X71907945Y-35918827D01*
X71830085Y-35872581D01*
X71757361Y-35813155D01*
X71723715Y-35780425D01*
X71642149Y-35684546D01*
X71583011Y-35583827D01*
X71544947Y-35474934D01*
X71526602Y-35354534D01*
X71524402Y-35289572D01*
X71526108Y-35213057D01*
X71531719Y-35153993D01*
X71541972Y-35105849D01*
X71546918Y-35090000D01*
X71601700Y-34963926D01*
X71675110Y-34852953D01*
X71766057Y-34758176D01*
X71873446Y-34680686D01*
X71996186Y-34621576D01*
X72026096Y-34610822D01*
X72086510Y-34596912D01*
X72161911Y-34589104D01*
X72243876Y-34587398D01*
X72323984Y-34591795D01*
X72393814Y-34602294D01*
X72425239Y-34610822D01*
X72551313Y-34665605D01*
X72662286Y-34739015D01*
X72757063Y-34829961D01*
X72834553Y-34937350D01*
X72893663Y-35060090D01*
X72904417Y-35090000D01*
X72919798Y-35156964D01*
X72927467Y-35238331D01*
X72927522Y-35325611D01*
X73349356Y-35325611D01*
X73350472Y-35288446D01*
X73347232Y-35185096D01*
X73337650Y-35089639D01*
X73322133Y-35011381D01*
X73267506Y-34855225D01*
X73192324Y-34710192D01*
X73098331Y-34578027D01*
X72987269Y-34460473D01*
X72860883Y-34359272D01*
X72720915Y-34276167D01*
X72569108Y-34212903D01*
X72503858Y-34193106D01*
X72423684Y-34177317D01*
X72327975Y-34167871D01*
X72224541Y-34164767D01*
X72121191Y-34168007D01*
G36*
X73328793Y-36192169D02*
G01*
X73308604Y-36197713D01*
X73278875Y-36208386D01*
X73250271Y-36223674D01*
X73218476Y-36246745D01*
X73179175Y-36280768D01*
X73128054Y-36328913D01*
X73121956Y-36334790D01*
X72999762Y-36452726D01*
X72751526Y-36557554D01*
X72503290Y-36662381D01*
X71960410Y-36662381D01*
X71700159Y-36552063D01*
X71597132Y-36507324D01*
X71512888Y-36468468D01*
X71448590Y-36436065D01*
X71405402Y-36410687D01*
X71391840Y-36400600D01*
X71332759Y-36362577D01*
X71261617Y-36335686D01*
X71189466Y-36323926D01*
X71179429Y-36323715D01*
X71092740Y-36335337D01*
X71013065Y-36370018D01*
X70942783Y-36425735D01*
X70933248Y-36434349D01*
X70924320Y-36441019D01*
X70915981Y-36446530D01*
X70908210Y-36451664D01*
X70900987Y-36457206D01*
X70894292Y-36463939D01*
X70888106Y-36472646D01*
X70882409Y-36484111D01*
X70877180Y-36499116D01*
X70872401Y-36518447D01*
X70868051Y-36542885D01*
X70864110Y-36573215D01*
X70860558Y-36610219D01*
X70857376Y-36654682D01*
X70854544Y-36707386D01*
X70852041Y-36769116D01*
X70849849Y-36840654D01*
X70847946Y-36922785D01*
X70846314Y-37016291D01*
X70844932Y-37121955D01*
X70843781Y-37240563D01*
X70842841Y-37372896D01*
X70842091Y-37519738D01*
X70841512Y-37681873D01*
X70841085Y-37860084D01*
X70840788Y-38055154D01*
X70840603Y-38267868D01*
X70840510Y-38499008D01*
X70840488Y-38749358D01*
X70840518Y-39019701D01*
X70840580Y-39310821D01*
X70840654Y-39623502D01*
X70840720Y-39958525D01*
X70840759Y-40316676D01*
X70840762Y-40450386D01*
X70840762Y-44282381D01*
X74433048Y-44282381D01*
X74433048Y-42122624D01*
X74573252Y-41983884D01*
X75957602Y-41988646D01*
X76139719Y-41989346D01*
X76315809Y-41990165D01*
X76484277Y-41991089D01*
X76643524Y-41992102D01*
X76791955Y-41993191D01*
X76927972Y-41994338D01*
X77049977Y-41995531D01*
X77156374Y-41996754D01*
X77245566Y-41997992D01*
X77315956Y-41999230D01*
X77365947Y-42000454D01*
X77393941Y-42001648D01*
X77398434Y-42002084D01*
X77478561Y-42002591D01*
X77555500Y-41979447D01*
X77627999Y-41933114D01*
X77657018Y-41906656D01*
X77668610Y-41895873D01*
X77679297Y-41886988D01*
X77689117Y-41879030D01*
X77698105Y-41871027D01*
X77706299Y-41862008D01*
X77713734Y-41851003D01*
X77720447Y-41837039D01*
X77726474Y-41819145D01*
X77731853Y-41796349D01*
X77736619Y-41767682D01*
X77740809Y-41732170D01*
X77744459Y-41688843D01*
X77747606Y-41636729D01*
X77750287Y-41574857D01*
X77752537Y-41502256D01*
X77754394Y-41417954D01*
X77755893Y-41320980D01*
X77757072Y-41210363D01*
X77757966Y-41085131D01*
X77758612Y-40944313D01*
X77759047Y-40786937D01*
X77759308Y-40612033D01*
X77759430Y-40418628D01*
X77759450Y-40205752D01*
X77759404Y-39972432D01*
X77759329Y-39717699D01*
X77759262Y-39440580D01*
X77759239Y-39184239D01*
X77759270Y-38887141D01*
X77759340Y-38613262D01*
X77759412Y-38361632D01*
X77759450Y-38131277D01*
X77759418Y-37921228D01*
X77759278Y-37730512D01*
X77758995Y-37558159D01*
X77758532Y-37403196D01*
X77757853Y-37264654D01*
X77756921Y-37141560D01*
X77755701Y-37032943D01*
X77754154Y-36937832D01*
X77752246Y-36855255D01*
X77749940Y-36784241D01*
X77747199Y-36723820D01*
X77743987Y-36673018D01*
X77740268Y-36630866D01*
X77736005Y-36596392D01*
X77731161Y-36568624D01*
X77725701Y-36546591D01*
X77719588Y-36529322D01*
X77712785Y-36515845D01*
X77705257Y-36505190D01*
X77696966Y-36496385D01*
X77687877Y-36488458D01*
X77677952Y-36480438D01*
X77667156Y-36471354D01*
X77657218Y-36462021D01*
X77584981Y-36405121D01*
X77505092Y-36371039D01*
X77420299Y-36360000D01*
X77358452Y-36367341D01*
X77293136Y-36386787D01*
X77236365Y-36414475D01*
X77223479Y-36423297D01*
X77201045Y-36436510D01*
X77160115Y-36457114D01*
X77104563Y-36483299D01*
X77038267Y-36513256D01*
X76965099Y-36545173D01*
X76936479Y-36557364D01*
X76688242Y-36662381D01*
X76145889Y-36662381D01*
X75638643Y-36452051D01*
X75530448Y-36345998D01*
X75464506Y-36284590D01*
X75408102Y-36240177D01*
X75356690Y-36210086D01*
X75305725Y-36191644D01*
X75252132Y-36182327D01*
X75163745Y-36183957D01*
X75083335Y-36208239D01*
X75009856Y-36255554D01*
X74982793Y-36280393D01*
X74964493Y-36298435D01*
X74948514Y-36314658D01*
X74934699Y-36330746D01*
X74922891Y-36348382D01*
X74912934Y-36369251D01*
X74904669Y-36395036D01*
X74897940Y-36427422D01*
X74892589Y-36468091D01*
X74888460Y-36518728D01*
X74885396Y-36581017D01*
X74883239Y-36656641D01*
X74881832Y-36747284D01*
X74881018Y-36854631D01*
X74880640Y-36980364D01*
X74880541Y-37126169D01*
X74880564Y-37293728D01*
X74880572Y-37376000D01*
X74880622Y-37548269D01*
X74880794Y-37698044D01*
X74881122Y-37827024D01*
X74881639Y-37936906D01*
X74882378Y-38029387D01*
X74883375Y-38106166D01*
X74884661Y-38168939D01*
X74886271Y-38219404D01*
X74888239Y-38259258D01*
X74890597Y-38290200D01*
X74893379Y-38313925D01*
X74896620Y-38332133D01*
X74899733Y-38344448D01*
X74903384Y-38355857D01*
X74908245Y-38367564D01*
X74915345Y-38380661D01*
X74925718Y-38396235D01*
X74940392Y-38415377D01*
X74960401Y-38439176D01*
X74986773Y-38468722D01*
X75020541Y-38505104D01*
X75062736Y-38549412D01*
X75114388Y-38602736D01*
X75176529Y-38666165D01*
X75250189Y-38740789D01*
X75336400Y-38827697D01*
X75436193Y-38927980D01*
X75550598Y-39042725D01*
X75680646Y-39173024D01*
X75740352Y-39232822D01*
X76561810Y-40055501D01*
X76561810Y-40515039D01*
X76395344Y-40681186D01*
X76228878Y-40847334D01*
X75758854Y-40847334D01*
X74757394Y-39846453D01*
X73755935Y-38845572D01*
X73755825Y-37659410D01*
X73755842Y-37456120D01*
X73755863Y-37275570D01*
X73755779Y-37116308D01*
X73755483Y-36976884D01*
X73754867Y-36855846D01*
X73753825Y-36751745D01*
X73752249Y-36663128D01*
X73750030Y-36588545D01*
X73747063Y-36526545D01*
X73743238Y-36475678D01*
X73738450Y-36434492D01*
X73732590Y-36401537D01*
X73725550Y-36375361D01*
X73717225Y-36354514D01*
X73707505Y-36337545D01*
X73696283Y-36323003D01*
X73683453Y-36309437D01*
X73668906Y-36295396D01*
X73653694Y-36280593D01*
X73582230Y-36223695D01*
X73504634Y-36190082D01*
X73420342Y-36179618D01*
X73328793Y-36192169D01*
G37*
X73328793Y-36192169D02*
X73308604Y-36197713D01*
X73278875Y-36208386D01*
X73250271Y-36223674D01*
X73218476Y-36246745D01*
X73179175Y-36280768D01*
X73128054Y-36328913D01*
X73121956Y-36334790D01*
X72999762Y-36452726D01*
X72751526Y-36557554D01*
X72503290Y-36662381D01*
X71960410Y-36662381D01*
X71700159Y-36552063D01*
X71597132Y-36507324D01*
X71512888Y-36468468D01*
X71448590Y-36436065D01*
X71405402Y-36410687D01*
X71391840Y-36400600D01*
X71332759Y-36362577D01*
X71261617Y-36335686D01*
X71189466Y-36323926D01*
X71179429Y-36323715D01*
X71092740Y-36335337D01*
X71013065Y-36370018D01*
X70942783Y-36425735D01*
X70933248Y-36434349D01*
X70924320Y-36441019D01*
X70915981Y-36446530D01*
X70908210Y-36451664D01*
X70900987Y-36457206D01*
X70894292Y-36463939D01*
X70888106Y-36472646D01*
X70882409Y-36484111D01*
X70877180Y-36499116D01*
X70872401Y-36518447D01*
X70868051Y-36542885D01*
X70864110Y-36573215D01*
X70860558Y-36610219D01*
X70857376Y-36654682D01*
X70854544Y-36707386D01*
X70852041Y-36769116D01*
X70849849Y-36840654D01*
X70847946Y-36922785D01*
X70846314Y-37016291D01*
X70844932Y-37121955D01*
X70843781Y-37240563D01*
X70842841Y-37372896D01*
X70842091Y-37519738D01*
X70841512Y-37681873D01*
X70841085Y-37860084D01*
X70840788Y-38055154D01*
X70840603Y-38267868D01*
X70840510Y-38499008D01*
X70840488Y-38749358D01*
X70840518Y-39019701D01*
X70840580Y-39310821D01*
X70840654Y-39623502D01*
X70840720Y-39958525D01*
X70840759Y-40316676D01*
X70840762Y-40450386D01*
X70840762Y-44282381D01*
X74433048Y-44282381D01*
X74433048Y-42122624D01*
X74573252Y-41983884D01*
X75957602Y-41988646D01*
X76139719Y-41989346D01*
X76315809Y-41990165D01*
X76484277Y-41991089D01*
X76643524Y-41992102D01*
X76791955Y-41993191D01*
X76927972Y-41994338D01*
X77049977Y-41995531D01*
X77156374Y-41996754D01*
X77245566Y-41997992D01*
X77315956Y-41999230D01*
X77365947Y-42000454D01*
X77393941Y-42001648D01*
X77398434Y-42002084D01*
X77478561Y-42002591D01*
X77555500Y-41979447D01*
X77627999Y-41933114D01*
X77657018Y-41906656D01*
X77668610Y-41895873D01*
X77679297Y-41886988D01*
X77689117Y-41879030D01*
X77698105Y-41871027D01*
X77706299Y-41862008D01*
X77713734Y-41851003D01*
X77720447Y-41837039D01*
X77726474Y-41819145D01*
X77731853Y-41796349D01*
X77736619Y-41767682D01*
X77740809Y-41732170D01*
X77744459Y-41688843D01*
X77747606Y-41636729D01*
X77750287Y-41574857D01*
X77752537Y-41502256D01*
X77754394Y-41417954D01*
X77755893Y-41320980D01*
X77757072Y-41210363D01*
X77757966Y-41085131D01*
X77758612Y-40944313D01*
X77759047Y-40786937D01*
X77759308Y-40612033D01*
X77759430Y-40418628D01*
X77759450Y-40205752D01*
X77759404Y-39972432D01*
X77759329Y-39717699D01*
X77759262Y-39440580D01*
X77759239Y-39184239D01*
X77759270Y-38887141D01*
X77759340Y-38613262D01*
X77759412Y-38361632D01*
X77759450Y-38131277D01*
X77759418Y-37921228D01*
X77759278Y-37730512D01*
X77758995Y-37558159D01*
X77758532Y-37403196D01*
X77757853Y-37264654D01*
X77756921Y-37141560D01*
X77755701Y-37032943D01*
X77754154Y-36937832D01*
X77752246Y-36855255D01*
X77749940Y-36784241D01*
X77747199Y-36723820D01*
X77743987Y-36673018D01*
X77740268Y-36630866D01*
X77736005Y-36596392D01*
X77731161Y-36568624D01*
X77725701Y-36546591D01*
X77719588Y-36529322D01*
X77712785Y-36515845D01*
X77705257Y-36505190D01*
X77696966Y-36496385D01*
X77687877Y-36488458D01*
X77677952Y-36480438D01*
X77667156Y-36471354D01*
X77657218Y-36462021D01*
X77584981Y-36405121D01*
X77505092Y-36371039D01*
X77420299Y-36360000D01*
X77358452Y-36367341D01*
X77293136Y-36386787D01*
X77236365Y-36414475D01*
X77223479Y-36423297D01*
X77201045Y-36436510D01*
X77160115Y-36457114D01*
X77104563Y-36483299D01*
X77038267Y-36513256D01*
X76965099Y-36545173D01*
X76936479Y-36557364D01*
X76688242Y-36662381D01*
X76145889Y-36662381D01*
X75638643Y-36452051D01*
X75530448Y-36345998D01*
X75464506Y-36284590D01*
X75408102Y-36240177D01*
X75356690Y-36210086D01*
X75305725Y-36191644D01*
X75252132Y-36182327D01*
X75163745Y-36183957D01*
X75083335Y-36208239D01*
X75009856Y-36255554D01*
X74982793Y-36280393D01*
X74964493Y-36298435D01*
X74948514Y-36314658D01*
X74934699Y-36330746D01*
X74922891Y-36348382D01*
X74912934Y-36369251D01*
X74904669Y-36395036D01*
X74897940Y-36427422D01*
X74892589Y-36468091D01*
X74888460Y-36518728D01*
X74885396Y-36581017D01*
X74883239Y-36656641D01*
X74881832Y-36747284D01*
X74881018Y-36854631D01*
X74880640Y-36980364D01*
X74880541Y-37126169D01*
X74880564Y-37293728D01*
X74880572Y-37376000D01*
X74880622Y-37548269D01*
X74880794Y-37698044D01*
X74881122Y-37827024D01*
X74881639Y-37936906D01*
X74882378Y-38029387D01*
X74883375Y-38106166D01*
X74884661Y-38168939D01*
X74886271Y-38219404D01*
X74888239Y-38259258D01*
X74890597Y-38290200D01*
X74893379Y-38313925D01*
X74896620Y-38332133D01*
X74899733Y-38344448D01*
X74903384Y-38355857D01*
X74908245Y-38367564D01*
X74915345Y-38380661D01*
X74925718Y-38396235D01*
X74940392Y-38415377D01*
X74960401Y-38439176D01*
X74986773Y-38468722D01*
X75020541Y-38505104D01*
X75062736Y-38549412D01*
X75114388Y-38602736D01*
X75176529Y-38666165D01*
X75250189Y-38740789D01*
X75336400Y-38827697D01*
X75436193Y-38927980D01*
X75550598Y-39042725D01*
X75680646Y-39173024D01*
X75740352Y-39232822D01*
X76561810Y-40055501D01*
X76561810Y-40515039D01*
X76395344Y-40681186D01*
X76228878Y-40847334D01*
X75758854Y-40847334D01*
X74757394Y-39846453D01*
X73755935Y-38845572D01*
X73755825Y-37659410D01*
X73755842Y-37456120D01*
X73755863Y-37275570D01*
X73755779Y-37116308D01*
X73755483Y-36976884D01*
X73754867Y-36855846D01*
X73753825Y-36751745D01*
X73752249Y-36663128D01*
X73750030Y-36588545D01*
X73747063Y-36526545D01*
X73743238Y-36475678D01*
X73738450Y-36434492D01*
X73732590Y-36401537D01*
X73725550Y-36375361D01*
X73717225Y-36354514D01*
X73707505Y-36337545D01*
X73696283Y-36323003D01*
X73683453Y-36309437D01*
X73668906Y-36295396D01*
X73653694Y-36280593D01*
X73582230Y-36223695D01*
X73504634Y-36190082D01*
X73420342Y-36179618D01*
X73328793Y-36192169D01*
G36*
X168878809Y-34168007D02*
G01*
X168974265Y-34177590D01*
X169052523Y-34193106D01*
X169208680Y-34247733D01*
X169353713Y-34322915D01*
X169485878Y-34416908D01*
X169603432Y-34527970D01*
X169704633Y-34654356D01*
X169787737Y-34794324D01*
X169851002Y-34946131D01*
X169870799Y-35011381D01*
X169886588Y-35091555D01*
X169896034Y-35187264D01*
X169899137Y-35290698D01*
X169895898Y-35394048D01*
X169886315Y-35489504D01*
X169870799Y-35567762D01*
X169816783Y-35722228D01*
X169742438Y-35866114D01*
X169649641Y-35997543D01*
X169540271Y-36114639D01*
X169416208Y-36215527D01*
X169279329Y-36298329D01*
X169131514Y-36361171D01*
X169052523Y-36384929D01*
X168972212Y-36400738D01*
X168878276Y-36411184D01*
X168779279Y-36415934D01*
X168683787Y-36414653D01*
X168600365Y-36407006D01*
X168578893Y-36403406D01*
X168418491Y-36360848D01*
X168268319Y-36297213D01*
X168130046Y-36214053D01*
X168005345Y-36112916D01*
X167895887Y-35995354D01*
X167803343Y-35862916D01*
X167729385Y-35717153D01*
X167677867Y-35567762D01*
X167662078Y-35487589D01*
X167652632Y-35391880D01*
X167650644Y-35325611D01*
X168072478Y-35325611D01*
X168079942Y-35410310D01*
X168094829Y-35483937D01*
X168100254Y-35501239D01*
X168154973Y-35624354D01*
X168228113Y-35732993D01*
X168317909Y-35825575D01*
X168422598Y-35900522D01*
X168540415Y-35956254D01*
X168641285Y-35985586D01*
X168703032Y-35993046D01*
X168778634Y-35993367D01*
X168859062Y-35987247D01*
X168935285Y-35975379D01*
X168998271Y-35958460D01*
X168999541Y-35957999D01*
X169092055Y-35918827D01*
X169169915Y-35872581D01*
X169242639Y-35813155D01*
X169276285Y-35780425D01*
X169357851Y-35684546D01*
X169416989Y-35583827D01*
X169455053Y-35474934D01*
X169473398Y-35354534D01*
X169475598Y-35289572D01*
X169473892Y-35213057D01*
X169468281Y-35153993D01*
X169458028Y-35105849D01*
X169453082Y-35090000D01*
X169398300Y-34963926D01*
X169324890Y-34852953D01*
X169233943Y-34758176D01*
X169126554Y-34680686D01*
X169003814Y-34621576D01*
X168973904Y-34610822D01*
X168913490Y-34596912D01*
X168838089Y-34589104D01*
X168756124Y-34587398D01*
X168676016Y-34591795D01*
X168606186Y-34602294D01*
X168574761Y-34610822D01*
X168448687Y-34665605D01*
X168337714Y-34739015D01*
X168242937Y-34829961D01*
X168165447Y-34937350D01*
X168106337Y-35060090D01*
X168095583Y-35090000D01*
X168080202Y-35156964D01*
X168072533Y-35238331D01*
X168072478Y-35325611D01*
X167650644Y-35325611D01*
X167649528Y-35288446D01*
X167652768Y-35185096D01*
X167662350Y-35089639D01*
X167677867Y-35011381D01*
X167732494Y-34855225D01*
X167807676Y-34710192D01*
X167901669Y-34578027D01*
X168012731Y-34460473D01*
X168139117Y-34359272D01*
X168279085Y-34276167D01*
X168430892Y-34212903D01*
X168496142Y-34193106D01*
X168576316Y-34177317D01*
X168672025Y-34167871D01*
X168775459Y-34164767D01*
X168878809Y-34168007D01*
G37*
X168878809Y-34168007D02*
X168974265Y-34177590D01*
X169052523Y-34193106D01*
X169208680Y-34247733D01*
X169353713Y-34322915D01*
X169485878Y-34416908D01*
X169603432Y-34527970D01*
X169704633Y-34654356D01*
X169787737Y-34794324D01*
X169851002Y-34946131D01*
X169870799Y-35011381D01*
X169886588Y-35091555D01*
X169896034Y-35187264D01*
X169899137Y-35290698D01*
X169895898Y-35394048D01*
X169886315Y-35489504D01*
X169870799Y-35567762D01*
X169816783Y-35722228D01*
X169742438Y-35866114D01*
X169649641Y-35997543D01*
X169540271Y-36114639D01*
X169416208Y-36215527D01*
X169279329Y-36298329D01*
X169131514Y-36361171D01*
X169052523Y-36384929D01*
X168972212Y-36400738D01*
X168878276Y-36411184D01*
X168779279Y-36415934D01*
X168683787Y-36414653D01*
X168600365Y-36407006D01*
X168578893Y-36403406D01*
X168418491Y-36360848D01*
X168268319Y-36297213D01*
X168130046Y-36214053D01*
X168005345Y-36112916D01*
X167895887Y-35995354D01*
X167803343Y-35862916D01*
X167729385Y-35717153D01*
X167677867Y-35567762D01*
X167662078Y-35487589D01*
X167652632Y-35391880D01*
X167650644Y-35325611D01*
X168072478Y-35325611D01*
X168079942Y-35410310D01*
X168094829Y-35483937D01*
X168100254Y-35501239D01*
X168154973Y-35624354D01*
X168228113Y-35732993D01*
X168317909Y-35825575D01*
X168422598Y-35900522D01*
X168540415Y-35956254D01*
X168641285Y-35985586D01*
X168703032Y-35993046D01*
X168778634Y-35993367D01*
X168859062Y-35987247D01*
X168935285Y-35975379D01*
X168998271Y-35958460D01*
X168999541Y-35957999D01*
X169092055Y-35918827D01*
X169169915Y-35872581D01*
X169242639Y-35813155D01*
X169276285Y-35780425D01*
X169357851Y-35684546D01*
X169416989Y-35583827D01*
X169455053Y-35474934D01*
X169473398Y-35354534D01*
X169475598Y-35289572D01*
X169473892Y-35213057D01*
X169468281Y-35153993D01*
X169458028Y-35105849D01*
X169453082Y-35090000D01*
X169398300Y-34963926D01*
X169324890Y-34852953D01*
X169233943Y-34758176D01*
X169126554Y-34680686D01*
X169003814Y-34621576D01*
X168973904Y-34610822D01*
X168913490Y-34596912D01*
X168838089Y-34589104D01*
X168756124Y-34587398D01*
X168676016Y-34591795D01*
X168606186Y-34602294D01*
X168574761Y-34610822D01*
X168448687Y-34665605D01*
X168337714Y-34739015D01*
X168242937Y-34829961D01*
X168165447Y-34937350D01*
X168106337Y-35060090D01*
X168095583Y-35090000D01*
X168080202Y-35156964D01*
X168072533Y-35238331D01*
X168072478Y-35325611D01*
X167650644Y-35325611D01*
X167649528Y-35288446D01*
X167652768Y-35185096D01*
X167662350Y-35089639D01*
X167677867Y-35011381D01*
X167732494Y-34855225D01*
X167807676Y-34710192D01*
X167901669Y-34578027D01*
X168012731Y-34460473D01*
X168139117Y-34359272D01*
X168279085Y-34276167D01*
X168430892Y-34212903D01*
X168496142Y-34193106D01*
X168576316Y-34177317D01*
X168672025Y-34167871D01*
X168775459Y-34164767D01*
X168878809Y-34168007D01*
G36*
X164693856Y-34168007D02*
G01*
X164789313Y-34177590D01*
X164867571Y-34193106D01*
X165023728Y-34247733D01*
X165168760Y-34322915D01*
X165300925Y-34416908D01*
X165418480Y-34527970D01*
X165519681Y-34654356D01*
X165602785Y-34794324D01*
X165666050Y-34946131D01*
X165685847Y-35011381D01*
X165701636Y-35091555D01*
X165711082Y-35187264D01*
X165714185Y-35290698D01*
X165710945Y-35394048D01*
X165701363Y-35489504D01*
X165685847Y-35567762D01*
X165631831Y-35722228D01*
X165557485Y-35866114D01*
X165464688Y-35997543D01*
X165355319Y-36114639D01*
X165231255Y-36215527D01*
X165094377Y-36298329D01*
X164946561Y-36361171D01*
X164867571Y-36384929D01*
X164787260Y-36400738D01*
X164693323Y-36411184D01*
X164594326Y-36415934D01*
X164498834Y-36414653D01*
X164415412Y-36407006D01*
X164393940Y-36403406D01*
X164233539Y-36360848D01*
X164083366Y-36297213D01*
X163945094Y-36214053D01*
X163820392Y-36112916D01*
X163710934Y-35995354D01*
X163618390Y-35862916D01*
X163544433Y-35717153D01*
X163492914Y-35567762D01*
X163477125Y-35487589D01*
X163467679Y-35391880D01*
X163465691Y-35325611D01*
X163887526Y-35325611D01*
X163894990Y-35410310D01*
X163909877Y-35483937D01*
X163915302Y-35501239D01*
X163970021Y-35624354D01*
X164043161Y-35732993D01*
X164132957Y-35825575D01*
X164237646Y-35900522D01*
X164355463Y-35956254D01*
X164456333Y-35985586D01*
X164518079Y-35993046D01*
X164593682Y-35993367D01*
X164674110Y-35987247D01*
X164750332Y-35975379D01*
X164813319Y-35958460D01*
X164814589Y-35957999D01*
X164907103Y-35918827D01*
X164984963Y-35872581D01*
X165057687Y-35813155D01*
X165091333Y-35780425D01*
X165172573Y-35682657D01*
X165235409Y-35571871D01*
X165268130Y-35489143D01*
X165282041Y-35428729D01*
X165289849Y-35353328D01*
X165291554Y-35271363D01*
X165287157Y-35191255D01*
X165276658Y-35121425D01*
X165268130Y-35090000D01*
X165213348Y-34963926D01*
X165139937Y-34852953D01*
X165048991Y-34758176D01*
X164941602Y-34680686D01*
X164818862Y-34621576D01*
X164788952Y-34610822D01*
X164728538Y-34596912D01*
X164653137Y-34589104D01*
X164571172Y-34587398D01*
X164491063Y-34591795D01*
X164421234Y-34602294D01*
X164389809Y-34610822D01*
X164263734Y-34665605D01*
X164152762Y-34739015D01*
X164057984Y-34829961D01*
X163980494Y-34937350D01*
X163921384Y-35060090D01*
X163910631Y-35090000D01*
X163895250Y-35156964D01*
X163887580Y-35238331D01*
X163887526Y-35325611D01*
X163465691Y-35325611D01*
X163464576Y-35288446D01*
X163467816Y-35185096D01*
X163477398Y-35089639D01*
X163492914Y-35011381D01*
X163547542Y-34855225D01*
X163622724Y-34710192D01*
X163716717Y-34578027D01*
X163827778Y-34460473D01*
X163954165Y-34359272D01*
X164094133Y-34276167D01*
X164245940Y-34212903D01*
X164311190Y-34193106D01*
X164391364Y-34177317D01*
X164487072Y-34167871D01*
X164590506Y-34164767D01*
X164693856Y-34168007D01*
G37*
X164693856Y-34168007D02*
X164789313Y-34177590D01*
X164867571Y-34193106D01*
X165023728Y-34247733D01*
X165168760Y-34322915D01*
X165300925Y-34416908D01*
X165418480Y-34527970D01*
X165519681Y-34654356D01*
X165602785Y-34794324D01*
X165666050Y-34946131D01*
X165685847Y-35011381D01*
X165701636Y-35091555D01*
X165711082Y-35187264D01*
X165714185Y-35290698D01*
X165710945Y-35394048D01*
X165701363Y-35489504D01*
X165685847Y-35567762D01*
X165631831Y-35722228D01*
X165557485Y-35866114D01*
X165464688Y-35997543D01*
X165355319Y-36114639D01*
X165231255Y-36215527D01*
X165094377Y-36298329D01*
X164946561Y-36361171D01*
X164867571Y-36384929D01*
X164787260Y-36400738D01*
X164693323Y-36411184D01*
X164594326Y-36415934D01*
X164498834Y-36414653D01*
X164415412Y-36407006D01*
X164393940Y-36403406D01*
X164233539Y-36360848D01*
X164083366Y-36297213D01*
X163945094Y-36214053D01*
X163820392Y-36112916D01*
X163710934Y-35995354D01*
X163618390Y-35862916D01*
X163544433Y-35717153D01*
X163492914Y-35567762D01*
X163477125Y-35487589D01*
X163467679Y-35391880D01*
X163465691Y-35325611D01*
X163887526Y-35325611D01*
X163894990Y-35410310D01*
X163909877Y-35483937D01*
X163915302Y-35501239D01*
X163970021Y-35624354D01*
X164043161Y-35732993D01*
X164132957Y-35825575D01*
X164237646Y-35900522D01*
X164355463Y-35956254D01*
X164456333Y-35985586D01*
X164518079Y-35993046D01*
X164593682Y-35993367D01*
X164674110Y-35987247D01*
X164750332Y-35975379D01*
X164813319Y-35958460D01*
X164814589Y-35957999D01*
X164907103Y-35918827D01*
X164984963Y-35872581D01*
X165057687Y-35813155D01*
X165091333Y-35780425D01*
X165172573Y-35682657D01*
X165235409Y-35571871D01*
X165268130Y-35489143D01*
X165282041Y-35428729D01*
X165289849Y-35353328D01*
X165291554Y-35271363D01*
X165287157Y-35191255D01*
X165276658Y-35121425D01*
X165268130Y-35090000D01*
X165213348Y-34963926D01*
X165139937Y-34852953D01*
X165048991Y-34758176D01*
X164941602Y-34680686D01*
X164818862Y-34621576D01*
X164788952Y-34610822D01*
X164728538Y-34596912D01*
X164653137Y-34589104D01*
X164571172Y-34587398D01*
X164491063Y-34591795D01*
X164421234Y-34602294D01*
X164389809Y-34610822D01*
X164263734Y-34665605D01*
X164152762Y-34739015D01*
X164057984Y-34829961D01*
X163980494Y-34937350D01*
X163921384Y-35060090D01*
X163910631Y-35090000D01*
X163895250Y-35156964D01*
X163887580Y-35238331D01*
X163887526Y-35325611D01*
X163465691Y-35325611D01*
X163464576Y-35288446D01*
X163467816Y-35185096D01*
X163477398Y-35089639D01*
X163492914Y-35011381D01*
X163547542Y-34855225D01*
X163622724Y-34710192D01*
X163716717Y-34578027D01*
X163827778Y-34460473D01*
X163954165Y-34359272D01*
X164094133Y-34276167D01*
X164245940Y-34212903D01*
X164311190Y-34193106D01*
X164391364Y-34177317D01*
X164487072Y-34167871D01*
X164590506Y-34164767D01*
X164693856Y-34168007D01*
G36*
X166987371Y-36109024D02*
G01*
X166987009Y-36404080D01*
X166986657Y-36675913D01*
X166986308Y-36925493D01*
X166985952Y-37153787D01*
X166985578Y-37361764D01*
X166985179Y-37550392D01*
X166984744Y-37720640D01*
X166984264Y-37873475D01*
X166983730Y-38009867D01*
X166983132Y-38130782D01*
X166982461Y-38237191D01*
X166981708Y-38330060D01*
X166980864Y-38410359D01*
X166979918Y-38479055D01*
X166978862Y-38537118D01*
X166977686Y-38585514D01*
X166976381Y-38625214D01*
X166974938Y-38657184D01*
X166973347Y-38682393D01*
X166971598Y-38701810D01*
X166969684Y-38716403D01*
X166967593Y-38727140D01*
X166965317Y-38734989D01*
X166962846Y-38740920D01*
X166961912Y-38742762D01*
X166949585Y-38758481D01*
X166921432Y-38789744D01*
X166878859Y-38835141D01*
X166823277Y-38893265D01*
X166756092Y-38962705D01*
X166678715Y-39042052D01*
X166592554Y-39129896D01*
X166499016Y-39224829D01*
X166399512Y-39325442D01*
X166295449Y-39430323D01*
X166188236Y-39538066D01*
X166079282Y-39647259D01*
X165969996Y-39756495D01*
X165861785Y-39864363D01*
X165756059Y-39969454D01*
X165654226Y-40070359D01*
X165557694Y-40165669D01*
X165467874Y-40253974D01*
X165386172Y-40333864D01*
X165313998Y-40403932D01*
X165252760Y-40462767D01*
X165203866Y-40508959D01*
X165168727Y-40541101D01*
X165148749Y-40557782D01*
X165146117Y-40559463D01*
X165101190Y-40575603D01*
X165044543Y-40586172D01*
X164986276Y-40590118D01*
X164936487Y-40586393D01*
X164921921Y-40582758D01*
X164840989Y-40543821D01*
X164772631Y-40485559D01*
X164720998Y-40411905D01*
X164704736Y-40362488D01*
X164697800Y-40300147D01*
X164700054Y-40234223D01*
X164711364Y-40174059D01*
X164724923Y-40139762D01*
X164737515Y-40123721D01*
X164766249Y-40091757D01*
X164810066Y-40044956D01*
X164867908Y-39984404D01*
X164938717Y-39911186D01*
X165021433Y-39826390D01*
X165114997Y-39731100D01*
X165218352Y-39626404D01*
X165330438Y-39513386D01*
X165450197Y-39393133D01*
X165556191Y-39287082D01*
X166361333Y-38482783D01*
X166361333Y-33517620D01*
X166990504Y-33517620D01*
X166987371Y-36109024D01*
G37*
X166987371Y-36109024D02*
X166987009Y-36404080D01*
X166986657Y-36675913D01*
X166986308Y-36925493D01*
X166985952Y-37153787D01*
X166985578Y-37361764D01*
X166985179Y-37550392D01*
X166984744Y-37720640D01*
X166984264Y-37873475D01*
X166983730Y-38009867D01*
X166983132Y-38130782D01*
X166982461Y-38237191D01*
X166981708Y-38330060D01*
X166980864Y-38410359D01*
X166979918Y-38479055D01*
X166978862Y-38537118D01*
X166977686Y-38585514D01*
X166976381Y-38625214D01*
X166974938Y-38657184D01*
X166973347Y-38682393D01*
X166971598Y-38701810D01*
X166969684Y-38716403D01*
X166967593Y-38727140D01*
X166965317Y-38734989D01*
X166962846Y-38740920D01*
X166961912Y-38742762D01*
X166949585Y-38758481D01*
X166921432Y-38789744D01*
X166878859Y-38835141D01*
X166823277Y-38893265D01*
X166756092Y-38962705D01*
X166678715Y-39042052D01*
X166592554Y-39129896D01*
X166499016Y-39224829D01*
X166399512Y-39325442D01*
X166295449Y-39430323D01*
X166188236Y-39538066D01*
X166079282Y-39647259D01*
X165969996Y-39756495D01*
X165861785Y-39864363D01*
X165756059Y-39969454D01*
X165654226Y-40070359D01*
X165557694Y-40165669D01*
X165467874Y-40253974D01*
X165386172Y-40333864D01*
X165313998Y-40403932D01*
X165252760Y-40462767D01*
X165203866Y-40508959D01*
X165168727Y-40541101D01*
X165148749Y-40557782D01*
X165146117Y-40559463D01*
X165101190Y-40575603D01*
X165044543Y-40586172D01*
X164986276Y-40590118D01*
X164936487Y-40586393D01*
X164921921Y-40582758D01*
X164840989Y-40543821D01*
X164772631Y-40485559D01*
X164720998Y-40411905D01*
X164704736Y-40362488D01*
X164697800Y-40300147D01*
X164700054Y-40234223D01*
X164711364Y-40174059D01*
X164724923Y-40139762D01*
X164737515Y-40123721D01*
X164766249Y-40091757D01*
X164810066Y-40044956D01*
X164867908Y-39984404D01*
X164938717Y-39911186D01*
X165021433Y-39826390D01*
X165114997Y-39731100D01*
X165218352Y-39626404D01*
X165330438Y-39513386D01*
X165450197Y-39393133D01*
X165556191Y-39287082D01*
X166361333Y-38482783D01*
X166361333Y-33517620D01*
X166990504Y-33517620D01*
X166987371Y-36109024D01*
G36*
X171368761Y-44282381D02*
G01*
X171114761Y-44282381D01*
X171114761Y-33517620D01*
X171368761Y-33517620D01*
X171368761Y-44282381D01*
G37*
X171368761Y-44282381D02*
X171114761Y-44282381D01*
X171114761Y-33517620D01*
X171368761Y-33517620D01*
X171368761Y-44282381D01*
G36*
X170265143Y-33883571D02*
G01*
X170360714Y-33979540D01*
X170440054Y-34060056D01*
X170504376Y-34126426D01*
X170554889Y-34179960D01*
X170592807Y-34221965D01*
X170619340Y-34253750D01*
X170635700Y-34276623D01*
X170643044Y-34291705D01*
X170644189Y-34307877D01*
X170645278Y-34348163D01*
X170646311Y-34412488D01*
X170647288Y-34500777D01*
X170648209Y-34612953D01*
X170649073Y-34748942D01*
X170649881Y-34908668D01*
X170650631Y-35092054D01*
X170651325Y-35299026D01*
X170651961Y-35529507D01*
X170652540Y-35783423D01*
X170653061Y-36060697D01*
X170653525Y-36361253D01*
X170653931Y-36685017D01*
X170654278Y-37031913D01*
X170654567Y-37401864D01*
X170654798Y-37794796D01*
X170654970Y-38210632D01*
X170655083Y-38649298D01*
X170655137Y-39110716D01*
X170655142Y-39308135D01*
X170655142Y-44282381D01*
X170401142Y-44282381D01*
X170401142Y-34370460D01*
X169548556Y-33517620D01*
X169899339Y-33517620D01*
X170265143Y-33883571D01*
G37*
X170265143Y-33883571D02*
X170360714Y-33979540D01*
X170440054Y-34060056D01*
X170504376Y-34126426D01*
X170554889Y-34179960D01*
X170592807Y-34221965D01*
X170619340Y-34253750D01*
X170635700Y-34276623D01*
X170643044Y-34291705D01*
X170644189Y-34307877D01*
X170645278Y-34348163D01*
X170646311Y-34412488D01*
X170647288Y-34500777D01*
X170648209Y-34612953D01*
X170649073Y-34748942D01*
X170649881Y-34908668D01*
X170650631Y-35092054D01*
X170651325Y-35299026D01*
X170651961Y-35529507D01*
X170652540Y-35783423D01*
X170653061Y-36060697D01*
X170653525Y-36361253D01*
X170653931Y-36685017D01*
X170654278Y-37031913D01*
X170654567Y-37401864D01*
X170654798Y-37794796D01*
X170654970Y-38210632D01*
X170655083Y-38649298D01*
X170655137Y-39110716D01*
X170655142Y-39308135D01*
X170655142Y-44282381D01*
X170401142Y-44282381D01*
X170401142Y-34370460D01*
X169548556Y-33517620D01*
X169899339Y-33517620D01*
X170265143Y-33883571D01*
G36*
X167671207Y-36192169D02*
G01*
X167691396Y-36197713D01*
X167721125Y-36208386D01*
X167749729Y-36223674D01*
X167781524Y-36246745D01*
X167820825Y-36280768D01*
X167871946Y-36328913D01*
X167878044Y-36334790D01*
X168000238Y-36452726D01*
X168248474Y-36557554D01*
X168496710Y-36662381D01*
X169039590Y-36662381D01*
X169299841Y-36552063D01*
X169402868Y-36507324D01*
X169487112Y-36468468D01*
X169551410Y-36436065D01*
X169594598Y-36410687D01*
X169608160Y-36400600D01*
X169667241Y-36362577D01*
X169738383Y-36335686D01*
X169810534Y-36323926D01*
X169820571Y-36323715D01*
X169907260Y-36335337D01*
X169986935Y-36370018D01*
X170057217Y-36425735D01*
X170066752Y-36434349D01*
X170075680Y-36441019D01*
X170084019Y-36446530D01*
X170091790Y-36451664D01*
X170099013Y-36457206D01*
X170105708Y-36463939D01*
X170111894Y-36472646D01*
X170117591Y-36484111D01*
X170122820Y-36499116D01*
X170127599Y-36518447D01*
X170131949Y-36542885D01*
X170135890Y-36573215D01*
X170139442Y-36610219D01*
X170142624Y-36654682D01*
X170145456Y-36707386D01*
X170147959Y-36769116D01*
X170150151Y-36840654D01*
X170152054Y-36922785D01*
X170153686Y-37016291D01*
X170155068Y-37121955D01*
X170156219Y-37240563D01*
X170157159Y-37372896D01*
X170157909Y-37519738D01*
X170158488Y-37681873D01*
X170158915Y-37860084D01*
X170159212Y-38055154D01*
X170159397Y-38267868D01*
X170159490Y-38499008D01*
X170159512Y-38749358D01*
X170159482Y-39019701D01*
X170159420Y-39310821D01*
X170159346Y-39623502D01*
X170159280Y-39958525D01*
X170159241Y-40316676D01*
X170159238Y-40450386D01*
X170159238Y-44282381D01*
X166566952Y-44282381D01*
X166566952Y-42122624D01*
X166426748Y-41983884D01*
X165042398Y-41988646D01*
X164860281Y-41989346D01*
X164684191Y-41990165D01*
X164515723Y-41991089D01*
X164356476Y-41992102D01*
X164208045Y-41993191D01*
X164072028Y-41994338D01*
X163950023Y-41995531D01*
X163843626Y-41996754D01*
X163754434Y-41997992D01*
X163684044Y-41999230D01*
X163634053Y-42000454D01*
X163606059Y-42001648D01*
X163601566Y-42002084D01*
X163521439Y-42002591D01*
X163444500Y-41979447D01*
X163372001Y-41933114D01*
X163342982Y-41906656D01*
X163331390Y-41895873D01*
X163320703Y-41886988D01*
X163310883Y-41879030D01*
X163301895Y-41871027D01*
X163293701Y-41862008D01*
X163286266Y-41851003D01*
X163279553Y-41837039D01*
X163273526Y-41819145D01*
X163268147Y-41796349D01*
X163263381Y-41767682D01*
X163259191Y-41732170D01*
X163255541Y-41688843D01*
X163252394Y-41636729D01*
X163249713Y-41574857D01*
X163247463Y-41502256D01*
X163245606Y-41417954D01*
X163244107Y-41320980D01*
X163242928Y-41210363D01*
X163242034Y-41085131D01*
X163241388Y-40944313D01*
X163240953Y-40786937D01*
X163240692Y-40612033D01*
X163240570Y-40418628D01*
X163240550Y-40205752D01*
X163240596Y-39972432D01*
X163240671Y-39717699D01*
X163240738Y-39440580D01*
X163240761Y-39184239D01*
X163240730Y-38887141D01*
X163240660Y-38613262D01*
X163240588Y-38361632D01*
X163240550Y-38131277D01*
X163240582Y-37921228D01*
X163240722Y-37730512D01*
X163241005Y-37558159D01*
X163241468Y-37403196D01*
X163242147Y-37264654D01*
X163243079Y-37141560D01*
X163244299Y-37032943D01*
X163245846Y-36937832D01*
X163247754Y-36855255D01*
X163250060Y-36784241D01*
X163252801Y-36723820D01*
X163256013Y-36673018D01*
X163259732Y-36630866D01*
X163263995Y-36596392D01*
X163268839Y-36568624D01*
X163274299Y-36546591D01*
X163280412Y-36529322D01*
X163287215Y-36515845D01*
X163294743Y-36505190D01*
X163303034Y-36496385D01*
X163312123Y-36488458D01*
X163322048Y-36480438D01*
X163332844Y-36471354D01*
X163342782Y-36462021D01*
X163415019Y-36405121D01*
X163494908Y-36371039D01*
X163579701Y-36360000D01*
X163641548Y-36367341D01*
X163706864Y-36386787D01*
X163763635Y-36414475D01*
X163776521Y-36423297D01*
X163798955Y-36436510D01*
X163839885Y-36457114D01*
X163895437Y-36483299D01*
X163961733Y-36513256D01*
X164034901Y-36545173D01*
X164063521Y-36557364D01*
X164311758Y-36662381D01*
X164854111Y-36662381D01*
X165361357Y-36452051D01*
X165469552Y-36345998D01*
X165535494Y-36284590D01*
X165591898Y-36240177D01*
X165643310Y-36210086D01*
X165694275Y-36191644D01*
X165747868Y-36182327D01*
X165836255Y-36183957D01*
X165916665Y-36208239D01*
X165990144Y-36255554D01*
X166017207Y-36280393D01*
X166035507Y-36298435D01*
X166051486Y-36314658D01*
X166065301Y-36330746D01*
X166077109Y-36348382D01*
X166087066Y-36369251D01*
X166095331Y-36395036D01*
X166102060Y-36427422D01*
X166107411Y-36468091D01*
X166111540Y-36518728D01*
X166114604Y-36581017D01*
X166116761Y-36656641D01*
X166118168Y-36747284D01*
X166118982Y-36854631D01*
X166119360Y-36980364D01*
X166119459Y-37126169D01*
X166119436Y-37293728D01*
X166119428Y-37376000D01*
X166119378Y-37548269D01*
X166119206Y-37698044D01*
X166118878Y-37827024D01*
X166118361Y-37936906D01*
X166117622Y-38029387D01*
X166116625Y-38106166D01*
X166115339Y-38168939D01*
X166113729Y-38219404D01*
X166111761Y-38259258D01*
X166109403Y-38290200D01*
X166106621Y-38313925D01*
X166103380Y-38332133D01*
X166100267Y-38344448D01*
X166096616Y-38355857D01*
X166091755Y-38367564D01*
X166084655Y-38380661D01*
X166074282Y-38396235D01*
X166059608Y-38415377D01*
X166039599Y-38439176D01*
X166013227Y-38468722D01*
X165979459Y-38505104D01*
X165937264Y-38549412D01*
X165885612Y-38602736D01*
X165823471Y-38666165D01*
X165749811Y-38740789D01*
X165663600Y-38827697D01*
X165563807Y-38927980D01*
X165449402Y-39042725D01*
X165319354Y-39173024D01*
X165259648Y-39232822D01*
X164438190Y-40055501D01*
X164438190Y-40515039D01*
X164604656Y-40681186D01*
X164771122Y-40847334D01*
X165241146Y-40847334D01*
X166242606Y-39846453D01*
X167244065Y-38845572D01*
X167244175Y-37659410D01*
X167244158Y-37456120D01*
X167244137Y-37275570D01*
X167244221Y-37116308D01*
X167244517Y-36976884D01*
X167245133Y-36855846D01*
X167246175Y-36751745D01*
X167247751Y-36663128D01*
X167249970Y-36588545D01*
X167252937Y-36526545D01*
X167256762Y-36475678D01*
X167261550Y-36434492D01*
X167267410Y-36401537D01*
X167274450Y-36375361D01*
X167282775Y-36354514D01*
X167292495Y-36337545D01*
X167303717Y-36323003D01*
X167316547Y-36309437D01*
X167331094Y-36295396D01*
X167346306Y-36280593D01*
X167417770Y-36223695D01*
X167495366Y-36190082D01*
X167579658Y-36179618D01*
X167671207Y-36192169D01*
G37*
X167671207Y-36192169D02*
X167691396Y-36197713D01*
X167721125Y-36208386D01*
X167749729Y-36223674D01*
X167781524Y-36246745D01*
X167820825Y-36280768D01*
X167871946Y-36328913D01*
X167878044Y-36334790D01*
X168000238Y-36452726D01*
X168248474Y-36557554D01*
X168496710Y-36662381D01*
X169039590Y-36662381D01*
X169299841Y-36552063D01*
X169402868Y-36507324D01*
X169487112Y-36468468D01*
X169551410Y-36436065D01*
X169594598Y-36410687D01*
X169608160Y-36400600D01*
X169667241Y-36362577D01*
X169738383Y-36335686D01*
X169810534Y-36323926D01*
X169820571Y-36323715D01*
X169907260Y-36335337D01*
X169986935Y-36370018D01*
X170057217Y-36425735D01*
X170066752Y-36434349D01*
X170075680Y-36441019D01*
X170084019Y-36446530D01*
X170091790Y-36451664D01*
X170099013Y-36457206D01*
X170105708Y-36463939D01*
X170111894Y-36472646D01*
X170117591Y-36484111D01*
X170122820Y-36499116D01*
X170127599Y-36518447D01*
X170131949Y-36542885D01*
X170135890Y-36573215D01*
X170139442Y-36610219D01*
X170142624Y-36654682D01*
X170145456Y-36707386D01*
X170147959Y-36769116D01*
X170150151Y-36840654D01*
X170152054Y-36922785D01*
X170153686Y-37016291D01*
X170155068Y-37121955D01*
X170156219Y-37240563D01*
X170157159Y-37372896D01*
X170157909Y-37519738D01*
X170158488Y-37681873D01*
X170158915Y-37860084D01*
X170159212Y-38055154D01*
X170159397Y-38267868D01*
X170159490Y-38499008D01*
X170159512Y-38749358D01*
X170159482Y-39019701D01*
X170159420Y-39310821D01*
X170159346Y-39623502D01*
X170159280Y-39958525D01*
X170159241Y-40316676D01*
X170159238Y-40450386D01*
X170159238Y-44282381D01*
X166566952Y-44282381D01*
X166566952Y-42122624D01*
X166426748Y-41983884D01*
X165042398Y-41988646D01*
X164860281Y-41989346D01*
X164684191Y-41990165D01*
X164515723Y-41991089D01*
X164356476Y-41992102D01*
X164208045Y-41993191D01*
X164072028Y-41994338D01*
X163950023Y-41995531D01*
X163843626Y-41996754D01*
X163754434Y-41997992D01*
X163684044Y-41999230D01*
X163634053Y-42000454D01*
X163606059Y-42001648D01*
X163601566Y-42002084D01*
X163521439Y-42002591D01*
X163444500Y-41979447D01*
X163372001Y-41933114D01*
X163342982Y-41906656D01*
X163331390Y-41895873D01*
X163320703Y-41886988D01*
X163310883Y-41879030D01*
X163301895Y-41871027D01*
X163293701Y-41862008D01*
X163286266Y-41851003D01*
X163279553Y-41837039D01*
X163273526Y-41819145D01*
X163268147Y-41796349D01*
X163263381Y-41767682D01*
X163259191Y-41732170D01*
X163255541Y-41688843D01*
X163252394Y-41636729D01*
X163249713Y-41574857D01*
X163247463Y-41502256D01*
X163245606Y-41417954D01*
X163244107Y-41320980D01*
X163242928Y-41210363D01*
X163242034Y-41085131D01*
X163241388Y-40944313D01*
X163240953Y-40786937D01*
X163240692Y-40612033D01*
X163240570Y-40418628D01*
X163240550Y-40205752D01*
X163240596Y-39972432D01*
X163240671Y-39717699D01*
X163240738Y-39440580D01*
X163240761Y-39184239D01*
X163240730Y-38887141D01*
X163240660Y-38613262D01*
X163240588Y-38361632D01*
X163240550Y-38131277D01*
X163240582Y-37921228D01*
X163240722Y-37730512D01*
X163241005Y-37558159D01*
X163241468Y-37403196D01*
X163242147Y-37264654D01*
X163243079Y-37141560D01*
X163244299Y-37032943D01*
X163245846Y-36937832D01*
X163247754Y-36855255D01*
X163250060Y-36784241D01*
X163252801Y-36723820D01*
X163256013Y-36673018D01*
X163259732Y-36630866D01*
X163263995Y-36596392D01*
X163268839Y-36568624D01*
X163274299Y-36546591D01*
X163280412Y-36529322D01*
X163287215Y-36515845D01*
X163294743Y-36505190D01*
X163303034Y-36496385D01*
X163312123Y-36488458D01*
X163322048Y-36480438D01*
X163332844Y-36471354D01*
X163342782Y-36462021D01*
X163415019Y-36405121D01*
X163494908Y-36371039D01*
X163579701Y-36360000D01*
X163641548Y-36367341D01*
X163706864Y-36386787D01*
X163763635Y-36414475D01*
X163776521Y-36423297D01*
X163798955Y-36436510D01*
X163839885Y-36457114D01*
X163895437Y-36483299D01*
X163961733Y-36513256D01*
X164034901Y-36545173D01*
X164063521Y-36557364D01*
X164311758Y-36662381D01*
X164854111Y-36662381D01*
X165361357Y-36452051D01*
X165469552Y-36345998D01*
X165535494Y-36284590D01*
X165591898Y-36240177D01*
X165643310Y-36210086D01*
X165694275Y-36191644D01*
X165747868Y-36182327D01*
X165836255Y-36183957D01*
X165916665Y-36208239D01*
X165990144Y-36255554D01*
X166017207Y-36280393D01*
X166035507Y-36298435D01*
X166051486Y-36314658D01*
X166065301Y-36330746D01*
X166077109Y-36348382D01*
X166087066Y-36369251D01*
X166095331Y-36395036D01*
X166102060Y-36427422D01*
X166107411Y-36468091D01*
X166111540Y-36518728D01*
X166114604Y-36581017D01*
X166116761Y-36656641D01*
X166118168Y-36747284D01*
X166118982Y-36854631D01*
X166119360Y-36980364D01*
X166119459Y-37126169D01*
X166119436Y-37293728D01*
X166119428Y-37376000D01*
X166119378Y-37548269D01*
X166119206Y-37698044D01*
X166118878Y-37827024D01*
X166118361Y-37936906D01*
X166117622Y-38029387D01*
X166116625Y-38106166D01*
X166115339Y-38168939D01*
X166113729Y-38219404D01*
X166111761Y-38259258D01*
X166109403Y-38290200D01*
X166106621Y-38313925D01*
X166103380Y-38332133D01*
X166100267Y-38344448D01*
X166096616Y-38355857D01*
X166091755Y-38367564D01*
X166084655Y-38380661D01*
X166074282Y-38396235D01*
X166059608Y-38415377D01*
X166039599Y-38439176D01*
X166013227Y-38468722D01*
X165979459Y-38505104D01*
X165937264Y-38549412D01*
X165885612Y-38602736D01*
X165823471Y-38666165D01*
X165749811Y-38740789D01*
X165663600Y-38827697D01*
X165563807Y-38927980D01*
X165449402Y-39042725D01*
X165319354Y-39173024D01*
X165259648Y-39232822D01*
X164438190Y-40055501D01*
X164438190Y-40515039D01*
X164604656Y-40681186D01*
X164771122Y-40847334D01*
X165241146Y-40847334D01*
X166242606Y-39846453D01*
X167244065Y-38845572D01*
X167244175Y-37659410D01*
X167244158Y-37456120D01*
X167244137Y-37275570D01*
X167244221Y-37116308D01*
X167244517Y-36976884D01*
X167245133Y-36855846D01*
X167246175Y-36751745D01*
X167247751Y-36663128D01*
X167249970Y-36588545D01*
X167252937Y-36526545D01*
X167256762Y-36475678D01*
X167261550Y-36434492D01*
X167267410Y-36401537D01*
X167274450Y-36375361D01*
X167282775Y-36354514D01*
X167292495Y-36337545D01*
X167303717Y-36323003D01*
X167316547Y-36309437D01*
X167331094Y-36295396D01*
X167346306Y-36280593D01*
X167417770Y-36223695D01*
X167495366Y-36190082D01*
X167579658Y-36179618D01*
X167671207Y-36192169D01*
G36*
X166337142Y-44282381D02*
G01*
X163857619Y-44282381D01*
X163857619Y-42238286D01*
X166337142Y-42238286D01*
X166337142Y-44282381D01*
G37*
X166337142Y-44282381D02*
X163857619Y-44282381D01*
X163857619Y-42238286D01*
X166337142Y-42238286D01*
X166337142Y-44282381D01*
G36*
X163673126Y-34191969D02*
G01*
X162998857Y-34866319D01*
X162998857Y-44282381D01*
X162744857Y-44282381D01*
X162744857Y-34770020D01*
X163996399Y-33517620D01*
X164347395Y-33517620D01*
X163673126Y-34191969D01*
G37*
X163673126Y-34191969D02*
X162998857Y-34866319D01*
X162998857Y-44282381D01*
X162744857Y-44282381D01*
X162744857Y-34770020D01*
X163996399Y-33517620D01*
X164347395Y-33517620D01*
X163673126Y-34191969D01*
G36*
X162297333Y-44282381D02*
G01*
X162043333Y-44282381D01*
X162043333Y-33517620D01*
X162297333Y-33517620D01*
X162297333Y-44282381D01*
G37*
X162297333Y-44282381D02*
X162043333Y-44282381D01*
X162043333Y-33517620D01*
X162297333Y-33517620D01*
X162297333Y-44282381D01*
D13*
X85329000Y-31869000D02*
G75*
G03X85329000Y-31869000I-169000J0D01*
G01*
X88160000Y-24040000D02*
X88160000Y-35800000D01*
X97035000Y-24040000D02*
X88160000Y-24040000D01*
X97035000Y-18930000D02*
X97035000Y-24040000D01*
X143165000Y-18930000D02*
X97035000Y-18930000D01*
X143165000Y-24040000D02*
X143165000Y-18930000D01*
X152040000Y-24040000D02*
X143165000Y-24040000D01*
X152040000Y-35800000D02*
X152040000Y-24040000D01*
X88160000Y-35800000D02*
X152040000Y-35800000D01*
D14*
X93460000Y-93620000D02*
X93460000Y-81200000D01*
X146500000Y-93620000D02*
X93460000Y-93620000D01*
X146500000Y-81200000D02*
X146500000Y-93620000D01*
X93460000Y-81200000D02*
X146500000Y-81200000D01*
D15*
X79900000Y-52000000D02*
G75*
G02X80100000Y-52000000I100000J0D01*
G01*
X80100000Y-52000000D02*
G75*
G02X79900000Y-52000000I-100000J0D01*
G01*
X80100000Y-52000000D02*
X80100000Y-52000000D01*
X79900000Y-52000000D02*
X79900000Y-52000000D01*
D14*
X79060000Y-75600000D02*
X70060000Y-75600000D01*
X79060000Y-48800000D02*
X79060000Y-75600000D01*
X70060000Y-48800000D02*
X79060000Y-48800000D01*
X70060000Y-75600000D02*
X70060000Y-48800000D01*
D15*
X92900000Y-52000000D02*
G75*
G02X93100000Y-52000000I100000J0D01*
G01*
X93100000Y-52000000D02*
G75*
G02X92900000Y-52000000I-100000J0D01*
G01*
X93100000Y-52000000D02*
X93100000Y-52000000D01*
X92900000Y-52000000D02*
X92900000Y-52000000D01*
D14*
X92060000Y-75600000D02*
X83060000Y-75600000D01*
X92060000Y-48800000D02*
X92060000Y-75600000D01*
X83060000Y-48800000D02*
X92060000Y-48800000D01*
X83060000Y-75600000D02*
X83060000Y-48800000D01*
D15*
X105900000Y-52000000D02*
G75*
G02X106100000Y-52000000I100000J0D01*
G01*
X106100000Y-52000000D02*
G75*
G02X105900000Y-52000000I-100000J0D01*
G01*
X106100000Y-52000000D02*
X106100000Y-52000000D01*
X105900000Y-52000000D02*
X105900000Y-52000000D01*
D14*
X105060000Y-75600000D02*
X96060000Y-75600000D01*
X105060000Y-48800000D02*
X105060000Y-75600000D01*
X96060000Y-48800000D02*
X105060000Y-48800000D01*
X96060000Y-75600000D02*
X96060000Y-48800000D01*
D15*
X118900000Y-52000000D02*
G75*
G02X119100000Y-52000000I100000J0D01*
G01*
X119100000Y-52000000D02*
G75*
G02X118900000Y-52000000I-100000J0D01*
G01*
X119100000Y-52000000D02*
X119100000Y-52000000D01*
X118900000Y-52000000D02*
X118900000Y-52000000D01*
D14*
X118060000Y-75600000D02*
X109060000Y-75600000D01*
X118060000Y-48800000D02*
X118060000Y-75600000D01*
X109060000Y-48800000D02*
X118060000Y-48800000D01*
X109060000Y-75600000D02*
X109060000Y-48800000D01*
D15*
X131900000Y-52000000D02*
G75*
G02X132100000Y-52000000I100000J0D01*
G01*
X132100000Y-52000000D02*
G75*
G02X131900000Y-52000000I-100000J0D01*
G01*
X132100000Y-52000000D02*
X132100000Y-52000000D01*
X131900000Y-52000000D02*
X131900000Y-52000000D01*
D14*
X131060000Y-75600000D02*
X122060000Y-75600000D01*
X131060000Y-48800000D02*
X131060000Y-75600000D01*
X122060000Y-48800000D02*
X131060000Y-48800000D01*
X122060000Y-75600000D02*
X122060000Y-48800000D01*
D15*
X144900000Y-52000000D02*
G75*
G02X145100000Y-52000000I100000J0D01*
G01*
X145100000Y-52000000D02*
G75*
G02X144900000Y-52000000I-100000J0D01*
G01*
X145100000Y-52000000D02*
X145100000Y-52000000D01*
X144900000Y-52000000D02*
X144900000Y-52000000D01*
D14*
X144060000Y-75600000D02*
X135060000Y-75600000D01*
X144060000Y-48800000D02*
X144060000Y-75600000D01*
X135060000Y-48800000D02*
X144060000Y-48800000D01*
X135060000Y-75600000D02*
X135060000Y-48800000D01*
D15*
X157900000Y-52000000D02*
G75*
G02X158100000Y-52000000I100000J0D01*
G01*
X158100000Y-52000000D02*
G75*
G02X157900000Y-52000000I-100000J0D01*
G01*
X158100000Y-52000000D02*
X158100000Y-52000000D01*
X157900000Y-52000000D02*
X157900000Y-52000000D01*
D14*
X157060000Y-75600000D02*
X148060000Y-75600000D01*
X157060000Y-48800000D02*
X157060000Y-75600000D01*
X148060000Y-48800000D02*
X157060000Y-48800000D01*
X148060000Y-75600000D02*
X148060000Y-48800000D01*
D15*
X170900000Y-52000000D02*
G75*
G02X171100000Y-52000000I100000J0D01*
G01*
X171100000Y-52000000D02*
G75*
G02X170900000Y-52000000I-100000J0D01*
G01*
X171100000Y-52000000D02*
X171100000Y-52000000D01*
X170900000Y-52000000D02*
X170900000Y-52000000D01*
D14*
X170060000Y-75600000D02*
X161060000Y-75600000D01*
X170060000Y-48800000D02*
X170060000Y-75600000D01*
X161060000Y-48800000D02*
X170060000Y-48800000D01*
X161060000Y-75600000D02*
X161060000Y-48800000D01*
D11*
X84610000Y-38962779D02*
X84610000Y-38637221D01*
X83590000Y-38962779D02*
X83590000Y-38637221D01*
X89610000Y-38962779D02*
X89610000Y-38637221D01*
X88590000Y-38962779D02*
X88590000Y-38637221D01*
X94610000Y-38962779D02*
X94610000Y-38637221D01*
X93590000Y-38962779D02*
X93590000Y-38637221D01*
X81537221Y-40010000D02*
X81862779Y-40010000D01*
X81537221Y-38990000D02*
X81862779Y-38990000D01*
X86537221Y-40010000D02*
X86862779Y-40010000D01*
X86537221Y-38990000D02*
X86862779Y-38990000D01*
X91537221Y-40010000D02*
X91862779Y-40010000D01*
X91537221Y-38990000D02*
X91862779Y-38990000D01*
X99610000Y-38962779D02*
X99610000Y-38637221D01*
X98590000Y-38962779D02*
X98590000Y-38637221D01*
X104610000Y-38962779D02*
X104610000Y-38637221D01*
X103590000Y-38962779D02*
X103590000Y-38637221D01*
X109610000Y-38962779D02*
X109610000Y-38637221D01*
X108590000Y-38962779D02*
X108590000Y-38637221D01*
X96537221Y-40010000D02*
X96862779Y-40010000D01*
X96537221Y-38990000D02*
X96862779Y-38990000D01*
X101537221Y-40010000D02*
X101862779Y-40010000D01*
X101537221Y-38990000D02*
X101862779Y-38990000D01*
X106537221Y-40010000D02*
X106862779Y-40010000D01*
X106537221Y-38990000D02*
X106862779Y-38990000D01*
X114610000Y-38962779D02*
X114610000Y-38637221D01*
X113590000Y-38962779D02*
X113590000Y-38637221D01*
X119610000Y-38962779D02*
X119610000Y-38637221D01*
X118590000Y-38962779D02*
X118590000Y-38637221D01*
X121410000Y-38962779D02*
X121410000Y-38637221D01*
X120390000Y-38962779D02*
X120390000Y-38637221D01*
X111537221Y-40010000D02*
X111862779Y-40010000D01*
X111537221Y-38990000D02*
X111862779Y-38990000D01*
X116537221Y-40010000D02*
X116862779Y-40010000D01*
X116537221Y-38990000D02*
X116862779Y-38990000D01*
X123462779Y-38990000D02*
X123137221Y-38990000D01*
X123462779Y-40010000D02*
X123137221Y-40010000D01*
X126410000Y-38962779D02*
X126410000Y-38637221D01*
X125390000Y-38962779D02*
X125390000Y-38637221D01*
X131410000Y-38962779D02*
X131410000Y-38637221D01*
X130390000Y-38962779D02*
X130390000Y-38637221D01*
X136410000Y-38962779D02*
X136410000Y-38637221D01*
X135390000Y-38962779D02*
X135390000Y-38637221D01*
X128462779Y-38990000D02*
X128137221Y-38990000D01*
X128462779Y-40010000D02*
X128137221Y-40010000D01*
X133462779Y-38990000D02*
X133137221Y-38990000D01*
X133462779Y-40010000D02*
X133137221Y-40010000D01*
X138462779Y-38990000D02*
X138137221Y-38990000D01*
X138462779Y-40010000D02*
X138137221Y-40010000D01*
X141410000Y-38962779D02*
X141410000Y-38637221D01*
X140390000Y-38962779D02*
X140390000Y-38637221D01*
X146410000Y-38962779D02*
X146410000Y-38637221D01*
X145390000Y-38962779D02*
X145390000Y-38637221D01*
X151410000Y-38962779D02*
X151410000Y-38637221D01*
X150390000Y-38962779D02*
X150390000Y-38637221D01*
X143462779Y-38990000D02*
X143137221Y-38990000D01*
X143462779Y-40010000D02*
X143137221Y-40010000D01*
X148462779Y-38990000D02*
X148137221Y-38990000D01*
X148462779Y-40010000D02*
X148137221Y-40010000D01*
X153462779Y-38990000D02*
X153137221Y-38990000D01*
X153462779Y-40010000D02*
X153137221Y-40010000D01*
X156410000Y-38962779D02*
X156410000Y-38637221D01*
X155390000Y-38962779D02*
X155390000Y-38637221D01*
X152690000Y-30437221D02*
X152690000Y-30762779D01*
X153710000Y-30437221D02*
X153710000Y-30762779D01*
X86590000Y-30537221D02*
X86590000Y-30862779D01*
X87610000Y-30537221D02*
X87610000Y-30862779D01*
X158462779Y-38990000D02*
X158137221Y-38990000D01*
X158462779Y-40010000D02*
X158137221Y-40010000D01*
X90790000Y-83237221D02*
X90790000Y-83562779D01*
X91810000Y-83237221D02*
X91810000Y-83562779D01*
X148090000Y-83237221D02*
X148090000Y-83562779D01*
X149110000Y-83237221D02*
X149110000Y-83562779D01*
X83037221Y-41710000D02*
X83362779Y-41710000D01*
X83037221Y-40690000D02*
X83362779Y-40690000D01*
X88037221Y-41710000D02*
X88362779Y-41710000D01*
X88037221Y-40690000D02*
X88362779Y-40690000D01*
X93037221Y-41710000D02*
X93362779Y-41710000D01*
X93037221Y-40690000D02*
X93362779Y-40690000D01*
X98037221Y-41710000D02*
X98362779Y-41710000D01*
X98037221Y-40690000D02*
X98362779Y-40690000D01*
X103037221Y-41710000D02*
X103362779Y-41710000D01*
X103037221Y-40690000D02*
X103362779Y-40690000D01*
X108037221Y-41710000D02*
X108362779Y-41710000D01*
X108037221Y-40690000D02*
X108362779Y-40690000D01*
X113037221Y-41710000D02*
X113362779Y-41710000D01*
X113037221Y-40690000D02*
X113362779Y-40690000D01*
X118037221Y-41710000D02*
X118362779Y-41710000D01*
X118037221Y-40690000D02*
X118362779Y-40690000D01*
X121962779Y-40690000D02*
X121637221Y-40690000D01*
X121962779Y-41710000D02*
X121637221Y-41710000D01*
X126962779Y-40690000D02*
X126637221Y-40690000D01*
X126962779Y-41710000D02*
X126637221Y-41710000D01*
X131962779Y-40690000D02*
X131637221Y-40690000D01*
X131962779Y-41710000D02*
X131637221Y-41710000D01*
X136962779Y-40690000D02*
X136637221Y-40690000D01*
X136962779Y-41710000D02*
X136637221Y-41710000D01*
X141962779Y-40690000D02*
X141637221Y-40690000D01*
X141962779Y-41710000D02*
X141637221Y-41710000D01*
X146962779Y-40690000D02*
X146637221Y-40690000D01*
X146962779Y-41710000D02*
X146637221Y-41710000D01*
X151962779Y-40690000D02*
X151637221Y-40690000D01*
X151962779Y-41710000D02*
X151637221Y-41710000D01*
X156962779Y-40690000D02*
X156637221Y-40690000D01*
X156962779Y-41710000D02*
X156637221Y-41710000D01*
D13*
X152976666Y-34304523D02*
X152976666Y-35211666D01*
X152916190Y-35393095D01*
X152795238Y-35514047D01*
X152613809Y-35574523D01*
X152492857Y-35574523D01*
X154246666Y-35574523D02*
X153520952Y-35574523D01*
X153883809Y-35574523D02*
X153883809Y-34304523D01*
X153762857Y-34485952D01*
X153641904Y-34606904D01*
X153520952Y-34667380D01*
X148476666Y-89004523D02*
X148476666Y-89911666D01*
X148416190Y-90093095D01*
X148295238Y-90214047D01*
X148113809Y-90274523D01*
X147992857Y-90274523D01*
X149020952Y-89125476D02*
X149081428Y-89065000D01*
X149202380Y-89004523D01*
X149504761Y-89004523D01*
X149625714Y-89065000D01*
X149686190Y-89125476D01*
X149746666Y-89246428D01*
X149746666Y-89367380D01*
X149686190Y-89548809D01*
X148960476Y-90274523D01*
X149746666Y-90274523D01*
X77804523Y-77323333D02*
X78711666Y-77323333D01*
X78893095Y-77383809D01*
X79014047Y-77504761D01*
X79074523Y-77686190D01*
X79074523Y-77807142D01*
X77804523Y-76839523D02*
X77804523Y-76053333D01*
X78288333Y-76476666D01*
X78288333Y-76295238D01*
X78348809Y-76174285D01*
X78409285Y-76113809D01*
X78530238Y-76053333D01*
X78832619Y-76053333D01*
X78953571Y-76113809D01*
X79014047Y-76174285D01*
X79074523Y-76295238D01*
X79074523Y-76658095D01*
X79014047Y-76779047D01*
X78953571Y-76839523D01*
X90704523Y-77323333D02*
X91611666Y-77323333D01*
X91793095Y-77383809D01*
X91914047Y-77504761D01*
X91974523Y-77686190D01*
X91974523Y-77807142D01*
X91127857Y-76174285D02*
X91974523Y-76174285D01*
X90644047Y-76476666D02*
X91551190Y-76779047D01*
X91551190Y-75992857D01*
X103704523Y-77323333D02*
X104611666Y-77323333D01*
X104793095Y-77383809D01*
X104914047Y-77504761D01*
X104974523Y-77686190D01*
X104974523Y-77807142D01*
X103704523Y-76113809D02*
X103704523Y-76718571D01*
X104309285Y-76779047D01*
X104248809Y-76718571D01*
X104188333Y-76597619D01*
X104188333Y-76295238D01*
X104248809Y-76174285D01*
X104309285Y-76113809D01*
X104430238Y-76053333D01*
X104732619Y-76053333D01*
X104853571Y-76113809D01*
X104914047Y-76174285D01*
X104974523Y-76295238D01*
X104974523Y-76597619D01*
X104914047Y-76718571D01*
X104853571Y-76779047D01*
X116704523Y-77223333D02*
X117611666Y-77223333D01*
X117793095Y-77283809D01*
X117914047Y-77404761D01*
X117974523Y-77586190D01*
X117974523Y-77707142D01*
X116704523Y-76074285D02*
X116704523Y-76316190D01*
X116765000Y-76437142D01*
X116825476Y-76497619D01*
X117006904Y-76618571D01*
X117248809Y-76679047D01*
X117732619Y-76679047D01*
X117853571Y-76618571D01*
X117914047Y-76558095D01*
X117974523Y-76437142D01*
X117974523Y-76195238D01*
X117914047Y-76074285D01*
X117853571Y-76013809D01*
X117732619Y-75953333D01*
X117430238Y-75953333D01*
X117309285Y-76013809D01*
X117248809Y-76074285D01*
X117188333Y-76195238D01*
X117188333Y-76437142D01*
X117248809Y-76558095D01*
X117309285Y-76618571D01*
X117430238Y-76679047D01*
X129704523Y-77323333D02*
X130611666Y-77323333D01*
X130793095Y-77383809D01*
X130914047Y-77504761D01*
X130974523Y-77686190D01*
X130974523Y-77807142D01*
X129704523Y-76839523D02*
X129704523Y-75992857D01*
X130974523Y-76537142D01*
X142704523Y-77323333D02*
X143611666Y-77323333D01*
X143793095Y-77383809D01*
X143914047Y-77504761D01*
X143974523Y-77686190D01*
X143974523Y-77807142D01*
X143248809Y-76537142D02*
X143188333Y-76658095D01*
X143127857Y-76718571D01*
X143006904Y-76779047D01*
X142946428Y-76779047D01*
X142825476Y-76718571D01*
X142765000Y-76658095D01*
X142704523Y-76537142D01*
X142704523Y-76295238D01*
X142765000Y-76174285D01*
X142825476Y-76113809D01*
X142946428Y-76053333D01*
X143006904Y-76053333D01*
X143127857Y-76113809D01*
X143188333Y-76174285D01*
X143248809Y-76295238D01*
X143248809Y-76537142D01*
X143309285Y-76658095D01*
X143369761Y-76718571D01*
X143490714Y-76779047D01*
X143732619Y-76779047D01*
X143853571Y-76718571D01*
X143914047Y-76658095D01*
X143974523Y-76537142D01*
X143974523Y-76295238D01*
X143914047Y-76174285D01*
X143853571Y-76113809D01*
X143732619Y-76053333D01*
X143490714Y-76053333D01*
X143369761Y-76113809D01*
X143309285Y-76174285D01*
X143248809Y-76295238D01*
X155704523Y-77223333D02*
X156611666Y-77223333D01*
X156793095Y-77283809D01*
X156914047Y-77404761D01*
X156974523Y-77586190D01*
X156974523Y-77707142D01*
X156974523Y-76558095D02*
X156974523Y-76316190D01*
X156914047Y-76195238D01*
X156853571Y-76134761D01*
X156672142Y-76013809D01*
X156430238Y-75953333D01*
X155946428Y-75953333D01*
X155825476Y-76013809D01*
X155765000Y-76074285D01*
X155704523Y-76195238D01*
X155704523Y-76437142D01*
X155765000Y-76558095D01*
X155825476Y-76618571D01*
X155946428Y-76679047D01*
X156248809Y-76679047D01*
X156369761Y-76618571D01*
X156430238Y-76558095D01*
X156490714Y-76437142D01*
X156490714Y-76195238D01*
X156430238Y-76074285D01*
X156369761Y-76013809D01*
X156248809Y-75953333D01*
X168604523Y-78428095D02*
X169511666Y-78428095D01*
X169693095Y-78488571D01*
X169814047Y-78609523D01*
X169874523Y-78790952D01*
X169874523Y-78911904D01*
X169874523Y-77158095D02*
X169874523Y-77883809D01*
X169874523Y-77520952D02*
X168604523Y-77520952D01*
X168785952Y-77641904D01*
X168906904Y-77762857D01*
X168967380Y-77883809D01*
X168604523Y-76371904D02*
X168604523Y-76250952D01*
X168665000Y-76130000D01*
X168725476Y-76069523D01*
X168846428Y-76009047D01*
X169088333Y-75948571D01*
X169390714Y-75948571D01*
X169632619Y-76009047D01*
X169753571Y-76069523D01*
X169814047Y-76130000D01*
X169874523Y-76250952D01*
X169874523Y-76371904D01*
X169814047Y-76492857D01*
X169753571Y-76553333D01*
X169632619Y-76613809D01*
X169390714Y-76674285D01*
X169088333Y-76674285D01*
X168846428Y-76613809D01*
X168725476Y-76553333D01*
X168665000Y-76492857D01*
X168604523Y-76371904D01*
D10*
X83933333Y-37152380D02*
X83600000Y-36676190D01*
X83361904Y-37152380D02*
X83361904Y-36152380D01*
X83742857Y-36152380D01*
X83838095Y-36200000D01*
X83885714Y-36247619D01*
X83933333Y-36342857D01*
X83933333Y-36485714D01*
X83885714Y-36580952D01*
X83838095Y-36628571D01*
X83742857Y-36676190D01*
X83361904Y-36676190D01*
X84885714Y-37152380D02*
X84314285Y-37152380D01*
X84600000Y-37152380D02*
X84600000Y-36152380D01*
X84504761Y-36295238D01*
X84409523Y-36390476D01*
X84314285Y-36438095D01*
X88933333Y-37152380D02*
X88600000Y-36676190D01*
X88361904Y-37152380D02*
X88361904Y-36152380D01*
X88742857Y-36152380D01*
X88838095Y-36200000D01*
X88885714Y-36247619D01*
X88933333Y-36342857D01*
X88933333Y-36485714D01*
X88885714Y-36580952D01*
X88838095Y-36628571D01*
X88742857Y-36676190D01*
X88361904Y-36676190D01*
X89266666Y-36152380D02*
X89885714Y-36152380D01*
X89552380Y-36533333D01*
X89695238Y-36533333D01*
X89790476Y-36580952D01*
X89838095Y-36628571D01*
X89885714Y-36723809D01*
X89885714Y-36961904D01*
X89838095Y-37057142D01*
X89790476Y-37104761D01*
X89695238Y-37152380D01*
X89409523Y-37152380D01*
X89314285Y-37104761D01*
X89266666Y-37057142D01*
X93933333Y-37152380D02*
X93600000Y-36676190D01*
X93361904Y-37152380D02*
X93361904Y-36152380D01*
X93742857Y-36152380D01*
X93838095Y-36200000D01*
X93885714Y-36247619D01*
X93933333Y-36342857D01*
X93933333Y-36485714D01*
X93885714Y-36580952D01*
X93838095Y-36628571D01*
X93742857Y-36676190D01*
X93361904Y-36676190D01*
X94838095Y-36152380D02*
X94361904Y-36152380D01*
X94314285Y-36628571D01*
X94361904Y-36580952D01*
X94457142Y-36533333D01*
X94695238Y-36533333D01*
X94790476Y-36580952D01*
X94838095Y-36628571D01*
X94885714Y-36723809D01*
X94885714Y-36961904D01*
X94838095Y-37057142D01*
X94790476Y-37104761D01*
X94695238Y-37152380D01*
X94457142Y-37152380D01*
X94361904Y-37104761D01*
X94314285Y-37057142D01*
X80833333Y-38552380D02*
X80500000Y-38076190D01*
X80261904Y-38552380D02*
X80261904Y-37552380D01*
X80642857Y-37552380D01*
X80738095Y-37600000D01*
X80785714Y-37647619D01*
X80833333Y-37742857D01*
X80833333Y-37885714D01*
X80785714Y-37980952D01*
X80738095Y-38028571D01*
X80642857Y-38076190D01*
X80261904Y-38076190D01*
X81166666Y-37552380D02*
X81833333Y-37552380D01*
X81404761Y-38552380D01*
X85833333Y-38552380D02*
X85500000Y-38076190D01*
X85261904Y-38552380D02*
X85261904Y-37552380D01*
X85642857Y-37552380D01*
X85738095Y-37600000D01*
X85785714Y-37647619D01*
X85833333Y-37742857D01*
X85833333Y-37885714D01*
X85785714Y-37980952D01*
X85738095Y-38028571D01*
X85642857Y-38076190D01*
X85261904Y-38076190D01*
X86309523Y-38552380D02*
X86500000Y-38552380D01*
X86595238Y-38504761D01*
X86642857Y-38457142D01*
X86738095Y-38314285D01*
X86785714Y-38123809D01*
X86785714Y-37742857D01*
X86738095Y-37647619D01*
X86690476Y-37600000D01*
X86595238Y-37552380D01*
X86404761Y-37552380D01*
X86309523Y-37600000D01*
X86261904Y-37647619D01*
X86214285Y-37742857D01*
X86214285Y-37980952D01*
X86261904Y-38076190D01*
X86309523Y-38123809D01*
X86404761Y-38171428D01*
X86595238Y-38171428D01*
X86690476Y-38123809D01*
X86738095Y-38076190D01*
X86785714Y-37980952D01*
X90657142Y-38652380D02*
X90323809Y-38176190D01*
X90085714Y-38652380D02*
X90085714Y-37652380D01*
X90466666Y-37652380D01*
X90561904Y-37700000D01*
X90609523Y-37747619D01*
X90657142Y-37842857D01*
X90657142Y-37985714D01*
X90609523Y-38080952D01*
X90561904Y-38128571D01*
X90466666Y-38176190D01*
X90085714Y-38176190D01*
X91609523Y-38652380D02*
X91038095Y-38652380D01*
X91323809Y-38652380D02*
X91323809Y-37652380D01*
X91228571Y-37795238D01*
X91133333Y-37890476D01*
X91038095Y-37938095D01*
X92561904Y-38652380D02*
X91990476Y-38652380D01*
X92276190Y-38652380D02*
X92276190Y-37652380D01*
X92180952Y-37795238D01*
X92085714Y-37890476D01*
X91990476Y-37938095D01*
X98457142Y-37152380D02*
X98123809Y-36676190D01*
X97885714Y-37152380D02*
X97885714Y-36152380D01*
X98266666Y-36152380D01*
X98361904Y-36200000D01*
X98409523Y-36247619D01*
X98457142Y-36342857D01*
X98457142Y-36485714D01*
X98409523Y-36580952D01*
X98361904Y-36628571D01*
X98266666Y-36676190D01*
X97885714Y-36676190D01*
X99409523Y-37152380D02*
X98838095Y-37152380D01*
X99123809Y-37152380D02*
X99123809Y-36152380D01*
X99028571Y-36295238D01*
X98933333Y-36390476D01*
X98838095Y-36438095D01*
X99742857Y-36152380D02*
X100361904Y-36152380D01*
X100028571Y-36533333D01*
X100171428Y-36533333D01*
X100266666Y-36580952D01*
X100314285Y-36628571D01*
X100361904Y-36723809D01*
X100361904Y-36961904D01*
X100314285Y-37057142D01*
X100266666Y-37104761D01*
X100171428Y-37152380D01*
X99885714Y-37152380D01*
X99790476Y-37104761D01*
X99742857Y-37057142D01*
X103457142Y-37152380D02*
X103123809Y-36676190D01*
X102885714Y-37152380D02*
X102885714Y-36152380D01*
X103266666Y-36152380D01*
X103361904Y-36200000D01*
X103409523Y-36247619D01*
X103457142Y-36342857D01*
X103457142Y-36485714D01*
X103409523Y-36580952D01*
X103361904Y-36628571D01*
X103266666Y-36676190D01*
X102885714Y-36676190D01*
X104409523Y-37152380D02*
X103838095Y-37152380D01*
X104123809Y-37152380D02*
X104123809Y-36152380D01*
X104028571Y-36295238D01*
X103933333Y-36390476D01*
X103838095Y-36438095D01*
X105314285Y-36152380D02*
X104838095Y-36152380D01*
X104790476Y-36628571D01*
X104838095Y-36580952D01*
X104933333Y-36533333D01*
X105171428Y-36533333D01*
X105266666Y-36580952D01*
X105314285Y-36628571D01*
X105361904Y-36723809D01*
X105361904Y-36961904D01*
X105314285Y-37057142D01*
X105266666Y-37104761D01*
X105171428Y-37152380D01*
X104933333Y-37152380D01*
X104838095Y-37104761D01*
X104790476Y-37057142D01*
X108457142Y-37152380D02*
X108123809Y-36676190D01*
X107885714Y-37152380D02*
X107885714Y-36152380D01*
X108266666Y-36152380D01*
X108361904Y-36200000D01*
X108409523Y-36247619D01*
X108457142Y-36342857D01*
X108457142Y-36485714D01*
X108409523Y-36580952D01*
X108361904Y-36628571D01*
X108266666Y-36676190D01*
X107885714Y-36676190D01*
X109409523Y-37152380D02*
X108838095Y-37152380D01*
X109123809Y-37152380D02*
X109123809Y-36152380D01*
X109028571Y-36295238D01*
X108933333Y-36390476D01*
X108838095Y-36438095D01*
X109742857Y-36152380D02*
X110409523Y-36152380D01*
X109980952Y-37152380D01*
X95457142Y-38652380D02*
X95123809Y-38176190D01*
X94885714Y-38652380D02*
X94885714Y-37652380D01*
X95266666Y-37652380D01*
X95361904Y-37700000D01*
X95409523Y-37747619D01*
X95457142Y-37842857D01*
X95457142Y-37985714D01*
X95409523Y-38080952D01*
X95361904Y-38128571D01*
X95266666Y-38176190D01*
X94885714Y-38176190D01*
X96409523Y-38652380D02*
X95838095Y-38652380D01*
X96123809Y-38652380D02*
X96123809Y-37652380D01*
X96028571Y-37795238D01*
X95933333Y-37890476D01*
X95838095Y-37938095D01*
X96885714Y-38652380D02*
X97076190Y-38652380D01*
X97171428Y-38604761D01*
X97219047Y-38557142D01*
X97314285Y-38414285D01*
X97361904Y-38223809D01*
X97361904Y-37842857D01*
X97314285Y-37747619D01*
X97266666Y-37700000D01*
X97171428Y-37652380D01*
X96980952Y-37652380D01*
X96885714Y-37700000D01*
X96838095Y-37747619D01*
X96790476Y-37842857D01*
X96790476Y-38080952D01*
X96838095Y-38176190D01*
X96885714Y-38223809D01*
X96980952Y-38271428D01*
X97171428Y-38271428D01*
X97266666Y-38223809D01*
X97314285Y-38176190D01*
X97361904Y-38080952D01*
X100457142Y-38552380D02*
X100123809Y-38076190D01*
X99885714Y-38552380D02*
X99885714Y-37552380D01*
X100266666Y-37552380D01*
X100361904Y-37600000D01*
X100409523Y-37647619D01*
X100457142Y-37742857D01*
X100457142Y-37885714D01*
X100409523Y-37980952D01*
X100361904Y-38028571D01*
X100266666Y-38076190D01*
X99885714Y-38076190D01*
X100838095Y-37647619D02*
X100885714Y-37600000D01*
X100980952Y-37552380D01*
X101219047Y-37552380D01*
X101314285Y-37600000D01*
X101361904Y-37647619D01*
X101409523Y-37742857D01*
X101409523Y-37838095D01*
X101361904Y-37980952D01*
X100790476Y-38552380D01*
X101409523Y-38552380D01*
X102361904Y-38552380D02*
X101790476Y-38552380D01*
X102076190Y-38552380D02*
X102076190Y-37552380D01*
X101980952Y-37695238D01*
X101885714Y-37790476D01*
X101790476Y-37838095D01*
X105557142Y-38552380D02*
X105223809Y-38076190D01*
X104985714Y-38552380D02*
X104985714Y-37552380D01*
X105366666Y-37552380D01*
X105461904Y-37600000D01*
X105509523Y-37647619D01*
X105557142Y-37742857D01*
X105557142Y-37885714D01*
X105509523Y-37980952D01*
X105461904Y-38028571D01*
X105366666Y-38076190D01*
X104985714Y-38076190D01*
X105938095Y-37647619D02*
X105985714Y-37600000D01*
X106080952Y-37552380D01*
X106319047Y-37552380D01*
X106414285Y-37600000D01*
X106461904Y-37647619D01*
X106509523Y-37742857D01*
X106509523Y-37838095D01*
X106461904Y-37980952D01*
X105890476Y-38552380D01*
X106509523Y-38552380D01*
X106842857Y-37552380D02*
X107461904Y-37552380D01*
X107128571Y-37933333D01*
X107271428Y-37933333D01*
X107366666Y-37980952D01*
X107414285Y-38028571D01*
X107461904Y-38123809D01*
X107461904Y-38361904D01*
X107414285Y-38457142D01*
X107366666Y-38504761D01*
X107271428Y-38552380D01*
X106985714Y-38552380D01*
X106890476Y-38504761D01*
X106842857Y-38457142D01*
X113457142Y-37152380D02*
X113123809Y-36676190D01*
X112885714Y-37152380D02*
X112885714Y-36152380D01*
X113266666Y-36152380D01*
X113361904Y-36200000D01*
X113409523Y-36247619D01*
X113457142Y-36342857D01*
X113457142Y-36485714D01*
X113409523Y-36580952D01*
X113361904Y-36628571D01*
X113266666Y-36676190D01*
X112885714Y-36676190D01*
X113838095Y-36247619D02*
X113885714Y-36200000D01*
X113980952Y-36152380D01*
X114219047Y-36152380D01*
X114314285Y-36200000D01*
X114361904Y-36247619D01*
X114409523Y-36342857D01*
X114409523Y-36438095D01*
X114361904Y-36580952D01*
X113790476Y-37152380D01*
X114409523Y-37152380D01*
X115314285Y-36152380D02*
X114838095Y-36152380D01*
X114790476Y-36628571D01*
X114838095Y-36580952D01*
X114933333Y-36533333D01*
X115171428Y-36533333D01*
X115266666Y-36580952D01*
X115314285Y-36628571D01*
X115361904Y-36723809D01*
X115361904Y-36961904D01*
X115314285Y-37057142D01*
X115266666Y-37104761D01*
X115171428Y-37152380D01*
X114933333Y-37152380D01*
X114838095Y-37104761D01*
X114790476Y-37057142D01*
X117857142Y-37152380D02*
X117523809Y-36676190D01*
X117285714Y-37152380D02*
X117285714Y-36152380D01*
X117666666Y-36152380D01*
X117761904Y-36200000D01*
X117809523Y-36247619D01*
X117857142Y-36342857D01*
X117857142Y-36485714D01*
X117809523Y-36580952D01*
X117761904Y-36628571D01*
X117666666Y-36676190D01*
X117285714Y-36676190D01*
X118238095Y-36247619D02*
X118285714Y-36200000D01*
X118380952Y-36152380D01*
X118619047Y-36152380D01*
X118714285Y-36200000D01*
X118761904Y-36247619D01*
X118809523Y-36342857D01*
X118809523Y-36438095D01*
X118761904Y-36580952D01*
X118190476Y-37152380D01*
X118809523Y-37152380D01*
X119142857Y-36152380D02*
X119809523Y-36152380D01*
X119380952Y-37152380D01*
X120957142Y-37152380D02*
X120623809Y-36676190D01*
X120385714Y-37152380D02*
X120385714Y-36152380D01*
X120766666Y-36152380D01*
X120861904Y-36200000D01*
X120909523Y-36247619D01*
X120957142Y-36342857D01*
X120957142Y-36485714D01*
X120909523Y-36580952D01*
X120861904Y-36628571D01*
X120766666Y-36676190D01*
X120385714Y-36676190D01*
X121338095Y-36247619D02*
X121385714Y-36200000D01*
X121480952Y-36152380D01*
X121719047Y-36152380D01*
X121814285Y-36200000D01*
X121861904Y-36247619D01*
X121909523Y-36342857D01*
X121909523Y-36438095D01*
X121861904Y-36580952D01*
X121290476Y-37152380D01*
X121909523Y-37152380D01*
X122385714Y-37152380D02*
X122576190Y-37152380D01*
X122671428Y-37104761D01*
X122719047Y-37057142D01*
X122814285Y-36914285D01*
X122861904Y-36723809D01*
X122861904Y-36342857D01*
X122814285Y-36247619D01*
X122766666Y-36200000D01*
X122671428Y-36152380D01*
X122480952Y-36152380D01*
X122385714Y-36200000D01*
X122338095Y-36247619D01*
X122290476Y-36342857D01*
X122290476Y-36580952D01*
X122338095Y-36676190D01*
X122385714Y-36723809D01*
X122480952Y-36771428D01*
X122671428Y-36771428D01*
X122766666Y-36723809D01*
X122814285Y-36676190D01*
X122861904Y-36580952D01*
X110557142Y-38652380D02*
X110223809Y-38176190D01*
X109985714Y-38652380D02*
X109985714Y-37652380D01*
X110366666Y-37652380D01*
X110461904Y-37700000D01*
X110509523Y-37747619D01*
X110557142Y-37842857D01*
X110557142Y-37985714D01*
X110509523Y-38080952D01*
X110461904Y-38128571D01*
X110366666Y-38176190D01*
X109985714Y-38176190D01*
X110890476Y-37652380D02*
X111509523Y-37652380D01*
X111176190Y-38033333D01*
X111319047Y-38033333D01*
X111414285Y-38080952D01*
X111461904Y-38128571D01*
X111509523Y-38223809D01*
X111509523Y-38461904D01*
X111461904Y-38557142D01*
X111414285Y-38604761D01*
X111319047Y-38652380D01*
X111033333Y-38652380D01*
X110938095Y-38604761D01*
X110890476Y-38557142D01*
X112461904Y-38652380D02*
X111890476Y-38652380D01*
X112176190Y-38652380D02*
X112176190Y-37652380D01*
X112080952Y-37795238D01*
X111985714Y-37890476D01*
X111890476Y-37938095D01*
X115557142Y-38652380D02*
X115223809Y-38176190D01*
X114985714Y-38652380D02*
X114985714Y-37652380D01*
X115366666Y-37652380D01*
X115461904Y-37700000D01*
X115509523Y-37747619D01*
X115557142Y-37842857D01*
X115557142Y-37985714D01*
X115509523Y-38080952D01*
X115461904Y-38128571D01*
X115366666Y-38176190D01*
X114985714Y-38176190D01*
X115890476Y-37652380D02*
X116509523Y-37652380D01*
X116176190Y-38033333D01*
X116319047Y-38033333D01*
X116414285Y-38080952D01*
X116461904Y-38128571D01*
X116509523Y-38223809D01*
X116509523Y-38461904D01*
X116461904Y-38557142D01*
X116414285Y-38604761D01*
X116319047Y-38652380D01*
X116033333Y-38652380D01*
X115938095Y-38604761D01*
X115890476Y-38557142D01*
X116842857Y-37652380D02*
X117461904Y-37652380D01*
X117128571Y-38033333D01*
X117271428Y-38033333D01*
X117366666Y-38080952D01*
X117414285Y-38128571D01*
X117461904Y-38223809D01*
X117461904Y-38461904D01*
X117414285Y-38557142D01*
X117366666Y-38604761D01*
X117271428Y-38652380D01*
X116985714Y-38652380D01*
X116890476Y-38604761D01*
X116842857Y-38557142D01*
X122457142Y-38552380D02*
X122123809Y-38076190D01*
X121885714Y-38552380D02*
X121885714Y-37552380D01*
X122266666Y-37552380D01*
X122361904Y-37600000D01*
X122409523Y-37647619D01*
X122457142Y-37742857D01*
X122457142Y-37885714D01*
X122409523Y-37980952D01*
X122361904Y-38028571D01*
X122266666Y-38076190D01*
X121885714Y-38076190D01*
X122790476Y-37552380D02*
X123409523Y-37552380D01*
X123076190Y-37933333D01*
X123219047Y-37933333D01*
X123314285Y-37980952D01*
X123361904Y-38028571D01*
X123409523Y-38123809D01*
X123409523Y-38361904D01*
X123361904Y-38457142D01*
X123314285Y-38504761D01*
X123219047Y-38552380D01*
X122933333Y-38552380D01*
X122838095Y-38504761D01*
X122790476Y-38457142D01*
X124314285Y-37552380D02*
X123838095Y-37552380D01*
X123790476Y-38028571D01*
X123838095Y-37980952D01*
X123933333Y-37933333D01*
X124171428Y-37933333D01*
X124266666Y-37980952D01*
X124314285Y-38028571D01*
X124361904Y-38123809D01*
X124361904Y-38361904D01*
X124314285Y-38457142D01*
X124266666Y-38504761D01*
X124171428Y-38552380D01*
X123933333Y-38552380D01*
X123838095Y-38504761D01*
X123790476Y-38457142D01*
X125257142Y-37152380D02*
X124923809Y-36676190D01*
X124685714Y-37152380D02*
X124685714Y-36152380D01*
X125066666Y-36152380D01*
X125161904Y-36200000D01*
X125209523Y-36247619D01*
X125257142Y-36342857D01*
X125257142Y-36485714D01*
X125209523Y-36580952D01*
X125161904Y-36628571D01*
X125066666Y-36676190D01*
X124685714Y-36676190D01*
X125590476Y-36152380D02*
X126209523Y-36152380D01*
X125876190Y-36533333D01*
X126019047Y-36533333D01*
X126114285Y-36580952D01*
X126161904Y-36628571D01*
X126209523Y-36723809D01*
X126209523Y-36961904D01*
X126161904Y-37057142D01*
X126114285Y-37104761D01*
X126019047Y-37152380D01*
X125733333Y-37152380D01*
X125638095Y-37104761D01*
X125590476Y-37057142D01*
X126685714Y-37152380D02*
X126876190Y-37152380D01*
X126971428Y-37104761D01*
X127019047Y-37057142D01*
X127114285Y-36914285D01*
X127161904Y-36723809D01*
X127161904Y-36342857D01*
X127114285Y-36247619D01*
X127066666Y-36200000D01*
X126971428Y-36152380D01*
X126780952Y-36152380D01*
X126685714Y-36200000D01*
X126638095Y-36247619D01*
X126590476Y-36342857D01*
X126590476Y-36580952D01*
X126638095Y-36676190D01*
X126685714Y-36723809D01*
X126780952Y-36771428D01*
X126971428Y-36771428D01*
X127066666Y-36723809D01*
X127114285Y-36676190D01*
X127161904Y-36580952D01*
X130257142Y-37152380D02*
X129923809Y-36676190D01*
X129685714Y-37152380D02*
X129685714Y-36152380D01*
X130066666Y-36152380D01*
X130161904Y-36200000D01*
X130209523Y-36247619D01*
X130257142Y-36342857D01*
X130257142Y-36485714D01*
X130209523Y-36580952D01*
X130161904Y-36628571D01*
X130066666Y-36676190D01*
X129685714Y-36676190D01*
X131114285Y-36485714D02*
X131114285Y-37152380D01*
X130876190Y-36104761D02*
X130638095Y-36819047D01*
X131257142Y-36819047D01*
X132161904Y-37152380D02*
X131590476Y-37152380D01*
X131876190Y-37152380D02*
X131876190Y-36152380D01*
X131780952Y-36295238D01*
X131685714Y-36390476D01*
X131590476Y-36438095D01*
X135257142Y-37152380D02*
X134923809Y-36676190D01*
X134685714Y-37152380D02*
X134685714Y-36152380D01*
X135066666Y-36152380D01*
X135161904Y-36200000D01*
X135209523Y-36247619D01*
X135257142Y-36342857D01*
X135257142Y-36485714D01*
X135209523Y-36580952D01*
X135161904Y-36628571D01*
X135066666Y-36676190D01*
X134685714Y-36676190D01*
X136114285Y-36485714D02*
X136114285Y-37152380D01*
X135876190Y-36104761D02*
X135638095Y-36819047D01*
X136257142Y-36819047D01*
X136542857Y-36152380D02*
X137161904Y-36152380D01*
X136828571Y-36533333D01*
X136971428Y-36533333D01*
X137066666Y-36580952D01*
X137114285Y-36628571D01*
X137161904Y-36723809D01*
X137161904Y-36961904D01*
X137114285Y-37057142D01*
X137066666Y-37104761D01*
X136971428Y-37152380D01*
X136685714Y-37152380D01*
X136590476Y-37104761D01*
X136542857Y-37057142D01*
X127457142Y-38652380D02*
X127123809Y-38176190D01*
X126885714Y-38652380D02*
X126885714Y-37652380D01*
X127266666Y-37652380D01*
X127361904Y-37700000D01*
X127409523Y-37747619D01*
X127457142Y-37842857D01*
X127457142Y-37985714D01*
X127409523Y-38080952D01*
X127361904Y-38128571D01*
X127266666Y-38176190D01*
X126885714Y-38176190D01*
X128314285Y-37985714D02*
X128314285Y-38652380D01*
X128076190Y-37604761D02*
X127838095Y-38319047D01*
X128457142Y-38319047D01*
X129314285Y-37652380D02*
X128838095Y-37652380D01*
X128790476Y-38128571D01*
X128838095Y-38080952D01*
X128933333Y-38033333D01*
X129171428Y-38033333D01*
X129266666Y-38080952D01*
X129314285Y-38128571D01*
X129361904Y-38223809D01*
X129361904Y-38461904D01*
X129314285Y-38557142D01*
X129266666Y-38604761D01*
X129171428Y-38652380D01*
X128933333Y-38652380D01*
X128838095Y-38604761D01*
X128790476Y-38557142D01*
X132457142Y-38652380D02*
X132123809Y-38176190D01*
X131885714Y-38652380D02*
X131885714Y-37652380D01*
X132266666Y-37652380D01*
X132361904Y-37700000D01*
X132409523Y-37747619D01*
X132457142Y-37842857D01*
X132457142Y-37985714D01*
X132409523Y-38080952D01*
X132361904Y-38128571D01*
X132266666Y-38176190D01*
X131885714Y-38176190D01*
X133314285Y-37985714D02*
X133314285Y-38652380D01*
X133076190Y-37604761D02*
X132838095Y-38319047D01*
X133457142Y-38319047D01*
X133742857Y-37652380D02*
X134409523Y-37652380D01*
X133980952Y-38652380D01*
X137457142Y-38652380D02*
X137123809Y-38176190D01*
X136885714Y-38652380D02*
X136885714Y-37652380D01*
X137266666Y-37652380D01*
X137361904Y-37700000D01*
X137409523Y-37747619D01*
X137457142Y-37842857D01*
X137457142Y-37985714D01*
X137409523Y-38080952D01*
X137361904Y-38128571D01*
X137266666Y-38176190D01*
X136885714Y-38176190D01*
X138314285Y-37985714D02*
X138314285Y-38652380D01*
X138076190Y-37604761D02*
X137838095Y-38319047D01*
X138457142Y-38319047D01*
X138885714Y-38652380D02*
X139076190Y-38652380D01*
X139171428Y-38604761D01*
X139219047Y-38557142D01*
X139314285Y-38414285D01*
X139361904Y-38223809D01*
X139361904Y-37842857D01*
X139314285Y-37747619D01*
X139266666Y-37700000D01*
X139171428Y-37652380D01*
X138980952Y-37652380D01*
X138885714Y-37700000D01*
X138838095Y-37747619D01*
X138790476Y-37842857D01*
X138790476Y-38080952D01*
X138838095Y-38176190D01*
X138885714Y-38223809D01*
X138980952Y-38271428D01*
X139171428Y-38271428D01*
X139266666Y-38223809D01*
X139314285Y-38176190D01*
X139361904Y-38080952D01*
X140257142Y-37152380D02*
X139923809Y-36676190D01*
X139685714Y-37152380D02*
X139685714Y-36152380D01*
X140066666Y-36152380D01*
X140161904Y-36200000D01*
X140209523Y-36247619D01*
X140257142Y-36342857D01*
X140257142Y-36485714D01*
X140209523Y-36580952D01*
X140161904Y-36628571D01*
X140066666Y-36676190D01*
X139685714Y-36676190D01*
X141161904Y-36152380D02*
X140685714Y-36152380D01*
X140638095Y-36628571D01*
X140685714Y-36580952D01*
X140780952Y-36533333D01*
X141019047Y-36533333D01*
X141114285Y-36580952D01*
X141161904Y-36628571D01*
X141209523Y-36723809D01*
X141209523Y-36961904D01*
X141161904Y-37057142D01*
X141114285Y-37104761D01*
X141019047Y-37152380D01*
X140780952Y-37152380D01*
X140685714Y-37104761D01*
X140638095Y-37057142D01*
X142161904Y-37152380D02*
X141590476Y-37152380D01*
X141876190Y-37152380D02*
X141876190Y-36152380D01*
X141780952Y-36295238D01*
X141685714Y-36390476D01*
X141590476Y-36438095D01*
X145257142Y-37152380D02*
X144923809Y-36676190D01*
X144685714Y-37152380D02*
X144685714Y-36152380D01*
X145066666Y-36152380D01*
X145161904Y-36200000D01*
X145209523Y-36247619D01*
X145257142Y-36342857D01*
X145257142Y-36485714D01*
X145209523Y-36580952D01*
X145161904Y-36628571D01*
X145066666Y-36676190D01*
X144685714Y-36676190D01*
X146161904Y-36152380D02*
X145685714Y-36152380D01*
X145638095Y-36628571D01*
X145685714Y-36580952D01*
X145780952Y-36533333D01*
X146019047Y-36533333D01*
X146114285Y-36580952D01*
X146161904Y-36628571D01*
X146209523Y-36723809D01*
X146209523Y-36961904D01*
X146161904Y-37057142D01*
X146114285Y-37104761D01*
X146019047Y-37152380D01*
X145780952Y-37152380D01*
X145685714Y-37104761D01*
X145638095Y-37057142D01*
X146542857Y-36152380D02*
X147161904Y-36152380D01*
X146828571Y-36533333D01*
X146971428Y-36533333D01*
X147066666Y-36580952D01*
X147114285Y-36628571D01*
X147161904Y-36723809D01*
X147161904Y-36961904D01*
X147114285Y-37057142D01*
X147066666Y-37104761D01*
X146971428Y-37152380D01*
X146685714Y-37152380D01*
X146590476Y-37104761D01*
X146542857Y-37057142D01*
X150257142Y-37152380D02*
X149923809Y-36676190D01*
X149685714Y-37152380D02*
X149685714Y-36152380D01*
X150066666Y-36152380D01*
X150161904Y-36200000D01*
X150209523Y-36247619D01*
X150257142Y-36342857D01*
X150257142Y-36485714D01*
X150209523Y-36580952D01*
X150161904Y-36628571D01*
X150066666Y-36676190D01*
X149685714Y-36676190D01*
X151161904Y-36152380D02*
X150685714Y-36152380D01*
X150638095Y-36628571D01*
X150685714Y-36580952D01*
X150780952Y-36533333D01*
X151019047Y-36533333D01*
X151114285Y-36580952D01*
X151161904Y-36628571D01*
X151209523Y-36723809D01*
X151209523Y-36961904D01*
X151161904Y-37057142D01*
X151114285Y-37104761D01*
X151019047Y-37152380D01*
X150780952Y-37152380D01*
X150685714Y-37104761D01*
X150638095Y-37057142D01*
X152114285Y-36152380D02*
X151638095Y-36152380D01*
X151590476Y-36628571D01*
X151638095Y-36580952D01*
X151733333Y-36533333D01*
X151971428Y-36533333D01*
X152066666Y-36580952D01*
X152114285Y-36628571D01*
X152161904Y-36723809D01*
X152161904Y-36961904D01*
X152114285Y-37057142D01*
X152066666Y-37104761D01*
X151971428Y-37152380D01*
X151733333Y-37152380D01*
X151638095Y-37104761D01*
X151590476Y-37057142D01*
X142457142Y-38652380D02*
X142123809Y-38176190D01*
X141885714Y-38652380D02*
X141885714Y-37652380D01*
X142266666Y-37652380D01*
X142361904Y-37700000D01*
X142409523Y-37747619D01*
X142457142Y-37842857D01*
X142457142Y-37985714D01*
X142409523Y-38080952D01*
X142361904Y-38128571D01*
X142266666Y-38176190D01*
X141885714Y-38176190D01*
X143361904Y-37652380D02*
X142885714Y-37652380D01*
X142838095Y-38128571D01*
X142885714Y-38080952D01*
X142980952Y-38033333D01*
X143219047Y-38033333D01*
X143314285Y-38080952D01*
X143361904Y-38128571D01*
X143409523Y-38223809D01*
X143409523Y-38461904D01*
X143361904Y-38557142D01*
X143314285Y-38604761D01*
X143219047Y-38652380D01*
X142980952Y-38652380D01*
X142885714Y-38604761D01*
X142838095Y-38557142D01*
X143742857Y-37652380D02*
X144409523Y-37652380D01*
X143980952Y-38652380D01*
X147457142Y-38652380D02*
X147123809Y-38176190D01*
X146885714Y-38652380D02*
X146885714Y-37652380D01*
X147266666Y-37652380D01*
X147361904Y-37700000D01*
X147409523Y-37747619D01*
X147457142Y-37842857D01*
X147457142Y-37985714D01*
X147409523Y-38080952D01*
X147361904Y-38128571D01*
X147266666Y-38176190D01*
X146885714Y-38176190D01*
X148361904Y-37652380D02*
X147885714Y-37652380D01*
X147838095Y-38128571D01*
X147885714Y-38080952D01*
X147980952Y-38033333D01*
X148219047Y-38033333D01*
X148314285Y-38080952D01*
X148361904Y-38128571D01*
X148409523Y-38223809D01*
X148409523Y-38461904D01*
X148361904Y-38557142D01*
X148314285Y-38604761D01*
X148219047Y-38652380D01*
X147980952Y-38652380D01*
X147885714Y-38604761D01*
X147838095Y-38557142D01*
X148885714Y-38652380D02*
X149076190Y-38652380D01*
X149171428Y-38604761D01*
X149219047Y-38557142D01*
X149314285Y-38414285D01*
X149361904Y-38223809D01*
X149361904Y-37842857D01*
X149314285Y-37747619D01*
X149266666Y-37700000D01*
X149171428Y-37652380D01*
X148980952Y-37652380D01*
X148885714Y-37700000D01*
X148838095Y-37747619D01*
X148790476Y-37842857D01*
X148790476Y-38080952D01*
X148838095Y-38176190D01*
X148885714Y-38223809D01*
X148980952Y-38271428D01*
X149171428Y-38271428D01*
X149266666Y-38223809D01*
X149314285Y-38176190D01*
X149361904Y-38080952D01*
X152457142Y-38652380D02*
X152123809Y-38176190D01*
X151885714Y-38652380D02*
X151885714Y-37652380D01*
X152266666Y-37652380D01*
X152361904Y-37700000D01*
X152409523Y-37747619D01*
X152457142Y-37842857D01*
X152457142Y-37985714D01*
X152409523Y-38080952D01*
X152361904Y-38128571D01*
X152266666Y-38176190D01*
X151885714Y-38176190D01*
X153314285Y-37652380D02*
X153123809Y-37652380D01*
X153028571Y-37700000D01*
X152980952Y-37747619D01*
X152885714Y-37890476D01*
X152838095Y-38080952D01*
X152838095Y-38461904D01*
X152885714Y-38557142D01*
X152933333Y-38604761D01*
X153028571Y-38652380D01*
X153219047Y-38652380D01*
X153314285Y-38604761D01*
X153361904Y-38557142D01*
X153409523Y-38461904D01*
X153409523Y-38223809D01*
X153361904Y-38128571D01*
X153314285Y-38080952D01*
X153219047Y-38033333D01*
X153028571Y-38033333D01*
X152933333Y-38080952D01*
X152885714Y-38128571D01*
X152838095Y-38223809D01*
X154361904Y-38652380D02*
X153790476Y-38652380D01*
X154076190Y-38652380D02*
X154076190Y-37652380D01*
X153980952Y-37795238D01*
X153885714Y-37890476D01*
X153790476Y-37938095D01*
X155257142Y-37152380D02*
X154923809Y-36676190D01*
X154685714Y-37152380D02*
X154685714Y-36152380D01*
X155066666Y-36152380D01*
X155161904Y-36200000D01*
X155209523Y-36247619D01*
X155257142Y-36342857D01*
X155257142Y-36485714D01*
X155209523Y-36580952D01*
X155161904Y-36628571D01*
X155066666Y-36676190D01*
X154685714Y-36676190D01*
X156114285Y-36152380D02*
X155923809Y-36152380D01*
X155828571Y-36200000D01*
X155780952Y-36247619D01*
X155685714Y-36390476D01*
X155638095Y-36580952D01*
X155638095Y-36961904D01*
X155685714Y-37057142D01*
X155733333Y-37104761D01*
X155828571Y-37152380D01*
X156019047Y-37152380D01*
X156114285Y-37104761D01*
X156161904Y-37057142D01*
X156209523Y-36961904D01*
X156209523Y-36723809D01*
X156161904Y-36628571D01*
X156114285Y-36580952D01*
X156019047Y-36533333D01*
X155828571Y-36533333D01*
X155733333Y-36580952D01*
X155685714Y-36628571D01*
X155638095Y-36723809D01*
X156542857Y-36152380D02*
X157161904Y-36152380D01*
X156828571Y-36533333D01*
X156971428Y-36533333D01*
X157066666Y-36580952D01*
X157114285Y-36628571D01*
X157161904Y-36723809D01*
X157161904Y-36961904D01*
X157114285Y-37057142D01*
X157066666Y-37104761D01*
X156971428Y-37152380D01*
X156685714Y-37152380D01*
X156590476Y-37104761D01*
X156542857Y-37057142D01*
X155082380Y-31242857D02*
X154606190Y-31576190D01*
X155082380Y-31814285D02*
X154082380Y-31814285D01*
X154082380Y-31433333D01*
X154130000Y-31338095D01*
X154177619Y-31290476D01*
X154272857Y-31242857D01*
X154415714Y-31242857D01*
X154510952Y-31290476D01*
X154558571Y-31338095D01*
X154606190Y-31433333D01*
X154606190Y-31814285D01*
X154082380Y-30385714D02*
X154082380Y-30576190D01*
X154130000Y-30671428D01*
X154177619Y-30719047D01*
X154320476Y-30814285D01*
X154510952Y-30861904D01*
X154891904Y-30861904D01*
X154987142Y-30814285D01*
X155034761Y-30766666D01*
X155082380Y-30671428D01*
X155082380Y-30480952D01*
X155034761Y-30385714D01*
X154987142Y-30338095D01*
X154891904Y-30290476D01*
X154653809Y-30290476D01*
X154558571Y-30338095D01*
X154510952Y-30385714D01*
X154463333Y-30480952D01*
X154463333Y-30671428D01*
X154510952Y-30766666D01*
X154558571Y-30814285D01*
X154653809Y-30861904D01*
X154082380Y-29385714D02*
X154082380Y-29861904D01*
X154558571Y-29909523D01*
X154510952Y-29861904D01*
X154463333Y-29766666D01*
X154463333Y-29528571D01*
X154510952Y-29433333D01*
X154558571Y-29385714D01*
X154653809Y-29338095D01*
X154891904Y-29338095D01*
X154987142Y-29385714D01*
X155034761Y-29433333D01*
X155082380Y-29528571D01*
X155082380Y-29766666D01*
X155034761Y-29861904D01*
X154987142Y-29909523D01*
X86252380Y-31342857D02*
X85776190Y-31676190D01*
X86252380Y-31914285D02*
X85252380Y-31914285D01*
X85252380Y-31533333D01*
X85300000Y-31438095D01*
X85347619Y-31390476D01*
X85442857Y-31342857D01*
X85585714Y-31342857D01*
X85680952Y-31390476D01*
X85728571Y-31438095D01*
X85776190Y-31533333D01*
X85776190Y-31914285D01*
X85252380Y-30485714D02*
X85252380Y-30676190D01*
X85300000Y-30771428D01*
X85347619Y-30819047D01*
X85490476Y-30914285D01*
X85680952Y-30961904D01*
X86061904Y-30961904D01*
X86157142Y-30914285D01*
X86204761Y-30866666D01*
X86252380Y-30771428D01*
X86252380Y-30580952D01*
X86204761Y-30485714D01*
X86157142Y-30438095D01*
X86061904Y-30390476D01*
X85823809Y-30390476D01*
X85728571Y-30438095D01*
X85680952Y-30485714D01*
X85633333Y-30580952D01*
X85633333Y-30771428D01*
X85680952Y-30866666D01*
X85728571Y-30914285D01*
X85823809Y-30961904D01*
X85252380Y-29533333D02*
X85252380Y-29723809D01*
X85300000Y-29819047D01*
X85347619Y-29866666D01*
X85490476Y-29961904D01*
X85680952Y-30009523D01*
X86061904Y-30009523D01*
X86157142Y-29961904D01*
X86204761Y-29914285D01*
X86252380Y-29819047D01*
X86252380Y-29628571D01*
X86204761Y-29533333D01*
X86157142Y-29485714D01*
X86061904Y-29438095D01*
X85823809Y-29438095D01*
X85728571Y-29485714D01*
X85680952Y-29533333D01*
X85633333Y-29628571D01*
X85633333Y-29819047D01*
X85680952Y-29914285D01*
X85728571Y-29961904D01*
X85823809Y-30009523D01*
X157457142Y-38652380D02*
X157123809Y-38176190D01*
X156885714Y-38652380D02*
X156885714Y-37652380D01*
X157266666Y-37652380D01*
X157361904Y-37700000D01*
X157409523Y-37747619D01*
X157457142Y-37842857D01*
X157457142Y-37985714D01*
X157409523Y-38080952D01*
X157361904Y-38128571D01*
X157266666Y-38176190D01*
X156885714Y-38176190D01*
X158314285Y-37652380D02*
X158123809Y-37652380D01*
X158028571Y-37700000D01*
X157980952Y-37747619D01*
X157885714Y-37890476D01*
X157838095Y-38080952D01*
X157838095Y-38461904D01*
X157885714Y-38557142D01*
X157933333Y-38604761D01*
X158028571Y-38652380D01*
X158219047Y-38652380D01*
X158314285Y-38604761D01*
X158361904Y-38557142D01*
X158409523Y-38461904D01*
X158409523Y-38223809D01*
X158361904Y-38128571D01*
X158314285Y-38080952D01*
X158219047Y-38033333D01*
X158028571Y-38033333D01*
X157933333Y-38080952D01*
X157885714Y-38128571D01*
X157838095Y-38223809D01*
X158742857Y-37652380D02*
X159409523Y-37652380D01*
X158980952Y-38652380D01*
X90352380Y-84042857D02*
X89876190Y-84376190D01*
X90352380Y-84614285D02*
X89352380Y-84614285D01*
X89352380Y-84233333D01*
X89400000Y-84138095D01*
X89447619Y-84090476D01*
X89542857Y-84042857D01*
X89685714Y-84042857D01*
X89780952Y-84090476D01*
X89828571Y-84138095D01*
X89876190Y-84233333D01*
X89876190Y-84614285D01*
X89352380Y-83185714D02*
X89352380Y-83376190D01*
X89400000Y-83471428D01*
X89447619Y-83519047D01*
X89590476Y-83614285D01*
X89780952Y-83661904D01*
X90161904Y-83661904D01*
X90257142Y-83614285D01*
X90304761Y-83566666D01*
X90352380Y-83471428D01*
X90352380Y-83280952D01*
X90304761Y-83185714D01*
X90257142Y-83138095D01*
X90161904Y-83090476D01*
X89923809Y-83090476D01*
X89828571Y-83138095D01*
X89780952Y-83185714D01*
X89733333Y-83280952D01*
X89733333Y-83471428D01*
X89780952Y-83566666D01*
X89828571Y-83614285D01*
X89923809Y-83661904D01*
X90352380Y-82614285D02*
X90352380Y-82423809D01*
X90304761Y-82328571D01*
X90257142Y-82280952D01*
X90114285Y-82185714D01*
X89923809Y-82138095D01*
X89542857Y-82138095D01*
X89447619Y-82185714D01*
X89400000Y-82233333D01*
X89352380Y-82328571D01*
X89352380Y-82519047D01*
X89400000Y-82614285D01*
X89447619Y-82661904D01*
X89542857Y-82709523D01*
X89780952Y-82709523D01*
X89876190Y-82661904D01*
X89923809Y-82614285D01*
X89971428Y-82519047D01*
X89971428Y-82328571D01*
X89923809Y-82233333D01*
X89876190Y-82185714D01*
X89780952Y-82138095D01*
X150482380Y-84042857D02*
X150006190Y-84376190D01*
X150482380Y-84614285D02*
X149482380Y-84614285D01*
X149482380Y-84233333D01*
X149530000Y-84138095D01*
X149577619Y-84090476D01*
X149672857Y-84042857D01*
X149815714Y-84042857D01*
X149910952Y-84090476D01*
X149958571Y-84138095D01*
X150006190Y-84233333D01*
X150006190Y-84614285D01*
X149482380Y-83709523D02*
X149482380Y-83042857D01*
X150482380Y-83471428D01*
X149482380Y-82471428D02*
X149482380Y-82376190D01*
X149530000Y-82280952D01*
X149577619Y-82233333D01*
X149672857Y-82185714D01*
X149863333Y-82138095D01*
X150101428Y-82138095D01*
X150291904Y-82185714D01*
X150387142Y-82233333D01*
X150434761Y-82280952D01*
X150482380Y-82376190D01*
X150482380Y-82471428D01*
X150434761Y-82566666D01*
X150387142Y-82614285D01*
X150291904Y-82661904D01*
X150101428Y-82709523D01*
X149863333Y-82709523D01*
X149672857Y-82661904D01*
X149577619Y-82614285D01*
X149530000Y-82566666D01*
X149482380Y-82471428D01*
X83033333Y-42957142D02*
X82985714Y-43004761D01*
X82842857Y-43052380D01*
X82747619Y-43052380D01*
X82604761Y-43004761D01*
X82509523Y-42909523D01*
X82461904Y-42814285D01*
X82414285Y-42623809D01*
X82414285Y-42480952D01*
X82461904Y-42290476D01*
X82509523Y-42195238D01*
X82604761Y-42100000D01*
X82747619Y-42052380D01*
X82842857Y-42052380D01*
X82985714Y-42100000D01*
X83033333Y-42147619D01*
X83985714Y-43052380D02*
X83414285Y-43052380D01*
X83700000Y-43052380D02*
X83700000Y-42052380D01*
X83604761Y-42195238D01*
X83509523Y-42290476D01*
X83414285Y-42338095D01*
X88033333Y-42957142D02*
X87985714Y-43004761D01*
X87842857Y-43052380D01*
X87747619Y-43052380D01*
X87604761Y-43004761D01*
X87509523Y-42909523D01*
X87461904Y-42814285D01*
X87414285Y-42623809D01*
X87414285Y-42480952D01*
X87461904Y-42290476D01*
X87509523Y-42195238D01*
X87604761Y-42100000D01*
X87747619Y-42052380D01*
X87842857Y-42052380D01*
X87985714Y-42100000D01*
X88033333Y-42147619D01*
X88366666Y-42052380D02*
X88985714Y-42052380D01*
X88652380Y-42433333D01*
X88795238Y-42433333D01*
X88890476Y-42480952D01*
X88938095Y-42528571D01*
X88985714Y-42623809D01*
X88985714Y-42861904D01*
X88938095Y-42957142D01*
X88890476Y-43004761D01*
X88795238Y-43052380D01*
X88509523Y-43052380D01*
X88414285Y-43004761D01*
X88366666Y-42957142D01*
X93033333Y-42957142D02*
X92985714Y-43004761D01*
X92842857Y-43052380D01*
X92747619Y-43052380D01*
X92604761Y-43004761D01*
X92509523Y-42909523D01*
X92461904Y-42814285D01*
X92414285Y-42623809D01*
X92414285Y-42480952D01*
X92461904Y-42290476D01*
X92509523Y-42195238D01*
X92604761Y-42100000D01*
X92747619Y-42052380D01*
X92842857Y-42052380D01*
X92985714Y-42100000D01*
X93033333Y-42147619D01*
X93938095Y-42052380D02*
X93461904Y-42052380D01*
X93414285Y-42528571D01*
X93461904Y-42480952D01*
X93557142Y-42433333D01*
X93795238Y-42433333D01*
X93890476Y-42480952D01*
X93938095Y-42528571D01*
X93985714Y-42623809D01*
X93985714Y-42861904D01*
X93938095Y-42957142D01*
X93890476Y-43004761D01*
X93795238Y-43052380D01*
X93557142Y-43052380D01*
X93461904Y-43004761D01*
X93414285Y-42957142D01*
X98033333Y-42957142D02*
X97985714Y-43004761D01*
X97842857Y-43052380D01*
X97747619Y-43052380D01*
X97604761Y-43004761D01*
X97509523Y-42909523D01*
X97461904Y-42814285D01*
X97414285Y-42623809D01*
X97414285Y-42480952D01*
X97461904Y-42290476D01*
X97509523Y-42195238D01*
X97604761Y-42100000D01*
X97747619Y-42052380D01*
X97842857Y-42052380D01*
X97985714Y-42100000D01*
X98033333Y-42147619D01*
X98366666Y-42052380D02*
X99033333Y-42052380D01*
X98604761Y-43052380D01*
X103033333Y-42957142D02*
X102985714Y-43004761D01*
X102842857Y-43052380D01*
X102747619Y-43052380D01*
X102604761Y-43004761D01*
X102509523Y-42909523D01*
X102461904Y-42814285D01*
X102414285Y-42623809D01*
X102414285Y-42480952D01*
X102461904Y-42290476D01*
X102509523Y-42195238D01*
X102604761Y-42100000D01*
X102747619Y-42052380D01*
X102842857Y-42052380D01*
X102985714Y-42100000D01*
X103033333Y-42147619D01*
X103509523Y-43052380D02*
X103700000Y-43052380D01*
X103795238Y-43004761D01*
X103842857Y-42957142D01*
X103938095Y-42814285D01*
X103985714Y-42623809D01*
X103985714Y-42242857D01*
X103938095Y-42147619D01*
X103890476Y-42100000D01*
X103795238Y-42052380D01*
X103604761Y-42052380D01*
X103509523Y-42100000D01*
X103461904Y-42147619D01*
X103414285Y-42242857D01*
X103414285Y-42480952D01*
X103461904Y-42576190D01*
X103509523Y-42623809D01*
X103604761Y-42671428D01*
X103795238Y-42671428D01*
X103890476Y-42623809D01*
X103938095Y-42576190D01*
X103985714Y-42480952D01*
X107557142Y-42957142D02*
X107509523Y-43004761D01*
X107366666Y-43052380D01*
X107271428Y-43052380D01*
X107128571Y-43004761D01*
X107033333Y-42909523D01*
X106985714Y-42814285D01*
X106938095Y-42623809D01*
X106938095Y-42480952D01*
X106985714Y-42290476D01*
X107033333Y-42195238D01*
X107128571Y-42100000D01*
X107271428Y-42052380D01*
X107366666Y-42052380D01*
X107509523Y-42100000D01*
X107557142Y-42147619D01*
X108509523Y-43052380D02*
X107938095Y-43052380D01*
X108223809Y-43052380D02*
X108223809Y-42052380D01*
X108128571Y-42195238D01*
X108033333Y-42290476D01*
X107938095Y-42338095D01*
X109461904Y-43052380D02*
X108890476Y-43052380D01*
X109176190Y-43052380D02*
X109176190Y-42052380D01*
X109080952Y-42195238D01*
X108985714Y-42290476D01*
X108890476Y-42338095D01*
X112557142Y-42957142D02*
X112509523Y-43004761D01*
X112366666Y-43052380D01*
X112271428Y-43052380D01*
X112128571Y-43004761D01*
X112033333Y-42909523D01*
X111985714Y-42814285D01*
X111938095Y-42623809D01*
X111938095Y-42480952D01*
X111985714Y-42290476D01*
X112033333Y-42195238D01*
X112128571Y-42100000D01*
X112271428Y-42052380D01*
X112366666Y-42052380D01*
X112509523Y-42100000D01*
X112557142Y-42147619D01*
X113509523Y-43052380D02*
X112938095Y-43052380D01*
X113223809Y-43052380D02*
X113223809Y-42052380D01*
X113128571Y-42195238D01*
X113033333Y-42290476D01*
X112938095Y-42338095D01*
X113842857Y-42052380D02*
X114461904Y-42052380D01*
X114128571Y-42433333D01*
X114271428Y-42433333D01*
X114366666Y-42480952D01*
X114414285Y-42528571D01*
X114461904Y-42623809D01*
X114461904Y-42861904D01*
X114414285Y-42957142D01*
X114366666Y-43004761D01*
X114271428Y-43052380D01*
X113985714Y-43052380D01*
X113890476Y-43004761D01*
X113842857Y-42957142D01*
X117557142Y-42957142D02*
X117509523Y-43004761D01*
X117366666Y-43052380D01*
X117271428Y-43052380D01*
X117128571Y-43004761D01*
X117033333Y-42909523D01*
X116985714Y-42814285D01*
X116938095Y-42623809D01*
X116938095Y-42480952D01*
X116985714Y-42290476D01*
X117033333Y-42195238D01*
X117128571Y-42100000D01*
X117271428Y-42052380D01*
X117366666Y-42052380D01*
X117509523Y-42100000D01*
X117557142Y-42147619D01*
X118509523Y-43052380D02*
X117938095Y-43052380D01*
X118223809Y-43052380D02*
X118223809Y-42052380D01*
X118128571Y-42195238D01*
X118033333Y-42290476D01*
X117938095Y-42338095D01*
X119414285Y-42052380D02*
X118938095Y-42052380D01*
X118890476Y-42528571D01*
X118938095Y-42480952D01*
X119033333Y-42433333D01*
X119271428Y-42433333D01*
X119366666Y-42480952D01*
X119414285Y-42528571D01*
X119461904Y-42623809D01*
X119461904Y-42861904D01*
X119414285Y-42957142D01*
X119366666Y-43004761D01*
X119271428Y-43052380D01*
X119033333Y-43052380D01*
X118938095Y-43004761D01*
X118890476Y-42957142D01*
X121157142Y-42987142D02*
X121109523Y-43034761D01*
X120966666Y-43082380D01*
X120871428Y-43082380D01*
X120728571Y-43034761D01*
X120633333Y-42939523D01*
X120585714Y-42844285D01*
X120538095Y-42653809D01*
X120538095Y-42510952D01*
X120585714Y-42320476D01*
X120633333Y-42225238D01*
X120728571Y-42130000D01*
X120871428Y-42082380D01*
X120966666Y-42082380D01*
X121109523Y-42130000D01*
X121157142Y-42177619D01*
X122109523Y-43082380D02*
X121538095Y-43082380D01*
X121823809Y-43082380D02*
X121823809Y-42082380D01*
X121728571Y-42225238D01*
X121633333Y-42320476D01*
X121538095Y-42368095D01*
X122442857Y-42082380D02*
X123109523Y-42082380D01*
X122680952Y-43082380D01*
X126157142Y-42987142D02*
X126109523Y-43034761D01*
X125966666Y-43082380D01*
X125871428Y-43082380D01*
X125728571Y-43034761D01*
X125633333Y-42939523D01*
X125585714Y-42844285D01*
X125538095Y-42653809D01*
X125538095Y-42510952D01*
X125585714Y-42320476D01*
X125633333Y-42225238D01*
X125728571Y-42130000D01*
X125871428Y-42082380D01*
X125966666Y-42082380D01*
X126109523Y-42130000D01*
X126157142Y-42177619D01*
X127109523Y-43082380D02*
X126538095Y-43082380D01*
X126823809Y-43082380D02*
X126823809Y-42082380D01*
X126728571Y-42225238D01*
X126633333Y-42320476D01*
X126538095Y-42368095D01*
X127585714Y-43082380D02*
X127776190Y-43082380D01*
X127871428Y-43034761D01*
X127919047Y-42987142D01*
X128014285Y-42844285D01*
X128061904Y-42653809D01*
X128061904Y-42272857D01*
X128014285Y-42177619D01*
X127966666Y-42130000D01*
X127871428Y-42082380D01*
X127680952Y-42082380D01*
X127585714Y-42130000D01*
X127538095Y-42177619D01*
X127490476Y-42272857D01*
X127490476Y-42510952D01*
X127538095Y-42606190D01*
X127585714Y-42653809D01*
X127680952Y-42701428D01*
X127871428Y-42701428D01*
X127966666Y-42653809D01*
X128014285Y-42606190D01*
X128061904Y-42510952D01*
X131157142Y-42987142D02*
X131109523Y-43034761D01*
X130966666Y-43082380D01*
X130871428Y-43082380D01*
X130728571Y-43034761D01*
X130633333Y-42939523D01*
X130585714Y-42844285D01*
X130538095Y-42653809D01*
X130538095Y-42510952D01*
X130585714Y-42320476D01*
X130633333Y-42225238D01*
X130728571Y-42130000D01*
X130871428Y-42082380D01*
X130966666Y-42082380D01*
X131109523Y-42130000D01*
X131157142Y-42177619D01*
X131538095Y-42177619D02*
X131585714Y-42130000D01*
X131680952Y-42082380D01*
X131919047Y-42082380D01*
X132014285Y-42130000D01*
X132061904Y-42177619D01*
X132109523Y-42272857D01*
X132109523Y-42368095D01*
X132061904Y-42510952D01*
X131490476Y-43082380D01*
X132109523Y-43082380D01*
X133061904Y-43082380D02*
X132490476Y-43082380D01*
X132776190Y-43082380D02*
X132776190Y-42082380D01*
X132680952Y-42225238D01*
X132585714Y-42320476D01*
X132490476Y-42368095D01*
X136157142Y-42987142D02*
X136109523Y-43034761D01*
X135966666Y-43082380D01*
X135871428Y-43082380D01*
X135728571Y-43034761D01*
X135633333Y-42939523D01*
X135585714Y-42844285D01*
X135538095Y-42653809D01*
X135538095Y-42510952D01*
X135585714Y-42320476D01*
X135633333Y-42225238D01*
X135728571Y-42130000D01*
X135871428Y-42082380D01*
X135966666Y-42082380D01*
X136109523Y-42130000D01*
X136157142Y-42177619D01*
X136538095Y-42177619D02*
X136585714Y-42130000D01*
X136680952Y-42082380D01*
X136919047Y-42082380D01*
X137014285Y-42130000D01*
X137061904Y-42177619D01*
X137109523Y-42272857D01*
X137109523Y-42368095D01*
X137061904Y-42510952D01*
X136490476Y-43082380D01*
X137109523Y-43082380D01*
X137442857Y-42082380D02*
X138061904Y-42082380D01*
X137728571Y-42463333D01*
X137871428Y-42463333D01*
X137966666Y-42510952D01*
X138014285Y-42558571D01*
X138061904Y-42653809D01*
X138061904Y-42891904D01*
X138014285Y-42987142D01*
X137966666Y-43034761D01*
X137871428Y-43082380D01*
X137585714Y-43082380D01*
X137490476Y-43034761D01*
X137442857Y-42987142D01*
X141157142Y-42987142D02*
X141109523Y-43034761D01*
X140966666Y-43082380D01*
X140871428Y-43082380D01*
X140728571Y-43034761D01*
X140633333Y-42939523D01*
X140585714Y-42844285D01*
X140538095Y-42653809D01*
X140538095Y-42510952D01*
X140585714Y-42320476D01*
X140633333Y-42225238D01*
X140728571Y-42130000D01*
X140871428Y-42082380D01*
X140966666Y-42082380D01*
X141109523Y-42130000D01*
X141157142Y-42177619D01*
X141538095Y-42177619D02*
X141585714Y-42130000D01*
X141680952Y-42082380D01*
X141919047Y-42082380D01*
X142014285Y-42130000D01*
X142061904Y-42177619D01*
X142109523Y-42272857D01*
X142109523Y-42368095D01*
X142061904Y-42510952D01*
X141490476Y-43082380D01*
X142109523Y-43082380D01*
X143014285Y-42082380D02*
X142538095Y-42082380D01*
X142490476Y-42558571D01*
X142538095Y-42510952D01*
X142633333Y-42463333D01*
X142871428Y-42463333D01*
X142966666Y-42510952D01*
X143014285Y-42558571D01*
X143061904Y-42653809D01*
X143061904Y-42891904D01*
X143014285Y-42987142D01*
X142966666Y-43034761D01*
X142871428Y-43082380D01*
X142633333Y-43082380D01*
X142538095Y-43034761D01*
X142490476Y-42987142D01*
X146157142Y-42987142D02*
X146109523Y-43034761D01*
X145966666Y-43082380D01*
X145871428Y-43082380D01*
X145728571Y-43034761D01*
X145633333Y-42939523D01*
X145585714Y-42844285D01*
X145538095Y-42653809D01*
X145538095Y-42510952D01*
X145585714Y-42320476D01*
X145633333Y-42225238D01*
X145728571Y-42130000D01*
X145871428Y-42082380D01*
X145966666Y-42082380D01*
X146109523Y-42130000D01*
X146157142Y-42177619D01*
X146538095Y-42177619D02*
X146585714Y-42130000D01*
X146680952Y-42082380D01*
X146919047Y-42082380D01*
X147014285Y-42130000D01*
X147061904Y-42177619D01*
X147109523Y-42272857D01*
X147109523Y-42368095D01*
X147061904Y-42510952D01*
X146490476Y-43082380D01*
X147109523Y-43082380D01*
X147442857Y-42082380D02*
X148109523Y-42082380D01*
X147680952Y-43082380D01*
X151157142Y-42987142D02*
X151109523Y-43034761D01*
X150966666Y-43082380D01*
X150871428Y-43082380D01*
X150728571Y-43034761D01*
X150633333Y-42939523D01*
X150585714Y-42844285D01*
X150538095Y-42653809D01*
X150538095Y-42510952D01*
X150585714Y-42320476D01*
X150633333Y-42225238D01*
X150728571Y-42130000D01*
X150871428Y-42082380D01*
X150966666Y-42082380D01*
X151109523Y-42130000D01*
X151157142Y-42177619D01*
X151538095Y-42177619D02*
X151585714Y-42130000D01*
X151680952Y-42082380D01*
X151919047Y-42082380D01*
X152014285Y-42130000D01*
X152061904Y-42177619D01*
X152109523Y-42272857D01*
X152109523Y-42368095D01*
X152061904Y-42510952D01*
X151490476Y-43082380D01*
X152109523Y-43082380D01*
X152585714Y-43082380D02*
X152776190Y-43082380D01*
X152871428Y-43034761D01*
X152919047Y-42987142D01*
X153014285Y-42844285D01*
X153061904Y-42653809D01*
X153061904Y-42272857D01*
X153014285Y-42177619D01*
X152966666Y-42130000D01*
X152871428Y-42082380D01*
X152680952Y-42082380D01*
X152585714Y-42130000D01*
X152538095Y-42177619D01*
X152490476Y-42272857D01*
X152490476Y-42510952D01*
X152538095Y-42606190D01*
X152585714Y-42653809D01*
X152680952Y-42701428D01*
X152871428Y-42701428D01*
X152966666Y-42653809D01*
X153014285Y-42606190D01*
X153061904Y-42510952D01*
X156157142Y-42987142D02*
X156109523Y-43034761D01*
X155966666Y-43082380D01*
X155871428Y-43082380D01*
X155728571Y-43034761D01*
X155633333Y-42939523D01*
X155585714Y-42844285D01*
X155538095Y-42653809D01*
X155538095Y-42510952D01*
X155585714Y-42320476D01*
X155633333Y-42225238D01*
X155728571Y-42130000D01*
X155871428Y-42082380D01*
X155966666Y-42082380D01*
X156109523Y-42130000D01*
X156157142Y-42177619D01*
X156490476Y-42082380D02*
X157109523Y-42082380D01*
X156776190Y-42463333D01*
X156919047Y-42463333D01*
X157014285Y-42510952D01*
X157061904Y-42558571D01*
X157109523Y-42653809D01*
X157109523Y-42891904D01*
X157061904Y-42987142D01*
X157014285Y-43034761D01*
X156919047Y-43082380D01*
X156633333Y-43082380D01*
X156538095Y-43034761D01*
X156490476Y-42987142D01*
X158061904Y-43082380D02*
X157490476Y-43082380D01*
X157776190Y-43082380D02*
X157776190Y-42082380D01*
X157680952Y-42225238D01*
X157585714Y-42320476D01*
X157490476Y-42368095D01*
M02*
