M48
; DRILL file {KiCad (6.0.2)} date Wed Jul  6 14:10:32 2022
; FORMAT={-:-/ absolute / inch / decimal}
; #@! TF.CreationDate,2022-07-06T14:10:32-04:00
; #@! TF.GenerationSoftware,Kicad,Pcbnew,(6.0.2)
; #@! TF.FileFunction,Plated,1,4,PTH
FMAT,2
INCH
; #@! TA.AperFunction,Plated,PTH,ViaDrill
T1C0.0100
; #@! TA.AperFunction,Plated,PTH,ComponentDrill
T2C0.0300
; #@! TA.AperFunction,Plated,PTH,ComponentDrill
T3C0.0339
; #@! TA.AperFunction,Plated,PTH,ComponentDrill
T4C0.0394
; #@! TA.AperFunction,Plated,PTH,ComponentDrill
T5C0.0402
; #@! TA.AperFunction,Plated,PTH,ComponentDrill
T6C0.0421
; #@! TA.AperFunction,Plated,PTH,ComponentDrill
T7C0.0429
; #@! TA.AperFunction,Plated,PTH,ComponentDrill
T8C0.1114
; #@! TA.AperFunction,Plated,PTH,ComponentDrill
T9C0.1201
; #@! TA.AperFunction,Plated,PTH,ComponentDrill
T10C0.1700
%
G90
G05
T1
X0.0504Y-0.0528
X0.0506Y-0.5775
X0.0506Y-1.1042
X0.0506Y-1.6309
X0.0506Y-2.1577
X0.0506Y-2.6844
X0.0506Y-3.2111
X0.0506Y-3.7378
X0.0506Y-4.2645
X0.0506Y-4.7913
X0.0506Y-5.318
X0.0506Y-5.8447
X0.0506Y-6.3714
X0.0506Y-6.8981
X0.0506Y-7.4249
X0.0506Y-7.9516
X0.236Y-5.3976
X0.2496Y-7.2543
X0.2626Y-2.4301
X0.27Y-0.71
X0.2736Y-7.2327
X0.2976Y-5.0845
X0.3043Y-5.4425
X0.3098Y-5.5811
X0.3106Y-1.7565
X0.3241Y-5.0641
X0.3292Y-3.626
X0.336Y-5.652
X0.3392Y-1.7472
X0.3406Y-7.1976
X0.3626Y-2.4301
X0.3661Y-7.1709
X0.37Y-0.71
X0.3976Y-5.0508
X0.4026Y-5.8374
X0.4043Y-5.7047
X0.4057Y-1.7256
X0.4241Y-5.0305
X0.4323Y-3.6217
X0.4343Y-1.7163
X0.4354Y-5.8988
X0.4465Y-7.1248
X0.4626Y-2.4301
X0.4685Y-7.1035
X0.47Y-0.71
X0.4976Y-5.0172
X0.5008Y-1.6947
X0.5024Y-0.0528
X0.5026Y-7.9516
X0.5043Y-5.9469
X0.524Y-4.9968
X0.5294Y-1.6854
X0.536Y-6.1602
X0.5362Y-3.6177
X0.5453Y-7.0657
X0.5626Y-2.4301
X0.5665Y-7.0386
X0.57Y-0.71
X0.5959Y-1.6638
X0.5976Y-4.9835
X0.6043Y-6.2087
X0.624Y-4.9632
X0.6245Y-1.6545
X0.6362Y-3.6177
X0.643Y-5.3994
X0.6626Y-2.4301
X0.67Y-0.71
X0.6813Y-0.4285
X0.691Y-1.6329
X0.6976Y-4.9499
X0.7016Y-6.9031
X0.7043Y-5.4236
X0.7154Y-5.8858
X0.7196Y-1.6236
X0.724Y-4.9295
X0.7362Y-3.6177
X0.7394Y-5.6575
X0.7626Y-2.4301
X0.77Y-0.71
X0.7744Y-7.3087
X0.7862Y-1.602
X0.7976Y-4.9163
X0.8043Y-5.6854
X0.8147Y-1.5927
X0.824Y-4.8959
X0.8361Y-5.9111
X0.8362Y-3.6177
X0.8452Y-6.9816
X0.8626Y-2.4297
X0.865Y-6.9618
X0.87Y-0.71
X0.8813Y-1.5711
X0.8975Y-4.8826
X0.9043Y-5.948
X0.9098Y-1.5618
X0.924Y-4.8622
X0.9291Y-3.6217
X0.9362Y-6.1734
X0.9445Y-6.9402
X0.9545Y-0.0528
X0.9546Y-7.9516
X0.9626Y-2.4293
X0.9665Y-6.9213
X0.97Y-0.71
X0.9764Y-1.5402
X0.9975Y-4.849
X1.0043Y-6.2051
X1.0049Y-1.5309
X1.024Y-4.8286
X1.036Y-5.487
X1.0362Y-3.6177
X1.0626Y-2.4305
X1.07Y-0.71
X1.0705Y-6.9
X1.0715Y-1.5093
X1.0913Y-6.8811
X1.0975Y-4.8153
X1.1Y-1.5
X1.1043Y-5.4508
X1.1203Y-0.4346
X1.124Y-4.795
X1.136Y-5.7472
X1.1362Y-3.6177
X1.1445Y-6.8598
X1.1654Y-6.8409
X1.1666Y-1.4784
X1.17Y-0.71
X1.1701Y-2.4301
X1.1951Y-1.4691
X1.1975Y-4.7817
X1.2039Y-5.8374
X1.2043Y-5.7071
X1.224Y-4.7613
X1.2361Y-5.9115
X1.2362Y-3.6177
X1.2433Y-6.8228
X1.2617Y-1.4475
X1.2626Y-2.4297
X1.2646Y-6.8024
X1.27Y-0.71
X1.2902Y-1.4382
X1.2975Y-4.748
X1.3043Y-5.9453
X1.3239Y-4.7277
X1.3252Y-7.2996
X1.336Y-6.1486
X1.3362Y-3.6177
X1.3441Y-6.7819
X1.3568Y-1.4166
X1.3646Y-2.4283
X1.3654Y-6.7591
X1.37Y-0.71
X1.3853Y-1.4073
X1.3975Y-4.7144
X1.4043Y-6.2055
X1.4065Y-0.0528
X1.4067Y-7.9516
X1.4239Y-4.694
X1.436Y-5.5063
X1.4362Y-3.6177
X1.4519Y-1.3857
X1.4575Y-6.7287
X1.4626Y-2.4305
X1.47Y-0.71
X1.4804Y-1.3764
X1.4975Y-4.6808
X1.5043Y-5.452
X1.5142Y-6.7476
X1.5239Y-4.6604
X1.536Y-5.7476
X1.5362Y-3.6177
X1.5382Y-6.6732
X1.547Y-1.3548
X1.5626Y-2.4299
X1.565Y-6.6949
X1.57Y-0.71
X1.5755Y-1.3455
X1.5975Y-4.6471
X1.6043Y-5.7043
X1.6047Y-0.4287
X1.6075Y-5.8354
X1.6239Y-4.6267
X1.635Y-5.9091
X1.6362Y-3.6177
X1.6421Y-1.3239
X1.6626Y-2.4295
X1.6669Y-5.7649
X1.67Y-0.71
X1.6706Y-1.3146
X1.6974Y-4.6135
X1.7043Y-5.9465
X1.7239Y-4.5931
X1.7311Y-6.5941
X1.7362Y-3.6177
X1.7372Y-1.293
X1.7418Y-5.7859
X1.743Y-6.1683
X1.7626Y-2.4291
X1.7657Y-1.2837
X1.77Y-0.71
X1.7854Y-6.2106
X1.7974Y-4.5798
X1.8154Y-1.1748
X1.8239Y-4.5595
X1.836Y-5.4957
X1.8362Y-3.6177
X1.8585Y-0.0528
X1.8587Y-7.9516
X1.8625Y-2.4302
X1.87Y-0.71
X1.8705Y-6.2661
X1.8925Y-6.2449
X1.8949Y-1.2228
X1.8974Y-4.5228
X1.9043Y-5.4508
X1.9079Y-6.5624
X1.9142Y-5.9543
X1.9234Y-1.2135
X1.9239Y-4.5025
X1.9283Y-5.9835
X1.9315Y-6.5882
X1.936Y-5.7374
X1.9362Y-3.6177
X1.9459Y-6.1231
X1.9626Y-2.4301
X1.97Y-0.71
X1.9772Y-6.128
X1.99Y-1.1919
X1.9974Y-4.4892
X2.0043Y-5.7035
X2.0134Y-5.8354
X2.0185Y-1.1826
X2.0239Y-4.4688
X2.0361Y-5.9111
X2.0362Y-3.6177
X2.0374Y-6.0256
X2.0626Y-2.4297
X2.07Y-0.71
X2.0851Y-1.161
X2.0974Y-4.4555
X2.1035Y-7.3146
X2.1043Y-5.9331
X2.1136Y-1.1517
X2.1238Y-4.4352
X2.1302Y-6.6205
X2.1358Y-6.1587
X2.1362Y-3.6177
X2.1512Y-6.639
X2.1606Y-2.4274
X2.1646Y-6.0059
X2.17Y-0.71
X2.1772Y-6.3539
X2.1802Y-1.1301
X2.1974Y-4.4219
X2.2007Y-6.3691
X2.2043Y-6.0783
X2.2087Y-1.1208
X2.2126Y-5.959
X2.2238Y-4.4015
X2.2307Y-5.9843
X2.2343Y-5.4894
X2.2362Y-3.6177
X2.239Y-6.4202
X2.2545Y-6.4435
X2.2545Y-7.4547
X2.2625Y-2.4304
X2.27Y-0.71
X2.2728Y-5.8445
X2.2753Y-1.0992
X2.2974Y-4.3883
X2.3038Y-1.0899
X2.3043Y-5.4508
X2.3105Y-0.0528
X2.3107Y-7.9516
X2.313Y-5.8685
X2.32Y-5.9104
X2.3238Y-4.3679
X2.3346Y-5.7374
X2.3362Y-3.6177
X2.3409Y-5.929
X2.348Y-7.5685
X2.3505Y-6.388
X2.3626Y-2.4271
X2.37Y-0.71
X2.3704Y-1.0683
X2.3768Y-6.3976
X2.3949Y-6.1756
X2.3974Y-4.3546
X2.3989Y-1.059
X2.4Y-6.1481
X2.4043Y-5.7035
X2.4238Y-4.3343
X2.4323Y-6.0847
X2.4362Y-3.6177
X2.4528Y-6.0626
X2.4545Y-7.552
X2.4626Y-2.4294
X2.4655Y-1.0374
X2.47Y-0.71
X2.4735Y-6.4667
X2.4815Y-5.9567
X2.4909Y-6.4886
X2.494Y-1.0281
X2.4965Y-6.0717
X2.4973Y-4.321
X2.5063Y-6.5201
X2.5067Y-6.2421
X2.5138Y-7.55
X2.5238Y-4.3006
X2.5263Y-6.498
X2.5362Y-3.6177
X2.5457Y-6.2665
X2.5606Y-1.0065
X2.5626Y-2.429
X2.57Y-0.71
X2.5892Y-0.9972
X2.5973Y-4.2873
X2.613Y-7.5591
X2.6213Y-5.9567
X2.6238Y-4.267
X2.6252Y-6.0717
X2.636Y-5.4858
X2.6362Y-3.6177
X2.6557Y-0.9756
X2.6624Y-2.43
X2.67Y-0.71
X2.6748Y-6.3768
X2.6838Y-6.408
X2.6843Y-0.9663
X2.6955Y-6.5
X2.6973Y-4.2537
X2.7043Y-5.4433
X2.7089Y-6.5257
X2.7238Y-4.2333
X2.7272Y-6.5535
X2.7362Y-3.6177
X2.739Y-6.4742
X2.7421Y-5.5925
X2.7445Y-7.578
X2.7455Y-6.5791
X2.7508Y-0.9447
X2.7594Y-6.4949
X2.7625Y-2.4297
X2.7626Y-0.0528
X2.7627Y-7.9516
X2.77Y-0.71
X2.7794Y-0.9354
X2.794Y-6.5885
X2.7961Y-6.0051
X2.7965Y-6.6164
X2.7973Y-4.2201
X2.8043Y-5.7028
X2.8208Y-6.0229
X2.8213Y-7.5516
X2.8237Y-4.1997
X2.8362Y-3.6177
X2.8459Y-0.9138
X2.8579Y-6.069
X2.8626Y-2.4294
X2.8669Y-5.8145
X2.87Y-0.71
X2.8745Y-0.9045
X2.8773Y-6.106
X2.8961Y-6.1268
X2.8973Y-4.1864
X2.9039Y-6.0594
X2.9232Y-6.2661
X2.9237Y-4.166
X2.924Y-5.8146
X2.9244Y-7.5406
X2.9362Y-3.6177
X2.941Y-0.8829
X2.9429Y-6.2869
X2.943Y-6.1683
X2.9635Y-2.4299
X2.9696Y-0.8736
X2.97Y-0.71
X2.9973Y-4.1528
X3.0039Y-6.1067
X3.0237Y-4.1324
X3.036Y-5.3697
X3.0362Y-0.852
X3.0362Y-3.6177
X3.0437Y-5.9138
X3.0626Y-2.4301
X3.0647Y-0.8427
X3.07Y-0.71
X3.0734Y-6.1901
X3.0973Y-4.1191
X3.0981Y-6.2158
X3.1Y-5.9362
X3.1043Y-5.4496
X3.1215Y-5.7584
X3.1237Y-4.0988
X3.1313Y-0.8211
X3.136Y-5.6276
X3.1362Y-3.6177
X3.1406Y-5.8004
X3.1421Y-7.5724
X3.1598Y-0.8118
X3.1626Y-2.4301
X3.1689Y-7.3559
X3.17Y-0.71
X3.1722Y-5.834
X3.181Y-6.6725
X3.1894Y-6.7098
X3.1929Y-5.8669
X3.1933Y-6.1402
X3.1973Y-4.0855
X3.2043Y-5.7039
X3.2146Y-0.0528
X3.2148Y-7.9516
X3.2237Y-4.0651
X3.2264Y-0.7902
X3.2332Y-6.7226
X3.236Y-5.8929
X3.2362Y-3.6177
X3.2441Y-6.4142
X3.2472Y-6.7469
X3.2472Y-7.5579
X3.2549Y-0.7809
X3.2626Y-2.4301
X3.27Y-0.71
X3.2838Y-6.7886
X3.2972Y-4.0518
X3.3043Y-5.9354
X3.3055Y-6.4346
X3.3189Y-6.7693
X3.3215Y-0.7593
X3.3237Y-4.0315
X3.324Y-6.8246
X3.3362Y-3.6177
X3.3398Y-6.3484
X3.3445Y-6.8008
X3.3492Y-7.5752
X3.35Y-0.75
X3.3692Y-2.4301
X3.37Y-0.71
X3.3752Y-6.8659
X3.4008Y-4.0224
X3.402Y-6.3689
X3.413Y-6.8571
X3.4248Y-3.9972
X3.4264Y-6.902
X3.4358Y-3.6185
X3.448Y-7.5744
X3.4524Y-0.7346
X3.4567Y-6.8807
X3.48Y-6.9492
X3.5039Y-6.9228
X3.5073Y-5.1386
X3.5079Y-1.95
X3.5087Y-2.0319
X3.5232Y-5.2803
X3.5232Y-6.4791
X3.5252Y-2.0547
X3.5306Y-6.9902
X3.5338Y-5.1182
X3.5472Y-7.5803
X3.5634Y-6.9776
X3.5791Y-1.9092
X3.5963Y-5.6543
X3.5996Y-1.8177
X3.6057Y-1.7756
X3.6073Y-5.105
X3.6138Y-5.6795
X3.626Y-4.665
X3.626Y-6.9902
X3.6278Y-2.0819
X3.6303Y-2.9425
X3.6338Y-5.0846
X3.6343Y-1.7663
X3.6382Y-5.3908
X3.6408Y-1.9991
X3.6512Y-2.965
X3.6518Y-4.651
X3.6545Y-7.5782
X3.6591Y-5.4094
X3.6666Y-0.0528
X3.6668Y-7.9516
X3.6718Y-7.0671
X3.6885Y-7.0429
X3.7008Y-1.7447
X3.7023Y-2.3492
X3.7047Y-2.5323
X3.7073Y-5.0713
X3.7098Y-2.562
X3.7228Y-2.3754
X3.7228Y-2.4219
X3.7294Y-1.7354
X3.731Y-7.1331
X3.7338Y-5.0509
X3.7433Y-2.3059
X3.7508Y-7.5772
X3.7571Y-7.1138
X3.7622Y-3.1768
X3.7637Y-4.6791
X3.765Y-2.5931
X3.7735Y-3.1347
X3.7796Y-4.7028
X3.7804Y-7.2032
X3.7959Y-1.7138
X3.8073Y-7.1823
X3.8073Y-5.0377
X3.8245Y-1.7045
X3.8337Y-5.0173
X3.8444Y-7.263
X3.8684Y-7.2394
X3.891Y-1.6829
X3.8991Y-3.0041
X3.9071Y-3.2287
X3.9073Y-5.004
X3.9196Y-1.6736
X3.9201Y-3.1043
X3.9232Y-3.2583
X3.9337Y-4.9837
X3.9445Y-3.2957
X3.9504Y-5.8555
X3.9532Y-3.1986
X3.965Y-3.0672
X3.9815Y-1.8677
X3.9862Y-1.652
X3.9945Y-3.0437
X4.0073Y-4.9704
X4.0147Y-1.6427
X4.0337Y-4.95
X4.0813Y-1.6211
X4.0854Y-7.2598
X4.0893Y-3.5043
X4.1067Y-3.6055
X4.1073Y-4.9367
X4.1079Y-3.6992
X4.1098Y-1.6118
X4.1187Y-0.0528
X4.1188Y-7.9516
X4.1283Y-3.8028
X4.1312Y-4.9153
X4.1382Y-7.3547
X4.1425Y-4.7188
X4.1638Y-2.2098
X4.1678Y-4.7392
X4.1685Y-2.3035
X4.1764Y-1.5902
X4.1835Y-3.569
X4.1906Y-2.4173
X4.1941Y-7.2028
X4.2012Y-3.5302
X4.2049Y-1.5809
X4.2073Y-4.9031
X4.228Y-4.6177
X4.2295Y-3.7243
X4.2327Y-3.7791
X4.2337Y-4.8827
X4.248Y-5.7528
X4.251Y-3.7063
X4.2532Y-4.6382
X4.2535Y-3.7429
X4.2677Y-2.0205
X4.2764Y-2.0594
X4.3051Y-7.1343
X4.3071Y-1.6925
X4.3072Y-4.8695
X4.3337Y-4.8491
X4.3362Y-4.6025
X4.3558Y-4.5791
X4.3559Y-0.6902
X4.3598Y-6.1953
X4.3666Y-1.5284
X4.3917Y-2.0913
X4.3951Y-1.5191
X4.4004Y-1.9979
X4.4072Y-4.8358
X4.411Y-7.0634
X4.4155Y-1.8194
X4.4156Y-1.6034
X4.4224Y-1.9433
X4.4248Y-1.5602
X4.4276Y-1.9063
X4.4337Y-4.8154
X4.4362Y-3.3517
X4.4386Y-3.815
X4.4437Y-3.3848
X4.4496Y-1.8433
X4.4516Y-3.7075
X4.4617Y-1.4975
X4.4689Y-6.287
X4.4701Y-2.3138
X4.4799Y-3.178
X4.4902Y-1.4882
X4.5072Y-4.8022
X4.5224Y-6.9902
X4.5268Y-3.3984
X4.5333Y-4.7803
X4.5402Y-4.5636
X4.5528Y-5.0138
X4.5571Y-1.2358
X4.5666Y-4.5446
X4.5707Y-0.0528
X4.5709Y-7.9516
X4.5713Y-3.4197
X4.5745Y-2.0211
X4.5764Y-6.0862
X4.5913Y-1.2277
X4.5945Y-2.0531
X4.6046Y-1.9928
X4.6083Y-2.0944
X4.6162Y-2.5562
X4.6205Y-1.4566
X4.6205Y-1.494
X4.6303Y-5.6583
X4.6343Y-2.5349
X4.6401Y-4.5313
X4.6454Y-1.4369
X4.6472Y-1.9181
X4.6579Y-1.2061
X4.6666Y-4.5109
X4.6677Y-1.7972
X4.6732Y-1.4336
X4.6776Y-3.0155
X4.6815Y-3.3063
X4.6815Y-4.3902
X4.6815Y-7.0957
X4.6854Y-6.0232
X4.6865Y-1.1968
X4.6882Y-3.1106
X4.6886Y-3.1559
X4.7071Y-4.4087
X4.7142Y-2.3264
X4.7264Y-2.3728
X4.7315Y-1.3965
X4.7394Y-4.9358
X4.7398Y-2.5433
X4.7401Y-4.4977
X4.7406Y-2.572
X4.753Y-1.1752
X4.7594Y-1.3831
X4.7665Y-3.2531
X4.7666Y-4.4773
X4.7783Y-3.225
X4.7816Y-1.1659
X4.7957Y-6.5815
X4.8401Y-4.464
X4.8421Y-1.3739
X4.8481Y-1.1443
X4.8496Y-6.9433
X4.8666Y-4.4437
X4.8706Y-1.3646
X4.8767Y-1.135
X4.8945Y-3.4092
X4.9035Y-6.5531
X4.9075Y-3.436
X4.9343Y-3.1346
X4.9346Y-2.984
X4.9366Y-3.0358
X4.946Y-1.343
X4.9525Y-3.0957
X4.9575Y-6.889
X4.9715Y-1.3315
X4.9779Y-3.3347
X4.978Y-3.3657
X4.9946Y-1.2474
X5.0098Y-1.2713
X5.015Y-6.3906
X5.0227Y-0.0528
X5.0229Y-7.9516
X5.0383Y-1.0825
X5.0401Y-4.3967
X5.0638Y-4.837
X5.0665Y-4.3764
X5.0669Y-1.0732
X5.1051Y-1.2114
X5.1067Y-1.164
X5.115Y-3.2138
X5.1189Y-4.6504
X5.1217Y-5.9646
X5.1334Y-1.0516
X5.1388Y-3.2285
X5.1401Y-4.3631
X5.1402Y-3.7008
X5.161Y-3.8181
X5.162Y-1.0423
X5.1665Y-4.3427
X5.1686Y-3.7657
X5.1728Y-4.8008
X5.1898Y-3.7461
X5.211Y-2.8087
X5.2286Y-1.0207
X5.2339Y-1.8346
X5.2399Y-3.5739
X5.2401Y-4.3295
X5.2571Y-1.0114
X5.2583Y-3.5528
X5.2587Y-1.8594
X5.2665Y-4.3091
X5.2794Y-0.6873
X5.2878Y-4.7709
X5.2898Y-4.2232
X5.3161Y-4.2437
X5.3237Y-0.9898
X5.328Y-1.6559
X5.3401Y-4.2958
X5.3522Y-0.9805
X5.3665Y-4.2755
X5.3791Y-2.0287
X5.3937Y-2.0587
X5.3945Y-4.7362
X5.4126Y-1.9957
X5.4142Y-2.1008
X5.4188Y-0.9589
X5.4315Y-2.3039
X5.4387Y-2.5659
X5.4472Y-2.3945
X5.4473Y-0.9496
X5.4732Y-5.574
X5.4747Y-0.0528
X5.4749Y-7.9516
X5.4807Y-2.4614
X5.4882Y-4.5291
X5.4913Y-6.1732
X5.509Y-0.9231
X5.54Y-4.2285
X5.5424Y-0.9187
X5.5665Y-4.2082
X5.6039Y-2.9961
X5.6047Y-0.8952
X5.6374Y-2.3738
X5.6375Y-0.8878
X5.64Y-4.1949
X5.6579Y-2.3476
X5.6665Y-4.1745
X5.6784Y-3.097
X5.7041Y-0.8662
X5.7234Y-3.2425
X5.7286Y-3.215
X5.7326Y-0.8569
X5.74Y-4.1613
X5.7535Y-3.165
X5.7728Y-3.2835
X5.774Y-4.1409
X5.7858Y-3.5017
X5.7988Y-3.5283
X5.7992Y-0.8353
X5.8277Y-0.826
X5.84Y-4.1276
X5.8476Y-3.061
X5.8664Y-4.1072
X5.8681Y-3.0409
X5.8886Y-3.7256
X5.8941Y-0.8044
X5.9016Y-3.8183
X5.9155Y-3.7634
X5.9228Y-0.7951
X5.9268Y-0.0528
X5.927Y-7.9516
X5.9293Y-3.7372
X5.94Y-4.094
X5.9469Y-3.6736
X5.9566Y-3.6474
X5.9583Y-0.6408
X5.9583Y-1.1676
X5.9583Y-1.6943
X5.9583Y-2.221
X5.9583Y-2.7477
X5.9583Y-3.2744
X5.9583Y-4.3279
X5.9583Y-4.8546
X5.9583Y-5.3813
X5.9583Y-5.908
X5.9583Y-6.4348
X5.9583Y-6.9615
X5.9583Y-7.4882
X5.9614Y-4.0073
X5.9614Y-4.0407
X5.9614Y-4.0736
T2
X0.3Y-2.2195
X0.3Y-2.3195
X0.3043Y-5.1476
X0.3043Y-5.2476
X0.4Y-2.2195
X0.4Y-2.3195
X0.4043Y-5.1476
X0.4043Y-5.2476
X0.5Y-2.2195
X0.5Y-2.3195
X0.5043Y-5.1476
X0.5043Y-5.2476
X0.6Y-2.2195
X0.6Y-2.3195
X0.6043Y-5.1476
X0.6043Y-5.2476
X0.7Y-2.2195
X0.7Y-2.3195
X0.7043Y-5.1476
X0.7043Y-5.2476
X0.8Y-2.2195
X0.8Y-2.3195
X0.8043Y-5.1476
X0.8043Y-5.2476
X0.9Y-2.2195
X0.9Y-2.3195
X0.9043Y-5.1476
X0.9043Y-5.2476
X1.0Y-2.2195
X1.0Y-2.3195
X1.0043Y-5.1476
X1.0043Y-5.2476
X1.1Y-2.2195
X1.1Y-2.3195
X1.1043Y-5.1476
X1.1043Y-5.2476
X1.2Y-2.2195
X1.2Y-2.3195
X1.2043Y-5.1476
X1.2043Y-5.2476
X1.3Y-2.2195
X1.3Y-2.3195
X1.3043Y-5.1476
X1.3043Y-5.2476
X1.4Y-2.2195
X1.4Y-2.3195
X1.4043Y-5.1476
X1.4043Y-5.2476
X1.5Y-2.2195
X1.5Y-2.3195
X1.5043Y-5.1476
X1.5043Y-5.2476
X1.6Y-2.2195
X1.6Y-2.3195
X1.6043Y-5.1476
X1.6043Y-5.2476
X1.7Y-2.2195
X1.7Y-2.3195
X1.7043Y-5.1476
X1.7043Y-5.2476
X1.8Y-2.2195
X1.8Y-2.3195
X1.8043Y-5.1476
X1.8043Y-5.2476
X1.9Y-2.2195
X1.9Y-2.3195
X1.9043Y-5.1476
X1.9043Y-5.2476
X2.0Y-2.2195
X2.0Y-2.3195
X2.0043Y-5.1476
X2.0043Y-5.2476
X2.1Y-2.2195
X2.1Y-2.3195
X2.1043Y-5.1476
X2.1043Y-5.2476
X2.2Y-2.2195
X2.2Y-2.3195
X2.2043Y-5.1476
X2.2043Y-5.2476
X2.3Y-2.2195
X2.3Y-2.3195
X2.3043Y-5.1476
X2.3043Y-5.2476
X2.4Y-2.2195
X2.4Y-2.3195
X2.4043Y-5.1476
X2.4043Y-5.2476
X2.5Y-2.2195
X2.5Y-2.3195
X2.5043Y-5.1476
X2.5043Y-5.2476
X2.6Y-2.2195
X2.6Y-2.3195
X2.6043Y-5.1476
X2.6043Y-5.2476
X2.7Y-2.2195
X2.7Y-2.3195
X2.7043Y-5.1476
X2.7043Y-5.2476
X2.8Y-2.2195
X2.8Y-2.3195
X2.8043Y-5.1476
X2.8043Y-5.2476
X2.9Y-2.2195
X2.9Y-2.3195
X2.9043Y-5.1476
X2.9043Y-5.2476
X3.0Y-2.2195
X3.0Y-2.3195
X3.0043Y-5.1476
X3.0043Y-5.2476
X3.1Y-2.2195
X3.1Y-2.3195
X3.1043Y-5.1476
X3.1043Y-5.2476
X3.2Y-2.2195
X3.2Y-2.3195
X3.2043Y-5.1476
X3.2043Y-5.2476
X3.3Y-2.2195
X3.3Y-2.3195
X3.3043Y-5.1476
X3.3043Y-5.2476
X3.4Y-2.2195
X3.4Y-2.3195
X3.4043Y-5.1476
X3.4043Y-5.2476
T3
X2.175Y-0.1462
X2.175Y-0.2958
X2.175Y-7.6294
X2.175Y-7.779
X2.225Y-0.221
X2.225Y-0.3706
X2.225Y-7.7042
X2.225Y-7.8538
X2.275Y-0.1462
X2.275Y-0.2958
X2.275Y-7.6294
X2.275Y-7.779
X2.325Y-0.221
X2.325Y-0.3706
X2.325Y-7.7042
X2.325Y-7.8538
X2.375Y-0.1462
X2.375Y-0.2958
X2.375Y-7.6294
X2.375Y-7.779
X2.425Y-0.221
X2.425Y-0.3706
X2.425Y-7.7042
X2.425Y-7.8538
X2.475Y-0.1462
X2.475Y-0.2958
X2.475Y-7.6294
X2.475Y-7.779
X2.525Y-0.221
X2.525Y-0.3706
X2.525Y-7.7042
X2.525Y-7.8538
X2.575Y-0.1462
X2.575Y-0.2958
X2.575Y-7.6294
X2.575Y-7.779
X2.625Y-0.221
X2.625Y-0.3706
X2.625Y-7.7042
X2.625Y-7.8538
X2.675Y-0.1462
X2.675Y-0.2958
X2.675Y-7.6294
X2.675Y-7.779
X2.725Y-0.221
X2.725Y-0.3706
X2.725Y-7.7042
X2.725Y-7.8538
X2.775Y-0.1462
X2.775Y-0.2958
X2.775Y-7.6294
X2.775Y-7.779
X2.825Y-0.221
X2.825Y-0.3706
X2.825Y-7.7042
X2.825Y-7.8538
X2.875Y-0.1462
X2.875Y-0.2958
X2.875Y-7.6294
X2.875Y-7.779
X2.925Y-0.221
X2.925Y-0.3706
X2.925Y-7.7042
X2.925Y-7.8538
X2.975Y-0.1462
X2.975Y-0.2958
X2.975Y-7.6294
X2.975Y-7.779
X3.025Y-0.221
X3.025Y-0.3706
X3.025Y-7.7042
X3.025Y-7.8538
X3.075Y-0.1462
X3.075Y-0.2958
X3.075Y-7.6294
X3.075Y-7.779
X3.125Y-0.221
X3.125Y-0.3706
X3.125Y-7.7042
X3.125Y-7.8538
X3.175Y-0.1462
X3.175Y-0.2958
X3.175Y-7.6294
X3.175Y-7.779
X3.225Y-0.221
X3.225Y-0.3706
X3.225Y-7.7042
X3.225Y-7.8538
X3.275Y-0.1462
X3.275Y-0.2958
X3.275Y-7.6294
X3.275Y-7.779
X3.325Y-0.221
X3.325Y-0.3706
X3.325Y-7.7042
X3.325Y-7.8538
X3.375Y-0.1462
X3.375Y-0.2958
X3.375Y-7.6294
X3.375Y-7.779
X3.425Y-0.221
X3.425Y-0.3706
X3.425Y-7.7042
X3.425Y-7.8538
X3.475Y-0.1462
X3.475Y-0.2958
X3.475Y-7.6294
X3.475Y-7.779
X3.525Y-0.221
X3.525Y-0.3706
X3.525Y-7.7042
X3.525Y-7.8538
X3.575Y-0.1462
X3.575Y-0.2958
X3.575Y-7.6294
X3.575Y-7.779
X3.625Y-0.221
X3.625Y-0.3706
X3.625Y-7.7042
X3.625Y-7.8538
X3.675Y-0.1462
X3.675Y-0.2958
X3.675Y-7.6294
X3.675Y-7.779
X3.725Y-0.221
X3.725Y-0.3706
X3.725Y-7.7042
X3.725Y-7.8538
X3.775Y-0.1462
X3.775Y-0.2958
X3.775Y-7.6294
X3.775Y-7.779
X3.825Y-0.221
X3.825Y-0.3706
X3.825Y-7.7042
X3.825Y-7.8538
T4
X1.3434Y-7.5999
X1.3434Y-7.6999
X1.4434Y-7.5999
X1.4434Y-7.6999
X4.7756Y-0.19
X4.7756Y-0.29
X4.8756Y-0.19
X4.8756Y-0.29
X5.201Y-7.0689
X5.201Y-7.1689
X5.301Y-7.0689
X5.301Y-7.1689
T5
X0.2959Y-1.8195
X0.2959Y-1.9195
X0.2959Y-2.0195
X0.3Y-3.7195
X0.3Y-3.8195
X0.3Y-3.9195
X0.3959Y-1.8195
X0.3959Y-1.9195
X0.3959Y-2.0195
X0.4Y-3.7195
X0.4Y-3.8195
X0.4Y-3.9195
X0.4959Y-1.8195
X0.4959Y-1.9195
X0.4959Y-2.0195
X0.5Y-3.7195
X0.5Y-3.8195
X0.5Y-3.9195
X0.5959Y-1.8195
X0.5959Y-1.9195
X0.5959Y-2.0195
X0.6Y-3.7195
X0.6Y-3.8195
X0.6Y-3.9195
X0.6959Y-1.8195
X0.6959Y-1.9195
X0.6959Y-2.0195
X0.7Y-3.7195
X0.7Y-3.8195
X0.7Y-3.9195
X0.7959Y-1.8195
X0.7959Y-1.9195
X0.7959Y-2.0195
X0.8Y-3.7195
X0.8Y-3.8195
X0.8Y-3.9195
X0.8959Y-1.8195
X0.8959Y-1.9195
X0.8959Y-2.0195
X0.9Y-3.7195
X0.9Y-3.8195
X0.9Y-3.9195
X0.9959Y-1.8195
X0.9959Y-1.9195
X0.9959Y-2.0195
X1.0Y-3.7195
X1.0Y-3.8195
X1.0Y-3.9195
X1.0959Y-1.8195
X1.0959Y-1.9195
X1.0959Y-2.0195
X1.1Y-3.7195
X1.1Y-3.8195
X1.1Y-3.9195
X1.1959Y-1.8195
X1.1959Y-1.9195
X1.1959Y-2.0195
X1.2Y-3.7195
X1.2Y-3.8195
X1.2Y-3.9195
X1.2959Y-1.8195
X1.2959Y-1.9195
X1.2959Y-2.0195
X1.3Y-3.7195
X1.3Y-3.8195
X1.3Y-3.9195
X1.3959Y-1.8195
X1.3959Y-1.9195
X1.3959Y-2.0195
X1.4Y-3.7195
X1.4Y-3.8195
X1.4Y-3.9195
X1.4959Y-1.8195
X1.4959Y-1.9195
X1.4959Y-2.0195
X1.5Y-3.7195
X1.5Y-3.8195
X1.5Y-3.9195
X1.5959Y-1.8195
X1.5959Y-1.9195
X1.5959Y-2.0195
X1.6Y-3.7195
X1.6Y-3.8195
X1.6Y-3.9195
X1.6959Y-1.8195
X1.6959Y-1.9195
X1.6959Y-2.0195
X1.7Y-3.7195
X1.7Y-3.8195
X1.7Y-3.9195
X1.7959Y-1.8195
X1.7959Y-1.9195
X1.7959Y-2.0195
X1.8Y-3.7195
X1.8Y-3.8195
X1.8Y-3.9195
X1.8959Y-1.8195
X1.8959Y-1.9195
X1.8959Y-2.0195
X1.9Y-3.7195
X1.9Y-3.8195
X1.9Y-3.9195
X1.9959Y-1.8195
X1.9959Y-1.9195
X1.9959Y-2.0195
X2.0Y-3.7195
X2.0Y-3.8195
X2.0Y-3.9195
X2.0959Y-1.8195
X2.0959Y-1.9195
X2.0959Y-2.0195
X2.1Y-3.7195
X2.1Y-3.8195
X2.1Y-3.9195
X2.1959Y-1.8195
X2.1959Y-1.9195
X2.1959Y-2.0195
X2.2Y-3.7195
X2.2Y-3.8195
X2.2Y-3.9195
X2.2959Y-1.8195
X2.2959Y-1.9195
X2.2959Y-2.0195
X2.3Y-3.7195
X2.3Y-3.8195
X2.3Y-3.9195
X2.3959Y-1.8195
X2.3959Y-1.9195
X2.3959Y-2.0195
X2.4Y-3.7195
X2.4Y-3.8195
X2.4Y-3.9195
X2.4959Y-1.8195
X2.4959Y-1.9195
X2.4959Y-2.0195
X2.5Y-3.7195
X2.5Y-3.8195
X2.5Y-3.9195
X2.5959Y-1.8195
X2.5959Y-1.9195
X2.5959Y-2.0195
X2.6Y-3.7195
X2.6Y-3.8195
X2.6Y-3.9195
X2.6959Y-1.8195
X2.6959Y-1.9195
X2.6959Y-2.0195
X2.7Y-3.7195
X2.7Y-3.8195
X2.7Y-3.9195
X2.7959Y-1.8195
X2.7959Y-1.9195
X2.7959Y-2.0195
X2.8Y-3.7195
X2.8Y-3.8195
X2.8Y-3.9195
X2.8959Y-1.8195
X2.8959Y-1.9195
X2.8959Y-2.0195
X2.9Y-3.7195
X2.9Y-3.8195
X2.9Y-3.9195
X2.9959Y-1.8195
X2.9959Y-1.9195
X2.9959Y-2.0195
X3.0Y-3.7195
X3.0Y-3.8195
X3.0Y-3.9195
X3.0959Y-1.8195
X3.0959Y-1.9195
X3.0959Y-2.0195
X3.1Y-3.7195
X3.1Y-3.8195
X3.1Y-3.9195
X3.1959Y-1.8195
X3.1959Y-1.9195
X3.1959Y-2.0195
X3.2Y-3.7195
X3.2Y-3.8195
X3.2Y-3.9195
X3.2959Y-1.8195
X3.2959Y-1.9195
X3.2959Y-2.0195
X3.3Y-3.7195
X3.3Y-3.8195
X3.3Y-3.9195
X3.3959Y-1.8195
X3.3959Y-1.9195
X3.3959Y-2.0195
X3.4Y-3.7195
X3.4Y-3.8195
X3.4Y-3.9195
T6
X3.8295Y-1.7984
X3.8295Y-1.8969
X3.8295Y-1.9953
X3.8295Y-2.0937
X3.8295Y-2.3063
X3.8295Y-2.4047
X3.8295Y-2.5031
X3.8295Y-2.6016
X3.8295Y-2.9984
X3.8295Y-3.0969
X3.8295Y-3.1953
X3.8295Y-3.2937
X3.8295Y-3.5063
X3.8295Y-3.6047
X3.8295Y-3.7031
X3.8295Y-3.8016
X4.0295Y-1.7984
X4.0295Y-1.8969
X4.0295Y-1.9953
X4.0295Y-2.0937
X4.0295Y-2.3063
X4.0295Y-2.4047
X4.0295Y-2.5031
X4.0295Y-2.6016
X4.0295Y-2.9984
X4.0295Y-3.0969
X4.0295Y-3.1953
X4.0295Y-3.2937
X4.0295Y-3.5063
X4.0295Y-3.6047
X4.0295Y-3.7031
X4.0295Y-3.8016
X4.3295Y-1.7984
X4.3295Y-1.8969
X4.3295Y-1.9953
X4.3295Y-2.0937
X4.3295Y-2.3063
X4.3295Y-2.4047
X4.3295Y-2.5031
X4.3295Y-2.6016
X4.3295Y-2.9984
X4.3295Y-3.0969
X4.3295Y-3.1953
X4.3295Y-3.2937
X4.3295Y-3.5063
X4.3295Y-3.6047
X4.3295Y-3.7031
X4.3295Y-3.8016
X4.5295Y-1.7984
X4.5295Y-1.8969
X4.5295Y-1.9953
X4.5295Y-2.0937
X4.5295Y-2.3063
X4.5295Y-2.4047
X4.5295Y-2.5031
X4.5295Y-2.6016
X4.5295Y-2.9984
X4.5295Y-3.0969
X4.5295Y-3.1953
X4.5295Y-3.2937
X4.5295Y-3.5063
X4.5295Y-3.6047
X4.5295Y-3.7031
X4.5295Y-3.8016
X4.8295Y-1.7984
X4.8295Y-1.8969
X4.8295Y-1.9953
X4.8295Y-2.0937
X4.8295Y-2.3063
X4.8295Y-2.4047
X4.8295Y-2.5031
X4.8295Y-2.6016
X4.8295Y-2.9984
X4.8295Y-3.0969
X4.8295Y-3.1953
X4.8295Y-3.2937
X4.8295Y-3.5063
X4.8295Y-3.6047
X4.8295Y-3.7031
X4.8295Y-3.8016
X5.0295Y-1.7984
X5.0295Y-1.8969
X5.0295Y-1.9953
X5.0295Y-2.0937
X5.0295Y-2.3063
X5.0295Y-2.4047
X5.0295Y-2.5031
X5.0295Y-2.6016
X5.0295Y-2.9984
X5.0295Y-3.0969
X5.0295Y-3.1953
X5.0295Y-3.2937
X5.0295Y-3.5063
X5.0295Y-3.6047
X5.0295Y-3.7031
X5.0295Y-3.8016
X5.3295Y-1.7984
X5.3295Y-1.8969
X5.3295Y-1.9953
X5.3295Y-2.0937
X5.3295Y-2.3063
X5.3295Y-2.4047
X5.3295Y-2.5031
X5.3295Y-2.6016
X5.3295Y-2.9984
X5.3295Y-3.0969
X5.3295Y-3.1953
X5.3295Y-3.2937
X5.3295Y-3.5063
X5.3295Y-3.6047
X5.3295Y-3.7031
X5.3295Y-3.8016
X5.5295Y-1.7984
X5.5295Y-1.8969
X5.5295Y-1.9953
X5.5295Y-2.0937
X5.5295Y-2.3063
X5.5295Y-2.4047
X5.5295Y-2.5031
X5.5295Y-2.6016
X5.5295Y-2.9984
X5.5295Y-3.0969
X5.5295Y-3.1953
X5.5295Y-3.2937
X5.5295Y-3.5063
X5.5295Y-3.6047
X5.5295Y-3.7031
X5.5295Y-3.8016
T7
X4.0851Y-6.6664
X4.1396Y-6.7782
X4.1942Y-6.6664
X4.2487Y-6.7782
X4.3032Y-6.6664
X4.3577Y-6.7782
X4.4123Y-6.6664
X4.4668Y-6.7782
X4.5213Y-6.6664
X4.5758Y-6.7782
X4.6304Y-6.6664
X4.6849Y-6.7782
X4.7394Y-6.6664
X4.794Y-6.7782
X4.8485Y-6.6664
X4.903Y-6.7782
X4.9575Y-6.6664
X5.0121Y-6.7782
X5.0666Y-6.6664
X5.1211Y-6.7782
X5.1756Y-6.6664
X5.2302Y-6.7782
X5.2847Y-6.6664
X5.3392Y-6.7782
X5.3938Y-6.6664
T8
X1.86Y-0.221
X1.86Y-7.779
X4.14Y-0.221
X4.14Y-7.779
T9
X3.8134Y-6.7223
X5.6654Y-6.7223
T10
X0.25Y-0.25
X0.25Y-7.75
X5.75Y-0.25
X5.75Y-7.75
T0
M30
