G04 #@! TF.GenerationSoftware,KiCad,Pcbnew,(6.0.2)*
G04 #@! TF.CreationDate,2022-07-06T14:10:19-04:00*
G04 #@! TF.ProjectId,FilterMotherboard,46696c74-6572-44d6-9f74-686572626f61,rev?*
G04 #@! TF.SameCoordinates,Original*
G04 #@! TF.FileFunction,Soldermask,Top*
G04 #@! TF.FilePolarity,Negative*
%FSLAX46Y46*%
G04 Gerber Fmt 4.6, Leading zero omitted, Abs format (unit mm)*
G04 Created by KiCad (PCBNEW (6.0.2)) date 2022-07-06 14:10:19*
%MOMM*%
%LPD*%
G01*
G04 APERTURE LIST*
G04 Aperture macros list*
%AMRoundRect*
0 Rectangle with rounded corners*
0 $1 Rounding radius*
0 $2 $3 $4 $5 $6 $7 $8 $9 X,Y pos of 4 corners*
0 Add a 4 corners polygon primitive as box body*
4,1,4,$2,$3,$4,$5,$6,$7,$8,$9,$2,$3,0*
0 Add four circle primitives for the rounded corners*
1,1,$1+$1,$2,$3*
1,1,$1+$1,$4,$5*
1,1,$1+$1,$6,$7*
1,1,$1+$1,$8,$9*
0 Add four rect primitives between the rounded corners*
20,1,$1+$1,$2,$3,$4,$5,0*
20,1,$1+$1,$4,$5,$6,$7,0*
20,1,$1+$1,$6,$7,$8,$9,0*
20,1,$1+$1,$8,$9,$2,$3,0*%
G04 Aperture macros list end*
%ADD10R,2.200000X1.050000*%
%ADD11R,1.050000X1.000000*%
%ADD12RoundRect,0.225000X0.250000X-0.225000X0.250000X0.225000X-0.250000X0.225000X-0.250000X-0.225000X0*%
%ADD13RoundRect,0.200000X0.275000X-0.200000X0.275000X0.200000X-0.275000X0.200000X-0.275000X-0.200000X0*%
%ADD14C,1.605000*%
%ADD15C,6.858000*%
%ADD16C,1.370000*%
%ADD17C,1.360000*%
%ADD18C,4.100000*%
%ADD19R,1.370000X1.370000*%
%ADD20RoundRect,0.200000X-0.275000X0.200000X-0.275000X-0.200000X0.275000X-0.200000X0.275000X0.200000X0*%
%ADD21R,1.700000X1.700000*%
%ADD22O,1.700000X1.700000*%
%ADD23R,1.635000X1.635000*%
%ADD24C,1.635000*%
%ADD25C,4.575000*%
G04 APERTURE END LIST*
D10*
X76310000Y-156202040D03*
X76310000Y-159152040D03*
D11*
X74785000Y-157677040D03*
D12*
X76200000Y-75705000D03*
X76200000Y-74155000D03*
D13*
X81280000Y-87185000D03*
X81280000Y-85535000D03*
X48260000Y-79565000D03*
X48260000Y-77915000D03*
D10*
X73770000Y-149596000D03*
X73770000Y-152546000D03*
D11*
X72245000Y-151071000D03*
D12*
X83820000Y-75705000D03*
X83820000Y-74155000D03*
D14*
X127750000Y-76160000D03*
X127750000Y-78660000D03*
X127750000Y-81160000D03*
X127750000Y-83660000D03*
X127750000Y-89060000D03*
X127750000Y-91560000D03*
X127750000Y-94060000D03*
X127750000Y-96560000D03*
X122670000Y-76160000D03*
X122670000Y-78660000D03*
X122670000Y-81160000D03*
X122670000Y-83660000D03*
X122670000Y-89060000D03*
X122670000Y-91560000D03*
X122670000Y-94060000D03*
X122670000Y-96560000D03*
D13*
X76200000Y-87185000D03*
X76200000Y-85535000D03*
X20320000Y-64325000D03*
X20320000Y-62675000D03*
X66040000Y-79565000D03*
X66040000Y-77915000D03*
D12*
X33020000Y-90945000D03*
X33020000Y-89395000D03*
D13*
X15240000Y-71945000D03*
X15240000Y-70295000D03*
D12*
X40640000Y-68085000D03*
X40640000Y-66535000D03*
X86360000Y-75705000D03*
X86360000Y-74155000D03*
X27940000Y-90945000D03*
X27940000Y-89395000D03*
X15240000Y-90945000D03*
X15240000Y-89395000D03*
D13*
X78740000Y-79565000D03*
X78740000Y-77915000D03*
X12700000Y-87135000D03*
X12700000Y-85485000D03*
D12*
X7620000Y-90945000D03*
X7620000Y-89395000D03*
D13*
X63500000Y-71945000D03*
X63500000Y-70295000D03*
X71120000Y-79565000D03*
X71120000Y-77915000D03*
D12*
X43180000Y-75705000D03*
X43180000Y-74155000D03*
X60960000Y-75705000D03*
X60960000Y-74155000D03*
D13*
X33020000Y-71945000D03*
X33020000Y-70295000D03*
D12*
X55880000Y-83325000D03*
X55880000Y-81775000D03*
D13*
X7620000Y-64325000D03*
X7620000Y-62675000D03*
X17780000Y-71945000D03*
X17780000Y-70295000D03*
D10*
X30590000Y-143246000D03*
X30590000Y-146196000D03*
D11*
X29065000Y-144721000D03*
D12*
X27940000Y-75705000D03*
X27940000Y-74155000D03*
D13*
X22860000Y-87185000D03*
X22860000Y-85535000D03*
D14*
X102350000Y-76160000D03*
X102350000Y-78660000D03*
X102350000Y-81160000D03*
X102350000Y-83660000D03*
X102350000Y-89060000D03*
X102350000Y-91560000D03*
X102350000Y-94060000D03*
X102350000Y-96560000D03*
X97270000Y-76160000D03*
X97270000Y-78660000D03*
X97270000Y-81160000D03*
X97270000Y-83660000D03*
X97270000Y-89060000D03*
X97270000Y-91560000D03*
X97270000Y-94060000D03*
X97270000Y-96560000D03*
D12*
X40640000Y-75705000D03*
X40640000Y-74155000D03*
D15*
X146050000Y-196850000D03*
D13*
X55880000Y-71945000D03*
X55880000Y-70295000D03*
D15*
X6350000Y-6350000D03*
D12*
X35560000Y-68085000D03*
X35560000Y-66535000D03*
X81280000Y-75705000D03*
X81280000Y-74155000D03*
X53340000Y-83325000D03*
X53340000Y-81775000D03*
D13*
X81280000Y-71945000D03*
X81280000Y-70295000D03*
X83820000Y-87185000D03*
X83820000Y-85535000D03*
X17780000Y-87185000D03*
X17780000Y-85535000D03*
D12*
X30480000Y-90945000D03*
X30480000Y-89395000D03*
D14*
X127750000Y-45680000D03*
X127750000Y-48180000D03*
X127750000Y-50680000D03*
X127750000Y-53180000D03*
X127750000Y-58580000D03*
X127750000Y-61080000D03*
X127750000Y-63580000D03*
X127750000Y-66080000D03*
X122670000Y-45680000D03*
X122670000Y-48180000D03*
X122670000Y-50680000D03*
X122670000Y-53180000D03*
X122670000Y-58580000D03*
X122670000Y-61080000D03*
X122670000Y-63580000D03*
X122670000Y-66080000D03*
D12*
X68580000Y-75705000D03*
X68580000Y-74155000D03*
X45720000Y-83325000D03*
X45720000Y-81775000D03*
D13*
X86360000Y-64325000D03*
X86360000Y-62675000D03*
D12*
X58420000Y-83325000D03*
X58420000Y-81775000D03*
X78740000Y-83325000D03*
X78740000Y-81775000D03*
D13*
X40640000Y-79565000D03*
X40640000Y-77915000D03*
D12*
X63500000Y-75705000D03*
X63500000Y-74155000D03*
D13*
X30480000Y-79565000D03*
X30480000Y-77915000D03*
D12*
X73660000Y-68085000D03*
X73660000Y-66535000D03*
D10*
X71230000Y-143246000D03*
X71230000Y-146196000D03*
D11*
X69705000Y-144721000D03*
D13*
X22860000Y-71945000D03*
X22860000Y-70295000D03*
D12*
X35560000Y-75705000D03*
X35560000Y-74155000D03*
D13*
X22860000Y-79565000D03*
X22860000Y-77915000D03*
D12*
X43180000Y-83325000D03*
X43180000Y-81775000D03*
D14*
X115050000Y-76160000D03*
X115050000Y-78660000D03*
X115050000Y-81160000D03*
X115050000Y-83660000D03*
X115050000Y-89060000D03*
X115050000Y-91560000D03*
X115050000Y-94060000D03*
X115050000Y-96560000D03*
X109970000Y-76160000D03*
X109970000Y-78660000D03*
X109970000Y-81160000D03*
X109970000Y-83660000D03*
X109970000Y-89060000D03*
X109970000Y-91560000D03*
X109970000Y-94060000D03*
X109970000Y-96560000D03*
D12*
X7620000Y-75705000D03*
X7620000Y-74155000D03*
D13*
X38100000Y-79565000D03*
X38100000Y-77915000D03*
D12*
X73660000Y-75705000D03*
X73660000Y-74155000D03*
X27940000Y-68085000D03*
X27940000Y-66535000D03*
D13*
X27940000Y-64325000D03*
X27940000Y-62675000D03*
X60960000Y-79565000D03*
X60960000Y-77915000D03*
D15*
X6350000Y-196850000D03*
D16*
X7730000Y-130750000D03*
X7730000Y-133290000D03*
X10270000Y-130750000D03*
X10270000Y-133290000D03*
X12810000Y-130750000D03*
X12810000Y-133290000D03*
X15350000Y-130750000D03*
X15350000Y-133290000D03*
X17890000Y-130750000D03*
X17890000Y-133290000D03*
X20430000Y-130750000D03*
X20430000Y-133290000D03*
X22970000Y-130750000D03*
X22970000Y-133290000D03*
X25510000Y-130750000D03*
X25510000Y-133290000D03*
X28050000Y-130750000D03*
X28050000Y-133290000D03*
X30590000Y-130750000D03*
X30590000Y-133290000D03*
X33130000Y-130750000D03*
X33130000Y-133290000D03*
X35670000Y-130750000D03*
X35670000Y-133290000D03*
X38210000Y-130750000D03*
X38210000Y-133290000D03*
X40750000Y-130750000D03*
X40750000Y-133290000D03*
X43290000Y-130750000D03*
X43290000Y-133290000D03*
X45830000Y-130750000D03*
X45830000Y-133290000D03*
X48370000Y-130750000D03*
X48370000Y-133290000D03*
X50910000Y-130750000D03*
X50910000Y-133290000D03*
X53450000Y-130750000D03*
X53450000Y-133290000D03*
X55990000Y-130750000D03*
X55990000Y-133290000D03*
X58530000Y-130750000D03*
X58530000Y-133290000D03*
X61070000Y-130750000D03*
X61070000Y-133290000D03*
X63610000Y-130750000D03*
X63610000Y-133290000D03*
X66150000Y-130750000D03*
X66150000Y-133290000D03*
X68690000Y-130750000D03*
X68690000Y-133290000D03*
X71230000Y-130750000D03*
X71230000Y-133290000D03*
X73770000Y-130750000D03*
X73770000Y-133290000D03*
X76310000Y-130750000D03*
X76310000Y-133290000D03*
X78850000Y-130750000D03*
X78850000Y-133290000D03*
X81390000Y-130750000D03*
X81390000Y-133290000D03*
X83930000Y-130750000D03*
X83930000Y-133290000D03*
X86470000Y-130750000D03*
X86470000Y-133290000D03*
D17*
X55245000Y-7513400D03*
X56515000Y-9413400D03*
X57785000Y-7513400D03*
X59055000Y-9413400D03*
X60325000Y-7513400D03*
X61595000Y-9413400D03*
X62865000Y-7513400D03*
X64135000Y-9413400D03*
X65405000Y-7513400D03*
X66675000Y-9413400D03*
X67945000Y-7513400D03*
X69215000Y-9413400D03*
X70485000Y-7513400D03*
X71755000Y-9413400D03*
X73025000Y-7513400D03*
X74295000Y-9413400D03*
X75565000Y-7513400D03*
X76835000Y-9413400D03*
X78105000Y-7513400D03*
X79375000Y-9413400D03*
X80645000Y-7513400D03*
X81915000Y-9413400D03*
X83185000Y-7513400D03*
X84455000Y-9413400D03*
X85725000Y-7513400D03*
X86995000Y-9413400D03*
X88265000Y-7513400D03*
X89535000Y-9413400D03*
X90805000Y-7513400D03*
X92075000Y-9413400D03*
X93345000Y-7513400D03*
X94615000Y-9413400D03*
X95885000Y-7513400D03*
X97155000Y-9413400D03*
X55245000Y-3713400D03*
X56515000Y-5613400D03*
X57785000Y-3713400D03*
X59055000Y-5613400D03*
X60325000Y-3713400D03*
X61595000Y-5613400D03*
X62865000Y-3713400D03*
X64135000Y-5613400D03*
X65405000Y-3713400D03*
X66675000Y-5613400D03*
X67945000Y-3713400D03*
X69215000Y-5613400D03*
X70485000Y-3713400D03*
X71755000Y-5613400D03*
X73025000Y-3713400D03*
X74295000Y-5613400D03*
X75565000Y-3713400D03*
X76835000Y-5613400D03*
X78105000Y-3713400D03*
X79375000Y-5613400D03*
X80645000Y-3713400D03*
X81915000Y-5613400D03*
X83185000Y-3713400D03*
X84455000Y-5613400D03*
X85725000Y-3713400D03*
X86995000Y-5613400D03*
X88265000Y-3713400D03*
X89535000Y-5613400D03*
X90805000Y-3713400D03*
X92075000Y-5613400D03*
X93345000Y-3713400D03*
X94615000Y-5613400D03*
X95885000Y-3713400D03*
X97155000Y-5613400D03*
D18*
X105155000Y-5613400D03*
X47245000Y-5613400D03*
D12*
X17780000Y-90945000D03*
X17780000Y-89395000D03*
D10*
X12810000Y-149596000D03*
X12810000Y-152546000D03*
D11*
X11285000Y-151071000D03*
D13*
X71120000Y-64325000D03*
X71120000Y-62675000D03*
X7620000Y-79565000D03*
X7620000Y-77915000D03*
D19*
X7620000Y-99555000D03*
D16*
X7620000Y-97015000D03*
X7620000Y-94475000D03*
X10160000Y-99555000D03*
X10160000Y-97015000D03*
X10160000Y-94475000D03*
X12700000Y-99555000D03*
X12700000Y-97015000D03*
X12700000Y-94475000D03*
X15240000Y-99555000D03*
X15240000Y-97015000D03*
X15240000Y-94475000D03*
X17780000Y-99555000D03*
X17780000Y-97015000D03*
X17780000Y-94475000D03*
X20320000Y-99555000D03*
X20320000Y-97015000D03*
X20320000Y-94475000D03*
X22860000Y-99555000D03*
X22860000Y-97015000D03*
X22860000Y-94475000D03*
X25400000Y-99555000D03*
X25400000Y-97015000D03*
X25400000Y-94475000D03*
X27940000Y-99555000D03*
X27940000Y-97015000D03*
X27940000Y-94475000D03*
X30480000Y-99555000D03*
X30480000Y-97015000D03*
X30480000Y-94475000D03*
X33020000Y-99555000D03*
X33020000Y-97015000D03*
X33020000Y-94475000D03*
X35560000Y-99555000D03*
X35560000Y-97015000D03*
X35560000Y-94475000D03*
X38100000Y-99555000D03*
X38100000Y-97015000D03*
X38100000Y-94475000D03*
X40640000Y-99555000D03*
X40640000Y-97015000D03*
X40640000Y-94475000D03*
X43180000Y-99555000D03*
X43180000Y-97015000D03*
X43180000Y-94475000D03*
X45720000Y-99555000D03*
X45720000Y-97015000D03*
X45720000Y-94475000D03*
X48260000Y-99555000D03*
X48260000Y-97015000D03*
X48260000Y-94475000D03*
X50800000Y-99555000D03*
X50800000Y-97015000D03*
X50800000Y-94475000D03*
X53340000Y-99555000D03*
X53340000Y-97015000D03*
X53340000Y-94475000D03*
X55880000Y-99555000D03*
X55880000Y-97015000D03*
X55880000Y-94475000D03*
X58420000Y-99555000D03*
X58420000Y-97015000D03*
X58420000Y-94475000D03*
X60960000Y-99555000D03*
X60960000Y-97015000D03*
X60960000Y-94475000D03*
X63500000Y-99555000D03*
X63500000Y-97015000D03*
X63500000Y-94475000D03*
X66040000Y-99555000D03*
X66040000Y-97015000D03*
X66040000Y-94475000D03*
X68580000Y-99555000D03*
X68580000Y-97015000D03*
X68580000Y-94475000D03*
X71120000Y-99555000D03*
X71120000Y-97015000D03*
X71120000Y-94475000D03*
X73660000Y-99555000D03*
X73660000Y-97015000D03*
X73660000Y-94475000D03*
X76200000Y-99555000D03*
X76200000Y-97015000D03*
X76200000Y-94475000D03*
X78740000Y-99555000D03*
X78740000Y-97015000D03*
X78740000Y-94475000D03*
X81280000Y-99555000D03*
X81280000Y-97015000D03*
X81280000Y-94475000D03*
X83820000Y-99555000D03*
X83820000Y-97015000D03*
X83820000Y-94475000D03*
X86360000Y-99555000D03*
X86360000Y-97015000D03*
X86360000Y-94475000D03*
D12*
X38100000Y-90945000D03*
X38100000Y-89395000D03*
D13*
X38100000Y-87185000D03*
X38100000Y-85535000D03*
X38100000Y-64325000D03*
X38100000Y-62675000D03*
X66040000Y-87185000D03*
X66040000Y-85535000D03*
X66040000Y-71945000D03*
X66040000Y-70295000D03*
D12*
X7620000Y-83325000D03*
X7620000Y-81775000D03*
X33020000Y-83325000D03*
X33020000Y-81775000D03*
D13*
X15240000Y-79565000D03*
X15240000Y-77915000D03*
D10*
X66150000Y-156202040D03*
X66150000Y-159152040D03*
D11*
X64625000Y-157677040D03*
D12*
X63500000Y-90945000D03*
X63500000Y-89395000D03*
D13*
X78740000Y-64325000D03*
X78740000Y-62675000D03*
D12*
X60960000Y-90945000D03*
X60960000Y-89395000D03*
X15240000Y-68085000D03*
X15240000Y-66535000D03*
D13*
X45720000Y-79565000D03*
X45720000Y-77915000D03*
X78740000Y-87185000D03*
X78740000Y-85535000D03*
D12*
X10160000Y-68085000D03*
X10160000Y-66535000D03*
X45720000Y-90945000D03*
X45720000Y-89395000D03*
X76200000Y-90945000D03*
X76200000Y-89395000D03*
D13*
X25400000Y-64325000D03*
X25400000Y-62675000D03*
X43180000Y-79565000D03*
X43180000Y-77915000D03*
X30480000Y-71945000D03*
X30480000Y-70295000D03*
D12*
X78740000Y-90945000D03*
X78740000Y-89395000D03*
D10*
X35670000Y-156202040D03*
X35670000Y-159152040D03*
D11*
X34145000Y-157677040D03*
D12*
X7620000Y-68085000D03*
X7620000Y-66535000D03*
D14*
X115050000Y-45680000D03*
X115050000Y-48180000D03*
X115050000Y-50680000D03*
X115050000Y-53180000D03*
X115050000Y-58580000D03*
X115050000Y-61080000D03*
X115050000Y-63580000D03*
X115050000Y-66080000D03*
X109970000Y-45680000D03*
X109970000Y-48180000D03*
X109970000Y-50680000D03*
X109970000Y-53180000D03*
X109970000Y-58580000D03*
X109970000Y-61080000D03*
X109970000Y-63580000D03*
X109970000Y-66080000D03*
D12*
X27940000Y-83325000D03*
X27940000Y-81775000D03*
D13*
X35560000Y-64325000D03*
X35560000Y-62675000D03*
X12700000Y-71945000D03*
X12700000Y-70295000D03*
D12*
X17780000Y-83325000D03*
X17780000Y-81775000D03*
D13*
X48260000Y-87185000D03*
X48260000Y-85535000D03*
X58420000Y-64325000D03*
X58420000Y-62675000D03*
D12*
X30480000Y-75705000D03*
X30480000Y-74155000D03*
X81280000Y-68085000D03*
X81280000Y-66535000D03*
X71120000Y-83325000D03*
X71120000Y-81775000D03*
D13*
X60960000Y-87185000D03*
X60960000Y-85535000D03*
X50800000Y-71945000D03*
X50800000Y-70295000D03*
D12*
X66040000Y-90945000D03*
X66040000Y-89395000D03*
D13*
X35560000Y-71945000D03*
X35560000Y-70295000D03*
X63500000Y-64325000D03*
X63500000Y-62675000D03*
D12*
X20320000Y-68085000D03*
X20320000Y-66535000D03*
D13*
X45720000Y-64325000D03*
X45720000Y-62675000D03*
D10*
X7730000Y-136898045D03*
X7730000Y-139848045D03*
D11*
X6205000Y-138373045D03*
D14*
X102350000Y-45680000D03*
X102350000Y-48180000D03*
X102350000Y-50680000D03*
X102350000Y-53180000D03*
X102350000Y-58580000D03*
X102350000Y-61080000D03*
X102350000Y-63580000D03*
X102350000Y-66080000D03*
X97270000Y-45680000D03*
X97270000Y-48180000D03*
X97270000Y-50680000D03*
X97270000Y-53180000D03*
X97270000Y-58580000D03*
X97270000Y-61080000D03*
X97270000Y-63580000D03*
X97270000Y-66080000D03*
D20*
X39446941Y-193401965D03*
X39446941Y-195051965D03*
D12*
X45720000Y-68085000D03*
X45720000Y-66535000D03*
D13*
X83820000Y-71945000D03*
X83820000Y-70295000D03*
D10*
X68690000Y-136898040D03*
X68690000Y-139848040D03*
D11*
X67165000Y-138373040D03*
D12*
X22860000Y-68085000D03*
X22860000Y-66535000D03*
X25400000Y-75705000D03*
X25400000Y-74155000D03*
X33020000Y-75705000D03*
X33020000Y-74155000D03*
X38100000Y-68085000D03*
X38100000Y-66535000D03*
X48260000Y-75705000D03*
X48260000Y-74155000D03*
D10*
X20430000Y-143246000D03*
X20430000Y-146196000D03*
D11*
X18905000Y-144721000D03*
D12*
X66040000Y-68085000D03*
X66040000Y-66535000D03*
D13*
X73660000Y-71945000D03*
X73660000Y-70295000D03*
D12*
X58420000Y-90945000D03*
X58420000Y-89395000D03*
D20*
X127000000Y-5350000D03*
X127000000Y-7000000D03*
D12*
X38100000Y-83325000D03*
X38100000Y-81775000D03*
D10*
X81390000Y-143246000D03*
X81390000Y-146196000D03*
D11*
X79865000Y-144721000D03*
D12*
X68580000Y-68085000D03*
X68580000Y-66535000D03*
X10160000Y-75705000D03*
X10160000Y-74155000D03*
D10*
X15350000Y-156202040D03*
X15350000Y-159152040D03*
D11*
X13825000Y-157677040D03*
D12*
X68580000Y-83325000D03*
X68580000Y-81775000D03*
X22860000Y-83325000D03*
X22860000Y-81775000D03*
X40640000Y-83325000D03*
X40640000Y-81775000D03*
D13*
X25400000Y-71945000D03*
X25400000Y-70295000D03*
D12*
X83820000Y-68085000D03*
X83820000Y-66535000D03*
X86360000Y-83325000D03*
X86360000Y-81775000D03*
D13*
X27940000Y-79565000D03*
X27940000Y-77915000D03*
D12*
X86360000Y-90945000D03*
X86360000Y-89395000D03*
D10*
X61070000Y-143246000D03*
X61070000Y-146196000D03*
D11*
X59545000Y-144721000D03*
D13*
X27940000Y-71945000D03*
X27940000Y-70295000D03*
X58420000Y-87185000D03*
X58420000Y-85535000D03*
D12*
X53340000Y-68085000D03*
X53340000Y-66535000D03*
X78740000Y-68085000D03*
X78740000Y-66535000D03*
X81280000Y-83325000D03*
X81280000Y-81775000D03*
D19*
X7515000Y-51295000D03*
D16*
X7515000Y-48755000D03*
X7515000Y-46215000D03*
X10055000Y-51295000D03*
X10055000Y-48755000D03*
X10055000Y-46215000D03*
X12595000Y-51295000D03*
X12595000Y-48755000D03*
X12595000Y-46215000D03*
X15135000Y-51295000D03*
X15135000Y-48755000D03*
X15135000Y-46215000D03*
X17675000Y-51295000D03*
X17675000Y-48755000D03*
X17675000Y-46215000D03*
X20215000Y-51295000D03*
X20215000Y-48755000D03*
X20215000Y-46215000D03*
X22755000Y-51295000D03*
X22755000Y-48755000D03*
X22755000Y-46215000D03*
X25295000Y-51295000D03*
X25295000Y-48755000D03*
X25295000Y-46215000D03*
X27835000Y-51295000D03*
X27835000Y-48755000D03*
X27835000Y-46215000D03*
X30375000Y-51295000D03*
X30375000Y-48755000D03*
X30375000Y-46215000D03*
X32915000Y-51295000D03*
X32915000Y-48755000D03*
X32915000Y-46215000D03*
X35455000Y-51295000D03*
X35455000Y-48755000D03*
X35455000Y-46215000D03*
X37995000Y-51295000D03*
X37995000Y-48755000D03*
X37995000Y-46215000D03*
X40535000Y-51295000D03*
X40535000Y-48755000D03*
X40535000Y-46215000D03*
X43075000Y-51295000D03*
X43075000Y-48755000D03*
X43075000Y-46215000D03*
X45615000Y-51295000D03*
X45615000Y-48755000D03*
X45615000Y-46215000D03*
X48155000Y-51295000D03*
X48155000Y-48755000D03*
X48155000Y-46215000D03*
X50695000Y-51295000D03*
X50695000Y-48755000D03*
X50695000Y-46215000D03*
X53235000Y-51295000D03*
X53235000Y-48755000D03*
X53235000Y-46215000D03*
X55775000Y-51295000D03*
X55775000Y-48755000D03*
X55775000Y-46215000D03*
X58315000Y-51295000D03*
X58315000Y-48755000D03*
X58315000Y-46215000D03*
X60855000Y-51295000D03*
X60855000Y-48755000D03*
X60855000Y-46215000D03*
X63395000Y-51295000D03*
X63395000Y-48755000D03*
X63395000Y-46215000D03*
X65935000Y-51295000D03*
X65935000Y-48755000D03*
X65935000Y-46215000D03*
X68475000Y-51295000D03*
X68475000Y-48755000D03*
X68475000Y-46215000D03*
X71015000Y-51295000D03*
X71015000Y-48755000D03*
X71015000Y-46215000D03*
X73555000Y-51295000D03*
X73555000Y-48755000D03*
X73555000Y-46215000D03*
X76095000Y-51295000D03*
X76095000Y-48755000D03*
X76095000Y-46215000D03*
X78635000Y-51295000D03*
X78635000Y-48755000D03*
X78635000Y-46215000D03*
X81175000Y-51295000D03*
X81175000Y-48755000D03*
X81175000Y-46215000D03*
X83715000Y-51295000D03*
X83715000Y-48755000D03*
X83715000Y-46215000D03*
X86255000Y-51295000D03*
X86255000Y-48755000D03*
X86255000Y-46215000D03*
D13*
X17780000Y-79565000D03*
X17780000Y-77915000D03*
X25400000Y-79565000D03*
X25400000Y-77915000D03*
D12*
X48260000Y-68085000D03*
X48260000Y-66535000D03*
X12700000Y-68085000D03*
X12700000Y-66535000D03*
D13*
X10160000Y-87185000D03*
X10160000Y-85535000D03*
X25400000Y-87185000D03*
X25400000Y-85535000D03*
X86360000Y-79565000D03*
X86360000Y-77915000D03*
X86360000Y-87185000D03*
X86360000Y-85535000D03*
D12*
X76200000Y-83325000D03*
X76200000Y-81775000D03*
D13*
X81280000Y-64325000D03*
X81280000Y-62675000D03*
X38100000Y-71945000D03*
X38100000Y-70295000D03*
X43180000Y-87185000D03*
X43180000Y-85535000D03*
D10*
X28050000Y-136898040D03*
X28050000Y-139848040D03*
D11*
X26525000Y-138373040D03*
D13*
X33020000Y-87185000D03*
X33020000Y-85535000D03*
D12*
X12700000Y-83325000D03*
X12700000Y-81775000D03*
X12700000Y-90945000D03*
X12700000Y-89395000D03*
D13*
X10160000Y-64325000D03*
X10160000Y-62675000D03*
D12*
X33020000Y-68085000D03*
X33020000Y-66535000D03*
D21*
X132105000Y-179550000D03*
D22*
X134645000Y-179550000D03*
X132105000Y-182090000D03*
X134645000Y-182090000D03*
D12*
X43180000Y-68085000D03*
X43180000Y-66535000D03*
D13*
X50800000Y-87185000D03*
X50800000Y-85535000D03*
D12*
X55880000Y-90945000D03*
X55880000Y-89395000D03*
X20320000Y-75705000D03*
X20320000Y-74155000D03*
X38100000Y-75705000D03*
X38100000Y-74155000D03*
D13*
X83820000Y-79565000D03*
X83820000Y-77915000D03*
D10*
X17890000Y-136898040D03*
X17890000Y-139848040D03*
D11*
X16365000Y-138373040D03*
D12*
X48260000Y-90945000D03*
X48260000Y-89395000D03*
D13*
X55880000Y-79565000D03*
X55880000Y-77915000D03*
D12*
X71120000Y-75705000D03*
X71120000Y-74155000D03*
X73660000Y-90945000D03*
X73660000Y-89395000D03*
X22860000Y-90945000D03*
X22860000Y-89395000D03*
X48260000Y-83325000D03*
X48260000Y-81775000D03*
X83820000Y-90945000D03*
X83820000Y-89395000D03*
D13*
X73660000Y-87185000D03*
X73660000Y-85535000D03*
X33020000Y-79565000D03*
X33020000Y-77915000D03*
D10*
X33130000Y-149596000D03*
X33130000Y-152546000D03*
D11*
X31605000Y-151071000D03*
D13*
X12700000Y-64325000D03*
X12700000Y-62675000D03*
X63500000Y-79535000D03*
X63500000Y-77885000D03*
X83820000Y-64325000D03*
X83820000Y-62675000D03*
X60960000Y-64325000D03*
X60960000Y-62675000D03*
X58420000Y-71945000D03*
X58420000Y-70295000D03*
D12*
X17780000Y-75705000D03*
X17780000Y-74155000D03*
D13*
X40640000Y-71945000D03*
X40640000Y-70295000D03*
D12*
X53340000Y-75705000D03*
X53340000Y-74155000D03*
D13*
X53340000Y-71945000D03*
X53340000Y-70295000D03*
D12*
X20320000Y-90945000D03*
X20320000Y-89395000D03*
D13*
X27940000Y-87185000D03*
X27940000Y-85535000D03*
D10*
X53450000Y-149596000D03*
X53450000Y-152546000D03*
D11*
X51925000Y-151071000D03*
D10*
X40750000Y-143246000D03*
X40750000Y-146196000D03*
D11*
X39225000Y-144721000D03*
D12*
X17780000Y-68085000D03*
X17780000Y-66535000D03*
D21*
X121300000Y-4825000D03*
D22*
X123840000Y-4825000D03*
X121300000Y-7365000D03*
X123840000Y-7365000D03*
D12*
X66040000Y-83325000D03*
X66040000Y-81775000D03*
D13*
X55880000Y-64325000D03*
X55880000Y-62675000D03*
D12*
X60960000Y-68085000D03*
X60960000Y-66535000D03*
D13*
X68580000Y-64325000D03*
X68580000Y-62675000D03*
D23*
X103761500Y-169327000D03*
D24*
X106531500Y-169327000D03*
X109301500Y-169327000D03*
X112071500Y-169327000D03*
X114841500Y-169327000D03*
X117611500Y-169327000D03*
X120381500Y-169327000D03*
X123151500Y-169327000D03*
X125921500Y-169327000D03*
X128691500Y-169327000D03*
X131461500Y-169327000D03*
X134231500Y-169327000D03*
X137001500Y-169327000D03*
X105146500Y-172167000D03*
X107916500Y-172167000D03*
X110686500Y-172167000D03*
X113456500Y-172167000D03*
X116226500Y-172167000D03*
X118996500Y-172167000D03*
X121766500Y-172167000D03*
X124536500Y-172167000D03*
X127306500Y-172167000D03*
X130076500Y-172167000D03*
X132846500Y-172167000D03*
X135616500Y-172167000D03*
D25*
X96861500Y-170747000D03*
X143901500Y-170747000D03*
D13*
X73660000Y-79565000D03*
X73660000Y-77915000D03*
X45720000Y-87185000D03*
X45720000Y-85535000D03*
X53340000Y-79565000D03*
X53340000Y-77915000D03*
D12*
X73660000Y-83325000D03*
X73660000Y-81775000D03*
D13*
X45720000Y-71945000D03*
X45720000Y-70295000D03*
D10*
X25510000Y-156202040D03*
X25510000Y-159152040D03*
D11*
X23985000Y-157677040D03*
D13*
X17780000Y-64325000D03*
X17780000Y-62675000D03*
D10*
X45830000Y-156202040D03*
X45830000Y-159152040D03*
D11*
X44305000Y-157677040D03*
D10*
X63610000Y-149596000D03*
X63610000Y-152546000D03*
D11*
X62085000Y-151071000D03*
D12*
X81280000Y-90945000D03*
X81280000Y-89395000D03*
D13*
X20320000Y-71945000D03*
X20320000Y-70295000D03*
X40640000Y-64325000D03*
X40640000Y-62675000D03*
X35560000Y-79565000D03*
X35560000Y-77915000D03*
X43180000Y-71945000D03*
X43180000Y-70295000D03*
D10*
X78850000Y-136898040D03*
X78850000Y-139848040D03*
D11*
X77325000Y-138373040D03*
D13*
X53340000Y-87185000D03*
X53340000Y-85535000D03*
D10*
X22970000Y-149596000D03*
X22970000Y-152546000D03*
D11*
X21445000Y-151071000D03*
D13*
X10160000Y-71945000D03*
X10160000Y-70295000D03*
D12*
X50800000Y-68085000D03*
X50800000Y-66535000D03*
D13*
X7620000Y-87185000D03*
X7620000Y-85535000D03*
X66040000Y-64325000D03*
X66040000Y-62675000D03*
D10*
X55990000Y-156202040D03*
X55990000Y-159152040D03*
D11*
X54465000Y-157677040D03*
D13*
X15240000Y-87185000D03*
X15240000Y-85535000D03*
D12*
X30480000Y-83325000D03*
X30480000Y-81775000D03*
X40640000Y-90945000D03*
X40640000Y-89395000D03*
X22860000Y-75705000D03*
X22860000Y-74155000D03*
X76200000Y-68085000D03*
X76200000Y-66535000D03*
D13*
X50800000Y-64325000D03*
X50800000Y-62675000D03*
D12*
X53340000Y-90945000D03*
X53340000Y-89395000D03*
X78740000Y-75705000D03*
X78740000Y-74155000D03*
D10*
X38210000Y-136898040D03*
X38210000Y-139848040D03*
D11*
X36685000Y-138373040D03*
D13*
X76200000Y-71945000D03*
X76200000Y-70295000D03*
X20320000Y-87185000D03*
X20320000Y-85535000D03*
D12*
X20320000Y-83325000D03*
X20320000Y-81775000D03*
X63500000Y-68085000D03*
X63500000Y-66535000D03*
X63500000Y-83325000D03*
X63500000Y-81775000D03*
X58420000Y-68085000D03*
X58420000Y-66535000D03*
X30480000Y-68085000D03*
X30480000Y-66535000D03*
X50800000Y-90945000D03*
X50800000Y-89395000D03*
D13*
X68580000Y-79565000D03*
X68580000Y-77915000D03*
X60960000Y-71945000D03*
X60960000Y-70295000D03*
D12*
X55880000Y-75705000D03*
X55880000Y-74155000D03*
D13*
X68580000Y-71945000D03*
X68580000Y-70295000D03*
X30480000Y-64325000D03*
X30480000Y-62675000D03*
X50800000Y-79565000D03*
X50800000Y-77915000D03*
X58420000Y-79565000D03*
X58420000Y-77915000D03*
D14*
X140450000Y-76160000D03*
X140450000Y-78660000D03*
X140450000Y-81160000D03*
X140450000Y-83660000D03*
X140450000Y-89060000D03*
X140450000Y-91560000D03*
X140450000Y-94060000D03*
X140450000Y-96560000D03*
X135370000Y-76160000D03*
X135370000Y-78660000D03*
X135370000Y-81160000D03*
X135370000Y-83660000D03*
X135370000Y-89060000D03*
X135370000Y-91560000D03*
X135370000Y-94060000D03*
X135370000Y-96560000D03*
D13*
X15240000Y-64325000D03*
X15240000Y-62675000D03*
D12*
X50800000Y-83325000D03*
X50800000Y-81775000D03*
D13*
X81280000Y-79565000D03*
X81280000Y-77915000D03*
D12*
X10160000Y-90945000D03*
X10160000Y-89395000D03*
X83820000Y-83325000D03*
X83820000Y-81775000D03*
D13*
X71120000Y-71945000D03*
X71120000Y-70295000D03*
D16*
X7620000Y-56374995D03*
X7620000Y-58914995D03*
X10160000Y-56374995D03*
X10160000Y-58914995D03*
X12700000Y-56374995D03*
X12700000Y-58914995D03*
X15240000Y-56374995D03*
X15240000Y-58914995D03*
X17780000Y-56374995D03*
X17780000Y-58914995D03*
X20320000Y-56374995D03*
X20320000Y-58914995D03*
X22860000Y-56374995D03*
X22860000Y-58914995D03*
X25400000Y-56374995D03*
X25400000Y-58914995D03*
X27940000Y-56374995D03*
X27940000Y-58914995D03*
X30480000Y-56374995D03*
X30480000Y-58914995D03*
X33020000Y-56374995D03*
X33020000Y-58914995D03*
X35560000Y-56374995D03*
X35560000Y-58914995D03*
X38100000Y-56374995D03*
X38100000Y-58914995D03*
X40640000Y-56374995D03*
X40640000Y-58914995D03*
X43180000Y-56374995D03*
X43180000Y-58914995D03*
X45720000Y-56374995D03*
X45720000Y-58914995D03*
X48260000Y-56374995D03*
X48260000Y-58914995D03*
X50800000Y-56374995D03*
X50800000Y-58914995D03*
X53340000Y-56374995D03*
X53340000Y-58914995D03*
X55880000Y-56374995D03*
X55880000Y-58914995D03*
X58420000Y-56374995D03*
X58420000Y-58914995D03*
X60960000Y-56374995D03*
X60960000Y-58914995D03*
X63500000Y-56374995D03*
X63500000Y-58914995D03*
X66040000Y-56374995D03*
X66040000Y-58914995D03*
X68580000Y-56374995D03*
X68580000Y-58914995D03*
X71120000Y-56374995D03*
X71120000Y-58914995D03*
X73660000Y-56374995D03*
X73660000Y-58914995D03*
X76200000Y-56374995D03*
X76200000Y-58914995D03*
X78740000Y-56374995D03*
X78740000Y-58914995D03*
X81280000Y-56374995D03*
X81280000Y-58914995D03*
X83820000Y-56374995D03*
X83820000Y-58914995D03*
X86360000Y-56374995D03*
X86360000Y-58914995D03*
D12*
X25400000Y-68085000D03*
X25400000Y-66535000D03*
D10*
X10270000Y-143246000D03*
X10270000Y-146196000D03*
D11*
X8745000Y-144721000D03*
D13*
X30480000Y-87185000D03*
X30480000Y-85535000D03*
X22860000Y-64325000D03*
X22860000Y-62675000D03*
X33020000Y-64325000D03*
X33020000Y-62675000D03*
X63500000Y-87185000D03*
X63500000Y-85535000D03*
D12*
X25400000Y-83325000D03*
X25400000Y-81775000D03*
D13*
X48260000Y-71945000D03*
X48260000Y-70295000D03*
X76200000Y-79565000D03*
X76200000Y-77915000D03*
D10*
X50910000Y-143246000D03*
X50910000Y-146196000D03*
D11*
X49385000Y-144721000D03*
D12*
X45720000Y-75705000D03*
X45720000Y-74155000D03*
D10*
X86470000Y-156202040D03*
X86470000Y-159152040D03*
D11*
X84945000Y-157677040D03*
D13*
X43180000Y-64325000D03*
X43180000Y-62675000D03*
D12*
X55880000Y-68085000D03*
X55880000Y-66535000D03*
D20*
X137830000Y-179925000D03*
X137830000Y-181575000D03*
D12*
X10160000Y-83325000D03*
X10160000Y-81775000D03*
D13*
X55880000Y-87185000D03*
X55880000Y-85535000D03*
X35560000Y-87185000D03*
X35560000Y-85535000D03*
X76200000Y-64325000D03*
X76200000Y-62675000D03*
D14*
X140450000Y-45680000D03*
X140450000Y-48180000D03*
X140450000Y-50680000D03*
X140450000Y-53180000D03*
X140450000Y-58580000D03*
X140450000Y-61080000D03*
X140450000Y-63580000D03*
X140450000Y-66080000D03*
X135370000Y-45680000D03*
X135370000Y-48180000D03*
X135370000Y-50680000D03*
X135370000Y-53180000D03*
X135370000Y-58580000D03*
X135370000Y-61080000D03*
X135370000Y-63580000D03*
X135370000Y-66080000D03*
D12*
X43180000Y-90945000D03*
X43180000Y-89395000D03*
D10*
X43290000Y-149596000D03*
X43290000Y-152546000D03*
D11*
X41765000Y-151071000D03*
D12*
X68580000Y-90945000D03*
X68580000Y-89395000D03*
D21*
X34121941Y-193036969D03*
D22*
X36661941Y-193036969D03*
X34121941Y-195576969D03*
X36661941Y-195576969D03*
D13*
X48260000Y-64325000D03*
X48260000Y-62675000D03*
D12*
X15240000Y-75705000D03*
X15240000Y-74155000D03*
D17*
X97155000Y-195686600D03*
X95885000Y-193786600D03*
X94615000Y-195686600D03*
X93345000Y-193786600D03*
X92075000Y-195686600D03*
X90805000Y-193786600D03*
X89535000Y-195686600D03*
X88265000Y-193786600D03*
X86995000Y-195686600D03*
X85725000Y-193786600D03*
X84455000Y-195686600D03*
X83185000Y-193786600D03*
X81915000Y-195686600D03*
X80645000Y-193786600D03*
X79375000Y-195686600D03*
X78105000Y-193786600D03*
X76835000Y-195686600D03*
X75565000Y-193786600D03*
X74295000Y-195686600D03*
X73025000Y-193786600D03*
X71755000Y-195686600D03*
X70485000Y-193786600D03*
X69215000Y-195686600D03*
X67945000Y-193786600D03*
X66675000Y-195686600D03*
X65405000Y-193786600D03*
X64135000Y-195686600D03*
X62865000Y-193786600D03*
X61595000Y-195686600D03*
X60325000Y-193786600D03*
X59055000Y-195686600D03*
X57785000Y-193786600D03*
X56515000Y-195686600D03*
X55245000Y-193786600D03*
X97155000Y-199486600D03*
X95885000Y-197586600D03*
X94615000Y-199486600D03*
X93345000Y-197586600D03*
X92075000Y-199486600D03*
X90805000Y-197586600D03*
X89535000Y-199486600D03*
X88265000Y-197586600D03*
X86995000Y-199486600D03*
X85725000Y-197586600D03*
X84455000Y-199486600D03*
X83185000Y-197586600D03*
X81915000Y-199486600D03*
X80645000Y-197586600D03*
X79375000Y-199486600D03*
X78105000Y-197586600D03*
X76835000Y-199486600D03*
X75565000Y-197586600D03*
X74295000Y-199486600D03*
X73025000Y-197586600D03*
X71755000Y-199486600D03*
X70485000Y-197586600D03*
X69215000Y-199486600D03*
X67945000Y-197586600D03*
X66675000Y-199486600D03*
X65405000Y-197586600D03*
X64135000Y-199486600D03*
X62865000Y-197586600D03*
X61595000Y-199486600D03*
X60325000Y-197586600D03*
X59055000Y-199486600D03*
X57785000Y-197586600D03*
X56515000Y-199486600D03*
X55245000Y-197586600D03*
D18*
X47245000Y-197586600D03*
X105155000Y-197586600D03*
D13*
X20320000Y-79565000D03*
X20320000Y-77915000D03*
D12*
X58420000Y-75705000D03*
X58420000Y-74155000D03*
X35560000Y-83325000D03*
X35560000Y-81775000D03*
D10*
X48370000Y-136898040D03*
X48370000Y-139848040D03*
D11*
X46845000Y-138373040D03*
D12*
X35560000Y-90945000D03*
X35560000Y-89395000D03*
X12700000Y-75705000D03*
X12700000Y-74155000D03*
X25400000Y-90945000D03*
X25400000Y-89395000D03*
D15*
X146050000Y-6350000D03*
D10*
X83930000Y-149596000D03*
X83930000Y-152546000D03*
D11*
X82405000Y-151071000D03*
D13*
X10160000Y-79565000D03*
X10160000Y-77915000D03*
D12*
X50800000Y-75735000D03*
X50800000Y-74185000D03*
D13*
X86360000Y-71945000D03*
X86360000Y-70295000D03*
D12*
X15240000Y-83325000D03*
X15240000Y-81775000D03*
D13*
X78740000Y-71945000D03*
X78740000Y-70295000D03*
X40640000Y-87185000D03*
X40640000Y-85535000D03*
X68580000Y-87185000D03*
X68580000Y-85535000D03*
X7620000Y-71945000D03*
X7620000Y-70295000D03*
X73660000Y-64325000D03*
X73660000Y-62675000D03*
D12*
X86360000Y-68085000D03*
X86360000Y-66535000D03*
X66040000Y-75705000D03*
X66040000Y-74155000D03*
X71120000Y-68085000D03*
X71120000Y-66535000D03*
D13*
X71120000Y-87185000D03*
X71120000Y-85535000D03*
D12*
X60960000Y-83325000D03*
X60960000Y-81775000D03*
D10*
X58530000Y-136898040D03*
X58530000Y-139848040D03*
D11*
X57005000Y-138373040D03*
D13*
X12700000Y-79565000D03*
X12700000Y-77915000D03*
X53340000Y-64325000D03*
X53340000Y-62675000D03*
D12*
X71120000Y-90945000D03*
X71120000Y-89395000D03*
M02*
