M48
; DRILL file {KiCad (6.0.0)} date Tue Feb 22 08:24:27 2022
; FORMAT={-:-/ absolute / inch / decimal}
; #@! TF.CreationDate,2022-02-22T08:24:27+01:00
; #@! TF.GenerationSoftware,Kicad,Pcbnew,(6.0.0)
; #@! TF.FileFunction,MixedPlating,1,4
FMAT,2
INCH
; #@! TA.AperFunction,Plated,PTH,ViaDrill
T1C0.0150
; #@! TA.AperFunction,Plated,PTH,ComponentDrill
T2C0.0339
; #@! TA.AperFunction,Plated,PTH,ComponentDrill
T3C0.0421
; #@! TA.AperFunction,Plated,PTH,ComponentDrill
T4C0.1114
; #@! TA.AperFunction,Plated,PTH,ComponentDrill
T5C0.1700
%
G90
G05
T1
X2.7307Y-1.9642
X2.7417Y-2.2606
X2.7453Y-2.5425
X2.7744Y-3.0732
X2.9803Y-1.8386
X3.1614Y-1.6575
X3.3764Y-3.0976
X3.3819Y-1.4291
X3.3898Y-1.6811
X3.4291Y-1.2874
X3.5457Y-3.2146
X3.5827Y-1.4606
X3.5866Y-1.6811
X3.7677Y-3.1409
X3.7835Y-1.6811
X3.7874Y-1.4921
X3.8134Y-3.0406
X3.9453Y-2.9693
X3.9803Y-1.6811
X4.1772Y-1.6811
X4.2114Y-3.0772
X4.374Y-1.4921
X4.374Y-1.6811
X4.385Y-3.1213
X4.5512Y-1.4213
X4.5709Y-1.6811
X4.5803Y-3.1445
X4.7016Y-3.1465
X4.7559Y-1.3858
X4.878Y-1.6811
X4.8819Y-3.1417
X4.9016Y-1.4449
X5.0709Y-1.4921
X5.0748Y-1.6811
X5.0988Y-3.0205
X5.2638Y-1.4921
X5.2717Y-1.6811
X5.376Y-2.9575
X5.4488Y-1.5039
X5.4685Y-1.6811
X5.524Y-2.985
X5.6642Y-3.3882
X5.6654Y-1.6811
X5.6732Y-1.4409
X5.7469Y-3.026
X5.8465Y-1.4331
X5.8622Y-1.6811
X5.9894Y-3.0862
X6.0315Y-1.2795
X6.0591Y-1.4843
X6.0591Y-1.6811
X6.1358Y-3.1055
X6.2559Y-1.6811
X6.3071Y-1.4764
X6.3228Y-3.1429
X6.5472Y-1.8543
X6.6772Y-1.7756
X6.752Y-2.0079
X6.752Y-2.4016
X6.752Y-2.7953
T2
X3.9033Y-1.1024
X3.9033Y-1.252
X3.9033Y-3.311
X3.9033Y-3.4606
X3.9533Y-1.1772
X3.9533Y-1.3268
X3.9533Y-3.3858
X3.9533Y-3.5354
X4.0033Y-1.1024
X4.0033Y-1.252
X4.0033Y-3.311
X4.0033Y-3.4606
X4.0533Y-1.1772
X4.0533Y-1.3268
X4.0533Y-3.3858
X4.0533Y-3.5354
X4.1033Y-1.1024
X4.1033Y-1.252
X4.1033Y-3.311
X4.1033Y-3.4606
X4.1533Y-1.1772
X4.1533Y-1.3268
X4.1533Y-3.3858
X4.1533Y-3.5354
X4.2033Y-1.1024
X4.2033Y-1.252
X4.2033Y-3.311
X4.2033Y-3.4606
X4.2533Y-1.1772
X4.2533Y-1.3268
X4.2533Y-3.3858
X4.2533Y-3.5354
X4.3033Y-1.1024
X4.3033Y-1.252
X4.3033Y-3.311
X4.3033Y-3.4606
X4.3533Y-1.1772
X4.3533Y-1.3268
X4.3533Y-3.3858
X4.3533Y-3.5354
X4.4033Y-1.1024
X4.4033Y-1.252
X4.4033Y-3.311
X4.4033Y-3.4606
X4.4533Y-1.1772
X4.4533Y-1.3268
X4.4533Y-3.3858
X4.4533Y-3.5354
X4.5033Y-1.1024
X4.5033Y-1.252
X4.5033Y-3.311
X4.5033Y-3.4606
X4.5533Y-1.1772
X4.5533Y-1.3268
X4.5533Y-3.3858
X4.5533Y-3.5354
X4.6033Y-1.1024
X4.6033Y-1.252
X4.6033Y-3.311
X4.6033Y-3.4606
X4.6533Y-1.1772
X4.6533Y-1.3268
X4.6533Y-3.3858
X4.6533Y-3.5354
X4.7033Y-1.1024
X4.7033Y-1.252
X4.7033Y-3.311
X4.7033Y-3.4606
X4.7533Y-1.1772
X4.7533Y-1.3268
X4.7533Y-3.3858
X4.7533Y-3.5354
X4.8033Y-1.1024
X4.8033Y-1.252
X4.8033Y-3.311
X4.8033Y-3.4606
X4.8533Y-1.1772
X4.8533Y-1.3268
X4.8533Y-3.3858
X4.8533Y-3.5354
X4.9033Y-1.1024
X4.9033Y-1.252
X4.9033Y-3.311
X4.9033Y-3.4606
X4.9533Y-1.1772
X4.9533Y-1.3268
X4.9533Y-3.3858
X4.9533Y-3.5354
X5.0033Y-1.1024
X5.0033Y-1.252
X5.0033Y-3.311
X5.0033Y-3.4606
X5.0533Y-1.1772
X5.0533Y-1.3268
X5.0533Y-3.3858
X5.0533Y-3.5354
X5.1033Y-1.1024
X5.1033Y-1.252
X5.1033Y-3.311
X5.1033Y-3.4606
X5.1533Y-1.1772
X5.1533Y-1.3268
X5.1533Y-3.3858
X5.1533Y-3.5354
X5.2033Y-1.1024
X5.2033Y-1.252
X5.2033Y-3.311
X5.2033Y-3.4606
X5.2533Y-1.1772
X5.2533Y-1.3268
X5.2533Y-3.3858
X5.2533Y-3.5354
X5.3033Y-1.1024
X5.3033Y-1.252
X5.3033Y-3.311
X5.3033Y-3.4606
X5.3533Y-1.1772
X5.3533Y-1.3268
X5.3533Y-3.3858
X5.3533Y-3.5354
X5.4033Y-1.1024
X5.4033Y-1.252
X5.4033Y-3.311
X5.4033Y-3.4606
X5.4533Y-1.1772
X5.4533Y-1.3268
X5.4533Y-3.3858
X5.4533Y-3.5354
X5.5033Y-1.1024
X5.5033Y-1.252
X5.5033Y-3.311
X5.5033Y-3.4606
X5.5533Y-1.1772
X5.5533Y-1.3268
X5.5533Y-3.3858
X5.5533Y-3.5354
T3
X2.8354Y-2.0472
X2.8354Y-2.1457
X2.8354Y-2.2441
X2.8354Y-2.3425
X2.8354Y-2.5551
X2.8354Y-2.6535
X2.8354Y-2.752
X2.8354Y-2.8504
X3.0354Y-2.0472
X3.0354Y-2.1457
X3.0354Y-2.2441
X3.0354Y-2.3425
X3.0354Y-2.5551
X3.0354Y-2.6535
X3.0354Y-2.752
X3.0354Y-2.8504
X3.3472Y-2.0472
X3.3472Y-2.1457
X3.3472Y-2.2441
X3.3472Y-2.3425
X3.3472Y-2.5551
X3.3472Y-2.6535
X3.3472Y-2.752
X3.3472Y-2.8504
X3.5472Y-2.0472
X3.5472Y-2.1457
X3.5472Y-2.2441
X3.5472Y-2.3425
X3.5472Y-2.5551
X3.5472Y-2.6535
X3.5472Y-2.752
X3.5472Y-2.8504
X3.8591Y-2.0472
X3.8591Y-2.1457
X3.8591Y-2.2441
X3.8591Y-2.3425
X3.8591Y-2.5551
X3.8591Y-2.6535
X3.8591Y-2.752
X3.8591Y-2.8504
X4.0591Y-2.0472
X4.0591Y-2.1457
X4.0591Y-2.2441
X4.0591Y-2.3425
X4.0591Y-2.5551
X4.0591Y-2.6535
X4.0591Y-2.752
X4.0591Y-2.8504
X4.3709Y-2.0472
X4.3709Y-2.1457
X4.3709Y-2.2441
X4.3709Y-2.3425
X4.3709Y-2.5551
X4.3709Y-2.6535
X4.3709Y-2.752
X4.3709Y-2.8504
X4.5709Y-2.0472
X4.5709Y-2.1457
X4.5709Y-2.2441
X4.5709Y-2.3425
X4.5709Y-2.5551
X4.5709Y-2.6535
X4.5709Y-2.752
X4.5709Y-2.8504
X4.8827Y-2.0472
X4.8827Y-2.1457
X4.8827Y-2.2441
X4.8827Y-2.3425
X4.8827Y-2.5551
X4.8827Y-2.6535
X4.8827Y-2.752
X4.8827Y-2.8504
X5.0827Y-2.0472
X5.0827Y-2.1457
X5.0827Y-2.2441
X5.0827Y-2.3425
X5.0827Y-2.5551
X5.0827Y-2.6535
X5.0827Y-2.752
X5.0827Y-2.8504
X5.3945Y-2.0472
X5.3945Y-2.1457
X5.3945Y-2.2441
X5.3945Y-2.3425
X5.3945Y-2.5551
X5.3945Y-2.6535
X5.3945Y-2.752
X5.3945Y-2.8504
X5.5945Y-2.0472
X5.5945Y-2.1457
X5.5945Y-2.2441
X5.5945Y-2.3425
X5.5945Y-2.5551
X5.5945Y-2.6535
X5.5945Y-2.752
X5.5945Y-2.8504
X5.9063Y-2.0472
X5.9063Y-2.1457
X5.9063Y-2.2441
X5.9063Y-2.3425
X5.9063Y-2.5551
X5.9063Y-2.6535
X5.9063Y-2.752
X5.9063Y-2.8504
X6.1063Y-2.0472
X6.1063Y-2.1457
X6.1063Y-2.2441
X6.1063Y-2.3425
X6.1063Y-2.5551
X6.1063Y-2.6535
X6.1063Y-2.752
X6.1063Y-2.8504
X6.4181Y-2.0472
X6.4181Y-2.1457
X6.4181Y-2.2441
X6.4181Y-2.3425
X6.4181Y-2.5551
X6.4181Y-2.6535
X6.4181Y-2.752
X6.4181Y-2.8504
X6.6181Y-2.0472
X6.6181Y-2.1457
X6.6181Y-2.2441
X6.6181Y-2.3425
X6.6181Y-2.5551
X6.6181Y-2.6535
X6.6181Y-2.752
X6.6181Y-2.8504
T4
X3.5884Y-1.1772
X3.5884Y-3.4606
X5.8683Y-1.1772
X5.8683Y-3.4606
T5
X2.9724Y-1.1575
X2.9724Y-3.4803
X6.5157Y-1.1575
X6.5157Y-3.4803
T0
M30
