G04 #@! TF.GenerationSoftware,KiCad,Pcbnew,(5.1.5)-3*
G04 #@! TF.CreationDate,2020-11-09T20:42:25-05:00*
G04 #@! TF.ProjectId,FilterDaughterboard,46696c74-6572-4446-9175-676874657262,rev?*
G04 #@! TF.SameCoordinates,Original*
G04 #@! TF.FileFunction,Legend,Bot*
G04 #@! TF.FilePolarity,Positive*
%FSLAX46Y46*%
G04 Gerber Fmt 4.6, Leading zero omitted, Abs format (unit mm)*
G04 Created by KiCad (PCBNEW (5.1.5)-3) date 2020-11-09 20:42:25*
%MOMM*%
%LPD*%
G04 APERTURE LIST*
%ADD10C,0.100000*%
%ADD11C,0.120000*%
%ADD12C,0.254000*%
%ADD13C,0.150000*%
G04 APERTURE END LIST*
D10*
X89300000Y-128800000D02*
G75*
G02X89300000Y-128900000I0J-50000D01*
G01*
X89300000Y-128900000D02*
G75*
G02X89300000Y-128800000I0J50000D01*
G01*
X89300000Y-128900000D02*
X89300000Y-128900000D01*
X89300000Y-128800000D02*
X89300000Y-128800000D01*
X88000000Y-125850000D02*
X88000000Y-125648000D01*
X88000000Y-127543000D02*
X88000000Y-127850000D01*
X90600000Y-127600000D02*
X90600000Y-125648000D01*
X89300000Y-141700000D02*
G75*
G02X89300000Y-141800000I0J-50000D01*
G01*
X89300000Y-141800000D02*
G75*
G02X89300000Y-141700000I0J50000D01*
G01*
X89300000Y-141800000D02*
X89300000Y-141800000D01*
X89300000Y-141700000D02*
X89300000Y-141700000D01*
X88000000Y-138750000D02*
X88000000Y-138548000D01*
X88000000Y-140443000D02*
X88000000Y-140750000D01*
X90600000Y-140500000D02*
X90600000Y-138548000D01*
D11*
X86110000Y-128837221D02*
X86110000Y-129162779D01*
X85090000Y-128837221D02*
X85090000Y-129162779D01*
X94510000Y-135937221D02*
X94510000Y-136262779D01*
X93490000Y-135937221D02*
X93490000Y-136262779D01*
X86237221Y-134190000D02*
X86562779Y-134190000D01*
X86237221Y-135210000D02*
X86562779Y-135210000D01*
X86110000Y-141737221D02*
X86110000Y-142062779D01*
X85090000Y-141737221D02*
X85090000Y-142062779D01*
X94510000Y-148837221D02*
X94510000Y-149162779D01*
X93490000Y-148837221D02*
X93490000Y-149162779D01*
X86237221Y-147090000D02*
X86562779Y-147090000D01*
X86237221Y-148110000D02*
X86562779Y-148110000D01*
X91861252Y-134110000D02*
X91338748Y-134110000D01*
X91861252Y-131890000D02*
X91338748Y-131890000D01*
X85090000Y-132362779D02*
X85090000Y-132037221D01*
X86110000Y-132362779D02*
X86110000Y-132037221D01*
X91861252Y-147010000D02*
X91338748Y-147010000D01*
X91861252Y-144790000D02*
X91338748Y-144790000D01*
X85090000Y-145262779D02*
X85090000Y-144937221D01*
X86110000Y-145262779D02*
X86110000Y-144937221D01*
X91437221Y-134790000D02*
X91762779Y-134790000D01*
X91437221Y-135810000D02*
X91762779Y-135810000D01*
X87837221Y-132490000D02*
X88162779Y-132490000D01*
X87837221Y-133510000D02*
X88162779Y-133510000D01*
X88162779Y-131110000D02*
X87837221Y-131110000D01*
X88162779Y-130090000D02*
X87837221Y-130090000D01*
X91437221Y-147690000D02*
X91762779Y-147690000D01*
X91437221Y-148710000D02*
X91762779Y-148710000D01*
X87837221Y-145390000D02*
X88162779Y-145390000D01*
X87837221Y-146410000D02*
X88162779Y-146410000D01*
X88162779Y-144010000D02*
X87837221Y-144010000D01*
X88162779Y-142990000D02*
X87837221Y-142990000D01*
D12*
X91054523Y-126076666D02*
X91961666Y-126076666D01*
X92143095Y-126016190D01*
X92264047Y-125895238D01*
X92324523Y-125713809D01*
X92324523Y-125592857D01*
X91175476Y-126620952D02*
X91115000Y-126681428D01*
X91054523Y-126802380D01*
X91054523Y-127104761D01*
X91115000Y-127225714D01*
X91175476Y-127286190D01*
X91296428Y-127346666D01*
X91417380Y-127346666D01*
X91598809Y-127286190D01*
X92324523Y-126560476D01*
X92324523Y-127346666D01*
X91054523Y-139076666D02*
X91961666Y-139076666D01*
X92143095Y-139016190D01*
X92264047Y-138895238D01*
X92324523Y-138713809D01*
X92324523Y-138592857D01*
X91477857Y-140225714D02*
X92324523Y-140225714D01*
X90994047Y-139923333D02*
X91901190Y-139620952D01*
X91901190Y-140407142D01*
D13*
X84527142Y-128833333D02*
X84574761Y-128785714D01*
X84622380Y-128642857D01*
X84622380Y-128547619D01*
X84574761Y-128404761D01*
X84479523Y-128309523D01*
X84384285Y-128261904D01*
X84193809Y-128214285D01*
X84050952Y-128214285D01*
X83860476Y-128261904D01*
X83765238Y-128309523D01*
X83670000Y-128404761D01*
X83622380Y-128547619D01*
X83622380Y-128642857D01*
X83670000Y-128785714D01*
X83717619Y-128833333D01*
X83955714Y-129690476D02*
X84622380Y-129690476D01*
X83574761Y-129452380D02*
X84289047Y-129214285D01*
X84289047Y-129833333D01*
X95857142Y-135833333D02*
X95904761Y-135785714D01*
X95952380Y-135642857D01*
X95952380Y-135547619D01*
X95904761Y-135404761D01*
X95809523Y-135309523D01*
X95714285Y-135261904D01*
X95523809Y-135214285D01*
X95380952Y-135214285D01*
X95190476Y-135261904D01*
X95095238Y-135309523D01*
X95000000Y-135404761D01*
X94952380Y-135547619D01*
X94952380Y-135642857D01*
X95000000Y-135785714D01*
X95047619Y-135833333D01*
X94952380Y-136738095D02*
X94952380Y-136261904D01*
X95428571Y-136214285D01*
X95380952Y-136261904D01*
X95333333Y-136357142D01*
X95333333Y-136595238D01*
X95380952Y-136690476D01*
X95428571Y-136738095D01*
X95523809Y-136785714D01*
X95761904Y-136785714D01*
X95857142Y-136738095D01*
X95904761Y-136690476D01*
X95952380Y-136595238D01*
X95952380Y-136357142D01*
X95904761Y-136261904D01*
X95857142Y-136214285D01*
X86566666Y-136487142D02*
X86614285Y-136534761D01*
X86757142Y-136582380D01*
X86852380Y-136582380D01*
X86995238Y-136534761D01*
X87090476Y-136439523D01*
X87138095Y-136344285D01*
X87185714Y-136153809D01*
X87185714Y-136010952D01*
X87138095Y-135820476D01*
X87090476Y-135725238D01*
X86995238Y-135630000D01*
X86852380Y-135582380D01*
X86757142Y-135582380D01*
X86614285Y-135630000D01*
X86566666Y-135677619D01*
X85709523Y-135582380D02*
X85900000Y-135582380D01*
X85995238Y-135630000D01*
X86042857Y-135677619D01*
X86138095Y-135820476D01*
X86185714Y-136010952D01*
X86185714Y-136391904D01*
X86138095Y-136487142D01*
X86090476Y-136534761D01*
X85995238Y-136582380D01*
X85804761Y-136582380D01*
X85709523Y-136534761D01*
X85661904Y-136487142D01*
X85614285Y-136391904D01*
X85614285Y-136153809D01*
X85661904Y-136058571D01*
X85709523Y-136010952D01*
X85804761Y-135963333D01*
X85995238Y-135963333D01*
X86090476Y-136010952D01*
X86138095Y-136058571D01*
X86185714Y-136153809D01*
X84527142Y-141257142D02*
X84574761Y-141209523D01*
X84622380Y-141066666D01*
X84622380Y-140971428D01*
X84574761Y-140828571D01*
X84479523Y-140733333D01*
X84384285Y-140685714D01*
X84193809Y-140638095D01*
X84050952Y-140638095D01*
X83860476Y-140685714D01*
X83765238Y-140733333D01*
X83670000Y-140828571D01*
X83622380Y-140971428D01*
X83622380Y-141066666D01*
X83670000Y-141209523D01*
X83717619Y-141257142D01*
X84622380Y-142209523D02*
X84622380Y-141638095D01*
X84622380Y-141923809D02*
X83622380Y-141923809D01*
X83765238Y-141828571D01*
X83860476Y-141733333D01*
X83908095Y-141638095D01*
X83622380Y-142828571D02*
X83622380Y-142923809D01*
X83670000Y-143019047D01*
X83717619Y-143066666D01*
X83812857Y-143114285D01*
X84003333Y-143161904D01*
X84241428Y-143161904D01*
X84431904Y-143114285D01*
X84527142Y-143066666D01*
X84574761Y-143019047D01*
X84622380Y-142923809D01*
X84622380Y-142828571D01*
X84574761Y-142733333D01*
X84527142Y-142685714D01*
X84431904Y-142638095D01*
X84241428Y-142590476D01*
X84003333Y-142590476D01*
X83812857Y-142638095D01*
X83717619Y-142685714D01*
X83670000Y-142733333D01*
X83622380Y-142828571D01*
X95857142Y-148357142D02*
X95904761Y-148309523D01*
X95952380Y-148166666D01*
X95952380Y-148071428D01*
X95904761Y-147928571D01*
X95809523Y-147833333D01*
X95714285Y-147785714D01*
X95523809Y-147738095D01*
X95380952Y-147738095D01*
X95190476Y-147785714D01*
X95095238Y-147833333D01*
X95000000Y-147928571D01*
X94952380Y-148071428D01*
X94952380Y-148166666D01*
X95000000Y-148309523D01*
X95047619Y-148357142D01*
X95952380Y-149309523D02*
X95952380Y-148738095D01*
X95952380Y-149023809D02*
X94952380Y-149023809D01*
X95095238Y-148928571D01*
X95190476Y-148833333D01*
X95238095Y-148738095D01*
X95952380Y-150261904D02*
X95952380Y-149690476D01*
X95952380Y-149976190D02*
X94952380Y-149976190D01*
X95095238Y-149880952D01*
X95190476Y-149785714D01*
X95238095Y-149690476D01*
X87042857Y-149387142D02*
X87090476Y-149434761D01*
X87233333Y-149482380D01*
X87328571Y-149482380D01*
X87471428Y-149434761D01*
X87566666Y-149339523D01*
X87614285Y-149244285D01*
X87661904Y-149053809D01*
X87661904Y-148910952D01*
X87614285Y-148720476D01*
X87566666Y-148625238D01*
X87471428Y-148530000D01*
X87328571Y-148482380D01*
X87233333Y-148482380D01*
X87090476Y-148530000D01*
X87042857Y-148577619D01*
X86090476Y-149482380D02*
X86661904Y-149482380D01*
X86376190Y-149482380D02*
X86376190Y-148482380D01*
X86471428Y-148625238D01*
X86566666Y-148720476D01*
X86661904Y-148768095D01*
X85709523Y-148577619D02*
X85661904Y-148530000D01*
X85566666Y-148482380D01*
X85328571Y-148482380D01*
X85233333Y-148530000D01*
X85185714Y-148577619D01*
X85138095Y-148672857D01*
X85138095Y-148768095D01*
X85185714Y-148910952D01*
X85757142Y-149482380D01*
X85138095Y-149482380D01*
X91766666Y-131402380D02*
X92242857Y-131402380D01*
X92242857Y-130402380D01*
X91528571Y-130402380D02*
X90909523Y-130402380D01*
X91242857Y-130783333D01*
X91100000Y-130783333D01*
X91004761Y-130830952D01*
X90957142Y-130878571D01*
X90909523Y-130973809D01*
X90909523Y-131211904D01*
X90957142Y-131307142D01*
X91004761Y-131354761D01*
X91100000Y-131402380D01*
X91385714Y-131402380D01*
X91480952Y-131354761D01*
X91528571Y-131307142D01*
X84702380Y-132033333D02*
X84702380Y-131557142D01*
X83702380Y-131557142D01*
X84035714Y-132795238D02*
X84702380Y-132795238D01*
X83654761Y-132557142D02*
X84369047Y-132319047D01*
X84369047Y-132938095D01*
X92916666Y-144302380D02*
X93392857Y-144302380D01*
X93392857Y-143302380D01*
X92678571Y-143302380D02*
X92011904Y-143302380D01*
X92440476Y-144302380D01*
X84702380Y-144933333D02*
X84702380Y-144457142D01*
X83702380Y-144457142D01*
X84130952Y-145409523D02*
X84083333Y-145314285D01*
X84035714Y-145266666D01*
X83940476Y-145219047D01*
X83892857Y-145219047D01*
X83797619Y-145266666D01*
X83750000Y-145314285D01*
X83702380Y-145409523D01*
X83702380Y-145600000D01*
X83750000Y-145695238D01*
X83797619Y-145742857D01*
X83892857Y-145790476D01*
X83940476Y-145790476D01*
X84035714Y-145742857D01*
X84083333Y-145695238D01*
X84130952Y-145600000D01*
X84130952Y-145409523D01*
X84178571Y-145314285D01*
X84226190Y-145266666D01*
X84321428Y-145219047D01*
X84511904Y-145219047D01*
X84607142Y-145266666D01*
X84654761Y-145314285D01*
X84702380Y-145409523D01*
X84702380Y-145600000D01*
X84654761Y-145695238D01*
X84607142Y-145742857D01*
X84511904Y-145790476D01*
X84321428Y-145790476D01*
X84226190Y-145742857D01*
X84178571Y-145695238D01*
X84130952Y-145600000D01*
X91766666Y-137182380D02*
X92100000Y-136706190D01*
X92338095Y-137182380D02*
X92338095Y-136182380D01*
X91957142Y-136182380D01*
X91861904Y-136230000D01*
X91814285Y-136277619D01*
X91766666Y-136372857D01*
X91766666Y-136515714D01*
X91814285Y-136610952D01*
X91861904Y-136658571D01*
X91957142Y-136706190D01*
X92338095Y-136706190D01*
X90909523Y-136515714D02*
X90909523Y-137182380D01*
X91147619Y-136134761D02*
X91385714Y-136849047D01*
X90766666Y-136849047D01*
X88916666Y-134882380D02*
X89250000Y-134406190D01*
X89488095Y-134882380D02*
X89488095Y-133882380D01*
X89107142Y-133882380D01*
X89011904Y-133930000D01*
X88964285Y-133977619D01*
X88916666Y-134072857D01*
X88916666Y-134215714D01*
X88964285Y-134310952D01*
X89011904Y-134358571D01*
X89107142Y-134406190D01*
X89488095Y-134406190D01*
X88011904Y-133882380D02*
X88488095Y-133882380D01*
X88535714Y-134358571D01*
X88488095Y-134310952D01*
X88392857Y-134263333D01*
X88154761Y-134263333D01*
X88059523Y-134310952D01*
X88011904Y-134358571D01*
X87964285Y-134453809D01*
X87964285Y-134691904D01*
X88011904Y-134787142D01*
X88059523Y-134834761D01*
X88154761Y-134882380D01*
X88392857Y-134882380D01*
X88488095Y-134834761D01*
X88535714Y-134787142D01*
X87416666Y-129702380D02*
X87750000Y-129226190D01*
X87988095Y-129702380D02*
X87988095Y-128702380D01*
X87607142Y-128702380D01*
X87511904Y-128750000D01*
X87464285Y-128797619D01*
X87416666Y-128892857D01*
X87416666Y-129035714D01*
X87464285Y-129130952D01*
X87511904Y-129178571D01*
X87607142Y-129226190D01*
X87988095Y-129226190D01*
X86559523Y-128702380D02*
X86750000Y-128702380D01*
X86845238Y-128750000D01*
X86892857Y-128797619D01*
X86988095Y-128940476D01*
X87035714Y-129130952D01*
X87035714Y-129511904D01*
X86988095Y-129607142D01*
X86940476Y-129654761D01*
X86845238Y-129702380D01*
X86654761Y-129702380D01*
X86559523Y-129654761D01*
X86511904Y-129607142D01*
X86464285Y-129511904D01*
X86464285Y-129273809D01*
X86511904Y-129178571D01*
X86559523Y-129130952D01*
X86654761Y-129083333D01*
X86845238Y-129083333D01*
X86940476Y-129130952D01*
X86988095Y-129178571D01*
X87035714Y-129273809D01*
X92242857Y-150082380D02*
X92576190Y-149606190D01*
X92814285Y-150082380D02*
X92814285Y-149082380D01*
X92433333Y-149082380D01*
X92338095Y-149130000D01*
X92290476Y-149177619D01*
X92242857Y-149272857D01*
X92242857Y-149415714D01*
X92290476Y-149510952D01*
X92338095Y-149558571D01*
X92433333Y-149606190D01*
X92814285Y-149606190D01*
X91290476Y-150082380D02*
X91861904Y-150082380D01*
X91576190Y-150082380D02*
X91576190Y-149082380D01*
X91671428Y-149225238D01*
X91766666Y-149320476D01*
X91861904Y-149368095D01*
X90671428Y-149082380D02*
X90576190Y-149082380D01*
X90480952Y-149130000D01*
X90433333Y-149177619D01*
X90385714Y-149272857D01*
X90338095Y-149463333D01*
X90338095Y-149701428D01*
X90385714Y-149891904D01*
X90433333Y-149987142D01*
X90480952Y-150034761D01*
X90576190Y-150082380D01*
X90671428Y-150082380D01*
X90766666Y-150034761D01*
X90814285Y-149987142D01*
X90861904Y-149891904D01*
X90909523Y-149701428D01*
X90909523Y-149463333D01*
X90861904Y-149272857D01*
X90814285Y-149177619D01*
X90766666Y-149130000D01*
X90671428Y-149082380D01*
X88892857Y-145202380D02*
X89226190Y-144726190D01*
X89464285Y-145202380D02*
X89464285Y-144202380D01*
X89083333Y-144202380D01*
X88988095Y-144250000D01*
X88940476Y-144297619D01*
X88892857Y-144392857D01*
X88892857Y-144535714D01*
X88940476Y-144630952D01*
X88988095Y-144678571D01*
X89083333Y-144726190D01*
X89464285Y-144726190D01*
X87940476Y-145202380D02*
X88511904Y-145202380D01*
X88226190Y-145202380D02*
X88226190Y-144202380D01*
X88321428Y-144345238D01*
X88416666Y-144440476D01*
X88511904Y-144488095D01*
X86988095Y-145202380D02*
X87559523Y-145202380D01*
X87273809Y-145202380D02*
X87273809Y-144202380D01*
X87369047Y-144345238D01*
X87464285Y-144440476D01*
X87559523Y-144488095D01*
X91392857Y-142952380D02*
X91726190Y-142476190D01*
X91964285Y-142952380D02*
X91964285Y-141952380D01*
X91583333Y-141952380D01*
X91488095Y-142000000D01*
X91440476Y-142047619D01*
X91392857Y-142142857D01*
X91392857Y-142285714D01*
X91440476Y-142380952D01*
X91488095Y-142428571D01*
X91583333Y-142476190D01*
X91964285Y-142476190D01*
X90440476Y-142952380D02*
X91011904Y-142952380D01*
X90726190Y-142952380D02*
X90726190Y-141952380D01*
X90821428Y-142095238D01*
X90916666Y-142190476D01*
X91011904Y-142238095D01*
X90059523Y-142047619D02*
X90011904Y-142000000D01*
X89916666Y-141952380D01*
X89678571Y-141952380D01*
X89583333Y-142000000D01*
X89535714Y-142047619D01*
X89488095Y-142142857D01*
X89488095Y-142238095D01*
X89535714Y-142380952D01*
X90107142Y-142952380D01*
X89488095Y-142952380D01*
M02*
