G04 #@! TF.GenerationSoftware,KiCad,Pcbnew,(5.1.5)-3*
G04 #@! TF.CreationDate,2020-11-09T20:42:25-05:00*
G04 #@! TF.ProjectId,FilterDaughterboard,46696c74-6572-4446-9175-676874657262,rev?*
G04 #@! TF.SameCoordinates,Original*
G04 #@! TF.FileFunction,Soldermask,Bot*
G04 #@! TF.FilePolarity,Negative*
%FSLAX46Y46*%
G04 Gerber Fmt 4.6, Leading zero omitted, Abs format (unit mm)*
G04 Created by KiCad (PCBNEW (5.1.5)-3) date 2020-11-09 20:42:25*
%MOMM*%
%LPD*%
G04 APERTURE LIST*
%ADD10R,1.050000X1.000000*%
%ADD11R,2.200000X1.050000*%
%ADD12C,0.100000*%
%ADD13R,11.999999X1.500000*%
%ADD14R,10.000000X1.500000*%
G04 APERTURE END LIST*
D10*
X87775000Y-126600000D03*
D11*
X89300000Y-125125000D03*
X89300000Y-128075000D03*
D10*
X87775000Y-139500000D03*
D11*
X89300000Y-138025000D03*
X89300000Y-140975000D03*
D12*
G36*
X85877691Y-129351053D02*
G01*
X85898926Y-129354203D01*
X85919750Y-129359419D01*
X85939962Y-129366651D01*
X85959368Y-129375830D01*
X85977781Y-129386866D01*
X85995024Y-129399654D01*
X86010930Y-129414070D01*
X86025346Y-129429976D01*
X86038134Y-129447219D01*
X86049170Y-129465632D01*
X86058349Y-129485038D01*
X86065581Y-129505250D01*
X86070797Y-129526074D01*
X86073947Y-129547309D01*
X86075000Y-129568750D01*
X86075000Y-130006250D01*
X86073947Y-130027691D01*
X86070797Y-130048926D01*
X86065581Y-130069750D01*
X86058349Y-130089962D01*
X86049170Y-130109368D01*
X86038134Y-130127781D01*
X86025346Y-130145024D01*
X86010930Y-130160930D01*
X85995024Y-130175346D01*
X85977781Y-130188134D01*
X85959368Y-130199170D01*
X85939962Y-130208349D01*
X85919750Y-130215581D01*
X85898926Y-130220797D01*
X85877691Y-130223947D01*
X85856250Y-130225000D01*
X85343750Y-130225000D01*
X85322309Y-130223947D01*
X85301074Y-130220797D01*
X85280250Y-130215581D01*
X85260038Y-130208349D01*
X85240632Y-130199170D01*
X85222219Y-130188134D01*
X85204976Y-130175346D01*
X85189070Y-130160930D01*
X85174654Y-130145024D01*
X85161866Y-130127781D01*
X85150830Y-130109368D01*
X85141651Y-130089962D01*
X85134419Y-130069750D01*
X85129203Y-130048926D01*
X85126053Y-130027691D01*
X85125000Y-130006250D01*
X85125000Y-129568750D01*
X85126053Y-129547309D01*
X85129203Y-129526074D01*
X85134419Y-129505250D01*
X85141651Y-129485038D01*
X85150830Y-129465632D01*
X85161866Y-129447219D01*
X85174654Y-129429976D01*
X85189070Y-129414070D01*
X85204976Y-129399654D01*
X85222219Y-129386866D01*
X85240632Y-129375830D01*
X85260038Y-129366651D01*
X85280250Y-129359419D01*
X85301074Y-129354203D01*
X85322309Y-129351053D01*
X85343750Y-129350000D01*
X85856250Y-129350000D01*
X85877691Y-129351053D01*
G37*
G36*
X85877691Y-127776053D02*
G01*
X85898926Y-127779203D01*
X85919750Y-127784419D01*
X85939962Y-127791651D01*
X85959368Y-127800830D01*
X85977781Y-127811866D01*
X85995024Y-127824654D01*
X86010930Y-127839070D01*
X86025346Y-127854976D01*
X86038134Y-127872219D01*
X86049170Y-127890632D01*
X86058349Y-127910038D01*
X86065581Y-127930250D01*
X86070797Y-127951074D01*
X86073947Y-127972309D01*
X86075000Y-127993750D01*
X86075000Y-128431250D01*
X86073947Y-128452691D01*
X86070797Y-128473926D01*
X86065581Y-128494750D01*
X86058349Y-128514962D01*
X86049170Y-128534368D01*
X86038134Y-128552781D01*
X86025346Y-128570024D01*
X86010930Y-128585930D01*
X85995024Y-128600346D01*
X85977781Y-128613134D01*
X85959368Y-128624170D01*
X85939962Y-128633349D01*
X85919750Y-128640581D01*
X85898926Y-128645797D01*
X85877691Y-128648947D01*
X85856250Y-128650000D01*
X85343750Y-128650000D01*
X85322309Y-128648947D01*
X85301074Y-128645797D01*
X85280250Y-128640581D01*
X85260038Y-128633349D01*
X85240632Y-128624170D01*
X85222219Y-128613134D01*
X85204976Y-128600346D01*
X85189070Y-128585930D01*
X85174654Y-128570024D01*
X85161866Y-128552781D01*
X85150830Y-128534368D01*
X85141651Y-128514962D01*
X85134419Y-128494750D01*
X85129203Y-128473926D01*
X85126053Y-128452691D01*
X85125000Y-128431250D01*
X85125000Y-127993750D01*
X85126053Y-127972309D01*
X85129203Y-127951074D01*
X85134419Y-127930250D01*
X85141651Y-127910038D01*
X85150830Y-127890632D01*
X85161866Y-127872219D01*
X85174654Y-127854976D01*
X85189070Y-127839070D01*
X85204976Y-127824654D01*
X85222219Y-127811866D01*
X85240632Y-127800830D01*
X85260038Y-127791651D01*
X85280250Y-127784419D01*
X85301074Y-127779203D01*
X85322309Y-127776053D01*
X85343750Y-127775000D01*
X85856250Y-127775000D01*
X85877691Y-127776053D01*
G37*
G36*
X94277691Y-136451053D02*
G01*
X94298926Y-136454203D01*
X94319750Y-136459419D01*
X94339962Y-136466651D01*
X94359368Y-136475830D01*
X94377781Y-136486866D01*
X94395024Y-136499654D01*
X94410930Y-136514070D01*
X94425346Y-136529976D01*
X94438134Y-136547219D01*
X94449170Y-136565632D01*
X94458349Y-136585038D01*
X94465581Y-136605250D01*
X94470797Y-136626074D01*
X94473947Y-136647309D01*
X94475000Y-136668750D01*
X94475000Y-137106250D01*
X94473947Y-137127691D01*
X94470797Y-137148926D01*
X94465581Y-137169750D01*
X94458349Y-137189962D01*
X94449170Y-137209368D01*
X94438134Y-137227781D01*
X94425346Y-137245024D01*
X94410930Y-137260930D01*
X94395024Y-137275346D01*
X94377781Y-137288134D01*
X94359368Y-137299170D01*
X94339962Y-137308349D01*
X94319750Y-137315581D01*
X94298926Y-137320797D01*
X94277691Y-137323947D01*
X94256250Y-137325000D01*
X93743750Y-137325000D01*
X93722309Y-137323947D01*
X93701074Y-137320797D01*
X93680250Y-137315581D01*
X93660038Y-137308349D01*
X93640632Y-137299170D01*
X93622219Y-137288134D01*
X93604976Y-137275346D01*
X93589070Y-137260930D01*
X93574654Y-137245024D01*
X93561866Y-137227781D01*
X93550830Y-137209368D01*
X93541651Y-137189962D01*
X93534419Y-137169750D01*
X93529203Y-137148926D01*
X93526053Y-137127691D01*
X93525000Y-137106250D01*
X93525000Y-136668750D01*
X93526053Y-136647309D01*
X93529203Y-136626074D01*
X93534419Y-136605250D01*
X93541651Y-136585038D01*
X93550830Y-136565632D01*
X93561866Y-136547219D01*
X93574654Y-136529976D01*
X93589070Y-136514070D01*
X93604976Y-136499654D01*
X93622219Y-136486866D01*
X93640632Y-136475830D01*
X93660038Y-136466651D01*
X93680250Y-136459419D01*
X93701074Y-136454203D01*
X93722309Y-136451053D01*
X93743750Y-136450000D01*
X94256250Y-136450000D01*
X94277691Y-136451053D01*
G37*
G36*
X94277691Y-134876053D02*
G01*
X94298926Y-134879203D01*
X94319750Y-134884419D01*
X94339962Y-134891651D01*
X94359368Y-134900830D01*
X94377781Y-134911866D01*
X94395024Y-134924654D01*
X94410930Y-134939070D01*
X94425346Y-134954976D01*
X94438134Y-134972219D01*
X94449170Y-134990632D01*
X94458349Y-135010038D01*
X94465581Y-135030250D01*
X94470797Y-135051074D01*
X94473947Y-135072309D01*
X94475000Y-135093750D01*
X94475000Y-135531250D01*
X94473947Y-135552691D01*
X94470797Y-135573926D01*
X94465581Y-135594750D01*
X94458349Y-135614962D01*
X94449170Y-135634368D01*
X94438134Y-135652781D01*
X94425346Y-135670024D01*
X94410930Y-135685930D01*
X94395024Y-135700346D01*
X94377781Y-135713134D01*
X94359368Y-135724170D01*
X94339962Y-135733349D01*
X94319750Y-135740581D01*
X94298926Y-135745797D01*
X94277691Y-135748947D01*
X94256250Y-135750000D01*
X93743750Y-135750000D01*
X93722309Y-135748947D01*
X93701074Y-135745797D01*
X93680250Y-135740581D01*
X93660038Y-135733349D01*
X93640632Y-135724170D01*
X93622219Y-135713134D01*
X93604976Y-135700346D01*
X93589070Y-135685930D01*
X93574654Y-135670024D01*
X93561866Y-135652781D01*
X93550830Y-135634368D01*
X93541651Y-135614962D01*
X93534419Y-135594750D01*
X93529203Y-135573926D01*
X93526053Y-135552691D01*
X93525000Y-135531250D01*
X93525000Y-135093750D01*
X93526053Y-135072309D01*
X93529203Y-135051074D01*
X93534419Y-135030250D01*
X93541651Y-135010038D01*
X93550830Y-134990632D01*
X93561866Y-134972219D01*
X93574654Y-134954976D01*
X93589070Y-134939070D01*
X93604976Y-134924654D01*
X93622219Y-134911866D01*
X93640632Y-134900830D01*
X93660038Y-134891651D01*
X93680250Y-134884419D01*
X93701074Y-134879203D01*
X93722309Y-134876053D01*
X93743750Y-134875000D01*
X94256250Y-134875000D01*
X94277691Y-134876053D01*
G37*
G36*
X87427691Y-134226053D02*
G01*
X87448926Y-134229203D01*
X87469750Y-134234419D01*
X87489962Y-134241651D01*
X87509368Y-134250830D01*
X87527781Y-134261866D01*
X87545024Y-134274654D01*
X87560930Y-134289070D01*
X87575346Y-134304976D01*
X87588134Y-134322219D01*
X87599170Y-134340632D01*
X87608349Y-134360038D01*
X87615581Y-134380250D01*
X87620797Y-134401074D01*
X87623947Y-134422309D01*
X87625000Y-134443750D01*
X87625000Y-134956250D01*
X87623947Y-134977691D01*
X87620797Y-134998926D01*
X87615581Y-135019750D01*
X87608349Y-135039962D01*
X87599170Y-135059368D01*
X87588134Y-135077781D01*
X87575346Y-135095024D01*
X87560930Y-135110930D01*
X87545024Y-135125346D01*
X87527781Y-135138134D01*
X87509368Y-135149170D01*
X87489962Y-135158349D01*
X87469750Y-135165581D01*
X87448926Y-135170797D01*
X87427691Y-135173947D01*
X87406250Y-135175000D01*
X86968750Y-135175000D01*
X86947309Y-135173947D01*
X86926074Y-135170797D01*
X86905250Y-135165581D01*
X86885038Y-135158349D01*
X86865632Y-135149170D01*
X86847219Y-135138134D01*
X86829976Y-135125346D01*
X86814070Y-135110930D01*
X86799654Y-135095024D01*
X86786866Y-135077781D01*
X86775830Y-135059368D01*
X86766651Y-135039962D01*
X86759419Y-135019750D01*
X86754203Y-134998926D01*
X86751053Y-134977691D01*
X86750000Y-134956250D01*
X86750000Y-134443750D01*
X86751053Y-134422309D01*
X86754203Y-134401074D01*
X86759419Y-134380250D01*
X86766651Y-134360038D01*
X86775830Y-134340632D01*
X86786866Y-134322219D01*
X86799654Y-134304976D01*
X86814070Y-134289070D01*
X86829976Y-134274654D01*
X86847219Y-134261866D01*
X86865632Y-134250830D01*
X86885038Y-134241651D01*
X86905250Y-134234419D01*
X86926074Y-134229203D01*
X86947309Y-134226053D01*
X86968750Y-134225000D01*
X87406250Y-134225000D01*
X87427691Y-134226053D01*
G37*
G36*
X85852691Y-134226053D02*
G01*
X85873926Y-134229203D01*
X85894750Y-134234419D01*
X85914962Y-134241651D01*
X85934368Y-134250830D01*
X85952781Y-134261866D01*
X85970024Y-134274654D01*
X85985930Y-134289070D01*
X86000346Y-134304976D01*
X86013134Y-134322219D01*
X86024170Y-134340632D01*
X86033349Y-134360038D01*
X86040581Y-134380250D01*
X86045797Y-134401074D01*
X86048947Y-134422309D01*
X86050000Y-134443750D01*
X86050000Y-134956250D01*
X86048947Y-134977691D01*
X86045797Y-134998926D01*
X86040581Y-135019750D01*
X86033349Y-135039962D01*
X86024170Y-135059368D01*
X86013134Y-135077781D01*
X86000346Y-135095024D01*
X85985930Y-135110930D01*
X85970024Y-135125346D01*
X85952781Y-135138134D01*
X85934368Y-135149170D01*
X85914962Y-135158349D01*
X85894750Y-135165581D01*
X85873926Y-135170797D01*
X85852691Y-135173947D01*
X85831250Y-135175000D01*
X85393750Y-135175000D01*
X85372309Y-135173947D01*
X85351074Y-135170797D01*
X85330250Y-135165581D01*
X85310038Y-135158349D01*
X85290632Y-135149170D01*
X85272219Y-135138134D01*
X85254976Y-135125346D01*
X85239070Y-135110930D01*
X85224654Y-135095024D01*
X85211866Y-135077781D01*
X85200830Y-135059368D01*
X85191651Y-135039962D01*
X85184419Y-135019750D01*
X85179203Y-134998926D01*
X85176053Y-134977691D01*
X85175000Y-134956250D01*
X85175000Y-134443750D01*
X85176053Y-134422309D01*
X85179203Y-134401074D01*
X85184419Y-134380250D01*
X85191651Y-134360038D01*
X85200830Y-134340632D01*
X85211866Y-134322219D01*
X85224654Y-134304976D01*
X85239070Y-134289070D01*
X85254976Y-134274654D01*
X85272219Y-134261866D01*
X85290632Y-134250830D01*
X85310038Y-134241651D01*
X85330250Y-134234419D01*
X85351074Y-134229203D01*
X85372309Y-134226053D01*
X85393750Y-134225000D01*
X85831250Y-134225000D01*
X85852691Y-134226053D01*
G37*
G36*
X85877691Y-142251053D02*
G01*
X85898926Y-142254203D01*
X85919750Y-142259419D01*
X85939962Y-142266651D01*
X85959368Y-142275830D01*
X85977781Y-142286866D01*
X85995024Y-142299654D01*
X86010930Y-142314070D01*
X86025346Y-142329976D01*
X86038134Y-142347219D01*
X86049170Y-142365632D01*
X86058349Y-142385038D01*
X86065581Y-142405250D01*
X86070797Y-142426074D01*
X86073947Y-142447309D01*
X86075000Y-142468750D01*
X86075000Y-142906250D01*
X86073947Y-142927691D01*
X86070797Y-142948926D01*
X86065581Y-142969750D01*
X86058349Y-142989962D01*
X86049170Y-143009368D01*
X86038134Y-143027781D01*
X86025346Y-143045024D01*
X86010930Y-143060930D01*
X85995024Y-143075346D01*
X85977781Y-143088134D01*
X85959368Y-143099170D01*
X85939962Y-143108349D01*
X85919750Y-143115581D01*
X85898926Y-143120797D01*
X85877691Y-143123947D01*
X85856250Y-143125000D01*
X85343750Y-143125000D01*
X85322309Y-143123947D01*
X85301074Y-143120797D01*
X85280250Y-143115581D01*
X85260038Y-143108349D01*
X85240632Y-143099170D01*
X85222219Y-143088134D01*
X85204976Y-143075346D01*
X85189070Y-143060930D01*
X85174654Y-143045024D01*
X85161866Y-143027781D01*
X85150830Y-143009368D01*
X85141651Y-142989962D01*
X85134419Y-142969750D01*
X85129203Y-142948926D01*
X85126053Y-142927691D01*
X85125000Y-142906250D01*
X85125000Y-142468750D01*
X85126053Y-142447309D01*
X85129203Y-142426074D01*
X85134419Y-142405250D01*
X85141651Y-142385038D01*
X85150830Y-142365632D01*
X85161866Y-142347219D01*
X85174654Y-142329976D01*
X85189070Y-142314070D01*
X85204976Y-142299654D01*
X85222219Y-142286866D01*
X85240632Y-142275830D01*
X85260038Y-142266651D01*
X85280250Y-142259419D01*
X85301074Y-142254203D01*
X85322309Y-142251053D01*
X85343750Y-142250000D01*
X85856250Y-142250000D01*
X85877691Y-142251053D01*
G37*
G36*
X85877691Y-140676053D02*
G01*
X85898926Y-140679203D01*
X85919750Y-140684419D01*
X85939962Y-140691651D01*
X85959368Y-140700830D01*
X85977781Y-140711866D01*
X85995024Y-140724654D01*
X86010930Y-140739070D01*
X86025346Y-140754976D01*
X86038134Y-140772219D01*
X86049170Y-140790632D01*
X86058349Y-140810038D01*
X86065581Y-140830250D01*
X86070797Y-140851074D01*
X86073947Y-140872309D01*
X86075000Y-140893750D01*
X86075000Y-141331250D01*
X86073947Y-141352691D01*
X86070797Y-141373926D01*
X86065581Y-141394750D01*
X86058349Y-141414962D01*
X86049170Y-141434368D01*
X86038134Y-141452781D01*
X86025346Y-141470024D01*
X86010930Y-141485930D01*
X85995024Y-141500346D01*
X85977781Y-141513134D01*
X85959368Y-141524170D01*
X85939962Y-141533349D01*
X85919750Y-141540581D01*
X85898926Y-141545797D01*
X85877691Y-141548947D01*
X85856250Y-141550000D01*
X85343750Y-141550000D01*
X85322309Y-141548947D01*
X85301074Y-141545797D01*
X85280250Y-141540581D01*
X85260038Y-141533349D01*
X85240632Y-141524170D01*
X85222219Y-141513134D01*
X85204976Y-141500346D01*
X85189070Y-141485930D01*
X85174654Y-141470024D01*
X85161866Y-141452781D01*
X85150830Y-141434368D01*
X85141651Y-141414962D01*
X85134419Y-141394750D01*
X85129203Y-141373926D01*
X85126053Y-141352691D01*
X85125000Y-141331250D01*
X85125000Y-140893750D01*
X85126053Y-140872309D01*
X85129203Y-140851074D01*
X85134419Y-140830250D01*
X85141651Y-140810038D01*
X85150830Y-140790632D01*
X85161866Y-140772219D01*
X85174654Y-140754976D01*
X85189070Y-140739070D01*
X85204976Y-140724654D01*
X85222219Y-140711866D01*
X85240632Y-140700830D01*
X85260038Y-140691651D01*
X85280250Y-140684419D01*
X85301074Y-140679203D01*
X85322309Y-140676053D01*
X85343750Y-140675000D01*
X85856250Y-140675000D01*
X85877691Y-140676053D01*
G37*
G36*
X94277691Y-149351053D02*
G01*
X94298926Y-149354203D01*
X94319750Y-149359419D01*
X94339962Y-149366651D01*
X94359368Y-149375830D01*
X94377781Y-149386866D01*
X94395024Y-149399654D01*
X94410930Y-149414070D01*
X94425346Y-149429976D01*
X94438134Y-149447219D01*
X94449170Y-149465632D01*
X94458349Y-149485038D01*
X94465581Y-149505250D01*
X94470797Y-149526074D01*
X94473947Y-149547309D01*
X94475000Y-149568750D01*
X94475000Y-150006250D01*
X94473947Y-150027691D01*
X94470797Y-150048926D01*
X94465581Y-150069750D01*
X94458349Y-150089962D01*
X94449170Y-150109368D01*
X94438134Y-150127781D01*
X94425346Y-150145024D01*
X94410930Y-150160930D01*
X94395024Y-150175346D01*
X94377781Y-150188134D01*
X94359368Y-150199170D01*
X94339962Y-150208349D01*
X94319750Y-150215581D01*
X94298926Y-150220797D01*
X94277691Y-150223947D01*
X94256250Y-150225000D01*
X93743750Y-150225000D01*
X93722309Y-150223947D01*
X93701074Y-150220797D01*
X93680250Y-150215581D01*
X93660038Y-150208349D01*
X93640632Y-150199170D01*
X93622219Y-150188134D01*
X93604976Y-150175346D01*
X93589070Y-150160930D01*
X93574654Y-150145024D01*
X93561866Y-150127781D01*
X93550830Y-150109368D01*
X93541651Y-150089962D01*
X93534419Y-150069750D01*
X93529203Y-150048926D01*
X93526053Y-150027691D01*
X93525000Y-150006250D01*
X93525000Y-149568750D01*
X93526053Y-149547309D01*
X93529203Y-149526074D01*
X93534419Y-149505250D01*
X93541651Y-149485038D01*
X93550830Y-149465632D01*
X93561866Y-149447219D01*
X93574654Y-149429976D01*
X93589070Y-149414070D01*
X93604976Y-149399654D01*
X93622219Y-149386866D01*
X93640632Y-149375830D01*
X93660038Y-149366651D01*
X93680250Y-149359419D01*
X93701074Y-149354203D01*
X93722309Y-149351053D01*
X93743750Y-149350000D01*
X94256250Y-149350000D01*
X94277691Y-149351053D01*
G37*
G36*
X94277691Y-147776053D02*
G01*
X94298926Y-147779203D01*
X94319750Y-147784419D01*
X94339962Y-147791651D01*
X94359368Y-147800830D01*
X94377781Y-147811866D01*
X94395024Y-147824654D01*
X94410930Y-147839070D01*
X94425346Y-147854976D01*
X94438134Y-147872219D01*
X94449170Y-147890632D01*
X94458349Y-147910038D01*
X94465581Y-147930250D01*
X94470797Y-147951074D01*
X94473947Y-147972309D01*
X94475000Y-147993750D01*
X94475000Y-148431250D01*
X94473947Y-148452691D01*
X94470797Y-148473926D01*
X94465581Y-148494750D01*
X94458349Y-148514962D01*
X94449170Y-148534368D01*
X94438134Y-148552781D01*
X94425346Y-148570024D01*
X94410930Y-148585930D01*
X94395024Y-148600346D01*
X94377781Y-148613134D01*
X94359368Y-148624170D01*
X94339962Y-148633349D01*
X94319750Y-148640581D01*
X94298926Y-148645797D01*
X94277691Y-148648947D01*
X94256250Y-148650000D01*
X93743750Y-148650000D01*
X93722309Y-148648947D01*
X93701074Y-148645797D01*
X93680250Y-148640581D01*
X93660038Y-148633349D01*
X93640632Y-148624170D01*
X93622219Y-148613134D01*
X93604976Y-148600346D01*
X93589070Y-148585930D01*
X93574654Y-148570024D01*
X93561866Y-148552781D01*
X93550830Y-148534368D01*
X93541651Y-148514962D01*
X93534419Y-148494750D01*
X93529203Y-148473926D01*
X93526053Y-148452691D01*
X93525000Y-148431250D01*
X93525000Y-147993750D01*
X93526053Y-147972309D01*
X93529203Y-147951074D01*
X93534419Y-147930250D01*
X93541651Y-147910038D01*
X93550830Y-147890632D01*
X93561866Y-147872219D01*
X93574654Y-147854976D01*
X93589070Y-147839070D01*
X93604976Y-147824654D01*
X93622219Y-147811866D01*
X93640632Y-147800830D01*
X93660038Y-147791651D01*
X93680250Y-147784419D01*
X93701074Y-147779203D01*
X93722309Y-147776053D01*
X93743750Y-147775000D01*
X94256250Y-147775000D01*
X94277691Y-147776053D01*
G37*
G36*
X87427691Y-147126053D02*
G01*
X87448926Y-147129203D01*
X87469750Y-147134419D01*
X87489962Y-147141651D01*
X87509368Y-147150830D01*
X87527781Y-147161866D01*
X87545024Y-147174654D01*
X87560930Y-147189070D01*
X87575346Y-147204976D01*
X87588134Y-147222219D01*
X87599170Y-147240632D01*
X87608349Y-147260038D01*
X87615581Y-147280250D01*
X87620797Y-147301074D01*
X87623947Y-147322309D01*
X87625000Y-147343750D01*
X87625000Y-147856250D01*
X87623947Y-147877691D01*
X87620797Y-147898926D01*
X87615581Y-147919750D01*
X87608349Y-147939962D01*
X87599170Y-147959368D01*
X87588134Y-147977781D01*
X87575346Y-147995024D01*
X87560930Y-148010930D01*
X87545024Y-148025346D01*
X87527781Y-148038134D01*
X87509368Y-148049170D01*
X87489962Y-148058349D01*
X87469750Y-148065581D01*
X87448926Y-148070797D01*
X87427691Y-148073947D01*
X87406250Y-148075000D01*
X86968750Y-148075000D01*
X86947309Y-148073947D01*
X86926074Y-148070797D01*
X86905250Y-148065581D01*
X86885038Y-148058349D01*
X86865632Y-148049170D01*
X86847219Y-148038134D01*
X86829976Y-148025346D01*
X86814070Y-148010930D01*
X86799654Y-147995024D01*
X86786866Y-147977781D01*
X86775830Y-147959368D01*
X86766651Y-147939962D01*
X86759419Y-147919750D01*
X86754203Y-147898926D01*
X86751053Y-147877691D01*
X86750000Y-147856250D01*
X86750000Y-147343750D01*
X86751053Y-147322309D01*
X86754203Y-147301074D01*
X86759419Y-147280250D01*
X86766651Y-147260038D01*
X86775830Y-147240632D01*
X86786866Y-147222219D01*
X86799654Y-147204976D01*
X86814070Y-147189070D01*
X86829976Y-147174654D01*
X86847219Y-147161866D01*
X86865632Y-147150830D01*
X86885038Y-147141651D01*
X86905250Y-147134419D01*
X86926074Y-147129203D01*
X86947309Y-147126053D01*
X86968750Y-147125000D01*
X87406250Y-147125000D01*
X87427691Y-147126053D01*
G37*
G36*
X85852691Y-147126053D02*
G01*
X85873926Y-147129203D01*
X85894750Y-147134419D01*
X85914962Y-147141651D01*
X85934368Y-147150830D01*
X85952781Y-147161866D01*
X85970024Y-147174654D01*
X85985930Y-147189070D01*
X86000346Y-147204976D01*
X86013134Y-147222219D01*
X86024170Y-147240632D01*
X86033349Y-147260038D01*
X86040581Y-147280250D01*
X86045797Y-147301074D01*
X86048947Y-147322309D01*
X86050000Y-147343750D01*
X86050000Y-147856250D01*
X86048947Y-147877691D01*
X86045797Y-147898926D01*
X86040581Y-147919750D01*
X86033349Y-147939962D01*
X86024170Y-147959368D01*
X86013134Y-147977781D01*
X86000346Y-147995024D01*
X85985930Y-148010930D01*
X85970024Y-148025346D01*
X85952781Y-148038134D01*
X85934368Y-148049170D01*
X85914962Y-148058349D01*
X85894750Y-148065581D01*
X85873926Y-148070797D01*
X85852691Y-148073947D01*
X85831250Y-148075000D01*
X85393750Y-148075000D01*
X85372309Y-148073947D01*
X85351074Y-148070797D01*
X85330250Y-148065581D01*
X85310038Y-148058349D01*
X85290632Y-148049170D01*
X85272219Y-148038134D01*
X85254976Y-148025346D01*
X85239070Y-148010930D01*
X85224654Y-147995024D01*
X85211866Y-147977781D01*
X85200830Y-147959368D01*
X85191651Y-147939962D01*
X85184419Y-147919750D01*
X85179203Y-147898926D01*
X85176053Y-147877691D01*
X85175000Y-147856250D01*
X85175000Y-147343750D01*
X85176053Y-147322309D01*
X85179203Y-147301074D01*
X85184419Y-147280250D01*
X85191651Y-147260038D01*
X85200830Y-147240632D01*
X85211866Y-147222219D01*
X85224654Y-147204976D01*
X85239070Y-147189070D01*
X85254976Y-147174654D01*
X85272219Y-147161866D01*
X85290632Y-147150830D01*
X85310038Y-147141651D01*
X85330250Y-147134419D01*
X85351074Y-147129203D01*
X85372309Y-147126053D01*
X85393750Y-147125000D01*
X85831250Y-147125000D01*
X85852691Y-147126053D01*
G37*
G36*
X90924504Y-131901204D02*
G01*
X90948773Y-131904804D01*
X90972571Y-131910765D01*
X90995671Y-131919030D01*
X91017849Y-131929520D01*
X91038893Y-131942133D01*
X91058598Y-131956747D01*
X91076777Y-131973223D01*
X91093253Y-131991402D01*
X91107867Y-132011107D01*
X91120480Y-132032151D01*
X91130970Y-132054329D01*
X91139235Y-132077429D01*
X91145196Y-132101227D01*
X91148796Y-132125496D01*
X91150000Y-132150000D01*
X91150000Y-133850000D01*
X91148796Y-133874504D01*
X91145196Y-133898773D01*
X91139235Y-133922571D01*
X91130970Y-133945671D01*
X91120480Y-133967849D01*
X91107867Y-133988893D01*
X91093253Y-134008598D01*
X91076777Y-134026777D01*
X91058598Y-134043253D01*
X91038893Y-134057867D01*
X91017849Y-134070480D01*
X90995671Y-134080970D01*
X90972571Y-134089235D01*
X90948773Y-134095196D01*
X90924504Y-134098796D01*
X90900000Y-134100000D01*
X90150000Y-134100000D01*
X90125496Y-134098796D01*
X90101227Y-134095196D01*
X90077429Y-134089235D01*
X90054329Y-134080970D01*
X90032151Y-134070480D01*
X90011107Y-134057867D01*
X89991402Y-134043253D01*
X89973223Y-134026777D01*
X89956747Y-134008598D01*
X89942133Y-133988893D01*
X89929520Y-133967849D01*
X89919030Y-133945671D01*
X89910765Y-133922571D01*
X89904804Y-133898773D01*
X89901204Y-133874504D01*
X89900000Y-133850000D01*
X89900000Y-132150000D01*
X89901204Y-132125496D01*
X89904804Y-132101227D01*
X89910765Y-132077429D01*
X89919030Y-132054329D01*
X89929520Y-132032151D01*
X89942133Y-132011107D01*
X89956747Y-131991402D01*
X89973223Y-131973223D01*
X89991402Y-131956747D01*
X90011107Y-131942133D01*
X90032151Y-131929520D01*
X90054329Y-131919030D01*
X90077429Y-131910765D01*
X90101227Y-131904804D01*
X90125496Y-131901204D01*
X90150000Y-131900000D01*
X90900000Y-131900000D01*
X90924504Y-131901204D01*
G37*
G36*
X93074504Y-131901204D02*
G01*
X93098773Y-131904804D01*
X93122571Y-131910765D01*
X93145671Y-131919030D01*
X93167849Y-131929520D01*
X93188893Y-131942133D01*
X93208598Y-131956747D01*
X93226777Y-131973223D01*
X93243253Y-131991402D01*
X93257867Y-132011107D01*
X93270480Y-132032151D01*
X93280970Y-132054329D01*
X93289235Y-132077429D01*
X93295196Y-132101227D01*
X93298796Y-132125496D01*
X93300000Y-132150000D01*
X93300000Y-133850000D01*
X93298796Y-133874504D01*
X93295196Y-133898773D01*
X93289235Y-133922571D01*
X93280970Y-133945671D01*
X93270480Y-133967849D01*
X93257867Y-133988893D01*
X93243253Y-134008598D01*
X93226777Y-134026777D01*
X93208598Y-134043253D01*
X93188893Y-134057867D01*
X93167849Y-134070480D01*
X93145671Y-134080970D01*
X93122571Y-134089235D01*
X93098773Y-134095196D01*
X93074504Y-134098796D01*
X93050000Y-134100000D01*
X92300000Y-134100000D01*
X92275496Y-134098796D01*
X92251227Y-134095196D01*
X92227429Y-134089235D01*
X92204329Y-134080970D01*
X92182151Y-134070480D01*
X92161107Y-134057867D01*
X92141402Y-134043253D01*
X92123223Y-134026777D01*
X92106747Y-134008598D01*
X92092133Y-133988893D01*
X92079520Y-133967849D01*
X92069030Y-133945671D01*
X92060765Y-133922571D01*
X92054804Y-133898773D01*
X92051204Y-133874504D01*
X92050000Y-133850000D01*
X92050000Y-132150000D01*
X92051204Y-132125496D01*
X92054804Y-132101227D01*
X92060765Y-132077429D01*
X92069030Y-132054329D01*
X92079520Y-132032151D01*
X92092133Y-132011107D01*
X92106747Y-131991402D01*
X92123223Y-131973223D01*
X92141402Y-131956747D01*
X92161107Y-131942133D01*
X92182151Y-131929520D01*
X92204329Y-131919030D01*
X92227429Y-131910765D01*
X92251227Y-131904804D01*
X92275496Y-131901204D01*
X92300000Y-131900000D01*
X93050000Y-131900000D01*
X93074504Y-131901204D01*
G37*
G36*
X85877691Y-130976053D02*
G01*
X85898926Y-130979203D01*
X85919750Y-130984419D01*
X85939962Y-130991651D01*
X85959368Y-131000830D01*
X85977781Y-131011866D01*
X85995024Y-131024654D01*
X86010930Y-131039070D01*
X86025346Y-131054976D01*
X86038134Y-131072219D01*
X86049170Y-131090632D01*
X86058349Y-131110038D01*
X86065581Y-131130250D01*
X86070797Y-131151074D01*
X86073947Y-131172309D01*
X86075000Y-131193750D01*
X86075000Y-131631250D01*
X86073947Y-131652691D01*
X86070797Y-131673926D01*
X86065581Y-131694750D01*
X86058349Y-131714962D01*
X86049170Y-131734368D01*
X86038134Y-131752781D01*
X86025346Y-131770024D01*
X86010930Y-131785930D01*
X85995024Y-131800346D01*
X85977781Y-131813134D01*
X85959368Y-131824170D01*
X85939962Y-131833349D01*
X85919750Y-131840581D01*
X85898926Y-131845797D01*
X85877691Y-131848947D01*
X85856250Y-131850000D01*
X85343750Y-131850000D01*
X85322309Y-131848947D01*
X85301074Y-131845797D01*
X85280250Y-131840581D01*
X85260038Y-131833349D01*
X85240632Y-131824170D01*
X85222219Y-131813134D01*
X85204976Y-131800346D01*
X85189070Y-131785930D01*
X85174654Y-131770024D01*
X85161866Y-131752781D01*
X85150830Y-131734368D01*
X85141651Y-131714962D01*
X85134419Y-131694750D01*
X85129203Y-131673926D01*
X85126053Y-131652691D01*
X85125000Y-131631250D01*
X85125000Y-131193750D01*
X85126053Y-131172309D01*
X85129203Y-131151074D01*
X85134419Y-131130250D01*
X85141651Y-131110038D01*
X85150830Y-131090632D01*
X85161866Y-131072219D01*
X85174654Y-131054976D01*
X85189070Y-131039070D01*
X85204976Y-131024654D01*
X85222219Y-131011866D01*
X85240632Y-131000830D01*
X85260038Y-130991651D01*
X85280250Y-130984419D01*
X85301074Y-130979203D01*
X85322309Y-130976053D01*
X85343750Y-130975000D01*
X85856250Y-130975000D01*
X85877691Y-130976053D01*
G37*
G36*
X85877691Y-132551053D02*
G01*
X85898926Y-132554203D01*
X85919750Y-132559419D01*
X85939962Y-132566651D01*
X85959368Y-132575830D01*
X85977781Y-132586866D01*
X85995024Y-132599654D01*
X86010930Y-132614070D01*
X86025346Y-132629976D01*
X86038134Y-132647219D01*
X86049170Y-132665632D01*
X86058349Y-132685038D01*
X86065581Y-132705250D01*
X86070797Y-132726074D01*
X86073947Y-132747309D01*
X86075000Y-132768750D01*
X86075000Y-133206250D01*
X86073947Y-133227691D01*
X86070797Y-133248926D01*
X86065581Y-133269750D01*
X86058349Y-133289962D01*
X86049170Y-133309368D01*
X86038134Y-133327781D01*
X86025346Y-133345024D01*
X86010930Y-133360930D01*
X85995024Y-133375346D01*
X85977781Y-133388134D01*
X85959368Y-133399170D01*
X85939962Y-133408349D01*
X85919750Y-133415581D01*
X85898926Y-133420797D01*
X85877691Y-133423947D01*
X85856250Y-133425000D01*
X85343750Y-133425000D01*
X85322309Y-133423947D01*
X85301074Y-133420797D01*
X85280250Y-133415581D01*
X85260038Y-133408349D01*
X85240632Y-133399170D01*
X85222219Y-133388134D01*
X85204976Y-133375346D01*
X85189070Y-133360930D01*
X85174654Y-133345024D01*
X85161866Y-133327781D01*
X85150830Y-133309368D01*
X85141651Y-133289962D01*
X85134419Y-133269750D01*
X85129203Y-133248926D01*
X85126053Y-133227691D01*
X85125000Y-133206250D01*
X85125000Y-132768750D01*
X85126053Y-132747309D01*
X85129203Y-132726074D01*
X85134419Y-132705250D01*
X85141651Y-132685038D01*
X85150830Y-132665632D01*
X85161866Y-132647219D01*
X85174654Y-132629976D01*
X85189070Y-132614070D01*
X85204976Y-132599654D01*
X85222219Y-132586866D01*
X85240632Y-132575830D01*
X85260038Y-132566651D01*
X85280250Y-132559419D01*
X85301074Y-132554203D01*
X85322309Y-132551053D01*
X85343750Y-132550000D01*
X85856250Y-132550000D01*
X85877691Y-132551053D01*
G37*
G36*
X90924504Y-144801204D02*
G01*
X90948773Y-144804804D01*
X90972571Y-144810765D01*
X90995671Y-144819030D01*
X91017849Y-144829520D01*
X91038893Y-144842133D01*
X91058598Y-144856747D01*
X91076777Y-144873223D01*
X91093253Y-144891402D01*
X91107867Y-144911107D01*
X91120480Y-144932151D01*
X91130970Y-144954329D01*
X91139235Y-144977429D01*
X91145196Y-145001227D01*
X91148796Y-145025496D01*
X91150000Y-145050000D01*
X91150000Y-146750000D01*
X91148796Y-146774504D01*
X91145196Y-146798773D01*
X91139235Y-146822571D01*
X91130970Y-146845671D01*
X91120480Y-146867849D01*
X91107867Y-146888893D01*
X91093253Y-146908598D01*
X91076777Y-146926777D01*
X91058598Y-146943253D01*
X91038893Y-146957867D01*
X91017849Y-146970480D01*
X90995671Y-146980970D01*
X90972571Y-146989235D01*
X90948773Y-146995196D01*
X90924504Y-146998796D01*
X90900000Y-147000000D01*
X90150000Y-147000000D01*
X90125496Y-146998796D01*
X90101227Y-146995196D01*
X90077429Y-146989235D01*
X90054329Y-146980970D01*
X90032151Y-146970480D01*
X90011107Y-146957867D01*
X89991402Y-146943253D01*
X89973223Y-146926777D01*
X89956747Y-146908598D01*
X89942133Y-146888893D01*
X89929520Y-146867849D01*
X89919030Y-146845671D01*
X89910765Y-146822571D01*
X89904804Y-146798773D01*
X89901204Y-146774504D01*
X89900000Y-146750000D01*
X89900000Y-145050000D01*
X89901204Y-145025496D01*
X89904804Y-145001227D01*
X89910765Y-144977429D01*
X89919030Y-144954329D01*
X89929520Y-144932151D01*
X89942133Y-144911107D01*
X89956747Y-144891402D01*
X89973223Y-144873223D01*
X89991402Y-144856747D01*
X90011107Y-144842133D01*
X90032151Y-144829520D01*
X90054329Y-144819030D01*
X90077429Y-144810765D01*
X90101227Y-144804804D01*
X90125496Y-144801204D01*
X90150000Y-144800000D01*
X90900000Y-144800000D01*
X90924504Y-144801204D01*
G37*
G36*
X93074504Y-144801204D02*
G01*
X93098773Y-144804804D01*
X93122571Y-144810765D01*
X93145671Y-144819030D01*
X93167849Y-144829520D01*
X93188893Y-144842133D01*
X93208598Y-144856747D01*
X93226777Y-144873223D01*
X93243253Y-144891402D01*
X93257867Y-144911107D01*
X93270480Y-144932151D01*
X93280970Y-144954329D01*
X93289235Y-144977429D01*
X93295196Y-145001227D01*
X93298796Y-145025496D01*
X93300000Y-145050000D01*
X93300000Y-146750000D01*
X93298796Y-146774504D01*
X93295196Y-146798773D01*
X93289235Y-146822571D01*
X93280970Y-146845671D01*
X93270480Y-146867849D01*
X93257867Y-146888893D01*
X93243253Y-146908598D01*
X93226777Y-146926777D01*
X93208598Y-146943253D01*
X93188893Y-146957867D01*
X93167849Y-146970480D01*
X93145671Y-146980970D01*
X93122571Y-146989235D01*
X93098773Y-146995196D01*
X93074504Y-146998796D01*
X93050000Y-147000000D01*
X92300000Y-147000000D01*
X92275496Y-146998796D01*
X92251227Y-146995196D01*
X92227429Y-146989235D01*
X92204329Y-146980970D01*
X92182151Y-146970480D01*
X92161107Y-146957867D01*
X92141402Y-146943253D01*
X92123223Y-146926777D01*
X92106747Y-146908598D01*
X92092133Y-146888893D01*
X92079520Y-146867849D01*
X92069030Y-146845671D01*
X92060765Y-146822571D01*
X92054804Y-146798773D01*
X92051204Y-146774504D01*
X92050000Y-146750000D01*
X92050000Y-145050000D01*
X92051204Y-145025496D01*
X92054804Y-145001227D01*
X92060765Y-144977429D01*
X92069030Y-144954329D01*
X92079520Y-144932151D01*
X92092133Y-144911107D01*
X92106747Y-144891402D01*
X92123223Y-144873223D01*
X92141402Y-144856747D01*
X92161107Y-144842133D01*
X92182151Y-144829520D01*
X92204329Y-144819030D01*
X92227429Y-144810765D01*
X92251227Y-144804804D01*
X92275496Y-144801204D01*
X92300000Y-144800000D01*
X93050000Y-144800000D01*
X93074504Y-144801204D01*
G37*
G36*
X85877691Y-143876053D02*
G01*
X85898926Y-143879203D01*
X85919750Y-143884419D01*
X85939962Y-143891651D01*
X85959368Y-143900830D01*
X85977781Y-143911866D01*
X85995024Y-143924654D01*
X86010930Y-143939070D01*
X86025346Y-143954976D01*
X86038134Y-143972219D01*
X86049170Y-143990632D01*
X86058349Y-144010038D01*
X86065581Y-144030250D01*
X86070797Y-144051074D01*
X86073947Y-144072309D01*
X86075000Y-144093750D01*
X86075000Y-144531250D01*
X86073947Y-144552691D01*
X86070797Y-144573926D01*
X86065581Y-144594750D01*
X86058349Y-144614962D01*
X86049170Y-144634368D01*
X86038134Y-144652781D01*
X86025346Y-144670024D01*
X86010930Y-144685930D01*
X85995024Y-144700346D01*
X85977781Y-144713134D01*
X85959368Y-144724170D01*
X85939962Y-144733349D01*
X85919750Y-144740581D01*
X85898926Y-144745797D01*
X85877691Y-144748947D01*
X85856250Y-144750000D01*
X85343750Y-144750000D01*
X85322309Y-144748947D01*
X85301074Y-144745797D01*
X85280250Y-144740581D01*
X85260038Y-144733349D01*
X85240632Y-144724170D01*
X85222219Y-144713134D01*
X85204976Y-144700346D01*
X85189070Y-144685930D01*
X85174654Y-144670024D01*
X85161866Y-144652781D01*
X85150830Y-144634368D01*
X85141651Y-144614962D01*
X85134419Y-144594750D01*
X85129203Y-144573926D01*
X85126053Y-144552691D01*
X85125000Y-144531250D01*
X85125000Y-144093750D01*
X85126053Y-144072309D01*
X85129203Y-144051074D01*
X85134419Y-144030250D01*
X85141651Y-144010038D01*
X85150830Y-143990632D01*
X85161866Y-143972219D01*
X85174654Y-143954976D01*
X85189070Y-143939070D01*
X85204976Y-143924654D01*
X85222219Y-143911866D01*
X85240632Y-143900830D01*
X85260038Y-143891651D01*
X85280250Y-143884419D01*
X85301074Y-143879203D01*
X85322309Y-143876053D01*
X85343750Y-143875000D01*
X85856250Y-143875000D01*
X85877691Y-143876053D01*
G37*
G36*
X85877691Y-145451053D02*
G01*
X85898926Y-145454203D01*
X85919750Y-145459419D01*
X85939962Y-145466651D01*
X85959368Y-145475830D01*
X85977781Y-145486866D01*
X85995024Y-145499654D01*
X86010930Y-145514070D01*
X86025346Y-145529976D01*
X86038134Y-145547219D01*
X86049170Y-145565632D01*
X86058349Y-145585038D01*
X86065581Y-145605250D01*
X86070797Y-145626074D01*
X86073947Y-145647309D01*
X86075000Y-145668750D01*
X86075000Y-146106250D01*
X86073947Y-146127691D01*
X86070797Y-146148926D01*
X86065581Y-146169750D01*
X86058349Y-146189962D01*
X86049170Y-146209368D01*
X86038134Y-146227781D01*
X86025346Y-146245024D01*
X86010930Y-146260930D01*
X85995024Y-146275346D01*
X85977781Y-146288134D01*
X85959368Y-146299170D01*
X85939962Y-146308349D01*
X85919750Y-146315581D01*
X85898926Y-146320797D01*
X85877691Y-146323947D01*
X85856250Y-146325000D01*
X85343750Y-146325000D01*
X85322309Y-146323947D01*
X85301074Y-146320797D01*
X85280250Y-146315581D01*
X85260038Y-146308349D01*
X85240632Y-146299170D01*
X85222219Y-146288134D01*
X85204976Y-146275346D01*
X85189070Y-146260930D01*
X85174654Y-146245024D01*
X85161866Y-146227781D01*
X85150830Y-146209368D01*
X85141651Y-146189962D01*
X85134419Y-146169750D01*
X85129203Y-146148926D01*
X85126053Y-146127691D01*
X85125000Y-146106250D01*
X85125000Y-145668750D01*
X85126053Y-145647309D01*
X85129203Y-145626074D01*
X85134419Y-145605250D01*
X85141651Y-145585038D01*
X85150830Y-145565632D01*
X85161866Y-145547219D01*
X85174654Y-145529976D01*
X85189070Y-145514070D01*
X85204976Y-145499654D01*
X85222219Y-145486866D01*
X85240632Y-145475830D01*
X85260038Y-145466651D01*
X85280250Y-145459419D01*
X85301074Y-145454203D01*
X85322309Y-145451053D01*
X85343750Y-145450000D01*
X85856250Y-145450000D01*
X85877691Y-145451053D01*
G37*
G36*
X92627691Y-134826053D02*
G01*
X92648926Y-134829203D01*
X92669750Y-134834419D01*
X92689962Y-134841651D01*
X92709368Y-134850830D01*
X92727781Y-134861866D01*
X92745024Y-134874654D01*
X92760930Y-134889070D01*
X92775346Y-134904976D01*
X92788134Y-134922219D01*
X92799170Y-134940632D01*
X92808349Y-134960038D01*
X92815581Y-134980250D01*
X92820797Y-135001074D01*
X92823947Y-135022309D01*
X92825000Y-135043750D01*
X92825000Y-135556250D01*
X92823947Y-135577691D01*
X92820797Y-135598926D01*
X92815581Y-135619750D01*
X92808349Y-135639962D01*
X92799170Y-135659368D01*
X92788134Y-135677781D01*
X92775346Y-135695024D01*
X92760930Y-135710930D01*
X92745024Y-135725346D01*
X92727781Y-135738134D01*
X92709368Y-135749170D01*
X92689962Y-135758349D01*
X92669750Y-135765581D01*
X92648926Y-135770797D01*
X92627691Y-135773947D01*
X92606250Y-135775000D01*
X92168750Y-135775000D01*
X92147309Y-135773947D01*
X92126074Y-135770797D01*
X92105250Y-135765581D01*
X92085038Y-135758349D01*
X92065632Y-135749170D01*
X92047219Y-135738134D01*
X92029976Y-135725346D01*
X92014070Y-135710930D01*
X91999654Y-135695024D01*
X91986866Y-135677781D01*
X91975830Y-135659368D01*
X91966651Y-135639962D01*
X91959419Y-135619750D01*
X91954203Y-135598926D01*
X91951053Y-135577691D01*
X91950000Y-135556250D01*
X91950000Y-135043750D01*
X91951053Y-135022309D01*
X91954203Y-135001074D01*
X91959419Y-134980250D01*
X91966651Y-134960038D01*
X91975830Y-134940632D01*
X91986866Y-134922219D01*
X91999654Y-134904976D01*
X92014070Y-134889070D01*
X92029976Y-134874654D01*
X92047219Y-134861866D01*
X92065632Y-134850830D01*
X92085038Y-134841651D01*
X92105250Y-134834419D01*
X92126074Y-134829203D01*
X92147309Y-134826053D01*
X92168750Y-134825000D01*
X92606250Y-134825000D01*
X92627691Y-134826053D01*
G37*
G36*
X91052691Y-134826053D02*
G01*
X91073926Y-134829203D01*
X91094750Y-134834419D01*
X91114962Y-134841651D01*
X91134368Y-134850830D01*
X91152781Y-134861866D01*
X91170024Y-134874654D01*
X91185930Y-134889070D01*
X91200346Y-134904976D01*
X91213134Y-134922219D01*
X91224170Y-134940632D01*
X91233349Y-134960038D01*
X91240581Y-134980250D01*
X91245797Y-135001074D01*
X91248947Y-135022309D01*
X91250000Y-135043750D01*
X91250000Y-135556250D01*
X91248947Y-135577691D01*
X91245797Y-135598926D01*
X91240581Y-135619750D01*
X91233349Y-135639962D01*
X91224170Y-135659368D01*
X91213134Y-135677781D01*
X91200346Y-135695024D01*
X91185930Y-135710930D01*
X91170024Y-135725346D01*
X91152781Y-135738134D01*
X91134368Y-135749170D01*
X91114962Y-135758349D01*
X91094750Y-135765581D01*
X91073926Y-135770797D01*
X91052691Y-135773947D01*
X91031250Y-135775000D01*
X90593750Y-135775000D01*
X90572309Y-135773947D01*
X90551074Y-135770797D01*
X90530250Y-135765581D01*
X90510038Y-135758349D01*
X90490632Y-135749170D01*
X90472219Y-135738134D01*
X90454976Y-135725346D01*
X90439070Y-135710930D01*
X90424654Y-135695024D01*
X90411866Y-135677781D01*
X90400830Y-135659368D01*
X90391651Y-135639962D01*
X90384419Y-135619750D01*
X90379203Y-135598926D01*
X90376053Y-135577691D01*
X90375000Y-135556250D01*
X90375000Y-135043750D01*
X90376053Y-135022309D01*
X90379203Y-135001074D01*
X90384419Y-134980250D01*
X90391651Y-134960038D01*
X90400830Y-134940632D01*
X90411866Y-134922219D01*
X90424654Y-134904976D01*
X90439070Y-134889070D01*
X90454976Y-134874654D01*
X90472219Y-134861866D01*
X90490632Y-134850830D01*
X90510038Y-134841651D01*
X90530250Y-134834419D01*
X90551074Y-134829203D01*
X90572309Y-134826053D01*
X90593750Y-134825000D01*
X91031250Y-134825000D01*
X91052691Y-134826053D01*
G37*
G36*
X89027691Y-132526053D02*
G01*
X89048926Y-132529203D01*
X89069750Y-132534419D01*
X89089962Y-132541651D01*
X89109368Y-132550830D01*
X89127781Y-132561866D01*
X89145024Y-132574654D01*
X89160930Y-132589070D01*
X89175346Y-132604976D01*
X89188134Y-132622219D01*
X89199170Y-132640632D01*
X89208349Y-132660038D01*
X89215581Y-132680250D01*
X89220797Y-132701074D01*
X89223947Y-132722309D01*
X89225000Y-132743750D01*
X89225000Y-133256250D01*
X89223947Y-133277691D01*
X89220797Y-133298926D01*
X89215581Y-133319750D01*
X89208349Y-133339962D01*
X89199170Y-133359368D01*
X89188134Y-133377781D01*
X89175346Y-133395024D01*
X89160930Y-133410930D01*
X89145024Y-133425346D01*
X89127781Y-133438134D01*
X89109368Y-133449170D01*
X89089962Y-133458349D01*
X89069750Y-133465581D01*
X89048926Y-133470797D01*
X89027691Y-133473947D01*
X89006250Y-133475000D01*
X88568750Y-133475000D01*
X88547309Y-133473947D01*
X88526074Y-133470797D01*
X88505250Y-133465581D01*
X88485038Y-133458349D01*
X88465632Y-133449170D01*
X88447219Y-133438134D01*
X88429976Y-133425346D01*
X88414070Y-133410930D01*
X88399654Y-133395024D01*
X88386866Y-133377781D01*
X88375830Y-133359368D01*
X88366651Y-133339962D01*
X88359419Y-133319750D01*
X88354203Y-133298926D01*
X88351053Y-133277691D01*
X88350000Y-133256250D01*
X88350000Y-132743750D01*
X88351053Y-132722309D01*
X88354203Y-132701074D01*
X88359419Y-132680250D01*
X88366651Y-132660038D01*
X88375830Y-132640632D01*
X88386866Y-132622219D01*
X88399654Y-132604976D01*
X88414070Y-132589070D01*
X88429976Y-132574654D01*
X88447219Y-132561866D01*
X88465632Y-132550830D01*
X88485038Y-132541651D01*
X88505250Y-132534419D01*
X88526074Y-132529203D01*
X88547309Y-132526053D01*
X88568750Y-132525000D01*
X89006250Y-132525000D01*
X89027691Y-132526053D01*
G37*
G36*
X87452691Y-132526053D02*
G01*
X87473926Y-132529203D01*
X87494750Y-132534419D01*
X87514962Y-132541651D01*
X87534368Y-132550830D01*
X87552781Y-132561866D01*
X87570024Y-132574654D01*
X87585930Y-132589070D01*
X87600346Y-132604976D01*
X87613134Y-132622219D01*
X87624170Y-132640632D01*
X87633349Y-132660038D01*
X87640581Y-132680250D01*
X87645797Y-132701074D01*
X87648947Y-132722309D01*
X87650000Y-132743750D01*
X87650000Y-133256250D01*
X87648947Y-133277691D01*
X87645797Y-133298926D01*
X87640581Y-133319750D01*
X87633349Y-133339962D01*
X87624170Y-133359368D01*
X87613134Y-133377781D01*
X87600346Y-133395024D01*
X87585930Y-133410930D01*
X87570024Y-133425346D01*
X87552781Y-133438134D01*
X87534368Y-133449170D01*
X87514962Y-133458349D01*
X87494750Y-133465581D01*
X87473926Y-133470797D01*
X87452691Y-133473947D01*
X87431250Y-133475000D01*
X86993750Y-133475000D01*
X86972309Y-133473947D01*
X86951074Y-133470797D01*
X86930250Y-133465581D01*
X86910038Y-133458349D01*
X86890632Y-133449170D01*
X86872219Y-133438134D01*
X86854976Y-133425346D01*
X86839070Y-133410930D01*
X86824654Y-133395024D01*
X86811866Y-133377781D01*
X86800830Y-133359368D01*
X86791651Y-133339962D01*
X86784419Y-133319750D01*
X86779203Y-133298926D01*
X86776053Y-133277691D01*
X86775000Y-133256250D01*
X86775000Y-132743750D01*
X86776053Y-132722309D01*
X86779203Y-132701074D01*
X86784419Y-132680250D01*
X86791651Y-132660038D01*
X86800830Y-132640632D01*
X86811866Y-132622219D01*
X86824654Y-132604976D01*
X86839070Y-132589070D01*
X86854976Y-132574654D01*
X86872219Y-132561866D01*
X86890632Y-132550830D01*
X86910038Y-132541651D01*
X86930250Y-132534419D01*
X86951074Y-132529203D01*
X86972309Y-132526053D01*
X86993750Y-132525000D01*
X87431250Y-132525000D01*
X87452691Y-132526053D01*
G37*
G36*
X87452691Y-130126053D02*
G01*
X87473926Y-130129203D01*
X87494750Y-130134419D01*
X87514962Y-130141651D01*
X87534368Y-130150830D01*
X87552781Y-130161866D01*
X87570024Y-130174654D01*
X87585930Y-130189070D01*
X87600346Y-130204976D01*
X87613134Y-130222219D01*
X87624170Y-130240632D01*
X87633349Y-130260038D01*
X87640581Y-130280250D01*
X87645797Y-130301074D01*
X87648947Y-130322309D01*
X87650000Y-130343750D01*
X87650000Y-130856250D01*
X87648947Y-130877691D01*
X87645797Y-130898926D01*
X87640581Y-130919750D01*
X87633349Y-130939962D01*
X87624170Y-130959368D01*
X87613134Y-130977781D01*
X87600346Y-130995024D01*
X87585930Y-131010930D01*
X87570024Y-131025346D01*
X87552781Y-131038134D01*
X87534368Y-131049170D01*
X87514962Y-131058349D01*
X87494750Y-131065581D01*
X87473926Y-131070797D01*
X87452691Y-131073947D01*
X87431250Y-131075000D01*
X86993750Y-131075000D01*
X86972309Y-131073947D01*
X86951074Y-131070797D01*
X86930250Y-131065581D01*
X86910038Y-131058349D01*
X86890632Y-131049170D01*
X86872219Y-131038134D01*
X86854976Y-131025346D01*
X86839070Y-131010930D01*
X86824654Y-130995024D01*
X86811866Y-130977781D01*
X86800830Y-130959368D01*
X86791651Y-130939962D01*
X86784419Y-130919750D01*
X86779203Y-130898926D01*
X86776053Y-130877691D01*
X86775000Y-130856250D01*
X86775000Y-130343750D01*
X86776053Y-130322309D01*
X86779203Y-130301074D01*
X86784419Y-130280250D01*
X86791651Y-130260038D01*
X86800830Y-130240632D01*
X86811866Y-130222219D01*
X86824654Y-130204976D01*
X86839070Y-130189070D01*
X86854976Y-130174654D01*
X86872219Y-130161866D01*
X86890632Y-130150830D01*
X86910038Y-130141651D01*
X86930250Y-130134419D01*
X86951074Y-130129203D01*
X86972309Y-130126053D01*
X86993750Y-130125000D01*
X87431250Y-130125000D01*
X87452691Y-130126053D01*
G37*
G36*
X89027691Y-130126053D02*
G01*
X89048926Y-130129203D01*
X89069750Y-130134419D01*
X89089962Y-130141651D01*
X89109368Y-130150830D01*
X89127781Y-130161866D01*
X89145024Y-130174654D01*
X89160930Y-130189070D01*
X89175346Y-130204976D01*
X89188134Y-130222219D01*
X89199170Y-130240632D01*
X89208349Y-130260038D01*
X89215581Y-130280250D01*
X89220797Y-130301074D01*
X89223947Y-130322309D01*
X89225000Y-130343750D01*
X89225000Y-130856250D01*
X89223947Y-130877691D01*
X89220797Y-130898926D01*
X89215581Y-130919750D01*
X89208349Y-130939962D01*
X89199170Y-130959368D01*
X89188134Y-130977781D01*
X89175346Y-130995024D01*
X89160930Y-131010930D01*
X89145024Y-131025346D01*
X89127781Y-131038134D01*
X89109368Y-131049170D01*
X89089962Y-131058349D01*
X89069750Y-131065581D01*
X89048926Y-131070797D01*
X89027691Y-131073947D01*
X89006250Y-131075000D01*
X88568750Y-131075000D01*
X88547309Y-131073947D01*
X88526074Y-131070797D01*
X88505250Y-131065581D01*
X88485038Y-131058349D01*
X88465632Y-131049170D01*
X88447219Y-131038134D01*
X88429976Y-131025346D01*
X88414070Y-131010930D01*
X88399654Y-130995024D01*
X88386866Y-130977781D01*
X88375830Y-130959368D01*
X88366651Y-130939962D01*
X88359419Y-130919750D01*
X88354203Y-130898926D01*
X88351053Y-130877691D01*
X88350000Y-130856250D01*
X88350000Y-130343750D01*
X88351053Y-130322309D01*
X88354203Y-130301074D01*
X88359419Y-130280250D01*
X88366651Y-130260038D01*
X88375830Y-130240632D01*
X88386866Y-130222219D01*
X88399654Y-130204976D01*
X88414070Y-130189070D01*
X88429976Y-130174654D01*
X88447219Y-130161866D01*
X88465632Y-130150830D01*
X88485038Y-130141651D01*
X88505250Y-130134419D01*
X88526074Y-130129203D01*
X88547309Y-130126053D01*
X88568750Y-130125000D01*
X89006250Y-130125000D01*
X89027691Y-130126053D01*
G37*
G36*
X92627691Y-147726053D02*
G01*
X92648926Y-147729203D01*
X92669750Y-147734419D01*
X92689962Y-147741651D01*
X92709368Y-147750830D01*
X92727781Y-147761866D01*
X92745024Y-147774654D01*
X92760930Y-147789070D01*
X92775346Y-147804976D01*
X92788134Y-147822219D01*
X92799170Y-147840632D01*
X92808349Y-147860038D01*
X92815581Y-147880250D01*
X92820797Y-147901074D01*
X92823947Y-147922309D01*
X92825000Y-147943750D01*
X92825000Y-148456250D01*
X92823947Y-148477691D01*
X92820797Y-148498926D01*
X92815581Y-148519750D01*
X92808349Y-148539962D01*
X92799170Y-148559368D01*
X92788134Y-148577781D01*
X92775346Y-148595024D01*
X92760930Y-148610930D01*
X92745024Y-148625346D01*
X92727781Y-148638134D01*
X92709368Y-148649170D01*
X92689962Y-148658349D01*
X92669750Y-148665581D01*
X92648926Y-148670797D01*
X92627691Y-148673947D01*
X92606250Y-148675000D01*
X92168750Y-148675000D01*
X92147309Y-148673947D01*
X92126074Y-148670797D01*
X92105250Y-148665581D01*
X92085038Y-148658349D01*
X92065632Y-148649170D01*
X92047219Y-148638134D01*
X92029976Y-148625346D01*
X92014070Y-148610930D01*
X91999654Y-148595024D01*
X91986866Y-148577781D01*
X91975830Y-148559368D01*
X91966651Y-148539962D01*
X91959419Y-148519750D01*
X91954203Y-148498926D01*
X91951053Y-148477691D01*
X91950000Y-148456250D01*
X91950000Y-147943750D01*
X91951053Y-147922309D01*
X91954203Y-147901074D01*
X91959419Y-147880250D01*
X91966651Y-147860038D01*
X91975830Y-147840632D01*
X91986866Y-147822219D01*
X91999654Y-147804976D01*
X92014070Y-147789070D01*
X92029976Y-147774654D01*
X92047219Y-147761866D01*
X92065632Y-147750830D01*
X92085038Y-147741651D01*
X92105250Y-147734419D01*
X92126074Y-147729203D01*
X92147309Y-147726053D01*
X92168750Y-147725000D01*
X92606250Y-147725000D01*
X92627691Y-147726053D01*
G37*
G36*
X91052691Y-147726053D02*
G01*
X91073926Y-147729203D01*
X91094750Y-147734419D01*
X91114962Y-147741651D01*
X91134368Y-147750830D01*
X91152781Y-147761866D01*
X91170024Y-147774654D01*
X91185930Y-147789070D01*
X91200346Y-147804976D01*
X91213134Y-147822219D01*
X91224170Y-147840632D01*
X91233349Y-147860038D01*
X91240581Y-147880250D01*
X91245797Y-147901074D01*
X91248947Y-147922309D01*
X91250000Y-147943750D01*
X91250000Y-148456250D01*
X91248947Y-148477691D01*
X91245797Y-148498926D01*
X91240581Y-148519750D01*
X91233349Y-148539962D01*
X91224170Y-148559368D01*
X91213134Y-148577781D01*
X91200346Y-148595024D01*
X91185930Y-148610930D01*
X91170024Y-148625346D01*
X91152781Y-148638134D01*
X91134368Y-148649170D01*
X91114962Y-148658349D01*
X91094750Y-148665581D01*
X91073926Y-148670797D01*
X91052691Y-148673947D01*
X91031250Y-148675000D01*
X90593750Y-148675000D01*
X90572309Y-148673947D01*
X90551074Y-148670797D01*
X90530250Y-148665581D01*
X90510038Y-148658349D01*
X90490632Y-148649170D01*
X90472219Y-148638134D01*
X90454976Y-148625346D01*
X90439070Y-148610930D01*
X90424654Y-148595024D01*
X90411866Y-148577781D01*
X90400830Y-148559368D01*
X90391651Y-148539962D01*
X90384419Y-148519750D01*
X90379203Y-148498926D01*
X90376053Y-148477691D01*
X90375000Y-148456250D01*
X90375000Y-147943750D01*
X90376053Y-147922309D01*
X90379203Y-147901074D01*
X90384419Y-147880250D01*
X90391651Y-147860038D01*
X90400830Y-147840632D01*
X90411866Y-147822219D01*
X90424654Y-147804976D01*
X90439070Y-147789070D01*
X90454976Y-147774654D01*
X90472219Y-147761866D01*
X90490632Y-147750830D01*
X90510038Y-147741651D01*
X90530250Y-147734419D01*
X90551074Y-147729203D01*
X90572309Y-147726053D01*
X90593750Y-147725000D01*
X91031250Y-147725000D01*
X91052691Y-147726053D01*
G37*
G36*
X89027691Y-145426053D02*
G01*
X89048926Y-145429203D01*
X89069750Y-145434419D01*
X89089962Y-145441651D01*
X89109368Y-145450830D01*
X89127781Y-145461866D01*
X89145024Y-145474654D01*
X89160930Y-145489070D01*
X89175346Y-145504976D01*
X89188134Y-145522219D01*
X89199170Y-145540632D01*
X89208349Y-145560038D01*
X89215581Y-145580250D01*
X89220797Y-145601074D01*
X89223947Y-145622309D01*
X89225000Y-145643750D01*
X89225000Y-146156250D01*
X89223947Y-146177691D01*
X89220797Y-146198926D01*
X89215581Y-146219750D01*
X89208349Y-146239962D01*
X89199170Y-146259368D01*
X89188134Y-146277781D01*
X89175346Y-146295024D01*
X89160930Y-146310930D01*
X89145024Y-146325346D01*
X89127781Y-146338134D01*
X89109368Y-146349170D01*
X89089962Y-146358349D01*
X89069750Y-146365581D01*
X89048926Y-146370797D01*
X89027691Y-146373947D01*
X89006250Y-146375000D01*
X88568750Y-146375000D01*
X88547309Y-146373947D01*
X88526074Y-146370797D01*
X88505250Y-146365581D01*
X88485038Y-146358349D01*
X88465632Y-146349170D01*
X88447219Y-146338134D01*
X88429976Y-146325346D01*
X88414070Y-146310930D01*
X88399654Y-146295024D01*
X88386866Y-146277781D01*
X88375830Y-146259368D01*
X88366651Y-146239962D01*
X88359419Y-146219750D01*
X88354203Y-146198926D01*
X88351053Y-146177691D01*
X88350000Y-146156250D01*
X88350000Y-145643750D01*
X88351053Y-145622309D01*
X88354203Y-145601074D01*
X88359419Y-145580250D01*
X88366651Y-145560038D01*
X88375830Y-145540632D01*
X88386866Y-145522219D01*
X88399654Y-145504976D01*
X88414070Y-145489070D01*
X88429976Y-145474654D01*
X88447219Y-145461866D01*
X88465632Y-145450830D01*
X88485038Y-145441651D01*
X88505250Y-145434419D01*
X88526074Y-145429203D01*
X88547309Y-145426053D01*
X88568750Y-145425000D01*
X89006250Y-145425000D01*
X89027691Y-145426053D01*
G37*
G36*
X87452691Y-145426053D02*
G01*
X87473926Y-145429203D01*
X87494750Y-145434419D01*
X87514962Y-145441651D01*
X87534368Y-145450830D01*
X87552781Y-145461866D01*
X87570024Y-145474654D01*
X87585930Y-145489070D01*
X87600346Y-145504976D01*
X87613134Y-145522219D01*
X87624170Y-145540632D01*
X87633349Y-145560038D01*
X87640581Y-145580250D01*
X87645797Y-145601074D01*
X87648947Y-145622309D01*
X87650000Y-145643750D01*
X87650000Y-146156250D01*
X87648947Y-146177691D01*
X87645797Y-146198926D01*
X87640581Y-146219750D01*
X87633349Y-146239962D01*
X87624170Y-146259368D01*
X87613134Y-146277781D01*
X87600346Y-146295024D01*
X87585930Y-146310930D01*
X87570024Y-146325346D01*
X87552781Y-146338134D01*
X87534368Y-146349170D01*
X87514962Y-146358349D01*
X87494750Y-146365581D01*
X87473926Y-146370797D01*
X87452691Y-146373947D01*
X87431250Y-146375000D01*
X86993750Y-146375000D01*
X86972309Y-146373947D01*
X86951074Y-146370797D01*
X86930250Y-146365581D01*
X86910038Y-146358349D01*
X86890632Y-146349170D01*
X86872219Y-146338134D01*
X86854976Y-146325346D01*
X86839070Y-146310930D01*
X86824654Y-146295024D01*
X86811866Y-146277781D01*
X86800830Y-146259368D01*
X86791651Y-146239962D01*
X86784419Y-146219750D01*
X86779203Y-146198926D01*
X86776053Y-146177691D01*
X86775000Y-146156250D01*
X86775000Y-145643750D01*
X86776053Y-145622309D01*
X86779203Y-145601074D01*
X86784419Y-145580250D01*
X86791651Y-145560038D01*
X86800830Y-145540632D01*
X86811866Y-145522219D01*
X86824654Y-145504976D01*
X86839070Y-145489070D01*
X86854976Y-145474654D01*
X86872219Y-145461866D01*
X86890632Y-145450830D01*
X86910038Y-145441651D01*
X86930250Y-145434419D01*
X86951074Y-145429203D01*
X86972309Y-145426053D01*
X86993750Y-145425000D01*
X87431250Y-145425000D01*
X87452691Y-145426053D01*
G37*
G36*
X87452691Y-143026053D02*
G01*
X87473926Y-143029203D01*
X87494750Y-143034419D01*
X87514962Y-143041651D01*
X87534368Y-143050830D01*
X87552781Y-143061866D01*
X87570024Y-143074654D01*
X87585930Y-143089070D01*
X87600346Y-143104976D01*
X87613134Y-143122219D01*
X87624170Y-143140632D01*
X87633349Y-143160038D01*
X87640581Y-143180250D01*
X87645797Y-143201074D01*
X87648947Y-143222309D01*
X87650000Y-143243750D01*
X87650000Y-143756250D01*
X87648947Y-143777691D01*
X87645797Y-143798926D01*
X87640581Y-143819750D01*
X87633349Y-143839962D01*
X87624170Y-143859368D01*
X87613134Y-143877781D01*
X87600346Y-143895024D01*
X87585930Y-143910930D01*
X87570024Y-143925346D01*
X87552781Y-143938134D01*
X87534368Y-143949170D01*
X87514962Y-143958349D01*
X87494750Y-143965581D01*
X87473926Y-143970797D01*
X87452691Y-143973947D01*
X87431250Y-143975000D01*
X86993750Y-143975000D01*
X86972309Y-143973947D01*
X86951074Y-143970797D01*
X86930250Y-143965581D01*
X86910038Y-143958349D01*
X86890632Y-143949170D01*
X86872219Y-143938134D01*
X86854976Y-143925346D01*
X86839070Y-143910930D01*
X86824654Y-143895024D01*
X86811866Y-143877781D01*
X86800830Y-143859368D01*
X86791651Y-143839962D01*
X86784419Y-143819750D01*
X86779203Y-143798926D01*
X86776053Y-143777691D01*
X86775000Y-143756250D01*
X86775000Y-143243750D01*
X86776053Y-143222309D01*
X86779203Y-143201074D01*
X86784419Y-143180250D01*
X86791651Y-143160038D01*
X86800830Y-143140632D01*
X86811866Y-143122219D01*
X86824654Y-143104976D01*
X86839070Y-143089070D01*
X86854976Y-143074654D01*
X86872219Y-143061866D01*
X86890632Y-143050830D01*
X86910038Y-143041651D01*
X86930250Y-143034419D01*
X86951074Y-143029203D01*
X86972309Y-143026053D01*
X86993750Y-143025000D01*
X87431250Y-143025000D01*
X87452691Y-143026053D01*
G37*
G36*
X89027691Y-143026053D02*
G01*
X89048926Y-143029203D01*
X89069750Y-143034419D01*
X89089962Y-143041651D01*
X89109368Y-143050830D01*
X89127781Y-143061866D01*
X89145024Y-143074654D01*
X89160930Y-143089070D01*
X89175346Y-143104976D01*
X89188134Y-143122219D01*
X89199170Y-143140632D01*
X89208349Y-143160038D01*
X89215581Y-143180250D01*
X89220797Y-143201074D01*
X89223947Y-143222309D01*
X89225000Y-143243750D01*
X89225000Y-143756250D01*
X89223947Y-143777691D01*
X89220797Y-143798926D01*
X89215581Y-143819750D01*
X89208349Y-143839962D01*
X89199170Y-143859368D01*
X89188134Y-143877781D01*
X89175346Y-143895024D01*
X89160930Y-143910930D01*
X89145024Y-143925346D01*
X89127781Y-143938134D01*
X89109368Y-143949170D01*
X89089962Y-143958349D01*
X89069750Y-143965581D01*
X89048926Y-143970797D01*
X89027691Y-143973947D01*
X89006250Y-143975000D01*
X88568750Y-143975000D01*
X88547309Y-143973947D01*
X88526074Y-143970797D01*
X88505250Y-143965581D01*
X88485038Y-143958349D01*
X88465632Y-143949170D01*
X88447219Y-143938134D01*
X88429976Y-143925346D01*
X88414070Y-143910930D01*
X88399654Y-143895024D01*
X88386866Y-143877781D01*
X88375830Y-143859368D01*
X88366651Y-143839962D01*
X88359419Y-143819750D01*
X88354203Y-143798926D01*
X88351053Y-143777691D01*
X88350000Y-143756250D01*
X88350000Y-143243750D01*
X88351053Y-143222309D01*
X88354203Y-143201074D01*
X88359419Y-143180250D01*
X88366651Y-143160038D01*
X88375830Y-143140632D01*
X88386866Y-143122219D01*
X88399654Y-143104976D01*
X88414070Y-143089070D01*
X88429976Y-143074654D01*
X88447219Y-143061866D01*
X88465632Y-143050830D01*
X88485038Y-143041651D01*
X88505250Y-143034419D01*
X88526074Y-143029203D01*
X88547309Y-143026053D01*
X88568750Y-143025000D01*
X89006250Y-143025000D01*
X89027691Y-143026053D01*
G37*
D13*
X103612200Y-148187400D03*
X103612200Y-145687400D03*
X103612200Y-143187400D03*
X103612200Y-140687400D03*
X103612200Y-135287400D03*
X103612200Y-132787400D03*
X103612200Y-130287400D03*
D14*
X104612200Y-127787400D03*
M02*
