G04 #@! TF.GenerationSoftware,KiCad,Pcbnew,(5.1.5)-3*
G04 #@! TF.CreationDate,2020-11-09T20:42:25-05:00*
G04 #@! TF.ProjectId,FilterDaughterboard,46696c74-6572-4446-9175-676874657262,rev?*
G04 #@! TF.SameCoordinates,Original*
G04 #@! TF.FileFunction,Legend,Top*
G04 #@! TF.FilePolarity,Positive*
%FSLAX46Y46*%
G04 Gerber Fmt 4.6, Leading zero omitted, Abs format (unit mm)*
G04 Created by KiCad (PCBNEW (5.1.5)-3) date 2020-11-09 20:42:25*
%MOMM*%
%LPD*%
G04 APERTURE LIST*
%ADD10C,0.100000*%
%ADD11C,0.120000*%
%ADD12C,0.254000*%
%ADD13C,0.150000*%
G04 APERTURE END LIST*
D10*
X97793571Y-136721428D02*
X97543571Y-136721428D01*
X97543571Y-137114285D02*
X97543571Y-136364285D01*
X97900714Y-136364285D01*
X98186428Y-137114285D02*
X98186428Y-136614285D01*
X98186428Y-136364285D02*
X98150714Y-136400000D01*
X98186428Y-136435714D01*
X98222142Y-136400000D01*
X98186428Y-136364285D01*
X98186428Y-136435714D01*
X98650714Y-137114285D02*
X98579285Y-137078571D01*
X98543571Y-137007142D01*
X98543571Y-136364285D01*
X98829285Y-136614285D02*
X99115000Y-136614285D01*
X98936428Y-136364285D02*
X98936428Y-137007142D01*
X98972142Y-137078571D01*
X99043571Y-137114285D01*
X99115000Y-137114285D01*
X99650714Y-137078571D02*
X99579285Y-137114285D01*
X99436428Y-137114285D01*
X99365000Y-137078571D01*
X99329285Y-137007142D01*
X99329285Y-136721428D01*
X99365000Y-136650000D01*
X99436428Y-136614285D01*
X99579285Y-136614285D01*
X99650714Y-136650000D01*
X99686428Y-136721428D01*
X99686428Y-136792857D01*
X99329285Y-136864285D01*
X100007857Y-137114285D02*
X100007857Y-136614285D01*
X100007857Y-136757142D02*
X100043571Y-136685714D01*
X100079285Y-136650000D01*
X100150714Y-136614285D01*
X100222142Y-136614285D01*
X100472142Y-137114285D02*
X100472142Y-136364285D01*
X100650714Y-136364285D01*
X100757857Y-136400000D01*
X100829285Y-136471428D01*
X100865000Y-136542857D01*
X100900714Y-136685714D01*
X100900714Y-136792857D01*
X100865000Y-136935714D01*
X100829285Y-137007142D01*
X100757857Y-137078571D01*
X100650714Y-137114285D01*
X100472142Y-137114285D01*
X101543571Y-137114285D02*
X101543571Y-136721428D01*
X101507857Y-136650000D01*
X101436428Y-136614285D01*
X101293571Y-136614285D01*
X101222142Y-136650000D01*
X101543571Y-137078571D02*
X101472142Y-137114285D01*
X101293571Y-137114285D01*
X101222142Y-137078571D01*
X101186428Y-137007142D01*
X101186428Y-136935714D01*
X101222142Y-136864285D01*
X101293571Y-136828571D01*
X101472142Y-136828571D01*
X101543571Y-136792857D01*
X102222142Y-136614285D02*
X102222142Y-137114285D01*
X101900714Y-136614285D02*
X101900714Y-137007142D01*
X101936428Y-137078571D01*
X102007857Y-137114285D01*
X102115000Y-137114285D01*
X102186428Y-137078571D01*
X102222142Y-137042857D01*
X102900714Y-136614285D02*
X102900714Y-137221428D01*
X102865000Y-137292857D01*
X102829285Y-137328571D01*
X102757857Y-137364285D01*
X102650714Y-137364285D01*
X102579285Y-137328571D01*
X102900714Y-137078571D02*
X102829285Y-137114285D01*
X102686428Y-137114285D01*
X102615000Y-137078571D01*
X102579285Y-137042857D01*
X102543571Y-136971428D01*
X102543571Y-136757142D01*
X102579285Y-136685714D01*
X102615000Y-136650000D01*
X102686428Y-136614285D01*
X102829285Y-136614285D01*
X102900714Y-136650000D01*
X103257857Y-137114285D02*
X103257857Y-136364285D01*
X103579285Y-137114285D02*
X103579285Y-136721428D01*
X103543571Y-136650000D01*
X103472142Y-136614285D01*
X103365000Y-136614285D01*
X103293571Y-136650000D01*
X103257857Y-136685714D01*
X103829285Y-136614285D02*
X104115000Y-136614285D01*
X103936428Y-136364285D02*
X103936428Y-137007142D01*
X103972142Y-137078571D01*
X104043571Y-137114285D01*
X104115000Y-137114285D01*
X104650714Y-137078571D02*
X104579285Y-137114285D01*
X104436428Y-137114285D01*
X104365000Y-137078571D01*
X104329285Y-137007142D01*
X104329285Y-136721428D01*
X104365000Y-136650000D01*
X104436428Y-136614285D01*
X104579285Y-136614285D01*
X104650714Y-136650000D01*
X104686428Y-136721428D01*
X104686428Y-136792857D01*
X104329285Y-136864285D01*
X105007857Y-137114285D02*
X105007857Y-136614285D01*
X105007857Y-136757142D02*
X105043571Y-136685714D01*
X105079285Y-136650000D01*
X105150714Y-136614285D01*
X105222142Y-136614285D01*
X105936428Y-136364285D02*
X106186428Y-137114285D01*
X106436428Y-136364285D01*
X106650714Y-136435714D02*
X106686428Y-136400000D01*
X106757857Y-136364285D01*
X106936428Y-136364285D01*
X107007857Y-136400000D01*
X107043571Y-136435714D01*
X107079285Y-136507142D01*
X107079285Y-136578571D01*
X107043571Y-136685714D01*
X106615000Y-137114285D01*
X107079285Y-137114285D01*
X107400714Y-137042857D02*
X107436428Y-137078571D01*
X107400714Y-137114285D01*
X107365000Y-137078571D01*
X107400714Y-137042857D01*
X107400714Y-137114285D01*
X107900714Y-136364285D02*
X107972142Y-136364285D01*
X108043571Y-136400000D01*
X108079285Y-136435714D01*
X108115000Y-136507142D01*
X108150714Y-136650000D01*
X108150714Y-136828571D01*
X108115000Y-136971428D01*
X108079285Y-137042857D01*
X108043571Y-137078571D01*
X107972142Y-137114285D01*
X107900714Y-137114285D01*
X107829285Y-137078571D01*
X107793571Y-137042857D01*
X107757857Y-136971428D01*
X107722142Y-136828571D01*
X107722142Y-136650000D01*
X107757857Y-136507142D01*
X107793571Y-136435714D01*
X107829285Y-136400000D01*
X107900714Y-136364285D01*
X97757857Y-137589285D02*
X97757857Y-138125000D01*
X97722142Y-138232142D01*
X97650714Y-138303571D01*
X97543571Y-138339285D01*
X97472142Y-138339285D01*
X98115000Y-138267857D02*
X98150714Y-138303571D01*
X98115000Y-138339285D01*
X98079285Y-138303571D01*
X98115000Y-138267857D01*
X98115000Y-138339285D01*
X99007857Y-138303571D02*
X99115000Y-138339285D01*
X99293571Y-138339285D01*
X99365000Y-138303571D01*
X99400714Y-138267857D01*
X99436428Y-138196428D01*
X99436428Y-138125000D01*
X99400714Y-138053571D01*
X99365000Y-138017857D01*
X99293571Y-137982142D01*
X99150714Y-137946428D01*
X99079285Y-137910714D01*
X99043571Y-137875000D01*
X99007857Y-137803571D01*
X99007857Y-137732142D01*
X99043571Y-137660714D01*
X99079285Y-137625000D01*
X99150714Y-137589285D01*
X99329285Y-137589285D01*
X99436428Y-137625000D01*
X99650714Y-137839285D02*
X99936428Y-137839285D01*
X99757857Y-137589285D02*
X99757857Y-138232142D01*
X99793571Y-138303571D01*
X99865000Y-138339285D01*
X99936428Y-138339285D01*
X100507857Y-137839285D02*
X100507857Y-138339285D01*
X100186428Y-137839285D02*
X100186428Y-138232142D01*
X100222142Y-138303571D01*
X100293571Y-138339285D01*
X100400714Y-138339285D01*
X100472142Y-138303571D01*
X100507857Y-138267857D01*
X101186428Y-138339285D02*
X101186428Y-137946428D01*
X101150714Y-137875000D01*
X101079285Y-137839285D01*
X100936428Y-137839285D01*
X100865000Y-137875000D01*
X101186428Y-138303571D02*
X101115000Y-138339285D01*
X100936428Y-138339285D01*
X100865000Y-138303571D01*
X100829285Y-138232142D01*
X100829285Y-138160714D01*
X100865000Y-138089285D01*
X100936428Y-138053571D01*
X101115000Y-138053571D01*
X101186428Y-138017857D01*
X101543571Y-138339285D02*
X101543571Y-137839285D01*
X101543571Y-137982142D02*
X101579285Y-137910714D01*
X101615000Y-137875000D01*
X101686428Y-137839285D01*
X101757857Y-137839285D01*
X101900714Y-137839285D02*
X102186428Y-137839285D01*
X102007857Y-137589285D02*
X102007857Y-138232142D01*
X102043571Y-138303571D01*
X102115000Y-138339285D01*
X102186428Y-138339285D01*
X97936428Y-139564285D02*
X97507857Y-139564285D01*
X97722142Y-139564285D02*
X97722142Y-138814285D01*
X97650714Y-138921428D01*
X97579285Y-138992857D01*
X97507857Y-139028571D01*
X98650714Y-139564285D02*
X98222142Y-139564285D01*
X98436428Y-139564285D02*
X98436428Y-138814285D01*
X98365000Y-138921428D01*
X98293571Y-138992857D01*
X98222142Y-139028571D01*
X99507857Y-138778571D02*
X98865000Y-139742857D01*
X99900714Y-138814285D02*
X99972142Y-138814285D01*
X100043571Y-138850000D01*
X100079285Y-138885714D01*
X100115000Y-138957142D01*
X100150714Y-139100000D01*
X100150714Y-139278571D01*
X100115000Y-139421428D01*
X100079285Y-139492857D01*
X100043571Y-139528571D01*
X99972142Y-139564285D01*
X99900714Y-139564285D01*
X99829285Y-139528571D01*
X99793571Y-139492857D01*
X99757857Y-139421428D01*
X99722142Y-139278571D01*
X99722142Y-139100000D01*
X99757857Y-138957142D01*
X99793571Y-138885714D01*
X99829285Y-138850000D01*
X99900714Y-138814285D01*
X100507857Y-139564285D02*
X100650714Y-139564285D01*
X100722142Y-139528571D01*
X100757857Y-139492857D01*
X100829285Y-139385714D01*
X100865000Y-139242857D01*
X100865000Y-138957142D01*
X100829285Y-138885714D01*
X100793571Y-138850000D01*
X100722142Y-138814285D01*
X100579285Y-138814285D01*
X100507857Y-138850000D01*
X100472142Y-138885714D01*
X100436428Y-138957142D01*
X100436428Y-139135714D01*
X100472142Y-139207142D01*
X100507857Y-139242857D01*
X100579285Y-139278571D01*
X100722142Y-139278571D01*
X100793571Y-139242857D01*
X100829285Y-139207142D01*
X100865000Y-139135714D01*
X101722142Y-138778571D02*
X101079285Y-139742857D01*
X101936428Y-138885714D02*
X101972142Y-138850000D01*
X102043571Y-138814285D01*
X102222142Y-138814285D01*
X102293571Y-138850000D01*
X102329285Y-138885714D01*
X102365000Y-138957142D01*
X102365000Y-139028571D01*
X102329285Y-139135714D01*
X101900714Y-139564285D01*
X102365000Y-139564285D01*
X102829285Y-138814285D02*
X102900714Y-138814285D01*
X102972142Y-138850000D01*
X103007857Y-138885714D01*
X103043571Y-138957142D01*
X103079285Y-139100000D01*
X103079285Y-139278571D01*
X103043571Y-139421428D01*
X103007857Y-139492857D01*
X102972142Y-139528571D01*
X102900714Y-139564285D01*
X102829285Y-139564285D01*
X102757857Y-139528571D01*
X102722142Y-139492857D01*
X102686428Y-139421428D01*
X102650714Y-139278571D01*
X102650714Y-139100000D01*
X102686428Y-138957142D01*
X102722142Y-138885714D01*
X102757857Y-138850000D01*
X102829285Y-138814285D01*
X89300000Y-133100000D02*
G75*
G03X89300000Y-133000000I0J50000D01*
G01*
X89300000Y-133000000D02*
G75*
G03X89300000Y-133100000I0J-50000D01*
G01*
X89300000Y-133000000D02*
X89300000Y-133000000D01*
X89300000Y-133100000D02*
X89300000Y-133100000D01*
X88000000Y-136050000D02*
X88000000Y-136252000D01*
X88000000Y-134357000D02*
X88000000Y-134050000D01*
X90600000Y-134300000D02*
X90600000Y-136252000D01*
X89300000Y-146100000D02*
G75*
G03X89300000Y-146000000I0J50000D01*
G01*
X89300000Y-146000000D02*
G75*
G03X89300000Y-146100000I0J-50000D01*
G01*
X89300000Y-146000000D02*
X89300000Y-146000000D01*
X89300000Y-146100000D02*
X89300000Y-146100000D01*
X88000000Y-149050000D02*
X88000000Y-149252000D01*
X88000000Y-147357000D02*
X88000000Y-147050000D01*
X90600000Y-147300000D02*
X90600000Y-149252000D01*
D11*
X86110000Y-133062779D02*
X86110000Y-132737221D01*
X85090000Y-133062779D02*
X85090000Y-132737221D01*
X94510000Y-125962779D02*
X94510000Y-125637221D01*
X93490000Y-125962779D02*
X93490000Y-125637221D01*
X86237221Y-127710000D02*
X86562779Y-127710000D01*
X86237221Y-126690000D02*
X86562779Y-126690000D01*
X86110000Y-146062779D02*
X86110000Y-145737221D01*
X85090000Y-146062779D02*
X85090000Y-145737221D01*
X94510000Y-138962779D02*
X94510000Y-138637221D01*
X93490000Y-138962779D02*
X93490000Y-138637221D01*
X86237221Y-140710000D02*
X86562779Y-140710000D01*
X86237221Y-139690000D02*
X86562779Y-139690000D01*
X91861252Y-127790000D02*
X91338748Y-127790000D01*
X91861252Y-130010000D02*
X91338748Y-130010000D01*
X85090000Y-129537221D02*
X85090000Y-129862779D01*
X86110000Y-129537221D02*
X86110000Y-129862779D01*
X91861252Y-140790000D02*
X91338748Y-140790000D01*
X91861252Y-143010000D02*
X91338748Y-143010000D01*
X85090000Y-142537221D02*
X85090000Y-142862779D01*
X86110000Y-142537221D02*
X86110000Y-142862779D01*
X91437221Y-127110000D02*
X91762779Y-127110000D01*
X91437221Y-126090000D02*
X91762779Y-126090000D01*
X87837221Y-129410000D02*
X88162779Y-129410000D01*
X87837221Y-128390000D02*
X88162779Y-128390000D01*
X88162779Y-130790000D02*
X87837221Y-130790000D01*
X88162779Y-131810000D02*
X87837221Y-131810000D01*
X91437221Y-140110000D02*
X91762779Y-140110000D01*
X91437221Y-139090000D02*
X91762779Y-139090000D01*
X87837221Y-142410000D02*
X88162779Y-142410000D01*
X87837221Y-141390000D02*
X88162779Y-141390000D01*
X88162779Y-143790000D02*
X87837221Y-143790000D01*
X88162779Y-144810000D02*
X87837221Y-144810000D01*
D12*
X91054523Y-135673333D02*
X91961666Y-135673333D01*
X92143095Y-135733809D01*
X92264047Y-135854761D01*
X92324523Y-136036190D01*
X92324523Y-136157142D01*
X92324523Y-134403333D02*
X92324523Y-135129047D01*
X92324523Y-134766190D02*
X91054523Y-134766190D01*
X91235952Y-134887142D01*
X91356904Y-135008095D01*
X91417380Y-135129047D01*
X91054523Y-148673333D02*
X91961666Y-148673333D01*
X92143095Y-148733809D01*
X92264047Y-148854761D01*
X92324523Y-149036190D01*
X92324523Y-149157142D01*
X91054523Y-148189523D02*
X91054523Y-147403333D01*
X91538333Y-147826666D01*
X91538333Y-147645238D01*
X91598809Y-147524285D01*
X91659285Y-147463809D01*
X91780238Y-147403333D01*
X92082619Y-147403333D01*
X92203571Y-147463809D01*
X92264047Y-147524285D01*
X92324523Y-147645238D01*
X92324523Y-148008095D01*
X92264047Y-148129047D01*
X92203571Y-148189523D01*
D13*
X85857142Y-135416666D02*
X85904761Y-135464285D01*
X85952380Y-135607142D01*
X85952380Y-135702380D01*
X85904761Y-135845238D01*
X85809523Y-135940476D01*
X85714285Y-135988095D01*
X85523809Y-136035714D01*
X85380952Y-136035714D01*
X85190476Y-135988095D01*
X85095238Y-135940476D01*
X85000000Y-135845238D01*
X84952380Y-135702380D01*
X84952380Y-135607142D01*
X85000000Y-135464285D01*
X85047619Y-135416666D01*
X85952380Y-134464285D02*
X85952380Y-135035714D01*
X85952380Y-134750000D02*
X84952380Y-134750000D01*
X85095238Y-134845238D01*
X85190476Y-134940476D01*
X85238095Y-135035714D01*
X95857142Y-125916666D02*
X95904761Y-125964285D01*
X95952380Y-126107142D01*
X95952380Y-126202380D01*
X95904761Y-126345238D01*
X95809523Y-126440476D01*
X95714285Y-126488095D01*
X95523809Y-126535714D01*
X95380952Y-126535714D01*
X95190476Y-126488095D01*
X95095238Y-126440476D01*
X95000000Y-126345238D01*
X94952380Y-126202380D01*
X94952380Y-126107142D01*
X95000000Y-125964285D01*
X95047619Y-125916666D01*
X95047619Y-125535714D02*
X95000000Y-125488095D01*
X94952380Y-125392857D01*
X94952380Y-125154761D01*
X95000000Y-125059523D01*
X95047619Y-125011904D01*
X95142857Y-124964285D01*
X95238095Y-124964285D01*
X95380952Y-125011904D01*
X95952380Y-125583333D01*
X95952380Y-124964285D01*
X85583333Y-126107142D02*
X85535714Y-126154761D01*
X85392857Y-126202380D01*
X85297619Y-126202380D01*
X85154761Y-126154761D01*
X85059523Y-126059523D01*
X85011904Y-125964285D01*
X84964285Y-125773809D01*
X84964285Y-125630952D01*
X85011904Y-125440476D01*
X85059523Y-125345238D01*
X85154761Y-125250000D01*
X85297619Y-125202380D01*
X85392857Y-125202380D01*
X85535714Y-125250000D01*
X85583333Y-125297619D01*
X85916666Y-125202380D02*
X86535714Y-125202380D01*
X86202380Y-125583333D01*
X86345238Y-125583333D01*
X86440476Y-125630952D01*
X86488095Y-125678571D01*
X86535714Y-125773809D01*
X86535714Y-126011904D01*
X86488095Y-126107142D01*
X86440476Y-126154761D01*
X86345238Y-126202380D01*
X86059523Y-126202380D01*
X85964285Y-126154761D01*
X85916666Y-126107142D01*
X84527142Y-146066666D02*
X84574761Y-146114285D01*
X84622380Y-146257142D01*
X84622380Y-146352380D01*
X84574761Y-146495238D01*
X84479523Y-146590476D01*
X84384285Y-146638095D01*
X84193809Y-146685714D01*
X84050952Y-146685714D01*
X83860476Y-146638095D01*
X83765238Y-146590476D01*
X83670000Y-146495238D01*
X83622380Y-146352380D01*
X83622380Y-146257142D01*
X83670000Y-146114285D01*
X83717619Y-146066666D01*
X83622380Y-145733333D02*
X83622380Y-145066666D01*
X84622380Y-145495238D01*
X95857142Y-138966666D02*
X95904761Y-139014285D01*
X95952380Y-139157142D01*
X95952380Y-139252380D01*
X95904761Y-139395238D01*
X95809523Y-139490476D01*
X95714285Y-139538095D01*
X95523809Y-139585714D01*
X95380952Y-139585714D01*
X95190476Y-139538095D01*
X95095238Y-139490476D01*
X95000000Y-139395238D01*
X94952380Y-139252380D01*
X94952380Y-139157142D01*
X95000000Y-139014285D01*
X95047619Y-138966666D01*
X95380952Y-138395238D02*
X95333333Y-138490476D01*
X95285714Y-138538095D01*
X95190476Y-138585714D01*
X95142857Y-138585714D01*
X95047619Y-138538095D01*
X95000000Y-138490476D01*
X94952380Y-138395238D01*
X94952380Y-138204761D01*
X95000000Y-138109523D01*
X95047619Y-138061904D01*
X95142857Y-138014285D01*
X95190476Y-138014285D01*
X95285714Y-138061904D01*
X95333333Y-138109523D01*
X95380952Y-138204761D01*
X95380952Y-138395238D01*
X95428571Y-138490476D01*
X95476190Y-138538095D01*
X95571428Y-138585714D01*
X95761904Y-138585714D01*
X95857142Y-138538095D01*
X95904761Y-138490476D01*
X95952380Y-138395238D01*
X95952380Y-138204761D01*
X95904761Y-138109523D01*
X95857142Y-138061904D01*
X95761904Y-138014285D01*
X95571428Y-138014285D01*
X95476190Y-138061904D01*
X95428571Y-138109523D01*
X95380952Y-138204761D01*
X86233333Y-139127142D02*
X86185714Y-139174761D01*
X86042857Y-139222380D01*
X85947619Y-139222380D01*
X85804761Y-139174761D01*
X85709523Y-139079523D01*
X85661904Y-138984285D01*
X85614285Y-138793809D01*
X85614285Y-138650952D01*
X85661904Y-138460476D01*
X85709523Y-138365238D01*
X85804761Y-138270000D01*
X85947619Y-138222380D01*
X86042857Y-138222380D01*
X86185714Y-138270000D01*
X86233333Y-138317619D01*
X86709523Y-139222380D02*
X86900000Y-139222380D01*
X86995238Y-139174761D01*
X87042857Y-139127142D01*
X87138095Y-138984285D01*
X87185714Y-138793809D01*
X87185714Y-138412857D01*
X87138095Y-138317619D01*
X87090476Y-138270000D01*
X86995238Y-138222380D01*
X86804761Y-138222380D01*
X86709523Y-138270000D01*
X86661904Y-138317619D01*
X86614285Y-138412857D01*
X86614285Y-138650952D01*
X86661904Y-138746190D01*
X86709523Y-138793809D01*
X86804761Y-138841428D01*
X86995238Y-138841428D01*
X87090476Y-138793809D01*
X87138095Y-138746190D01*
X87185714Y-138650952D01*
X91433333Y-131402380D02*
X90957142Y-131402380D01*
X90957142Y-130402380D01*
X92290476Y-131402380D02*
X91719047Y-131402380D01*
X92004761Y-131402380D02*
X92004761Y-130402380D01*
X91909523Y-130545238D01*
X91814285Y-130640476D01*
X91719047Y-130688095D01*
X84702380Y-129866666D02*
X84702380Y-130342857D01*
X83702380Y-130342857D01*
X83797619Y-129580952D02*
X83750000Y-129533333D01*
X83702380Y-129438095D01*
X83702380Y-129200000D01*
X83750000Y-129104761D01*
X83797619Y-129057142D01*
X83892857Y-129009523D01*
X83988095Y-129009523D01*
X84130952Y-129057142D01*
X84702380Y-129628571D01*
X84702380Y-129009523D01*
X91433333Y-144402380D02*
X90957142Y-144402380D01*
X90957142Y-143402380D01*
X92242857Y-143402380D02*
X91766666Y-143402380D01*
X91719047Y-143878571D01*
X91766666Y-143830952D01*
X91861904Y-143783333D01*
X92100000Y-143783333D01*
X92195238Y-143830952D01*
X92242857Y-143878571D01*
X92290476Y-143973809D01*
X92290476Y-144211904D01*
X92242857Y-144307142D01*
X92195238Y-144354761D01*
X92100000Y-144402380D01*
X91861904Y-144402380D01*
X91766666Y-144354761D01*
X91719047Y-144307142D01*
X84702380Y-142916666D02*
X84702380Y-143392857D01*
X83702380Y-143392857D01*
X83702380Y-142154761D02*
X83702380Y-142345238D01*
X83750000Y-142440476D01*
X83797619Y-142488095D01*
X83940476Y-142583333D01*
X84130952Y-142630952D01*
X84511904Y-142630952D01*
X84607142Y-142583333D01*
X84654761Y-142535714D01*
X84702380Y-142440476D01*
X84702380Y-142250000D01*
X84654761Y-142154761D01*
X84607142Y-142107142D01*
X84511904Y-142059523D01*
X84273809Y-142059523D01*
X84178571Y-142107142D01*
X84130952Y-142154761D01*
X84083333Y-142250000D01*
X84083333Y-142440476D01*
X84130952Y-142535714D01*
X84178571Y-142583333D01*
X84273809Y-142630952D01*
X90833333Y-125702380D02*
X90500000Y-125226190D01*
X90261904Y-125702380D02*
X90261904Y-124702380D01*
X90642857Y-124702380D01*
X90738095Y-124750000D01*
X90785714Y-124797619D01*
X90833333Y-124892857D01*
X90833333Y-125035714D01*
X90785714Y-125130952D01*
X90738095Y-125178571D01*
X90642857Y-125226190D01*
X90261904Y-125226190D01*
X91785714Y-125702380D02*
X91214285Y-125702380D01*
X91500000Y-125702380D02*
X91500000Y-124702380D01*
X91404761Y-124845238D01*
X91309523Y-124940476D01*
X91214285Y-124988095D01*
X88583333Y-127952380D02*
X88250000Y-127476190D01*
X88011904Y-127952380D02*
X88011904Y-126952380D01*
X88392857Y-126952380D01*
X88488095Y-127000000D01*
X88535714Y-127047619D01*
X88583333Y-127142857D01*
X88583333Y-127285714D01*
X88535714Y-127380952D01*
X88488095Y-127428571D01*
X88392857Y-127476190D01*
X88011904Y-127476190D01*
X88964285Y-127047619D02*
X89011904Y-127000000D01*
X89107142Y-126952380D01*
X89345238Y-126952380D01*
X89440476Y-127000000D01*
X89488095Y-127047619D01*
X89535714Y-127142857D01*
X89535714Y-127238095D01*
X89488095Y-127380952D01*
X88916666Y-127952380D01*
X89535714Y-127952380D01*
X87083333Y-133182380D02*
X86750000Y-132706190D01*
X86511904Y-133182380D02*
X86511904Y-132182380D01*
X86892857Y-132182380D01*
X86988095Y-132230000D01*
X87035714Y-132277619D01*
X87083333Y-132372857D01*
X87083333Y-132515714D01*
X87035714Y-132610952D01*
X86988095Y-132658571D01*
X86892857Y-132706190D01*
X86511904Y-132706190D01*
X87416666Y-132182380D02*
X88035714Y-132182380D01*
X87702380Y-132563333D01*
X87845238Y-132563333D01*
X87940476Y-132610952D01*
X87988095Y-132658571D01*
X88035714Y-132753809D01*
X88035714Y-132991904D01*
X87988095Y-133087142D01*
X87940476Y-133134761D01*
X87845238Y-133182380D01*
X87559523Y-133182380D01*
X87464285Y-133134761D01*
X87416666Y-133087142D01*
X90833333Y-138702380D02*
X90500000Y-138226190D01*
X90261904Y-138702380D02*
X90261904Y-137702380D01*
X90642857Y-137702380D01*
X90738095Y-137750000D01*
X90785714Y-137797619D01*
X90833333Y-137892857D01*
X90833333Y-138035714D01*
X90785714Y-138130952D01*
X90738095Y-138178571D01*
X90642857Y-138226190D01*
X90261904Y-138226190D01*
X91166666Y-137702380D02*
X91833333Y-137702380D01*
X91404761Y-138702380D01*
X88583333Y-140952380D02*
X88250000Y-140476190D01*
X88011904Y-140952380D02*
X88011904Y-139952380D01*
X88392857Y-139952380D01*
X88488095Y-140000000D01*
X88535714Y-140047619D01*
X88583333Y-140142857D01*
X88583333Y-140285714D01*
X88535714Y-140380952D01*
X88488095Y-140428571D01*
X88392857Y-140476190D01*
X88011904Y-140476190D01*
X89154761Y-140380952D02*
X89059523Y-140333333D01*
X89011904Y-140285714D01*
X88964285Y-140190476D01*
X88964285Y-140142857D01*
X89011904Y-140047619D01*
X89059523Y-140000000D01*
X89154761Y-139952380D01*
X89345238Y-139952380D01*
X89440476Y-140000000D01*
X89488095Y-140047619D01*
X89535714Y-140142857D01*
X89535714Y-140190476D01*
X89488095Y-140285714D01*
X89440476Y-140333333D01*
X89345238Y-140380952D01*
X89154761Y-140380952D01*
X89059523Y-140428571D01*
X89011904Y-140476190D01*
X88964285Y-140571428D01*
X88964285Y-140761904D01*
X89011904Y-140857142D01*
X89059523Y-140904761D01*
X89154761Y-140952380D01*
X89345238Y-140952380D01*
X89440476Y-140904761D01*
X89488095Y-140857142D01*
X89535714Y-140761904D01*
X89535714Y-140571428D01*
X89488095Y-140476190D01*
X89440476Y-140428571D01*
X89345238Y-140380952D01*
X87083333Y-146182380D02*
X86750000Y-145706190D01*
X86511904Y-146182380D02*
X86511904Y-145182380D01*
X86892857Y-145182380D01*
X86988095Y-145230000D01*
X87035714Y-145277619D01*
X87083333Y-145372857D01*
X87083333Y-145515714D01*
X87035714Y-145610952D01*
X86988095Y-145658571D01*
X86892857Y-145706190D01*
X86511904Y-145706190D01*
X87559523Y-146182380D02*
X87750000Y-146182380D01*
X87845238Y-146134761D01*
X87892857Y-146087142D01*
X87988095Y-145944285D01*
X88035714Y-145753809D01*
X88035714Y-145372857D01*
X87988095Y-145277619D01*
X87940476Y-145230000D01*
X87845238Y-145182380D01*
X87654761Y-145182380D01*
X87559523Y-145230000D01*
X87511904Y-145277619D01*
X87464285Y-145372857D01*
X87464285Y-145610952D01*
X87511904Y-145706190D01*
X87559523Y-145753809D01*
X87654761Y-145801428D01*
X87845238Y-145801428D01*
X87940476Y-145753809D01*
X87988095Y-145706190D01*
X88035714Y-145610952D01*
M02*
