G04 #@! TF.GenerationSoftware,KiCad,Pcbnew,(5.1.5)-3*
G04 #@! TF.CreationDate,2020-11-09T20:42:25-05:00*
G04 #@! TF.ProjectId,FilterDaughterboard,46696c74-6572-4446-9175-676874657262,rev?*
G04 #@! TF.SameCoordinates,Original*
G04 #@! TF.FileFunction,Soldermask,Top*
G04 #@! TF.FilePolarity,Negative*
%FSLAX46Y46*%
G04 Gerber Fmt 4.6, Leading zero omitted, Abs format (unit mm)*
G04 Created by KiCad (PCBNEW (5.1.5)-3) date 2020-11-09 20:42:25*
%MOMM*%
%LPD*%
G04 APERTURE LIST*
%ADD10R,1.050000X1.000000*%
%ADD11R,2.200000X1.050000*%
%ADD12C,0.100000*%
%ADD13R,11.999999X1.500000*%
%ADD14R,10.000000X1.500000*%
G04 APERTURE END LIST*
D10*
X87775000Y-135300000D03*
D11*
X89300000Y-136775000D03*
X89300000Y-133825000D03*
D10*
X87775000Y-148300000D03*
D11*
X89300000Y-149775000D03*
X89300000Y-146825000D03*
D12*
G36*
X85877691Y-131676053D02*
G01*
X85898926Y-131679203D01*
X85919750Y-131684419D01*
X85939962Y-131691651D01*
X85959368Y-131700830D01*
X85977781Y-131711866D01*
X85995024Y-131724654D01*
X86010930Y-131739070D01*
X86025346Y-131754976D01*
X86038134Y-131772219D01*
X86049170Y-131790632D01*
X86058349Y-131810038D01*
X86065581Y-131830250D01*
X86070797Y-131851074D01*
X86073947Y-131872309D01*
X86075000Y-131893750D01*
X86075000Y-132331250D01*
X86073947Y-132352691D01*
X86070797Y-132373926D01*
X86065581Y-132394750D01*
X86058349Y-132414962D01*
X86049170Y-132434368D01*
X86038134Y-132452781D01*
X86025346Y-132470024D01*
X86010930Y-132485930D01*
X85995024Y-132500346D01*
X85977781Y-132513134D01*
X85959368Y-132524170D01*
X85939962Y-132533349D01*
X85919750Y-132540581D01*
X85898926Y-132545797D01*
X85877691Y-132548947D01*
X85856250Y-132550000D01*
X85343750Y-132550000D01*
X85322309Y-132548947D01*
X85301074Y-132545797D01*
X85280250Y-132540581D01*
X85260038Y-132533349D01*
X85240632Y-132524170D01*
X85222219Y-132513134D01*
X85204976Y-132500346D01*
X85189070Y-132485930D01*
X85174654Y-132470024D01*
X85161866Y-132452781D01*
X85150830Y-132434368D01*
X85141651Y-132414962D01*
X85134419Y-132394750D01*
X85129203Y-132373926D01*
X85126053Y-132352691D01*
X85125000Y-132331250D01*
X85125000Y-131893750D01*
X85126053Y-131872309D01*
X85129203Y-131851074D01*
X85134419Y-131830250D01*
X85141651Y-131810038D01*
X85150830Y-131790632D01*
X85161866Y-131772219D01*
X85174654Y-131754976D01*
X85189070Y-131739070D01*
X85204976Y-131724654D01*
X85222219Y-131711866D01*
X85240632Y-131700830D01*
X85260038Y-131691651D01*
X85280250Y-131684419D01*
X85301074Y-131679203D01*
X85322309Y-131676053D01*
X85343750Y-131675000D01*
X85856250Y-131675000D01*
X85877691Y-131676053D01*
G37*
G36*
X85877691Y-133251053D02*
G01*
X85898926Y-133254203D01*
X85919750Y-133259419D01*
X85939962Y-133266651D01*
X85959368Y-133275830D01*
X85977781Y-133286866D01*
X85995024Y-133299654D01*
X86010930Y-133314070D01*
X86025346Y-133329976D01*
X86038134Y-133347219D01*
X86049170Y-133365632D01*
X86058349Y-133385038D01*
X86065581Y-133405250D01*
X86070797Y-133426074D01*
X86073947Y-133447309D01*
X86075000Y-133468750D01*
X86075000Y-133906250D01*
X86073947Y-133927691D01*
X86070797Y-133948926D01*
X86065581Y-133969750D01*
X86058349Y-133989962D01*
X86049170Y-134009368D01*
X86038134Y-134027781D01*
X86025346Y-134045024D01*
X86010930Y-134060930D01*
X85995024Y-134075346D01*
X85977781Y-134088134D01*
X85959368Y-134099170D01*
X85939962Y-134108349D01*
X85919750Y-134115581D01*
X85898926Y-134120797D01*
X85877691Y-134123947D01*
X85856250Y-134125000D01*
X85343750Y-134125000D01*
X85322309Y-134123947D01*
X85301074Y-134120797D01*
X85280250Y-134115581D01*
X85260038Y-134108349D01*
X85240632Y-134099170D01*
X85222219Y-134088134D01*
X85204976Y-134075346D01*
X85189070Y-134060930D01*
X85174654Y-134045024D01*
X85161866Y-134027781D01*
X85150830Y-134009368D01*
X85141651Y-133989962D01*
X85134419Y-133969750D01*
X85129203Y-133948926D01*
X85126053Y-133927691D01*
X85125000Y-133906250D01*
X85125000Y-133468750D01*
X85126053Y-133447309D01*
X85129203Y-133426074D01*
X85134419Y-133405250D01*
X85141651Y-133385038D01*
X85150830Y-133365632D01*
X85161866Y-133347219D01*
X85174654Y-133329976D01*
X85189070Y-133314070D01*
X85204976Y-133299654D01*
X85222219Y-133286866D01*
X85240632Y-133275830D01*
X85260038Y-133266651D01*
X85280250Y-133259419D01*
X85301074Y-133254203D01*
X85322309Y-133251053D01*
X85343750Y-133250000D01*
X85856250Y-133250000D01*
X85877691Y-133251053D01*
G37*
G36*
X94277691Y-124576053D02*
G01*
X94298926Y-124579203D01*
X94319750Y-124584419D01*
X94339962Y-124591651D01*
X94359368Y-124600830D01*
X94377781Y-124611866D01*
X94395024Y-124624654D01*
X94410930Y-124639070D01*
X94425346Y-124654976D01*
X94438134Y-124672219D01*
X94449170Y-124690632D01*
X94458349Y-124710038D01*
X94465581Y-124730250D01*
X94470797Y-124751074D01*
X94473947Y-124772309D01*
X94475000Y-124793750D01*
X94475000Y-125231250D01*
X94473947Y-125252691D01*
X94470797Y-125273926D01*
X94465581Y-125294750D01*
X94458349Y-125314962D01*
X94449170Y-125334368D01*
X94438134Y-125352781D01*
X94425346Y-125370024D01*
X94410930Y-125385930D01*
X94395024Y-125400346D01*
X94377781Y-125413134D01*
X94359368Y-125424170D01*
X94339962Y-125433349D01*
X94319750Y-125440581D01*
X94298926Y-125445797D01*
X94277691Y-125448947D01*
X94256250Y-125450000D01*
X93743750Y-125450000D01*
X93722309Y-125448947D01*
X93701074Y-125445797D01*
X93680250Y-125440581D01*
X93660038Y-125433349D01*
X93640632Y-125424170D01*
X93622219Y-125413134D01*
X93604976Y-125400346D01*
X93589070Y-125385930D01*
X93574654Y-125370024D01*
X93561866Y-125352781D01*
X93550830Y-125334368D01*
X93541651Y-125314962D01*
X93534419Y-125294750D01*
X93529203Y-125273926D01*
X93526053Y-125252691D01*
X93525000Y-125231250D01*
X93525000Y-124793750D01*
X93526053Y-124772309D01*
X93529203Y-124751074D01*
X93534419Y-124730250D01*
X93541651Y-124710038D01*
X93550830Y-124690632D01*
X93561866Y-124672219D01*
X93574654Y-124654976D01*
X93589070Y-124639070D01*
X93604976Y-124624654D01*
X93622219Y-124611866D01*
X93640632Y-124600830D01*
X93660038Y-124591651D01*
X93680250Y-124584419D01*
X93701074Y-124579203D01*
X93722309Y-124576053D01*
X93743750Y-124575000D01*
X94256250Y-124575000D01*
X94277691Y-124576053D01*
G37*
G36*
X94277691Y-126151053D02*
G01*
X94298926Y-126154203D01*
X94319750Y-126159419D01*
X94339962Y-126166651D01*
X94359368Y-126175830D01*
X94377781Y-126186866D01*
X94395024Y-126199654D01*
X94410930Y-126214070D01*
X94425346Y-126229976D01*
X94438134Y-126247219D01*
X94449170Y-126265632D01*
X94458349Y-126285038D01*
X94465581Y-126305250D01*
X94470797Y-126326074D01*
X94473947Y-126347309D01*
X94475000Y-126368750D01*
X94475000Y-126806250D01*
X94473947Y-126827691D01*
X94470797Y-126848926D01*
X94465581Y-126869750D01*
X94458349Y-126889962D01*
X94449170Y-126909368D01*
X94438134Y-126927781D01*
X94425346Y-126945024D01*
X94410930Y-126960930D01*
X94395024Y-126975346D01*
X94377781Y-126988134D01*
X94359368Y-126999170D01*
X94339962Y-127008349D01*
X94319750Y-127015581D01*
X94298926Y-127020797D01*
X94277691Y-127023947D01*
X94256250Y-127025000D01*
X93743750Y-127025000D01*
X93722309Y-127023947D01*
X93701074Y-127020797D01*
X93680250Y-127015581D01*
X93660038Y-127008349D01*
X93640632Y-126999170D01*
X93622219Y-126988134D01*
X93604976Y-126975346D01*
X93589070Y-126960930D01*
X93574654Y-126945024D01*
X93561866Y-126927781D01*
X93550830Y-126909368D01*
X93541651Y-126889962D01*
X93534419Y-126869750D01*
X93529203Y-126848926D01*
X93526053Y-126827691D01*
X93525000Y-126806250D01*
X93525000Y-126368750D01*
X93526053Y-126347309D01*
X93529203Y-126326074D01*
X93534419Y-126305250D01*
X93541651Y-126285038D01*
X93550830Y-126265632D01*
X93561866Y-126247219D01*
X93574654Y-126229976D01*
X93589070Y-126214070D01*
X93604976Y-126199654D01*
X93622219Y-126186866D01*
X93640632Y-126175830D01*
X93660038Y-126166651D01*
X93680250Y-126159419D01*
X93701074Y-126154203D01*
X93722309Y-126151053D01*
X93743750Y-126150000D01*
X94256250Y-126150000D01*
X94277691Y-126151053D01*
G37*
G36*
X87427691Y-126726053D02*
G01*
X87448926Y-126729203D01*
X87469750Y-126734419D01*
X87489962Y-126741651D01*
X87509368Y-126750830D01*
X87527781Y-126761866D01*
X87545024Y-126774654D01*
X87560930Y-126789070D01*
X87575346Y-126804976D01*
X87588134Y-126822219D01*
X87599170Y-126840632D01*
X87608349Y-126860038D01*
X87615581Y-126880250D01*
X87620797Y-126901074D01*
X87623947Y-126922309D01*
X87625000Y-126943750D01*
X87625000Y-127456250D01*
X87623947Y-127477691D01*
X87620797Y-127498926D01*
X87615581Y-127519750D01*
X87608349Y-127539962D01*
X87599170Y-127559368D01*
X87588134Y-127577781D01*
X87575346Y-127595024D01*
X87560930Y-127610930D01*
X87545024Y-127625346D01*
X87527781Y-127638134D01*
X87509368Y-127649170D01*
X87489962Y-127658349D01*
X87469750Y-127665581D01*
X87448926Y-127670797D01*
X87427691Y-127673947D01*
X87406250Y-127675000D01*
X86968750Y-127675000D01*
X86947309Y-127673947D01*
X86926074Y-127670797D01*
X86905250Y-127665581D01*
X86885038Y-127658349D01*
X86865632Y-127649170D01*
X86847219Y-127638134D01*
X86829976Y-127625346D01*
X86814070Y-127610930D01*
X86799654Y-127595024D01*
X86786866Y-127577781D01*
X86775830Y-127559368D01*
X86766651Y-127539962D01*
X86759419Y-127519750D01*
X86754203Y-127498926D01*
X86751053Y-127477691D01*
X86750000Y-127456250D01*
X86750000Y-126943750D01*
X86751053Y-126922309D01*
X86754203Y-126901074D01*
X86759419Y-126880250D01*
X86766651Y-126860038D01*
X86775830Y-126840632D01*
X86786866Y-126822219D01*
X86799654Y-126804976D01*
X86814070Y-126789070D01*
X86829976Y-126774654D01*
X86847219Y-126761866D01*
X86865632Y-126750830D01*
X86885038Y-126741651D01*
X86905250Y-126734419D01*
X86926074Y-126729203D01*
X86947309Y-126726053D01*
X86968750Y-126725000D01*
X87406250Y-126725000D01*
X87427691Y-126726053D01*
G37*
G36*
X85852691Y-126726053D02*
G01*
X85873926Y-126729203D01*
X85894750Y-126734419D01*
X85914962Y-126741651D01*
X85934368Y-126750830D01*
X85952781Y-126761866D01*
X85970024Y-126774654D01*
X85985930Y-126789070D01*
X86000346Y-126804976D01*
X86013134Y-126822219D01*
X86024170Y-126840632D01*
X86033349Y-126860038D01*
X86040581Y-126880250D01*
X86045797Y-126901074D01*
X86048947Y-126922309D01*
X86050000Y-126943750D01*
X86050000Y-127456250D01*
X86048947Y-127477691D01*
X86045797Y-127498926D01*
X86040581Y-127519750D01*
X86033349Y-127539962D01*
X86024170Y-127559368D01*
X86013134Y-127577781D01*
X86000346Y-127595024D01*
X85985930Y-127610930D01*
X85970024Y-127625346D01*
X85952781Y-127638134D01*
X85934368Y-127649170D01*
X85914962Y-127658349D01*
X85894750Y-127665581D01*
X85873926Y-127670797D01*
X85852691Y-127673947D01*
X85831250Y-127675000D01*
X85393750Y-127675000D01*
X85372309Y-127673947D01*
X85351074Y-127670797D01*
X85330250Y-127665581D01*
X85310038Y-127658349D01*
X85290632Y-127649170D01*
X85272219Y-127638134D01*
X85254976Y-127625346D01*
X85239070Y-127610930D01*
X85224654Y-127595024D01*
X85211866Y-127577781D01*
X85200830Y-127559368D01*
X85191651Y-127539962D01*
X85184419Y-127519750D01*
X85179203Y-127498926D01*
X85176053Y-127477691D01*
X85175000Y-127456250D01*
X85175000Y-126943750D01*
X85176053Y-126922309D01*
X85179203Y-126901074D01*
X85184419Y-126880250D01*
X85191651Y-126860038D01*
X85200830Y-126840632D01*
X85211866Y-126822219D01*
X85224654Y-126804976D01*
X85239070Y-126789070D01*
X85254976Y-126774654D01*
X85272219Y-126761866D01*
X85290632Y-126750830D01*
X85310038Y-126741651D01*
X85330250Y-126734419D01*
X85351074Y-126729203D01*
X85372309Y-126726053D01*
X85393750Y-126725000D01*
X85831250Y-126725000D01*
X85852691Y-126726053D01*
G37*
G36*
X85877691Y-144676053D02*
G01*
X85898926Y-144679203D01*
X85919750Y-144684419D01*
X85939962Y-144691651D01*
X85959368Y-144700830D01*
X85977781Y-144711866D01*
X85995024Y-144724654D01*
X86010930Y-144739070D01*
X86025346Y-144754976D01*
X86038134Y-144772219D01*
X86049170Y-144790632D01*
X86058349Y-144810038D01*
X86065581Y-144830250D01*
X86070797Y-144851074D01*
X86073947Y-144872309D01*
X86075000Y-144893750D01*
X86075000Y-145331250D01*
X86073947Y-145352691D01*
X86070797Y-145373926D01*
X86065581Y-145394750D01*
X86058349Y-145414962D01*
X86049170Y-145434368D01*
X86038134Y-145452781D01*
X86025346Y-145470024D01*
X86010930Y-145485930D01*
X85995024Y-145500346D01*
X85977781Y-145513134D01*
X85959368Y-145524170D01*
X85939962Y-145533349D01*
X85919750Y-145540581D01*
X85898926Y-145545797D01*
X85877691Y-145548947D01*
X85856250Y-145550000D01*
X85343750Y-145550000D01*
X85322309Y-145548947D01*
X85301074Y-145545797D01*
X85280250Y-145540581D01*
X85260038Y-145533349D01*
X85240632Y-145524170D01*
X85222219Y-145513134D01*
X85204976Y-145500346D01*
X85189070Y-145485930D01*
X85174654Y-145470024D01*
X85161866Y-145452781D01*
X85150830Y-145434368D01*
X85141651Y-145414962D01*
X85134419Y-145394750D01*
X85129203Y-145373926D01*
X85126053Y-145352691D01*
X85125000Y-145331250D01*
X85125000Y-144893750D01*
X85126053Y-144872309D01*
X85129203Y-144851074D01*
X85134419Y-144830250D01*
X85141651Y-144810038D01*
X85150830Y-144790632D01*
X85161866Y-144772219D01*
X85174654Y-144754976D01*
X85189070Y-144739070D01*
X85204976Y-144724654D01*
X85222219Y-144711866D01*
X85240632Y-144700830D01*
X85260038Y-144691651D01*
X85280250Y-144684419D01*
X85301074Y-144679203D01*
X85322309Y-144676053D01*
X85343750Y-144675000D01*
X85856250Y-144675000D01*
X85877691Y-144676053D01*
G37*
G36*
X85877691Y-146251053D02*
G01*
X85898926Y-146254203D01*
X85919750Y-146259419D01*
X85939962Y-146266651D01*
X85959368Y-146275830D01*
X85977781Y-146286866D01*
X85995024Y-146299654D01*
X86010930Y-146314070D01*
X86025346Y-146329976D01*
X86038134Y-146347219D01*
X86049170Y-146365632D01*
X86058349Y-146385038D01*
X86065581Y-146405250D01*
X86070797Y-146426074D01*
X86073947Y-146447309D01*
X86075000Y-146468750D01*
X86075000Y-146906250D01*
X86073947Y-146927691D01*
X86070797Y-146948926D01*
X86065581Y-146969750D01*
X86058349Y-146989962D01*
X86049170Y-147009368D01*
X86038134Y-147027781D01*
X86025346Y-147045024D01*
X86010930Y-147060930D01*
X85995024Y-147075346D01*
X85977781Y-147088134D01*
X85959368Y-147099170D01*
X85939962Y-147108349D01*
X85919750Y-147115581D01*
X85898926Y-147120797D01*
X85877691Y-147123947D01*
X85856250Y-147125000D01*
X85343750Y-147125000D01*
X85322309Y-147123947D01*
X85301074Y-147120797D01*
X85280250Y-147115581D01*
X85260038Y-147108349D01*
X85240632Y-147099170D01*
X85222219Y-147088134D01*
X85204976Y-147075346D01*
X85189070Y-147060930D01*
X85174654Y-147045024D01*
X85161866Y-147027781D01*
X85150830Y-147009368D01*
X85141651Y-146989962D01*
X85134419Y-146969750D01*
X85129203Y-146948926D01*
X85126053Y-146927691D01*
X85125000Y-146906250D01*
X85125000Y-146468750D01*
X85126053Y-146447309D01*
X85129203Y-146426074D01*
X85134419Y-146405250D01*
X85141651Y-146385038D01*
X85150830Y-146365632D01*
X85161866Y-146347219D01*
X85174654Y-146329976D01*
X85189070Y-146314070D01*
X85204976Y-146299654D01*
X85222219Y-146286866D01*
X85240632Y-146275830D01*
X85260038Y-146266651D01*
X85280250Y-146259419D01*
X85301074Y-146254203D01*
X85322309Y-146251053D01*
X85343750Y-146250000D01*
X85856250Y-146250000D01*
X85877691Y-146251053D01*
G37*
G36*
X94277691Y-137576053D02*
G01*
X94298926Y-137579203D01*
X94319750Y-137584419D01*
X94339962Y-137591651D01*
X94359368Y-137600830D01*
X94377781Y-137611866D01*
X94395024Y-137624654D01*
X94410930Y-137639070D01*
X94425346Y-137654976D01*
X94438134Y-137672219D01*
X94449170Y-137690632D01*
X94458349Y-137710038D01*
X94465581Y-137730250D01*
X94470797Y-137751074D01*
X94473947Y-137772309D01*
X94475000Y-137793750D01*
X94475000Y-138231250D01*
X94473947Y-138252691D01*
X94470797Y-138273926D01*
X94465581Y-138294750D01*
X94458349Y-138314962D01*
X94449170Y-138334368D01*
X94438134Y-138352781D01*
X94425346Y-138370024D01*
X94410930Y-138385930D01*
X94395024Y-138400346D01*
X94377781Y-138413134D01*
X94359368Y-138424170D01*
X94339962Y-138433349D01*
X94319750Y-138440581D01*
X94298926Y-138445797D01*
X94277691Y-138448947D01*
X94256250Y-138450000D01*
X93743750Y-138450000D01*
X93722309Y-138448947D01*
X93701074Y-138445797D01*
X93680250Y-138440581D01*
X93660038Y-138433349D01*
X93640632Y-138424170D01*
X93622219Y-138413134D01*
X93604976Y-138400346D01*
X93589070Y-138385930D01*
X93574654Y-138370024D01*
X93561866Y-138352781D01*
X93550830Y-138334368D01*
X93541651Y-138314962D01*
X93534419Y-138294750D01*
X93529203Y-138273926D01*
X93526053Y-138252691D01*
X93525000Y-138231250D01*
X93525000Y-137793750D01*
X93526053Y-137772309D01*
X93529203Y-137751074D01*
X93534419Y-137730250D01*
X93541651Y-137710038D01*
X93550830Y-137690632D01*
X93561866Y-137672219D01*
X93574654Y-137654976D01*
X93589070Y-137639070D01*
X93604976Y-137624654D01*
X93622219Y-137611866D01*
X93640632Y-137600830D01*
X93660038Y-137591651D01*
X93680250Y-137584419D01*
X93701074Y-137579203D01*
X93722309Y-137576053D01*
X93743750Y-137575000D01*
X94256250Y-137575000D01*
X94277691Y-137576053D01*
G37*
G36*
X94277691Y-139151053D02*
G01*
X94298926Y-139154203D01*
X94319750Y-139159419D01*
X94339962Y-139166651D01*
X94359368Y-139175830D01*
X94377781Y-139186866D01*
X94395024Y-139199654D01*
X94410930Y-139214070D01*
X94425346Y-139229976D01*
X94438134Y-139247219D01*
X94449170Y-139265632D01*
X94458349Y-139285038D01*
X94465581Y-139305250D01*
X94470797Y-139326074D01*
X94473947Y-139347309D01*
X94475000Y-139368750D01*
X94475000Y-139806250D01*
X94473947Y-139827691D01*
X94470797Y-139848926D01*
X94465581Y-139869750D01*
X94458349Y-139889962D01*
X94449170Y-139909368D01*
X94438134Y-139927781D01*
X94425346Y-139945024D01*
X94410930Y-139960930D01*
X94395024Y-139975346D01*
X94377781Y-139988134D01*
X94359368Y-139999170D01*
X94339962Y-140008349D01*
X94319750Y-140015581D01*
X94298926Y-140020797D01*
X94277691Y-140023947D01*
X94256250Y-140025000D01*
X93743750Y-140025000D01*
X93722309Y-140023947D01*
X93701074Y-140020797D01*
X93680250Y-140015581D01*
X93660038Y-140008349D01*
X93640632Y-139999170D01*
X93622219Y-139988134D01*
X93604976Y-139975346D01*
X93589070Y-139960930D01*
X93574654Y-139945024D01*
X93561866Y-139927781D01*
X93550830Y-139909368D01*
X93541651Y-139889962D01*
X93534419Y-139869750D01*
X93529203Y-139848926D01*
X93526053Y-139827691D01*
X93525000Y-139806250D01*
X93525000Y-139368750D01*
X93526053Y-139347309D01*
X93529203Y-139326074D01*
X93534419Y-139305250D01*
X93541651Y-139285038D01*
X93550830Y-139265632D01*
X93561866Y-139247219D01*
X93574654Y-139229976D01*
X93589070Y-139214070D01*
X93604976Y-139199654D01*
X93622219Y-139186866D01*
X93640632Y-139175830D01*
X93660038Y-139166651D01*
X93680250Y-139159419D01*
X93701074Y-139154203D01*
X93722309Y-139151053D01*
X93743750Y-139150000D01*
X94256250Y-139150000D01*
X94277691Y-139151053D01*
G37*
G36*
X87427691Y-139726053D02*
G01*
X87448926Y-139729203D01*
X87469750Y-139734419D01*
X87489962Y-139741651D01*
X87509368Y-139750830D01*
X87527781Y-139761866D01*
X87545024Y-139774654D01*
X87560930Y-139789070D01*
X87575346Y-139804976D01*
X87588134Y-139822219D01*
X87599170Y-139840632D01*
X87608349Y-139860038D01*
X87615581Y-139880250D01*
X87620797Y-139901074D01*
X87623947Y-139922309D01*
X87625000Y-139943750D01*
X87625000Y-140456250D01*
X87623947Y-140477691D01*
X87620797Y-140498926D01*
X87615581Y-140519750D01*
X87608349Y-140539962D01*
X87599170Y-140559368D01*
X87588134Y-140577781D01*
X87575346Y-140595024D01*
X87560930Y-140610930D01*
X87545024Y-140625346D01*
X87527781Y-140638134D01*
X87509368Y-140649170D01*
X87489962Y-140658349D01*
X87469750Y-140665581D01*
X87448926Y-140670797D01*
X87427691Y-140673947D01*
X87406250Y-140675000D01*
X86968750Y-140675000D01*
X86947309Y-140673947D01*
X86926074Y-140670797D01*
X86905250Y-140665581D01*
X86885038Y-140658349D01*
X86865632Y-140649170D01*
X86847219Y-140638134D01*
X86829976Y-140625346D01*
X86814070Y-140610930D01*
X86799654Y-140595024D01*
X86786866Y-140577781D01*
X86775830Y-140559368D01*
X86766651Y-140539962D01*
X86759419Y-140519750D01*
X86754203Y-140498926D01*
X86751053Y-140477691D01*
X86750000Y-140456250D01*
X86750000Y-139943750D01*
X86751053Y-139922309D01*
X86754203Y-139901074D01*
X86759419Y-139880250D01*
X86766651Y-139860038D01*
X86775830Y-139840632D01*
X86786866Y-139822219D01*
X86799654Y-139804976D01*
X86814070Y-139789070D01*
X86829976Y-139774654D01*
X86847219Y-139761866D01*
X86865632Y-139750830D01*
X86885038Y-139741651D01*
X86905250Y-139734419D01*
X86926074Y-139729203D01*
X86947309Y-139726053D01*
X86968750Y-139725000D01*
X87406250Y-139725000D01*
X87427691Y-139726053D01*
G37*
G36*
X85852691Y-139726053D02*
G01*
X85873926Y-139729203D01*
X85894750Y-139734419D01*
X85914962Y-139741651D01*
X85934368Y-139750830D01*
X85952781Y-139761866D01*
X85970024Y-139774654D01*
X85985930Y-139789070D01*
X86000346Y-139804976D01*
X86013134Y-139822219D01*
X86024170Y-139840632D01*
X86033349Y-139860038D01*
X86040581Y-139880250D01*
X86045797Y-139901074D01*
X86048947Y-139922309D01*
X86050000Y-139943750D01*
X86050000Y-140456250D01*
X86048947Y-140477691D01*
X86045797Y-140498926D01*
X86040581Y-140519750D01*
X86033349Y-140539962D01*
X86024170Y-140559368D01*
X86013134Y-140577781D01*
X86000346Y-140595024D01*
X85985930Y-140610930D01*
X85970024Y-140625346D01*
X85952781Y-140638134D01*
X85934368Y-140649170D01*
X85914962Y-140658349D01*
X85894750Y-140665581D01*
X85873926Y-140670797D01*
X85852691Y-140673947D01*
X85831250Y-140675000D01*
X85393750Y-140675000D01*
X85372309Y-140673947D01*
X85351074Y-140670797D01*
X85330250Y-140665581D01*
X85310038Y-140658349D01*
X85290632Y-140649170D01*
X85272219Y-140638134D01*
X85254976Y-140625346D01*
X85239070Y-140610930D01*
X85224654Y-140595024D01*
X85211866Y-140577781D01*
X85200830Y-140559368D01*
X85191651Y-140539962D01*
X85184419Y-140519750D01*
X85179203Y-140498926D01*
X85176053Y-140477691D01*
X85175000Y-140456250D01*
X85175000Y-139943750D01*
X85176053Y-139922309D01*
X85179203Y-139901074D01*
X85184419Y-139880250D01*
X85191651Y-139860038D01*
X85200830Y-139840632D01*
X85211866Y-139822219D01*
X85224654Y-139804976D01*
X85239070Y-139789070D01*
X85254976Y-139774654D01*
X85272219Y-139761866D01*
X85290632Y-139750830D01*
X85310038Y-139741651D01*
X85330250Y-139734419D01*
X85351074Y-139729203D01*
X85372309Y-139726053D01*
X85393750Y-139725000D01*
X85831250Y-139725000D01*
X85852691Y-139726053D01*
G37*
G36*
X90924504Y-127801204D02*
G01*
X90948773Y-127804804D01*
X90972571Y-127810765D01*
X90995671Y-127819030D01*
X91017849Y-127829520D01*
X91038893Y-127842133D01*
X91058598Y-127856747D01*
X91076777Y-127873223D01*
X91093253Y-127891402D01*
X91107867Y-127911107D01*
X91120480Y-127932151D01*
X91130970Y-127954329D01*
X91139235Y-127977429D01*
X91145196Y-128001227D01*
X91148796Y-128025496D01*
X91150000Y-128050000D01*
X91150000Y-129750000D01*
X91148796Y-129774504D01*
X91145196Y-129798773D01*
X91139235Y-129822571D01*
X91130970Y-129845671D01*
X91120480Y-129867849D01*
X91107867Y-129888893D01*
X91093253Y-129908598D01*
X91076777Y-129926777D01*
X91058598Y-129943253D01*
X91038893Y-129957867D01*
X91017849Y-129970480D01*
X90995671Y-129980970D01*
X90972571Y-129989235D01*
X90948773Y-129995196D01*
X90924504Y-129998796D01*
X90900000Y-130000000D01*
X90150000Y-130000000D01*
X90125496Y-129998796D01*
X90101227Y-129995196D01*
X90077429Y-129989235D01*
X90054329Y-129980970D01*
X90032151Y-129970480D01*
X90011107Y-129957867D01*
X89991402Y-129943253D01*
X89973223Y-129926777D01*
X89956747Y-129908598D01*
X89942133Y-129888893D01*
X89929520Y-129867849D01*
X89919030Y-129845671D01*
X89910765Y-129822571D01*
X89904804Y-129798773D01*
X89901204Y-129774504D01*
X89900000Y-129750000D01*
X89900000Y-128050000D01*
X89901204Y-128025496D01*
X89904804Y-128001227D01*
X89910765Y-127977429D01*
X89919030Y-127954329D01*
X89929520Y-127932151D01*
X89942133Y-127911107D01*
X89956747Y-127891402D01*
X89973223Y-127873223D01*
X89991402Y-127856747D01*
X90011107Y-127842133D01*
X90032151Y-127829520D01*
X90054329Y-127819030D01*
X90077429Y-127810765D01*
X90101227Y-127804804D01*
X90125496Y-127801204D01*
X90150000Y-127800000D01*
X90900000Y-127800000D01*
X90924504Y-127801204D01*
G37*
G36*
X93074504Y-127801204D02*
G01*
X93098773Y-127804804D01*
X93122571Y-127810765D01*
X93145671Y-127819030D01*
X93167849Y-127829520D01*
X93188893Y-127842133D01*
X93208598Y-127856747D01*
X93226777Y-127873223D01*
X93243253Y-127891402D01*
X93257867Y-127911107D01*
X93270480Y-127932151D01*
X93280970Y-127954329D01*
X93289235Y-127977429D01*
X93295196Y-128001227D01*
X93298796Y-128025496D01*
X93300000Y-128050000D01*
X93300000Y-129750000D01*
X93298796Y-129774504D01*
X93295196Y-129798773D01*
X93289235Y-129822571D01*
X93280970Y-129845671D01*
X93270480Y-129867849D01*
X93257867Y-129888893D01*
X93243253Y-129908598D01*
X93226777Y-129926777D01*
X93208598Y-129943253D01*
X93188893Y-129957867D01*
X93167849Y-129970480D01*
X93145671Y-129980970D01*
X93122571Y-129989235D01*
X93098773Y-129995196D01*
X93074504Y-129998796D01*
X93050000Y-130000000D01*
X92300000Y-130000000D01*
X92275496Y-129998796D01*
X92251227Y-129995196D01*
X92227429Y-129989235D01*
X92204329Y-129980970D01*
X92182151Y-129970480D01*
X92161107Y-129957867D01*
X92141402Y-129943253D01*
X92123223Y-129926777D01*
X92106747Y-129908598D01*
X92092133Y-129888893D01*
X92079520Y-129867849D01*
X92069030Y-129845671D01*
X92060765Y-129822571D01*
X92054804Y-129798773D01*
X92051204Y-129774504D01*
X92050000Y-129750000D01*
X92050000Y-128050000D01*
X92051204Y-128025496D01*
X92054804Y-128001227D01*
X92060765Y-127977429D01*
X92069030Y-127954329D01*
X92079520Y-127932151D01*
X92092133Y-127911107D01*
X92106747Y-127891402D01*
X92123223Y-127873223D01*
X92141402Y-127856747D01*
X92161107Y-127842133D01*
X92182151Y-127829520D01*
X92204329Y-127819030D01*
X92227429Y-127810765D01*
X92251227Y-127804804D01*
X92275496Y-127801204D01*
X92300000Y-127800000D01*
X93050000Y-127800000D01*
X93074504Y-127801204D01*
G37*
G36*
X85877691Y-130051053D02*
G01*
X85898926Y-130054203D01*
X85919750Y-130059419D01*
X85939962Y-130066651D01*
X85959368Y-130075830D01*
X85977781Y-130086866D01*
X85995024Y-130099654D01*
X86010930Y-130114070D01*
X86025346Y-130129976D01*
X86038134Y-130147219D01*
X86049170Y-130165632D01*
X86058349Y-130185038D01*
X86065581Y-130205250D01*
X86070797Y-130226074D01*
X86073947Y-130247309D01*
X86075000Y-130268750D01*
X86075000Y-130706250D01*
X86073947Y-130727691D01*
X86070797Y-130748926D01*
X86065581Y-130769750D01*
X86058349Y-130789962D01*
X86049170Y-130809368D01*
X86038134Y-130827781D01*
X86025346Y-130845024D01*
X86010930Y-130860930D01*
X85995024Y-130875346D01*
X85977781Y-130888134D01*
X85959368Y-130899170D01*
X85939962Y-130908349D01*
X85919750Y-130915581D01*
X85898926Y-130920797D01*
X85877691Y-130923947D01*
X85856250Y-130925000D01*
X85343750Y-130925000D01*
X85322309Y-130923947D01*
X85301074Y-130920797D01*
X85280250Y-130915581D01*
X85260038Y-130908349D01*
X85240632Y-130899170D01*
X85222219Y-130888134D01*
X85204976Y-130875346D01*
X85189070Y-130860930D01*
X85174654Y-130845024D01*
X85161866Y-130827781D01*
X85150830Y-130809368D01*
X85141651Y-130789962D01*
X85134419Y-130769750D01*
X85129203Y-130748926D01*
X85126053Y-130727691D01*
X85125000Y-130706250D01*
X85125000Y-130268750D01*
X85126053Y-130247309D01*
X85129203Y-130226074D01*
X85134419Y-130205250D01*
X85141651Y-130185038D01*
X85150830Y-130165632D01*
X85161866Y-130147219D01*
X85174654Y-130129976D01*
X85189070Y-130114070D01*
X85204976Y-130099654D01*
X85222219Y-130086866D01*
X85240632Y-130075830D01*
X85260038Y-130066651D01*
X85280250Y-130059419D01*
X85301074Y-130054203D01*
X85322309Y-130051053D01*
X85343750Y-130050000D01*
X85856250Y-130050000D01*
X85877691Y-130051053D01*
G37*
G36*
X85877691Y-128476053D02*
G01*
X85898926Y-128479203D01*
X85919750Y-128484419D01*
X85939962Y-128491651D01*
X85959368Y-128500830D01*
X85977781Y-128511866D01*
X85995024Y-128524654D01*
X86010930Y-128539070D01*
X86025346Y-128554976D01*
X86038134Y-128572219D01*
X86049170Y-128590632D01*
X86058349Y-128610038D01*
X86065581Y-128630250D01*
X86070797Y-128651074D01*
X86073947Y-128672309D01*
X86075000Y-128693750D01*
X86075000Y-129131250D01*
X86073947Y-129152691D01*
X86070797Y-129173926D01*
X86065581Y-129194750D01*
X86058349Y-129214962D01*
X86049170Y-129234368D01*
X86038134Y-129252781D01*
X86025346Y-129270024D01*
X86010930Y-129285930D01*
X85995024Y-129300346D01*
X85977781Y-129313134D01*
X85959368Y-129324170D01*
X85939962Y-129333349D01*
X85919750Y-129340581D01*
X85898926Y-129345797D01*
X85877691Y-129348947D01*
X85856250Y-129350000D01*
X85343750Y-129350000D01*
X85322309Y-129348947D01*
X85301074Y-129345797D01*
X85280250Y-129340581D01*
X85260038Y-129333349D01*
X85240632Y-129324170D01*
X85222219Y-129313134D01*
X85204976Y-129300346D01*
X85189070Y-129285930D01*
X85174654Y-129270024D01*
X85161866Y-129252781D01*
X85150830Y-129234368D01*
X85141651Y-129214962D01*
X85134419Y-129194750D01*
X85129203Y-129173926D01*
X85126053Y-129152691D01*
X85125000Y-129131250D01*
X85125000Y-128693750D01*
X85126053Y-128672309D01*
X85129203Y-128651074D01*
X85134419Y-128630250D01*
X85141651Y-128610038D01*
X85150830Y-128590632D01*
X85161866Y-128572219D01*
X85174654Y-128554976D01*
X85189070Y-128539070D01*
X85204976Y-128524654D01*
X85222219Y-128511866D01*
X85240632Y-128500830D01*
X85260038Y-128491651D01*
X85280250Y-128484419D01*
X85301074Y-128479203D01*
X85322309Y-128476053D01*
X85343750Y-128475000D01*
X85856250Y-128475000D01*
X85877691Y-128476053D01*
G37*
G36*
X90924504Y-140801204D02*
G01*
X90948773Y-140804804D01*
X90972571Y-140810765D01*
X90995671Y-140819030D01*
X91017849Y-140829520D01*
X91038893Y-140842133D01*
X91058598Y-140856747D01*
X91076777Y-140873223D01*
X91093253Y-140891402D01*
X91107867Y-140911107D01*
X91120480Y-140932151D01*
X91130970Y-140954329D01*
X91139235Y-140977429D01*
X91145196Y-141001227D01*
X91148796Y-141025496D01*
X91150000Y-141050000D01*
X91150000Y-142750000D01*
X91148796Y-142774504D01*
X91145196Y-142798773D01*
X91139235Y-142822571D01*
X91130970Y-142845671D01*
X91120480Y-142867849D01*
X91107867Y-142888893D01*
X91093253Y-142908598D01*
X91076777Y-142926777D01*
X91058598Y-142943253D01*
X91038893Y-142957867D01*
X91017849Y-142970480D01*
X90995671Y-142980970D01*
X90972571Y-142989235D01*
X90948773Y-142995196D01*
X90924504Y-142998796D01*
X90900000Y-143000000D01*
X90150000Y-143000000D01*
X90125496Y-142998796D01*
X90101227Y-142995196D01*
X90077429Y-142989235D01*
X90054329Y-142980970D01*
X90032151Y-142970480D01*
X90011107Y-142957867D01*
X89991402Y-142943253D01*
X89973223Y-142926777D01*
X89956747Y-142908598D01*
X89942133Y-142888893D01*
X89929520Y-142867849D01*
X89919030Y-142845671D01*
X89910765Y-142822571D01*
X89904804Y-142798773D01*
X89901204Y-142774504D01*
X89900000Y-142750000D01*
X89900000Y-141050000D01*
X89901204Y-141025496D01*
X89904804Y-141001227D01*
X89910765Y-140977429D01*
X89919030Y-140954329D01*
X89929520Y-140932151D01*
X89942133Y-140911107D01*
X89956747Y-140891402D01*
X89973223Y-140873223D01*
X89991402Y-140856747D01*
X90011107Y-140842133D01*
X90032151Y-140829520D01*
X90054329Y-140819030D01*
X90077429Y-140810765D01*
X90101227Y-140804804D01*
X90125496Y-140801204D01*
X90150000Y-140800000D01*
X90900000Y-140800000D01*
X90924504Y-140801204D01*
G37*
G36*
X93074504Y-140801204D02*
G01*
X93098773Y-140804804D01*
X93122571Y-140810765D01*
X93145671Y-140819030D01*
X93167849Y-140829520D01*
X93188893Y-140842133D01*
X93208598Y-140856747D01*
X93226777Y-140873223D01*
X93243253Y-140891402D01*
X93257867Y-140911107D01*
X93270480Y-140932151D01*
X93280970Y-140954329D01*
X93289235Y-140977429D01*
X93295196Y-141001227D01*
X93298796Y-141025496D01*
X93300000Y-141050000D01*
X93300000Y-142750000D01*
X93298796Y-142774504D01*
X93295196Y-142798773D01*
X93289235Y-142822571D01*
X93280970Y-142845671D01*
X93270480Y-142867849D01*
X93257867Y-142888893D01*
X93243253Y-142908598D01*
X93226777Y-142926777D01*
X93208598Y-142943253D01*
X93188893Y-142957867D01*
X93167849Y-142970480D01*
X93145671Y-142980970D01*
X93122571Y-142989235D01*
X93098773Y-142995196D01*
X93074504Y-142998796D01*
X93050000Y-143000000D01*
X92300000Y-143000000D01*
X92275496Y-142998796D01*
X92251227Y-142995196D01*
X92227429Y-142989235D01*
X92204329Y-142980970D01*
X92182151Y-142970480D01*
X92161107Y-142957867D01*
X92141402Y-142943253D01*
X92123223Y-142926777D01*
X92106747Y-142908598D01*
X92092133Y-142888893D01*
X92079520Y-142867849D01*
X92069030Y-142845671D01*
X92060765Y-142822571D01*
X92054804Y-142798773D01*
X92051204Y-142774504D01*
X92050000Y-142750000D01*
X92050000Y-141050000D01*
X92051204Y-141025496D01*
X92054804Y-141001227D01*
X92060765Y-140977429D01*
X92069030Y-140954329D01*
X92079520Y-140932151D01*
X92092133Y-140911107D01*
X92106747Y-140891402D01*
X92123223Y-140873223D01*
X92141402Y-140856747D01*
X92161107Y-140842133D01*
X92182151Y-140829520D01*
X92204329Y-140819030D01*
X92227429Y-140810765D01*
X92251227Y-140804804D01*
X92275496Y-140801204D01*
X92300000Y-140800000D01*
X93050000Y-140800000D01*
X93074504Y-140801204D01*
G37*
G36*
X85877691Y-143051053D02*
G01*
X85898926Y-143054203D01*
X85919750Y-143059419D01*
X85939962Y-143066651D01*
X85959368Y-143075830D01*
X85977781Y-143086866D01*
X85995024Y-143099654D01*
X86010930Y-143114070D01*
X86025346Y-143129976D01*
X86038134Y-143147219D01*
X86049170Y-143165632D01*
X86058349Y-143185038D01*
X86065581Y-143205250D01*
X86070797Y-143226074D01*
X86073947Y-143247309D01*
X86075000Y-143268750D01*
X86075000Y-143706250D01*
X86073947Y-143727691D01*
X86070797Y-143748926D01*
X86065581Y-143769750D01*
X86058349Y-143789962D01*
X86049170Y-143809368D01*
X86038134Y-143827781D01*
X86025346Y-143845024D01*
X86010930Y-143860930D01*
X85995024Y-143875346D01*
X85977781Y-143888134D01*
X85959368Y-143899170D01*
X85939962Y-143908349D01*
X85919750Y-143915581D01*
X85898926Y-143920797D01*
X85877691Y-143923947D01*
X85856250Y-143925000D01*
X85343750Y-143925000D01*
X85322309Y-143923947D01*
X85301074Y-143920797D01*
X85280250Y-143915581D01*
X85260038Y-143908349D01*
X85240632Y-143899170D01*
X85222219Y-143888134D01*
X85204976Y-143875346D01*
X85189070Y-143860930D01*
X85174654Y-143845024D01*
X85161866Y-143827781D01*
X85150830Y-143809368D01*
X85141651Y-143789962D01*
X85134419Y-143769750D01*
X85129203Y-143748926D01*
X85126053Y-143727691D01*
X85125000Y-143706250D01*
X85125000Y-143268750D01*
X85126053Y-143247309D01*
X85129203Y-143226074D01*
X85134419Y-143205250D01*
X85141651Y-143185038D01*
X85150830Y-143165632D01*
X85161866Y-143147219D01*
X85174654Y-143129976D01*
X85189070Y-143114070D01*
X85204976Y-143099654D01*
X85222219Y-143086866D01*
X85240632Y-143075830D01*
X85260038Y-143066651D01*
X85280250Y-143059419D01*
X85301074Y-143054203D01*
X85322309Y-143051053D01*
X85343750Y-143050000D01*
X85856250Y-143050000D01*
X85877691Y-143051053D01*
G37*
G36*
X85877691Y-141476053D02*
G01*
X85898926Y-141479203D01*
X85919750Y-141484419D01*
X85939962Y-141491651D01*
X85959368Y-141500830D01*
X85977781Y-141511866D01*
X85995024Y-141524654D01*
X86010930Y-141539070D01*
X86025346Y-141554976D01*
X86038134Y-141572219D01*
X86049170Y-141590632D01*
X86058349Y-141610038D01*
X86065581Y-141630250D01*
X86070797Y-141651074D01*
X86073947Y-141672309D01*
X86075000Y-141693750D01*
X86075000Y-142131250D01*
X86073947Y-142152691D01*
X86070797Y-142173926D01*
X86065581Y-142194750D01*
X86058349Y-142214962D01*
X86049170Y-142234368D01*
X86038134Y-142252781D01*
X86025346Y-142270024D01*
X86010930Y-142285930D01*
X85995024Y-142300346D01*
X85977781Y-142313134D01*
X85959368Y-142324170D01*
X85939962Y-142333349D01*
X85919750Y-142340581D01*
X85898926Y-142345797D01*
X85877691Y-142348947D01*
X85856250Y-142350000D01*
X85343750Y-142350000D01*
X85322309Y-142348947D01*
X85301074Y-142345797D01*
X85280250Y-142340581D01*
X85260038Y-142333349D01*
X85240632Y-142324170D01*
X85222219Y-142313134D01*
X85204976Y-142300346D01*
X85189070Y-142285930D01*
X85174654Y-142270024D01*
X85161866Y-142252781D01*
X85150830Y-142234368D01*
X85141651Y-142214962D01*
X85134419Y-142194750D01*
X85129203Y-142173926D01*
X85126053Y-142152691D01*
X85125000Y-142131250D01*
X85125000Y-141693750D01*
X85126053Y-141672309D01*
X85129203Y-141651074D01*
X85134419Y-141630250D01*
X85141651Y-141610038D01*
X85150830Y-141590632D01*
X85161866Y-141572219D01*
X85174654Y-141554976D01*
X85189070Y-141539070D01*
X85204976Y-141524654D01*
X85222219Y-141511866D01*
X85240632Y-141500830D01*
X85260038Y-141491651D01*
X85280250Y-141484419D01*
X85301074Y-141479203D01*
X85322309Y-141476053D01*
X85343750Y-141475000D01*
X85856250Y-141475000D01*
X85877691Y-141476053D01*
G37*
G36*
X92627691Y-126126053D02*
G01*
X92648926Y-126129203D01*
X92669750Y-126134419D01*
X92689962Y-126141651D01*
X92709368Y-126150830D01*
X92727781Y-126161866D01*
X92745024Y-126174654D01*
X92760930Y-126189070D01*
X92775346Y-126204976D01*
X92788134Y-126222219D01*
X92799170Y-126240632D01*
X92808349Y-126260038D01*
X92815581Y-126280250D01*
X92820797Y-126301074D01*
X92823947Y-126322309D01*
X92825000Y-126343750D01*
X92825000Y-126856250D01*
X92823947Y-126877691D01*
X92820797Y-126898926D01*
X92815581Y-126919750D01*
X92808349Y-126939962D01*
X92799170Y-126959368D01*
X92788134Y-126977781D01*
X92775346Y-126995024D01*
X92760930Y-127010930D01*
X92745024Y-127025346D01*
X92727781Y-127038134D01*
X92709368Y-127049170D01*
X92689962Y-127058349D01*
X92669750Y-127065581D01*
X92648926Y-127070797D01*
X92627691Y-127073947D01*
X92606250Y-127075000D01*
X92168750Y-127075000D01*
X92147309Y-127073947D01*
X92126074Y-127070797D01*
X92105250Y-127065581D01*
X92085038Y-127058349D01*
X92065632Y-127049170D01*
X92047219Y-127038134D01*
X92029976Y-127025346D01*
X92014070Y-127010930D01*
X91999654Y-126995024D01*
X91986866Y-126977781D01*
X91975830Y-126959368D01*
X91966651Y-126939962D01*
X91959419Y-126919750D01*
X91954203Y-126898926D01*
X91951053Y-126877691D01*
X91950000Y-126856250D01*
X91950000Y-126343750D01*
X91951053Y-126322309D01*
X91954203Y-126301074D01*
X91959419Y-126280250D01*
X91966651Y-126260038D01*
X91975830Y-126240632D01*
X91986866Y-126222219D01*
X91999654Y-126204976D01*
X92014070Y-126189070D01*
X92029976Y-126174654D01*
X92047219Y-126161866D01*
X92065632Y-126150830D01*
X92085038Y-126141651D01*
X92105250Y-126134419D01*
X92126074Y-126129203D01*
X92147309Y-126126053D01*
X92168750Y-126125000D01*
X92606250Y-126125000D01*
X92627691Y-126126053D01*
G37*
G36*
X91052691Y-126126053D02*
G01*
X91073926Y-126129203D01*
X91094750Y-126134419D01*
X91114962Y-126141651D01*
X91134368Y-126150830D01*
X91152781Y-126161866D01*
X91170024Y-126174654D01*
X91185930Y-126189070D01*
X91200346Y-126204976D01*
X91213134Y-126222219D01*
X91224170Y-126240632D01*
X91233349Y-126260038D01*
X91240581Y-126280250D01*
X91245797Y-126301074D01*
X91248947Y-126322309D01*
X91250000Y-126343750D01*
X91250000Y-126856250D01*
X91248947Y-126877691D01*
X91245797Y-126898926D01*
X91240581Y-126919750D01*
X91233349Y-126939962D01*
X91224170Y-126959368D01*
X91213134Y-126977781D01*
X91200346Y-126995024D01*
X91185930Y-127010930D01*
X91170024Y-127025346D01*
X91152781Y-127038134D01*
X91134368Y-127049170D01*
X91114962Y-127058349D01*
X91094750Y-127065581D01*
X91073926Y-127070797D01*
X91052691Y-127073947D01*
X91031250Y-127075000D01*
X90593750Y-127075000D01*
X90572309Y-127073947D01*
X90551074Y-127070797D01*
X90530250Y-127065581D01*
X90510038Y-127058349D01*
X90490632Y-127049170D01*
X90472219Y-127038134D01*
X90454976Y-127025346D01*
X90439070Y-127010930D01*
X90424654Y-126995024D01*
X90411866Y-126977781D01*
X90400830Y-126959368D01*
X90391651Y-126939962D01*
X90384419Y-126919750D01*
X90379203Y-126898926D01*
X90376053Y-126877691D01*
X90375000Y-126856250D01*
X90375000Y-126343750D01*
X90376053Y-126322309D01*
X90379203Y-126301074D01*
X90384419Y-126280250D01*
X90391651Y-126260038D01*
X90400830Y-126240632D01*
X90411866Y-126222219D01*
X90424654Y-126204976D01*
X90439070Y-126189070D01*
X90454976Y-126174654D01*
X90472219Y-126161866D01*
X90490632Y-126150830D01*
X90510038Y-126141651D01*
X90530250Y-126134419D01*
X90551074Y-126129203D01*
X90572309Y-126126053D01*
X90593750Y-126125000D01*
X91031250Y-126125000D01*
X91052691Y-126126053D01*
G37*
G36*
X89027691Y-128426053D02*
G01*
X89048926Y-128429203D01*
X89069750Y-128434419D01*
X89089962Y-128441651D01*
X89109368Y-128450830D01*
X89127781Y-128461866D01*
X89145024Y-128474654D01*
X89160930Y-128489070D01*
X89175346Y-128504976D01*
X89188134Y-128522219D01*
X89199170Y-128540632D01*
X89208349Y-128560038D01*
X89215581Y-128580250D01*
X89220797Y-128601074D01*
X89223947Y-128622309D01*
X89225000Y-128643750D01*
X89225000Y-129156250D01*
X89223947Y-129177691D01*
X89220797Y-129198926D01*
X89215581Y-129219750D01*
X89208349Y-129239962D01*
X89199170Y-129259368D01*
X89188134Y-129277781D01*
X89175346Y-129295024D01*
X89160930Y-129310930D01*
X89145024Y-129325346D01*
X89127781Y-129338134D01*
X89109368Y-129349170D01*
X89089962Y-129358349D01*
X89069750Y-129365581D01*
X89048926Y-129370797D01*
X89027691Y-129373947D01*
X89006250Y-129375000D01*
X88568750Y-129375000D01*
X88547309Y-129373947D01*
X88526074Y-129370797D01*
X88505250Y-129365581D01*
X88485038Y-129358349D01*
X88465632Y-129349170D01*
X88447219Y-129338134D01*
X88429976Y-129325346D01*
X88414070Y-129310930D01*
X88399654Y-129295024D01*
X88386866Y-129277781D01*
X88375830Y-129259368D01*
X88366651Y-129239962D01*
X88359419Y-129219750D01*
X88354203Y-129198926D01*
X88351053Y-129177691D01*
X88350000Y-129156250D01*
X88350000Y-128643750D01*
X88351053Y-128622309D01*
X88354203Y-128601074D01*
X88359419Y-128580250D01*
X88366651Y-128560038D01*
X88375830Y-128540632D01*
X88386866Y-128522219D01*
X88399654Y-128504976D01*
X88414070Y-128489070D01*
X88429976Y-128474654D01*
X88447219Y-128461866D01*
X88465632Y-128450830D01*
X88485038Y-128441651D01*
X88505250Y-128434419D01*
X88526074Y-128429203D01*
X88547309Y-128426053D01*
X88568750Y-128425000D01*
X89006250Y-128425000D01*
X89027691Y-128426053D01*
G37*
G36*
X87452691Y-128426053D02*
G01*
X87473926Y-128429203D01*
X87494750Y-128434419D01*
X87514962Y-128441651D01*
X87534368Y-128450830D01*
X87552781Y-128461866D01*
X87570024Y-128474654D01*
X87585930Y-128489070D01*
X87600346Y-128504976D01*
X87613134Y-128522219D01*
X87624170Y-128540632D01*
X87633349Y-128560038D01*
X87640581Y-128580250D01*
X87645797Y-128601074D01*
X87648947Y-128622309D01*
X87650000Y-128643750D01*
X87650000Y-129156250D01*
X87648947Y-129177691D01*
X87645797Y-129198926D01*
X87640581Y-129219750D01*
X87633349Y-129239962D01*
X87624170Y-129259368D01*
X87613134Y-129277781D01*
X87600346Y-129295024D01*
X87585930Y-129310930D01*
X87570024Y-129325346D01*
X87552781Y-129338134D01*
X87534368Y-129349170D01*
X87514962Y-129358349D01*
X87494750Y-129365581D01*
X87473926Y-129370797D01*
X87452691Y-129373947D01*
X87431250Y-129375000D01*
X86993750Y-129375000D01*
X86972309Y-129373947D01*
X86951074Y-129370797D01*
X86930250Y-129365581D01*
X86910038Y-129358349D01*
X86890632Y-129349170D01*
X86872219Y-129338134D01*
X86854976Y-129325346D01*
X86839070Y-129310930D01*
X86824654Y-129295024D01*
X86811866Y-129277781D01*
X86800830Y-129259368D01*
X86791651Y-129239962D01*
X86784419Y-129219750D01*
X86779203Y-129198926D01*
X86776053Y-129177691D01*
X86775000Y-129156250D01*
X86775000Y-128643750D01*
X86776053Y-128622309D01*
X86779203Y-128601074D01*
X86784419Y-128580250D01*
X86791651Y-128560038D01*
X86800830Y-128540632D01*
X86811866Y-128522219D01*
X86824654Y-128504976D01*
X86839070Y-128489070D01*
X86854976Y-128474654D01*
X86872219Y-128461866D01*
X86890632Y-128450830D01*
X86910038Y-128441651D01*
X86930250Y-128434419D01*
X86951074Y-128429203D01*
X86972309Y-128426053D01*
X86993750Y-128425000D01*
X87431250Y-128425000D01*
X87452691Y-128426053D01*
G37*
G36*
X87452691Y-130826053D02*
G01*
X87473926Y-130829203D01*
X87494750Y-130834419D01*
X87514962Y-130841651D01*
X87534368Y-130850830D01*
X87552781Y-130861866D01*
X87570024Y-130874654D01*
X87585930Y-130889070D01*
X87600346Y-130904976D01*
X87613134Y-130922219D01*
X87624170Y-130940632D01*
X87633349Y-130960038D01*
X87640581Y-130980250D01*
X87645797Y-131001074D01*
X87648947Y-131022309D01*
X87650000Y-131043750D01*
X87650000Y-131556250D01*
X87648947Y-131577691D01*
X87645797Y-131598926D01*
X87640581Y-131619750D01*
X87633349Y-131639962D01*
X87624170Y-131659368D01*
X87613134Y-131677781D01*
X87600346Y-131695024D01*
X87585930Y-131710930D01*
X87570024Y-131725346D01*
X87552781Y-131738134D01*
X87534368Y-131749170D01*
X87514962Y-131758349D01*
X87494750Y-131765581D01*
X87473926Y-131770797D01*
X87452691Y-131773947D01*
X87431250Y-131775000D01*
X86993750Y-131775000D01*
X86972309Y-131773947D01*
X86951074Y-131770797D01*
X86930250Y-131765581D01*
X86910038Y-131758349D01*
X86890632Y-131749170D01*
X86872219Y-131738134D01*
X86854976Y-131725346D01*
X86839070Y-131710930D01*
X86824654Y-131695024D01*
X86811866Y-131677781D01*
X86800830Y-131659368D01*
X86791651Y-131639962D01*
X86784419Y-131619750D01*
X86779203Y-131598926D01*
X86776053Y-131577691D01*
X86775000Y-131556250D01*
X86775000Y-131043750D01*
X86776053Y-131022309D01*
X86779203Y-131001074D01*
X86784419Y-130980250D01*
X86791651Y-130960038D01*
X86800830Y-130940632D01*
X86811866Y-130922219D01*
X86824654Y-130904976D01*
X86839070Y-130889070D01*
X86854976Y-130874654D01*
X86872219Y-130861866D01*
X86890632Y-130850830D01*
X86910038Y-130841651D01*
X86930250Y-130834419D01*
X86951074Y-130829203D01*
X86972309Y-130826053D01*
X86993750Y-130825000D01*
X87431250Y-130825000D01*
X87452691Y-130826053D01*
G37*
G36*
X89027691Y-130826053D02*
G01*
X89048926Y-130829203D01*
X89069750Y-130834419D01*
X89089962Y-130841651D01*
X89109368Y-130850830D01*
X89127781Y-130861866D01*
X89145024Y-130874654D01*
X89160930Y-130889070D01*
X89175346Y-130904976D01*
X89188134Y-130922219D01*
X89199170Y-130940632D01*
X89208349Y-130960038D01*
X89215581Y-130980250D01*
X89220797Y-131001074D01*
X89223947Y-131022309D01*
X89225000Y-131043750D01*
X89225000Y-131556250D01*
X89223947Y-131577691D01*
X89220797Y-131598926D01*
X89215581Y-131619750D01*
X89208349Y-131639962D01*
X89199170Y-131659368D01*
X89188134Y-131677781D01*
X89175346Y-131695024D01*
X89160930Y-131710930D01*
X89145024Y-131725346D01*
X89127781Y-131738134D01*
X89109368Y-131749170D01*
X89089962Y-131758349D01*
X89069750Y-131765581D01*
X89048926Y-131770797D01*
X89027691Y-131773947D01*
X89006250Y-131775000D01*
X88568750Y-131775000D01*
X88547309Y-131773947D01*
X88526074Y-131770797D01*
X88505250Y-131765581D01*
X88485038Y-131758349D01*
X88465632Y-131749170D01*
X88447219Y-131738134D01*
X88429976Y-131725346D01*
X88414070Y-131710930D01*
X88399654Y-131695024D01*
X88386866Y-131677781D01*
X88375830Y-131659368D01*
X88366651Y-131639962D01*
X88359419Y-131619750D01*
X88354203Y-131598926D01*
X88351053Y-131577691D01*
X88350000Y-131556250D01*
X88350000Y-131043750D01*
X88351053Y-131022309D01*
X88354203Y-131001074D01*
X88359419Y-130980250D01*
X88366651Y-130960038D01*
X88375830Y-130940632D01*
X88386866Y-130922219D01*
X88399654Y-130904976D01*
X88414070Y-130889070D01*
X88429976Y-130874654D01*
X88447219Y-130861866D01*
X88465632Y-130850830D01*
X88485038Y-130841651D01*
X88505250Y-130834419D01*
X88526074Y-130829203D01*
X88547309Y-130826053D01*
X88568750Y-130825000D01*
X89006250Y-130825000D01*
X89027691Y-130826053D01*
G37*
G36*
X92627691Y-139126053D02*
G01*
X92648926Y-139129203D01*
X92669750Y-139134419D01*
X92689962Y-139141651D01*
X92709368Y-139150830D01*
X92727781Y-139161866D01*
X92745024Y-139174654D01*
X92760930Y-139189070D01*
X92775346Y-139204976D01*
X92788134Y-139222219D01*
X92799170Y-139240632D01*
X92808349Y-139260038D01*
X92815581Y-139280250D01*
X92820797Y-139301074D01*
X92823947Y-139322309D01*
X92825000Y-139343750D01*
X92825000Y-139856250D01*
X92823947Y-139877691D01*
X92820797Y-139898926D01*
X92815581Y-139919750D01*
X92808349Y-139939962D01*
X92799170Y-139959368D01*
X92788134Y-139977781D01*
X92775346Y-139995024D01*
X92760930Y-140010930D01*
X92745024Y-140025346D01*
X92727781Y-140038134D01*
X92709368Y-140049170D01*
X92689962Y-140058349D01*
X92669750Y-140065581D01*
X92648926Y-140070797D01*
X92627691Y-140073947D01*
X92606250Y-140075000D01*
X92168750Y-140075000D01*
X92147309Y-140073947D01*
X92126074Y-140070797D01*
X92105250Y-140065581D01*
X92085038Y-140058349D01*
X92065632Y-140049170D01*
X92047219Y-140038134D01*
X92029976Y-140025346D01*
X92014070Y-140010930D01*
X91999654Y-139995024D01*
X91986866Y-139977781D01*
X91975830Y-139959368D01*
X91966651Y-139939962D01*
X91959419Y-139919750D01*
X91954203Y-139898926D01*
X91951053Y-139877691D01*
X91950000Y-139856250D01*
X91950000Y-139343750D01*
X91951053Y-139322309D01*
X91954203Y-139301074D01*
X91959419Y-139280250D01*
X91966651Y-139260038D01*
X91975830Y-139240632D01*
X91986866Y-139222219D01*
X91999654Y-139204976D01*
X92014070Y-139189070D01*
X92029976Y-139174654D01*
X92047219Y-139161866D01*
X92065632Y-139150830D01*
X92085038Y-139141651D01*
X92105250Y-139134419D01*
X92126074Y-139129203D01*
X92147309Y-139126053D01*
X92168750Y-139125000D01*
X92606250Y-139125000D01*
X92627691Y-139126053D01*
G37*
G36*
X91052691Y-139126053D02*
G01*
X91073926Y-139129203D01*
X91094750Y-139134419D01*
X91114962Y-139141651D01*
X91134368Y-139150830D01*
X91152781Y-139161866D01*
X91170024Y-139174654D01*
X91185930Y-139189070D01*
X91200346Y-139204976D01*
X91213134Y-139222219D01*
X91224170Y-139240632D01*
X91233349Y-139260038D01*
X91240581Y-139280250D01*
X91245797Y-139301074D01*
X91248947Y-139322309D01*
X91250000Y-139343750D01*
X91250000Y-139856250D01*
X91248947Y-139877691D01*
X91245797Y-139898926D01*
X91240581Y-139919750D01*
X91233349Y-139939962D01*
X91224170Y-139959368D01*
X91213134Y-139977781D01*
X91200346Y-139995024D01*
X91185930Y-140010930D01*
X91170024Y-140025346D01*
X91152781Y-140038134D01*
X91134368Y-140049170D01*
X91114962Y-140058349D01*
X91094750Y-140065581D01*
X91073926Y-140070797D01*
X91052691Y-140073947D01*
X91031250Y-140075000D01*
X90593750Y-140075000D01*
X90572309Y-140073947D01*
X90551074Y-140070797D01*
X90530250Y-140065581D01*
X90510038Y-140058349D01*
X90490632Y-140049170D01*
X90472219Y-140038134D01*
X90454976Y-140025346D01*
X90439070Y-140010930D01*
X90424654Y-139995024D01*
X90411866Y-139977781D01*
X90400830Y-139959368D01*
X90391651Y-139939962D01*
X90384419Y-139919750D01*
X90379203Y-139898926D01*
X90376053Y-139877691D01*
X90375000Y-139856250D01*
X90375000Y-139343750D01*
X90376053Y-139322309D01*
X90379203Y-139301074D01*
X90384419Y-139280250D01*
X90391651Y-139260038D01*
X90400830Y-139240632D01*
X90411866Y-139222219D01*
X90424654Y-139204976D01*
X90439070Y-139189070D01*
X90454976Y-139174654D01*
X90472219Y-139161866D01*
X90490632Y-139150830D01*
X90510038Y-139141651D01*
X90530250Y-139134419D01*
X90551074Y-139129203D01*
X90572309Y-139126053D01*
X90593750Y-139125000D01*
X91031250Y-139125000D01*
X91052691Y-139126053D01*
G37*
G36*
X89027691Y-141426053D02*
G01*
X89048926Y-141429203D01*
X89069750Y-141434419D01*
X89089962Y-141441651D01*
X89109368Y-141450830D01*
X89127781Y-141461866D01*
X89145024Y-141474654D01*
X89160930Y-141489070D01*
X89175346Y-141504976D01*
X89188134Y-141522219D01*
X89199170Y-141540632D01*
X89208349Y-141560038D01*
X89215581Y-141580250D01*
X89220797Y-141601074D01*
X89223947Y-141622309D01*
X89225000Y-141643750D01*
X89225000Y-142156250D01*
X89223947Y-142177691D01*
X89220797Y-142198926D01*
X89215581Y-142219750D01*
X89208349Y-142239962D01*
X89199170Y-142259368D01*
X89188134Y-142277781D01*
X89175346Y-142295024D01*
X89160930Y-142310930D01*
X89145024Y-142325346D01*
X89127781Y-142338134D01*
X89109368Y-142349170D01*
X89089962Y-142358349D01*
X89069750Y-142365581D01*
X89048926Y-142370797D01*
X89027691Y-142373947D01*
X89006250Y-142375000D01*
X88568750Y-142375000D01*
X88547309Y-142373947D01*
X88526074Y-142370797D01*
X88505250Y-142365581D01*
X88485038Y-142358349D01*
X88465632Y-142349170D01*
X88447219Y-142338134D01*
X88429976Y-142325346D01*
X88414070Y-142310930D01*
X88399654Y-142295024D01*
X88386866Y-142277781D01*
X88375830Y-142259368D01*
X88366651Y-142239962D01*
X88359419Y-142219750D01*
X88354203Y-142198926D01*
X88351053Y-142177691D01*
X88350000Y-142156250D01*
X88350000Y-141643750D01*
X88351053Y-141622309D01*
X88354203Y-141601074D01*
X88359419Y-141580250D01*
X88366651Y-141560038D01*
X88375830Y-141540632D01*
X88386866Y-141522219D01*
X88399654Y-141504976D01*
X88414070Y-141489070D01*
X88429976Y-141474654D01*
X88447219Y-141461866D01*
X88465632Y-141450830D01*
X88485038Y-141441651D01*
X88505250Y-141434419D01*
X88526074Y-141429203D01*
X88547309Y-141426053D01*
X88568750Y-141425000D01*
X89006250Y-141425000D01*
X89027691Y-141426053D01*
G37*
G36*
X87452691Y-141426053D02*
G01*
X87473926Y-141429203D01*
X87494750Y-141434419D01*
X87514962Y-141441651D01*
X87534368Y-141450830D01*
X87552781Y-141461866D01*
X87570024Y-141474654D01*
X87585930Y-141489070D01*
X87600346Y-141504976D01*
X87613134Y-141522219D01*
X87624170Y-141540632D01*
X87633349Y-141560038D01*
X87640581Y-141580250D01*
X87645797Y-141601074D01*
X87648947Y-141622309D01*
X87650000Y-141643750D01*
X87650000Y-142156250D01*
X87648947Y-142177691D01*
X87645797Y-142198926D01*
X87640581Y-142219750D01*
X87633349Y-142239962D01*
X87624170Y-142259368D01*
X87613134Y-142277781D01*
X87600346Y-142295024D01*
X87585930Y-142310930D01*
X87570024Y-142325346D01*
X87552781Y-142338134D01*
X87534368Y-142349170D01*
X87514962Y-142358349D01*
X87494750Y-142365581D01*
X87473926Y-142370797D01*
X87452691Y-142373947D01*
X87431250Y-142375000D01*
X86993750Y-142375000D01*
X86972309Y-142373947D01*
X86951074Y-142370797D01*
X86930250Y-142365581D01*
X86910038Y-142358349D01*
X86890632Y-142349170D01*
X86872219Y-142338134D01*
X86854976Y-142325346D01*
X86839070Y-142310930D01*
X86824654Y-142295024D01*
X86811866Y-142277781D01*
X86800830Y-142259368D01*
X86791651Y-142239962D01*
X86784419Y-142219750D01*
X86779203Y-142198926D01*
X86776053Y-142177691D01*
X86775000Y-142156250D01*
X86775000Y-141643750D01*
X86776053Y-141622309D01*
X86779203Y-141601074D01*
X86784419Y-141580250D01*
X86791651Y-141560038D01*
X86800830Y-141540632D01*
X86811866Y-141522219D01*
X86824654Y-141504976D01*
X86839070Y-141489070D01*
X86854976Y-141474654D01*
X86872219Y-141461866D01*
X86890632Y-141450830D01*
X86910038Y-141441651D01*
X86930250Y-141434419D01*
X86951074Y-141429203D01*
X86972309Y-141426053D01*
X86993750Y-141425000D01*
X87431250Y-141425000D01*
X87452691Y-141426053D01*
G37*
G36*
X87452691Y-143826053D02*
G01*
X87473926Y-143829203D01*
X87494750Y-143834419D01*
X87514962Y-143841651D01*
X87534368Y-143850830D01*
X87552781Y-143861866D01*
X87570024Y-143874654D01*
X87585930Y-143889070D01*
X87600346Y-143904976D01*
X87613134Y-143922219D01*
X87624170Y-143940632D01*
X87633349Y-143960038D01*
X87640581Y-143980250D01*
X87645797Y-144001074D01*
X87648947Y-144022309D01*
X87650000Y-144043750D01*
X87650000Y-144556250D01*
X87648947Y-144577691D01*
X87645797Y-144598926D01*
X87640581Y-144619750D01*
X87633349Y-144639962D01*
X87624170Y-144659368D01*
X87613134Y-144677781D01*
X87600346Y-144695024D01*
X87585930Y-144710930D01*
X87570024Y-144725346D01*
X87552781Y-144738134D01*
X87534368Y-144749170D01*
X87514962Y-144758349D01*
X87494750Y-144765581D01*
X87473926Y-144770797D01*
X87452691Y-144773947D01*
X87431250Y-144775000D01*
X86993750Y-144775000D01*
X86972309Y-144773947D01*
X86951074Y-144770797D01*
X86930250Y-144765581D01*
X86910038Y-144758349D01*
X86890632Y-144749170D01*
X86872219Y-144738134D01*
X86854976Y-144725346D01*
X86839070Y-144710930D01*
X86824654Y-144695024D01*
X86811866Y-144677781D01*
X86800830Y-144659368D01*
X86791651Y-144639962D01*
X86784419Y-144619750D01*
X86779203Y-144598926D01*
X86776053Y-144577691D01*
X86775000Y-144556250D01*
X86775000Y-144043750D01*
X86776053Y-144022309D01*
X86779203Y-144001074D01*
X86784419Y-143980250D01*
X86791651Y-143960038D01*
X86800830Y-143940632D01*
X86811866Y-143922219D01*
X86824654Y-143904976D01*
X86839070Y-143889070D01*
X86854976Y-143874654D01*
X86872219Y-143861866D01*
X86890632Y-143850830D01*
X86910038Y-143841651D01*
X86930250Y-143834419D01*
X86951074Y-143829203D01*
X86972309Y-143826053D01*
X86993750Y-143825000D01*
X87431250Y-143825000D01*
X87452691Y-143826053D01*
G37*
G36*
X89027691Y-143826053D02*
G01*
X89048926Y-143829203D01*
X89069750Y-143834419D01*
X89089962Y-143841651D01*
X89109368Y-143850830D01*
X89127781Y-143861866D01*
X89145024Y-143874654D01*
X89160930Y-143889070D01*
X89175346Y-143904976D01*
X89188134Y-143922219D01*
X89199170Y-143940632D01*
X89208349Y-143960038D01*
X89215581Y-143980250D01*
X89220797Y-144001074D01*
X89223947Y-144022309D01*
X89225000Y-144043750D01*
X89225000Y-144556250D01*
X89223947Y-144577691D01*
X89220797Y-144598926D01*
X89215581Y-144619750D01*
X89208349Y-144639962D01*
X89199170Y-144659368D01*
X89188134Y-144677781D01*
X89175346Y-144695024D01*
X89160930Y-144710930D01*
X89145024Y-144725346D01*
X89127781Y-144738134D01*
X89109368Y-144749170D01*
X89089962Y-144758349D01*
X89069750Y-144765581D01*
X89048926Y-144770797D01*
X89027691Y-144773947D01*
X89006250Y-144775000D01*
X88568750Y-144775000D01*
X88547309Y-144773947D01*
X88526074Y-144770797D01*
X88505250Y-144765581D01*
X88485038Y-144758349D01*
X88465632Y-144749170D01*
X88447219Y-144738134D01*
X88429976Y-144725346D01*
X88414070Y-144710930D01*
X88399654Y-144695024D01*
X88386866Y-144677781D01*
X88375830Y-144659368D01*
X88366651Y-144639962D01*
X88359419Y-144619750D01*
X88354203Y-144598926D01*
X88351053Y-144577691D01*
X88350000Y-144556250D01*
X88350000Y-144043750D01*
X88351053Y-144022309D01*
X88354203Y-144001074D01*
X88359419Y-143980250D01*
X88366651Y-143960038D01*
X88375830Y-143940632D01*
X88386866Y-143922219D01*
X88399654Y-143904976D01*
X88414070Y-143889070D01*
X88429976Y-143874654D01*
X88447219Y-143861866D01*
X88465632Y-143850830D01*
X88485038Y-143841651D01*
X88505250Y-143834419D01*
X88526074Y-143829203D01*
X88547309Y-143826053D01*
X88568750Y-143825000D01*
X89006250Y-143825000D01*
X89027691Y-143826053D01*
G37*
D13*
X103612200Y-148187400D03*
X103612200Y-145687400D03*
X103612200Y-143187400D03*
X103612200Y-140687400D03*
X103612200Y-135287400D03*
X103612200Y-132787400D03*
X103612200Y-130287400D03*
D14*
X104612200Y-127787400D03*
M02*
