G04 #@! TF.GenerationSoftware,KiCad,Pcbnew,(6.0.0)*
G04 #@! TF.CreationDate,2022-02-22T08:31:50+01:00*
G04 #@! TF.ProjectId,FilterDaughterboard,46696c74-6572-4446-9175-676874657262,rev?*
G04 #@! TF.SameCoordinates,Original*
G04 #@! TF.FileFunction,Soldermask,Top*
G04 #@! TF.FilePolarity,Negative*
%FSLAX46Y46*%
G04 Gerber Fmt 4.6, Leading zero omitted, Abs format (unit mm)*
G04 Created by KiCad (PCBNEW (6.0.0)) date 2022-02-22 08:31:50*
%MOMM*%
%LPD*%
G01*
G04 APERTURE LIST*
G04 Aperture macros list*
%AMRoundRect*
0 Rectangle with rounded corners*
0 $1 Rounding radius*
0 $2 $3 $4 $5 $6 $7 $8 $9 X,Y pos of 4 corners*
0 Add a 4 corners polygon primitive as box body*
4,1,4,$2,$3,$4,$5,$6,$7,$8,$9,$2,$3,0*
0 Add four circle primitives for the rounded corners*
1,1,$1+$1,$2,$3*
1,1,$1+$1,$4,$5*
1,1,$1+$1,$6,$7*
1,1,$1+$1,$8,$9*
0 Add four rect primitives between the rounded corners*
20,1,$1+$1,$2,$3,$4,$5,0*
20,1,$1+$1,$4,$5,$6,$7,0*
20,1,$1+$1,$6,$7,$8,$9,0*
20,1,$1+$1,$8,$9,$2,$3,0*%
G04 Aperture macros list end*
%ADD10RoundRect,0.225000X0.250000X-0.225000X0.250000X0.225000X-0.250000X0.225000X-0.250000X-0.225000X0*%
%ADD11RoundRect,0.200000X-0.200000X-0.275000X0.200000X-0.275000X0.200000X0.275000X-0.200000X0.275000X0*%
%ADD12RoundRect,0.200000X0.275000X-0.200000X0.275000X0.200000X-0.275000X0.200000X-0.275000X-0.200000X0*%
%ADD13RoundRect,0.200000X0.200000X0.275000X-0.200000X0.275000X-0.200000X-0.275000X0.200000X-0.275000X0*%
%ADD14RoundRect,0.200000X-0.275000X0.200000X-0.275000X-0.200000X0.275000X-0.200000X0.275000X0.200000X0*%
%ADD15R,10.000000X1.500000*%
%ADD16R,11.999999X1.500000*%
%ADD17RoundRect,0.225000X-0.225000X-0.250000X0.225000X-0.250000X0.225000X0.250000X-0.225000X0.250000X0*%
%ADD18RoundRect,0.225000X-0.250000X0.225000X-0.250000X-0.225000X0.250000X-0.225000X0.250000X0.225000X0*%
G04 APERTURE END LIST*
D10*
X89570000Y-132785000D03*
X89570000Y-131235000D03*
X94840000Y-145665000D03*
X94840000Y-144115000D03*
D11*
X87385000Y-127800000D03*
X89035000Y-127800000D03*
D12*
X87420000Y-132835000D03*
X87420000Y-131185000D03*
D13*
X93055000Y-132790000D03*
X91405000Y-132790000D03*
D11*
X91435000Y-145690000D03*
X93085000Y-145690000D03*
D14*
X87430000Y-144045000D03*
X87430000Y-145695000D03*
D13*
X89035000Y-140670000D03*
X87385000Y-140670000D03*
D15*
X104612200Y-127787400D03*
D16*
X103612200Y-130287400D03*
X103612200Y-132787400D03*
X103612200Y-135287400D03*
X103612200Y-140687400D03*
X103612200Y-143187400D03*
X103612200Y-145687400D03*
X103612200Y-148187400D03*
D10*
X89590000Y-145665000D03*
X89590000Y-144115000D03*
D17*
X87415000Y-129540000D03*
X88965000Y-129540000D03*
D13*
X94815000Y-140670000D03*
X93165000Y-140670000D03*
D18*
X91180000Y-127805000D03*
X91180000Y-129355000D03*
D11*
X93175000Y-127800000D03*
X94825000Y-127800000D03*
D10*
X94810000Y-132805000D03*
X94810000Y-131255000D03*
D18*
X91170000Y-140655000D03*
X91170000Y-142205000D03*
D17*
X87425000Y-142390000D03*
X88975000Y-142390000D03*
M02*
