G04 #@! TF.GenerationSoftware,KiCad,Pcbnew,(6.0.0)*
G04 #@! TF.CreationDate,2022-02-22T08:31:50+01:00*
G04 #@! TF.ProjectId,FilterDaughterboard,46696c74-6572-4446-9175-676874657262,rev?*
G04 #@! TF.SameCoordinates,Original*
G04 #@! TF.FileFunction,Legend,Top*
G04 #@! TF.FilePolarity,Positive*
%FSLAX46Y46*%
G04 Gerber Fmt 4.6, Leading zero omitted, Abs format (unit mm)*
G04 Created by KiCad (PCBNEW (6.0.0)) date 2022-02-22 08:31:50*
%MOMM*%
%LPD*%
G01*
G04 APERTURE LIST*
%ADD10C,0.100000*%
%ADD11C,0.150000*%
%ADD12C,0.120000*%
G04 APERTURE END LIST*
D10*
X97793571Y-136738928D02*
X97543571Y-136738928D01*
X97543571Y-137131785D02*
X97543571Y-136381785D01*
X97900714Y-136381785D01*
X98186428Y-137131785D02*
X98186428Y-136631785D01*
X98186428Y-136381785D02*
X98150714Y-136417500D01*
X98186428Y-136453214D01*
X98222142Y-136417500D01*
X98186428Y-136381785D01*
X98186428Y-136453214D01*
X98650714Y-137131785D02*
X98579285Y-137096071D01*
X98543571Y-137024642D01*
X98543571Y-136381785D01*
X98829285Y-136631785D02*
X99115000Y-136631785D01*
X98936428Y-136381785D02*
X98936428Y-137024642D01*
X98972142Y-137096071D01*
X99043571Y-137131785D01*
X99115000Y-137131785D01*
X99650714Y-137096071D02*
X99579285Y-137131785D01*
X99436428Y-137131785D01*
X99365000Y-137096071D01*
X99329285Y-137024642D01*
X99329285Y-136738928D01*
X99365000Y-136667500D01*
X99436428Y-136631785D01*
X99579285Y-136631785D01*
X99650714Y-136667500D01*
X99686428Y-136738928D01*
X99686428Y-136810357D01*
X99329285Y-136881785D01*
X100007857Y-137131785D02*
X100007857Y-136631785D01*
X100007857Y-136774642D02*
X100043571Y-136703214D01*
X100079285Y-136667500D01*
X100150714Y-136631785D01*
X100222142Y-136631785D01*
X100472142Y-137131785D02*
X100472142Y-136381785D01*
X100650714Y-136381785D01*
X100757857Y-136417500D01*
X100829285Y-136488928D01*
X100865000Y-136560357D01*
X100900714Y-136703214D01*
X100900714Y-136810357D01*
X100865000Y-136953214D01*
X100829285Y-137024642D01*
X100757857Y-137096071D01*
X100650714Y-137131785D01*
X100472142Y-137131785D01*
X101543571Y-137131785D02*
X101543571Y-136738928D01*
X101507857Y-136667500D01*
X101436428Y-136631785D01*
X101293571Y-136631785D01*
X101222142Y-136667500D01*
X101543571Y-137096071D02*
X101472142Y-137131785D01*
X101293571Y-137131785D01*
X101222142Y-137096071D01*
X101186428Y-137024642D01*
X101186428Y-136953214D01*
X101222142Y-136881785D01*
X101293571Y-136846071D01*
X101472142Y-136846071D01*
X101543571Y-136810357D01*
X102222142Y-136631785D02*
X102222142Y-137131785D01*
X101900714Y-136631785D02*
X101900714Y-137024642D01*
X101936428Y-137096071D01*
X102007857Y-137131785D01*
X102115000Y-137131785D01*
X102186428Y-137096071D01*
X102222142Y-137060357D01*
X102900714Y-136631785D02*
X102900714Y-137238928D01*
X102865000Y-137310357D01*
X102829285Y-137346071D01*
X102757857Y-137381785D01*
X102650714Y-137381785D01*
X102579285Y-137346071D01*
X102900714Y-137096071D02*
X102829285Y-137131785D01*
X102686428Y-137131785D01*
X102615000Y-137096071D01*
X102579285Y-137060357D01*
X102543571Y-136988928D01*
X102543571Y-136774642D01*
X102579285Y-136703214D01*
X102615000Y-136667500D01*
X102686428Y-136631785D01*
X102829285Y-136631785D01*
X102900714Y-136667500D01*
X103257857Y-137131785D02*
X103257857Y-136381785D01*
X103579285Y-137131785D02*
X103579285Y-136738928D01*
X103543571Y-136667500D01*
X103472142Y-136631785D01*
X103365000Y-136631785D01*
X103293571Y-136667500D01*
X103257857Y-136703214D01*
X103829285Y-136631785D02*
X104115000Y-136631785D01*
X103936428Y-136381785D02*
X103936428Y-137024642D01*
X103972142Y-137096071D01*
X104043571Y-137131785D01*
X104115000Y-137131785D01*
X104650714Y-137096071D02*
X104579285Y-137131785D01*
X104436428Y-137131785D01*
X104365000Y-137096071D01*
X104329285Y-137024642D01*
X104329285Y-136738928D01*
X104365000Y-136667500D01*
X104436428Y-136631785D01*
X104579285Y-136631785D01*
X104650714Y-136667500D01*
X104686428Y-136738928D01*
X104686428Y-136810357D01*
X104329285Y-136881785D01*
X105007857Y-137131785D02*
X105007857Y-136631785D01*
X105007857Y-136774642D02*
X105043571Y-136703214D01*
X105079285Y-136667500D01*
X105150714Y-136631785D01*
X105222142Y-136631785D01*
X105936428Y-136381785D02*
X106186428Y-137131785D01*
X106436428Y-136381785D01*
X106615000Y-136381785D02*
X107079285Y-136381785D01*
X106829285Y-136667500D01*
X106936428Y-136667500D01*
X107007857Y-136703214D01*
X107043571Y-136738928D01*
X107079285Y-136810357D01*
X107079285Y-136988928D01*
X107043571Y-137060357D01*
X107007857Y-137096071D01*
X106936428Y-137131785D01*
X106722142Y-137131785D01*
X106650714Y-137096071D01*
X106615000Y-137060357D01*
X107400714Y-137060357D02*
X107436428Y-137096071D01*
X107400714Y-137131785D01*
X107365000Y-137096071D01*
X107400714Y-137060357D01*
X107400714Y-137131785D01*
X107900714Y-136381785D02*
X107972142Y-136381785D01*
X108043571Y-136417500D01*
X108079285Y-136453214D01*
X108115000Y-136524642D01*
X108150714Y-136667500D01*
X108150714Y-136846071D01*
X108115000Y-136988928D01*
X108079285Y-137060357D01*
X108043571Y-137096071D01*
X107972142Y-137131785D01*
X107900714Y-137131785D01*
X107829285Y-137096071D01*
X107793571Y-137060357D01*
X107757857Y-136988928D01*
X107722142Y-136846071D01*
X107722142Y-136667500D01*
X107757857Y-136524642D01*
X107793571Y-136453214D01*
X107829285Y-136417500D01*
X107900714Y-136381785D01*
X97757857Y-137589285D02*
X97757857Y-138125000D01*
X97722142Y-138232142D01*
X97650714Y-138303571D01*
X97543571Y-138339285D01*
X97472142Y-138339285D01*
X98115000Y-138267857D02*
X98150714Y-138303571D01*
X98115000Y-138339285D01*
X98079285Y-138303571D01*
X98115000Y-138267857D01*
X98115000Y-138339285D01*
X99007857Y-138303571D02*
X99115000Y-138339285D01*
X99293571Y-138339285D01*
X99365000Y-138303571D01*
X99400714Y-138267857D01*
X99436428Y-138196428D01*
X99436428Y-138125000D01*
X99400714Y-138053571D01*
X99365000Y-138017857D01*
X99293571Y-137982142D01*
X99150714Y-137946428D01*
X99079285Y-137910714D01*
X99043571Y-137875000D01*
X99007857Y-137803571D01*
X99007857Y-137732142D01*
X99043571Y-137660714D01*
X99079285Y-137625000D01*
X99150714Y-137589285D01*
X99329285Y-137589285D01*
X99436428Y-137625000D01*
X99650714Y-137839285D02*
X99936428Y-137839285D01*
X99757857Y-137589285D02*
X99757857Y-138232142D01*
X99793571Y-138303571D01*
X99865000Y-138339285D01*
X99936428Y-138339285D01*
X100507857Y-137839285D02*
X100507857Y-138339285D01*
X100186428Y-137839285D02*
X100186428Y-138232142D01*
X100222142Y-138303571D01*
X100293571Y-138339285D01*
X100400714Y-138339285D01*
X100472142Y-138303571D01*
X100507857Y-138267857D01*
X101186428Y-138339285D02*
X101186428Y-137946428D01*
X101150714Y-137875000D01*
X101079285Y-137839285D01*
X100936428Y-137839285D01*
X100865000Y-137875000D01*
X101186428Y-138303571D02*
X101115000Y-138339285D01*
X100936428Y-138339285D01*
X100865000Y-138303571D01*
X100829285Y-138232142D01*
X100829285Y-138160714D01*
X100865000Y-138089285D01*
X100936428Y-138053571D01*
X101115000Y-138053571D01*
X101186428Y-138017857D01*
X101543571Y-138339285D02*
X101543571Y-137839285D01*
X101543571Y-137982142D02*
X101579285Y-137910714D01*
X101615000Y-137875000D01*
X101686428Y-137839285D01*
X101757857Y-137839285D01*
X101900714Y-137839285D02*
X102186428Y-137839285D01*
X102007857Y-137589285D02*
X102007857Y-138232142D01*
X102043571Y-138303571D01*
X102115000Y-138339285D01*
X102186428Y-138339285D01*
X97686428Y-138796785D02*
X97757857Y-138796785D01*
X97829285Y-138832500D01*
X97865000Y-138868214D01*
X97900714Y-138939642D01*
X97936428Y-139082500D01*
X97936428Y-139261071D01*
X97900714Y-139403928D01*
X97865000Y-139475357D01*
X97829285Y-139511071D01*
X97757857Y-139546785D01*
X97686428Y-139546785D01*
X97615000Y-139511071D01*
X97579285Y-139475357D01*
X97543571Y-139403928D01*
X97507857Y-139261071D01*
X97507857Y-139082500D01*
X97543571Y-138939642D01*
X97579285Y-138868214D01*
X97615000Y-138832500D01*
X97686428Y-138796785D01*
X98222142Y-138868214D02*
X98257857Y-138832500D01*
X98329285Y-138796785D01*
X98507857Y-138796785D01*
X98579285Y-138832500D01*
X98615000Y-138868214D01*
X98650714Y-138939642D01*
X98650714Y-139011071D01*
X98615000Y-139118214D01*
X98186428Y-139546785D01*
X98650714Y-139546785D01*
X99507857Y-138761071D02*
X98865000Y-139725357D01*
X99722142Y-138868214D02*
X99757857Y-138832500D01*
X99829285Y-138796785D01*
X100007857Y-138796785D01*
X100079285Y-138832500D01*
X100115000Y-138868214D01*
X100150714Y-138939642D01*
X100150714Y-139011071D01*
X100115000Y-139118214D01*
X99686428Y-139546785D01*
X100150714Y-139546785D01*
X100865000Y-139546785D02*
X100436428Y-139546785D01*
X100650714Y-139546785D02*
X100650714Y-138796785D01*
X100579285Y-138903928D01*
X100507857Y-138975357D01*
X100436428Y-139011071D01*
X101722142Y-138761071D02*
X101079285Y-139725357D01*
X101936428Y-138868214D02*
X101972142Y-138832500D01*
X102043571Y-138796785D01*
X102222142Y-138796785D01*
X102293571Y-138832500D01*
X102329285Y-138868214D01*
X102365000Y-138939642D01*
X102365000Y-139011071D01*
X102329285Y-139118214D01*
X101900714Y-139546785D01*
X102365000Y-139546785D01*
X102650714Y-138868214D02*
X102686428Y-138832500D01*
X102757857Y-138796785D01*
X102936428Y-138796785D01*
X103007857Y-138832500D01*
X103043571Y-138868214D01*
X103079285Y-138939642D01*
X103079285Y-139011071D01*
X103043571Y-139118214D01*
X102615000Y-139546785D01*
X103079285Y-139546785D01*
D11*
X89403333Y-135417142D02*
X89355714Y-135464761D01*
X89212857Y-135512380D01*
X89117619Y-135512380D01*
X88974761Y-135464761D01*
X88879523Y-135369523D01*
X88831904Y-135274285D01*
X88784285Y-135083809D01*
X88784285Y-134940952D01*
X88831904Y-134750476D01*
X88879523Y-134655238D01*
X88974761Y-134560000D01*
X89117619Y-134512380D01*
X89212857Y-134512380D01*
X89355714Y-134560000D01*
X89403333Y-134607619D01*
X89736666Y-134512380D02*
X90355714Y-134512380D01*
X90022380Y-134893333D01*
X90165238Y-134893333D01*
X90260476Y-134940952D01*
X90308095Y-134988571D01*
X90355714Y-135083809D01*
X90355714Y-135321904D01*
X90308095Y-135417142D01*
X90260476Y-135464761D01*
X90165238Y-135512380D01*
X89879523Y-135512380D01*
X89784285Y-135464761D01*
X89736666Y-135417142D01*
X94197142Y-142977142D02*
X94149523Y-143024761D01*
X94006666Y-143072380D01*
X93911428Y-143072380D01*
X93768571Y-143024761D01*
X93673333Y-142929523D01*
X93625714Y-142834285D01*
X93578095Y-142643809D01*
X93578095Y-142500952D01*
X93625714Y-142310476D01*
X93673333Y-142215238D01*
X93768571Y-142120000D01*
X93911428Y-142072380D01*
X94006666Y-142072380D01*
X94149523Y-142120000D01*
X94197142Y-142167619D01*
X95149523Y-143072380D02*
X94578095Y-143072380D01*
X94863809Y-143072380D02*
X94863809Y-142072380D01*
X94768571Y-142215238D01*
X94673333Y-142310476D01*
X94578095Y-142358095D01*
X95530476Y-142167619D02*
X95578095Y-142120000D01*
X95673333Y-142072380D01*
X95911428Y-142072380D01*
X96006666Y-142120000D01*
X96054285Y-142167619D01*
X96101904Y-142262857D01*
X96101904Y-142358095D01*
X96054285Y-142500952D01*
X95482857Y-143072380D01*
X96101904Y-143072380D01*
X88043333Y-126832380D02*
X87710000Y-126356190D01*
X87471904Y-126832380D02*
X87471904Y-125832380D01*
X87852857Y-125832380D01*
X87948095Y-125880000D01*
X87995714Y-125927619D01*
X88043333Y-126022857D01*
X88043333Y-126165714D01*
X87995714Y-126260952D01*
X87948095Y-126308571D01*
X87852857Y-126356190D01*
X87471904Y-126356190D01*
X88424285Y-125927619D02*
X88471904Y-125880000D01*
X88567142Y-125832380D01*
X88805238Y-125832380D01*
X88900476Y-125880000D01*
X88948095Y-125927619D01*
X88995714Y-126022857D01*
X88995714Y-126118095D01*
X88948095Y-126260952D01*
X88376666Y-126832380D01*
X88995714Y-126832380D01*
X86502380Y-132206666D02*
X86026190Y-132540000D01*
X86502380Y-132778095D02*
X85502380Y-132778095D01*
X85502380Y-132397142D01*
X85550000Y-132301904D01*
X85597619Y-132254285D01*
X85692857Y-132206666D01*
X85835714Y-132206666D01*
X85930952Y-132254285D01*
X85978571Y-132301904D01*
X86026190Y-132397142D01*
X86026190Y-132778095D01*
X85502380Y-131873333D02*
X85502380Y-131254285D01*
X85883333Y-131587619D01*
X85883333Y-131444761D01*
X85930952Y-131349523D01*
X85978571Y-131301904D01*
X86073809Y-131254285D01*
X86311904Y-131254285D01*
X86407142Y-131301904D01*
X86454761Y-131349523D01*
X86502380Y-131444761D01*
X86502380Y-131730476D01*
X86454761Y-131825714D01*
X86407142Y-131873333D01*
X92043333Y-135532380D02*
X91710000Y-135056190D01*
X91471904Y-135532380D02*
X91471904Y-134532380D01*
X91852857Y-134532380D01*
X91948095Y-134580000D01*
X91995714Y-134627619D01*
X92043333Y-134722857D01*
X92043333Y-134865714D01*
X91995714Y-134960952D01*
X91948095Y-135008571D01*
X91852857Y-135056190D01*
X91471904Y-135056190D01*
X92900476Y-134865714D02*
X92900476Y-135532380D01*
X92662380Y-134484761D02*
X92424285Y-135199047D01*
X93043333Y-135199047D01*
X91617142Y-148342380D02*
X91283809Y-147866190D01*
X91045714Y-148342380D02*
X91045714Y-147342380D01*
X91426666Y-147342380D01*
X91521904Y-147390000D01*
X91569523Y-147437619D01*
X91617142Y-147532857D01*
X91617142Y-147675714D01*
X91569523Y-147770952D01*
X91521904Y-147818571D01*
X91426666Y-147866190D01*
X91045714Y-147866190D01*
X92569523Y-148342380D02*
X91998095Y-148342380D01*
X92283809Y-148342380D02*
X92283809Y-147342380D01*
X92188571Y-147485238D01*
X92093333Y-147580476D01*
X91998095Y-147628095D01*
X92950476Y-147437619D02*
X92998095Y-147390000D01*
X93093333Y-147342380D01*
X93331428Y-147342380D01*
X93426666Y-147390000D01*
X93474285Y-147437619D01*
X93521904Y-147532857D01*
X93521904Y-147628095D01*
X93474285Y-147770952D01*
X92902857Y-148342380D01*
X93521904Y-148342380D01*
X86482380Y-145512857D02*
X86006190Y-145846190D01*
X86482380Y-146084285D02*
X85482380Y-146084285D01*
X85482380Y-145703333D01*
X85530000Y-145608095D01*
X85577619Y-145560476D01*
X85672857Y-145512857D01*
X85815714Y-145512857D01*
X85910952Y-145560476D01*
X85958571Y-145608095D01*
X86006190Y-145703333D01*
X86006190Y-146084285D01*
X86482380Y-144560476D02*
X86482380Y-145131904D01*
X86482380Y-144846190D02*
X85482380Y-144846190D01*
X85625238Y-144941428D01*
X85720476Y-145036666D01*
X85768095Y-145131904D01*
X86482380Y-143608095D02*
X86482380Y-144179523D01*
X86482380Y-143893809D02*
X85482380Y-143893809D01*
X85625238Y-143989047D01*
X85720476Y-144084285D01*
X85768095Y-144179523D01*
X87547142Y-139702380D02*
X87213809Y-139226190D01*
X86975714Y-139702380D02*
X86975714Y-138702380D01*
X87356666Y-138702380D01*
X87451904Y-138750000D01*
X87499523Y-138797619D01*
X87547142Y-138892857D01*
X87547142Y-139035714D01*
X87499523Y-139130952D01*
X87451904Y-139178571D01*
X87356666Y-139226190D01*
X86975714Y-139226190D01*
X88499523Y-139702380D02*
X87928095Y-139702380D01*
X88213809Y-139702380D02*
X88213809Y-138702380D01*
X88118571Y-138845238D01*
X88023333Y-138940476D01*
X87928095Y-138988095D01*
X89118571Y-138702380D02*
X89213809Y-138702380D01*
X89309047Y-138750000D01*
X89356666Y-138797619D01*
X89404285Y-138892857D01*
X89451904Y-139083333D01*
X89451904Y-139321428D01*
X89404285Y-139511904D01*
X89356666Y-139607142D01*
X89309047Y-139654761D01*
X89213809Y-139702380D01*
X89118571Y-139702380D01*
X89023333Y-139654761D01*
X88975714Y-139607142D01*
X88928095Y-139511904D01*
X88880476Y-139321428D01*
X88880476Y-139083333D01*
X88928095Y-138892857D01*
X88975714Y-138797619D01*
X89023333Y-138750000D01*
X89118571Y-138702380D01*
X88437142Y-148257142D02*
X88389523Y-148304761D01*
X88246666Y-148352380D01*
X88151428Y-148352380D01*
X88008571Y-148304761D01*
X87913333Y-148209523D01*
X87865714Y-148114285D01*
X87818095Y-147923809D01*
X87818095Y-147780952D01*
X87865714Y-147590476D01*
X87913333Y-147495238D01*
X88008571Y-147400000D01*
X88151428Y-147352380D01*
X88246666Y-147352380D01*
X88389523Y-147400000D01*
X88437142Y-147447619D01*
X89389523Y-148352380D02*
X88818095Y-148352380D01*
X89103809Y-148352380D02*
X89103809Y-147352380D01*
X89008571Y-147495238D01*
X88913333Y-147590476D01*
X88818095Y-147638095D01*
X90341904Y-148352380D02*
X89770476Y-148352380D01*
X90056190Y-148352380D02*
X90056190Y-147352380D01*
X89960952Y-147495238D01*
X89865714Y-147590476D01*
X89770476Y-147638095D01*
X86407142Y-129706666D02*
X86454761Y-129754285D01*
X86502380Y-129897142D01*
X86502380Y-129992380D01*
X86454761Y-130135238D01*
X86359523Y-130230476D01*
X86264285Y-130278095D01*
X86073809Y-130325714D01*
X85930952Y-130325714D01*
X85740476Y-130278095D01*
X85645238Y-130230476D01*
X85550000Y-130135238D01*
X85502380Y-129992380D01*
X85502380Y-129897142D01*
X85550000Y-129754285D01*
X85597619Y-129706666D01*
X85597619Y-129325714D02*
X85550000Y-129278095D01*
X85502380Y-129182857D01*
X85502380Y-128944761D01*
X85550000Y-128849523D01*
X85597619Y-128801904D01*
X85692857Y-128754285D01*
X85788095Y-128754285D01*
X85930952Y-128801904D01*
X86502380Y-129373333D01*
X86502380Y-128754285D01*
X93813333Y-139682380D02*
X93480000Y-139206190D01*
X93241904Y-139682380D02*
X93241904Y-138682380D01*
X93622857Y-138682380D01*
X93718095Y-138730000D01*
X93765714Y-138777619D01*
X93813333Y-138872857D01*
X93813333Y-139015714D01*
X93765714Y-139110952D01*
X93718095Y-139158571D01*
X93622857Y-139206190D01*
X93241904Y-139206190D01*
X94289523Y-139682380D02*
X94480000Y-139682380D01*
X94575238Y-139634761D01*
X94622857Y-139587142D01*
X94718095Y-139444285D01*
X94765714Y-139253809D01*
X94765714Y-138872857D01*
X94718095Y-138777619D01*
X94670476Y-138730000D01*
X94575238Y-138682380D01*
X94384761Y-138682380D01*
X94289523Y-138730000D01*
X94241904Y-138777619D01*
X94194285Y-138872857D01*
X94194285Y-139110952D01*
X94241904Y-139206190D01*
X94289523Y-139253809D01*
X94384761Y-139301428D01*
X94575238Y-139301428D01*
X94670476Y-139253809D01*
X94718095Y-139206190D01*
X94765714Y-139110952D01*
X91003333Y-126737142D02*
X90955714Y-126784761D01*
X90812857Y-126832380D01*
X90717619Y-126832380D01*
X90574761Y-126784761D01*
X90479523Y-126689523D01*
X90431904Y-126594285D01*
X90384285Y-126403809D01*
X90384285Y-126260952D01*
X90431904Y-126070476D01*
X90479523Y-125975238D01*
X90574761Y-125880000D01*
X90717619Y-125832380D01*
X90812857Y-125832380D01*
X90955714Y-125880000D01*
X91003333Y-125927619D01*
X91955714Y-126832380D02*
X91384285Y-126832380D01*
X91670000Y-126832380D02*
X91670000Y-125832380D01*
X91574761Y-125975238D01*
X91479523Y-126070476D01*
X91384285Y-126118095D01*
X93833333Y-126832380D02*
X93500000Y-126356190D01*
X93261904Y-126832380D02*
X93261904Y-125832380D01*
X93642857Y-125832380D01*
X93738095Y-125880000D01*
X93785714Y-125927619D01*
X93833333Y-126022857D01*
X93833333Y-126165714D01*
X93785714Y-126260952D01*
X93738095Y-126308571D01*
X93642857Y-126356190D01*
X93261904Y-126356190D01*
X94785714Y-126832380D02*
X94214285Y-126832380D01*
X94500000Y-126832380D02*
X94500000Y-125832380D01*
X94404761Y-125975238D01*
X94309523Y-126070476D01*
X94214285Y-126118095D01*
X94643333Y-130237142D02*
X94595714Y-130284761D01*
X94452857Y-130332380D01*
X94357619Y-130332380D01*
X94214761Y-130284761D01*
X94119523Y-130189523D01*
X94071904Y-130094285D01*
X94024285Y-129903809D01*
X94024285Y-129760952D01*
X94071904Y-129570476D01*
X94119523Y-129475238D01*
X94214761Y-129380000D01*
X94357619Y-129332380D01*
X94452857Y-129332380D01*
X94595714Y-129380000D01*
X94643333Y-129427619D01*
X95500476Y-129665714D02*
X95500476Y-130332380D01*
X95262380Y-129284761D02*
X95024285Y-129999047D01*
X95643333Y-129999047D01*
X91003333Y-139597142D02*
X90955714Y-139644761D01*
X90812857Y-139692380D01*
X90717619Y-139692380D01*
X90574761Y-139644761D01*
X90479523Y-139549523D01*
X90431904Y-139454285D01*
X90384285Y-139263809D01*
X90384285Y-139120952D01*
X90431904Y-138930476D01*
X90479523Y-138835238D01*
X90574761Y-138740000D01*
X90717619Y-138692380D01*
X90812857Y-138692380D01*
X90955714Y-138740000D01*
X91003333Y-138787619D01*
X91479523Y-139692380D02*
X91670000Y-139692380D01*
X91765238Y-139644761D01*
X91812857Y-139597142D01*
X91908095Y-139454285D01*
X91955714Y-139263809D01*
X91955714Y-138882857D01*
X91908095Y-138787619D01*
X91860476Y-138740000D01*
X91765238Y-138692380D01*
X91574761Y-138692380D01*
X91479523Y-138740000D01*
X91431904Y-138787619D01*
X91384285Y-138882857D01*
X91384285Y-139120952D01*
X91431904Y-139216190D01*
X91479523Y-139263809D01*
X91574761Y-139311428D01*
X91765238Y-139311428D01*
X91860476Y-139263809D01*
X91908095Y-139216190D01*
X91955714Y-139120952D01*
X86407142Y-142472857D02*
X86454761Y-142520476D01*
X86502380Y-142663333D01*
X86502380Y-142758571D01*
X86454761Y-142901428D01*
X86359523Y-142996666D01*
X86264285Y-143044285D01*
X86073809Y-143091904D01*
X85930952Y-143091904D01*
X85740476Y-143044285D01*
X85645238Y-142996666D01*
X85550000Y-142901428D01*
X85502380Y-142758571D01*
X85502380Y-142663333D01*
X85550000Y-142520476D01*
X85597619Y-142472857D01*
X86502380Y-141520476D02*
X86502380Y-142091904D01*
X86502380Y-141806190D02*
X85502380Y-141806190D01*
X85645238Y-141901428D01*
X85740476Y-141996666D01*
X85788095Y-142091904D01*
X85502380Y-140901428D02*
X85502380Y-140806190D01*
X85550000Y-140710952D01*
X85597619Y-140663333D01*
X85692857Y-140615714D01*
X85883333Y-140568095D01*
X86121428Y-140568095D01*
X86311904Y-140615714D01*
X86407142Y-140663333D01*
X86454761Y-140710952D01*
X86502380Y-140806190D01*
X86502380Y-140901428D01*
X86454761Y-140996666D01*
X86407142Y-141044285D01*
X86311904Y-141091904D01*
X86121428Y-141139523D01*
X85883333Y-141139523D01*
X85692857Y-141091904D01*
X85597619Y-141044285D01*
X85550000Y-140996666D01*
X85502380Y-140901428D01*
D12*
X90080000Y-132150580D02*
X90080000Y-131869420D01*
X89060000Y-132150580D02*
X89060000Y-131869420D01*
X94330000Y-145030580D02*
X94330000Y-144749420D01*
X95350000Y-145030580D02*
X95350000Y-144749420D01*
X87972742Y-128322500D02*
X88447258Y-128322500D01*
X87972742Y-127277500D02*
X88447258Y-127277500D01*
X87942500Y-132247258D02*
X87942500Y-131772742D01*
X86897500Y-132247258D02*
X86897500Y-131772742D01*
X92467258Y-133312500D02*
X91992742Y-133312500D01*
X92467258Y-132267500D02*
X91992742Y-132267500D01*
X92022742Y-146212500D02*
X92497258Y-146212500D01*
X92022742Y-145167500D02*
X92497258Y-145167500D01*
X87952500Y-144632742D02*
X87952500Y-145107258D01*
X86907500Y-144632742D02*
X86907500Y-145107258D01*
X88447258Y-140147500D02*
X87972742Y-140147500D01*
X88447258Y-141192500D02*
X87972742Y-141192500D01*
X90100000Y-145030580D02*
X90100000Y-144749420D01*
X89080000Y-145030580D02*
X89080000Y-144749420D01*
X88049420Y-129030000D02*
X88330580Y-129030000D01*
X88049420Y-130050000D02*
X88330580Y-130050000D01*
X94227258Y-140147500D02*
X93752742Y-140147500D01*
X94227258Y-141192500D02*
X93752742Y-141192500D01*
X90670000Y-128439420D02*
X90670000Y-128720580D01*
X91690000Y-128439420D02*
X91690000Y-128720580D01*
X93762742Y-127277500D02*
X94237258Y-127277500D01*
X93762742Y-128322500D02*
X94237258Y-128322500D01*
X95320000Y-132170580D02*
X95320000Y-131889420D01*
X94300000Y-132170580D02*
X94300000Y-131889420D01*
X91680000Y-141289420D02*
X91680000Y-141570580D01*
X90660000Y-141289420D02*
X90660000Y-141570580D01*
X88059420Y-142900000D02*
X88340580Y-142900000D01*
X88059420Y-141880000D02*
X88340580Y-141880000D01*
M02*
