M48
; DRILL file {KiCad (6.0.0)} date Tue Feb 22 08:31:55 2022
; FORMAT={-:-/ absolute / inch / decimal}
; #@! TF.CreationDate,2022-02-22T08:31:55+01:00
; #@! TF.GenerationSoftware,Kicad,Pcbnew,(6.0.0)
; #@! TF.FileFunction,MixedPlating,1,4
FMAT,2
INCH
; #@! TA.AperFunction,Plated,PTH,ViaDrill
T1C0.0150
%
G90
G05
T1
X3.4252Y-5.4307
X3.485Y-5.1791
X3.4852Y-5.6854
X3.511Y-5.4307
X3.5394Y-5.0846
X3.5437Y-5.2768
X3.5441Y-5.7791
X3.5469Y-5.5823
X3.5685Y-5.6854
X3.5697Y-5.1791
X3.6295Y-5.2772
X3.6323Y-5.0831
X3.6327Y-5.4307
X3.6327Y-5.5827
X3.637Y-5.7748
X3.6913Y-5.1791
X3.6917Y-5.6854
X3.7185Y-5.4307
X4.0783Y-5.4307
X4.1642Y-5.4307
T0
M30
