G04 #@! TF.GenerationSoftware,KiCad,Pcbnew,(6.0.0)*
G04 #@! TF.CreationDate,2022-02-22T08:31:50+01:00*
G04 #@! TF.ProjectId,FilterDaughterboard,46696c74-6572-4446-9175-676874657262,rev?*
G04 #@! TF.SameCoordinates,Original*
G04 #@! TF.FileFunction,Soldermask,Bot*
G04 #@! TF.FilePolarity,Negative*
%FSLAX46Y46*%
G04 Gerber Fmt 4.6, Leading zero omitted, Abs format (unit mm)*
G04 Created by KiCad (PCBNEW (6.0.0)) date 2022-02-22 08:31:50*
%MOMM*%
%LPD*%
G01*
G04 APERTURE LIST*
G04 Aperture macros list*
%AMRoundRect*
0 Rectangle with rounded corners*
0 $1 Rounding radius*
0 $2 $3 $4 $5 $6 $7 $8 $9 X,Y pos of 4 corners*
0 Add a 4 corners polygon primitive as box body*
4,1,4,$2,$3,$4,$5,$6,$7,$8,$9,$2,$3,0*
0 Add four circle primitives for the rounded corners*
1,1,$1+$1,$2,$3*
1,1,$1+$1,$4,$5*
1,1,$1+$1,$6,$7*
1,1,$1+$1,$8,$9*
0 Add four rect primitives between the rounded corners*
20,1,$1+$1,$2,$3,$4,$5,0*
20,1,$1+$1,$4,$5,$6,$7,0*
20,1,$1+$1,$6,$7,$8,$9,0*
20,1,$1+$1,$8,$9,$2,$3,0*%
G04 Aperture macros list end*
%ADD10R,10.000000X1.500000*%
%ADD11R,11.999999X1.500000*%
%ADD12RoundRect,0.225000X0.250000X-0.225000X0.250000X0.225000X-0.250000X0.225000X-0.250000X-0.225000X0*%
%ADD13RoundRect,0.225000X-0.225000X-0.250000X0.225000X-0.250000X0.225000X0.250000X-0.225000X0.250000X0*%
%ADD14RoundRect,0.200000X-0.200000X-0.275000X0.200000X-0.275000X0.200000X0.275000X-0.200000X0.275000X0*%
%ADD15RoundRect,0.200000X-0.275000X0.200000X-0.275000X-0.200000X0.275000X-0.200000X0.275000X0.200000X0*%
%ADD16RoundRect,0.200000X0.200000X0.275000X-0.200000X0.275000X-0.200000X-0.275000X0.200000X-0.275000X0*%
%ADD17RoundRect,0.225000X-0.250000X0.225000X-0.250000X-0.225000X0.250000X-0.225000X0.250000X0.225000X0*%
G04 APERTURE END LIST*
D10*
X104612200Y-127787400D03*
D11*
X103612200Y-130287400D03*
X103612200Y-132787400D03*
X103612200Y-135287400D03*
X103612200Y-140687400D03*
X103612200Y-143187400D03*
X103612200Y-145687400D03*
X103612200Y-148187400D03*
D12*
X91150000Y-135285000D03*
X91150000Y-133735000D03*
D13*
X87365000Y-146510000D03*
X88915000Y-146510000D03*
D14*
X87385000Y-135300000D03*
X89035000Y-135300000D03*
D15*
X87420000Y-130245000D03*
X87420000Y-131895000D03*
D16*
X93045000Y-130290000D03*
X91395000Y-130290000D03*
D14*
X93195000Y-148200000D03*
X94845000Y-148200000D03*
X87365000Y-148240000D03*
X89015000Y-148240000D03*
D15*
X87370000Y-143205000D03*
X87370000Y-144855000D03*
D13*
X87425000Y-133470000D03*
X88975000Y-133470000D03*
D17*
X94830000Y-130295000D03*
X94830000Y-131845000D03*
X94820000Y-143185000D03*
X94820000Y-144735000D03*
D14*
X93175000Y-135300000D03*
X94825000Y-135300000D03*
D12*
X91160000Y-148235000D03*
X91160000Y-146685000D03*
D16*
X93095000Y-143180000D03*
X91445000Y-143180000D03*
D17*
X89600000Y-130285000D03*
X89600000Y-131835000D03*
X89590000Y-143195000D03*
X89590000Y-144745000D03*
M02*
