G04 #@! TF.GenerationSoftware,KiCad,Pcbnew,(6.0.0)*
G04 #@! TF.CreationDate,2022-02-22T08:31:50+01:00*
G04 #@! TF.ProjectId,FilterDaughterboard,46696c74-6572-4446-9175-676874657262,rev?*
G04 #@! TF.SameCoordinates,Original*
G04 #@! TF.FileFunction,Legend,Bot*
G04 #@! TF.FilePolarity,Positive*
%FSLAX46Y46*%
G04 Gerber Fmt 4.6, Leading zero omitted, Abs format (unit mm)*
G04 Created by KiCad (PCBNEW (6.0.0)) date 2022-02-22 08:31:50*
%MOMM*%
%LPD*%
G01*
G04 APERTURE LIST*
%ADD10C,0.150000*%
%ADD11C,0.120000*%
G04 APERTURE END LIST*
D10*
X91316666Y-137147142D02*
X91364285Y-137194761D01*
X91507142Y-137242380D01*
X91602380Y-137242380D01*
X91745238Y-137194761D01*
X91840476Y-137099523D01*
X91888095Y-137004285D01*
X91935714Y-136813809D01*
X91935714Y-136670952D01*
X91888095Y-136480476D01*
X91840476Y-136385238D01*
X91745238Y-136290000D01*
X91602380Y-136242380D01*
X91507142Y-136242380D01*
X91364285Y-136290000D01*
X91316666Y-136337619D01*
X90411904Y-136242380D02*
X90888095Y-136242380D01*
X90935714Y-136718571D01*
X90888095Y-136670952D01*
X90792857Y-136623333D01*
X90554761Y-136623333D01*
X90459523Y-136670952D01*
X90411904Y-136718571D01*
X90364285Y-136813809D01*
X90364285Y-137051904D01*
X90411904Y-137147142D01*
X90459523Y-137194761D01*
X90554761Y-137242380D01*
X90792857Y-137242380D01*
X90888095Y-137194761D01*
X90935714Y-137147142D01*
X86337142Y-146537142D02*
X86384761Y-146489523D01*
X86432380Y-146346666D01*
X86432380Y-146251428D01*
X86384761Y-146108571D01*
X86289523Y-146013333D01*
X86194285Y-145965714D01*
X86003809Y-145918095D01*
X85860952Y-145918095D01*
X85670476Y-145965714D01*
X85575238Y-146013333D01*
X85480000Y-146108571D01*
X85432380Y-146251428D01*
X85432380Y-146346666D01*
X85480000Y-146489523D01*
X85527619Y-146537142D01*
X86432380Y-147489523D02*
X86432380Y-146918095D01*
X86432380Y-147203809D02*
X85432380Y-147203809D01*
X85575238Y-147108571D01*
X85670476Y-147013333D01*
X85718095Y-146918095D01*
X85765714Y-148346666D02*
X86432380Y-148346666D01*
X85384761Y-148108571D02*
X86099047Y-147870476D01*
X86099047Y-148489523D01*
X88376666Y-137182380D02*
X88710000Y-136706190D01*
X88948095Y-137182380D02*
X88948095Y-136182380D01*
X88567142Y-136182380D01*
X88471904Y-136230000D01*
X88424285Y-136277619D01*
X88376666Y-136372857D01*
X88376666Y-136515714D01*
X88424285Y-136610952D01*
X88471904Y-136658571D01*
X88567142Y-136706190D01*
X88948095Y-136706190D01*
X87519523Y-136182380D02*
X87710000Y-136182380D01*
X87805238Y-136230000D01*
X87852857Y-136277619D01*
X87948095Y-136420476D01*
X87995714Y-136610952D01*
X87995714Y-136991904D01*
X87948095Y-137087142D01*
X87900476Y-137134761D01*
X87805238Y-137182380D01*
X87614761Y-137182380D01*
X87519523Y-137134761D01*
X87471904Y-137087142D01*
X87424285Y-136991904D01*
X87424285Y-136753809D01*
X87471904Y-136658571D01*
X87519523Y-136610952D01*
X87614761Y-136563333D01*
X87805238Y-136563333D01*
X87900476Y-136610952D01*
X87948095Y-136658571D01*
X87995714Y-136753809D01*
X85926666Y-131522380D02*
X86260000Y-131046190D01*
X86498095Y-131522380D02*
X86498095Y-130522380D01*
X86117142Y-130522380D01*
X86021904Y-130570000D01*
X85974285Y-130617619D01*
X85926666Y-130712857D01*
X85926666Y-130855714D01*
X85974285Y-130950952D01*
X86021904Y-130998571D01*
X86117142Y-131046190D01*
X86498095Y-131046190D01*
X85593333Y-130522380D02*
X84926666Y-130522380D01*
X85355238Y-131522380D01*
X92386666Y-128572380D02*
X92720000Y-128096190D01*
X92958095Y-128572380D02*
X92958095Y-127572380D01*
X92577142Y-127572380D01*
X92481904Y-127620000D01*
X92434285Y-127667619D01*
X92386666Y-127762857D01*
X92386666Y-127905714D01*
X92434285Y-128000952D01*
X92481904Y-128048571D01*
X92577142Y-128096190D01*
X92958095Y-128096190D01*
X91815238Y-128000952D02*
X91910476Y-127953333D01*
X91958095Y-127905714D01*
X92005714Y-127810476D01*
X92005714Y-127762857D01*
X91958095Y-127667619D01*
X91910476Y-127620000D01*
X91815238Y-127572380D01*
X91624761Y-127572380D01*
X91529523Y-127620000D01*
X91481904Y-127667619D01*
X91434285Y-127762857D01*
X91434285Y-127810476D01*
X91481904Y-127905714D01*
X91529523Y-127953333D01*
X91624761Y-128000952D01*
X91815238Y-128000952D01*
X91910476Y-128048571D01*
X91958095Y-128096190D01*
X92005714Y-128191428D01*
X92005714Y-128381904D01*
X91958095Y-128477142D01*
X91910476Y-128524761D01*
X91815238Y-128572380D01*
X91624761Y-128572380D01*
X91529523Y-128524761D01*
X91481904Y-128477142D01*
X91434285Y-128381904D01*
X91434285Y-128191428D01*
X91481904Y-128096190D01*
X91529523Y-128048571D01*
X91624761Y-128000952D01*
X94662857Y-150082380D02*
X94996190Y-149606190D01*
X95234285Y-150082380D02*
X95234285Y-149082380D01*
X94853333Y-149082380D01*
X94758095Y-149130000D01*
X94710476Y-149177619D01*
X94662857Y-149272857D01*
X94662857Y-149415714D01*
X94710476Y-149510952D01*
X94758095Y-149558571D01*
X94853333Y-149606190D01*
X95234285Y-149606190D01*
X93710476Y-150082380D02*
X94281904Y-150082380D01*
X93996190Y-150082380D02*
X93996190Y-149082380D01*
X94091428Y-149225238D01*
X94186666Y-149320476D01*
X94281904Y-149368095D01*
X93377142Y-149082380D02*
X92758095Y-149082380D01*
X93091428Y-149463333D01*
X92948571Y-149463333D01*
X92853333Y-149510952D01*
X92805714Y-149558571D01*
X92758095Y-149653809D01*
X92758095Y-149891904D01*
X92805714Y-149987142D01*
X92853333Y-150034761D01*
X92948571Y-150082380D01*
X93234285Y-150082380D01*
X93329523Y-150034761D01*
X93377142Y-149987142D01*
X88822857Y-150052380D02*
X89156190Y-149576190D01*
X89394285Y-150052380D02*
X89394285Y-149052380D01*
X89013333Y-149052380D01*
X88918095Y-149100000D01*
X88870476Y-149147619D01*
X88822857Y-149242857D01*
X88822857Y-149385714D01*
X88870476Y-149480952D01*
X88918095Y-149528571D01*
X89013333Y-149576190D01*
X89394285Y-149576190D01*
X87870476Y-150052380D02*
X88441904Y-150052380D01*
X88156190Y-150052380D02*
X88156190Y-149052380D01*
X88251428Y-149195238D01*
X88346666Y-149290476D01*
X88441904Y-149338095D01*
X87013333Y-149385714D02*
X87013333Y-150052380D01*
X87251428Y-149004761D02*
X87489523Y-149719047D01*
X86870476Y-149719047D01*
X86452380Y-143367142D02*
X85976190Y-143033809D01*
X86452380Y-142795714D02*
X85452380Y-142795714D01*
X85452380Y-143176666D01*
X85500000Y-143271904D01*
X85547619Y-143319523D01*
X85642857Y-143367142D01*
X85785714Y-143367142D01*
X85880952Y-143319523D01*
X85928571Y-143271904D01*
X85976190Y-143176666D01*
X85976190Y-142795714D01*
X86452380Y-144319523D02*
X86452380Y-143748095D01*
X86452380Y-144033809D02*
X85452380Y-144033809D01*
X85595238Y-143938571D01*
X85690476Y-143843333D01*
X85738095Y-143748095D01*
X85452380Y-145224285D02*
X85452380Y-144748095D01*
X85928571Y-144700476D01*
X85880952Y-144748095D01*
X85833333Y-144843333D01*
X85833333Y-145081428D01*
X85880952Y-145176666D01*
X85928571Y-145224285D01*
X86023809Y-145271904D01*
X86261904Y-145271904D01*
X86357142Y-145224285D01*
X86404761Y-145176666D01*
X86452380Y-145081428D01*
X86452380Y-144843333D01*
X86404761Y-144748095D01*
X86357142Y-144700476D01*
X85896666Y-133847142D02*
X85944285Y-133894761D01*
X86087142Y-133942380D01*
X86182380Y-133942380D01*
X86325238Y-133894761D01*
X86420476Y-133799523D01*
X86468095Y-133704285D01*
X86515714Y-133513809D01*
X86515714Y-133370952D01*
X86468095Y-133180476D01*
X86420476Y-133085238D01*
X86325238Y-132990000D01*
X86182380Y-132942380D01*
X86087142Y-132942380D01*
X85944285Y-132990000D01*
X85896666Y-133037619D01*
X85039523Y-132942380D02*
X85230000Y-132942380D01*
X85325238Y-132990000D01*
X85372857Y-133037619D01*
X85468095Y-133180476D01*
X85515714Y-133370952D01*
X85515714Y-133751904D01*
X85468095Y-133847142D01*
X85420476Y-133894761D01*
X85325238Y-133942380D01*
X85134761Y-133942380D01*
X85039523Y-133894761D01*
X84991904Y-133847142D01*
X84944285Y-133751904D01*
X84944285Y-133513809D01*
X84991904Y-133418571D01*
X85039523Y-133370952D01*
X85134761Y-133323333D01*
X85325238Y-133323333D01*
X85420476Y-133370952D01*
X85468095Y-133418571D01*
X85515714Y-133513809D01*
X94996666Y-133627142D02*
X95044285Y-133674761D01*
X95187142Y-133722380D01*
X95282380Y-133722380D01*
X95425238Y-133674761D01*
X95520476Y-133579523D01*
X95568095Y-133484285D01*
X95615714Y-133293809D01*
X95615714Y-133150952D01*
X95568095Y-132960476D01*
X95520476Y-132865238D01*
X95425238Y-132770000D01*
X95282380Y-132722380D01*
X95187142Y-132722380D01*
X95044285Y-132770000D01*
X94996666Y-132817619D01*
X94425238Y-133150952D02*
X94520476Y-133103333D01*
X94568095Y-133055714D01*
X94615714Y-132960476D01*
X94615714Y-132912857D01*
X94568095Y-132817619D01*
X94520476Y-132770000D01*
X94425238Y-132722380D01*
X94234761Y-132722380D01*
X94139523Y-132770000D01*
X94091904Y-132817619D01*
X94044285Y-132912857D01*
X94044285Y-132960476D01*
X94091904Y-133055714D01*
X94139523Y-133103333D01*
X94234761Y-133150952D01*
X94425238Y-133150952D01*
X94520476Y-133198571D01*
X94568095Y-133246190D01*
X94615714Y-133341428D01*
X94615714Y-133531904D01*
X94568095Y-133627142D01*
X94520476Y-133674761D01*
X94425238Y-133722380D01*
X94234761Y-133722380D01*
X94139523Y-133674761D01*
X94091904Y-133627142D01*
X94044285Y-133531904D01*
X94044285Y-133341428D01*
X94091904Y-133246190D01*
X94139523Y-133198571D01*
X94234761Y-133150952D01*
X95472857Y-146457142D02*
X95520476Y-146504761D01*
X95663333Y-146552380D01*
X95758571Y-146552380D01*
X95901428Y-146504761D01*
X95996666Y-146409523D01*
X96044285Y-146314285D01*
X96091904Y-146123809D01*
X96091904Y-145980952D01*
X96044285Y-145790476D01*
X95996666Y-145695238D01*
X95901428Y-145600000D01*
X95758571Y-145552380D01*
X95663333Y-145552380D01*
X95520476Y-145600000D01*
X95472857Y-145647619D01*
X94520476Y-146552380D02*
X95091904Y-146552380D01*
X94806190Y-146552380D02*
X94806190Y-145552380D01*
X94901428Y-145695238D01*
X94996666Y-145790476D01*
X95091904Y-145838095D01*
X93663333Y-145552380D02*
X93853809Y-145552380D01*
X93949047Y-145600000D01*
X93996666Y-145647619D01*
X94091904Y-145790476D01*
X94139523Y-145980952D01*
X94139523Y-146361904D01*
X94091904Y-146457142D01*
X94044285Y-146504761D01*
X93949047Y-146552380D01*
X93758571Y-146552380D01*
X93663333Y-146504761D01*
X93615714Y-146457142D01*
X93568095Y-146361904D01*
X93568095Y-146123809D01*
X93615714Y-146028571D01*
X93663333Y-145980952D01*
X93758571Y-145933333D01*
X93949047Y-145933333D01*
X94044285Y-145980952D01*
X94091904Y-146028571D01*
X94139523Y-146123809D01*
X94166666Y-137182380D02*
X94500000Y-136706190D01*
X94738095Y-137182380D02*
X94738095Y-136182380D01*
X94357142Y-136182380D01*
X94261904Y-136230000D01*
X94214285Y-136277619D01*
X94166666Y-136372857D01*
X94166666Y-136515714D01*
X94214285Y-136610952D01*
X94261904Y-136658571D01*
X94357142Y-136706190D01*
X94738095Y-136706190D01*
X93261904Y-136182380D02*
X93738095Y-136182380D01*
X93785714Y-136658571D01*
X93738095Y-136610952D01*
X93642857Y-136563333D01*
X93404761Y-136563333D01*
X93309523Y-136610952D01*
X93261904Y-136658571D01*
X93214285Y-136753809D01*
X93214285Y-136991904D01*
X93261904Y-137087142D01*
X93309523Y-137134761D01*
X93404761Y-137182380D01*
X93642857Y-137182380D01*
X93738095Y-137134761D01*
X93785714Y-137087142D01*
X91802857Y-149977142D02*
X91850476Y-150024761D01*
X91993333Y-150072380D01*
X92088571Y-150072380D01*
X92231428Y-150024761D01*
X92326666Y-149929523D01*
X92374285Y-149834285D01*
X92421904Y-149643809D01*
X92421904Y-149500952D01*
X92374285Y-149310476D01*
X92326666Y-149215238D01*
X92231428Y-149120000D01*
X92088571Y-149072380D01*
X91993333Y-149072380D01*
X91850476Y-149120000D01*
X91802857Y-149167619D01*
X90850476Y-150072380D02*
X91421904Y-150072380D01*
X91136190Y-150072380D02*
X91136190Y-149072380D01*
X91231428Y-149215238D01*
X91326666Y-149310476D01*
X91421904Y-149358095D01*
X90517142Y-149072380D02*
X89898095Y-149072380D01*
X90231428Y-149453333D01*
X90088571Y-149453333D01*
X89993333Y-149500952D01*
X89945714Y-149548571D01*
X89898095Y-149643809D01*
X89898095Y-149881904D01*
X89945714Y-149977142D01*
X89993333Y-150024761D01*
X90088571Y-150072380D01*
X90374285Y-150072380D01*
X90469523Y-150024761D01*
X90517142Y-149977142D01*
X92912857Y-141302380D02*
X93246190Y-140826190D01*
X93484285Y-141302380D02*
X93484285Y-140302380D01*
X93103333Y-140302380D01*
X93008095Y-140350000D01*
X92960476Y-140397619D01*
X92912857Y-140492857D01*
X92912857Y-140635714D01*
X92960476Y-140730952D01*
X93008095Y-140778571D01*
X93103333Y-140826190D01*
X93484285Y-140826190D01*
X91960476Y-141302380D02*
X92531904Y-141302380D01*
X92246190Y-141302380D02*
X92246190Y-140302380D01*
X92341428Y-140445238D01*
X92436666Y-140540476D01*
X92531904Y-140588095D01*
X91103333Y-140302380D02*
X91293809Y-140302380D01*
X91389047Y-140350000D01*
X91436666Y-140397619D01*
X91531904Y-140540476D01*
X91579523Y-140730952D01*
X91579523Y-141111904D01*
X91531904Y-141207142D01*
X91484285Y-141254761D01*
X91389047Y-141302380D01*
X91198571Y-141302380D01*
X91103333Y-141254761D01*
X91055714Y-141207142D01*
X91008095Y-141111904D01*
X91008095Y-140873809D01*
X91055714Y-140778571D01*
X91103333Y-140730952D01*
X91198571Y-140683333D01*
X91389047Y-140683333D01*
X91484285Y-140730952D01*
X91531904Y-140778571D01*
X91579523Y-140873809D01*
X89756666Y-128507142D02*
X89804285Y-128554761D01*
X89947142Y-128602380D01*
X90042380Y-128602380D01*
X90185238Y-128554761D01*
X90280476Y-128459523D01*
X90328095Y-128364285D01*
X90375714Y-128173809D01*
X90375714Y-128030952D01*
X90328095Y-127840476D01*
X90280476Y-127745238D01*
X90185238Y-127650000D01*
X90042380Y-127602380D01*
X89947142Y-127602380D01*
X89804285Y-127650000D01*
X89756666Y-127697619D01*
X89423333Y-127602380D02*
X88756666Y-127602380D01*
X89185238Y-128602380D01*
X89782857Y-141207142D02*
X89830476Y-141254761D01*
X89973333Y-141302380D01*
X90068571Y-141302380D01*
X90211428Y-141254761D01*
X90306666Y-141159523D01*
X90354285Y-141064285D01*
X90401904Y-140873809D01*
X90401904Y-140730952D01*
X90354285Y-140540476D01*
X90306666Y-140445238D01*
X90211428Y-140350000D01*
X90068571Y-140302380D01*
X89973333Y-140302380D01*
X89830476Y-140350000D01*
X89782857Y-140397619D01*
X88830476Y-141302380D02*
X89401904Y-141302380D01*
X89116190Y-141302380D02*
X89116190Y-140302380D01*
X89211428Y-140445238D01*
X89306666Y-140540476D01*
X89401904Y-140588095D01*
X87925714Y-140302380D02*
X88401904Y-140302380D01*
X88449523Y-140778571D01*
X88401904Y-140730952D01*
X88306666Y-140683333D01*
X88068571Y-140683333D01*
X87973333Y-140730952D01*
X87925714Y-140778571D01*
X87878095Y-140873809D01*
X87878095Y-141111904D01*
X87925714Y-141207142D01*
X87973333Y-141254761D01*
X88068571Y-141302380D01*
X88306666Y-141302380D01*
X88401904Y-141254761D01*
X88449523Y-141207142D01*
D11*
X91660000Y-134650580D02*
X91660000Y-134369420D01*
X90640000Y-134650580D02*
X90640000Y-134369420D01*
X87999420Y-146000000D02*
X88280580Y-146000000D01*
X87999420Y-147020000D02*
X88280580Y-147020000D01*
X87972742Y-134777500D02*
X88447258Y-134777500D01*
X87972742Y-135822500D02*
X88447258Y-135822500D01*
X86897500Y-130832742D02*
X86897500Y-131307258D01*
X87942500Y-130832742D02*
X87942500Y-131307258D01*
X92457258Y-130812500D02*
X91982742Y-130812500D01*
X92457258Y-129767500D02*
X91982742Y-129767500D01*
X93782742Y-147677500D02*
X94257258Y-147677500D01*
X93782742Y-148722500D02*
X94257258Y-148722500D01*
X87952742Y-147717500D02*
X88427258Y-147717500D01*
X87952742Y-148762500D02*
X88427258Y-148762500D01*
X87892500Y-143792742D02*
X87892500Y-144267258D01*
X86847500Y-143792742D02*
X86847500Y-144267258D01*
X88059420Y-132960000D02*
X88340580Y-132960000D01*
X88059420Y-133980000D02*
X88340580Y-133980000D01*
X94320000Y-130929420D02*
X94320000Y-131210580D01*
X95340000Y-130929420D02*
X95340000Y-131210580D01*
X95330000Y-143819420D02*
X95330000Y-144100580D01*
X94310000Y-143819420D02*
X94310000Y-144100580D01*
X93762742Y-135822500D02*
X94237258Y-135822500D01*
X93762742Y-134777500D02*
X94237258Y-134777500D01*
X91670000Y-147600580D02*
X91670000Y-147319420D01*
X90650000Y-147600580D02*
X90650000Y-147319420D01*
X92507258Y-143702500D02*
X92032742Y-143702500D01*
X92507258Y-142657500D02*
X92032742Y-142657500D01*
X89090000Y-130919420D02*
X89090000Y-131200580D01*
X90110000Y-130919420D02*
X90110000Y-131200580D01*
X90100000Y-143829420D02*
X90100000Y-144110580D01*
X89080000Y-143829420D02*
X89080000Y-144110580D01*
M02*
