G04 #@! TF.GenerationSoftware,KiCad,Pcbnew,(6.0.0)*
G04 #@! TF.CreationDate,2022-02-22T08:31:50+01:00*
G04 #@! TF.ProjectId,FilterDaughterboard,46696c74-6572-4446-9175-676874657262,rev?*
G04 #@! TF.SameCoordinates,Original*
G04 #@! TF.FileFunction,Copper,L2,Inr*
G04 #@! TF.FilePolarity,Positive*
%FSLAX46Y46*%
G04 Gerber Fmt 4.6, Leading zero omitted, Abs format (unit mm)*
G04 Created by KiCad (PCBNEW (6.0.0)) date 2022-02-22 08:31:50*
%MOMM*%
%LPD*%
G01*
G04 APERTURE LIST*
G04 #@! TA.AperFunction,ViaPad*
%ADD10C,0.762000*%
G04 #@! TD*
G04 APERTURE END LIST*
D10*
X88520000Y-131550000D03*
X103590000Y-137940000D03*
X92190000Y-134040000D03*
X90010000Y-134030000D03*
X90670000Y-131550000D03*
X93760000Y-131550000D03*
X105770000Y-137940000D03*
X88524078Y-144410000D03*
X93770000Y-144410000D03*
X92380000Y-146680000D03*
X87000000Y-137940000D03*
X89900000Y-129150000D03*
X92260000Y-129110000D03*
X89180000Y-137940000D03*
X94450000Y-137940000D03*
X90090000Y-141790000D03*
X92270000Y-137940000D03*
X92270000Y-141800000D03*
X90640000Y-144410000D03*
X90020000Y-146790000D03*
G04 #@! TA.AperFunction,Conductor*
G36*
X96030321Y-123921202D02*
G01*
X96076814Y-123974858D01*
X96088200Y-124027200D01*
X96088200Y-126517400D01*
X96283738Y-126517400D01*
X96351859Y-126537402D01*
X96397274Y-126588759D01*
X96400800Y-126596085D01*
X96403956Y-126609921D01*
X96412800Y-126621019D01*
X96414768Y-126625109D01*
X96420266Y-126633873D01*
X96423089Y-126637422D01*
X96429231Y-126650213D01*
X96440311Y-126659074D01*
X96442904Y-126662334D01*
X96450996Y-126670440D01*
X96454253Y-126673040D01*
X96463096Y-126684137D01*
X96475874Y-126690301D01*
X96479416Y-126693128D01*
X96488182Y-126698648D01*
X96492264Y-126700621D01*
X96503344Y-126709482D01*
X96517169Y-126712661D01*
X96520923Y-126714476D01*
X96531727Y-126718270D01*
X96535792Y-126719201D01*
X96548570Y-126725364D01*
X96572501Y-126725385D01*
X96572499Y-126727608D01*
X96572567Y-126727623D01*
X96572567Y-126725400D01*
X96589730Y-126725400D01*
X96643146Y-126725447D01*
X96643467Y-126725447D01*
X96643565Y-126725400D01*
X109724200Y-126725400D01*
X109792321Y-126745402D01*
X109838814Y-126799058D01*
X109850200Y-126851400D01*
X109850200Y-149043400D01*
X109830198Y-149111521D01*
X109776542Y-149158014D01*
X109724200Y-149169400D01*
X96602670Y-149169400D01*
X96563122Y-149169365D01*
X96563120Y-149169365D01*
X96548933Y-149169353D01*
X96536143Y-149175495D01*
X96532074Y-149176419D01*
X96521272Y-149180192D01*
X96517516Y-149181999D01*
X96503679Y-149185156D01*
X96492581Y-149194000D01*
X96488491Y-149195968D01*
X96479727Y-149201466D01*
X96476178Y-149204289D01*
X96463387Y-149210431D01*
X96454526Y-149221511D01*
X96451266Y-149224104D01*
X96443160Y-149232196D01*
X96440560Y-149235453D01*
X96429463Y-149244296D01*
X96423299Y-149257074D01*
X96420472Y-149260616D01*
X96414953Y-149269381D01*
X96412980Y-149273462D01*
X96404118Y-149284544D01*
X96400938Y-149298372D01*
X96397135Y-149306239D01*
X96349479Y-149358864D01*
X96283695Y-149377400D01*
X96088200Y-149377400D01*
X96088200Y-150902400D01*
X96068198Y-150970521D01*
X96014542Y-151017014D01*
X95962200Y-151028400D01*
X84022200Y-151028400D01*
X83954079Y-151008398D01*
X83907586Y-150954742D01*
X83896200Y-150902400D01*
X83896200Y-124027200D01*
X83916202Y-123959079D01*
X83969858Y-123912586D01*
X84022200Y-123901200D01*
X95962200Y-123901200D01*
X96030321Y-123921202D01*
G37*
G04 #@! TD.AperFunction*
M02*
