G04 #@! TF.GenerationSoftware,KiCad,Pcbnew,(6.0.0)*
G04 #@! TF.CreationDate,2022-02-22T08:31:50+01:00*
G04 #@! TF.ProjectId,FilterDaughterboard,46696c74-6572-4446-9175-676874657262,rev?*
G04 #@! TF.SameCoordinates,Original*
G04 #@! TF.FileFunction,Copper,L4,Bot*
G04 #@! TF.FilePolarity,Positive*
%FSLAX46Y46*%
G04 Gerber Fmt 4.6, Leading zero omitted, Abs format (unit mm)*
G04 Created by KiCad (PCBNEW (6.0.0)) date 2022-02-22 08:31:50*
%MOMM*%
%LPD*%
G01*
G04 APERTURE LIST*
G04 Aperture macros list*
%AMRoundRect*
0 Rectangle with rounded corners*
0 $1 Rounding radius*
0 $2 $3 $4 $5 $6 $7 $8 $9 X,Y pos of 4 corners*
0 Add a 4 corners polygon primitive as box body*
4,1,4,$2,$3,$4,$5,$6,$7,$8,$9,$2,$3,0*
0 Add four circle primitives for the rounded corners*
1,1,$1+$1,$2,$3*
1,1,$1+$1,$4,$5*
1,1,$1+$1,$6,$7*
1,1,$1+$1,$8,$9*
0 Add four rect primitives between the rounded corners*
20,1,$1+$1,$2,$3,$4,$5,0*
20,1,$1+$1,$4,$5,$6,$7,0*
20,1,$1+$1,$6,$7,$8,$9,0*
20,1,$1+$1,$8,$9,$2,$3,0*%
G04 Aperture macros list end*
G04 #@! TA.AperFunction,SMDPad,CuDef*
%ADD10R,10.000000X1.500000*%
G04 #@! TD*
G04 #@! TA.AperFunction,SMDPad,CuDef*
%ADD11R,11.999999X1.500000*%
G04 #@! TD*
G04 #@! TA.AperFunction,SMDPad,CuDef*
%ADD12RoundRect,0.225000X0.250000X-0.225000X0.250000X0.225000X-0.250000X0.225000X-0.250000X-0.225000X0*%
G04 #@! TD*
G04 #@! TA.AperFunction,SMDPad,CuDef*
%ADD13RoundRect,0.225000X-0.225000X-0.250000X0.225000X-0.250000X0.225000X0.250000X-0.225000X0.250000X0*%
G04 #@! TD*
G04 #@! TA.AperFunction,SMDPad,CuDef*
%ADD14RoundRect,0.200000X-0.200000X-0.275000X0.200000X-0.275000X0.200000X0.275000X-0.200000X0.275000X0*%
G04 #@! TD*
G04 #@! TA.AperFunction,SMDPad,CuDef*
%ADD15RoundRect,0.200000X-0.275000X0.200000X-0.275000X-0.200000X0.275000X-0.200000X0.275000X0.200000X0*%
G04 #@! TD*
G04 #@! TA.AperFunction,SMDPad,CuDef*
%ADD16RoundRect,0.200000X0.200000X0.275000X-0.200000X0.275000X-0.200000X-0.275000X0.200000X-0.275000X0*%
G04 #@! TD*
G04 #@! TA.AperFunction,SMDPad,CuDef*
%ADD17RoundRect,0.225000X-0.250000X0.225000X-0.250000X-0.225000X0.250000X-0.225000X0.250000X0.225000X0*%
G04 #@! TD*
G04 #@! TA.AperFunction,ViaPad*
%ADD18C,0.762000*%
G04 #@! TD*
G04 #@! TA.AperFunction,Conductor*
%ADD19C,0.254000*%
G04 #@! TD*
G04 APERTURE END LIST*
D10*
X104612200Y-127787400D03*
D11*
X103612200Y-130287400D03*
X103612200Y-132787400D03*
X103612200Y-135287400D03*
X103612200Y-140687400D03*
X103612200Y-143187400D03*
X103612200Y-145687400D03*
X103612200Y-148187400D03*
D12*
X91150000Y-135285000D03*
X91150000Y-133735000D03*
D13*
X87365000Y-146510000D03*
X88915000Y-146510000D03*
D14*
X87385000Y-135300000D03*
X89035000Y-135300000D03*
D15*
X87420000Y-130245000D03*
X87420000Y-131895000D03*
D16*
X93045000Y-130290000D03*
X91395000Y-130290000D03*
D14*
X93195000Y-148200000D03*
X94845000Y-148200000D03*
X87365000Y-148240000D03*
X89015000Y-148240000D03*
D15*
X87370000Y-143205000D03*
X87370000Y-144855000D03*
D13*
X87425000Y-133470000D03*
X88975000Y-133470000D03*
D17*
X94830000Y-130295000D03*
X94830000Y-131845000D03*
X94820000Y-143185000D03*
X94820000Y-144735000D03*
D14*
X93175000Y-135300000D03*
X94825000Y-135300000D03*
D12*
X91160000Y-148235000D03*
X91160000Y-146685000D03*
D16*
X93095000Y-143180000D03*
X91445000Y-143180000D03*
D17*
X89600000Y-130285000D03*
X89600000Y-131835000D03*
X89590000Y-143195000D03*
X89590000Y-144745000D03*
D18*
X88520000Y-131550000D03*
X103590000Y-137940000D03*
X92190000Y-134040000D03*
X90010000Y-134030000D03*
X90670000Y-131550000D03*
X93760000Y-131550000D03*
X105770000Y-137940000D03*
X88524078Y-144410000D03*
X93770000Y-144410000D03*
X92380000Y-146680000D03*
X87000000Y-137940000D03*
X89900000Y-129150000D03*
X92260000Y-129110000D03*
X89180000Y-137940000D03*
X94450000Y-137940000D03*
X90090000Y-141790000D03*
X92270000Y-137940000D03*
X92270000Y-141800000D03*
X90640000Y-144410000D03*
X90020000Y-146790000D03*
D19*
X94837600Y-135287400D02*
X94825000Y-135300000D01*
X103612200Y-135287400D02*
X94837600Y-135287400D01*
X87425000Y-133470000D02*
X87425000Y-135260000D01*
X87420000Y-133465000D02*
X87425000Y-133470000D01*
X87420000Y-131895000D02*
X87420000Y-133465000D01*
X87425000Y-135260000D02*
X87385000Y-135300000D01*
X89600000Y-130285000D02*
X87460000Y-130285000D01*
X91395000Y-130290000D02*
X89605000Y-130290000D01*
X87460000Y-130285000D02*
X87420000Y-130245000D01*
X89605000Y-130290000D02*
X89600000Y-130285000D01*
X94857600Y-148187400D02*
X103612200Y-148187400D01*
X94845000Y-148200000D02*
X94857600Y-148187400D01*
X94837600Y-130287400D02*
X94830000Y-130295000D01*
X93050000Y-130295000D02*
X93045000Y-130290000D01*
X103612200Y-130287400D02*
X94837600Y-130287400D01*
X94830000Y-130295000D02*
X93050000Y-130295000D01*
X94822400Y-143187400D02*
X94820000Y-143185000D01*
X93100000Y-143185000D02*
X93095000Y-143180000D01*
X94820000Y-143185000D02*
X93100000Y-143185000D01*
X103612200Y-143187400D02*
X94822400Y-143187400D01*
X93175000Y-135300000D02*
X91165000Y-135300000D01*
X91135000Y-135300000D02*
X91150000Y-135285000D01*
X89035000Y-135300000D02*
X91135000Y-135300000D01*
X91165000Y-135300000D02*
X91150000Y-135285000D01*
X91160000Y-148235000D02*
X93160000Y-148235000D01*
X91155000Y-148240000D02*
X91160000Y-148235000D01*
X89015000Y-148240000D02*
X91155000Y-148240000D01*
X93160000Y-148235000D02*
X93195000Y-148200000D01*
X87365000Y-146510000D02*
X87365000Y-148240000D01*
X87370000Y-146505000D02*
X87365000Y-146510000D01*
X87370000Y-144855000D02*
X87370000Y-146505000D01*
X89590000Y-143195000D02*
X91430000Y-143195000D01*
X87380000Y-143195000D02*
X87370000Y-143205000D01*
X89590000Y-143195000D02*
X87380000Y-143195000D01*
X91430000Y-143195000D02*
X91445000Y-143180000D01*
G04 #@! TA.AperFunction,Conductor*
G36*
X97299823Y-148588902D02*
G01*
X97346316Y-148642558D01*
X97357702Y-148694900D01*
X97357702Y-148962466D01*
X97358909Y-148968534D01*
X97358909Y-148968535D01*
X97368911Y-149018820D01*
X97362582Y-149089534D01*
X97319027Y-149145601D01*
X97245332Y-149169400D01*
X96602670Y-149169400D01*
X96563122Y-149169365D01*
X96563120Y-149169365D01*
X96548933Y-149169353D01*
X96536143Y-149175495D01*
X96532074Y-149176419D01*
X96521272Y-149180192D01*
X96517516Y-149181999D01*
X96503679Y-149185156D01*
X96492581Y-149194000D01*
X96488491Y-149195968D01*
X96479727Y-149201466D01*
X96476178Y-149204289D01*
X96463387Y-149210431D01*
X96454526Y-149221511D01*
X96451266Y-149224104D01*
X96443160Y-149232196D01*
X96440560Y-149235453D01*
X96429463Y-149244296D01*
X96423299Y-149257074D01*
X96420472Y-149260616D01*
X96414953Y-149269381D01*
X96412980Y-149273462D01*
X96404118Y-149284544D01*
X96400938Y-149298372D01*
X96397135Y-149306239D01*
X96349479Y-149358864D01*
X96283695Y-149377400D01*
X95580200Y-149377400D01*
X95580200Y-148568900D01*
X97231702Y-148568900D01*
X97299823Y-148588902D01*
G37*
G04 #@! TD.AperFunction*
G04 #@! TA.AperFunction,Conductor*
G36*
X97299823Y-143588902D02*
G01*
X97346316Y-143642558D01*
X97357702Y-143694900D01*
X97357702Y-143962466D01*
X97372467Y-144036701D01*
X97428717Y-144120884D01*
X97512900Y-144177134D01*
X97587134Y-144191900D01*
X103611713Y-144191900D01*
X109637265Y-144191899D01*
X109670834Y-144185222D01*
X109699621Y-144179497D01*
X109770335Y-144185826D01*
X109826401Y-144229382D01*
X109850200Y-144303076D01*
X109850200Y-147071724D01*
X109830198Y-147139845D01*
X109776542Y-147186338D01*
X109699619Y-147195303D01*
X109637266Y-147182900D01*
X103612688Y-147182900D01*
X97587135Y-147182901D01*
X97551383Y-147190012D01*
X97525075Y-147195244D01*
X97525073Y-147195245D01*
X97512900Y-147197666D01*
X97502580Y-147204561D01*
X97502579Y-147204562D01*
X97442186Y-147244916D01*
X97428717Y-147253916D01*
X97372467Y-147338099D01*
X97357701Y-147412333D01*
X97357701Y-147679900D01*
X97337699Y-147748021D01*
X97284043Y-147794514D01*
X97231701Y-147805900D01*
X95580200Y-147805900D01*
X95580200Y-143568900D01*
X97231702Y-143568900D01*
X97299823Y-143588902D01*
G37*
G04 #@! TD.AperFunction*
G04 #@! TA.AperFunction,Conductor*
G36*
X97299823Y-135688902D02*
G01*
X97346316Y-135742558D01*
X97357702Y-135794900D01*
X97357702Y-136062466D01*
X97372467Y-136136701D01*
X97428717Y-136220884D01*
X97512900Y-136277134D01*
X97587134Y-136291900D01*
X103611713Y-136291900D01*
X109637265Y-136291899D01*
X109670834Y-136285222D01*
X109699621Y-136279497D01*
X109770335Y-136285826D01*
X109826401Y-136329382D01*
X109850200Y-136403076D01*
X109850200Y-142071724D01*
X109830198Y-142139845D01*
X109776542Y-142186338D01*
X109699619Y-142195303D01*
X109637266Y-142182900D01*
X103612688Y-142182900D01*
X97587135Y-142182901D01*
X97551383Y-142190012D01*
X97525075Y-142195244D01*
X97525073Y-142195245D01*
X97512900Y-142197666D01*
X97502580Y-142204561D01*
X97502579Y-142204562D01*
X97442186Y-142244916D01*
X97428717Y-142253916D01*
X97372467Y-142338099D01*
X97357701Y-142412333D01*
X97357701Y-142679900D01*
X97337699Y-142748021D01*
X97284043Y-142794514D01*
X97231701Y-142805900D01*
X95580200Y-142805900D01*
X95580200Y-135668900D01*
X97231702Y-135668900D01*
X97299823Y-135688902D01*
G37*
G04 #@! TD.AperFunction*
G04 #@! TA.AperFunction,Conductor*
G36*
X97299823Y-130688902D02*
G01*
X97346316Y-130742558D01*
X97357702Y-130794900D01*
X97357702Y-131062466D01*
X97372467Y-131136701D01*
X97428717Y-131220884D01*
X97512900Y-131277134D01*
X97587134Y-131291900D01*
X103611713Y-131291900D01*
X109637265Y-131291899D01*
X109670834Y-131285222D01*
X109699621Y-131279497D01*
X109770335Y-131285826D01*
X109826401Y-131329382D01*
X109850200Y-131403076D01*
X109850200Y-134171724D01*
X109830198Y-134239845D01*
X109776542Y-134286338D01*
X109699619Y-134295303D01*
X109637266Y-134282900D01*
X103612688Y-134282900D01*
X97587135Y-134282901D01*
X97551383Y-134290012D01*
X97525075Y-134295244D01*
X97525073Y-134295245D01*
X97512900Y-134297666D01*
X97502580Y-134304561D01*
X97502579Y-134304562D01*
X97442186Y-134344916D01*
X97428717Y-134353916D01*
X97372467Y-134438099D01*
X97357701Y-134512333D01*
X97357701Y-134779900D01*
X97337699Y-134848021D01*
X97284043Y-134894514D01*
X97231701Y-134905900D01*
X95580200Y-134905900D01*
X95580200Y-130668900D01*
X97231702Y-130668900D01*
X97299823Y-130688902D01*
G37*
G04 #@! TD.AperFunction*
G04 #@! TA.AperFunction,Conductor*
G36*
X96351859Y-126537402D02*
G01*
X96397274Y-126588759D01*
X96400800Y-126596085D01*
X96403956Y-126609921D01*
X96412800Y-126621019D01*
X96414768Y-126625109D01*
X96420266Y-126633873D01*
X96423089Y-126637422D01*
X96429231Y-126650213D01*
X96440311Y-126659074D01*
X96442904Y-126662334D01*
X96450996Y-126670440D01*
X96454253Y-126673040D01*
X96463096Y-126684137D01*
X96475874Y-126690301D01*
X96479416Y-126693128D01*
X96488182Y-126698648D01*
X96492264Y-126700621D01*
X96503344Y-126709482D01*
X96517169Y-126712661D01*
X96520923Y-126714476D01*
X96531727Y-126718270D01*
X96535792Y-126719201D01*
X96548570Y-126725364D01*
X96572501Y-126725385D01*
X96572499Y-126727608D01*
X96572567Y-126727623D01*
X96572567Y-126725400D01*
X96589730Y-126725400D01*
X96643146Y-126725447D01*
X96643467Y-126725447D01*
X96643565Y-126725400D01*
X109724200Y-126725400D01*
X109792321Y-126745402D01*
X109838814Y-126799058D01*
X109850200Y-126851400D01*
X109850200Y-129171724D01*
X109830198Y-129239845D01*
X109776542Y-129286338D01*
X109699619Y-129295303D01*
X109637266Y-129282900D01*
X103612687Y-129282900D01*
X97587135Y-129282901D01*
X97551383Y-129290012D01*
X97525075Y-129295244D01*
X97525073Y-129295245D01*
X97512900Y-129297666D01*
X97502580Y-129304561D01*
X97502579Y-129304562D01*
X97442186Y-129344916D01*
X97428717Y-129353916D01*
X97372467Y-129438099D01*
X97357701Y-129512333D01*
X97357701Y-129779900D01*
X97337699Y-129848021D01*
X97284043Y-129894514D01*
X97231701Y-129905900D01*
X95580200Y-129905900D01*
X95580200Y-126517400D01*
X96283738Y-126517400D01*
X96351859Y-126537402D01*
G37*
G04 #@! TD.AperFunction*
G04 #@! TA.AperFunction,Conductor*
G36*
X96030321Y-123921202D02*
G01*
X96076814Y-123974858D01*
X96088200Y-124027200D01*
X96088200Y-129779900D01*
X96068198Y-129848021D01*
X96014542Y-129894514D01*
X95962200Y-129905900D01*
X95615653Y-129905900D01*
X95547532Y-129885898D01*
X95506680Y-129842068D01*
X95504917Y-129837365D01*
X95499535Y-129830183D01*
X95427923Y-129734633D01*
X95422544Y-129727456D01*
X95372554Y-129689990D01*
X95319817Y-129650465D01*
X95319814Y-129650463D01*
X95312635Y-129645083D01*
X95304230Y-129641932D01*
X95191419Y-129599642D01*
X95191418Y-129599642D01*
X95184024Y-129596870D01*
X95176174Y-129596017D01*
X95176173Y-129596017D01*
X95128786Y-129590869D01*
X95128785Y-129590869D01*
X95125389Y-129590500D01*
X94830044Y-129590500D01*
X94534612Y-129590501D01*
X94531218Y-129590870D01*
X94531212Y-129590870D01*
X94483834Y-129596016D01*
X94483830Y-129596017D01*
X94475976Y-129596870D01*
X94383335Y-129631599D01*
X94359684Y-129640465D01*
X94347365Y-129645083D01*
X94340186Y-129650463D01*
X94340183Y-129650465D01*
X94287446Y-129689990D01*
X94237456Y-129727456D01*
X94155083Y-129837365D01*
X94151931Y-129845772D01*
X94150709Y-129848005D01*
X94100452Y-129898153D01*
X94040187Y-129913500D01*
X93780390Y-129913500D01*
X93712269Y-129893498D01*
X93665776Y-129839842D01*
X93661507Y-129829248D01*
X93654331Y-129808812D01*
X93654329Y-129808808D01*
X93651209Y-129799924D01*
X93570010Y-129689990D01*
X93460076Y-129608791D01*
X93331127Y-129563507D01*
X93323485Y-129562785D01*
X93323482Y-129562784D01*
X93308579Y-129561376D01*
X93299315Y-129560500D01*
X93045172Y-129560500D01*
X92790686Y-129560501D01*
X92787738Y-129560780D01*
X92787729Y-129560780D01*
X92766522Y-129562784D01*
X92766520Y-129562784D01*
X92758873Y-129563507D01*
X92629924Y-129608791D01*
X92519990Y-129689990D01*
X92438791Y-129799924D01*
X92393507Y-129928873D01*
X92390500Y-129960685D01*
X92390501Y-130619314D01*
X92393507Y-130651127D01*
X92438791Y-130780076D01*
X92519990Y-130890010D01*
X92629924Y-130971209D01*
X92758873Y-131016493D01*
X92766515Y-131017215D01*
X92766518Y-131017216D01*
X92781421Y-131018624D01*
X92790685Y-131019500D01*
X93044828Y-131019500D01*
X93299314Y-131019499D01*
X93302262Y-131019220D01*
X93302271Y-131019220D01*
X93323478Y-131017216D01*
X93323480Y-131017216D01*
X93331127Y-131016493D01*
X93460076Y-130971209D01*
X93570010Y-130890010D01*
X93651209Y-130780076D01*
X93654329Y-130771192D01*
X93654331Y-130771188D01*
X93657997Y-130760748D01*
X93699441Y-130703104D01*
X93765471Y-130677017D01*
X93776878Y-130676500D01*
X94040187Y-130676500D01*
X94108308Y-130696502D01*
X94150709Y-130741995D01*
X94151931Y-130744228D01*
X94155083Y-130752635D01*
X94237456Y-130862544D01*
X94244633Y-130867923D01*
X94340183Y-130939535D01*
X94340186Y-130939537D01*
X94347365Y-130944917D01*
X94355769Y-130948067D01*
X94355770Y-130948068D01*
X94432532Y-130976844D01*
X94489297Y-131019485D01*
X94513997Y-131086046D01*
X94498790Y-131155395D01*
X94448504Y-131205514D01*
X94430053Y-131213708D01*
X94383986Y-131229886D01*
X94367521Y-131238603D01*
X94277935Y-131304772D01*
X94264772Y-131317935D01*
X94198603Y-131407521D01*
X94189885Y-131423988D01*
X94152410Y-131530700D01*
X94149142Y-131545592D01*
X94147279Y-131565307D01*
X94147000Y-131571221D01*
X94147000Y-131626885D01*
X94151475Y-131642124D01*
X94152865Y-131643329D01*
X94160548Y-131645000D01*
X95494884Y-131645000D01*
X95510123Y-131640525D01*
X95511328Y-131639135D01*
X95512999Y-131631452D01*
X95512999Y-131571225D01*
X95512720Y-131565301D01*
X95510858Y-131545596D01*
X95507589Y-131530697D01*
X95470115Y-131423988D01*
X95461397Y-131407521D01*
X95395228Y-131317935D01*
X95382065Y-131304772D01*
X95292479Y-131238603D01*
X95276014Y-131229886D01*
X95229947Y-131213708D01*
X95172302Y-131172265D01*
X95146215Y-131106235D01*
X95159966Y-131036583D01*
X95209192Y-130985422D01*
X95227468Y-130976844D01*
X95304230Y-130948068D01*
X95304231Y-130948067D01*
X95312635Y-130944917D01*
X95319814Y-130939537D01*
X95319817Y-130939535D01*
X95415367Y-130867923D01*
X95422544Y-130862544D01*
X95504917Y-130752635D01*
X95508069Y-130744227D01*
X95512377Y-130736358D01*
X95515230Y-130737920D01*
X95548299Y-130693902D01*
X95614862Y-130669206D01*
X95623635Y-130668900D01*
X95962200Y-130668900D01*
X96030321Y-130688902D01*
X96076814Y-130742558D01*
X96088200Y-130794900D01*
X96088200Y-134779900D01*
X96068198Y-134848021D01*
X96014542Y-134894514D01*
X95962200Y-134905900D01*
X95554209Y-134905900D01*
X95486088Y-134885898D01*
X95439595Y-134832242D01*
X95435328Y-134821653D01*
X95434330Y-134818811D01*
X95431209Y-134809924D01*
X95350010Y-134699990D01*
X95240076Y-134618791D01*
X95111127Y-134573507D01*
X95103485Y-134572785D01*
X95103482Y-134572784D01*
X95088579Y-134571376D01*
X95079315Y-134570500D01*
X94825172Y-134570500D01*
X94570686Y-134570501D01*
X94567738Y-134570780D01*
X94567729Y-134570780D01*
X94546522Y-134572784D01*
X94546520Y-134572784D01*
X94538873Y-134573507D01*
X94409924Y-134618791D01*
X94299990Y-134699990D01*
X94218791Y-134809924D01*
X94173507Y-134938873D01*
X94170500Y-134970685D01*
X94170501Y-135629314D01*
X94170780Y-135632262D01*
X94170780Y-135632271D01*
X94172784Y-135653478D01*
X94173507Y-135661127D01*
X94218791Y-135790076D01*
X94299990Y-135900010D01*
X94409924Y-135981209D01*
X94538873Y-136026493D01*
X94546515Y-136027215D01*
X94546518Y-136027216D01*
X94561421Y-136028624D01*
X94570685Y-136029500D01*
X94824828Y-136029500D01*
X95079314Y-136029499D01*
X95082262Y-136029220D01*
X95082271Y-136029220D01*
X95103478Y-136027216D01*
X95103480Y-136027216D01*
X95111127Y-136026493D01*
X95240076Y-135981209D01*
X95350010Y-135900010D01*
X95431209Y-135790076D01*
X95434329Y-135781192D01*
X95434331Y-135781188D01*
X95444176Y-135753152D01*
X95485619Y-135695506D01*
X95551649Y-135669418D01*
X95563059Y-135668900D01*
X95962200Y-135668900D01*
X96030321Y-135688902D01*
X96076814Y-135742558D01*
X96088200Y-135794900D01*
X96088200Y-142679900D01*
X96068198Y-142748021D01*
X96014542Y-142794514D01*
X95962200Y-142805900D01*
X95611127Y-142805900D01*
X95543006Y-142785898D01*
X95500605Y-142740406D01*
X95498070Y-142735776D01*
X95494917Y-142727365D01*
X95412544Y-142617456D01*
X95387640Y-142598791D01*
X95309817Y-142540465D01*
X95309814Y-142540463D01*
X95302635Y-142535083D01*
X95220752Y-142504387D01*
X95181419Y-142489642D01*
X95181418Y-142489642D01*
X95174024Y-142486870D01*
X95166174Y-142486017D01*
X95166173Y-142486017D01*
X95118786Y-142480869D01*
X95118785Y-142480869D01*
X95115389Y-142480500D01*
X94820044Y-142480500D01*
X94524612Y-142480501D01*
X94521218Y-142480870D01*
X94521212Y-142480870D01*
X94473834Y-142486016D01*
X94473830Y-142486017D01*
X94465976Y-142486870D01*
X94337365Y-142535083D01*
X94330186Y-142540463D01*
X94330183Y-142540465D01*
X94252360Y-142598791D01*
X94227456Y-142617456D01*
X94145083Y-142727365D01*
X94141931Y-142735772D01*
X94140709Y-142738005D01*
X94090452Y-142788153D01*
X94030187Y-142803500D01*
X93830390Y-142803500D01*
X93762269Y-142783498D01*
X93715776Y-142729842D01*
X93711507Y-142719248D01*
X93704331Y-142698812D01*
X93704329Y-142698808D01*
X93701209Y-142689924D01*
X93620010Y-142579990D01*
X93510076Y-142498791D01*
X93381127Y-142453507D01*
X93373485Y-142452785D01*
X93373482Y-142452784D01*
X93358579Y-142451376D01*
X93349315Y-142450500D01*
X93095172Y-142450500D01*
X92840686Y-142450501D01*
X92837738Y-142450780D01*
X92837729Y-142450780D01*
X92816522Y-142452784D01*
X92816520Y-142452784D01*
X92808873Y-142453507D01*
X92679924Y-142498791D01*
X92569990Y-142579990D01*
X92488791Y-142689924D01*
X92443507Y-142818873D01*
X92440500Y-142850685D01*
X92440501Y-143509314D01*
X92443507Y-143541127D01*
X92488791Y-143670076D01*
X92569990Y-143780010D01*
X92679924Y-143861209D01*
X92808873Y-143906493D01*
X92816515Y-143907215D01*
X92816518Y-143907216D01*
X92831421Y-143908624D01*
X92840685Y-143909500D01*
X93094828Y-143909500D01*
X93349314Y-143909499D01*
X93352262Y-143909220D01*
X93352271Y-143909220D01*
X93373478Y-143907216D01*
X93373480Y-143907216D01*
X93381127Y-143906493D01*
X93510076Y-143861209D01*
X93620010Y-143780010D01*
X93701209Y-143670076D01*
X93704329Y-143661192D01*
X93704331Y-143661188D01*
X93707997Y-143650748D01*
X93749441Y-143593104D01*
X93815471Y-143567017D01*
X93826878Y-143566500D01*
X94030187Y-143566500D01*
X94098308Y-143586502D01*
X94140709Y-143631995D01*
X94141931Y-143634228D01*
X94145083Y-143642635D01*
X94227456Y-143752544D01*
X94234633Y-143757923D01*
X94330183Y-143829535D01*
X94330186Y-143829537D01*
X94337365Y-143834917D01*
X94345769Y-143838067D01*
X94345770Y-143838068D01*
X94422532Y-143866844D01*
X94479297Y-143909485D01*
X94503997Y-143976046D01*
X94488790Y-144045395D01*
X94438504Y-144095514D01*
X94420053Y-144103708D01*
X94373986Y-144119886D01*
X94357521Y-144128603D01*
X94267935Y-144194772D01*
X94254772Y-144207935D01*
X94188603Y-144297521D01*
X94179885Y-144313988D01*
X94142410Y-144420700D01*
X94139142Y-144435592D01*
X94137279Y-144455307D01*
X94137000Y-144461221D01*
X94137000Y-144516885D01*
X94141475Y-144532124D01*
X94142865Y-144533329D01*
X94150548Y-144535000D01*
X95484884Y-144535000D01*
X95500123Y-144530525D01*
X95501328Y-144529135D01*
X95502999Y-144521452D01*
X95502999Y-144461225D01*
X95502720Y-144455301D01*
X95500858Y-144435596D01*
X95497589Y-144420697D01*
X95460115Y-144313988D01*
X95451397Y-144297521D01*
X95385228Y-144207935D01*
X95372065Y-144194772D01*
X95282479Y-144128603D01*
X95266014Y-144119886D01*
X95219947Y-144103708D01*
X95162302Y-144062265D01*
X95136215Y-143996235D01*
X95149966Y-143926583D01*
X95199192Y-143875422D01*
X95217468Y-143866844D01*
X95294230Y-143838068D01*
X95294231Y-143838067D01*
X95302635Y-143834917D01*
X95309814Y-143829537D01*
X95309817Y-143829535D01*
X95405367Y-143757923D01*
X95412544Y-143752544D01*
X95417923Y-143745367D01*
X95489537Y-143649814D01*
X95489538Y-143649812D01*
X95494917Y-143642635D01*
X95498023Y-143634349D01*
X95548238Y-143584245D01*
X95608500Y-143568900D01*
X95962200Y-143568900D01*
X96030321Y-143588902D01*
X96076814Y-143642558D01*
X96088200Y-143694900D01*
X96088200Y-147679900D01*
X96068198Y-147748021D01*
X96014542Y-147794514D01*
X95962200Y-147805900D01*
X95574209Y-147805900D01*
X95506088Y-147785898D01*
X95459595Y-147732242D01*
X95455328Y-147721653D01*
X95454330Y-147718811D01*
X95451209Y-147709924D01*
X95370010Y-147599990D01*
X95260076Y-147518791D01*
X95131127Y-147473507D01*
X95123485Y-147472785D01*
X95123482Y-147472784D01*
X95108579Y-147471376D01*
X95099315Y-147470500D01*
X94845172Y-147470500D01*
X94590686Y-147470501D01*
X94587738Y-147470780D01*
X94587729Y-147470780D01*
X94566522Y-147472784D01*
X94566520Y-147472784D01*
X94558873Y-147473507D01*
X94429924Y-147518791D01*
X94319990Y-147599990D01*
X94238791Y-147709924D01*
X94193507Y-147838873D01*
X94190500Y-147870685D01*
X94190501Y-148529314D01*
X94190780Y-148532262D01*
X94190780Y-148532271D01*
X94192784Y-148553478D01*
X94193507Y-148561127D01*
X94196052Y-148568374D01*
X94196053Y-148568377D01*
X94200949Y-148582320D01*
X94238791Y-148690076D01*
X94319990Y-148800010D01*
X94429924Y-148881209D01*
X94558873Y-148926493D01*
X94566515Y-148927215D01*
X94566518Y-148927216D01*
X94581421Y-148928624D01*
X94590685Y-148929500D01*
X94844828Y-148929500D01*
X95099314Y-148929499D01*
X95102262Y-148929220D01*
X95102271Y-148929220D01*
X95123478Y-148927216D01*
X95123480Y-148927216D01*
X95131127Y-148926493D01*
X95260076Y-148881209D01*
X95370010Y-148800010D01*
X95451209Y-148690076D01*
X95454329Y-148681192D01*
X95454331Y-148681188D01*
X95464176Y-148653152D01*
X95505619Y-148595506D01*
X95571649Y-148569418D01*
X95583059Y-148568900D01*
X95962200Y-148568900D01*
X96030321Y-148588902D01*
X96076814Y-148642558D01*
X96088200Y-148694900D01*
X96088200Y-150902400D01*
X96068198Y-150970521D01*
X96014542Y-151017014D01*
X95962200Y-151028400D01*
X84022200Y-151028400D01*
X83954079Y-151008398D01*
X83907586Y-150954742D01*
X83896200Y-150902400D01*
X83896200Y-144600685D01*
X86640500Y-144600685D01*
X86640501Y-145109314D01*
X86643507Y-145141127D01*
X86688791Y-145270076D01*
X86769990Y-145380010D01*
X86777561Y-145385602D01*
X86872351Y-145455616D01*
X86872354Y-145455617D01*
X86879924Y-145461209D01*
X86904250Y-145469752D01*
X86961894Y-145511195D01*
X86987982Y-145577224D01*
X86988500Y-145588634D01*
X86988500Y-145717449D01*
X86968498Y-145785570D01*
X86923007Y-145827970D01*
X86915769Y-145831933D01*
X86907365Y-145835083D01*
X86797456Y-145917456D01*
X86792077Y-145924633D01*
X86720465Y-146020183D01*
X86720463Y-146020186D01*
X86715083Y-146027365D01*
X86711933Y-146035769D01*
X86711932Y-146035770D01*
X86708429Y-146045116D01*
X86666870Y-146155976D01*
X86666017Y-146163826D01*
X86666017Y-146163827D01*
X86665271Y-146170697D01*
X86660500Y-146214611D01*
X86660501Y-146805388D01*
X86660870Y-146808782D01*
X86660870Y-146808788D01*
X86665271Y-146849300D01*
X86666870Y-146864024D01*
X86701354Y-146956012D01*
X86704611Y-146964699D01*
X86715083Y-146992635D01*
X86720463Y-146999814D01*
X86720465Y-146999817D01*
X86792077Y-147095367D01*
X86797456Y-147102544D01*
X86907365Y-147184917D01*
X86915772Y-147188069D01*
X86918005Y-147189291D01*
X86968153Y-147239548D01*
X86983500Y-147299813D01*
X86983500Y-147470413D01*
X86963498Y-147538534D01*
X86932360Y-147571764D01*
X86839990Y-147639990D01*
X86758791Y-147749924D01*
X86713507Y-147878873D01*
X86710500Y-147910685D01*
X86710501Y-148569314D01*
X86713507Y-148601127D01*
X86758791Y-148730076D01*
X86839990Y-148840010D01*
X86949924Y-148921209D01*
X87078873Y-148966493D01*
X87086515Y-148967215D01*
X87086518Y-148967216D01*
X87101421Y-148968624D01*
X87110685Y-148969500D01*
X87364828Y-148969500D01*
X87619314Y-148969499D01*
X87622262Y-148969220D01*
X87622271Y-148969220D01*
X87643478Y-148967216D01*
X87643480Y-148967216D01*
X87651127Y-148966493D01*
X87780076Y-148921209D01*
X87890010Y-148840010D01*
X87971209Y-148730076D01*
X88016493Y-148601127D01*
X88019500Y-148569315D01*
X88019499Y-147910686D01*
X88019499Y-147910685D01*
X88360500Y-147910685D01*
X88360501Y-148569314D01*
X88363507Y-148601127D01*
X88408791Y-148730076D01*
X88489990Y-148840010D01*
X88599924Y-148921209D01*
X88728873Y-148966493D01*
X88736515Y-148967215D01*
X88736518Y-148967216D01*
X88751421Y-148968624D01*
X88760685Y-148969500D01*
X89014828Y-148969500D01*
X89269314Y-148969499D01*
X89272262Y-148969220D01*
X89272271Y-148969220D01*
X89293478Y-148967216D01*
X89293480Y-148967216D01*
X89301127Y-148966493D01*
X89430076Y-148921209D01*
X89540010Y-148840010D01*
X89575147Y-148792439D01*
X89615616Y-148737649D01*
X89615617Y-148737646D01*
X89621209Y-148730076D01*
X89629752Y-148705750D01*
X89671195Y-148648106D01*
X89737224Y-148622018D01*
X89748634Y-148621500D01*
X90372924Y-148621500D01*
X90441045Y-148641502D01*
X90482648Y-148686138D01*
X90485083Y-148692635D01*
X90567456Y-148802544D01*
X90574633Y-148807923D01*
X90670183Y-148879535D01*
X90670186Y-148879537D01*
X90677365Y-148884917D01*
X90685769Y-148888067D01*
X90685770Y-148888068D01*
X90798581Y-148930358D01*
X90798582Y-148930358D01*
X90805976Y-148933130D01*
X90813826Y-148933983D01*
X90813827Y-148933983D01*
X90861205Y-148939130D01*
X90864611Y-148939500D01*
X91159956Y-148939500D01*
X91455388Y-148939499D01*
X91458782Y-148939130D01*
X91458788Y-148939130D01*
X91506166Y-148933984D01*
X91506170Y-148933983D01*
X91514024Y-148933130D01*
X91642635Y-148884917D01*
X91649814Y-148879537D01*
X91649817Y-148879535D01*
X91745367Y-148807923D01*
X91752544Y-148802544D01*
X91834917Y-148692635D01*
X91838069Y-148684228D01*
X91839291Y-148681995D01*
X91889548Y-148631847D01*
X91949813Y-148616500D01*
X92475561Y-148616500D01*
X92543682Y-148636502D01*
X92586237Y-148682803D01*
X92588791Y-148690076D01*
X92669990Y-148800010D01*
X92779924Y-148881209D01*
X92908873Y-148926493D01*
X92916515Y-148927215D01*
X92916518Y-148927216D01*
X92931421Y-148928624D01*
X92940685Y-148929500D01*
X93194828Y-148929500D01*
X93449314Y-148929499D01*
X93452262Y-148929220D01*
X93452271Y-148929220D01*
X93473478Y-148927216D01*
X93473480Y-148927216D01*
X93481127Y-148926493D01*
X93610076Y-148881209D01*
X93720010Y-148800010D01*
X93801209Y-148690076D01*
X93846493Y-148561127D01*
X93849500Y-148529315D01*
X93849499Y-147870686D01*
X93847400Y-147848466D01*
X93847216Y-147846522D01*
X93847215Y-147846518D01*
X93846493Y-147838873D01*
X93801209Y-147709924D01*
X93720010Y-147599990D01*
X93610076Y-147518791D01*
X93481127Y-147473507D01*
X93473485Y-147472785D01*
X93473482Y-147472784D01*
X93458579Y-147471376D01*
X93449315Y-147470500D01*
X93195172Y-147470500D01*
X92940686Y-147470501D01*
X92937738Y-147470780D01*
X92937729Y-147470780D01*
X92916522Y-147472784D01*
X92916520Y-147472784D01*
X92908873Y-147473507D01*
X92779924Y-147518791D01*
X92669990Y-147599990D01*
X92588791Y-147709924D01*
X92575412Y-147748021D01*
X92567957Y-147769250D01*
X92526514Y-147826895D01*
X92460484Y-147852982D01*
X92449075Y-147853500D01*
X91949813Y-147853500D01*
X91881692Y-147833498D01*
X91839291Y-147788005D01*
X91838069Y-147785772D01*
X91834917Y-147777365D01*
X91752544Y-147667456D01*
X91745367Y-147662077D01*
X91649817Y-147590465D01*
X91649814Y-147590463D01*
X91642635Y-147585083D01*
X91557468Y-147553156D01*
X91500703Y-147510515D01*
X91476003Y-147443954D01*
X91491210Y-147374605D01*
X91541496Y-147324486D01*
X91559947Y-147316292D01*
X91606014Y-147300114D01*
X91622479Y-147291397D01*
X91712065Y-147225228D01*
X91725228Y-147212065D01*
X91791397Y-147122479D01*
X91800115Y-147106012D01*
X91837590Y-146999300D01*
X91840858Y-146984408D01*
X91842721Y-146964693D01*
X91843000Y-146958779D01*
X91843000Y-146903115D01*
X91838525Y-146887876D01*
X91837135Y-146886671D01*
X91829452Y-146885000D01*
X90495116Y-146885000D01*
X90479877Y-146889475D01*
X90478672Y-146890865D01*
X90477001Y-146898548D01*
X90477001Y-146958775D01*
X90477280Y-146964699D01*
X90479142Y-146984404D01*
X90482411Y-146999303D01*
X90519885Y-147106012D01*
X90528603Y-147122479D01*
X90594772Y-147212065D01*
X90607935Y-147225228D01*
X90697521Y-147291397D01*
X90713986Y-147300114D01*
X90760053Y-147316292D01*
X90817698Y-147357735D01*
X90843785Y-147423765D01*
X90830034Y-147493417D01*
X90780808Y-147544578D01*
X90762531Y-147553156D01*
X90677365Y-147585083D01*
X90670186Y-147590463D01*
X90670183Y-147590465D01*
X90574633Y-147662077D01*
X90567456Y-147667456D01*
X90485083Y-147777365D01*
X90481933Y-147785769D01*
X90477970Y-147793007D01*
X90427712Y-147843154D01*
X90367449Y-147858500D01*
X89748634Y-147858500D01*
X89680513Y-147838498D01*
X89634020Y-147784842D01*
X89629751Y-147774249D01*
X89621209Y-147749924D01*
X89615617Y-147742354D01*
X89615616Y-147742351D01*
X89545602Y-147647561D01*
X89540010Y-147639990D01*
X89430076Y-147558791D01*
X89301127Y-147513507D01*
X89293485Y-147512785D01*
X89293482Y-147512784D01*
X89278579Y-147511376D01*
X89269315Y-147510500D01*
X89015172Y-147510500D01*
X88760686Y-147510501D01*
X88757738Y-147510780D01*
X88757729Y-147510780D01*
X88736522Y-147512784D01*
X88736520Y-147512784D01*
X88728873Y-147513507D01*
X88599924Y-147558791D01*
X88489990Y-147639990D01*
X88408791Y-147749924D01*
X88363507Y-147878873D01*
X88360500Y-147910685D01*
X88019499Y-147910685D01*
X88016493Y-147878873D01*
X88012580Y-147867729D01*
X87991036Y-147806384D01*
X87971209Y-147749924D01*
X87890010Y-147639990D01*
X87797640Y-147571764D01*
X87754730Y-147515203D01*
X87746500Y-147470413D01*
X87746500Y-147299813D01*
X87766502Y-147231692D01*
X87811995Y-147189291D01*
X87814228Y-147188069D01*
X87822635Y-147184917D01*
X87932544Y-147102544D01*
X87937923Y-147095367D01*
X88009535Y-146999817D01*
X88009537Y-146999814D01*
X88014917Y-146992635D01*
X88025390Y-146964699D01*
X88046844Y-146907468D01*
X88089485Y-146850703D01*
X88156046Y-146826003D01*
X88225395Y-146841210D01*
X88275514Y-146891496D01*
X88283708Y-146909947D01*
X88299886Y-146956014D01*
X88308603Y-146972479D01*
X88374772Y-147062065D01*
X88387935Y-147075228D01*
X88477521Y-147141397D01*
X88493988Y-147150115D01*
X88600700Y-147187590D01*
X88615592Y-147190858D01*
X88635307Y-147192721D01*
X88641221Y-147193000D01*
X88696885Y-147193000D01*
X88712124Y-147188525D01*
X88713329Y-147187135D01*
X88715000Y-147179452D01*
X88715000Y-147174884D01*
X89115000Y-147174884D01*
X89119475Y-147190123D01*
X89120865Y-147191328D01*
X89128548Y-147192999D01*
X89188775Y-147192999D01*
X89194699Y-147192720D01*
X89214404Y-147190858D01*
X89229303Y-147187589D01*
X89336012Y-147150115D01*
X89352479Y-147141397D01*
X89442065Y-147075228D01*
X89455228Y-147062065D01*
X89521397Y-146972479D01*
X89530115Y-146956012D01*
X89567590Y-146849300D01*
X89570858Y-146834408D01*
X89572721Y-146814693D01*
X89573000Y-146808779D01*
X89573000Y-146728115D01*
X89568525Y-146712876D01*
X89567135Y-146711671D01*
X89559452Y-146710000D01*
X89133115Y-146710000D01*
X89117876Y-146714475D01*
X89116671Y-146715865D01*
X89115000Y-146723548D01*
X89115000Y-147174884D01*
X88715000Y-147174884D01*
X88715000Y-146466885D01*
X90477000Y-146466885D01*
X90481475Y-146482124D01*
X90482865Y-146483329D01*
X90490548Y-146485000D01*
X90941885Y-146485000D01*
X90957124Y-146480525D01*
X90958329Y-146479135D01*
X90960000Y-146471452D01*
X90960000Y-146466885D01*
X91360000Y-146466885D01*
X91364475Y-146482124D01*
X91365865Y-146483329D01*
X91373548Y-146485000D01*
X91824884Y-146485000D01*
X91840123Y-146480525D01*
X91841328Y-146479135D01*
X91842999Y-146471452D01*
X91842999Y-146411225D01*
X91842720Y-146405301D01*
X91840858Y-146385596D01*
X91837589Y-146370697D01*
X91800115Y-146263988D01*
X91791397Y-146247521D01*
X91725228Y-146157935D01*
X91712065Y-146144772D01*
X91622479Y-146078603D01*
X91606012Y-146069885D01*
X91499300Y-146032410D01*
X91484408Y-146029142D01*
X91464693Y-146027279D01*
X91458779Y-146027000D01*
X91378115Y-146027000D01*
X91362876Y-146031475D01*
X91361671Y-146032865D01*
X91360000Y-146040548D01*
X91360000Y-146466885D01*
X90960000Y-146466885D01*
X90960000Y-146045116D01*
X90955525Y-146029877D01*
X90954135Y-146028672D01*
X90946452Y-146027001D01*
X90861225Y-146027001D01*
X90855301Y-146027280D01*
X90835596Y-146029142D01*
X90820697Y-146032411D01*
X90713988Y-146069885D01*
X90697521Y-146078603D01*
X90607935Y-146144772D01*
X90594772Y-146157935D01*
X90528603Y-146247521D01*
X90519885Y-146263988D01*
X90482410Y-146370700D01*
X90479142Y-146385592D01*
X90477279Y-146405307D01*
X90477000Y-146411221D01*
X90477000Y-146466885D01*
X88715000Y-146466885D01*
X88715000Y-146291885D01*
X89115000Y-146291885D01*
X89119475Y-146307124D01*
X89120865Y-146308329D01*
X89128548Y-146310000D01*
X89554884Y-146310000D01*
X89570123Y-146305525D01*
X89571328Y-146304135D01*
X89572999Y-146296452D01*
X89572999Y-146211225D01*
X89572720Y-146205301D01*
X89570858Y-146185596D01*
X89567589Y-146170697D01*
X89530115Y-146063988D01*
X89521397Y-146047521D01*
X89455228Y-145957935D01*
X89442065Y-145944772D01*
X89352479Y-145878603D01*
X89336012Y-145869885D01*
X89229300Y-145832410D01*
X89214408Y-145829142D01*
X89194693Y-145827279D01*
X89188779Y-145827000D01*
X89133115Y-145827000D01*
X89117876Y-145831475D01*
X89116671Y-145832865D01*
X89115000Y-145840548D01*
X89115000Y-146291885D01*
X88715000Y-146291885D01*
X88715000Y-145845116D01*
X88710525Y-145829877D01*
X88709135Y-145828672D01*
X88701452Y-145827001D01*
X88641225Y-145827001D01*
X88635301Y-145827280D01*
X88615596Y-145829142D01*
X88600697Y-145832411D01*
X88493988Y-145869885D01*
X88477521Y-145878603D01*
X88387935Y-145944772D01*
X88374772Y-145957935D01*
X88308603Y-146047521D01*
X88299886Y-146063986D01*
X88283708Y-146110053D01*
X88242265Y-146167698D01*
X88176235Y-146193785D01*
X88106583Y-146180034D01*
X88055422Y-146130808D01*
X88046844Y-146112532D01*
X88018068Y-146035770D01*
X88018067Y-146035769D01*
X88014917Y-146027365D01*
X88009537Y-146020186D01*
X88009535Y-146020183D01*
X87937923Y-145924633D01*
X87932544Y-145917456D01*
X87822635Y-145835083D01*
X87816234Y-145832683D01*
X87766846Y-145783188D01*
X87751500Y-145722924D01*
X87751500Y-145588634D01*
X87771502Y-145520513D01*
X87825158Y-145474020D01*
X87835745Y-145469753D01*
X87860076Y-145461209D01*
X87867646Y-145455617D01*
X87867649Y-145455616D01*
X87962439Y-145385602D01*
X87970010Y-145380010D01*
X88051209Y-145270076D01*
X88096493Y-145141127D01*
X88099500Y-145109315D01*
X88099500Y-145018775D01*
X88907001Y-145018775D01*
X88907280Y-145024699D01*
X88909142Y-145044404D01*
X88912411Y-145059303D01*
X88949885Y-145166012D01*
X88958603Y-145182479D01*
X89024772Y-145272065D01*
X89037935Y-145285228D01*
X89127521Y-145351397D01*
X89143988Y-145360115D01*
X89250700Y-145397590D01*
X89265592Y-145400858D01*
X89285307Y-145402721D01*
X89291221Y-145403000D01*
X89371885Y-145403000D01*
X89387124Y-145398525D01*
X89388329Y-145397135D01*
X89390000Y-145389452D01*
X89390000Y-145384884D01*
X89790000Y-145384884D01*
X89794475Y-145400123D01*
X89795865Y-145401328D01*
X89803548Y-145402999D01*
X89888775Y-145402999D01*
X89894699Y-145402720D01*
X89914404Y-145400858D01*
X89929303Y-145397589D01*
X90036012Y-145360115D01*
X90052479Y-145351397D01*
X90142065Y-145285228D01*
X90155228Y-145272065D01*
X90221397Y-145182479D01*
X90230115Y-145166012D01*
X90267590Y-145059300D01*
X90270858Y-145044408D01*
X90272721Y-145024693D01*
X90273000Y-145018779D01*
X90273000Y-145008775D01*
X94137001Y-145008775D01*
X94137280Y-145014699D01*
X94139142Y-145034404D01*
X94142411Y-145049303D01*
X94179885Y-145156012D01*
X94188603Y-145172479D01*
X94254772Y-145262065D01*
X94267935Y-145275228D01*
X94357521Y-145341397D01*
X94373988Y-145350115D01*
X94480700Y-145387590D01*
X94495592Y-145390858D01*
X94515307Y-145392721D01*
X94521221Y-145393000D01*
X94601885Y-145393000D01*
X94617124Y-145388525D01*
X94618329Y-145387135D01*
X94620000Y-145379452D01*
X94620000Y-145374884D01*
X95020000Y-145374884D01*
X95024475Y-145390123D01*
X95025865Y-145391328D01*
X95033548Y-145392999D01*
X95118775Y-145392999D01*
X95124699Y-145392720D01*
X95144404Y-145390858D01*
X95159303Y-145387589D01*
X95266012Y-145350115D01*
X95282479Y-145341397D01*
X95372065Y-145275228D01*
X95385228Y-145262065D01*
X95451397Y-145172479D01*
X95460115Y-145156012D01*
X95497590Y-145049300D01*
X95500858Y-145034408D01*
X95502721Y-145014693D01*
X95503000Y-145008779D01*
X95503000Y-144953115D01*
X95498525Y-144937876D01*
X95497135Y-144936671D01*
X95489452Y-144935000D01*
X95038115Y-144935000D01*
X95022876Y-144939475D01*
X95021671Y-144940865D01*
X95020000Y-144948548D01*
X95020000Y-145374884D01*
X94620000Y-145374884D01*
X94620000Y-144953115D01*
X94615525Y-144937876D01*
X94614135Y-144936671D01*
X94606452Y-144935000D01*
X94155116Y-144935000D01*
X94139877Y-144939475D01*
X94138672Y-144940865D01*
X94137001Y-144948548D01*
X94137001Y-145008775D01*
X90273000Y-145008775D01*
X90273000Y-144963115D01*
X90268525Y-144947876D01*
X90267135Y-144946671D01*
X90259452Y-144945000D01*
X89808115Y-144945000D01*
X89792876Y-144949475D01*
X89791671Y-144950865D01*
X89790000Y-144958548D01*
X89790000Y-145384884D01*
X89390000Y-145384884D01*
X89390000Y-144963115D01*
X89385525Y-144947876D01*
X89384135Y-144946671D01*
X89376452Y-144945000D01*
X88925116Y-144945000D01*
X88909877Y-144949475D01*
X88908672Y-144950865D01*
X88907001Y-144958548D01*
X88907001Y-145018775D01*
X88099500Y-145018775D01*
X88099499Y-144600686D01*
X88096493Y-144568873D01*
X88051209Y-144439924D01*
X87970010Y-144329990D01*
X87860076Y-144248791D01*
X87731127Y-144203507D01*
X87723485Y-144202785D01*
X87723482Y-144202784D01*
X87708579Y-144201376D01*
X87699315Y-144200500D01*
X87370223Y-144200500D01*
X87040686Y-144200501D01*
X87037738Y-144200780D01*
X87037729Y-144200780D01*
X87016522Y-144202784D01*
X87016520Y-144202784D01*
X87008873Y-144203507D01*
X86879924Y-144248791D01*
X86769990Y-144329990D01*
X86688791Y-144439924D01*
X86643507Y-144568873D01*
X86640500Y-144600685D01*
X83896200Y-144600685D01*
X83896200Y-142950685D01*
X86640500Y-142950685D01*
X86640501Y-143459314D01*
X86643507Y-143491127D01*
X86688791Y-143620076D01*
X86769990Y-143730010D01*
X86879924Y-143811209D01*
X87008873Y-143856493D01*
X87016515Y-143857215D01*
X87016518Y-143857216D01*
X87031421Y-143858624D01*
X87040685Y-143859500D01*
X87369777Y-143859500D01*
X87699314Y-143859499D01*
X87702262Y-143859220D01*
X87702271Y-143859220D01*
X87723478Y-143857216D01*
X87723480Y-143857216D01*
X87731127Y-143856493D01*
X87860076Y-143811209D01*
X87970010Y-143730010D01*
X87975602Y-143722439D01*
X87975605Y-143722436D01*
X88045622Y-143627641D01*
X88102183Y-143584730D01*
X88146973Y-143576500D01*
X88800187Y-143576500D01*
X88868308Y-143596502D01*
X88910709Y-143641995D01*
X88911931Y-143644228D01*
X88915083Y-143652635D01*
X88997456Y-143762544D01*
X89004633Y-143767923D01*
X89100183Y-143839535D01*
X89100186Y-143839537D01*
X89107365Y-143844917D01*
X89115769Y-143848067D01*
X89115770Y-143848068D01*
X89192532Y-143876844D01*
X89249297Y-143919485D01*
X89273997Y-143986046D01*
X89258790Y-144055395D01*
X89208504Y-144105514D01*
X89190053Y-144113708D01*
X89143986Y-144129886D01*
X89127521Y-144138603D01*
X89037935Y-144204772D01*
X89024772Y-144217935D01*
X88958603Y-144307521D01*
X88949885Y-144323988D01*
X88912410Y-144430700D01*
X88909142Y-144445592D01*
X88907279Y-144465307D01*
X88907000Y-144471221D01*
X88907000Y-144526885D01*
X88911475Y-144542124D01*
X88912865Y-144543329D01*
X88920548Y-144545000D01*
X90254884Y-144545000D01*
X90270123Y-144540525D01*
X90271328Y-144539135D01*
X90272999Y-144531452D01*
X90272999Y-144471225D01*
X90272720Y-144465301D01*
X90270858Y-144445596D01*
X90267589Y-144430697D01*
X90230115Y-144323988D01*
X90221397Y-144307521D01*
X90155228Y-144217935D01*
X90142065Y-144204772D01*
X90052479Y-144138603D01*
X90036014Y-144129886D01*
X89989947Y-144113708D01*
X89932302Y-144072265D01*
X89906215Y-144006235D01*
X89919966Y-143936583D01*
X89969192Y-143885422D01*
X89987468Y-143876844D01*
X90064230Y-143848068D01*
X90064231Y-143848067D01*
X90072635Y-143844917D01*
X90079814Y-143839537D01*
X90079817Y-143839535D01*
X90175367Y-143767923D01*
X90182544Y-143762544D01*
X90264917Y-143652635D01*
X90268069Y-143644228D01*
X90269291Y-143641995D01*
X90319548Y-143591847D01*
X90379813Y-143576500D01*
X90716634Y-143576500D01*
X90784755Y-143596502D01*
X90831248Y-143650158D01*
X90835515Y-143660748D01*
X90838791Y-143670076D01*
X90919990Y-143780010D01*
X91029924Y-143861209D01*
X91158873Y-143906493D01*
X91166515Y-143907215D01*
X91166518Y-143907216D01*
X91181421Y-143908624D01*
X91190685Y-143909500D01*
X91444828Y-143909500D01*
X91699314Y-143909499D01*
X91702262Y-143909220D01*
X91702271Y-143909220D01*
X91723478Y-143907216D01*
X91723480Y-143907216D01*
X91731127Y-143906493D01*
X91860076Y-143861209D01*
X91970010Y-143780010D01*
X92051209Y-143670076D01*
X92096493Y-143541127D01*
X92099500Y-143509315D01*
X92099499Y-142850686D01*
X92096493Y-142818873D01*
X92051209Y-142689924D01*
X91970010Y-142579990D01*
X91860076Y-142498791D01*
X91731127Y-142453507D01*
X91723485Y-142452785D01*
X91723482Y-142452784D01*
X91708579Y-142451376D01*
X91699315Y-142450500D01*
X91445172Y-142450500D01*
X91190686Y-142450501D01*
X91187738Y-142450780D01*
X91187729Y-142450780D01*
X91166522Y-142452784D01*
X91166520Y-142452784D01*
X91158873Y-142453507D01*
X91029924Y-142498791D01*
X90919990Y-142579990D01*
X90838791Y-142689924D01*
X90835670Y-142698810D01*
X90835670Y-142698811D01*
X90824981Y-142729249D01*
X90783538Y-142786894D01*
X90717509Y-142812982D01*
X90706099Y-142813500D01*
X90379813Y-142813500D01*
X90311692Y-142793498D01*
X90269291Y-142748005D01*
X90268069Y-142745772D01*
X90264917Y-142737365D01*
X90182544Y-142627456D01*
X90162024Y-142612077D01*
X90079817Y-142550465D01*
X90079814Y-142550463D01*
X90072635Y-142545083D01*
X90064230Y-142541932D01*
X89951419Y-142499642D01*
X89951418Y-142499642D01*
X89944024Y-142496870D01*
X89936174Y-142496017D01*
X89936173Y-142496017D01*
X89888786Y-142490869D01*
X89888785Y-142490869D01*
X89885389Y-142490500D01*
X89590044Y-142490500D01*
X89294612Y-142490501D01*
X89291218Y-142490870D01*
X89291212Y-142490870D01*
X89243834Y-142496016D01*
X89243830Y-142496017D01*
X89235976Y-142496870D01*
X89143335Y-142531599D01*
X89119684Y-142540465D01*
X89107365Y-142545083D01*
X89100186Y-142550463D01*
X89100183Y-142550465D01*
X89017976Y-142612077D01*
X88997456Y-142627456D01*
X88915083Y-142737365D01*
X88911931Y-142745772D01*
X88910709Y-142748005D01*
X88860452Y-142798153D01*
X88800187Y-142813500D01*
X88132201Y-142813500D01*
X88064080Y-142793498D01*
X88030850Y-142762360D01*
X87975602Y-142687561D01*
X87970010Y-142679990D01*
X87860076Y-142598791D01*
X87731127Y-142553507D01*
X87723485Y-142552785D01*
X87723482Y-142552784D01*
X87708579Y-142551376D01*
X87699315Y-142550500D01*
X87370223Y-142550500D01*
X87040686Y-142550501D01*
X87037738Y-142550780D01*
X87037729Y-142550780D01*
X87016522Y-142552784D01*
X87016520Y-142552784D01*
X87008873Y-142553507D01*
X86879924Y-142598791D01*
X86769990Y-142679990D01*
X86688791Y-142789924D01*
X86643507Y-142918873D01*
X86642785Y-142926515D01*
X86642784Y-142926518D01*
X86641376Y-142941421D01*
X86640500Y-142950685D01*
X83896200Y-142950685D01*
X83896200Y-131640685D01*
X86690500Y-131640685D01*
X86690501Y-132149314D01*
X86690780Y-132152262D01*
X86690780Y-132152271D01*
X86691445Y-132159303D01*
X86693507Y-132181127D01*
X86738791Y-132310076D01*
X86819990Y-132420010D01*
X86827561Y-132425602D01*
X86922351Y-132495616D01*
X86922354Y-132495617D01*
X86929924Y-132501209D01*
X86954250Y-132509752D01*
X87011894Y-132551195D01*
X87037982Y-132617224D01*
X87038500Y-132628634D01*
X87038500Y-132682924D01*
X87018498Y-132751045D01*
X86973862Y-132792648D01*
X86967365Y-132795083D01*
X86857456Y-132877456D01*
X86852077Y-132884633D01*
X86780465Y-132980183D01*
X86780463Y-132980186D01*
X86775083Y-132987365D01*
X86771933Y-132995769D01*
X86771932Y-132995770D01*
X86739453Y-133082411D01*
X86726870Y-133115976D01*
X86726017Y-133123826D01*
X86726017Y-133123827D01*
X86725498Y-133128603D01*
X86720500Y-133174611D01*
X86720501Y-133765388D01*
X86720870Y-133768782D01*
X86720870Y-133768788D01*
X86725271Y-133809300D01*
X86726870Y-133824024D01*
X86761354Y-133916012D01*
X86769099Y-133936671D01*
X86775083Y-133952635D01*
X86780463Y-133959814D01*
X86780465Y-133959817D01*
X86847530Y-134049300D01*
X86857456Y-134062544D01*
X86967365Y-134144917D01*
X86975772Y-134148069D01*
X86978005Y-134149291D01*
X87028153Y-134199548D01*
X87043500Y-134259813D01*
X87043500Y-134505561D01*
X87023498Y-134573682D01*
X86977197Y-134616237D01*
X86969924Y-134618791D01*
X86859990Y-134699990D01*
X86778791Y-134809924D01*
X86733507Y-134938873D01*
X86730500Y-134970685D01*
X86730501Y-135629314D01*
X86730780Y-135632262D01*
X86730780Y-135632271D01*
X86732784Y-135653478D01*
X86733507Y-135661127D01*
X86778791Y-135790076D01*
X86859990Y-135900010D01*
X86969924Y-135981209D01*
X87098873Y-136026493D01*
X87106515Y-136027215D01*
X87106518Y-136027216D01*
X87121421Y-136028624D01*
X87130685Y-136029500D01*
X87384828Y-136029500D01*
X87639314Y-136029499D01*
X87642262Y-136029220D01*
X87642271Y-136029220D01*
X87663478Y-136027216D01*
X87663480Y-136027216D01*
X87671127Y-136026493D01*
X87800076Y-135981209D01*
X87910010Y-135900010D01*
X87991209Y-135790076D01*
X88036493Y-135661127D01*
X88039500Y-135629315D01*
X88039499Y-134970686D01*
X88039499Y-134970685D01*
X88380500Y-134970685D01*
X88380501Y-135629314D01*
X88380780Y-135632262D01*
X88380780Y-135632271D01*
X88382784Y-135653478D01*
X88383507Y-135661127D01*
X88428791Y-135790076D01*
X88509990Y-135900010D01*
X88619924Y-135981209D01*
X88748873Y-136026493D01*
X88756515Y-136027215D01*
X88756518Y-136027216D01*
X88771421Y-136028624D01*
X88780685Y-136029500D01*
X89034828Y-136029500D01*
X89289314Y-136029499D01*
X89292262Y-136029220D01*
X89292271Y-136029220D01*
X89313478Y-136027216D01*
X89313480Y-136027216D01*
X89321127Y-136026493D01*
X89450076Y-135981209D01*
X89560010Y-135900010D01*
X89635613Y-135797653D01*
X89635616Y-135797649D01*
X89635617Y-135797646D01*
X89641209Y-135790076D01*
X89649752Y-135765750D01*
X89691195Y-135708106D01*
X89757224Y-135682018D01*
X89768634Y-135681500D01*
X90368399Y-135681500D01*
X90436520Y-135701502D01*
X90474950Y-135742735D01*
X90475083Y-135742635D01*
X90557456Y-135852544D01*
X90564633Y-135857923D01*
X90660183Y-135929535D01*
X90660186Y-135929537D01*
X90667365Y-135934917D01*
X90675769Y-135938067D01*
X90675770Y-135938068D01*
X90788581Y-135980358D01*
X90788582Y-135980358D01*
X90795976Y-135983130D01*
X90803826Y-135983983D01*
X90803827Y-135983983D01*
X90851205Y-135989130D01*
X90854611Y-135989500D01*
X91149956Y-135989500D01*
X91445388Y-135989499D01*
X91448782Y-135989130D01*
X91448788Y-135989130D01*
X91496166Y-135983984D01*
X91496170Y-135983983D01*
X91504024Y-135983130D01*
X91632635Y-135934917D01*
X91639814Y-135929537D01*
X91639817Y-135929535D01*
X91735367Y-135857923D01*
X91742544Y-135852544D01*
X91824917Y-135742635D01*
X91825221Y-135742863D01*
X91871334Y-135696848D01*
X91931601Y-135681500D01*
X92441366Y-135681500D01*
X92509487Y-135701502D01*
X92555980Y-135755158D01*
X92560247Y-135765745D01*
X92568791Y-135790076D01*
X92574383Y-135797646D01*
X92574384Y-135797649D01*
X92574387Y-135797653D01*
X92649990Y-135900010D01*
X92759924Y-135981209D01*
X92888873Y-136026493D01*
X92896515Y-136027215D01*
X92896518Y-136027216D01*
X92911421Y-136028624D01*
X92920685Y-136029500D01*
X93174828Y-136029500D01*
X93429314Y-136029499D01*
X93432262Y-136029220D01*
X93432271Y-136029220D01*
X93453478Y-136027216D01*
X93453480Y-136027216D01*
X93461127Y-136026493D01*
X93590076Y-135981209D01*
X93700010Y-135900010D01*
X93781209Y-135790076D01*
X93826493Y-135661127D01*
X93829500Y-135629315D01*
X93829499Y-134970686D01*
X93827400Y-134948466D01*
X93827216Y-134946522D01*
X93827215Y-134946518D01*
X93826493Y-134938873D01*
X93781209Y-134809924D01*
X93700010Y-134699990D01*
X93590076Y-134618791D01*
X93461127Y-134573507D01*
X93453485Y-134572785D01*
X93453482Y-134572784D01*
X93438579Y-134571376D01*
X93429315Y-134570500D01*
X93175172Y-134570500D01*
X92920686Y-134570501D01*
X92917738Y-134570780D01*
X92917729Y-134570780D01*
X92896522Y-134572784D01*
X92896520Y-134572784D01*
X92888873Y-134573507D01*
X92759924Y-134618791D01*
X92649990Y-134699990D01*
X92644398Y-134707561D01*
X92574384Y-134802351D01*
X92574383Y-134802354D01*
X92568791Y-134809924D01*
X92560954Y-134832242D01*
X92560249Y-134834249D01*
X92518805Y-134891894D01*
X92452776Y-134917982D01*
X92441366Y-134918500D01*
X91946409Y-134918500D01*
X91878288Y-134898498D01*
X91831795Y-134844842D01*
X91828427Y-134836729D01*
X91828068Y-134835770D01*
X91828067Y-134835769D01*
X91824917Y-134827365D01*
X91742544Y-134717456D01*
X91729341Y-134707561D01*
X91639817Y-134640465D01*
X91639814Y-134640463D01*
X91632635Y-134635083D01*
X91584174Y-134616916D01*
X91547468Y-134603156D01*
X91490703Y-134560515D01*
X91466003Y-134493954D01*
X91481210Y-134424605D01*
X91531496Y-134374486D01*
X91549947Y-134366292D01*
X91596014Y-134350114D01*
X91612479Y-134341397D01*
X91702065Y-134275228D01*
X91715228Y-134262065D01*
X91781397Y-134172479D01*
X91790115Y-134156012D01*
X91827590Y-134049300D01*
X91830858Y-134034408D01*
X91832721Y-134014693D01*
X91833000Y-134008779D01*
X91833000Y-133953115D01*
X91828525Y-133937876D01*
X91827135Y-133936671D01*
X91819452Y-133935000D01*
X90485116Y-133935000D01*
X90469877Y-133939475D01*
X90468672Y-133940865D01*
X90467001Y-133948548D01*
X90467001Y-134008775D01*
X90467280Y-134014699D01*
X90469142Y-134034404D01*
X90472411Y-134049303D01*
X90509885Y-134156012D01*
X90518603Y-134172479D01*
X90584772Y-134262065D01*
X90597935Y-134275228D01*
X90687521Y-134341397D01*
X90703986Y-134350114D01*
X90750053Y-134366292D01*
X90807698Y-134407735D01*
X90833785Y-134473765D01*
X90820034Y-134543417D01*
X90770808Y-134594578D01*
X90752532Y-134603156D01*
X90715827Y-134616916D01*
X90667365Y-134635083D01*
X90660186Y-134640463D01*
X90660183Y-134640465D01*
X90570659Y-134707561D01*
X90557456Y-134717456D01*
X90475083Y-134827365D01*
X90471933Y-134835769D01*
X90471932Y-134835770D01*
X90471573Y-134836729D01*
X90470963Y-134837541D01*
X90467623Y-134843642D01*
X90466742Y-134843160D01*
X90428932Y-134893494D01*
X90362370Y-134918194D01*
X90353591Y-134918500D01*
X89768634Y-134918500D01*
X89700513Y-134898498D01*
X89654020Y-134844842D01*
X89649751Y-134834249D01*
X89649046Y-134832242D01*
X89641209Y-134809924D01*
X89635617Y-134802354D01*
X89635616Y-134802351D01*
X89565602Y-134707561D01*
X89560010Y-134699990D01*
X89450076Y-134618791D01*
X89321127Y-134573507D01*
X89313485Y-134572785D01*
X89313482Y-134572784D01*
X89298579Y-134571376D01*
X89289315Y-134570500D01*
X89035172Y-134570500D01*
X88780686Y-134570501D01*
X88777738Y-134570780D01*
X88777729Y-134570780D01*
X88756522Y-134572784D01*
X88756520Y-134572784D01*
X88748873Y-134573507D01*
X88619924Y-134618791D01*
X88509990Y-134699990D01*
X88428791Y-134809924D01*
X88383507Y-134938873D01*
X88380500Y-134970685D01*
X88039499Y-134970685D01*
X88037400Y-134948466D01*
X88037216Y-134946522D01*
X88037215Y-134946518D01*
X88036493Y-134938873D01*
X87991209Y-134809924D01*
X87910010Y-134699990D01*
X87857640Y-134661308D01*
X87814729Y-134604747D01*
X87806500Y-134559958D01*
X87806500Y-134259813D01*
X87826502Y-134191692D01*
X87871995Y-134149291D01*
X87874228Y-134148069D01*
X87882635Y-134144917D01*
X87992544Y-134062544D01*
X88002470Y-134049300D01*
X88069535Y-133959817D01*
X88069537Y-133959814D01*
X88074917Y-133952635D01*
X88079851Y-133939475D01*
X88106844Y-133867468D01*
X88149485Y-133810703D01*
X88216046Y-133786003D01*
X88285395Y-133801210D01*
X88335514Y-133851496D01*
X88343708Y-133869947D01*
X88359886Y-133916014D01*
X88368603Y-133932479D01*
X88434772Y-134022065D01*
X88447935Y-134035228D01*
X88537521Y-134101397D01*
X88553988Y-134110115D01*
X88660700Y-134147590D01*
X88675592Y-134150858D01*
X88695307Y-134152721D01*
X88701221Y-134153000D01*
X88756885Y-134153000D01*
X88772124Y-134148525D01*
X88773329Y-134147135D01*
X88775000Y-134139452D01*
X88775000Y-134134884D01*
X89175000Y-134134884D01*
X89179475Y-134150123D01*
X89180865Y-134151328D01*
X89188548Y-134152999D01*
X89248775Y-134152999D01*
X89254699Y-134152720D01*
X89274404Y-134150858D01*
X89289303Y-134147589D01*
X89396012Y-134110115D01*
X89412479Y-134101397D01*
X89502065Y-134035228D01*
X89515228Y-134022065D01*
X89581397Y-133932479D01*
X89590115Y-133916012D01*
X89627590Y-133809300D01*
X89630858Y-133794408D01*
X89632721Y-133774693D01*
X89633000Y-133768779D01*
X89633000Y-133688115D01*
X89628525Y-133672876D01*
X89627135Y-133671671D01*
X89619452Y-133670000D01*
X89193115Y-133670000D01*
X89177876Y-133674475D01*
X89176671Y-133675865D01*
X89175000Y-133683548D01*
X89175000Y-134134884D01*
X88775000Y-134134884D01*
X88775000Y-133516885D01*
X90467000Y-133516885D01*
X90471475Y-133532124D01*
X90472865Y-133533329D01*
X90480548Y-133535000D01*
X90931885Y-133535000D01*
X90947124Y-133530525D01*
X90948329Y-133529135D01*
X90950000Y-133521452D01*
X90950000Y-133516885D01*
X91350000Y-133516885D01*
X91354475Y-133532124D01*
X91355865Y-133533329D01*
X91363548Y-133535000D01*
X91814884Y-133535000D01*
X91830123Y-133530525D01*
X91831328Y-133529135D01*
X91832999Y-133521452D01*
X91832999Y-133461225D01*
X91832720Y-133455301D01*
X91830858Y-133435596D01*
X91827589Y-133420697D01*
X91790115Y-133313988D01*
X91781397Y-133297521D01*
X91715228Y-133207935D01*
X91702065Y-133194772D01*
X91612479Y-133128603D01*
X91596012Y-133119885D01*
X91489300Y-133082410D01*
X91474408Y-133079142D01*
X91454693Y-133077279D01*
X91448779Y-133077000D01*
X91368115Y-133077000D01*
X91352876Y-133081475D01*
X91351671Y-133082865D01*
X91350000Y-133090548D01*
X91350000Y-133516885D01*
X90950000Y-133516885D01*
X90950000Y-133095116D01*
X90945525Y-133079877D01*
X90944135Y-133078672D01*
X90936452Y-133077001D01*
X90851225Y-133077001D01*
X90845301Y-133077280D01*
X90825596Y-133079142D01*
X90810697Y-133082411D01*
X90703988Y-133119885D01*
X90687521Y-133128603D01*
X90597935Y-133194772D01*
X90584772Y-133207935D01*
X90518603Y-133297521D01*
X90509885Y-133313988D01*
X90472410Y-133420700D01*
X90469142Y-133435592D01*
X90467279Y-133455307D01*
X90467000Y-133461221D01*
X90467000Y-133516885D01*
X88775000Y-133516885D01*
X88775000Y-133251885D01*
X89175000Y-133251885D01*
X89179475Y-133267124D01*
X89180865Y-133268329D01*
X89188548Y-133270000D01*
X89614884Y-133270000D01*
X89630123Y-133265525D01*
X89631328Y-133264135D01*
X89632999Y-133256452D01*
X89632999Y-133171225D01*
X89632720Y-133165301D01*
X89630858Y-133145596D01*
X89627589Y-133130697D01*
X89590115Y-133023988D01*
X89581397Y-133007521D01*
X89515228Y-132917935D01*
X89502065Y-132904772D01*
X89412479Y-132838603D01*
X89396012Y-132829885D01*
X89289300Y-132792410D01*
X89274408Y-132789142D01*
X89254693Y-132787279D01*
X89248779Y-132787000D01*
X89193115Y-132787000D01*
X89177876Y-132791475D01*
X89176671Y-132792865D01*
X89175000Y-132800548D01*
X89175000Y-133251885D01*
X88775000Y-133251885D01*
X88775000Y-132805116D01*
X88770525Y-132789877D01*
X88769135Y-132788672D01*
X88761452Y-132787001D01*
X88701225Y-132787001D01*
X88695301Y-132787280D01*
X88675596Y-132789142D01*
X88660697Y-132792411D01*
X88553988Y-132829885D01*
X88537521Y-132838603D01*
X88447935Y-132904772D01*
X88434772Y-132917935D01*
X88368603Y-133007521D01*
X88359886Y-133023986D01*
X88343708Y-133070053D01*
X88302265Y-133127698D01*
X88236235Y-133153785D01*
X88166583Y-133140034D01*
X88115422Y-133090808D01*
X88106844Y-133072532D01*
X88078068Y-132995770D01*
X88078067Y-132995769D01*
X88074917Y-132987365D01*
X88069537Y-132980186D01*
X88069535Y-132980183D01*
X87997923Y-132884633D01*
X87992544Y-132877456D01*
X87882635Y-132795083D01*
X87874231Y-132791933D01*
X87866993Y-132787970D01*
X87816846Y-132737712D01*
X87801500Y-132677449D01*
X87801500Y-132628634D01*
X87821502Y-132560513D01*
X87875158Y-132514020D01*
X87885745Y-132509753D01*
X87910076Y-132501209D01*
X87917646Y-132495617D01*
X87917649Y-132495616D01*
X88012439Y-132425602D01*
X88020010Y-132420010D01*
X88101209Y-132310076D01*
X88146493Y-132181127D01*
X88149500Y-132149315D01*
X88149500Y-132108775D01*
X88917001Y-132108775D01*
X88917280Y-132114699D01*
X88919142Y-132134404D01*
X88922411Y-132149303D01*
X88959885Y-132256012D01*
X88968603Y-132272479D01*
X89034772Y-132362065D01*
X89047935Y-132375228D01*
X89137521Y-132441397D01*
X89153988Y-132450115D01*
X89260700Y-132487590D01*
X89275592Y-132490858D01*
X89295307Y-132492721D01*
X89301221Y-132493000D01*
X89381885Y-132493000D01*
X89397124Y-132488525D01*
X89398329Y-132487135D01*
X89400000Y-132479452D01*
X89400000Y-132474884D01*
X89800000Y-132474884D01*
X89804475Y-132490123D01*
X89805865Y-132491328D01*
X89813548Y-132492999D01*
X89898775Y-132492999D01*
X89904699Y-132492720D01*
X89924404Y-132490858D01*
X89939303Y-132487589D01*
X90046012Y-132450115D01*
X90062479Y-132441397D01*
X90152065Y-132375228D01*
X90165228Y-132362065D01*
X90231397Y-132272479D01*
X90240115Y-132256012D01*
X90277590Y-132149300D01*
X90280858Y-132134408D01*
X90282335Y-132118775D01*
X94147001Y-132118775D01*
X94147280Y-132124699D01*
X94149142Y-132144404D01*
X94152411Y-132159303D01*
X94189885Y-132266012D01*
X94198603Y-132282479D01*
X94264772Y-132372065D01*
X94277935Y-132385228D01*
X94367521Y-132451397D01*
X94383988Y-132460115D01*
X94490700Y-132497590D01*
X94505592Y-132500858D01*
X94525307Y-132502721D01*
X94531221Y-132503000D01*
X94611885Y-132503000D01*
X94627124Y-132498525D01*
X94628329Y-132497135D01*
X94630000Y-132489452D01*
X94630000Y-132484884D01*
X95030000Y-132484884D01*
X95034475Y-132500123D01*
X95035865Y-132501328D01*
X95043548Y-132502999D01*
X95128775Y-132502999D01*
X95134699Y-132502720D01*
X95154404Y-132500858D01*
X95169303Y-132497589D01*
X95276012Y-132460115D01*
X95292479Y-132451397D01*
X95382065Y-132385228D01*
X95395228Y-132372065D01*
X95461397Y-132282479D01*
X95470115Y-132266012D01*
X95507590Y-132159300D01*
X95510858Y-132144408D01*
X95512721Y-132124693D01*
X95513000Y-132118779D01*
X95513000Y-132063115D01*
X95508525Y-132047876D01*
X95507135Y-132046671D01*
X95499452Y-132045000D01*
X95048115Y-132045000D01*
X95032876Y-132049475D01*
X95031671Y-132050865D01*
X95030000Y-132058548D01*
X95030000Y-132484884D01*
X94630000Y-132484884D01*
X94630000Y-132063115D01*
X94625525Y-132047876D01*
X94624135Y-132046671D01*
X94616452Y-132045000D01*
X94165116Y-132045000D01*
X94149877Y-132049475D01*
X94148672Y-132050865D01*
X94147001Y-132058548D01*
X94147001Y-132118775D01*
X90282335Y-132118775D01*
X90282721Y-132114693D01*
X90283000Y-132108779D01*
X90283000Y-132053115D01*
X90278525Y-132037876D01*
X90277135Y-132036671D01*
X90269452Y-132035000D01*
X89818115Y-132035000D01*
X89802876Y-132039475D01*
X89801671Y-132040865D01*
X89800000Y-132048548D01*
X89800000Y-132474884D01*
X89400000Y-132474884D01*
X89400000Y-132053115D01*
X89395525Y-132037876D01*
X89394135Y-132036671D01*
X89386452Y-132035000D01*
X88935116Y-132035000D01*
X88919877Y-132039475D01*
X88918672Y-132040865D01*
X88917001Y-132048548D01*
X88917001Y-132108775D01*
X88149500Y-132108775D01*
X88149499Y-131640686D01*
X88148627Y-131631452D01*
X88147216Y-131616522D01*
X88147215Y-131616518D01*
X88146493Y-131608873D01*
X88101209Y-131479924D01*
X88020010Y-131369990D01*
X87910076Y-131288791D01*
X87781127Y-131243507D01*
X87773485Y-131242785D01*
X87773482Y-131242784D01*
X87758579Y-131241376D01*
X87749315Y-131240500D01*
X87420223Y-131240500D01*
X87090686Y-131240501D01*
X87087738Y-131240780D01*
X87087729Y-131240780D01*
X87066522Y-131242784D01*
X87066520Y-131242784D01*
X87058873Y-131243507D01*
X86929924Y-131288791D01*
X86819990Y-131369990D01*
X86738791Y-131479924D01*
X86693507Y-131608873D01*
X86692785Y-131616515D01*
X86692784Y-131616518D01*
X86692318Y-131621452D01*
X86690500Y-131640685D01*
X83896200Y-131640685D01*
X83896200Y-129990685D01*
X86690500Y-129990685D01*
X86690501Y-130499314D01*
X86693507Y-130531127D01*
X86738791Y-130660076D01*
X86819990Y-130770010D01*
X86929924Y-130851209D01*
X87058873Y-130896493D01*
X87066515Y-130897215D01*
X87066518Y-130897216D01*
X87081421Y-130898624D01*
X87090685Y-130899500D01*
X87419777Y-130899500D01*
X87749314Y-130899499D01*
X87752262Y-130899220D01*
X87752271Y-130899220D01*
X87773478Y-130897216D01*
X87773480Y-130897216D01*
X87781127Y-130896493D01*
X87910076Y-130851209D01*
X88020010Y-130770010D01*
X88058692Y-130717640D01*
X88115253Y-130674729D01*
X88160042Y-130666500D01*
X88810187Y-130666500D01*
X88878308Y-130686502D01*
X88920709Y-130731995D01*
X88921931Y-130734228D01*
X88925083Y-130742635D01*
X89007456Y-130852544D01*
X89014633Y-130857923D01*
X89110183Y-130929535D01*
X89110186Y-130929537D01*
X89117365Y-130934917D01*
X89125769Y-130938067D01*
X89125770Y-130938068D01*
X89202532Y-130966844D01*
X89259297Y-131009485D01*
X89283997Y-131076046D01*
X89268790Y-131145395D01*
X89218504Y-131195514D01*
X89200053Y-131203708D01*
X89153986Y-131219886D01*
X89137521Y-131228603D01*
X89047935Y-131294772D01*
X89034772Y-131307935D01*
X88968603Y-131397521D01*
X88959885Y-131413988D01*
X88922410Y-131520700D01*
X88919142Y-131535592D01*
X88917279Y-131555307D01*
X88917000Y-131561221D01*
X88917000Y-131616885D01*
X88921475Y-131632124D01*
X88922865Y-131633329D01*
X88930548Y-131635000D01*
X90264884Y-131635000D01*
X90280123Y-131630525D01*
X90281328Y-131629135D01*
X90282999Y-131621452D01*
X90282999Y-131561225D01*
X90282720Y-131555301D01*
X90280858Y-131535596D01*
X90277589Y-131520697D01*
X90240115Y-131413988D01*
X90231397Y-131397521D01*
X90165228Y-131307935D01*
X90152065Y-131294772D01*
X90062479Y-131228603D01*
X90046014Y-131219886D01*
X89999947Y-131203708D01*
X89942302Y-131162265D01*
X89916215Y-131096235D01*
X89929966Y-131026583D01*
X89979192Y-130975422D01*
X89997468Y-130966844D01*
X90074230Y-130938068D01*
X90074231Y-130938067D01*
X90082635Y-130934917D01*
X90089814Y-130929537D01*
X90089817Y-130929535D01*
X90185367Y-130857923D01*
X90192544Y-130852544D01*
X90274917Y-130742635D01*
X90277317Y-130736234D01*
X90326812Y-130686846D01*
X90387076Y-130671500D01*
X90661366Y-130671500D01*
X90729487Y-130691502D01*
X90775980Y-130745158D01*
X90780247Y-130755745D01*
X90788791Y-130780076D01*
X90794383Y-130787646D01*
X90794384Y-130787649D01*
X90841331Y-130851209D01*
X90869990Y-130890010D01*
X90979924Y-130971209D01*
X91108873Y-131016493D01*
X91116515Y-131017215D01*
X91116518Y-131017216D01*
X91131421Y-131018624D01*
X91140685Y-131019500D01*
X91394828Y-131019500D01*
X91649314Y-131019499D01*
X91652262Y-131019220D01*
X91652271Y-131019220D01*
X91673478Y-131017216D01*
X91673480Y-131017216D01*
X91681127Y-131016493D01*
X91810076Y-130971209D01*
X91920010Y-130890010D01*
X92001209Y-130780076D01*
X92046493Y-130651127D01*
X92049500Y-130619315D01*
X92049499Y-129960686D01*
X92048345Y-129948466D01*
X92047216Y-129936522D01*
X92047215Y-129936518D01*
X92046493Y-129928873D01*
X92001209Y-129799924D01*
X91920010Y-129689990D01*
X91810076Y-129608791D01*
X91681127Y-129563507D01*
X91673485Y-129562785D01*
X91673482Y-129562784D01*
X91658579Y-129561376D01*
X91649315Y-129560500D01*
X91395172Y-129560500D01*
X91140686Y-129560501D01*
X91137738Y-129560780D01*
X91137729Y-129560780D01*
X91116522Y-129562784D01*
X91116520Y-129562784D01*
X91108873Y-129563507D01*
X90979924Y-129608791D01*
X90869990Y-129689990D01*
X90864398Y-129697561D01*
X90794384Y-129792351D01*
X90794383Y-129792354D01*
X90788791Y-129799924D01*
X90780249Y-129824249D01*
X90738805Y-129881894D01*
X90672776Y-129907982D01*
X90661366Y-129908500D01*
X90392551Y-129908500D01*
X90324430Y-129888498D01*
X90282030Y-129843007D01*
X90278067Y-129835769D01*
X90274917Y-129827365D01*
X90192544Y-129717456D01*
X90185367Y-129712077D01*
X90089817Y-129640465D01*
X90089814Y-129640463D01*
X90082635Y-129635083D01*
X90074230Y-129631932D01*
X89961419Y-129589642D01*
X89961418Y-129589642D01*
X89954024Y-129586870D01*
X89946174Y-129586017D01*
X89946173Y-129586017D01*
X89898786Y-129580869D01*
X89898785Y-129580869D01*
X89895389Y-129580500D01*
X89600044Y-129580500D01*
X89304612Y-129580501D01*
X89301218Y-129580870D01*
X89301212Y-129580870D01*
X89253834Y-129586016D01*
X89253830Y-129586017D01*
X89245976Y-129586870D01*
X89117365Y-129635083D01*
X89110186Y-129640463D01*
X89110183Y-129640465D01*
X89014633Y-129712077D01*
X89007456Y-129717456D01*
X88925083Y-129827365D01*
X88921931Y-129835772D01*
X88920709Y-129838005D01*
X88870452Y-129888153D01*
X88810187Y-129903500D01*
X88214439Y-129903500D01*
X88146318Y-129883498D01*
X88103763Y-129837197D01*
X88101209Y-129829924D01*
X88020010Y-129719990D01*
X87910076Y-129638791D01*
X87781127Y-129593507D01*
X87773485Y-129592785D01*
X87773482Y-129592784D01*
X87758579Y-129591376D01*
X87749315Y-129590500D01*
X87420223Y-129590500D01*
X87090686Y-129590501D01*
X87087738Y-129590780D01*
X87087729Y-129590780D01*
X87066522Y-129592784D01*
X87066520Y-129592784D01*
X87058873Y-129593507D01*
X86929924Y-129638791D01*
X86819990Y-129719990D01*
X86738791Y-129829924D01*
X86693507Y-129958873D01*
X86690500Y-129990685D01*
X83896200Y-129990685D01*
X83896200Y-124027200D01*
X83916202Y-123959079D01*
X83969858Y-123912586D01*
X84022200Y-123901200D01*
X95962200Y-123901200D01*
X96030321Y-123921202D01*
G37*
G04 #@! TD.AperFunction*
M02*
