G04 #@! TF.GenerationSoftware,KiCad,Pcbnew,(6.0.0)*
G04 #@! TF.CreationDate,2022-02-22T08:31:50+01:00*
G04 #@! TF.ProjectId,FilterDaughterboard,46696c74-6572-4446-9175-676874657262,rev?*
G04 #@! TF.SameCoordinates,Original*
G04 #@! TF.FileFunction,Copper,L1,Top*
G04 #@! TF.FilePolarity,Positive*
%FSLAX46Y46*%
G04 Gerber Fmt 4.6, Leading zero omitted, Abs format (unit mm)*
G04 Created by KiCad (PCBNEW (6.0.0)) date 2022-02-22 08:31:50*
%MOMM*%
%LPD*%
G01*
G04 APERTURE LIST*
G04 Aperture macros list*
%AMRoundRect*
0 Rectangle with rounded corners*
0 $1 Rounding radius*
0 $2 $3 $4 $5 $6 $7 $8 $9 X,Y pos of 4 corners*
0 Add a 4 corners polygon primitive as box body*
4,1,4,$2,$3,$4,$5,$6,$7,$8,$9,$2,$3,0*
0 Add four circle primitives for the rounded corners*
1,1,$1+$1,$2,$3*
1,1,$1+$1,$4,$5*
1,1,$1+$1,$6,$7*
1,1,$1+$1,$8,$9*
0 Add four rect primitives between the rounded corners*
20,1,$1+$1,$2,$3,$4,$5,0*
20,1,$1+$1,$4,$5,$6,$7,0*
20,1,$1+$1,$6,$7,$8,$9,0*
20,1,$1+$1,$8,$9,$2,$3,0*%
G04 Aperture macros list end*
G04 #@! TA.AperFunction,SMDPad,CuDef*
%ADD10RoundRect,0.225000X0.250000X-0.225000X0.250000X0.225000X-0.250000X0.225000X-0.250000X-0.225000X0*%
G04 #@! TD*
G04 #@! TA.AperFunction,SMDPad,CuDef*
%ADD11RoundRect,0.200000X-0.200000X-0.275000X0.200000X-0.275000X0.200000X0.275000X-0.200000X0.275000X0*%
G04 #@! TD*
G04 #@! TA.AperFunction,SMDPad,CuDef*
%ADD12RoundRect,0.200000X0.275000X-0.200000X0.275000X0.200000X-0.275000X0.200000X-0.275000X-0.200000X0*%
G04 #@! TD*
G04 #@! TA.AperFunction,SMDPad,CuDef*
%ADD13RoundRect,0.200000X0.200000X0.275000X-0.200000X0.275000X-0.200000X-0.275000X0.200000X-0.275000X0*%
G04 #@! TD*
G04 #@! TA.AperFunction,SMDPad,CuDef*
%ADD14RoundRect,0.200000X-0.275000X0.200000X-0.275000X-0.200000X0.275000X-0.200000X0.275000X0.200000X0*%
G04 #@! TD*
G04 #@! TA.AperFunction,SMDPad,CuDef*
%ADD15R,10.000000X1.500000*%
G04 #@! TD*
G04 #@! TA.AperFunction,SMDPad,CuDef*
%ADD16R,11.999999X1.500000*%
G04 #@! TD*
G04 #@! TA.AperFunction,SMDPad,CuDef*
%ADD17RoundRect,0.225000X-0.225000X-0.250000X0.225000X-0.250000X0.225000X0.250000X-0.225000X0.250000X0*%
G04 #@! TD*
G04 #@! TA.AperFunction,SMDPad,CuDef*
%ADD18RoundRect,0.225000X-0.250000X0.225000X-0.250000X-0.225000X0.250000X-0.225000X0.250000X0.225000X0*%
G04 #@! TD*
G04 #@! TA.AperFunction,ViaPad*
%ADD19C,0.762000*%
G04 #@! TD*
G04 #@! TA.AperFunction,Conductor*
%ADD20C,0.254000*%
G04 #@! TD*
G04 APERTURE END LIST*
D10*
X89570000Y-132785000D03*
X89570000Y-131235000D03*
X94840000Y-145665000D03*
X94840000Y-144115000D03*
D11*
X87385000Y-127800000D03*
X89035000Y-127800000D03*
D12*
X87420000Y-132835000D03*
X87420000Y-131185000D03*
D13*
X93055000Y-132790000D03*
X91405000Y-132790000D03*
D11*
X91435000Y-145690000D03*
X93085000Y-145690000D03*
D14*
X87430000Y-144045000D03*
X87430000Y-145695000D03*
D13*
X89035000Y-140670000D03*
X87385000Y-140670000D03*
D15*
X104612200Y-127787400D03*
D16*
X103612200Y-130287400D03*
X103612200Y-132787400D03*
X103612200Y-135287400D03*
X103612200Y-140687400D03*
X103612200Y-143187400D03*
X103612200Y-145687400D03*
X103612200Y-148187400D03*
D10*
X89590000Y-145665000D03*
X89590000Y-144115000D03*
D17*
X87415000Y-129540000D03*
X88965000Y-129540000D03*
D13*
X94815000Y-140670000D03*
X93165000Y-140670000D03*
D18*
X91180000Y-127805000D03*
X91180000Y-129355000D03*
D11*
X93175000Y-127800000D03*
X94825000Y-127800000D03*
D10*
X94810000Y-132805000D03*
X94810000Y-131255000D03*
D18*
X91170000Y-140655000D03*
X91170000Y-142205000D03*
D17*
X87425000Y-142390000D03*
X88975000Y-142390000D03*
D19*
X88520000Y-131550000D03*
X103590000Y-137940000D03*
X92190000Y-134040000D03*
X90010000Y-134030000D03*
X90670000Y-131550000D03*
X93760000Y-131550000D03*
X105770000Y-137940000D03*
X88524078Y-144410000D03*
X93770000Y-144410000D03*
X92380000Y-146680000D03*
X87000000Y-137940000D03*
X89900000Y-129150000D03*
X92260000Y-129110000D03*
X89180000Y-137940000D03*
X94450000Y-137940000D03*
X90090000Y-141790000D03*
X92270000Y-137940000D03*
X92270000Y-141800000D03*
X90640000Y-144410000D03*
X90020000Y-146790000D03*
D20*
X89035000Y-127800000D02*
X91175000Y-127800000D01*
X91175000Y-127800000D02*
X91180000Y-127805000D01*
X91185000Y-127800000D02*
X91180000Y-127805000D01*
X93175000Y-127800000D02*
X91185000Y-127800000D01*
X104612200Y-127787400D02*
X94837600Y-127787400D01*
X94837600Y-127787400D02*
X94825000Y-127800000D01*
X87420000Y-132835000D02*
X89520000Y-132835000D01*
X89520000Y-132835000D02*
X89570000Y-132785000D01*
X91405000Y-132790000D02*
X89575000Y-132790000D01*
X89575000Y-132790000D02*
X89570000Y-132785000D01*
X103612200Y-140687400D02*
X94832400Y-140687400D01*
X94832400Y-140687400D02*
X94815000Y-140670000D01*
X89050000Y-140655000D02*
X89035000Y-140670000D01*
X93165000Y-140670000D02*
X91185000Y-140670000D01*
X91170000Y-140655000D02*
X89050000Y-140655000D01*
X91185000Y-140670000D02*
X91170000Y-140655000D01*
X87385000Y-140670000D02*
X87385000Y-142350000D01*
X87425000Y-144040000D02*
X87430000Y-144045000D01*
X87425000Y-142390000D02*
X87425000Y-144040000D01*
X87385000Y-142350000D02*
X87425000Y-142390000D01*
X94795000Y-132790000D02*
X94810000Y-132805000D01*
X94810000Y-132805000D02*
X94827600Y-132787400D01*
X93055000Y-132790000D02*
X94795000Y-132790000D01*
X94827600Y-132787400D02*
X103612200Y-132787400D01*
X94840000Y-145665000D02*
X94862400Y-145687400D01*
X93085000Y-145690000D02*
X94815000Y-145690000D01*
X94815000Y-145690000D02*
X94840000Y-145665000D01*
X94862400Y-145687400D02*
X103612200Y-145687400D01*
X87415000Y-131180000D02*
X87420000Y-131185000D01*
X87385000Y-129510000D02*
X87415000Y-129540000D01*
X87415000Y-129540000D02*
X87415000Y-131180000D01*
X87385000Y-127800000D02*
X87385000Y-129510000D01*
X87430000Y-145695000D02*
X89560000Y-145695000D01*
X89590000Y-145665000D02*
X91410000Y-145665000D01*
X89560000Y-145695000D02*
X89590000Y-145665000D01*
X91410000Y-145665000D02*
X91435000Y-145690000D01*
G04 #@! TA.AperFunction,Conductor*
G36*
X97299823Y-146088902D02*
G01*
X97346316Y-146142558D01*
X97357702Y-146194900D01*
X97357702Y-146462466D01*
X97372467Y-146536701D01*
X97428717Y-146620884D01*
X97512900Y-146677134D01*
X97587134Y-146691900D01*
X103611713Y-146691900D01*
X109637265Y-146691899D01*
X109670834Y-146685222D01*
X109699621Y-146679497D01*
X109770335Y-146685826D01*
X109826401Y-146729382D01*
X109850200Y-146803076D01*
X109850200Y-149043400D01*
X109830198Y-149111521D01*
X109776542Y-149158014D01*
X109724200Y-149169400D01*
X96602670Y-149169400D01*
X96563122Y-149169365D01*
X96563120Y-149169365D01*
X96548933Y-149169353D01*
X96536143Y-149175495D01*
X96532074Y-149176419D01*
X96521272Y-149180192D01*
X96517516Y-149181999D01*
X96503679Y-149185156D01*
X96492581Y-149194000D01*
X96488491Y-149195968D01*
X96479727Y-149201466D01*
X96476178Y-149204289D01*
X96463387Y-149210431D01*
X96454526Y-149221511D01*
X96451266Y-149224104D01*
X96443160Y-149232196D01*
X96440560Y-149235453D01*
X96429463Y-149244296D01*
X96423299Y-149257074D01*
X96420472Y-149260616D01*
X96414953Y-149269381D01*
X96412980Y-149273462D01*
X96404118Y-149284544D01*
X96400938Y-149298372D01*
X96397135Y-149306239D01*
X96349479Y-149358864D01*
X96283695Y-149377400D01*
X95580200Y-149377400D01*
X95580200Y-146068900D01*
X97231702Y-146068900D01*
X97299823Y-146088902D01*
G37*
G04 #@! TD.AperFunction*
G04 #@! TA.AperFunction,Conductor*
G36*
X97299823Y-141088902D02*
G01*
X97346316Y-141142558D01*
X97357702Y-141194900D01*
X97357702Y-141462466D01*
X97372467Y-141536701D01*
X97428717Y-141620884D01*
X97512900Y-141677134D01*
X97587134Y-141691900D01*
X103611713Y-141691900D01*
X109637265Y-141691899D01*
X109670834Y-141685222D01*
X109699621Y-141679497D01*
X109770335Y-141685826D01*
X109826401Y-141729382D01*
X109850200Y-141803076D01*
X109850200Y-144571724D01*
X109830198Y-144639845D01*
X109776542Y-144686338D01*
X109699619Y-144695303D01*
X109637266Y-144682900D01*
X103612688Y-144682900D01*
X97587135Y-144682901D01*
X97551383Y-144690012D01*
X97525075Y-144695244D01*
X97525073Y-144695245D01*
X97512900Y-144697666D01*
X97502580Y-144704561D01*
X97502579Y-144704562D01*
X97442186Y-144744916D01*
X97428717Y-144753916D01*
X97372467Y-144838099D01*
X97357701Y-144912333D01*
X97357701Y-145179900D01*
X97337699Y-145248021D01*
X97284043Y-145294514D01*
X97231701Y-145305900D01*
X95580200Y-145305900D01*
X95580200Y-141068900D01*
X97231702Y-141068900D01*
X97299823Y-141088902D01*
G37*
G04 #@! TD.AperFunction*
G04 #@! TA.AperFunction,Conductor*
G36*
X97299823Y-133188902D02*
G01*
X97346316Y-133242558D01*
X97357702Y-133294900D01*
X97357702Y-133562466D01*
X97372467Y-133636701D01*
X97428717Y-133720884D01*
X97512900Y-133777134D01*
X97587134Y-133791900D01*
X103611713Y-133791900D01*
X109637265Y-133791899D01*
X109670834Y-133785222D01*
X109699621Y-133779497D01*
X109770335Y-133785826D01*
X109826401Y-133829382D01*
X109850200Y-133903076D01*
X109850200Y-139571724D01*
X109830198Y-139639845D01*
X109776542Y-139686338D01*
X109699619Y-139695303D01*
X109637266Y-139682900D01*
X103612688Y-139682900D01*
X97587135Y-139682901D01*
X97551383Y-139690012D01*
X97525075Y-139695244D01*
X97525073Y-139695245D01*
X97512900Y-139697666D01*
X97502580Y-139704561D01*
X97502579Y-139704562D01*
X97442186Y-139744916D01*
X97428717Y-139753916D01*
X97372467Y-139838099D01*
X97357701Y-139912333D01*
X97357701Y-140179900D01*
X97337699Y-140248021D01*
X97284043Y-140294514D01*
X97231701Y-140305900D01*
X95580200Y-140305900D01*
X95580200Y-133168900D01*
X97231702Y-133168900D01*
X97299823Y-133188902D01*
G37*
G04 #@! TD.AperFunction*
G04 #@! TA.AperFunction,Conductor*
G36*
X99299822Y-128188902D02*
G01*
X99346315Y-128242558D01*
X99357701Y-128294900D01*
X99357701Y-128562466D01*
X99372466Y-128636701D01*
X99428716Y-128720884D01*
X99512899Y-128777134D01*
X99587133Y-128791900D01*
X104611794Y-128791900D01*
X109637266Y-128791899D01*
X109699329Y-128779555D01*
X109699621Y-128779497D01*
X109770335Y-128785826D01*
X109826401Y-128829381D01*
X109850200Y-128903076D01*
X109850200Y-131671724D01*
X109830198Y-131739845D01*
X109776542Y-131786338D01*
X109699619Y-131795303D01*
X109637266Y-131782900D01*
X103612687Y-131782900D01*
X97587135Y-131782901D01*
X97551383Y-131790012D01*
X97525075Y-131795244D01*
X97525073Y-131795245D01*
X97512900Y-131797666D01*
X97502580Y-131804561D01*
X97502579Y-131804562D01*
X97442186Y-131844916D01*
X97428717Y-131853916D01*
X97372467Y-131938099D01*
X97357701Y-132012333D01*
X97357701Y-132279900D01*
X97337699Y-132348021D01*
X97284043Y-132394514D01*
X97231701Y-132405900D01*
X95580200Y-132405900D01*
X95580200Y-128168900D01*
X99231701Y-128168900D01*
X99299822Y-128188902D01*
G37*
G04 #@! TD.AperFunction*
G04 #@! TA.AperFunction,Conductor*
G36*
X96351859Y-126537402D02*
G01*
X96397274Y-126588759D01*
X96400800Y-126596085D01*
X96403956Y-126609921D01*
X96412800Y-126621019D01*
X96414768Y-126625109D01*
X96420266Y-126633873D01*
X96423089Y-126637422D01*
X96429231Y-126650213D01*
X96440311Y-126659074D01*
X96442904Y-126662334D01*
X96450996Y-126670440D01*
X96454253Y-126673040D01*
X96463096Y-126684137D01*
X96475874Y-126690301D01*
X96479416Y-126693128D01*
X96488182Y-126698648D01*
X96492264Y-126700621D01*
X96503344Y-126709482D01*
X96517169Y-126712661D01*
X96520923Y-126714476D01*
X96531727Y-126718270D01*
X96535792Y-126719201D01*
X96548570Y-126725364D01*
X96572501Y-126725385D01*
X96572499Y-126727608D01*
X96572567Y-126727623D01*
X96572567Y-126725400D01*
X96589730Y-126725400D01*
X96643146Y-126725447D01*
X96643467Y-126725447D01*
X96643565Y-126725400D01*
X99278858Y-126725400D01*
X99346979Y-126745402D01*
X99393472Y-126799058D01*
X99403576Y-126869332D01*
X99383623Y-126921402D01*
X99372466Y-126938099D01*
X99357700Y-127012333D01*
X99357700Y-127279900D01*
X99337698Y-127348021D01*
X99284042Y-127394514D01*
X99231700Y-127405900D01*
X95580200Y-127405900D01*
X95580200Y-126517400D01*
X96283738Y-126517400D01*
X96351859Y-126537402D01*
G37*
G04 #@! TD.AperFunction*
G04 #@! TA.AperFunction,Conductor*
G36*
X96030321Y-123921202D02*
G01*
X96076814Y-123974858D01*
X96088200Y-124027200D01*
X96088200Y-127279900D01*
X96068198Y-127348021D01*
X96014542Y-127394514D01*
X95962200Y-127405900D01*
X95554209Y-127405900D01*
X95486088Y-127385898D01*
X95439595Y-127332242D01*
X95435328Y-127321653D01*
X95434330Y-127318811D01*
X95431209Y-127309924D01*
X95350010Y-127199990D01*
X95240076Y-127118791D01*
X95111127Y-127073507D01*
X95103485Y-127072785D01*
X95103482Y-127072784D01*
X95088579Y-127071376D01*
X95079315Y-127070500D01*
X94825172Y-127070500D01*
X94570686Y-127070501D01*
X94567738Y-127070780D01*
X94567729Y-127070780D01*
X94546522Y-127072784D01*
X94546520Y-127072784D01*
X94538873Y-127073507D01*
X94409924Y-127118791D01*
X94299990Y-127199990D01*
X94218791Y-127309924D01*
X94173507Y-127438873D01*
X94170500Y-127470685D01*
X94170501Y-128129314D01*
X94170780Y-128132262D01*
X94170780Y-128132271D01*
X94172784Y-128153478D01*
X94173507Y-128161127D01*
X94218791Y-128290076D01*
X94299990Y-128400010D01*
X94409924Y-128481209D01*
X94538873Y-128526493D01*
X94546515Y-128527215D01*
X94546518Y-128527216D01*
X94561421Y-128528624D01*
X94570685Y-128529500D01*
X94824828Y-128529500D01*
X95079314Y-128529499D01*
X95082262Y-128529220D01*
X95082271Y-128529220D01*
X95103478Y-128527216D01*
X95103480Y-128527216D01*
X95111127Y-128526493D01*
X95240076Y-128481209D01*
X95350010Y-128400010D01*
X95431209Y-128290076D01*
X95434329Y-128281192D01*
X95434331Y-128281188D01*
X95444176Y-128253152D01*
X95485619Y-128195506D01*
X95551649Y-128169418D01*
X95563059Y-128168900D01*
X95962200Y-128168900D01*
X96030321Y-128188902D01*
X96076814Y-128242558D01*
X96088200Y-128294900D01*
X96088200Y-132279900D01*
X96068198Y-132348021D01*
X96014542Y-132394514D01*
X95962200Y-132405900D01*
X95590178Y-132405900D01*
X95522057Y-132385898D01*
X95485639Y-132346824D01*
X95484917Y-132347365D01*
X95479884Y-132340650D01*
X95402544Y-132237456D01*
X95395367Y-132232077D01*
X95299817Y-132160465D01*
X95299814Y-132160463D01*
X95292635Y-132155083D01*
X95230879Y-132131932D01*
X95207468Y-132123156D01*
X95150703Y-132080515D01*
X95126003Y-132013954D01*
X95141210Y-131944605D01*
X95191496Y-131894486D01*
X95209947Y-131886292D01*
X95256014Y-131870114D01*
X95272479Y-131861397D01*
X95362065Y-131795228D01*
X95375228Y-131782065D01*
X95441397Y-131692479D01*
X95450115Y-131676012D01*
X95487590Y-131569300D01*
X95490858Y-131554408D01*
X95492721Y-131534693D01*
X95493000Y-131528779D01*
X95493000Y-131423115D01*
X95488525Y-131407876D01*
X95487135Y-131406671D01*
X95479452Y-131405000D01*
X94145116Y-131405000D01*
X94129877Y-131409475D01*
X94128672Y-131410865D01*
X94127001Y-131418548D01*
X94127001Y-131528775D01*
X94127280Y-131534699D01*
X94129142Y-131554404D01*
X94132411Y-131569303D01*
X94169885Y-131676012D01*
X94178603Y-131692479D01*
X94244772Y-131782065D01*
X94257935Y-131795228D01*
X94347521Y-131861397D01*
X94363986Y-131870114D01*
X94410053Y-131886292D01*
X94467698Y-131927735D01*
X94493785Y-131993765D01*
X94480034Y-132063417D01*
X94430808Y-132114578D01*
X94412532Y-132123156D01*
X94389122Y-132131932D01*
X94327365Y-132155083D01*
X94320186Y-132160463D01*
X94320183Y-132160465D01*
X94224633Y-132232077D01*
X94217456Y-132237456D01*
X94135083Y-132347365D01*
X94134779Y-132347137D01*
X94088666Y-132393152D01*
X94028399Y-132408500D01*
X93788634Y-132408500D01*
X93720513Y-132388498D01*
X93674020Y-132334842D01*
X93669751Y-132324249D01*
X93661209Y-132299924D01*
X93655617Y-132292354D01*
X93655616Y-132292351D01*
X93585602Y-132197561D01*
X93580010Y-132189990D01*
X93470076Y-132108791D01*
X93341127Y-132063507D01*
X93333485Y-132062785D01*
X93333482Y-132062784D01*
X93318579Y-132061376D01*
X93309315Y-132060500D01*
X93055172Y-132060500D01*
X92800686Y-132060501D01*
X92797738Y-132060780D01*
X92797729Y-132060780D01*
X92776522Y-132062784D01*
X92776520Y-132062784D01*
X92768873Y-132063507D01*
X92639924Y-132108791D01*
X92529990Y-132189990D01*
X92448791Y-132299924D01*
X92403507Y-132428873D01*
X92400500Y-132460685D01*
X92400501Y-133119314D01*
X92403507Y-133151127D01*
X92448791Y-133280076D01*
X92529990Y-133390010D01*
X92639924Y-133471209D01*
X92768873Y-133516493D01*
X92776515Y-133517215D01*
X92776518Y-133517216D01*
X92791421Y-133518624D01*
X92800685Y-133519500D01*
X93054828Y-133519500D01*
X93309314Y-133519499D01*
X93312262Y-133519220D01*
X93312271Y-133519220D01*
X93333478Y-133517216D01*
X93333480Y-133517216D01*
X93341127Y-133516493D01*
X93470076Y-133471209D01*
X93580010Y-133390010D01*
X93598212Y-133365367D01*
X93655616Y-133287649D01*
X93655617Y-133287646D01*
X93661209Y-133280076D01*
X93669752Y-133255750D01*
X93711195Y-133198106D01*
X93777224Y-133172018D01*
X93788634Y-133171500D01*
X94013591Y-133171500D01*
X94081712Y-133191502D01*
X94128205Y-133245158D01*
X94131570Y-133253263D01*
X94135083Y-133262635D01*
X94217456Y-133372544D01*
X94224633Y-133377923D01*
X94320183Y-133449535D01*
X94320186Y-133449537D01*
X94327365Y-133454917D01*
X94335769Y-133458067D01*
X94335770Y-133458068D01*
X94448581Y-133500358D01*
X94448582Y-133500358D01*
X94455976Y-133503130D01*
X94463826Y-133503983D01*
X94463827Y-133503983D01*
X94511205Y-133509130D01*
X94514611Y-133509500D01*
X94809956Y-133509500D01*
X95105388Y-133509499D01*
X95108782Y-133509130D01*
X95108788Y-133509130D01*
X95156166Y-133503984D01*
X95156170Y-133503983D01*
X95164024Y-133503130D01*
X95292635Y-133454917D01*
X95299814Y-133449537D01*
X95299817Y-133449535D01*
X95395367Y-133377923D01*
X95402544Y-133372544D01*
X95422912Y-133345367D01*
X95479535Y-133269817D01*
X95479537Y-133269814D01*
X95484917Y-133262635D01*
X95489402Y-133250671D01*
X95491667Y-133247656D01*
X95492378Y-133246357D01*
X95492566Y-133246460D01*
X95532043Y-133193906D01*
X95598604Y-133169206D01*
X95607384Y-133168900D01*
X95962200Y-133168900D01*
X96030321Y-133188902D01*
X96076814Y-133242558D01*
X96088200Y-133294900D01*
X96088200Y-140179900D01*
X96068198Y-140248021D01*
X96014542Y-140294514D01*
X95962200Y-140305900D01*
X95554744Y-140305900D01*
X95486623Y-140285898D01*
X95440130Y-140232242D01*
X95435862Y-140221649D01*
X95430622Y-140206729D01*
X95421209Y-140179924D01*
X95340010Y-140069990D01*
X95230076Y-139988791D01*
X95101127Y-139943507D01*
X95093485Y-139942785D01*
X95093482Y-139942784D01*
X95078579Y-139941376D01*
X95069315Y-139940500D01*
X94815172Y-139940500D01*
X94560686Y-139940501D01*
X94557738Y-139940780D01*
X94557729Y-139940780D01*
X94536522Y-139942784D01*
X94536520Y-139942784D01*
X94528873Y-139943507D01*
X94399924Y-139988791D01*
X94289990Y-140069990D01*
X94208791Y-140179924D01*
X94163507Y-140308873D01*
X94160500Y-140340685D01*
X94160501Y-140999314D01*
X94163507Y-141031127D01*
X94208791Y-141160076D01*
X94289990Y-141270010D01*
X94399924Y-141351209D01*
X94528873Y-141396493D01*
X94536515Y-141397215D01*
X94536518Y-141397216D01*
X94551421Y-141398624D01*
X94560685Y-141399500D01*
X94814828Y-141399500D01*
X95069314Y-141399499D01*
X95072262Y-141399220D01*
X95072271Y-141399220D01*
X95093478Y-141397216D01*
X95093480Y-141397216D01*
X95101127Y-141396493D01*
X95230076Y-141351209D01*
X95340010Y-141270010D01*
X95421209Y-141160076D01*
X95424330Y-141151188D01*
X95428736Y-141142867D01*
X95430400Y-141143748D01*
X95465085Y-141095505D01*
X95531115Y-141069417D01*
X95542523Y-141068900D01*
X95962200Y-141068900D01*
X96030321Y-141088902D01*
X96076814Y-141142558D01*
X96088200Y-141194900D01*
X96088200Y-145179900D01*
X96068198Y-145248021D01*
X96014542Y-145294514D01*
X95962200Y-145305900D01*
X95639183Y-145305900D01*
X95571062Y-145285898D01*
X95524569Y-145232242D01*
X95521201Y-145224128D01*
X95518069Y-145215772D01*
X95518068Y-145215769D01*
X95514917Y-145207365D01*
X95432544Y-145097456D01*
X95422582Y-145089990D01*
X95329817Y-145020465D01*
X95329814Y-145020463D01*
X95322635Y-145015083D01*
X95297526Y-145005670D01*
X95237468Y-144983156D01*
X95180703Y-144940515D01*
X95156003Y-144873954D01*
X95171210Y-144804605D01*
X95221496Y-144754486D01*
X95239947Y-144746292D01*
X95286014Y-144730114D01*
X95302479Y-144721397D01*
X95392065Y-144655228D01*
X95405228Y-144642065D01*
X95471397Y-144552479D01*
X95480115Y-144536012D01*
X95517590Y-144429300D01*
X95520858Y-144414408D01*
X95522721Y-144394693D01*
X95523000Y-144388779D01*
X95523000Y-144283115D01*
X95518525Y-144267876D01*
X95517135Y-144266671D01*
X95509452Y-144265000D01*
X94175116Y-144265000D01*
X94159877Y-144269475D01*
X94158672Y-144270865D01*
X94157001Y-144278548D01*
X94157001Y-144388775D01*
X94157280Y-144394699D01*
X94159142Y-144414404D01*
X94162411Y-144429303D01*
X94199885Y-144536012D01*
X94208603Y-144552479D01*
X94274772Y-144642065D01*
X94287935Y-144655228D01*
X94377521Y-144721397D01*
X94393986Y-144730114D01*
X94440053Y-144746292D01*
X94497698Y-144787735D01*
X94523785Y-144853765D01*
X94510034Y-144923417D01*
X94460808Y-144974578D01*
X94442532Y-144983156D01*
X94382475Y-145005670D01*
X94357365Y-145015083D01*
X94350186Y-145020463D01*
X94350183Y-145020465D01*
X94257418Y-145089990D01*
X94247456Y-145097456D01*
X94242077Y-145104633D01*
X94170465Y-145200183D01*
X94170463Y-145200186D01*
X94165083Y-145207365D01*
X94161932Y-145215770D01*
X94161931Y-145215772D01*
X94157824Y-145226728D01*
X94115184Y-145283493D01*
X94048622Y-145308194D01*
X94039842Y-145308500D01*
X93818634Y-145308500D01*
X93750513Y-145288498D01*
X93704020Y-145234842D01*
X93699751Y-145224249D01*
X93699709Y-145224128D01*
X93691209Y-145199924D01*
X93685617Y-145192354D01*
X93685616Y-145192351D01*
X93615602Y-145097561D01*
X93610010Y-145089990D01*
X93500076Y-145008791D01*
X93371127Y-144963507D01*
X93363485Y-144962785D01*
X93363482Y-144962784D01*
X93348579Y-144961376D01*
X93339315Y-144960500D01*
X93085172Y-144960500D01*
X92830686Y-144960501D01*
X92827738Y-144960780D01*
X92827729Y-144960780D01*
X92806522Y-144962784D01*
X92806520Y-144962784D01*
X92798873Y-144963507D01*
X92669924Y-145008791D01*
X92559990Y-145089990D01*
X92478791Y-145199924D01*
X92433507Y-145328873D01*
X92430500Y-145360685D01*
X92430501Y-146019314D01*
X92433507Y-146051127D01*
X92478791Y-146180076D01*
X92559990Y-146290010D01*
X92669924Y-146371209D01*
X92798873Y-146416493D01*
X92806515Y-146417215D01*
X92806518Y-146417216D01*
X92821421Y-146418624D01*
X92830685Y-146419500D01*
X93084828Y-146419500D01*
X93339314Y-146419499D01*
X93342262Y-146419220D01*
X93342271Y-146419220D01*
X93363478Y-146417216D01*
X93363480Y-146417216D01*
X93371127Y-146416493D01*
X93500076Y-146371209D01*
X93610010Y-146290010D01*
X93622725Y-146272795D01*
X93685616Y-146187649D01*
X93685617Y-146187646D01*
X93691209Y-146180076D01*
X93699752Y-146155750D01*
X93741195Y-146098106D01*
X93807224Y-146072018D01*
X93818634Y-146071500D01*
X94063873Y-146071500D01*
X94131994Y-146091502D01*
X94162690Y-146124428D01*
X94165083Y-146122635D01*
X94247456Y-146232544D01*
X94254633Y-146237923D01*
X94350183Y-146309535D01*
X94350186Y-146309537D01*
X94357365Y-146314917D01*
X94365769Y-146318067D01*
X94365770Y-146318068D01*
X94478581Y-146360358D01*
X94478582Y-146360358D01*
X94485976Y-146363130D01*
X94493826Y-146363983D01*
X94493827Y-146363983D01*
X94541205Y-146369130D01*
X94544611Y-146369500D01*
X94839956Y-146369500D01*
X95135388Y-146369499D01*
X95138782Y-146369130D01*
X95138788Y-146369130D01*
X95186166Y-146363984D01*
X95186170Y-146363983D01*
X95194024Y-146363130D01*
X95322635Y-146314917D01*
X95329814Y-146309537D01*
X95329817Y-146309535D01*
X95425367Y-146237923D01*
X95432544Y-146232544D01*
X95514917Y-146122635D01*
X95517142Y-146124303D01*
X95557281Y-146084249D01*
X95617550Y-146068900D01*
X95962200Y-146068900D01*
X96030321Y-146088902D01*
X96076814Y-146142558D01*
X96088200Y-146194900D01*
X96088200Y-150902400D01*
X96068198Y-150970521D01*
X96014542Y-151017014D01*
X95962200Y-151028400D01*
X84022200Y-151028400D01*
X83954079Y-151008398D01*
X83907586Y-150954742D01*
X83896200Y-150902400D01*
X83896200Y-145440685D01*
X86700500Y-145440685D01*
X86700501Y-145949314D01*
X86703507Y-145981127D01*
X86748791Y-146110076D01*
X86829990Y-146220010D01*
X86939924Y-146301209D01*
X87068873Y-146346493D01*
X87076515Y-146347215D01*
X87076518Y-146347216D01*
X87091421Y-146348624D01*
X87100685Y-146349500D01*
X87429777Y-146349500D01*
X87759314Y-146349499D01*
X87762262Y-146349220D01*
X87762271Y-146349220D01*
X87783478Y-146347216D01*
X87783480Y-146347216D01*
X87791127Y-146346493D01*
X87920076Y-146301209D01*
X88030010Y-146220010D01*
X88098236Y-146127640D01*
X88154797Y-146084730D01*
X88199587Y-146076500D01*
X88817479Y-146076500D01*
X88885600Y-146096502D01*
X88918305Y-146126935D01*
X88992074Y-146225364D01*
X88992077Y-146225367D01*
X88997456Y-146232544D01*
X89004633Y-146237923D01*
X89100183Y-146309535D01*
X89100186Y-146309537D01*
X89107365Y-146314917D01*
X89115769Y-146318067D01*
X89115770Y-146318068D01*
X89228581Y-146360358D01*
X89228582Y-146360358D01*
X89235976Y-146363130D01*
X89243826Y-146363983D01*
X89243827Y-146363983D01*
X89291205Y-146369130D01*
X89294611Y-146369500D01*
X89589956Y-146369500D01*
X89885388Y-146369499D01*
X89888782Y-146369130D01*
X89888788Y-146369130D01*
X89936166Y-146363984D01*
X89936170Y-146363983D01*
X89944024Y-146363130D01*
X90072635Y-146314917D01*
X90079814Y-146309537D01*
X90079817Y-146309535D01*
X90175367Y-146237923D01*
X90182544Y-146232544D01*
X90264917Y-146122635D01*
X90268069Y-146114228D01*
X90269291Y-146111995D01*
X90319548Y-146061847D01*
X90379813Y-146046500D01*
X90692587Y-146046500D01*
X90760708Y-146066502D01*
X90807201Y-146120158D01*
X90811469Y-146130751D01*
X90816900Y-146146215D01*
X90828791Y-146180076D01*
X90909990Y-146290010D01*
X91019924Y-146371209D01*
X91148873Y-146416493D01*
X91156515Y-146417215D01*
X91156518Y-146417216D01*
X91171421Y-146418624D01*
X91180685Y-146419500D01*
X91434828Y-146419500D01*
X91689314Y-146419499D01*
X91692262Y-146419220D01*
X91692271Y-146419220D01*
X91713478Y-146417216D01*
X91713480Y-146417216D01*
X91721127Y-146416493D01*
X91850076Y-146371209D01*
X91960010Y-146290010D01*
X92041209Y-146180076D01*
X92086493Y-146051127D01*
X92089500Y-146019315D01*
X92089499Y-145360686D01*
X92088345Y-145348466D01*
X92087216Y-145336522D01*
X92087215Y-145336518D01*
X92086493Y-145328873D01*
X92041209Y-145199924D01*
X91960010Y-145089990D01*
X91850076Y-145008791D01*
X91721127Y-144963507D01*
X91713485Y-144962785D01*
X91713482Y-144962784D01*
X91698579Y-144961376D01*
X91689315Y-144960500D01*
X91435172Y-144960500D01*
X91180686Y-144960501D01*
X91177738Y-144960780D01*
X91177729Y-144960780D01*
X91156522Y-144962784D01*
X91156520Y-144962784D01*
X91148873Y-144963507D01*
X91019924Y-145008791D01*
X90909990Y-145089990D01*
X90828791Y-145199924D01*
X90825671Y-145208808D01*
X90821620Y-145216459D01*
X90772068Y-145267302D01*
X90710266Y-145283500D01*
X90379813Y-145283500D01*
X90311692Y-145263498D01*
X90269291Y-145218005D01*
X90268069Y-145215772D01*
X90264917Y-145207365D01*
X90182544Y-145097456D01*
X90172582Y-145089990D01*
X90079817Y-145020465D01*
X90079814Y-145020463D01*
X90072635Y-145015083D01*
X90047526Y-145005670D01*
X89987468Y-144983156D01*
X89930703Y-144940515D01*
X89906003Y-144873954D01*
X89921210Y-144804605D01*
X89971496Y-144754486D01*
X89989947Y-144746292D01*
X90036014Y-144730114D01*
X90052479Y-144721397D01*
X90142065Y-144655228D01*
X90155228Y-144642065D01*
X90221397Y-144552479D01*
X90230115Y-144536012D01*
X90267590Y-144429300D01*
X90270858Y-144414408D01*
X90272721Y-144394693D01*
X90273000Y-144388779D01*
X90273000Y-144283115D01*
X90268525Y-144267876D01*
X90267135Y-144266671D01*
X90259452Y-144265000D01*
X88925116Y-144265000D01*
X88909877Y-144269475D01*
X88908672Y-144270865D01*
X88907001Y-144278548D01*
X88907001Y-144388775D01*
X88907280Y-144394699D01*
X88909142Y-144414404D01*
X88912411Y-144429303D01*
X88949885Y-144536012D01*
X88958603Y-144552479D01*
X89024772Y-144642065D01*
X89037935Y-144655228D01*
X89127521Y-144721397D01*
X89143986Y-144730114D01*
X89190053Y-144746292D01*
X89247698Y-144787735D01*
X89273785Y-144853765D01*
X89260034Y-144923417D01*
X89210808Y-144974578D01*
X89192532Y-144983156D01*
X89132475Y-145005670D01*
X89107365Y-145015083D01*
X89100186Y-145020463D01*
X89100183Y-145020465D01*
X89007418Y-145089990D01*
X88997456Y-145097456D01*
X88915083Y-145207365D01*
X88911932Y-145215769D01*
X88911931Y-145215772D01*
X88905950Y-145231728D01*
X88863310Y-145288493D01*
X88796748Y-145313194D01*
X88787968Y-145313500D01*
X88199587Y-145313500D01*
X88131466Y-145293498D01*
X88098236Y-145262360D01*
X88035602Y-145177561D01*
X88030010Y-145169990D01*
X87920076Y-145088791D01*
X87791127Y-145043507D01*
X87783485Y-145042785D01*
X87783482Y-145042784D01*
X87768579Y-145041376D01*
X87759315Y-145040500D01*
X87430223Y-145040500D01*
X87100686Y-145040501D01*
X87097738Y-145040780D01*
X87097729Y-145040780D01*
X87076522Y-145042784D01*
X87076520Y-145042784D01*
X87068873Y-145043507D01*
X86939924Y-145088791D01*
X86829990Y-145169990D01*
X86748791Y-145279924D01*
X86703507Y-145408873D01*
X86700500Y-145440685D01*
X83896200Y-145440685D01*
X83896200Y-143790685D01*
X86700500Y-143790685D01*
X86700501Y-144299314D01*
X86703507Y-144331127D01*
X86748791Y-144460076D01*
X86829990Y-144570010D01*
X86939924Y-144651209D01*
X87068873Y-144696493D01*
X87076515Y-144697215D01*
X87076518Y-144697216D01*
X87091421Y-144698624D01*
X87100685Y-144699500D01*
X87429777Y-144699500D01*
X87759314Y-144699499D01*
X87762262Y-144699220D01*
X87762271Y-144699220D01*
X87783478Y-144697216D01*
X87783480Y-144697216D01*
X87791127Y-144696493D01*
X87920076Y-144651209D01*
X88030010Y-144570010D01*
X88111209Y-144460076D01*
X88156493Y-144331127D01*
X88159500Y-144299315D01*
X88159499Y-143946885D01*
X88907000Y-143946885D01*
X88911475Y-143962124D01*
X88912865Y-143963329D01*
X88920548Y-143965000D01*
X89421885Y-143965000D01*
X89437124Y-143960525D01*
X89438329Y-143959135D01*
X89440000Y-143951452D01*
X89440000Y-143946885D01*
X89740000Y-143946885D01*
X89744475Y-143962124D01*
X89745865Y-143963329D01*
X89753548Y-143965000D01*
X90254884Y-143965000D01*
X90270123Y-143960525D01*
X90271328Y-143959135D01*
X90272999Y-143951452D01*
X90272999Y-143946885D01*
X94157000Y-143946885D01*
X94161475Y-143962124D01*
X94162865Y-143963329D01*
X94170548Y-143965000D01*
X94671885Y-143965000D01*
X94687124Y-143960525D01*
X94688329Y-143959135D01*
X94690000Y-143951452D01*
X94690000Y-143946885D01*
X94990000Y-143946885D01*
X94994475Y-143962124D01*
X94995865Y-143963329D01*
X95003548Y-143965000D01*
X95504884Y-143965000D01*
X95520123Y-143960525D01*
X95521328Y-143959135D01*
X95522999Y-143951452D01*
X95522999Y-143841225D01*
X95522720Y-143835301D01*
X95520858Y-143815596D01*
X95517589Y-143800697D01*
X95480115Y-143693988D01*
X95471397Y-143677521D01*
X95405228Y-143587935D01*
X95392065Y-143574772D01*
X95302479Y-143508603D01*
X95286012Y-143499885D01*
X95179300Y-143462410D01*
X95164408Y-143459142D01*
X95144693Y-143457279D01*
X95138779Y-143457000D01*
X95008115Y-143457000D01*
X94992876Y-143461475D01*
X94991671Y-143462865D01*
X94990000Y-143470548D01*
X94990000Y-143946885D01*
X94690000Y-143946885D01*
X94690000Y-143475116D01*
X94685525Y-143459877D01*
X94684135Y-143458672D01*
X94676452Y-143457001D01*
X94541225Y-143457001D01*
X94535301Y-143457280D01*
X94515596Y-143459142D01*
X94500697Y-143462411D01*
X94393988Y-143499885D01*
X94377521Y-143508603D01*
X94287935Y-143574772D01*
X94274772Y-143587935D01*
X94208603Y-143677521D01*
X94199885Y-143693988D01*
X94162410Y-143800700D01*
X94159142Y-143815592D01*
X94157279Y-143835307D01*
X94157000Y-143841221D01*
X94157000Y-143946885D01*
X90272999Y-143946885D01*
X90272999Y-143841225D01*
X90272720Y-143835301D01*
X90270858Y-143815596D01*
X90267589Y-143800697D01*
X90230115Y-143693988D01*
X90221397Y-143677521D01*
X90155228Y-143587935D01*
X90142065Y-143574772D01*
X90052479Y-143508603D01*
X90036012Y-143499885D01*
X89929300Y-143462410D01*
X89914408Y-143459142D01*
X89894693Y-143457279D01*
X89888779Y-143457000D01*
X89758115Y-143457000D01*
X89742876Y-143461475D01*
X89741671Y-143462865D01*
X89740000Y-143470548D01*
X89740000Y-143946885D01*
X89440000Y-143946885D01*
X89440000Y-143475116D01*
X89435525Y-143459877D01*
X89434135Y-143458672D01*
X89426452Y-143457001D01*
X89291225Y-143457001D01*
X89285301Y-143457280D01*
X89265596Y-143459142D01*
X89250697Y-143462411D01*
X89143988Y-143499885D01*
X89127521Y-143508603D01*
X89037935Y-143574772D01*
X89024772Y-143587935D01*
X88958603Y-143677521D01*
X88949885Y-143693988D01*
X88912410Y-143800700D01*
X88909142Y-143815592D01*
X88907279Y-143835307D01*
X88907000Y-143841221D01*
X88907000Y-143946885D01*
X88159499Y-143946885D01*
X88159499Y-143790686D01*
X88156493Y-143758873D01*
X88111209Y-143629924D01*
X88030010Y-143519990D01*
X87920076Y-143438791D01*
X87911192Y-143435671D01*
X87911188Y-143435669D01*
X87890752Y-143428493D01*
X87833107Y-143387050D01*
X87807018Y-143321021D01*
X87806500Y-143309610D01*
X87806500Y-143179813D01*
X87826502Y-143111692D01*
X87871995Y-143069291D01*
X87874228Y-143068069D01*
X87882635Y-143064917D01*
X87992544Y-142982544D01*
X87997923Y-142975367D01*
X88069535Y-142879817D01*
X88069537Y-142879814D01*
X88074917Y-142872635D01*
X88079608Y-142860123D01*
X88106844Y-142787468D01*
X88149485Y-142730703D01*
X88216046Y-142706003D01*
X88285395Y-142721210D01*
X88335514Y-142771496D01*
X88343708Y-142789947D01*
X88359886Y-142836014D01*
X88368603Y-142852479D01*
X88434772Y-142942065D01*
X88447935Y-142955228D01*
X88537521Y-143021397D01*
X88553988Y-143030115D01*
X88660700Y-143067590D01*
X88675592Y-143070858D01*
X88695307Y-143072721D01*
X88701221Y-143073000D01*
X88806885Y-143073000D01*
X88822124Y-143068525D01*
X88823329Y-143067135D01*
X88825000Y-143059452D01*
X88825000Y-143054884D01*
X89125000Y-143054884D01*
X89129475Y-143070123D01*
X89130865Y-143071328D01*
X89138548Y-143072999D01*
X89248775Y-143072999D01*
X89254699Y-143072720D01*
X89274404Y-143070858D01*
X89289303Y-143067589D01*
X89396012Y-143030115D01*
X89412479Y-143021397D01*
X89502065Y-142955228D01*
X89515228Y-142942065D01*
X89581397Y-142852479D01*
X89590115Y-142836012D01*
X89627590Y-142729300D01*
X89630858Y-142714408D01*
X89632721Y-142694693D01*
X89633000Y-142688779D01*
X89633000Y-142558115D01*
X89628525Y-142542876D01*
X89627135Y-142541671D01*
X89619452Y-142540000D01*
X89143115Y-142540000D01*
X89127876Y-142544475D01*
X89126671Y-142545865D01*
X89125000Y-142553548D01*
X89125000Y-143054884D01*
X88825000Y-143054884D01*
X88825000Y-142478775D01*
X90487001Y-142478775D01*
X90487280Y-142484699D01*
X90489142Y-142504404D01*
X90492411Y-142519303D01*
X90529885Y-142626012D01*
X90538603Y-142642479D01*
X90604772Y-142732065D01*
X90617935Y-142745228D01*
X90707521Y-142811397D01*
X90723988Y-142820115D01*
X90830700Y-142857590D01*
X90845592Y-142860858D01*
X90865307Y-142862721D01*
X90871221Y-142863000D01*
X91001885Y-142863000D01*
X91017124Y-142858525D01*
X91018329Y-142857135D01*
X91020000Y-142849452D01*
X91020000Y-142844884D01*
X91320000Y-142844884D01*
X91324475Y-142860123D01*
X91325865Y-142861328D01*
X91333548Y-142862999D01*
X91468775Y-142862999D01*
X91474699Y-142862720D01*
X91494404Y-142860858D01*
X91509303Y-142857589D01*
X91616012Y-142820115D01*
X91632479Y-142811397D01*
X91722065Y-142745228D01*
X91735228Y-142732065D01*
X91801397Y-142642479D01*
X91810115Y-142626012D01*
X91847590Y-142519300D01*
X91850858Y-142504408D01*
X91852721Y-142484693D01*
X91853000Y-142478779D01*
X91853000Y-142373115D01*
X91848525Y-142357876D01*
X91847135Y-142356671D01*
X91839452Y-142355000D01*
X91338115Y-142355000D01*
X91322876Y-142359475D01*
X91321671Y-142360865D01*
X91320000Y-142368548D01*
X91320000Y-142844884D01*
X91020000Y-142844884D01*
X91020000Y-142373115D01*
X91015525Y-142357876D01*
X91014135Y-142356671D01*
X91006452Y-142355000D01*
X90505116Y-142355000D01*
X90489877Y-142359475D01*
X90488672Y-142360865D01*
X90487001Y-142368548D01*
X90487001Y-142478775D01*
X88825000Y-142478775D01*
X88825000Y-142221885D01*
X89125000Y-142221885D01*
X89129475Y-142237124D01*
X89130865Y-142238329D01*
X89138548Y-142240000D01*
X89614884Y-142240000D01*
X89630123Y-142235525D01*
X89631328Y-142234135D01*
X89632999Y-142226452D01*
X89632999Y-142091225D01*
X89632720Y-142085301D01*
X89630858Y-142065596D01*
X89627589Y-142050697D01*
X89590115Y-141943988D01*
X89581397Y-141927521D01*
X89515228Y-141837935D01*
X89502065Y-141824772D01*
X89412479Y-141758603D01*
X89396012Y-141749885D01*
X89289300Y-141712410D01*
X89274408Y-141709142D01*
X89254693Y-141707279D01*
X89248779Y-141707000D01*
X89143115Y-141707000D01*
X89127876Y-141711475D01*
X89126671Y-141712865D01*
X89125000Y-141720548D01*
X89125000Y-142221885D01*
X88825000Y-142221885D01*
X88825000Y-141725116D01*
X88820525Y-141709877D01*
X88819135Y-141708672D01*
X88811452Y-141707001D01*
X88701225Y-141707001D01*
X88695301Y-141707280D01*
X88675596Y-141709142D01*
X88660697Y-141712411D01*
X88553988Y-141749885D01*
X88537521Y-141758603D01*
X88447935Y-141824772D01*
X88434772Y-141837935D01*
X88368603Y-141927521D01*
X88359886Y-141943986D01*
X88343708Y-141990053D01*
X88302265Y-142047698D01*
X88236235Y-142073785D01*
X88166583Y-142060034D01*
X88115422Y-142010808D01*
X88106844Y-141992532D01*
X88078068Y-141915770D01*
X88078067Y-141915769D01*
X88074917Y-141907365D01*
X88069537Y-141900186D01*
X88069535Y-141900183D01*
X87997923Y-141804633D01*
X87992544Y-141797456D01*
X87974574Y-141783988D01*
X87889817Y-141720465D01*
X87889814Y-141720463D01*
X87882635Y-141715083D01*
X87848270Y-141702200D01*
X87791507Y-141659561D01*
X87766806Y-141593000D01*
X87766500Y-141584219D01*
X87766500Y-141439587D01*
X87786502Y-141371466D01*
X87817640Y-141338236D01*
X87902439Y-141275602D01*
X87910010Y-141270010D01*
X87991209Y-141160076D01*
X88036493Y-141031127D01*
X88039500Y-140999315D01*
X88039499Y-140340686D01*
X88039499Y-140340685D01*
X88380500Y-140340685D01*
X88380501Y-140999314D01*
X88383507Y-141031127D01*
X88428791Y-141160076D01*
X88509990Y-141270010D01*
X88619924Y-141351209D01*
X88748873Y-141396493D01*
X88756515Y-141397215D01*
X88756518Y-141397216D01*
X88771421Y-141398624D01*
X88780685Y-141399500D01*
X89034828Y-141399500D01*
X89289314Y-141399499D01*
X89292262Y-141399220D01*
X89292271Y-141399220D01*
X89313478Y-141397216D01*
X89313480Y-141397216D01*
X89321127Y-141396493D01*
X89450076Y-141351209D01*
X89560010Y-141270010D01*
X89641209Y-141160076D01*
X89655019Y-141120751D01*
X89696462Y-141063106D01*
X89762491Y-141037018D01*
X89773901Y-141036500D01*
X90380187Y-141036500D01*
X90448308Y-141056502D01*
X90490709Y-141101995D01*
X90491931Y-141104228D01*
X90495083Y-141112635D01*
X90577456Y-141222544D01*
X90584633Y-141227923D01*
X90680183Y-141299535D01*
X90680186Y-141299537D01*
X90687365Y-141304917D01*
X90695769Y-141308067D01*
X90695770Y-141308068D01*
X90772532Y-141336844D01*
X90829297Y-141379485D01*
X90853997Y-141446046D01*
X90838790Y-141515395D01*
X90788504Y-141565514D01*
X90770053Y-141573708D01*
X90723986Y-141589886D01*
X90707521Y-141598603D01*
X90617935Y-141664772D01*
X90604772Y-141677935D01*
X90538603Y-141767521D01*
X90529885Y-141783988D01*
X90492410Y-141890700D01*
X90489142Y-141905592D01*
X90487279Y-141925307D01*
X90487000Y-141931221D01*
X90487000Y-142036885D01*
X90491475Y-142052124D01*
X90492865Y-142053329D01*
X90500548Y-142055000D01*
X91834884Y-142055000D01*
X91850123Y-142050525D01*
X91851328Y-142049135D01*
X91852999Y-142041452D01*
X91852999Y-141931225D01*
X91852720Y-141925301D01*
X91850858Y-141905596D01*
X91847589Y-141890697D01*
X91810115Y-141783988D01*
X91801397Y-141767521D01*
X91735228Y-141677935D01*
X91722065Y-141664772D01*
X91632479Y-141598603D01*
X91616014Y-141589886D01*
X91569947Y-141573708D01*
X91512302Y-141532265D01*
X91486215Y-141466235D01*
X91499966Y-141396583D01*
X91549192Y-141345422D01*
X91567468Y-141336844D01*
X91644230Y-141308068D01*
X91644231Y-141308067D01*
X91652635Y-141304917D01*
X91659814Y-141299537D01*
X91659817Y-141299535D01*
X91755367Y-141227923D01*
X91762544Y-141222544D01*
X91844917Y-141112635D01*
X91845221Y-141112863D01*
X91891334Y-141066848D01*
X91951601Y-141051500D01*
X92431366Y-141051500D01*
X92499487Y-141071502D01*
X92545980Y-141125158D01*
X92550247Y-141135745D01*
X92558791Y-141160076D01*
X92564383Y-141167646D01*
X92564384Y-141167649D01*
X92599630Y-141215367D01*
X92639990Y-141270010D01*
X92749924Y-141351209D01*
X92878873Y-141396493D01*
X92886515Y-141397215D01*
X92886518Y-141397216D01*
X92901421Y-141398624D01*
X92910685Y-141399500D01*
X93164828Y-141399500D01*
X93419314Y-141399499D01*
X93422262Y-141399220D01*
X93422271Y-141399220D01*
X93443478Y-141397216D01*
X93443480Y-141397216D01*
X93451127Y-141396493D01*
X93580076Y-141351209D01*
X93690010Y-141270010D01*
X93771209Y-141160076D01*
X93816493Y-141031127D01*
X93819500Y-140999315D01*
X93819499Y-140340686D01*
X93816493Y-140308873D01*
X93771209Y-140179924D01*
X93690010Y-140069990D01*
X93580076Y-139988791D01*
X93451127Y-139943507D01*
X93443485Y-139942785D01*
X93443482Y-139942784D01*
X93428579Y-139941376D01*
X93419315Y-139940500D01*
X93165172Y-139940500D01*
X92910686Y-139940501D01*
X92907738Y-139940780D01*
X92907729Y-139940780D01*
X92886522Y-139942784D01*
X92886520Y-139942784D01*
X92878873Y-139943507D01*
X92749924Y-139988791D01*
X92639990Y-140069990D01*
X92634398Y-140077561D01*
X92564384Y-140172351D01*
X92564383Y-140172354D01*
X92558791Y-140179924D01*
X92550249Y-140204249D01*
X92508805Y-140261894D01*
X92442776Y-140287982D01*
X92431366Y-140288500D01*
X91966409Y-140288500D01*
X91898288Y-140268498D01*
X91851795Y-140214842D01*
X91848427Y-140206729D01*
X91848068Y-140205770D01*
X91848067Y-140205769D01*
X91844917Y-140197365D01*
X91762544Y-140087456D01*
X91749341Y-140077561D01*
X91659817Y-140010465D01*
X91659814Y-140010463D01*
X91652635Y-140005083D01*
X91624103Y-139994387D01*
X91531419Y-139959642D01*
X91531418Y-139959642D01*
X91524024Y-139956870D01*
X91516174Y-139956017D01*
X91516173Y-139956017D01*
X91468786Y-139950869D01*
X91468785Y-139950869D01*
X91465389Y-139950500D01*
X91170044Y-139950500D01*
X90874612Y-139950501D01*
X90871218Y-139950870D01*
X90871212Y-139950870D01*
X90823834Y-139956016D01*
X90823830Y-139956017D01*
X90815976Y-139956870D01*
X90687365Y-140005083D01*
X90680186Y-140010463D01*
X90680183Y-140010465D01*
X90590659Y-140077561D01*
X90577456Y-140087456D01*
X90495083Y-140197365D01*
X90491931Y-140205772D01*
X90490709Y-140208005D01*
X90440452Y-140258153D01*
X90380187Y-140273500D01*
X89763366Y-140273500D01*
X89695245Y-140253498D01*
X89648752Y-140199842D01*
X89644485Y-140189252D01*
X89644331Y-140188813D01*
X89644330Y-140188811D01*
X89641209Y-140179924D01*
X89560010Y-140069990D01*
X89450076Y-139988791D01*
X89321127Y-139943507D01*
X89313485Y-139942785D01*
X89313482Y-139942784D01*
X89298579Y-139941376D01*
X89289315Y-139940500D01*
X89035172Y-139940500D01*
X88780686Y-139940501D01*
X88777738Y-139940780D01*
X88777729Y-139940780D01*
X88756522Y-139942784D01*
X88756520Y-139942784D01*
X88748873Y-139943507D01*
X88619924Y-139988791D01*
X88509990Y-140069990D01*
X88428791Y-140179924D01*
X88383507Y-140308873D01*
X88380500Y-140340685D01*
X88039499Y-140340685D01*
X88036493Y-140308873D01*
X87991209Y-140179924D01*
X87910010Y-140069990D01*
X87800076Y-139988791D01*
X87671127Y-139943507D01*
X87663485Y-139942785D01*
X87663482Y-139942784D01*
X87648579Y-139941376D01*
X87639315Y-139940500D01*
X87385172Y-139940500D01*
X87130686Y-139940501D01*
X87127738Y-139940780D01*
X87127729Y-139940780D01*
X87106522Y-139942784D01*
X87106520Y-139942784D01*
X87098873Y-139943507D01*
X86969924Y-139988791D01*
X86859990Y-140069990D01*
X86778791Y-140179924D01*
X86733507Y-140308873D01*
X86730500Y-140340685D01*
X86730501Y-140999314D01*
X86733507Y-141031127D01*
X86778791Y-141160076D01*
X86859990Y-141270010D01*
X86867561Y-141275602D01*
X86952360Y-141338236D01*
X86995270Y-141394797D01*
X87003500Y-141439587D01*
X87003500Y-141624974D01*
X86983498Y-141693095D01*
X86953065Y-141725800D01*
X86864636Y-141792074D01*
X86864633Y-141792077D01*
X86857456Y-141797456D01*
X86852077Y-141804633D01*
X86780465Y-141900183D01*
X86780463Y-141900186D01*
X86775083Y-141907365D01*
X86726870Y-142035976D01*
X86726017Y-142043826D01*
X86726017Y-142043827D01*
X86725440Y-142049135D01*
X86720500Y-142094611D01*
X86720501Y-142685388D01*
X86720870Y-142688782D01*
X86720870Y-142688788D01*
X86725271Y-142729300D01*
X86726870Y-142744024D01*
X86755395Y-142820115D01*
X86770393Y-142860123D01*
X86775083Y-142872635D01*
X86780463Y-142879814D01*
X86780465Y-142879817D01*
X86852077Y-142975367D01*
X86857456Y-142982544D01*
X86967365Y-143064917D01*
X86975772Y-143068069D01*
X86978005Y-143069291D01*
X87028153Y-143119548D01*
X87043500Y-143179813D01*
X87043500Y-143313122D01*
X87023498Y-143381243D01*
X86969842Y-143427736D01*
X86959252Y-143432003D01*
X86948812Y-143435669D01*
X86948808Y-143435671D01*
X86939924Y-143438791D01*
X86829990Y-143519990D01*
X86748791Y-143629924D01*
X86703507Y-143758873D01*
X86700500Y-143790685D01*
X83896200Y-143790685D01*
X83896200Y-132580685D01*
X86690500Y-132580685D01*
X86690501Y-133089314D01*
X86693507Y-133121127D01*
X86738791Y-133250076D01*
X86819990Y-133360010D01*
X86929924Y-133441209D01*
X87058873Y-133486493D01*
X87066515Y-133487215D01*
X87066518Y-133487216D01*
X87081421Y-133488624D01*
X87090685Y-133489500D01*
X87419777Y-133489500D01*
X87749314Y-133489499D01*
X87752262Y-133489220D01*
X87752271Y-133489220D01*
X87773478Y-133487216D01*
X87773480Y-133487216D01*
X87781127Y-133486493D01*
X87910076Y-133441209D01*
X88020010Y-133360010D01*
X88088236Y-133267640D01*
X88144797Y-133224730D01*
X88189587Y-133216500D01*
X88812468Y-133216500D01*
X88880589Y-133236502D01*
X88913294Y-133266934D01*
X88934254Y-133294900D01*
X88977456Y-133352544D01*
X88984633Y-133357923D01*
X89080183Y-133429535D01*
X89080186Y-133429537D01*
X89087365Y-133434917D01*
X89095769Y-133438067D01*
X89095770Y-133438068D01*
X89208581Y-133480358D01*
X89208582Y-133480358D01*
X89215976Y-133483130D01*
X89223826Y-133483983D01*
X89223827Y-133483983D01*
X89253587Y-133487216D01*
X89274611Y-133489500D01*
X89569956Y-133489500D01*
X89865388Y-133489499D01*
X89868782Y-133489130D01*
X89868788Y-133489130D01*
X89916166Y-133483984D01*
X89916170Y-133483983D01*
X89924024Y-133483130D01*
X90052635Y-133434917D01*
X90059814Y-133429537D01*
X90059817Y-133429535D01*
X90155367Y-133357923D01*
X90162544Y-133352544D01*
X90244917Y-133242635D01*
X90247317Y-133236234D01*
X90296812Y-133186846D01*
X90357076Y-133171500D01*
X90671366Y-133171500D01*
X90739487Y-133191502D01*
X90785980Y-133245158D01*
X90790247Y-133255745D01*
X90798791Y-133280076D01*
X90804383Y-133287646D01*
X90804384Y-133287649D01*
X90861788Y-133365367D01*
X90879990Y-133390010D01*
X90989924Y-133471209D01*
X91118873Y-133516493D01*
X91126515Y-133517215D01*
X91126518Y-133517216D01*
X91141421Y-133518624D01*
X91150685Y-133519500D01*
X91404828Y-133519500D01*
X91659314Y-133519499D01*
X91662262Y-133519220D01*
X91662271Y-133519220D01*
X91683478Y-133517216D01*
X91683480Y-133517216D01*
X91691127Y-133516493D01*
X91820076Y-133471209D01*
X91930010Y-133390010D01*
X92011209Y-133280076D01*
X92056493Y-133151127D01*
X92059500Y-133119315D01*
X92059499Y-132460686D01*
X92058345Y-132448466D01*
X92057216Y-132436522D01*
X92057215Y-132436518D01*
X92056493Y-132428873D01*
X92011209Y-132299924D01*
X91930010Y-132189990D01*
X91820076Y-132108791D01*
X91691127Y-132063507D01*
X91683485Y-132062785D01*
X91683482Y-132062784D01*
X91668579Y-132061376D01*
X91659315Y-132060500D01*
X91405172Y-132060500D01*
X91150686Y-132060501D01*
X91147738Y-132060780D01*
X91147729Y-132060780D01*
X91126522Y-132062784D01*
X91126520Y-132062784D01*
X91118873Y-132063507D01*
X90989924Y-132108791D01*
X90879990Y-132189990D01*
X90874398Y-132197561D01*
X90804384Y-132292351D01*
X90804383Y-132292354D01*
X90798791Y-132299924D01*
X90790249Y-132324249D01*
X90748805Y-132381894D01*
X90682776Y-132407982D01*
X90671366Y-132408500D01*
X90362551Y-132408500D01*
X90294430Y-132388498D01*
X90252030Y-132343007D01*
X90248067Y-132335769D01*
X90244917Y-132327365D01*
X90162544Y-132217456D01*
X90155367Y-132212077D01*
X90059817Y-132140465D01*
X90059814Y-132140463D01*
X90052635Y-132135083D01*
X89967468Y-132103156D01*
X89910703Y-132060515D01*
X89886003Y-131993954D01*
X89901210Y-131924605D01*
X89951496Y-131874486D01*
X89969947Y-131866292D01*
X90016014Y-131850114D01*
X90032479Y-131841397D01*
X90122065Y-131775228D01*
X90135228Y-131762065D01*
X90201397Y-131672479D01*
X90210115Y-131656012D01*
X90247590Y-131549300D01*
X90250858Y-131534408D01*
X90252721Y-131514693D01*
X90253000Y-131508779D01*
X90253000Y-131403115D01*
X90248525Y-131387876D01*
X90247135Y-131386671D01*
X90239452Y-131385000D01*
X88905116Y-131385000D01*
X88889877Y-131389475D01*
X88888672Y-131390865D01*
X88887001Y-131398548D01*
X88887001Y-131508775D01*
X88887280Y-131514699D01*
X88889142Y-131534404D01*
X88892411Y-131549303D01*
X88929885Y-131656012D01*
X88938603Y-131672479D01*
X89004772Y-131762065D01*
X89017935Y-131775228D01*
X89107521Y-131841397D01*
X89123986Y-131850114D01*
X89170053Y-131866292D01*
X89227698Y-131907735D01*
X89253785Y-131973765D01*
X89240034Y-132043417D01*
X89190808Y-132094578D01*
X89172531Y-132103156D01*
X89087365Y-132135083D01*
X89080186Y-132140463D01*
X89080183Y-132140465D01*
X88984633Y-132212077D01*
X88977456Y-132217456D01*
X88972077Y-132224633D01*
X88900465Y-132320183D01*
X88900463Y-132320186D01*
X88895083Y-132327365D01*
X88891933Y-132335769D01*
X88891932Y-132335770D01*
X88878452Y-132371729D01*
X88835811Y-132428494D01*
X88769250Y-132453194D01*
X88760470Y-132453500D01*
X88189587Y-132453500D01*
X88121466Y-132433498D01*
X88088236Y-132402360D01*
X88047216Y-132346824D01*
X88020010Y-132309990D01*
X87910076Y-132228791D01*
X87781127Y-132183507D01*
X87773485Y-132182785D01*
X87773482Y-132182784D01*
X87758579Y-132181376D01*
X87749315Y-132180500D01*
X87420223Y-132180500D01*
X87090686Y-132180501D01*
X87087738Y-132180780D01*
X87087729Y-132180780D01*
X87066522Y-132182784D01*
X87066520Y-132182784D01*
X87058873Y-132183507D01*
X86929924Y-132228791D01*
X86819990Y-132309990D01*
X86738791Y-132419924D01*
X86693507Y-132548873D01*
X86690500Y-132580685D01*
X83896200Y-132580685D01*
X83896200Y-130930685D01*
X86690500Y-130930685D01*
X86690501Y-131439314D01*
X86693507Y-131471127D01*
X86738791Y-131600076D01*
X86819990Y-131710010D01*
X86929924Y-131791209D01*
X87058873Y-131836493D01*
X87066515Y-131837215D01*
X87066518Y-131837216D01*
X87081421Y-131838624D01*
X87090685Y-131839500D01*
X87419777Y-131839500D01*
X87749314Y-131839499D01*
X87752262Y-131839220D01*
X87752271Y-131839220D01*
X87773478Y-131837216D01*
X87773480Y-131837216D01*
X87781127Y-131836493D01*
X87910076Y-131791209D01*
X88020010Y-131710010D01*
X88101209Y-131600076D01*
X88146493Y-131471127D01*
X88149500Y-131439315D01*
X88149499Y-131086885D01*
X94127000Y-131086885D01*
X94131475Y-131102124D01*
X94132865Y-131103329D01*
X94140548Y-131105000D01*
X94641885Y-131105000D01*
X94657124Y-131100525D01*
X94658329Y-131099135D01*
X94660000Y-131091452D01*
X94660000Y-131086885D01*
X94960000Y-131086885D01*
X94964475Y-131102124D01*
X94965865Y-131103329D01*
X94973548Y-131105000D01*
X95474884Y-131105000D01*
X95490123Y-131100525D01*
X95491328Y-131099135D01*
X95492999Y-131091452D01*
X95492999Y-130981225D01*
X95492720Y-130975301D01*
X95490858Y-130955596D01*
X95487589Y-130940697D01*
X95450115Y-130833988D01*
X95441397Y-130817521D01*
X95375228Y-130727935D01*
X95362065Y-130714772D01*
X95272479Y-130648603D01*
X95256012Y-130639885D01*
X95149300Y-130602410D01*
X95134408Y-130599142D01*
X95114693Y-130597279D01*
X95108779Y-130597000D01*
X94978115Y-130597000D01*
X94962876Y-130601475D01*
X94961671Y-130602865D01*
X94960000Y-130610548D01*
X94960000Y-131086885D01*
X94660000Y-131086885D01*
X94660000Y-130615116D01*
X94655525Y-130599877D01*
X94654135Y-130598672D01*
X94646452Y-130597001D01*
X94511225Y-130597001D01*
X94505301Y-130597280D01*
X94485596Y-130599142D01*
X94470697Y-130602411D01*
X94363988Y-130639885D01*
X94347521Y-130648603D01*
X94257935Y-130714772D01*
X94244772Y-130727935D01*
X94178603Y-130817521D01*
X94169885Y-130833988D01*
X94132410Y-130940700D01*
X94129142Y-130955592D01*
X94127279Y-130975307D01*
X94127000Y-130981221D01*
X94127000Y-131086885D01*
X88149499Y-131086885D01*
X88149499Y-131066885D01*
X88887000Y-131066885D01*
X88891475Y-131082124D01*
X88892865Y-131083329D01*
X88900548Y-131085000D01*
X89401885Y-131085000D01*
X89417124Y-131080525D01*
X89418329Y-131079135D01*
X89420000Y-131071452D01*
X89420000Y-131066885D01*
X89720000Y-131066885D01*
X89724475Y-131082124D01*
X89725865Y-131083329D01*
X89733548Y-131085000D01*
X90234884Y-131085000D01*
X90250123Y-131080525D01*
X90251328Y-131079135D01*
X90252999Y-131071452D01*
X90252999Y-130961225D01*
X90252720Y-130955301D01*
X90250858Y-130935596D01*
X90247589Y-130920697D01*
X90210115Y-130813988D01*
X90201397Y-130797521D01*
X90135228Y-130707935D01*
X90122065Y-130694772D01*
X90032479Y-130628603D01*
X90016012Y-130619885D01*
X89909300Y-130582410D01*
X89894408Y-130579142D01*
X89874693Y-130577279D01*
X89868779Y-130577000D01*
X89738115Y-130577000D01*
X89722876Y-130581475D01*
X89721671Y-130582865D01*
X89720000Y-130590548D01*
X89720000Y-131066885D01*
X89420000Y-131066885D01*
X89420000Y-130595116D01*
X89415525Y-130579877D01*
X89414135Y-130578672D01*
X89406452Y-130577001D01*
X89271225Y-130577001D01*
X89265301Y-130577280D01*
X89245596Y-130579142D01*
X89230697Y-130582411D01*
X89123988Y-130619885D01*
X89107521Y-130628603D01*
X89017935Y-130694772D01*
X89004772Y-130707935D01*
X88938603Y-130797521D01*
X88929885Y-130813988D01*
X88892410Y-130920700D01*
X88889142Y-130935592D01*
X88887279Y-130955307D01*
X88887000Y-130961221D01*
X88887000Y-131066885D01*
X88149499Y-131066885D01*
X88149499Y-130930686D01*
X88148556Y-130920700D01*
X88147216Y-130906522D01*
X88147215Y-130906518D01*
X88146493Y-130898873D01*
X88101209Y-130769924D01*
X88020010Y-130659990D01*
X87910076Y-130578791D01*
X87901192Y-130575671D01*
X87901188Y-130575669D01*
X87880752Y-130568493D01*
X87823107Y-130527050D01*
X87797018Y-130461021D01*
X87796500Y-130449610D01*
X87796500Y-130329813D01*
X87816502Y-130261692D01*
X87861995Y-130219291D01*
X87864228Y-130218069D01*
X87872635Y-130214917D01*
X87982544Y-130132544D01*
X87987923Y-130125367D01*
X88059535Y-130029817D01*
X88059537Y-130029814D01*
X88064917Y-130022635D01*
X88069608Y-130010123D01*
X88096844Y-129937468D01*
X88139485Y-129880703D01*
X88206046Y-129856003D01*
X88275395Y-129871210D01*
X88325514Y-129921496D01*
X88333708Y-129939947D01*
X88349886Y-129986014D01*
X88358603Y-130002479D01*
X88424772Y-130092065D01*
X88437935Y-130105228D01*
X88527521Y-130171397D01*
X88543988Y-130180115D01*
X88650700Y-130217590D01*
X88665592Y-130220858D01*
X88685307Y-130222721D01*
X88691221Y-130223000D01*
X88796885Y-130223000D01*
X88812124Y-130218525D01*
X88813329Y-130217135D01*
X88815000Y-130209452D01*
X88815000Y-130204884D01*
X89115000Y-130204884D01*
X89119475Y-130220123D01*
X89120865Y-130221328D01*
X89128548Y-130222999D01*
X89238775Y-130222999D01*
X89244699Y-130222720D01*
X89264404Y-130220858D01*
X89279303Y-130217589D01*
X89386012Y-130180115D01*
X89402479Y-130171397D01*
X89492065Y-130105228D01*
X89505228Y-130092065D01*
X89571397Y-130002479D01*
X89580115Y-129986012D01*
X89617590Y-129879300D01*
X89620858Y-129864408D01*
X89622721Y-129844693D01*
X89623000Y-129838779D01*
X89623000Y-129708115D01*
X89618525Y-129692876D01*
X89617135Y-129691671D01*
X89609452Y-129690000D01*
X89133115Y-129690000D01*
X89117876Y-129694475D01*
X89116671Y-129695865D01*
X89115000Y-129703548D01*
X89115000Y-130204884D01*
X88815000Y-130204884D01*
X88815000Y-129628775D01*
X90497001Y-129628775D01*
X90497280Y-129634699D01*
X90499142Y-129654404D01*
X90502411Y-129669303D01*
X90539885Y-129776012D01*
X90548603Y-129792479D01*
X90614772Y-129882065D01*
X90627935Y-129895228D01*
X90717521Y-129961397D01*
X90733988Y-129970115D01*
X90840700Y-130007590D01*
X90855592Y-130010858D01*
X90875307Y-130012721D01*
X90881221Y-130013000D01*
X91011885Y-130013000D01*
X91027124Y-130008525D01*
X91028329Y-130007135D01*
X91030000Y-129999452D01*
X91030000Y-129994884D01*
X91330000Y-129994884D01*
X91334475Y-130010123D01*
X91335865Y-130011328D01*
X91343548Y-130012999D01*
X91478775Y-130012999D01*
X91484699Y-130012720D01*
X91504404Y-130010858D01*
X91519303Y-130007589D01*
X91626012Y-129970115D01*
X91642479Y-129961397D01*
X91732065Y-129895228D01*
X91745228Y-129882065D01*
X91811397Y-129792479D01*
X91820115Y-129776012D01*
X91857590Y-129669300D01*
X91860858Y-129654408D01*
X91862721Y-129634693D01*
X91863000Y-129628779D01*
X91863000Y-129523115D01*
X91858525Y-129507876D01*
X91857135Y-129506671D01*
X91849452Y-129505000D01*
X91348115Y-129505000D01*
X91332876Y-129509475D01*
X91331671Y-129510865D01*
X91330000Y-129518548D01*
X91330000Y-129994884D01*
X91030000Y-129994884D01*
X91030000Y-129523115D01*
X91025525Y-129507876D01*
X91024135Y-129506671D01*
X91016452Y-129505000D01*
X90515116Y-129505000D01*
X90499877Y-129509475D01*
X90498672Y-129510865D01*
X90497001Y-129518548D01*
X90497001Y-129628775D01*
X88815000Y-129628775D01*
X88815000Y-129371885D01*
X89115000Y-129371885D01*
X89119475Y-129387124D01*
X89120865Y-129388329D01*
X89128548Y-129390000D01*
X89604884Y-129390000D01*
X89620123Y-129385525D01*
X89621328Y-129384135D01*
X89622999Y-129376452D01*
X89622999Y-129241225D01*
X89622720Y-129235301D01*
X89620858Y-129215596D01*
X89617589Y-129200697D01*
X89580115Y-129093988D01*
X89571397Y-129077521D01*
X89505228Y-128987935D01*
X89492065Y-128974772D01*
X89402479Y-128908603D01*
X89386012Y-128899885D01*
X89279300Y-128862410D01*
X89264408Y-128859142D01*
X89244693Y-128857279D01*
X89238779Y-128857000D01*
X89133115Y-128857000D01*
X89117876Y-128861475D01*
X89116671Y-128862865D01*
X89115000Y-128870548D01*
X89115000Y-129371885D01*
X88815000Y-129371885D01*
X88815000Y-128875116D01*
X88810525Y-128859877D01*
X88809135Y-128858672D01*
X88801452Y-128857001D01*
X88691225Y-128857001D01*
X88685301Y-128857280D01*
X88665596Y-128859142D01*
X88650697Y-128862411D01*
X88543988Y-128899885D01*
X88527521Y-128908603D01*
X88437935Y-128974772D01*
X88424772Y-128987935D01*
X88358603Y-129077521D01*
X88349886Y-129093986D01*
X88333708Y-129140053D01*
X88292265Y-129197698D01*
X88226235Y-129223785D01*
X88156583Y-129210034D01*
X88105422Y-129160808D01*
X88096844Y-129142532D01*
X88068068Y-129065770D01*
X88068067Y-129065769D01*
X88064917Y-129057365D01*
X88059537Y-129050186D01*
X88059535Y-129050183D01*
X87987923Y-128954633D01*
X87982544Y-128947456D01*
X87872635Y-128865083D01*
X87864231Y-128861932D01*
X87864228Y-128861931D01*
X87848272Y-128855950D01*
X87791507Y-128813310D01*
X87766806Y-128746748D01*
X87766500Y-128737968D01*
X87766500Y-128569587D01*
X87786502Y-128501466D01*
X87817640Y-128468236D01*
X87902439Y-128405602D01*
X87910010Y-128400010D01*
X87991209Y-128290076D01*
X88036493Y-128161127D01*
X88039500Y-128129315D01*
X88039499Y-127470686D01*
X88039499Y-127470685D01*
X88380500Y-127470685D01*
X88380501Y-128129314D01*
X88380780Y-128132262D01*
X88380780Y-128132271D01*
X88382784Y-128153478D01*
X88383507Y-128161127D01*
X88428791Y-128290076D01*
X88509990Y-128400010D01*
X88619924Y-128481209D01*
X88748873Y-128526493D01*
X88756515Y-128527215D01*
X88756518Y-128527216D01*
X88771421Y-128528624D01*
X88780685Y-128529500D01*
X89034828Y-128529500D01*
X89289314Y-128529499D01*
X89292262Y-128529220D01*
X89292271Y-128529220D01*
X89313478Y-128527216D01*
X89313480Y-128527216D01*
X89321127Y-128526493D01*
X89450076Y-128481209D01*
X89560010Y-128400010D01*
X89635613Y-128297653D01*
X89635616Y-128297649D01*
X89635617Y-128297646D01*
X89641209Y-128290076D01*
X89649752Y-128265750D01*
X89691195Y-128208106D01*
X89757224Y-128182018D01*
X89768634Y-128181500D01*
X90387449Y-128181500D01*
X90455570Y-128201502D01*
X90497970Y-128246993D01*
X90501933Y-128254231D01*
X90505083Y-128262635D01*
X90587456Y-128372544D01*
X90594633Y-128377923D01*
X90690183Y-128449535D01*
X90690186Y-128449537D01*
X90697365Y-128454917D01*
X90705769Y-128458067D01*
X90705770Y-128458068D01*
X90782532Y-128486844D01*
X90839297Y-128529485D01*
X90863997Y-128596046D01*
X90848790Y-128665395D01*
X90798504Y-128715514D01*
X90780053Y-128723708D01*
X90733986Y-128739886D01*
X90717521Y-128748603D01*
X90627935Y-128814772D01*
X90614772Y-128827935D01*
X90548603Y-128917521D01*
X90539885Y-128933988D01*
X90502410Y-129040700D01*
X90499142Y-129055592D01*
X90497279Y-129075307D01*
X90497000Y-129081221D01*
X90497000Y-129186885D01*
X90501475Y-129202124D01*
X90502865Y-129203329D01*
X90510548Y-129205000D01*
X91844884Y-129205000D01*
X91860123Y-129200525D01*
X91861328Y-129199135D01*
X91862999Y-129191452D01*
X91862999Y-129081225D01*
X91862720Y-129075301D01*
X91860858Y-129055596D01*
X91857589Y-129040697D01*
X91820115Y-128933988D01*
X91811397Y-128917521D01*
X91745228Y-128827935D01*
X91732065Y-128814772D01*
X91642479Y-128748603D01*
X91626014Y-128739886D01*
X91579947Y-128723708D01*
X91522302Y-128682265D01*
X91496215Y-128616235D01*
X91509966Y-128546583D01*
X91559192Y-128495422D01*
X91577468Y-128486844D01*
X91654230Y-128458068D01*
X91654231Y-128458067D01*
X91662635Y-128454917D01*
X91669814Y-128449537D01*
X91669817Y-128449535D01*
X91765367Y-128377923D01*
X91772544Y-128372544D01*
X91854917Y-128262635D01*
X91858067Y-128254231D01*
X91862030Y-128246993D01*
X91912288Y-128196846D01*
X91972551Y-128181500D01*
X92441366Y-128181500D01*
X92509487Y-128201502D01*
X92555980Y-128255158D01*
X92560247Y-128265745D01*
X92568791Y-128290076D01*
X92574383Y-128297646D01*
X92574384Y-128297649D01*
X92574387Y-128297653D01*
X92649990Y-128400010D01*
X92759924Y-128481209D01*
X92888873Y-128526493D01*
X92896515Y-128527215D01*
X92896518Y-128527216D01*
X92911421Y-128528624D01*
X92920685Y-128529500D01*
X93174828Y-128529500D01*
X93429314Y-128529499D01*
X93432262Y-128529220D01*
X93432271Y-128529220D01*
X93453478Y-128527216D01*
X93453480Y-128527216D01*
X93461127Y-128526493D01*
X93590076Y-128481209D01*
X93700010Y-128400010D01*
X93781209Y-128290076D01*
X93826493Y-128161127D01*
X93829500Y-128129315D01*
X93829499Y-127470686D01*
X93827400Y-127448466D01*
X93827216Y-127446522D01*
X93827215Y-127446518D01*
X93826493Y-127438873D01*
X93781209Y-127309924D01*
X93700010Y-127199990D01*
X93590076Y-127118791D01*
X93461127Y-127073507D01*
X93453485Y-127072785D01*
X93453482Y-127072784D01*
X93438579Y-127071376D01*
X93429315Y-127070500D01*
X93175172Y-127070500D01*
X92920686Y-127070501D01*
X92917738Y-127070780D01*
X92917729Y-127070780D01*
X92896522Y-127072784D01*
X92896520Y-127072784D01*
X92888873Y-127073507D01*
X92759924Y-127118791D01*
X92649990Y-127199990D01*
X92644398Y-127207561D01*
X92574384Y-127302351D01*
X92574383Y-127302354D01*
X92568791Y-127309924D01*
X92560954Y-127332242D01*
X92560249Y-127334249D01*
X92518805Y-127391894D01*
X92452776Y-127417982D01*
X92441366Y-127418500D01*
X91967076Y-127418500D01*
X91898955Y-127398498D01*
X91857352Y-127353862D01*
X91854917Y-127347365D01*
X91772544Y-127237456D01*
X91722554Y-127199990D01*
X91669817Y-127160465D01*
X91669814Y-127160463D01*
X91662635Y-127155083D01*
X91557499Y-127115670D01*
X91541419Y-127109642D01*
X91541418Y-127109642D01*
X91534024Y-127106870D01*
X91526174Y-127106017D01*
X91526173Y-127106017D01*
X91478786Y-127100869D01*
X91478785Y-127100869D01*
X91475389Y-127100500D01*
X91180044Y-127100500D01*
X90884612Y-127100501D01*
X90881218Y-127100870D01*
X90881212Y-127100870D01*
X90833834Y-127106016D01*
X90833830Y-127106017D01*
X90825976Y-127106870D01*
X90697365Y-127155083D01*
X90690186Y-127160463D01*
X90690183Y-127160465D01*
X90637446Y-127199990D01*
X90587456Y-127237456D01*
X90505083Y-127347365D01*
X90502683Y-127353766D01*
X90453188Y-127403154D01*
X90392924Y-127418500D01*
X89768634Y-127418500D01*
X89700513Y-127398498D01*
X89654020Y-127344842D01*
X89649751Y-127334249D01*
X89649046Y-127332242D01*
X89641209Y-127309924D01*
X89635617Y-127302354D01*
X89635616Y-127302351D01*
X89565602Y-127207561D01*
X89560010Y-127199990D01*
X89450076Y-127118791D01*
X89321127Y-127073507D01*
X89313485Y-127072785D01*
X89313482Y-127072784D01*
X89298579Y-127071376D01*
X89289315Y-127070500D01*
X89035172Y-127070500D01*
X88780686Y-127070501D01*
X88777738Y-127070780D01*
X88777729Y-127070780D01*
X88756522Y-127072784D01*
X88756520Y-127072784D01*
X88748873Y-127073507D01*
X88619924Y-127118791D01*
X88509990Y-127199990D01*
X88428791Y-127309924D01*
X88383507Y-127438873D01*
X88380500Y-127470685D01*
X88039499Y-127470685D01*
X88037400Y-127448466D01*
X88037216Y-127446522D01*
X88037215Y-127446518D01*
X88036493Y-127438873D01*
X87991209Y-127309924D01*
X87910010Y-127199990D01*
X87800076Y-127118791D01*
X87671127Y-127073507D01*
X87663485Y-127072785D01*
X87663482Y-127072784D01*
X87648579Y-127071376D01*
X87639315Y-127070500D01*
X87385172Y-127070500D01*
X87130686Y-127070501D01*
X87127738Y-127070780D01*
X87127729Y-127070780D01*
X87106522Y-127072784D01*
X87106520Y-127072784D01*
X87098873Y-127073507D01*
X86969924Y-127118791D01*
X86859990Y-127199990D01*
X86778791Y-127309924D01*
X86733507Y-127438873D01*
X86730500Y-127470685D01*
X86730501Y-128129314D01*
X86730780Y-128132262D01*
X86730780Y-128132271D01*
X86732784Y-128153478D01*
X86733507Y-128161127D01*
X86778791Y-128290076D01*
X86859990Y-128400010D01*
X86867561Y-128405602D01*
X86952360Y-128468236D01*
X86995270Y-128524797D01*
X87003500Y-128569587D01*
X87003500Y-128767479D01*
X86983498Y-128835600D01*
X86953065Y-128868305D01*
X86854636Y-128942074D01*
X86854633Y-128942077D01*
X86847456Y-128947456D01*
X86842077Y-128954633D01*
X86770465Y-129050183D01*
X86770463Y-129050186D01*
X86765083Y-129057365D01*
X86716870Y-129185976D01*
X86716017Y-129193826D01*
X86716017Y-129193827D01*
X86715440Y-129199135D01*
X86710500Y-129244611D01*
X86710501Y-129835388D01*
X86710870Y-129838782D01*
X86710870Y-129838788D01*
X86715271Y-129879300D01*
X86716870Y-129894024D01*
X86745395Y-129970115D01*
X86760393Y-130010123D01*
X86765083Y-130022635D01*
X86770463Y-130029814D01*
X86770465Y-130029817D01*
X86842077Y-130125367D01*
X86847456Y-130132544D01*
X86957365Y-130214917D01*
X86965772Y-130218069D01*
X86968005Y-130219291D01*
X87018153Y-130269548D01*
X87033500Y-130329813D01*
X87033500Y-130453122D01*
X87013498Y-130521243D01*
X86959842Y-130567736D01*
X86949252Y-130572003D01*
X86938812Y-130575669D01*
X86938808Y-130575671D01*
X86929924Y-130578791D01*
X86819990Y-130659990D01*
X86738791Y-130769924D01*
X86693507Y-130898873D01*
X86690500Y-130930685D01*
X83896200Y-130930685D01*
X83896200Y-124027200D01*
X83916202Y-123959079D01*
X83969858Y-123912586D01*
X84022200Y-123901200D01*
X95962200Y-123901200D01*
X96030321Y-123921202D01*
G37*
G04 #@! TD.AperFunction*
M02*
